<?xml version="1.0" encoding="UTF-8" standalone="no"?>
<!DOCTYPE svg PUBLIC "-//W3C//DTD SVG 1.1//EN"
 "http://www.w3.org/Graphics/SVG/1.1/DTD/svg11.dtd">
<!-- Generated by graphviz version 8.1.0 (20230707.0739)
 -->
<!-- Title: Tree Pages: 1 -->
<svg width="3982pt" height="581pt"
 viewBox="0.00 0.00 3981.50 581.00" xmlns="http://www.w3.org/2000/svg" xmlns:xlink="http://www.w3.org/1999/xlink">
<g id="graph0" class="graph" transform="scale(1 1) rotate(0) translate(4 577)">
<title>Tree</title>
<polygon fill="white" stroke="none" points="-4,4 -4,-577 3977.5,-577 3977.5,4 -4,4"/>
<!-- 0 -->
<g id="node1" class="node">
<title>0</title>
<path fill="#f7d6bf" stroke="black" d="M1785.25,-573C1785.25,-573 1651.5,-573 1651.5,-573 1645.5,-573 1639.5,-567 1639.5,-561 1639.5,-561 1639.5,-517 1639.5,-517 1639.5,-511 1645.5,-505 1651.5,-505 1651.5,-505 1785.25,-505 1785.25,-505 1791.25,-505 1797.25,-511 1797.25,-517 1797.25,-517 1797.25,-561 1797.25,-561 1797.25,-567 1791.25,-573 1785.25,-573"/>
<text text-anchor="start" x="1681.62" y="-555.7" font-family="Helvetica,sans-Serif" font-size="14.00">lstat ≤ 9.725</text>
<text text-anchor="start" x="1647.5" y="-540.7" font-family="Helvetica,sans-Serif" font-size="14.00">squared_error = 80.014</text>
<text text-anchor="start" x="1673.75" y="-525.7" font-family="Helvetica,sans-Serif" font-size="14.00">samples = 404</text>
<text text-anchor="start" x="1673.75" y="-510.7" font-family="Helvetica,sans-Serif" font-size="14.00">value = 22.326</text>
</g>
<!-- 1 -->
<g id="node2" class="node">
<title>1</title>
<path fill="#f2c19d" stroke="black" d="M1452.75,-469C1452.75,-469 1334,-469 1334,-469 1328,-469 1322,-463 1322,-457 1322,-457 1322,-413 1322,-413 1322,-407 1328,-401 1334,-401 1334,-401 1452.75,-401 1452.75,-401 1458.75,-401 1464.75,-407 1464.75,-413 1464.75,-413 1464.75,-457 1464.75,-457 1464.75,-463 1458.75,-469 1452.75,-469"/>
<text text-anchor="start" x="1360.75" y="-451.7" font-family="Helvetica,sans-Serif" font-size="14.00">rm ≤ 7.437</text>
<text text-anchor="start" x="1330" y="-436.7" font-family="Helvetica,sans-Serif" font-size="14.00">squared_error = 74.0</text>
<text text-anchor="start" x="1348.75" y="-421.7" font-family="Helvetica,sans-Serif" font-size="14.00">samples = 170</text>
<text text-anchor="start" x="1348.75" y="-406.7" font-family="Helvetica,sans-Serif" font-size="14.00">value = 29.271</text>
</g>
<!-- 0&#45;&gt;1 -->
<g id="edge1" class="edge">
<title>0&#45;&gt;1</title>
<path fill="none" stroke="black" d="M1639.29,-513.18C1589.54,-497.57 1525.49,-477.46 1475.22,-461.69"/>
<polygon fill="black" stroke="black" points="1476.63,-458.15 1466.04,-458.49 1474.53,-464.83 1476.63,-458.15"/>
<text text-anchor="middle" x="1476.61" y="-474.85" font-family="Helvetica,sans-Serif" font-size="14.00">True</text>
</g>
<!-- 24 -->
<g id="node25" class="node">
<title>24</title>
<path fill="#fae6d7" stroke="black" d="M2205.25,-469C2205.25,-469 2071.5,-469 2071.5,-469 2065.5,-469 2059.5,-463 2059.5,-457 2059.5,-457 2059.5,-413 2059.5,-413 2059.5,-407 2065.5,-401 2071.5,-401 2071.5,-401 2205.25,-401 2205.25,-401 2211.25,-401 2217.25,-407 2217.25,-413 2217.25,-413 2217.25,-457 2217.25,-457 2217.25,-463 2211.25,-469 2205.25,-469"/>
<text text-anchor="start" x="2109.12" y="-451.7" font-family="Helvetica,sans-Serif" font-size="14.00">dis ≤ 1.99</text>
<text text-anchor="start" x="2067.5" y="-436.7" font-family="Helvetica,sans-Serif" font-size="14.00">squared_error = 23.886</text>
<text text-anchor="start" x="2093.75" y="-421.7" font-family="Helvetica,sans-Serif" font-size="14.00">samples = 234</text>
<text text-anchor="start" x="2093.75" y="-406.7" font-family="Helvetica,sans-Serif" font-size="14.00">value = 17.281</text>
</g>
<!-- 0&#45;&gt;24 -->
<g id="edge24" class="edge">
<title>0&#45;&gt;24</title>
<path fill="none" stroke="black" d="M1797.37,-518.81C1868.86,-501.45 1974.08,-475.9 2048.7,-457.78"/>
<polygon fill="black" stroke="black" points="2049.13,-461.03 2058.02,-455.27 2047.47,-454.23 2049.13,-461.03"/>
<text text-anchor="middle" x="2046.01" y="-470.82" font-family="Helvetica,sans-Serif" font-size="14.00">False</text>
</g>
<!-- 2 -->
<g id="node3" class="node">
<title>2</title>
<path fill="#f4c8a9" stroke="black" d="M711.25,-365C711.25,-365 577.5,-365 577.5,-365 571.5,-365 565.5,-359 565.5,-353 565.5,-353 565.5,-309 565.5,-309 565.5,-303 571.5,-297 577.5,-297 577.5,-297 711.25,-297 711.25,-297 717.25,-297 723.25,-303 723.25,-309 723.25,-309 723.25,-353 723.25,-353 723.25,-359 717.25,-365 711.25,-365"/>
<text text-anchor="start" x="611.75" y="-347.7" font-family="Helvetica,sans-Serif" font-size="14.00">rm ≤ 6.639</text>
<text text-anchor="start" x="573.5" y="-332.7" font-family="Helvetica,sans-Serif" font-size="14.00">squared_error = 36.402</text>
<text text-anchor="start" x="599.75" y="-317.7" font-family="Helvetica,sans-Serif" font-size="14.00">samples = 148</text>
<text text-anchor="start" x="603.5" y="-302.7" font-family="Helvetica,sans-Serif" font-size="14.00">value = 26.93</text>
</g>
<!-- 1&#45;&gt;2 -->
<g id="edge2" class="edge">
<title>1&#45;&gt;2</title>
<path fill="none" stroke="black" d="M1321.56,-424.22C1184.16,-405.51 884.42,-364.69 734.1,-344.22"/>
<polygon fill="black" stroke="black" points="734.92,-340.66 724.54,-342.78 733.97,-347.6 734.92,-340.66"/>
</g>
<!-- 15 -->
<g id="node16" class="node">
<title>15</title>
<path fill="#e89051" stroke="black" d="M1460.25,-365C1460.25,-365 1326.5,-365 1326.5,-365 1320.5,-365 1314.5,-359 1314.5,-353 1314.5,-353 1314.5,-309 1314.5,-309 1314.5,-303 1320.5,-297 1326.5,-297 1326.5,-297 1460.25,-297 1460.25,-297 1466.25,-297 1472.25,-303 1472.25,-309 1472.25,-309 1472.25,-353 1472.25,-353 1472.25,-359 1466.25,-365 1460.25,-365"/>
<text text-anchor="start" x="1358.12" y="-347.7" font-family="Helvetica,sans-Serif" font-size="14.00">nox ≤ 0.683</text>
<text text-anchor="start" x="1322.5" y="-332.7" font-family="Helvetica,sans-Serif" font-size="14.00">squared_error = 41.938</text>
<text text-anchor="start" x="1352.5" y="-317.7" font-family="Helvetica,sans-Serif" font-size="14.00">samples = 22</text>
<text text-anchor="start" x="1348.75" y="-302.7" font-family="Helvetica,sans-Serif" font-size="14.00">value = 45.023</text>
</g>
<!-- 1&#45;&gt;15 -->
<g id="edge15" class="edge">
<title>1&#45;&gt;15</title>
<path fill="none" stroke="black" d="M1393.38,-400.6C1393.38,-392.85 1393.38,-384.49 1393.38,-376.35"/>
<polygon fill="black" stroke="black" points="1396.88,-376.47 1393.38,-366.47 1389.88,-376.47 1396.88,-376.47"/>
</g>
<!-- 3 -->
<g id="node4" class="node">
<title>3</title>
<path fill="#f5d0b6" stroke="black" d="M302.5,-261C302.5,-261 176.25,-261 176.25,-261 170.25,-261 164.25,-255 164.25,-249 164.25,-249 164.25,-205 164.25,-205 164.25,-199 170.25,-193 176.25,-193 176.25,-193 302.5,-193 302.5,-193 308.5,-193 314.5,-199 314.5,-205 314.5,-205 314.5,-249 314.5,-249 314.5,-255 308.5,-261 302.5,-261"/>
<text text-anchor="start" x="206.38" y="-243.7" font-family="Helvetica,sans-Serif" font-size="14.00">dis ≤ 1.473</text>
<text text-anchor="start" x="172.25" y="-228.7" font-family="Helvetica,sans-Serif" font-size="14.00">squared_error = 24.07</text>
<text text-anchor="start" x="198.5" y="-213.7" font-family="Helvetica,sans-Serif" font-size="14.00">samples = 92</text>
<text text-anchor="start" x="194.75" y="-198.7" font-family="Helvetica,sans-Serif" font-size="14.00">value = 24.204</text>
</g>
<!-- 2&#45;&gt;3 -->
<g id="edge3" class="edge">
<title>2&#45;&gt;3</title>
<path fill="none" stroke="black" d="M565.33,-310.09C496.21,-292.68 396.07,-267.46 325.06,-249.58"/>
<polygon fill="black" stroke="black" points="326.35,-246.04 315.8,-247 324.64,-252.83 326.35,-246.04"/>
</g>
<!-- 8 -->
<g id="node9" class="node">
<title>8</title>
<path fill="#f1ba93" stroke="black" d="M711.25,-261C711.25,-261 577.5,-261 577.5,-261 571.5,-261 565.5,-255 565.5,-249 565.5,-249 565.5,-205 565.5,-205 565.5,-199 571.5,-193 577.5,-193 577.5,-193 711.25,-193 711.25,-193 717.25,-193 723.25,-199 723.25,-205 723.25,-205 723.25,-249 723.25,-249 723.25,-255 717.25,-261 711.25,-261"/>
<text text-anchor="start" x="611.38" y="-243.7" font-family="Helvetica,sans-Serif" font-size="14.00">dis ≤ 1.904</text>
<text text-anchor="start" x="573.5" y="-228.7" font-family="Helvetica,sans-Serif" font-size="14.00">squared_error = 24.412</text>
<text text-anchor="start" x="603.5" y="-213.7" font-family="Helvetica,sans-Serif" font-size="14.00">samples = 56</text>
<text text-anchor="start" x="599.75" y="-198.7" font-family="Helvetica,sans-Serif" font-size="14.00">value = 31.407</text>
</g>
<!-- 2&#45;&gt;8 -->
<g id="edge8" class="edge">
<title>2&#45;&gt;8</title>
<path fill="none" stroke="black" d="M644.38,-296.6C644.38,-288.85 644.38,-280.49 644.38,-272.35"/>
<polygon fill="black" stroke="black" points="647.88,-272.47 644.38,-262.47 640.88,-272.47 647.88,-272.47"/>
</g>
<!-- 4 -->
<g id="node5" class="node">
<title>4</title>
<path fill="#e58139" stroke="black" d="M134,-149.5C134,-149.5 22.75,-149.5 22.75,-149.5 16.75,-149.5 10.75,-143.5 10.75,-137.5 10.75,-137.5 10.75,-108.5 10.75,-108.5 10.75,-102.5 16.75,-96.5 22.75,-96.5 22.75,-96.5 134,-96.5 134,-96.5 140,-96.5 146,-102.5 146,-108.5 146,-108.5 146,-137.5 146,-137.5 146,-143.5 140,-149.5 134,-149.5"/>
<text text-anchor="start" x="18.75" y="-132.2" font-family="Helvetica,sans-Serif" font-size="14.00">squared_error = 0.0</text>
<text text-anchor="start" x="41.25" y="-117.2" font-family="Helvetica,sans-Serif" font-size="14.00">samples = 2</text>
<text text-anchor="start" x="41.25" y="-102.2" font-family="Helvetica,sans-Serif" font-size="14.00">value = 50.0</text>
</g>
<!-- 3&#45;&gt;4 -->
<g id="edge4" class="edge">
<title>3&#45;&gt;4</title>
<path fill="none" stroke="black" d="M186.66,-192.6C167.91,-180.72 146.86,-167.39 128.35,-155.66"/>
<polygon fill="black" stroke="black" points="130.53,-152.26 120.21,-149.87 126.78,-158.18 130.53,-152.26"/>
</g>
<!-- 5 -->
<g id="node6" class="node">
<title>5</title>
<path fill="#f6d2b9" stroke="black" d="M302.5,-157C302.5,-157 176.25,-157 176.25,-157 170.25,-157 164.25,-151 164.25,-145 164.25,-145 164.25,-101 164.25,-101 164.25,-95 170.25,-89 176.25,-89 176.25,-89 302.5,-89 302.5,-89 308.5,-89 314.5,-95 314.5,-101 314.5,-101 314.5,-145 314.5,-145 314.5,-151 308.5,-157 302.5,-157"/>
<text text-anchor="start" x="206.75" y="-139.7" font-family="Helvetica,sans-Serif" font-size="14.00">rm ≤ 6.543</text>
<text text-anchor="start" x="172.25" y="-124.7" font-family="Helvetica,sans-Serif" font-size="14.00">squared_error = 9.489</text>
<text text-anchor="start" x="198.5" y="-109.7" font-family="Helvetica,sans-Serif" font-size="14.00">samples = 90</text>
<text text-anchor="start" x="194.75" y="-94.7" font-family="Helvetica,sans-Serif" font-size="14.00">value = 23.631</text>
</g>
<!-- 3&#45;&gt;5 -->
<g id="edge5" class="edge">
<title>3&#45;&gt;5</title>
<path fill="none" stroke="black" d="M239.38,-192.6C239.38,-184.85 239.38,-176.49 239.38,-168.35"/>
<polygon fill="black" stroke="black" points="242.88,-168.47 239.38,-158.47 235.88,-168.47 242.88,-168.47"/>
</g>
<!-- 6 -->
<g id="node7" class="node">
<title>6</title>
<path fill="#f6d5bd" stroke="black" d="M130.75,-53C130.75,-53 12,-53 12,-53 6,-53 0,-47 0,-41 0,-41 0,-12 0,-12 0,-6 6,0 12,0 12,0 130.75,0 130.75,0 136.75,0 142.75,-6 142.75,-12 142.75,-12 142.75,-41 142.75,-41 142.75,-47 136.75,-53 130.75,-53"/>
<text text-anchor="start" x="8" y="-35.7" font-family="Helvetica,sans-Serif" font-size="14.00">squared_error = 5.71</text>
<text text-anchor="start" x="30.5" y="-20.7" font-family="Helvetica,sans-Serif" font-size="14.00">samples = 71</text>
<text text-anchor="start" x="26.75" y="-5.7" font-family="Helvetica,sans-Serif" font-size="14.00">value = 22.783</text>
</g>
<!-- 5&#45;&gt;6 -->
<g id="edge6" class="edge">
<title>5&#45;&gt;6</title>
<path fill="none" stroke="black" d="M180.14,-88.68C162.77,-78.91 143.84,-68.26 126.71,-58.63"/>
<polygon fill="black" stroke="black" points="128.84,-55.25 118.41,-53.39 125.41,-61.35 128.84,-55.25"/>
</g>
<!-- 7 -->
<g id="node8" class="node">
<title>7</title>
<path fill="#f4c8a9" stroke="black" d="M306.25,-53C306.25,-53 172.5,-53 172.5,-53 166.5,-53 160.5,-47 160.5,-41 160.5,-41 160.5,-12 160.5,-12 160.5,-6 166.5,0 172.5,0 172.5,0 306.25,0 306.25,0 312.25,0 318.25,-6 318.25,-12 318.25,-12 318.25,-41 318.25,-41 318.25,-47 312.25,-53 306.25,-53"/>
<text text-anchor="start" x="168.5" y="-35.7" font-family="Helvetica,sans-Serif" font-size="14.00">squared_error = 10.884</text>
<text text-anchor="start" x="198.5" y="-20.7" font-family="Helvetica,sans-Serif" font-size="14.00">samples = 19</text>
<text text-anchor="start" x="202.25" y="-5.7" font-family="Helvetica,sans-Serif" font-size="14.00">value = 26.8</text>
</g>
<!-- 5&#45;&gt;7 -->
<g id="edge7" class="edge">
<title>5&#45;&gt;7</title>
<path fill="none" stroke="black" d="M239.38,-88.68C239.38,-80.81 239.38,-72.37 239.38,-64.35"/>
<polygon fill="black" stroke="black" points="242.88,-64.39 239.38,-54.39 235.88,-64.39 242.88,-64.39"/>
</g>
<!-- 9 -->
<g id="node10" class="node">
<title>9</title>
<path fill="#e88e4e" stroke="black" d="M623.25,-157C623.25,-157 489.5,-157 489.5,-157 483.5,-157 477.5,-151 477.5,-145 477.5,-145 477.5,-101 477.5,-101 477.5,-95 483.5,-89 489.5,-89 489.5,-89 623.25,-89 623.25,-89 629.25,-89 635.25,-95 635.25,-101 635.25,-101 635.25,-145 635.25,-145 635.25,-151 629.25,-157 623.25,-157"/>
<text text-anchor="start" x="523.38" y="-139.7" font-family="Helvetica,sans-Serif" font-size="14.00">dis ≤ 1.617</text>
<text text-anchor="start" x="485.5" y="-124.7" font-family="Helvetica,sans-Serif" font-size="14.00">squared_error = 18.923</text>
<text text-anchor="start" x="519.25" y="-109.7" font-family="Helvetica,sans-Serif" font-size="14.00">samples = 2</text>
<text text-anchor="start" x="515.5" y="-94.7" font-family="Helvetica,sans-Serif" font-size="14.00">value = 45.65</text>
</g>
<!-- 8&#45;&gt;9 -->
<g id="edge9" class="edge">
<title>8&#45;&gt;9</title>
<path fill="none" stroke="black" d="M615.56,-192.6C608.12,-183.97 600.01,-174.58 592.25,-165.58"/>
<polygon fill="black" stroke="black" points="594.44,-163.76 585.25,-158.47 589.14,-168.33 594.44,-163.76"/>
</g>
<!-- 12 -->
<g id="node13" class="node">
<title>12</title>
<path fill="#f1bc96" stroke="black" d="M799.25,-157C799.25,-157 665.5,-157 665.5,-157 659.5,-157 653.5,-151 653.5,-145 653.5,-145 653.5,-101 653.5,-101 653.5,-95 659.5,-89 665.5,-89 665.5,-89 799.25,-89 799.25,-89 805.25,-89 811.25,-95 811.25,-101 811.25,-101 811.25,-145 811.25,-145 811.25,-151 805.25,-157 799.25,-157"/>
<text text-anchor="start" x="689.25" y="-139.7" font-family="Helvetica,sans-Serif" font-size="14.00">ptratio ≤ 19.45</text>
<text text-anchor="start" x="661.5" y="-124.7" font-family="Helvetica,sans-Serif" font-size="14.00">squared_error = 16.824</text>
<text text-anchor="start" x="691.5" y="-109.7" font-family="Helvetica,sans-Serif" font-size="14.00">samples = 54</text>
<text text-anchor="start" x="691.5" y="-94.7" font-family="Helvetica,sans-Serif" font-size="14.00">value = 30.88</text>
</g>
<!-- 8&#45;&gt;12 -->
<g id="edge12" class="edge">
<title>8&#45;&gt;12</title>
<path fill="none" stroke="black" d="M673.19,-192.6C680.63,-183.97 688.74,-174.58 696.5,-165.58"/>
<polygon fill="black" stroke="black" points="699.61,-168.33 703.5,-158.47 694.31,-163.76 699.61,-168.33"/>
</g>
<!-- 10 -->
<g id="node11" class="node">
<title>10</title>
<path fill="#e58139" stroke="black" d="M460,-53C460,-53 348.75,-53 348.75,-53 342.75,-53 336.75,-47 336.75,-41 336.75,-41 336.75,-12 336.75,-12 336.75,-6 342.75,0 348.75,0 348.75,0 460,0 460,0 466,0 472,-6 472,-12 472,-12 472,-41 472,-41 472,-47 466,-53 460,-53"/>
<text text-anchor="start" x="344.75" y="-35.7" font-family="Helvetica,sans-Serif" font-size="14.00">squared_error = 0.0</text>
<text text-anchor="start" x="367.25" y="-20.7" font-family="Helvetica,sans-Serif" font-size="14.00">samples = 1</text>
<text text-anchor="start" x="367.25" y="-5.7" font-family="Helvetica,sans-Serif" font-size="14.00">value = 50.0</text>
</g>
<!-- 9&#45;&gt;10 -->
<g id="edge10" class="edge">
<title>9&#45;&gt;10</title>
<path fill="none" stroke="black" d="M502.79,-88.68C487.36,-79.09 470.57,-68.65 455.31,-59.16"/>
<polygon fill="black" stroke="black" points="457.36,-55.7 447.02,-53.39 453.67,-61.65 457.36,-55.7"/>
</g>
<!-- 11 -->
<g id="node12" class="node">
<title>11</title>
<path fill="#eb9c63" stroke="black" d="M618.25,-53C618.25,-53 502.5,-53 502.5,-53 496.5,-53 490.5,-47 490.5,-41 490.5,-41 490.5,-12 490.5,-12 490.5,-6 496.5,0 502.5,0 502.5,0 618.25,0 618.25,0 624.25,0 630.25,-6 630.25,-12 630.25,-12 630.25,-41 630.25,-41 630.25,-47 624.25,-53 618.25,-53"/>
<text text-anchor="start" x="498.5" y="-35.7" font-family="Helvetica,sans-Serif" font-size="14.00">squared_error = &#45;0.0</text>
<text text-anchor="start" x="523.25" y="-20.7" font-family="Helvetica,sans-Serif" font-size="14.00">samples = 1</text>
<text text-anchor="start" x="523.25" y="-5.7" font-family="Helvetica,sans-Serif" font-size="14.00">value = 41.3</text>
</g>
<!-- 9&#45;&gt;11 -->
<g id="edge11" class="edge">
<title>9&#45;&gt;11</title>
<path fill="none" stroke="black" d="M557.79,-88.68C558.12,-80.81 558.48,-72.37 558.82,-64.35"/>
<polygon fill="black" stroke="black" points="562.35,-64.53 559.28,-54.39 555.36,-64.24 562.35,-64.53"/>
</g>
<!-- 13 -->
<g id="node14" class="node">
<title>13</title>
<path fill="#f1b991" stroke="black" d="M794.25,-53C794.25,-53 660.5,-53 660.5,-53 654.5,-53 648.5,-47 648.5,-41 648.5,-41 648.5,-12 648.5,-12 648.5,-6 654.5,0 660.5,0 660.5,0 794.25,0 794.25,0 800.25,0 806.25,-6 806.25,-12 806.25,-12 806.25,-41 806.25,-41 806.25,-47 800.25,-53 794.25,-53"/>
<text text-anchor="start" x="656.5" y="-35.7" font-family="Helvetica,sans-Serif" font-size="14.00">squared_error = 12.253</text>
<text text-anchor="start" x="686.5" y="-20.7" font-family="Helvetica,sans-Serif" font-size="14.00">samples = 46</text>
<text text-anchor="start" x="682.75" y="-5.7" font-family="Helvetica,sans-Serif" font-size="14.00">value = 31.898</text>
</g>
<!-- 12&#45;&gt;13 -->
<g id="edge13" class="edge">
<title>12&#45;&gt;13</title>
<path fill="none" stroke="black" d="M730.61,-88.68C730.2,-80.81 729.75,-72.37 729.32,-64.35"/>
<polygon fill="black" stroke="black" points="732.77,-64.19 728.75,-54.39 725.78,-64.56 732.77,-64.19"/>
</g>
<!-- 14 -->
<g id="node15" class="node">
<title>14</title>
<path fill="#f5ceb2" stroke="black" d="M962.5,-53C962.5,-53 836.25,-53 836.25,-53 830.25,-53 824.25,-47 824.25,-41 824.25,-41 824.25,-12 824.25,-12 824.25,-6 830.25,0 836.25,0 836.25,0 962.5,0 962.5,0 968.5,0 974.5,-6 974.5,-12 974.5,-12 974.5,-41 974.5,-41 974.5,-47 968.5,-53 962.5,-53"/>
<text text-anchor="start" x="832.25" y="-35.7" font-family="Helvetica,sans-Serif" font-size="14.00">squared_error = 2.869</text>
<text text-anchor="start" x="862.25" y="-20.7" font-family="Helvetica,sans-Serif" font-size="14.00">samples = 8</text>
<text text-anchor="start" x="854.75" y="-5.7" font-family="Helvetica,sans-Serif" font-size="14.00">value = 25.025</text>
</g>
<!-- 12&#45;&gt;14 -->
<g id="edge14" class="edge">
<title>12&#45;&gt;14</title>
<path fill="none" stroke="black" d="M791.25,-88.68C808.53,-78.91 827.34,-68.26 844.36,-58.63"/>
<polygon fill="black" stroke="black" points="845.64,-61.36 852.62,-53.39 842.19,-55.27 845.64,-61.36"/>
</g>
<!-- 16 -->
<g id="node17" class="node">
<title>16</title>
<path fill="#e78d4c" stroke="black" d="M1378.25,-261C1378.25,-261 1244.5,-261 1244.5,-261 1238.5,-261 1232.5,-255 1232.5,-249 1232.5,-249 1232.5,-205 1232.5,-205 1232.5,-199 1238.5,-193 1244.5,-193 1244.5,-193 1378.25,-193 1378.25,-193 1384.25,-193 1390.25,-199 1390.25,-205 1390.25,-205 1390.25,-249 1390.25,-249 1390.25,-255 1384.25,-261 1378.25,-261"/>
<text text-anchor="start" x="1272" y="-243.7" font-family="Helvetica,sans-Serif" font-size="14.00">ptratio ≤ 14.8</text>
<text text-anchor="start" x="1240.5" y="-228.7" font-family="Helvetica,sans-Serif" font-size="14.00">squared_error = 17.263</text>
<text text-anchor="start" x="1270.5" y="-213.7" font-family="Helvetica,sans-Serif" font-size="14.00">samples = 21</text>
<text text-anchor="start" x="1266.75" y="-198.7" font-family="Helvetica,sans-Serif" font-size="14.00">value = 46.124</text>
</g>
<!-- 15&#45;&gt;16 -->
<g id="edge16" class="edge">
<title>15&#45;&gt;16</title>
<path fill="none" stroke="black" d="M1366.53,-296.6C1359.66,-288.06 1352.19,-278.77 1345.03,-269.86"/>
<polygon fill="black" stroke="black" points="1347.28,-268.07 1338.29,-262.47 1341.82,-272.46 1347.28,-268.07"/>
</g>
<!-- 23 -->
<g id="node24" class="node">
<title>23</title>
<path fill="#f7d8c1" stroke="black" d="M1532,-253.5C1532,-253.5 1420.75,-253.5 1420.75,-253.5 1414.75,-253.5 1408.75,-247.5 1408.75,-241.5 1408.75,-241.5 1408.75,-212.5 1408.75,-212.5 1408.75,-206.5 1414.75,-200.5 1420.75,-200.5 1420.75,-200.5 1532,-200.5 1532,-200.5 1538,-200.5 1544,-206.5 1544,-212.5 1544,-212.5 1544,-241.5 1544,-241.5 1544,-247.5 1538,-253.5 1532,-253.5"/>
<text text-anchor="start" x="1416.75" y="-236.2" font-family="Helvetica,sans-Serif" font-size="14.00">squared_error = 0.0</text>
<text text-anchor="start" x="1439.25" y="-221.2" font-family="Helvetica,sans-Serif" font-size="14.00">samples = 1</text>
<text text-anchor="start" x="1439.25" y="-206.2" font-family="Helvetica,sans-Serif" font-size="14.00">value = 21.9</text>
</g>
<!-- 15&#45;&gt;23 -->
<g id="edge23" class="edge">
<title>15&#45;&gt;23</title>
<path fill="none" stroke="black" d="M1420.55,-296.6C1429.59,-285.49 1439.67,-273.11 1448.75,-261.95"/>
<polygon fill="black" stroke="black" points="1451.86,-264.67 1455.46,-254.71 1446.43,-260.25 1451.86,-264.67"/>
</g>
<!-- 17 -->
<g id="node18" class="node">
<title>17</title>
<path fill="#e6843e" stroke="black" d="M1286.75,-157C1286.75,-157 1168,-157 1168,-157 1162,-157 1156,-151 1156,-145 1156,-145 1156,-101 1156,-101 1156,-95 1162,-89 1168,-89 1168,-89 1286.75,-89 1286.75,-89 1292.75,-89 1298.75,-95 1298.75,-101 1298.75,-101 1298.75,-145 1298.75,-145 1298.75,-151 1292.75,-157 1286.75,-157"/>
<text text-anchor="start" x="1194.38" y="-139.7" font-family="Helvetica,sans-Serif" font-size="14.00">dis ≤ 6.078</text>
<text text-anchor="start" x="1164" y="-124.7" font-family="Helvetica,sans-Serif" font-size="14.00">squared_error = 5.77</text>
<text text-anchor="start" x="1190.25" y="-109.7" font-family="Helvetica,sans-Serif" font-size="14.00">samples = 9</text>
<text text-anchor="start" x="1182.75" y="-94.7" font-family="Helvetica,sans-Serif" font-size="14.00">value = 49.011</text>
</g>
<!-- 16&#45;&gt;17 -->
<g id="edge17" class="edge">
<title>16&#45;&gt;17</title>
<path fill="none" stroke="black" d="M1283.87,-192.6C1276.84,-184.06 1269.18,-174.77 1261.85,-165.86"/>
<polygon fill="black" stroke="black" points="1264,-163.97 1254.94,-158.47 1258.6,-168.42 1264,-163.97"/>
</g>
<!-- 20 -->
<g id="node21" class="node">
<title>20</title>
<path fill="#e99456" stroke="black" d="M1462.25,-157C1462.25,-157 1328.5,-157 1328.5,-157 1322.5,-157 1316.5,-151 1316.5,-145 1316.5,-145 1316.5,-101 1316.5,-101 1316.5,-95 1322.5,-89 1328.5,-89 1328.5,-89 1462.25,-89 1462.25,-89 1468.25,-89 1474.25,-95 1474.25,-101 1474.25,-101 1474.25,-145 1474.25,-145 1474.25,-151 1468.25,-157 1462.25,-157"/>
<text text-anchor="start" x="1359.75" y="-139.7" font-family="Helvetica,sans-Serif" font-size="14.00">age ≤ 83.15</text>
<text text-anchor="start" x="1324.5" y="-124.7" font-family="Helvetica,sans-Serif" font-size="14.00">squared_error = 14.941</text>
<text text-anchor="start" x="1354.5" y="-109.7" font-family="Helvetica,sans-Serif" font-size="14.00">samples = 12</text>
<text text-anchor="start" x="1350.75" y="-94.7" font-family="Helvetica,sans-Serif" font-size="14.00">value = 43.958</text>
</g>
<!-- 16&#45;&gt;20 -->
<g id="edge20" class="edge">
<title>16&#45;&gt;20</title>
<path fill="none" stroke="black" d="M1338.88,-192.6C1345.91,-184.06 1353.57,-174.77 1360.9,-165.86"/>
<polygon fill="black" stroke="black" points="1364.15,-168.42 1367.81,-158.47 1358.75,-163.97 1364.15,-168.42"/>
</g>
<!-- 18 -->
<g id="node19" class="node">
<title>18</title>
<path fill="#e5813a" stroke="black" d="M1130.5,-53C1130.5,-53 1004.25,-53 1004.25,-53 998.25,-53 992.25,-47 992.25,-41 992.25,-41 992.25,-12 992.25,-12 992.25,-6 998.25,0 1004.25,0 1004.25,0 1130.5,0 1130.5,0 1136.5,0 1142.5,-6 1142.5,-12 1142.5,-12 1142.5,-41 1142.5,-41 1142.5,-47 1136.5,-53 1130.5,-53"/>
<text text-anchor="start" x="1000.25" y="-35.7" font-family="Helvetica,sans-Serif" font-size="14.00">squared_error = 0.157</text>
<text text-anchor="start" x="1030.25" y="-20.7" font-family="Helvetica,sans-Serif" font-size="14.00">samples = 8</text>
<text text-anchor="start" x="1026.5" y="-5.7" font-family="Helvetica,sans-Serif" font-size="14.00">value = 49.85</text>
</g>
<!-- 17&#45;&gt;18 -->
<g id="edge18" class="edge">
<title>17&#45;&gt;18</title>
<path fill="none" stroke="black" d="M1170.96,-88.68C1154.57,-79 1136.72,-68.46 1120.53,-58.9"/>
<polygon fill="black" stroke="black" points="1122.61,-55.47 1112.22,-53.39 1119.05,-61.49 1122.61,-55.47"/>
</g>
<!-- 19 -->
<g id="node20" class="node">
<title>19</title>
<path fill="#ea995e" stroke="black" d="M1284,-53C1284,-53 1172.75,-53 1172.75,-53 1166.75,-53 1160.75,-47 1160.75,-41 1160.75,-41 1160.75,-12 1160.75,-12 1160.75,-6 1166.75,0 1172.75,0 1172.75,0 1284,0 1284,0 1290,0 1296,-6 1296,-12 1296,-12 1296,-41 1296,-41 1296,-47 1290,-53 1284,-53"/>
<text text-anchor="start" x="1168.75" y="-35.7" font-family="Helvetica,sans-Serif" font-size="14.00">squared_error = 0.0</text>
<text text-anchor="start" x="1191.25" y="-20.7" font-family="Helvetica,sans-Serif" font-size="14.00">samples = 1</text>
<text text-anchor="start" x="1191.25" y="-5.7" font-family="Helvetica,sans-Serif" font-size="14.00">value = 42.3</text>
</g>
<!-- 17&#45;&gt;19 -->
<g id="edge19" class="edge">
<title>17&#45;&gt;19</title>
<path fill="none" stroke="black" d="M1227.73,-88.68C1227.81,-80.81 1227.9,-72.37 1227.99,-64.35"/>
<polygon fill="black" stroke="black" points="1231.49,-64.43 1228.1,-54.39 1224.5,-64.36 1231.49,-64.43"/>
</g>
<!-- 21 -->
<g id="node22" class="node">
<title>21</title>
<path fill="#e89051" stroke="black" d="M1460.25,-53C1460.25,-53 1326.5,-53 1326.5,-53 1320.5,-53 1314.5,-47 1314.5,-41 1314.5,-41 1314.5,-12 1314.5,-12 1314.5,-6 1320.5,0 1326.5,0 1326.5,0 1460.25,0 1460.25,0 1466.25,0 1472.25,-6 1472.25,-12 1472.25,-12 1472.25,-41 1472.25,-41 1472.25,-47 1466.25,-53 1460.25,-53"/>
<text text-anchor="start" x="1322.5" y="-35.7" font-family="Helvetica,sans-Serif" font-size="14.00">squared_error = 11.051</text>
<text text-anchor="start" x="1352.5" y="-20.7" font-family="Helvetica,sans-Serif" font-size="14.00">samples = 10</text>
<text text-anchor="start" x="1352.5" y="-5.7" font-family="Helvetica,sans-Serif" font-size="14.00">value = 45.01</text>
</g>
<!-- 20&#45;&gt;21 -->
<g id="edge21" class="edge">
<title>20&#45;&gt;21</title>
<path fill="none" stroke="black" d="M1394.67,-88.68C1394.5,-80.81 1394.32,-72.37 1394.15,-64.35"/>
<polygon fill="black" stroke="black" points="1397.63,-64.32 1393.92,-54.39 1390.64,-64.47 1397.63,-64.32"/>
</g>
<!-- 22 -->
<g id="node23" class="node">
<title>22</title>
<path fill="#eca470" stroke="black" d="M1620.75,-53C1620.75,-53 1502,-53 1502,-53 1496,-53 1490,-47 1490,-41 1490,-41 1490,-12 1490,-12 1490,-6 1496,0 1502,0 1502,0 1620.75,0 1620.75,0 1626.75,0 1632.75,-6 1632.75,-12 1632.75,-12 1632.75,-41 1632.75,-41 1632.75,-47 1626.75,-53 1620.75,-53"/>
<text text-anchor="start" x="1498" y="-35.7" font-family="Helvetica,sans-Serif" font-size="14.00">squared_error = 1.21</text>
<text text-anchor="start" x="1524.25" y="-20.7" font-family="Helvetica,sans-Serif" font-size="14.00">samples = 2</text>
<text text-anchor="start" x="1524.25" y="-5.7" font-family="Helvetica,sans-Serif" font-size="14.00">value = 38.7</text>
</g>
<!-- 20&#45;&gt;22 -->
<g id="edge22" class="edge">
<title>20&#45;&gt;22</title>
<path fill="none" stroke="black" d="M1453.9,-88.68C1471.07,-78.91 1489.77,-68.26 1506.69,-58.63"/>
<polygon fill="black" stroke="black" points="1507.93,-61.38 1514.89,-53.39 1504.47,-55.3 1507.93,-61.38"/>
</g>
<!-- 25 -->
<g id="node26" class="node">
<title>25</title>
<path fill="#fdf4ed" stroke="black" d="M2201.5,-365C2201.5,-365 2075.25,-365 2075.25,-365 2069.25,-365 2063.25,-359 2063.25,-353 2063.25,-353 2063.25,-309 2063.25,-309 2063.25,-303 2069.25,-297 2075.25,-297 2075.25,-297 2201.5,-297 2201.5,-297 2207.5,-297 2213.5,-303 2213.5,-309 2213.5,-309 2213.5,-353 2213.5,-353 2213.5,-359 2207.5,-365 2201.5,-365"/>
<text text-anchor="start" x="2101.62" y="-347.7" font-family="Helvetica,sans-Serif" font-size="14.00">lstat ≤ 19.85</text>
<text text-anchor="start" x="2071.25" y="-332.7" font-family="Helvetica,sans-Serif" font-size="14.00">squared_error = 17.26</text>
<text text-anchor="start" x="2097.5" y="-317.7" font-family="Helvetica,sans-Serif" font-size="14.00">samples = 74</text>
<text text-anchor="start" x="2093.75" y="-302.7" font-family="Helvetica,sans-Serif" font-size="14.00">value = 12.769</text>
</g>
<!-- 24&#45;&gt;25 -->
<g id="edge25" class="edge">
<title>24&#45;&gt;25</title>
<path fill="none" stroke="black" d="M2138.38,-400.6C2138.38,-392.85 2138.38,-384.49 2138.38,-376.35"/>
<polygon fill="black" stroke="black" points="2141.88,-376.47 2138.38,-366.47 2134.88,-376.47 2141.88,-376.47"/>
</g>
<!-- 38 -->
<g id="node39" class="node">
<title>38</title>
<path fill="#f8dfcd" stroke="black" d="M3057.25,-365C3057.25,-365 2923.5,-365 2923.5,-365 2917.5,-365 2911.5,-359 2911.5,-353 2911.5,-353 2911.5,-309 2911.5,-309 2911.5,-303 2917.5,-297 2923.5,-297 2923.5,-297 3057.25,-297 3057.25,-297 3063.25,-297 3069.25,-303 3069.25,-309 3069.25,-309 3069.25,-353 3069.25,-353 3069.25,-359 3063.25,-365 3057.25,-365"/>
<text text-anchor="start" x="2949.88" y="-347.7" font-family="Helvetica,sans-Serif" font-size="14.00">lstat ≤ 16.215</text>
<text text-anchor="start" x="2919.5" y="-332.7" font-family="Helvetica,sans-Serif" font-size="14.00">squared_error = 13.181</text>
<text text-anchor="start" x="2945.75" y="-317.7" font-family="Helvetica,sans-Serif" font-size="14.00">samples = 160</text>
<text text-anchor="start" x="2945.75" y="-302.7" font-family="Helvetica,sans-Serif" font-size="14.00">value = 19.367</text>
</g>
<!-- 24&#45;&gt;38 -->
<g id="edge38" class="edge">
<title>24&#45;&gt;38</title>
<path fill="none" stroke="black" d="M2217.38,-424.54C2376.12,-405.54 2732.88,-362.83 2900.35,-342.78"/>
<polygon fill="black" stroke="black" points="2900.59,-346.15 2910.1,-341.49 2899.75,-339.2 2900.59,-346.15"/>
</g>
<!-- 26 -->
<g id="node27" class="node">
<title>26</title>
<path fill="#fbeadf" stroke="black" d="M2117.25,-261C2117.25,-261 1983.5,-261 1983.5,-261 1977.5,-261 1971.5,-255 1971.5,-249 1971.5,-249 1971.5,-205 1971.5,-205 1971.5,-199 1977.5,-193 1983.5,-193 1983.5,-193 2117.25,-193 2117.25,-193 2123.25,-193 2129.25,-199 2129.25,-205 2129.25,-205 2129.25,-249 2129.25,-249 2129.25,-255 2123.25,-261 2117.25,-261"/>
<text text-anchor="start" x="2009.88" y="-243.7" font-family="Helvetica,sans-Serif" font-size="14.00">lstat ≤ 19.775</text>
<text text-anchor="start" x="1979.5" y="-228.7" font-family="Helvetica,sans-Serif" font-size="14.00">squared_error = 15.055</text>
<text text-anchor="start" x="2009.5" y="-213.7" font-family="Helvetica,sans-Serif" font-size="14.00">samples = 25</text>
<text text-anchor="start" x="2009.5" y="-198.7" font-family="Helvetica,sans-Serif" font-size="14.00">value = 15.76</text>
</g>
<!-- 25&#45;&gt;26 -->
<g id="edge26" class="edge">
<title>25&#45;&gt;26</title>
<path fill="none" stroke="black" d="M2109.56,-296.6C2102.12,-287.97 2094.01,-278.58 2086.25,-269.58"/>
<polygon fill="black" stroke="black" points="2088.44,-267.76 2079.25,-262.47 2083.14,-272.33 2088.44,-267.76"/>
</g>
<!-- 31 -->
<g id="node32" class="node">
<title>31</title>
<path fill="#fef8f5" stroke="black" d="M2295.25,-261C2295.25,-261 2161.5,-261 2161.5,-261 2155.5,-261 2149.5,-255 2149.5,-249 2149.5,-249 2149.5,-205 2149.5,-205 2149.5,-199 2155.5,-193 2161.5,-193 2161.5,-193 2295.25,-193 2295.25,-193 2301.25,-193 2307.25,-199 2307.25,-205 2307.25,-205 2307.25,-249 2307.25,-249 2307.25,-255 2301.25,-261 2295.25,-261"/>
<text text-anchor="start" x="2193.12" y="-243.7" font-family="Helvetica,sans-Serif" font-size="14.00">nox ≤ 0.675</text>
<text text-anchor="start" x="2157.5" y="-228.7" font-family="Helvetica,sans-Serif" font-size="14.00">squared_error = 11.492</text>
<text text-anchor="start" x="2187.5" y="-213.7" font-family="Helvetica,sans-Serif" font-size="14.00">samples = 49</text>
<text text-anchor="start" x="2183.75" y="-198.7" font-family="Helvetica,sans-Serif" font-size="14.00">value = 11.243</text>
</g>
<!-- 25&#45;&gt;31 -->
<g id="edge31" class="edge">
<title>25&#45;&gt;31</title>
<path fill="none" stroke="black" d="M2167.84,-296.6C2175.46,-287.97 2183.75,-278.58 2191.68,-269.58"/>
<polygon fill="black" stroke="black" points="2193.85,-272.29 2197.84,-262.47 2188.6,-267.66 2193.85,-272.29"/>
</g>
<!-- 27 -->
<g id="node28" class="node">
<title>27</title>
<path fill="#fbece1" stroke="black" d="M1950,-157C1950,-157 1838.75,-157 1838.75,-157 1832.75,-157 1826.75,-151 1826.75,-145 1826.75,-145 1826.75,-101 1826.75,-101 1826.75,-95 1832.75,-89 1838.75,-89 1838.75,-89 1950,-89 1950,-89 1956,-89 1962,-95 1962,-101 1962,-101 1962,-145 1962,-145 1962,-151 1956,-157 1950,-157"/>
<text text-anchor="start" x="1853.12" y="-139.7" font-family="Helvetica,sans-Serif" font-size="14.00">crim ≤ 22.205</text>
<text text-anchor="start" x="1834.75" y="-124.7" font-family="Helvetica,sans-Serif" font-size="14.00">squared_error = 9.7</text>
<text text-anchor="start" x="1853.5" y="-109.7" font-family="Helvetica,sans-Serif" font-size="14.00">samples = 24</text>
<text text-anchor="start" x="1849.75" y="-94.7" font-family="Helvetica,sans-Serif" font-size="14.00">value = 15.271</text>
</g>
<!-- 26&#45;&gt;27 -->
<g id="edge27" class="edge">
<title>26&#45;&gt;27</title>
<path fill="none" stroke="black" d="M1999.29,-192.6C1985.02,-183.27 1969.37,-173.04 1954.62,-163.39"/>
<polygon fill="black" stroke="black" points="1956.86,-160.02 1946.57,-157.47 1953.02,-165.88 1956.86,-160.02"/>
</g>
<!-- 30 -->
<g id="node31" class="node">
<title>30</title>
<path fill="#f3c6a6" stroke="black" d="M2106,-149.5C2106,-149.5 1994.75,-149.5 1994.75,-149.5 1988.75,-149.5 1982.75,-143.5 1982.75,-137.5 1982.75,-137.5 1982.75,-108.5 1982.75,-108.5 1982.75,-102.5 1988.75,-96.5 1994.75,-96.5 1994.75,-96.5 2106,-96.5 2106,-96.5 2112,-96.5 2118,-102.5 2118,-108.5 2118,-108.5 2118,-137.5 2118,-137.5 2118,-143.5 2112,-149.5 2106,-149.5"/>
<text text-anchor="start" x="1990.75" y="-132.2" font-family="Helvetica,sans-Serif" font-size="14.00">squared_error = 0.0</text>
<text text-anchor="start" x="2013.25" y="-117.2" font-family="Helvetica,sans-Serif" font-size="14.00">samples = 1</text>
<text text-anchor="start" x="2013.25" y="-102.2" font-family="Helvetica,sans-Serif" font-size="14.00">value = 27.5</text>
</g>
<!-- 26&#45;&gt;30 -->
<g id="edge30" class="edge">
<title>26&#45;&gt;30</title>
<path fill="none" stroke="black" d="M2050.38,-192.6C2050.38,-182.36 2050.38,-171.04 2050.38,-160.6"/>
<polygon fill="black" stroke="black" points="2053.88,-160.71 2050.38,-150.71 2046.88,-160.71 2053.88,-160.71"/>
</g>
<!-- 28 -->
<g id="node29" class="node">
<title>28</title>
<path fill="#fbe9dd" stroke="black" d="M1789.5,-53C1789.5,-53 1663.25,-53 1663.25,-53 1657.25,-53 1651.25,-47 1651.25,-41 1651.25,-41 1651.25,-12 1651.25,-12 1651.25,-6 1657.25,0 1663.25,0 1663.25,0 1789.5,0 1789.5,0 1795.5,0 1801.5,-6 1801.5,-12 1801.5,-12 1801.5,-41 1801.5,-41 1801.5,-47 1795.5,-53 1789.5,-53"/>
<text text-anchor="start" x="1659.25" y="-35.7" font-family="Helvetica,sans-Serif" font-size="14.00">squared_error = 6.386</text>
<text text-anchor="start" x="1685.5" y="-20.7" font-family="Helvetica,sans-Serif" font-size="14.00">samples = 20</text>
<text text-anchor="start" x="1681.75" y="-5.7" font-family="Helvetica,sans-Serif" font-size="14.00">value = 16.095</text>
</g>
<!-- 27&#45;&gt;28 -->
<g id="edge28" class="edge">
<title>27&#45;&gt;28</title>
<path fill="none" stroke="black" d="M1835.14,-88.68C1817.77,-78.91 1798.84,-68.26 1781.71,-58.63"/>
<polygon fill="black" stroke="black" points="1783.84,-55.25 1773.41,-53.39 1780.41,-61.35 1783.84,-55.25"/>
</g>
<!-- 29 -->
<g id="node30" class="node">
<title>29</title>
<path fill="#fef9f5" stroke="black" d="M1957.5,-53C1957.5,-53 1831.25,-53 1831.25,-53 1825.25,-53 1819.25,-47 1819.25,-41 1819.25,-41 1819.25,-12 1819.25,-12 1819.25,-6 1825.25,0 1831.25,0 1831.25,0 1957.5,0 1957.5,0 1963.5,0 1969.5,-6 1969.5,-12 1969.5,-12 1969.5,-41 1969.5,-41 1969.5,-47 1963.5,-53 1957.5,-53"/>
<text text-anchor="start" x="1827.25" y="-35.7" font-family="Helvetica,sans-Serif" font-size="14.00">squared_error = 5.892</text>
<text text-anchor="start" x="1857.25" y="-20.7" font-family="Helvetica,sans-Serif" font-size="14.00">samples = 4</text>
<text text-anchor="start" x="1853.5" y="-5.7" font-family="Helvetica,sans-Serif" font-size="14.00">value = 11.15</text>
</g>
<!-- 27&#45;&gt;29 -->
<g id="edge29" class="edge">
<title>27&#45;&gt;29</title>
<path fill="none" stroke="black" d="M1894.38,-88.68C1894.38,-80.81 1894.38,-72.37 1894.38,-64.35"/>
<polygon fill="black" stroke="black" points="1897.88,-64.39 1894.38,-54.39 1890.88,-64.39 1897.88,-64.39"/>
</g>
<!-- 32 -->
<g id="node33" class="node">
<title>32</title>
<path fill="#fcf0e8" stroke="black" d="M2291.5,-157C2291.5,-157 2165.25,-157 2165.25,-157 2159.25,-157 2153.25,-151 2153.25,-145 2153.25,-145 2153.25,-101 2153.25,-101 2153.25,-95 2159.25,-89 2165.25,-89 2165.25,-89 2291.5,-89 2291.5,-89 2297.5,-89 2303.5,-95 2303.5,-101 2303.5,-101 2303.5,-145 2303.5,-145 2303.5,-151 2297.5,-157 2291.5,-157"/>
<text text-anchor="start" x="2193.12" y="-139.7" font-family="Helvetica,sans-Serif" font-size="14.00">nox ≤ 0.603</text>
<text text-anchor="start" x="2161.25" y="-124.7" font-family="Helvetica,sans-Serif" font-size="14.00">squared_error = 6.264</text>
<text text-anchor="start" x="2187.5" y="-109.7" font-family="Helvetica,sans-Serif" font-size="14.00">samples = 15</text>
<text text-anchor="start" x="2183.75" y="-94.7" font-family="Helvetica,sans-Serif" font-size="14.00">value = 13.853</text>
</g>
<!-- 31&#45;&gt;32 -->
<g id="edge32" class="edge">
<title>31&#45;&gt;32</title>
<path fill="none" stroke="black" d="M2228.38,-192.6C2228.38,-184.85 2228.38,-176.49 2228.38,-168.35"/>
<polygon fill="black" stroke="black" points="2231.88,-168.47 2228.38,-158.47 2224.88,-168.47 2231.88,-168.47"/>
</g>
<!-- 35 -->
<g id="node36" class="node">
<title>35</title>
<path fill="#fefcfa" stroke="black" d="M2461.5,-157C2461.5,-157 2335.25,-157 2335.25,-157 2329.25,-157 2323.25,-151 2323.25,-145 2323.25,-145 2323.25,-101 2323.25,-101 2323.25,-95 2329.25,-89 2335.25,-89 2335.25,-89 2461.5,-89 2461.5,-89 2467.5,-89 2473.5,-95 2473.5,-101 2473.5,-101 2473.5,-145 2473.5,-145 2473.5,-151 2467.5,-157 2461.5,-157"/>
<text text-anchor="start" x="2363.12" y="-139.7" font-family="Helvetica,sans-Serif" font-size="14.00">nox ≤ 0.806</text>
<text text-anchor="start" x="2331.25" y="-124.7" font-family="Helvetica,sans-Serif" font-size="14.00">squared_error = 9.466</text>
<text text-anchor="start" x="2357.5" y="-109.7" font-family="Helvetica,sans-Serif" font-size="14.00">samples = 34</text>
<text text-anchor="start" x="2353.75" y="-94.7" font-family="Helvetica,sans-Serif" font-size="14.00">value = 10.091</text>
</g>
<!-- 31&#45;&gt;35 -->
<g id="edge35" class="edge">
<title>31&#45;&gt;35</title>
<path fill="none" stroke="black" d="M2284.04,-192.6C2299.74,-183.18 2316.97,-172.84 2333.18,-163.12"/>
<polygon fill="black" stroke="black" points="2334.81,-165.62 2341.59,-157.47 2331.21,-159.62 2334.81,-165.62"/>
</g>
<!-- 33 -->
<g id="node34" class="node">
<title>33</title>
<path fill="#fae7d9" stroke="black" d="M2125.5,-53C2125.5,-53 1999.25,-53 1999.25,-53 1993.25,-53 1987.25,-47 1987.25,-41 1987.25,-41 1987.25,-12 1987.25,-12 1987.25,-6 1993.25,0 1999.25,0 1999.25,0 2125.5,0 2125.5,0 2131.5,0 2137.5,-6 2137.5,-12 2137.5,-12 2137.5,-41 2137.5,-41 2137.5,-47 2131.5,-53 2125.5,-53"/>
<text text-anchor="start" x="1995.25" y="-35.7" font-family="Helvetica,sans-Serif" font-size="14.00">squared_error = 0.645</text>
<text text-anchor="start" x="2025.25" y="-20.7" font-family="Helvetica,sans-Serif" font-size="14.00">samples = 4</text>
<text text-anchor="start" x="2025.25" y="-5.7" font-family="Helvetica,sans-Serif" font-size="14.00">value = 17.0</text>
</g>
<!-- 32&#45;&gt;33 -->
<g id="edge33" class="edge">
<title>32&#45;&gt;33</title>
<path fill="none" stroke="black" d="M2169.85,-88.68C2152.68,-78.91 2133.98,-68.26 2117.06,-58.63"/>
<polygon fill="black" stroke="black" points="2119.28,-55.3 2108.86,-53.39 2115.82,-61.38 2119.28,-55.3"/>
</g>
<!-- 34 -->
<g id="node35" class="node">
<title>34</title>
<path fill="#fdf4ed" stroke="black" d="M2293.5,-53C2293.5,-53 2167.25,-53 2167.25,-53 2161.25,-53 2155.25,-47 2155.25,-41 2155.25,-41 2155.25,-12 2155.25,-12 2155.25,-6 2161.25,0 2167.25,0 2167.25,0 2293.5,0 2293.5,0 2299.5,0 2305.5,-6 2305.5,-12 2305.5,-12 2305.5,-41 2305.5,-41 2305.5,-47 2299.5,-53 2293.5,-53"/>
<text text-anchor="start" x="2163.25" y="-35.7" font-family="Helvetica,sans-Serif" font-size="14.00">squared_error = 3.397</text>
<text text-anchor="start" x="2189.5" y="-20.7" font-family="Helvetica,sans-Serif" font-size="14.00">samples = 11</text>
<text text-anchor="start" x="2185.75" y="-5.7" font-family="Helvetica,sans-Serif" font-size="14.00">value = 12.709</text>
</g>
<!-- 32&#45;&gt;34 -->
<g id="edge34" class="edge">
<title>32&#45;&gt;34</title>
<path fill="none" stroke="black" d="M2229.08,-88.68C2229.25,-80.81 2229.43,-72.37 2229.6,-64.35"/>
<polygon fill="black" stroke="black" points="2233.11,-64.47 2229.83,-54.39 2226.12,-64.32 2233.11,-64.47"/>
</g>
<!-- 36 -->
<g id="node37" class="node">
<title>36</title>
<path fill="#ffffff" stroke="black" d="M2461.5,-53C2461.5,-53 2335.25,-53 2335.25,-53 2329.25,-53 2323.25,-47 2323.25,-41 2323.25,-41 2323.25,-12 2323.25,-12 2323.25,-6 2329.25,0 2335.25,0 2335.25,0 2461.5,0 2461.5,0 2467.5,0 2473.5,-6 2473.5,-12 2473.5,-12 2473.5,-41 2473.5,-41 2473.5,-47 2467.5,-53 2461.5,-53"/>
<text text-anchor="start" x="2331.25" y="-35.7" font-family="Helvetica,sans-Serif" font-size="14.00">squared_error = 4.927</text>
<text text-anchor="start" x="2357.5" y="-20.7" font-family="Helvetica,sans-Serif" font-size="14.00">samples = 28</text>
<text text-anchor="start" x="2357.5" y="-5.7" font-family="Helvetica,sans-Serif" font-size="14.00">value = 9.075</text>
</g>
<!-- 35&#45;&gt;36 -->
<g id="edge36" class="edge">
<title>35&#45;&gt;36</title>
<path fill="none" stroke="black" d="M2398.38,-88.68C2398.38,-80.81 2398.38,-72.37 2398.38,-64.35"/>
<polygon fill="black" stroke="black" points="2401.88,-64.39 2398.38,-54.39 2394.88,-64.39 2401.88,-64.39"/>
</g>
<!-- 37 -->
<g id="node38" class="node">
<title>37</title>
<path fill="#fbede3" stroke="black" d="M2629.5,-53C2629.5,-53 2503.25,-53 2503.25,-53 2497.25,-53 2491.25,-47 2491.25,-41 2491.25,-41 2491.25,-12 2491.25,-12 2491.25,-6 2497.25,0 2503.25,0 2503.25,0 2629.5,0 2629.5,0 2635.5,0 2641.5,-6 2641.5,-12 2641.5,-12 2641.5,-41 2641.5,-41 2641.5,-47 2635.5,-53 2629.5,-53"/>
<text text-anchor="start" x="2499.25" y="-35.7" font-family="Helvetica,sans-Serif" font-size="14.00">squared_error = 3.339</text>
<text text-anchor="start" x="2529.25" y="-20.7" font-family="Helvetica,sans-Serif" font-size="14.00">samples = 6</text>
<text text-anchor="start" x="2521.75" y="-5.7" font-family="Helvetica,sans-Serif" font-size="14.00">value = 14.833</text>
</g>
<!-- 35&#45;&gt;37 -->
<g id="edge37" class="edge">
<title>35&#45;&gt;37</title>
<path fill="none" stroke="black" d="M2457.61,-88.68C2474.98,-78.91 2493.91,-68.26 2511.04,-58.63"/>
<polygon fill="black" stroke="black" points="2512.34,-61.35 2519.34,-53.39 2508.91,-55.25 2512.34,-61.35"/>
</g>
<!-- 39 -->
<g id="node40" class="node">
<title>39</title>
<path fill="#f8dbc6" stroke="black" d="M3053.5,-261C3053.5,-261 2927.25,-261 2927.25,-261 2921.25,-261 2915.25,-255 2915.25,-249 2915.25,-249 2915.25,-205 2915.25,-205 2915.25,-199 2921.25,-193 2927.25,-193 2927.25,-193 3053.5,-193 3053.5,-193 3059.5,-193 3065.5,-199 3065.5,-205 3065.5,-205 3065.5,-249 3065.5,-249 3065.5,-255 3059.5,-261 3053.5,-261"/>
<text text-anchor="start" x="2957.75" y="-243.7" font-family="Helvetica,sans-Serif" font-size="14.00">rm ≤ 6.938</text>
<text text-anchor="start" x="2923.25" y="-228.7" font-family="Helvetica,sans-Serif" font-size="14.00">squared_error = 8.532</text>
<text text-anchor="start" x="2945.75" y="-213.7" font-family="Helvetica,sans-Serif" font-size="14.00">samples = 105</text>
<text text-anchor="start" x="2945.75" y="-198.7" font-family="Helvetica,sans-Serif" font-size="14.00">value = 20.766</text>
</g>
<!-- 38&#45;&gt;39 -->
<g id="edge39" class="edge">
<title>38&#45;&gt;39</title>
<path fill="none" stroke="black" d="M2990.38,-296.6C2990.38,-288.85 2990.38,-280.49 2990.38,-272.35"/>
<polygon fill="black" stroke="black" points="2993.88,-272.47 2990.38,-262.47 2986.88,-272.47 2993.88,-272.47"/>
</g>
<!-- 46 -->
<g id="node47" class="node">
<title>46</title>
<path fill="#fae8da" stroke="black" d="M3546.25,-261C3546.25,-261 3412.5,-261 3412.5,-261 3406.5,-261 3400.5,-255 3400.5,-249 3400.5,-249 3400.5,-205 3400.5,-205 3400.5,-199 3406.5,-193 3412.5,-193 3412.5,-193 3546.25,-193 3546.25,-193 3552.25,-193 3558.25,-199 3558.25,-205 3558.25,-205 3558.25,-249 3558.25,-249 3558.25,-255 3552.25,-261 3546.25,-261"/>
<text text-anchor="start" x="3441.88" y="-243.7" font-family="Helvetica,sans-Serif" font-size="14.00">crim ≤ 0.654</text>
<text text-anchor="start" x="3408.5" y="-228.7" font-family="Helvetica,sans-Serif" font-size="14.00">squared_error = 11.197</text>
<text text-anchor="start" x="3438.5" y="-213.7" font-family="Helvetica,sans-Serif" font-size="14.00">samples = 55</text>
<text text-anchor="start" x="3434.75" y="-198.7" font-family="Helvetica,sans-Serif" font-size="14.00">value = 16.698</text>
</g>
<!-- 38&#45;&gt;46 -->
<g id="edge46" class="edge">
<title>38&#45;&gt;46</title>
<path fill="none" stroke="black" d="M3069.48,-313.5C3157.11,-295.22 3298.09,-265.81 3389.73,-246.7"/>
<polygon fill="black" stroke="black" points="3390.3,-249.95 3399.38,-244.48 3388.87,-243.09 3390.3,-249.95"/>
</g>
<!-- 40 -->
<g id="node41" class="node">
<title>40</title>
<path fill="#f8dcc8" stroke="black" d="M2971.5,-157C2971.5,-157 2845.25,-157 2845.25,-157 2839.25,-157 2833.25,-151 2833.25,-145 2833.25,-145 2833.25,-101 2833.25,-101 2833.25,-95 2839.25,-89 2845.25,-89 2845.25,-89 2971.5,-89 2971.5,-89 2977.5,-89 2983.5,-95 2983.5,-101 2983.5,-101 2983.5,-145 2983.5,-145 2983.5,-151 2977.5,-157 2971.5,-157"/>
<text text-anchor="start" x="2867.88" y="-139.7" font-family="Helvetica,sans-Serif" font-size="14.00">indus ≤ 2.675</text>
<text text-anchor="start" x="2841.25" y="-124.7" font-family="Helvetica,sans-Serif" font-size="14.00">squared_error = 5.907</text>
<text text-anchor="start" x="2863.75" y="-109.7" font-family="Helvetica,sans-Serif" font-size="14.00">samples = 102</text>
<text text-anchor="start" x="2863.75" y="-94.7" font-family="Helvetica,sans-Serif" font-size="14.00">value = 20.479</text>
</g>
<!-- 39&#45;&gt;40 -->
<g id="edge40" class="edge">
<title>39&#45;&gt;40</title>
<path fill="none" stroke="black" d="M2963.53,-192.6C2956.66,-184.06 2949.19,-174.77 2942.03,-165.86"/>
<polygon fill="black" stroke="black" points="2944.28,-164.07 2935.29,-158.47 2938.82,-168.46 2944.28,-164.07"/>
</g>
<!-- 43 -->
<g id="node44" class="node">
<title>43</title>
<path fill="#f1bd97" stroke="black" d="M3132.75,-157C3132.75,-157 3014,-157 3014,-157 3008,-157 3002,-151 3002,-145 3002,-145 3002,-101 3002,-101 3002,-95 3008,-89 3014,-89 3014,-89 3132.75,-89 3132.75,-89 3138.75,-89 3144.75,-95 3144.75,-101 3144.75,-101 3144.75,-145 3144.75,-145 3144.75,-151 3138.75,-157 3132.75,-157"/>
<text text-anchor="start" x="3045.62" y="-139.7" font-family="Helvetica,sans-Serif" font-size="14.00">zn ≤ 10.0</text>
<text text-anchor="start" x="3010" y="-124.7" font-family="Helvetica,sans-Serif" font-size="14.00">squared_error = 0.26</text>
<text text-anchor="start" x="3036.25" y="-109.7" font-family="Helvetica,sans-Serif" font-size="14.00">samples = 3</text>
<text text-anchor="start" x="3036.25" y="-94.7" font-family="Helvetica,sans-Serif" font-size="14.00">value = 30.5</text>
</g>
<!-- 39&#45;&gt;43 -->
<g id="edge43" class="edge">
<title>39&#45;&gt;43</title>
<path fill="none" stroke="black" d="M3017.55,-192.6C3024.5,-184.06 3032.06,-174.77 3039.31,-165.86"/>
<polygon fill="black" stroke="black" points="3042.54,-168.44 3046.14,-158.47 3037.11,-164.02 3042.54,-168.44"/>
</g>
<!-- 41 -->
<g id="node42" class="node">
<title>41</title>
<path fill="#f5cdb0" stroke="black" d="M2805.25,-53C2805.25,-53 2671.5,-53 2671.5,-53 2665.5,-53 2659.5,-47 2659.5,-41 2659.5,-41 2659.5,-12 2659.5,-12 2659.5,-6 2665.5,0 2671.5,0 2671.5,0 2805.25,0 2805.25,0 2811.25,0 2817.25,-6 2817.25,-12 2817.25,-12 2817.25,-41 2817.25,-41 2817.25,-47 2811.25,-53 2805.25,-53"/>
<text text-anchor="start" x="2667.5" y="-35.7" font-family="Helvetica,sans-Serif" font-size="14.00">squared_error = 15.576</text>
<text text-anchor="start" x="2701.25" y="-20.7" font-family="Helvetica,sans-Serif" font-size="14.00">samples = 3</text>
<text text-anchor="start" x="2693.75" y="-5.7" font-family="Helvetica,sans-Serif" font-size="14.00">value = 25.367</text>
</g>
<!-- 40&#45;&gt;41 -->
<g id="edge41" class="edge">
<title>40&#45;&gt;41</title>
<path fill="none" stroke="black" d="M2848.44,-88.68C2830.86,-78.91 2811.7,-68.26 2794.37,-58.63"/>
<polygon fill="black" stroke="black" points="2796.4,-55.19 2785.96,-53.39 2793,-61.31 2796.4,-55.19"/>
</g>
<!-- 42 -->
<g id="node43" class="node">
<title>42</title>
<path fill="#f8dcc9" stroke="black" d="M2973.5,-53C2973.5,-53 2847.25,-53 2847.25,-53 2841.25,-53 2835.25,-47 2835.25,-41 2835.25,-41 2835.25,-12 2835.25,-12 2835.25,-6 2841.25,0 2847.25,0 2847.25,0 2973.5,0 2973.5,0 2979.5,0 2985.5,-6 2985.5,-12 2985.5,-12 2985.5,-41 2985.5,-41 2985.5,-47 2979.5,-53 2973.5,-53"/>
<text text-anchor="start" x="2843.25" y="-35.7" font-family="Helvetica,sans-Serif" font-size="14.00">squared_error = 4.868</text>
<text text-anchor="start" x="2869.5" y="-20.7" font-family="Helvetica,sans-Serif" font-size="14.00">samples = 99</text>
<text text-anchor="start" x="2865.75" y="-5.7" font-family="Helvetica,sans-Serif" font-size="14.00">value = 20.331</text>
</g>
<!-- 40&#45;&gt;42 -->
<g id="edge42" class="edge">
<title>40&#45;&gt;42</title>
<path fill="none" stroke="black" d="M2909.08,-88.68C2909.25,-80.81 2909.43,-72.37 2909.6,-64.35"/>
<polygon fill="black" stroke="black" points="2913.11,-64.47 2909.83,-54.39 2906.12,-64.32 2913.11,-64.47"/>
</g>
<!-- 44 -->
<g id="node45" class="node">
<title>44</title>
<path fill="#f2bf9b" stroke="black" d="M3127,-53C3127,-53 3015.75,-53 3015.75,-53 3009.75,-53 3003.75,-47 3003.75,-41 3003.75,-41 3003.75,-12 3003.75,-12 3003.75,-6 3009.75,0 3015.75,0 3015.75,0 3127,0 3127,0 3133,0 3139,-6 3139,-12 3139,-12 3139,-41 3139,-41 3139,-47 3133,-53 3127,-53"/>
<text text-anchor="start" x="3011.75" y="-35.7" font-family="Helvetica,sans-Serif" font-size="14.00">squared_error = 0.0</text>
<text text-anchor="start" x="3034.25" y="-20.7" font-family="Helvetica,sans-Serif" font-size="14.00">samples = 1</text>
<text text-anchor="start" x="3034.25" y="-5.7" font-family="Helvetica,sans-Serif" font-size="14.00">value = 29.8</text>
</g>
<!-- 43&#45;&gt;44 -->
<g id="edge44" class="edge">
<title>43&#45;&gt;44</title>
<path fill="none" stroke="black" d="M3072.67,-88.68C3072.5,-80.81 3072.32,-72.37 3072.15,-64.35"/>
<polygon fill="black" stroke="black" points="3075.63,-64.32 3071.92,-54.39 3068.64,-64.47 3075.63,-64.32"/>
</g>
<!-- 45 -->
<g id="node46" class="node">
<title>45</title>
<path fill="#f1bc96" stroke="black" d="M3295.5,-53C3295.5,-53 3169.25,-53 3169.25,-53 3163.25,-53 3157.25,-47 3157.25,-41 3157.25,-41 3157.25,-12 3157.25,-12 3157.25,-6 3163.25,0 3169.25,0 3169.25,0 3295.5,0 3295.5,0 3301.5,0 3307.5,-6 3307.5,-12 3307.5,-12 3307.5,-41 3307.5,-41 3307.5,-47 3301.5,-53 3295.5,-53"/>
<text text-anchor="start" x="3165.25" y="-35.7" font-family="Helvetica,sans-Serif" font-size="14.00">squared_error = 0.023</text>
<text text-anchor="start" x="3195.25" y="-20.7" font-family="Helvetica,sans-Serif" font-size="14.00">samples = 2</text>
<text text-anchor="start" x="3191.5" y="-5.7" font-family="Helvetica,sans-Serif" font-size="14.00">value = 30.85</text>
</g>
<!-- 43&#45;&gt;45 -->
<g id="edge45" class="edge">
<title>43&#45;&gt;45</title>
<path fill="none" stroke="black" d="M3129.43,-88.68C3145.73,-79 3163.46,-68.46 3179.55,-58.9"/>
<polygon fill="black" stroke="black" points="3181,-61.51 3187.81,-53.39 3177.42,-55.49 3181,-61.51"/>
</g>
<!-- 47 -->
<g id="node48" class="node">
<title>47</title>
<path fill="#f8dfcc" stroke="black" d="M3542.5,-157C3542.5,-157 3416.25,-157 3416.25,-157 3410.25,-157 3404.25,-151 3404.25,-145 3404.25,-145 3404.25,-101 3404.25,-101 3404.25,-95 3410.25,-89 3416.25,-89 3416.25,-89 3542.5,-89 3542.5,-89 3548.5,-89 3554.5,-95 3554.5,-101 3554.5,-101 3554.5,-145 3554.5,-145 3554.5,-151 3548.5,-157 3542.5,-157"/>
<text text-anchor="start" x="3452.75" y="-139.7" font-family="Helvetica,sans-Serif" font-size="14.00">rad ≤ 3.5</text>
<text text-anchor="start" x="3412.25" y="-124.7" font-family="Helvetica,sans-Serif" font-size="14.00">squared_error = 8.609</text>
<text text-anchor="start" x="3438.5" y="-109.7" font-family="Helvetica,sans-Serif" font-size="14.00">samples = 18</text>
<text text-anchor="start" x="3434.75" y="-94.7" font-family="Helvetica,sans-Serif" font-size="14.00">value = 19.583</text>
</g>
<!-- 46&#45;&gt;47 -->
<g id="edge47" class="edge">
<title>46&#45;&gt;47</title>
<path fill="none" stroke="black" d="M3479.38,-192.6C3479.38,-184.85 3479.38,-176.49 3479.38,-168.35"/>
<polygon fill="black" stroke="black" points="3482.88,-168.47 3479.38,-158.47 3475.88,-168.47 3482.88,-168.47"/>
</g>
<!-- 50 -->
<g id="node51" class="node">
<title>50</title>
<path fill="#fbece1" stroke="black" d="M3793.5,-157C3793.5,-157 3667.25,-157 3667.25,-157 3661.25,-157 3655.25,-151 3655.25,-145 3655.25,-145 3655.25,-101 3655.25,-101 3655.25,-95 3661.25,-89 3667.25,-89 3667.25,-89 3793.5,-89 3793.5,-89 3799.5,-89 3805.5,-95 3805.5,-101 3805.5,-101 3805.5,-145 3805.5,-145 3805.5,-151 3799.5,-157 3793.5,-157"/>
<text text-anchor="start" x="3697.75" y="-139.7" font-family="Helvetica,sans-Serif" font-size="14.00">rm ≤ 5.735</text>
<text text-anchor="start" x="3663.25" y="-124.7" font-family="Helvetica,sans-Serif" font-size="14.00">squared_error = 6.436</text>
<text text-anchor="start" x="3689.5" y="-109.7" font-family="Helvetica,sans-Serif" font-size="14.00">samples = 37</text>
<text text-anchor="start" x="3685.75" y="-94.7" font-family="Helvetica,sans-Serif" font-size="14.00">value = 15.295</text>
</g>
<!-- 46&#45;&gt;50 -->
<g id="edge50" class="edge">
<title>46&#45;&gt;50</title>
<path fill="none" stroke="black" d="M3558.45,-193.87C3585.96,-182.68 3616.95,-170.09 3644.95,-158.71"/>
<polygon fill="black" stroke="black" points="3646.18,-161.59 3654.12,-154.58 3643.54,-155.1 3646.18,-161.59"/>
</g>
<!-- 48 -->
<g id="node49" class="node">
<title>48</title>
<path fill="#fbebe0" stroke="black" d="M3456.75,-53C3456.75,-53 3338,-53 3338,-53 3332,-53 3326,-47 3326,-41 3326,-41 3326,-12 3326,-12 3326,-6 3332,0 3338,0 3338,0 3456.75,0 3456.75,0 3462.75,0 3468.75,-6 3468.75,-12 3468.75,-12 3468.75,-41 3468.75,-41 3468.75,-47 3462.75,-53 3456.75,-53"/>
<text text-anchor="start" x="3334" y="-35.7" font-family="Helvetica,sans-Serif" font-size="14.00">squared_error = 1.21</text>
<text text-anchor="start" x="3360.25" y="-20.7" font-family="Helvetica,sans-Serif" font-size="14.00">samples = 2</text>
<text text-anchor="start" x="3360.25" y="-5.7" font-family="Helvetica,sans-Serif" font-size="14.00">value = 15.5</text>
</g>
<!-- 47&#45;&gt;48 -->
<g id="edge48" class="edge">
<title>47&#45;&gt;48</title>
<path fill="none" stroke="black" d="M3450.46,-88.68C3442.85,-79.9 3434.62,-70.42 3426.97,-61.6"/>
<polygon fill="black" stroke="black" points="3429.04,-59.65 3419.84,-54.39 3423.75,-64.24 3429.04,-59.65"/>
</g>
<!-- 49 -->
<g id="node50" class="node">
<title>49</title>
<path fill="#f8ddca" stroke="black" d="M3625.5,-53C3625.5,-53 3499.25,-53 3499.25,-53 3493.25,-53 3487.25,-47 3487.25,-41 3487.25,-41 3487.25,-12 3487.25,-12 3487.25,-6 3493.25,0 3499.25,0 3499.25,0 3625.5,0 3625.5,0 3631.5,0 3637.5,-6 3637.5,-12 3637.5,-12 3637.5,-41 3637.5,-41 3637.5,-47 3631.5,-53 3625.5,-53"/>
<text text-anchor="start" x="3495.25" y="-35.7" font-family="Helvetica,sans-Serif" font-size="14.00">squared_error = 7.189</text>
<text text-anchor="start" x="3521.5" y="-20.7" font-family="Helvetica,sans-Serif" font-size="14.00">samples = 16</text>
<text text-anchor="start" x="3517.75" y="-5.7" font-family="Helvetica,sans-Serif" font-size="14.00">value = 20.094</text>
</g>
<!-- 47&#45;&gt;49 -->
<g id="edge49" class="edge">
<title>47&#45;&gt;49</title>
<path fill="none" stroke="black" d="M3508.64,-88.68C3516.35,-79.9 3524.68,-70.42 3532.42,-61.6"/>
<polygon fill="black" stroke="black" points="3535.66,-64.22 3539.63,-54.39 3530.4,-59.6 3535.66,-64.22"/>
</g>
<!-- 51 -->
<g id="node52" class="node">
<title>51</title>
<path fill="#fdf3ed" stroke="black" d="M3793.5,-53C3793.5,-53 3667.25,-53 3667.25,-53 3661.25,-53 3655.25,-47 3655.25,-41 3655.25,-41 3655.25,-12 3655.25,-12 3655.25,-6 3661.25,0 3667.25,0 3667.25,0 3793.5,0 3793.5,0 3799.5,0 3805.5,-6 3805.5,-12 3805.5,-12 3805.5,-41 3805.5,-41 3805.5,-47 3799.5,-53 3793.5,-53"/>
<text text-anchor="start" x="3663.25" y="-35.7" font-family="Helvetica,sans-Serif" font-size="14.00">squared_error = 0.689</text>
<text text-anchor="start" x="3693.25" y="-20.7" font-family="Helvetica,sans-Serif" font-size="14.00">samples = 6</text>
<text text-anchor="start" x="3685.75" y="-5.7" font-family="Helvetica,sans-Serif" font-size="14.00">value = 12.867</text>
</g>
<!-- 50&#45;&gt;51 -->
<g id="edge51" class="edge">
<title>50&#45;&gt;51</title>
<path fill="none" stroke="black" d="M3730.38,-88.68C3730.38,-80.81 3730.38,-72.37 3730.38,-64.35"/>
<polygon fill="black" stroke="black" points="3733.88,-64.39 3730.38,-54.39 3726.88,-64.39 3733.88,-64.39"/>
</g>
<!-- 52 -->
<g id="node53" class="node">
<title>52</title>
<path fill="#fbeadf" stroke="black" d="M3961.5,-53C3961.5,-53 3835.25,-53 3835.25,-53 3829.25,-53 3823.25,-47 3823.25,-41 3823.25,-41 3823.25,-12 3823.25,-12 3823.25,-6 3829.25,0 3835.25,0 3835.25,0 3961.5,0 3961.5,0 3967.5,0 3973.5,-6 3973.5,-12 3973.5,-12 3973.5,-41 3973.5,-41 3973.5,-47 3967.5,-53 3961.5,-53"/>
<text text-anchor="start" x="3831.25" y="-35.7" font-family="Helvetica,sans-Serif" font-size="14.00">squared_error = 6.187</text>
<text text-anchor="start" x="3857.5" y="-20.7" font-family="Helvetica,sans-Serif" font-size="14.00">samples = 31</text>
<text text-anchor="start" x="3853.75" y="-5.7" font-family="Helvetica,sans-Serif" font-size="14.00">value = 15.765</text>
</g>
<!-- 50&#45;&gt;52 -->
<g id="edge52" class="edge">
<title>50&#45;&gt;52</title>
<path fill="none" stroke="black" d="M3789.61,-88.68C3806.98,-78.91 3825.91,-68.26 3843.04,-58.63"/>
<polygon fill="black" stroke="black" points="3844.34,-61.35 3851.34,-53.39 3840.91,-55.25 3844.34,-61.35"/>
</g>
</g>
</svg>