<?xml version="1.0" encoding="UTF-8" standalone="no"?>
<!DOCTYPE svg PUBLIC "-//W3C//DTD SVG 1.1//EN"
 "http://www.w3.org/Graphics/SVG/1.1/DTD/svg11.dtd">
<!-- Generated by graphviz version 8.1.0 (20230707.0739)
 -->
<!-- Title: Tree Pages: 1 -->
<svg width="3766pt" height="581pt"
 viewBox="0.00 0.00 3766.00 581.00" xmlns="http://www.w3.org/2000/svg" xmlns:xlink="http://www.w3.org/1999/xlink">
<g id="graph0" class="graph" transform="scale(1 1) rotate(0) translate(4 577)">
<title>Tree</title>
<polygon fill="white" stroke="none" points="-4,4 -4,-577 3762,-577 3762,4 -4,4"/>
<!-- 0 -->
<g id="node1" class="node">
<title>0</title>
<path fill="#f6d6be" stroke="black" d="M2111.5,-573C2111.5,-573 1977.75,-573 1977.75,-573 1971.75,-573 1965.75,-567 1965.75,-561 1965.75,-561 1965.75,-517 1965.75,-517 1965.75,-511 1971.75,-505 1977.75,-505 1977.75,-505 2111.5,-505 2111.5,-505 2117.5,-505 2123.5,-511 2123.5,-517 2123.5,-517 2123.5,-561 2123.5,-561 2123.5,-567 2117.5,-573 2111.5,-573"/>
<text text-anchor="start" x="2012" y="-555.7" font-family="Helvetica,sans-Serif" font-size="14.00">rm ≤ 6.797</text>
<text text-anchor="start" x="1973.75" y="-540.7" font-family="Helvetica,sans-Serif" font-size="14.00">squared_error = 89.096</text>
<text text-anchor="start" x="2000" y="-525.7" font-family="Helvetica,sans-Serif" font-size="14.00">samples = 404</text>
<text text-anchor="start" x="2000" y="-510.7" font-family="Helvetica,sans-Serif" font-size="14.00">value = 22.548</text>
</g>
<!-- 1 -->
<g id="node2" class="node">
<title>1</title>
<path fill="#f8dfcd" stroke="black" d="M1537.5,-469C1537.5,-469 1403.75,-469 1403.75,-469 1397.75,-469 1391.75,-463 1391.75,-457 1391.75,-457 1391.75,-413 1391.75,-413 1391.75,-407 1397.75,-401 1403.75,-401 1403.75,-401 1537.5,-401 1537.5,-401 1543.5,-401 1549.5,-407 1549.5,-413 1549.5,-413 1549.5,-457 1549.5,-457 1549.5,-463 1543.5,-469 1537.5,-469"/>
<text text-anchor="start" x="1437.62" y="-451.7" font-family="Helvetica,sans-Serif" font-size="14.00">lstat ≤ 14.4</text>
<text text-anchor="start" x="1399.75" y="-436.7" font-family="Helvetica,sans-Serif" font-size="14.00">squared_error = 37.812</text>
<text text-anchor="start" x="1426" y="-421.7" font-family="Helvetica,sans-Serif" font-size="14.00">samples = 327</text>
<text text-anchor="start" x="1426" y="-406.7" font-family="Helvetica,sans-Serif" font-size="14.00">value = 19.384</text>
</g>
<!-- 0&#45;&gt;1 -->
<g id="edge1" class="edge">
<title>0&#45;&gt;1</title>
<path fill="none" stroke="black" d="M1965.42,-523.92C1859.35,-505.08 1671.68,-471.73 1560.46,-451.96"/>
<polygon fill="black" stroke="black" points="1561.4,-448.4 1550.94,-450.09 1560.18,-455.29 1561.4,-448.4"/>
<text text-anchor="middle" x="1564.25" y="-464.79" font-family="Helvetica,sans-Serif" font-size="14.00">True</text>
</g>
<!-- 28 -->
<g id="node29" class="node">
<title>28</title>
<path fill="#eeac7d" stroke="black" d="M2691.5,-469C2691.5,-469 2557.75,-469 2557.75,-469 2551.75,-469 2545.75,-463 2545.75,-457 2545.75,-457 2545.75,-413 2545.75,-413 2545.75,-407 2551.75,-401 2557.75,-401 2557.75,-401 2691.5,-401 2691.5,-401 2697.5,-401 2703.5,-407 2703.5,-413 2703.5,-413 2703.5,-457 2703.5,-457 2703.5,-463 2697.5,-469 2691.5,-469"/>
<text text-anchor="start" x="2592" y="-451.7" font-family="Helvetica,sans-Serif" font-size="14.00">rm ≤ 7.437</text>
<text text-anchor="start" x="2553.75" y="-436.7" font-family="Helvetica,sans-Serif" font-size="14.00">squared_error = 83.844</text>
<text text-anchor="start" x="2583.75" y="-421.7" font-family="Helvetica,sans-Serif" font-size="14.00">samples = 77</text>
<text text-anchor="start" x="2580" y="-406.7" font-family="Helvetica,sans-Serif" font-size="14.00">value = 35.984</text>
</g>
<!-- 0&#45;&gt;28 -->
<g id="edge28" class="edge">
<title>0&#45;&gt;28</title>
<path fill="none" stroke="black" d="M2123.75,-524.08C2231.11,-505.2 2422.4,-471.56 2534.96,-451.77"/>
<polygon fill="black" stroke="black" points="2535.36,-455.08 2544.6,-449.9 2534.14,-448.18 2535.36,-455.08"/>
<text text-anchor="middle" x="2531.25" y="-464.57" font-family="Helvetica,sans-Serif" font-size="14.00">False</text>
</g>
<!-- 2 -->
<g id="node3" class="node">
<title>2</title>
<path fill="#f6d5bd" stroke="black" d="M541.5,-365C541.5,-365 407.75,-365 407.75,-365 401.75,-365 395.75,-359 395.75,-353 395.75,-353 395.75,-309 395.75,-309 395.75,-303 401.75,-297 407.75,-297 407.75,-297 541.5,-297 541.5,-297 547.5,-297 553.5,-303 553.5,-309 553.5,-309 553.5,-353 553.5,-353 553.5,-359 547.5,-365 541.5,-365"/>
<text text-anchor="start" x="441.62" y="-347.7" font-family="Helvetica,sans-Serif" font-size="14.00">dis ≤ 1.385</text>
<text text-anchor="start" x="403.75" y="-332.7" font-family="Helvetica,sans-Serif" font-size="14.00">squared_error = 24.307</text>
<text text-anchor="start" x="430" y="-317.7" font-family="Helvetica,sans-Serif" font-size="14.00">samples = 189</text>
<text text-anchor="start" x="430" y="-302.7" font-family="Helvetica,sans-Serif" font-size="14.00">value = 22.796</text>
</g>
<!-- 1&#45;&gt;2 -->
<g id="edge2" class="edge">
<title>1&#45;&gt;2</title>
<path fill="none" stroke="black" d="M1391.64,-425.91C1208.86,-407.19 757.7,-360.99 564.64,-341.22"/>
<polygon fill="black" stroke="black" points="565.27,-337.66 554.97,-340.13 564.56,-344.63 565.27,-337.66"/>
</g>
<!-- 13 -->
<g id="node14" class="node">
<title>13</title>
<path fill="#fbeee4" stroke="black" d="M1537.5,-365C1537.5,-365 1403.75,-365 1403.75,-365 1397.75,-365 1391.75,-359 1391.75,-353 1391.75,-353 1391.75,-309 1391.75,-309 1391.75,-303 1397.75,-297 1403.75,-297 1403.75,-297 1537.5,-297 1537.5,-297 1543.5,-297 1549.5,-303 1549.5,-309 1549.5,-309 1549.5,-353 1549.5,-353 1549.5,-359 1543.5,-365 1537.5,-365"/>
<text text-anchor="start" x="1433.12" y="-347.7" font-family="Helvetica,sans-Serif" font-size="14.00">crim ≤ 6.042</text>
<text text-anchor="start" x="1399.75" y="-332.7" font-family="Helvetica,sans-Serif" font-size="14.00">squared_error = 18.541</text>
<text text-anchor="start" x="1426" y="-317.7" font-family="Helvetica,sans-Serif" font-size="14.00">samples = 138</text>
<text text-anchor="start" x="1426" y="-302.7" font-family="Helvetica,sans-Serif" font-size="14.00">value = 14.712</text>
</g>
<!-- 1&#45;&gt;13 -->
<g id="edge13" class="edge">
<title>1&#45;&gt;13</title>
<path fill="none" stroke="black" d="M1470.62,-400.6C1470.62,-392.85 1470.62,-384.49 1470.62,-376.35"/>
<polygon fill="black" stroke="black" points="1474.13,-376.47 1470.62,-366.47 1467.13,-376.47 1474.13,-376.47"/>
</g>
<!-- 3 -->
<g id="node4" class="node">
<title>3</title>
<path fill="#e99254" stroke="black" d="M290.5,-261C290.5,-261 156.75,-261 156.75,-261 150.75,-261 144.75,-255 144.75,-249 144.75,-249 144.75,-205 144.75,-205 144.75,-199 150.75,-193 156.75,-193 156.75,-193 290.5,-193 290.5,-193 296.5,-193 302.5,-199 302.5,-205 302.5,-205 302.5,-249 302.5,-249 302.5,-255 296.5,-261 290.5,-261"/>
<text text-anchor="start" x="183.12" y="-243.7" font-family="Helvetica,sans-Serif" font-size="14.00">lstat ≤ 10.505</text>
<text text-anchor="start" x="152.75" y="-228.7" font-family="Helvetica,sans-Serif" font-size="14.00">squared_error = 91.577</text>
<text text-anchor="start" x="186.5" y="-213.7" font-family="Helvetica,sans-Serif" font-size="14.00">samples = 4</text>
<text text-anchor="start" x="179" y="-198.7" font-family="Helvetica,sans-Serif" font-size="14.00">value = 44.475</text>
</g>
<!-- 2&#45;&gt;3 -->
<g id="edge3" class="edge">
<title>2&#45;&gt;3</title>
<path fill="none" stroke="black" d="M395.55,-297.87C369.19,-287.15 339.64,-275.15 312.58,-264.15"/>
<polygon fill="black" stroke="black" points="314.31,-260.67 303.73,-260.15 311.68,-267.15 314.31,-260.67"/>
</g>
<!-- 6 -->
<g id="node7" class="node">
<title>6</title>
<path fill="#f7d6bf" stroke="black" d="M541.5,-261C541.5,-261 407.75,-261 407.75,-261 401.75,-261 395.75,-255 395.75,-249 395.75,-249 395.75,-205 395.75,-205 395.75,-199 401.75,-193 407.75,-193 407.75,-193 541.5,-193 541.5,-193 547.5,-193 553.5,-199 553.5,-205 553.5,-205 553.5,-249 553.5,-249 553.5,-255 547.5,-261 541.5,-261"/>
<text text-anchor="start" x="437.88" y="-243.7" font-family="Helvetica,sans-Serif" font-size="14.00">lstat ≤ 7.765</text>
<text text-anchor="start" x="403.75" y="-228.7" font-family="Helvetica,sans-Serif" font-size="14.00">squared_error = 12.471</text>
<text text-anchor="start" x="430" y="-213.7" font-family="Helvetica,sans-Serif" font-size="14.00">samples = 185</text>
<text text-anchor="start" x="430" y="-198.7" font-family="Helvetica,sans-Serif" font-size="14.00">value = 22.327</text>
</g>
<!-- 2&#45;&gt;6 -->
<g id="edge6" class="edge">
<title>2&#45;&gt;6</title>
<path fill="none" stroke="black" d="M474.62,-296.6C474.62,-288.85 474.62,-280.49 474.62,-272.35"/>
<polygon fill="black" stroke="black" points="478.13,-272.47 474.62,-262.47 471.13,-272.47 478.13,-272.47"/>
</g>
<!-- 4 -->
<g id="node5" class="node">
<title>4</title>
<path fill="#e58139" stroke="black" d="M123.25,-149.5C123.25,-149.5 12,-149.5 12,-149.5 6,-149.5 0,-143.5 0,-137.5 0,-137.5 0,-108.5 0,-108.5 0,-102.5 6,-96.5 12,-96.5 12,-96.5 123.25,-96.5 123.25,-96.5 129.25,-96.5 135.25,-102.5 135.25,-108.5 135.25,-108.5 135.25,-137.5 135.25,-137.5 135.25,-143.5 129.25,-149.5 123.25,-149.5"/>
<text text-anchor="start" x="8" y="-132.2" font-family="Helvetica,sans-Serif" font-size="14.00">squared_error = 0.0</text>
<text text-anchor="start" x="30.5" y="-117.2" font-family="Helvetica,sans-Serif" font-size="14.00">samples = 3</text>
<text text-anchor="start" x="30.5" y="-102.2" font-family="Helvetica,sans-Serif" font-size="14.00">value = 50.0</text>
</g>
<!-- 3&#45;&gt;4 -->
<g id="edge4" class="edge">
<title>3&#45;&gt;4</title>
<path fill="none" stroke="black" d="M172.54,-192.6C154.46,-180.78 134.17,-167.51 116.29,-155.82"/>
<polygon fill="black" stroke="black" points="118.47,-152.41 108.19,-149.87 114.64,-158.27 118.47,-152.41"/>
</g>
<!-- 5 -->
<g id="node6" class="node">
<title>5</title>
<path fill="#f3c5a4" stroke="black" d="M281.5,-149.5C281.5,-149.5 165.75,-149.5 165.75,-149.5 159.75,-149.5 153.75,-143.5 153.75,-137.5 153.75,-137.5 153.75,-108.5 153.75,-108.5 153.75,-102.5 159.75,-96.5 165.75,-96.5 165.75,-96.5 281.5,-96.5 281.5,-96.5 287.5,-96.5 293.5,-102.5 293.5,-108.5 293.5,-108.5 293.5,-137.5 293.5,-137.5 293.5,-143.5 287.5,-149.5 281.5,-149.5"/>
<text text-anchor="start" x="161.75" y="-132.2" font-family="Helvetica,sans-Serif" font-size="14.00">squared_error = &#45;0.0</text>
<text text-anchor="start" x="186.5" y="-117.2" font-family="Helvetica,sans-Serif" font-size="14.00">samples = 1</text>
<text text-anchor="start" x="186.5" y="-102.2" font-family="Helvetica,sans-Serif" font-size="14.00">value = 27.9</text>
</g>
<!-- 3&#45;&gt;5 -->
<g id="edge5" class="edge">
<title>3&#45;&gt;5</title>
<path fill="none" stroke="black" d="M223.62,-192.6C223.62,-182.36 223.62,-171.04 223.62,-160.6"/>
<polygon fill="black" stroke="black" points="227.13,-160.71 223.62,-150.71 220.13,-160.71 227.13,-160.71"/>
</g>
<!-- 7 -->
<g id="node8" class="node">
<title>7</title>
<path fill="#f5ceb1" stroke="black" d="M442,-157C442,-157 323.25,-157 323.25,-157 317.25,-157 311.25,-151 311.25,-145 311.25,-145 311.25,-101 311.25,-101 311.25,-95 317.25,-89 323.25,-89 323.25,-89 442,-89 442,-89 448,-89 454,-95 454,-101 454,-101 454,-145 454,-145 454,-151 448,-157 442,-157"/>
<text text-anchor="start" x="350" y="-139.7" font-family="Helvetica,sans-Serif" font-size="14.00">rm ≤ 6.542</text>
<text text-anchor="start" x="319.25" y="-124.7" font-family="Helvetica,sans-Serif" font-size="14.00">squared_error = 7.96</text>
<text text-anchor="start" x="341.75" y="-109.7" font-family="Helvetica,sans-Serif" font-size="14.00">samples = 55</text>
<text text-anchor="start" x="338" y="-94.7" font-family="Helvetica,sans-Serif" font-size="14.00">value = 25.133</text>
</g>
<!-- 6&#45;&gt;7 -->
<g id="edge7" class="edge">
<title>6&#45;&gt;7</title>
<path fill="none" stroke="black" d="M444.5,-192.6C436.72,-183.97 428.24,-174.58 420.13,-165.58"/>
<polygon fill="black" stroke="black" points="423.11,-163.56 413.82,-158.47 417.92,-168.24 423.11,-163.56"/>
</g>
<!-- 10 -->
<g id="node11" class="node">
<title>10</title>
<path fill="#f7dac5" stroke="black" d="M608,-157C608,-157 489.25,-157 489.25,-157 483.25,-157 477.25,-151 477.25,-145 477.25,-145 477.25,-101 477.25,-101 477.25,-95 483.25,-89 489.25,-89 489.25,-89 608,-89 608,-89 614,-89 620,-95 620,-101 620,-101 620,-145 620,-145 620,-151 614,-157 608,-157"/>
<text text-anchor="start" x="515.25" y="-139.7" font-family="Helvetica,sans-Serif" font-size="14.00">tax ≤ 222.5</text>
<text text-anchor="start" x="485.25" y="-124.7" font-family="Helvetica,sans-Serif" font-size="14.00">squared_error = 9.64</text>
<text text-anchor="start" x="504" y="-109.7" font-family="Helvetica,sans-Serif" font-size="14.00">samples = 130</text>
<text text-anchor="start" x="507.75" y="-94.7" font-family="Helvetica,sans-Serif" font-size="14.00">value = 21.14</text>
</g>
<!-- 6&#45;&gt;10 -->
<g id="edge10" class="edge">
<title>6&#45;&gt;10</title>
<path fill="none" stroke="black" d="M498.86,-192.6C504.99,-184.15 511.65,-174.96 518.06,-166.13"/>
<polygon fill="black" stroke="black" points="521.3,-168.62 524.34,-158.47 515.63,-164.51 521.3,-168.62"/>
</g>
<!-- 8 -->
<g id="node9" class="node">
<title>8</title>
<path fill="#f6d1b7" stroke="black" d="M271.75,-53C271.75,-53 145.5,-53 145.5,-53 139.5,-53 133.5,-47 133.5,-41 133.5,-41 133.5,-12 133.5,-12 133.5,-6 139.5,0 145.5,0 145.5,0 271.75,0 271.75,0 277.75,0 283.75,-6 283.75,-12 283.75,-12 283.75,-41 283.75,-41 283.75,-47 277.75,-53 271.75,-53"/>
<text text-anchor="start" x="141.5" y="-35.7" font-family="Helvetica,sans-Serif" font-size="14.00">squared_error = 3.474</text>
<text text-anchor="start" x="167.75" y="-20.7" font-family="Helvetica,sans-Serif" font-size="14.00">samples = 36</text>
<text text-anchor="start" x="164" y="-5.7" font-family="Helvetica,sans-Serif" font-size="14.00">value = 23.953</text>
</g>
<!-- 7&#45;&gt;8 -->
<g id="edge8" class="edge">
<title>7&#45;&gt;8</title>
<path fill="none" stroke="black" d="M321.28,-88.68C303.28,-78.91 283.68,-68.26 265.94,-58.63"/>
<polygon fill="black" stroke="black" points="267.76,-55.09 257.3,-53.39 264.42,-61.24 267.76,-55.09"/>
</g>
<!-- 9 -->
<g id="node10" class="node">
<title>9</title>
<path fill="#f3c7a7" stroke="black" d="M439.75,-53C439.75,-53 313.5,-53 313.5,-53 307.5,-53 301.5,-47 301.5,-41 301.5,-41 301.5,-12 301.5,-12 301.5,-6 307.5,0 313.5,0 313.5,0 439.75,0 439.75,0 445.75,0 451.75,-6 451.75,-12 451.75,-12 451.75,-41 451.75,-41 451.75,-47 445.75,-53 439.75,-53"/>
<text text-anchor="start" x="309.5" y="-35.7" font-family="Helvetica,sans-Serif" font-size="14.00">squared_error = 8.824</text>
<text text-anchor="start" x="335.75" y="-20.7" font-family="Helvetica,sans-Serif" font-size="14.00">samples = 19</text>
<text text-anchor="start" x="332" y="-5.7" font-family="Helvetica,sans-Serif" font-size="14.00">value = 27.368</text>
</g>
<!-- 7&#45;&gt;9 -->
<g id="edge9" class="edge">
<title>7&#45;&gt;9</title>
<path fill="none" stroke="black" d="M380.51,-88.68C380.01,-80.81 379.47,-72.37 378.96,-64.35"/>
<polygon fill="black" stroke="black" points="382.4,-64.15 378.27,-54.39 375.41,-64.6 382.4,-64.15"/>
</g>
<!-- 11 -->
<g id="node12" class="node">
<title>11</title>
<path fill="#f4c7a8" stroke="black" d="M615.5,-53C615.5,-53 481.75,-53 481.75,-53 475.75,-53 469.75,-47 469.75,-41 469.75,-41 469.75,-12 469.75,-12 469.75,-6 475.75,0 481.75,0 481.75,0 615.5,0 615.5,0 621.5,0 627.5,-6 627.5,-12 627.5,-12 627.5,-41 627.5,-41 627.5,-47 621.5,-53 615.5,-53"/>
<text text-anchor="start" x="477.75" y="-35.7" font-family="Helvetica,sans-Serif" font-size="14.00">squared_error = 27.246</text>
<text text-anchor="start" x="511.5" y="-20.7" font-family="Helvetica,sans-Serif" font-size="14.00">samples = 6</text>
<text text-anchor="start" x="507.75" y="-5.7" font-family="Helvetica,sans-Serif" font-size="14.00">value = 27.15</text>
</g>
<!-- 10&#45;&gt;11 -->
<g id="edge11" class="edge">
<title>10&#45;&gt;11</title>
<path fill="none" stroke="black" d="M548.62,-88.68C548.62,-80.81 548.62,-72.37 548.62,-64.35"/>
<polygon fill="black" stroke="black" points="552.13,-64.39 548.62,-54.39 545.13,-64.39 552.13,-64.39"/>
</g>
<!-- 12 -->
<g id="node13" class="node">
<title>12</title>
<path fill="#f8dbc6" stroke="black" d="M783.75,-53C783.75,-53 657.5,-53 657.5,-53 651.5,-53 645.5,-47 645.5,-41 645.5,-41 645.5,-12 645.5,-12 645.5,-6 651.5,0 657.5,0 657.5,0 783.75,0 783.75,0 789.75,0 795.75,-6 795.75,-12 795.75,-12 795.75,-41 795.75,-41 795.75,-47 789.75,-53 783.75,-53"/>
<text text-anchor="start" x="653.5" y="-35.7" font-family="Helvetica,sans-Serif" font-size="14.00">squared_error = 6.956</text>
<text text-anchor="start" x="676" y="-20.7" font-family="Helvetica,sans-Serif" font-size="14.00">samples = 124</text>
<text text-anchor="start" x="676" y="-5.7" font-family="Helvetica,sans-Serif" font-size="14.00">value = 20.849</text>
</g>
<!-- 10&#45;&gt;12 -->
<g id="edge12" class="edge">
<title>10&#45;&gt;12</title>
<path fill="none" stroke="black" d="M609.27,-88.68C627.06,-78.91 646.44,-68.26 663.97,-58.63"/>
<polygon fill="black" stroke="black" points="665.42,-61.28 672.5,-53.39 662.05,-55.14 665.42,-61.28"/>
</g>
<!-- 14 -->
<g id="node15" class="node">
<title>14</title>
<path fill="#fae6d8" stroke="black" d="M1411.5,-261C1411.5,-261 1277.75,-261 1277.75,-261 1271.75,-261 1265.75,-255 1265.75,-249 1265.75,-249 1265.75,-205 1265.75,-205 1265.75,-199 1271.75,-193 1277.75,-193 1277.75,-193 1411.5,-193 1411.5,-193 1417.5,-193 1423.5,-199 1423.5,-205 1423.5,-205 1423.5,-249 1423.5,-249 1423.5,-255 1417.5,-261 1411.5,-261"/>
<text text-anchor="start" x="1309.38" y="-243.7" font-family="Helvetica,sans-Serif" font-size="14.00">nox ≤ 0.531</text>
<text text-anchor="start" x="1273.75" y="-228.7" font-family="Helvetica,sans-Serif" font-size="14.00">squared_error = 12.499</text>
<text text-anchor="start" x="1303.75" y="-213.7" font-family="Helvetica,sans-Serif" font-size="14.00">samples = 74</text>
<text text-anchor="start" x="1300" y="-198.7" font-family="Helvetica,sans-Serif" font-size="14.00">value = 17.084</text>
</g>
<!-- 13&#45;&gt;14 -->
<g id="edge14" class="edge">
<title>13&#45;&gt;14</title>
<path fill="none" stroke="black" d="M1429.37,-296.6C1418.16,-287.53 1405.91,-277.61 1394.3,-268.21"/>
<polygon fill="black" stroke="black" points="1396.95,-265.05 1386.97,-261.47 1392.55,-270.49 1396.95,-265.05"/>
</g>
<!-- 21 -->
<g id="node22" class="node">
<title>21</title>
<path fill="#fdf6f1" stroke="black" d="M1664.5,-261C1664.5,-261 1530.75,-261 1530.75,-261 1524.75,-261 1518.75,-255 1518.75,-249 1518.75,-249 1518.75,-205 1518.75,-205 1518.75,-199 1524.75,-193 1530.75,-193 1530.75,-193 1664.5,-193 1664.5,-193 1670.5,-193 1676.5,-199 1676.5,-205 1676.5,-205 1676.5,-249 1676.5,-249 1676.5,-255 1670.5,-261 1664.5,-261"/>
<text text-anchor="start" x="1557.12" y="-243.7" font-family="Helvetica,sans-Serif" font-size="14.00">lstat ≤ 19.645</text>
<text text-anchor="start" x="1526.75" y="-228.7" font-family="Helvetica,sans-Serif" font-size="14.00">squared_error = 11.506</text>
<text text-anchor="start" x="1556.75" y="-213.7" font-family="Helvetica,sans-Serif" font-size="14.00">samples = 64</text>
<text text-anchor="start" x="1556.75" y="-198.7" font-family="Helvetica,sans-Serif" font-size="14.00">value = 11.97</text>
</g>
<!-- 13&#45;&gt;21 -->
<g id="edge21" class="edge">
<title>13&#45;&gt;21</title>
<path fill="none" stroke="black" d="M1512.21,-296.6C1523.5,-287.53 1535.85,-277.61 1547.56,-268.21"/>
<polygon fill="black" stroke="black" points="1549.34,-270.46 1554.95,-261.47 1544.96,-265.01 1549.34,-270.46"/>
</g>
<!-- 15 -->
<g id="node16" class="node">
<title>15</title>
<path fill="#f8ddc9" stroke="black" d="M1119.75,-157C1119.75,-157 993.5,-157 993.5,-157 987.5,-157 981.5,-151 981.5,-145 981.5,-145 981.5,-101 981.5,-101 981.5,-95 987.5,-89 993.5,-89 993.5,-89 1119.75,-89 1119.75,-89 1125.75,-89 1131.75,-95 1131.75,-101 1131.75,-101 1131.75,-145 1131.75,-145 1131.75,-151 1125.75,-157 1119.75,-157"/>
<text text-anchor="start" x="1023.62" y="-139.7" font-family="Helvetica,sans-Serif" font-size="14.00">dis ≤ 6.016</text>
<text text-anchor="start" x="989.5" y="-124.7" font-family="Helvetica,sans-Serif" font-size="14.00">squared_error = 9.106</text>
<text text-anchor="start" x="1015.75" y="-109.7" font-family="Helvetica,sans-Serif" font-size="14.00">samples = 18</text>
<text text-anchor="start" x="1012" y="-94.7" font-family="Helvetica,sans-Serif" font-size="14.00">value = 20.178</text>
</g>
<!-- 14&#45;&gt;15 -->
<g id="edge15" class="edge">
<title>14&#45;&gt;15</title>
<path fill="none" stroke="black" d="M1265.55,-197.99C1227.33,-184.46 1181.4,-168.19 1142.35,-154.36"/>
<polygon fill="black" stroke="black" points="1143.65,-150.75 1133.05,-150.71 1141.31,-157.35 1143.65,-150.75"/>
</g>
<!-- 18 -->
<g id="node19" class="node">
<title>18</title>
<path fill="#fbeadd" stroke="black" d="M1407.75,-157C1407.75,-157 1281.5,-157 1281.5,-157 1275.5,-157 1269.5,-151 1269.5,-145 1269.5,-145 1269.5,-101 1269.5,-101 1269.5,-95 1275.5,-89 1281.5,-89 1281.5,-89 1407.75,-89 1407.75,-89 1413.75,-89 1419.75,-95 1419.75,-101 1419.75,-101 1419.75,-145 1419.75,-145 1419.75,-151 1413.75,-157 1407.75,-157"/>
<text text-anchor="start" x="1304.12" y="-139.7" font-family="Helvetica,sans-Serif" font-size="14.00">lstat ≤ 18.885</text>
<text text-anchor="start" x="1277.5" y="-124.7" font-family="Helvetica,sans-Serif" font-size="14.00">squared_error = 9.524</text>
<text text-anchor="start" x="1303.75" y="-109.7" font-family="Helvetica,sans-Serif" font-size="14.00">samples = 56</text>
<text text-anchor="start" x="1300" y="-94.7" font-family="Helvetica,sans-Serif" font-size="14.00">value = 16.089</text>
</g>
<!-- 14&#45;&gt;18 -->
<g id="edge18" class="edge">
<title>14&#45;&gt;18</title>
<path fill="none" stroke="black" d="M1344.62,-192.6C1344.62,-184.85 1344.62,-176.49 1344.62,-168.35"/>
<polygon fill="black" stroke="black" points="1348.13,-168.47 1344.62,-158.47 1341.13,-168.47 1348.13,-168.47"/>
</g>
<!-- 16 -->
<g id="node17" class="node">
<title>16</title>
<path fill="#f7d8c2" stroke="black" d="M951.75,-53C951.75,-53 825.5,-53 825.5,-53 819.5,-53 813.5,-47 813.5,-41 813.5,-41 813.5,-12 813.5,-12 813.5,-6 819.5,0 825.5,0 825.5,0 951.75,0 951.75,0 957.75,0 963.75,-6 963.75,-12 963.75,-12 963.75,-41 963.75,-41 963.75,-47 957.75,-53 951.75,-53"/>
<text text-anchor="start" x="821.5" y="-35.7" font-family="Helvetica,sans-Serif" font-size="14.00">squared_error = 6.349</text>
<text text-anchor="start" x="847.75" y="-20.7" font-family="Helvetica,sans-Serif" font-size="14.00">samples = 11</text>
<text text-anchor="start" x="844" y="-5.7" font-family="Helvetica,sans-Serif" font-size="14.00">value = 21.818</text>
</g>
<!-- 15&#45;&gt;16 -->
<g id="edge16" class="edge">
<title>15&#45;&gt;16</title>
<path fill="none" stroke="black" d="M997.39,-88.68C980.02,-78.91 961.09,-68.26 943.96,-58.63"/>
<polygon fill="black" stroke="black" points="946.09,-55.25 935.66,-53.39 942.66,-61.35 946.09,-55.25"/>
</g>
<!-- 17 -->
<g id="node18" class="node">
<title>17</title>
<path fill="#fae5d6" stroke="black" d="M1119.75,-53C1119.75,-53 993.5,-53 993.5,-53 987.5,-53 981.5,-47 981.5,-41 981.5,-41 981.5,-12 981.5,-12 981.5,-6 987.5,0 993.5,0 993.5,0 1119.75,0 1119.75,0 1125.75,0 1131.75,-6 1131.75,-12 1131.75,-12 1131.75,-41 1131.75,-41 1131.75,-47 1125.75,-53 1119.75,-53"/>
<text text-anchor="start" x="989.5" y="-35.7" font-family="Helvetica,sans-Serif" font-size="14.00">squared_error = 2.566</text>
<text text-anchor="start" x="1019.5" y="-20.7" font-family="Helvetica,sans-Serif" font-size="14.00">samples = 7</text>
<text text-anchor="start" x="1019.5" y="-5.7" font-family="Helvetica,sans-Serif" font-size="14.00">value = 17.6</text>
</g>
<!-- 15&#45;&gt;17 -->
<g id="edge17" class="edge">
<title>15&#45;&gt;17</title>
<path fill="none" stroke="black" d="M1056.62,-88.68C1056.62,-80.81 1056.62,-72.37 1056.62,-64.35"/>
<polygon fill="black" stroke="black" points="1060.13,-64.39 1056.62,-54.39 1053.13,-64.39 1060.13,-64.39"/>
</g>
<!-- 19 -->
<g id="node20" class="node">
<title>19</title>
<path fill="#fae6d8" stroke="black" d="M1281,-53C1281,-53 1162.25,-53 1162.25,-53 1156.25,-53 1150.25,-47 1150.25,-41 1150.25,-41 1150.25,-12 1150.25,-12 1150.25,-6 1156.25,0 1162.25,0 1162.25,0 1281,0 1281,0 1287,0 1293,-6 1293,-12 1293,-12 1293,-41 1293,-41 1293,-47 1287,-53 1281,-53"/>
<text text-anchor="start" x="1158.25" y="-35.7" font-family="Helvetica,sans-Serif" font-size="14.00">squared_error = 6.33</text>
<text text-anchor="start" x="1180.75" y="-20.7" font-family="Helvetica,sans-Serif" font-size="14.00">samples = 38</text>
<text text-anchor="start" x="1177" y="-5.7" font-family="Helvetica,sans-Serif" font-size="14.00">value = 17.187</text>
</g>
<!-- 18&#45;&gt;19 -->
<g id="edge19" class="edge">
<title>18&#45;&gt;19</title>
<path fill="none" stroke="black" d="M1301.26,-88.68C1289.13,-79.36 1275.96,-69.24 1263.89,-59.97"/>
<polygon fill="black" stroke="black" points="1266.39,-56.71 1256.33,-53.39 1262.13,-62.26 1266.39,-56.71"/>
</g>
<!-- 20 -->
<g id="node21" class="node">
<title>20</title>
<path fill="#fcf1e9" stroke="black" d="M1449.75,-53C1449.75,-53 1323.5,-53 1323.5,-53 1317.5,-53 1311.5,-47 1311.5,-41 1311.5,-41 1311.5,-12 1311.5,-12 1311.5,-6 1317.5,0 1323.5,0 1323.5,0 1449.75,0 1449.75,0 1455.75,0 1461.75,-6 1461.75,-12 1461.75,-12 1461.75,-41 1461.75,-41 1461.75,-47 1455.75,-53 1449.75,-53"/>
<text text-anchor="start" x="1319.5" y="-35.7" font-family="Helvetica,sans-Serif" font-size="14.00">squared_error = 8.355</text>
<text text-anchor="start" x="1345.75" y="-20.7" font-family="Helvetica,sans-Serif" font-size="14.00">samples = 18</text>
<text text-anchor="start" x="1342" y="-5.7" font-family="Helvetica,sans-Serif" font-size="14.00">value = 13.772</text>
</g>
<!-- 18&#45;&gt;20 -->
<g id="edge20" class="edge">
<title>18&#45;&gt;20</title>
<path fill="none" stroke="black" d="M1359.43,-88.68C1363.09,-80.45 1367.03,-71.59 1370.74,-63.25"/>
<polygon fill="black" stroke="black" points="1374.25,-64.95 1375.12,-54.39 1367.86,-62.11 1374.25,-64.95"/>
</g>
<!-- 22 -->
<g id="node23" class="node">
<title>22</title>
<path fill="#fceee5" stroke="black" d="M1660.75,-157C1660.75,-157 1534.5,-157 1534.5,-157 1528.5,-157 1522.5,-151 1522.5,-145 1522.5,-145 1522.5,-101 1522.5,-101 1522.5,-95 1528.5,-89 1534.5,-89 1534.5,-89 1660.75,-89 1660.75,-89 1666.75,-89 1672.75,-95 1672.75,-101 1672.75,-101 1672.75,-145 1672.75,-145 1672.75,-151 1666.75,-157 1660.75,-157"/>
<text text-anchor="start" x="1564.62" y="-139.7" font-family="Helvetica,sans-Serif" font-size="14.00">dis ≤ 2.803</text>
<text text-anchor="start" x="1530.5" y="-124.7" font-family="Helvetica,sans-Serif" font-size="14.00">squared_error = 5.167</text>
<text text-anchor="start" x="1556.75" y="-109.7" font-family="Helvetica,sans-Serif" font-size="14.00">samples = 23</text>
<text text-anchor="start" x="1553" y="-94.7" font-family="Helvetica,sans-Serif" font-size="14.00">value = 14.491</text>
</g>
<!-- 21&#45;&gt;22 -->
<g id="edge22" class="edge">
<title>21&#45;&gt;22</title>
<path fill="none" stroke="black" d="M1597.62,-192.6C1597.62,-184.85 1597.62,-176.49 1597.62,-168.35"/>
<polygon fill="black" stroke="black" points="1601.13,-168.47 1597.62,-158.47 1594.13,-168.47 1601.13,-168.47"/>
</g>
<!-- 25 -->
<g id="node26" class="node">
<title>25</title>
<path fill="#fefbf8" stroke="black" d="M1947.75,-157C1947.75,-157 1821.5,-157 1821.5,-157 1815.5,-157 1809.5,-151 1809.5,-145 1809.5,-145 1809.5,-101 1809.5,-101 1809.5,-95 1815.5,-89 1821.5,-89 1821.5,-89 1947.75,-89 1947.75,-89 1953.75,-89 1959.75,-95 1959.75,-101 1959.75,-101 1959.75,-145 1959.75,-145 1959.75,-151 1953.75,-157 1947.75,-157"/>
<text text-anchor="start" x="1849.38" y="-139.7" font-family="Helvetica,sans-Serif" font-size="14.00">nox ≤ 0.675</text>
<text text-anchor="start" x="1817.5" y="-124.7" font-family="Helvetica,sans-Serif" font-size="14.00">squared_error = 9.497</text>
<text text-anchor="start" x="1843.75" y="-109.7" font-family="Helvetica,sans-Serif" font-size="14.00">samples = 41</text>
<text text-anchor="start" x="1840" y="-94.7" font-family="Helvetica,sans-Serif" font-size="14.00">value = 10.556</text>
</g>
<!-- 21&#45;&gt;25 -->
<g id="edge25" class="edge">
<title>21&#45;&gt;25</title>
<path fill="none" stroke="black" d="M1676.81,-197.86C1714.73,-184.38 1760.21,-168.22 1798.95,-154.45"/>
<polygon fill="black" stroke="black" points="1799.91,-157.47 1808.16,-150.82 1797.56,-150.87 1799.91,-157.47"/>
</g>
<!-- 23 -->
<g id="node24" class="node">
<title>23</title>
<path fill="#fcf0e7" stroke="black" d="M1617.75,-53C1617.75,-53 1491.5,-53 1491.5,-53 1485.5,-53 1479.5,-47 1479.5,-41 1479.5,-41 1479.5,-12 1479.5,-12 1479.5,-6 1485.5,0 1491.5,0 1491.5,0 1617.75,0 1617.75,0 1623.75,0 1629.75,-6 1629.75,-12 1629.75,-12 1629.75,-41 1629.75,-41 1629.75,-47 1623.75,-53 1617.75,-53"/>
<text text-anchor="start" x="1487.5" y="-35.7" font-family="Helvetica,sans-Serif" font-size="14.00">squared_error = 2.913</text>
<text text-anchor="start" x="1513.75" y="-20.7" font-family="Helvetica,sans-Serif" font-size="14.00">samples = 21</text>
<text text-anchor="start" x="1510" y="-5.7" font-family="Helvetica,sans-Serif" font-size="14.00">value = 14.005</text>
</g>
<!-- 22&#45;&gt;23 -->
<g id="edge23" class="edge">
<title>22&#45;&gt;23</title>
<path fill="none" stroke="black" d="M1582.46,-88.68C1578.72,-80.45 1574.69,-71.59 1570.89,-63.25"/>
<polygon fill="black" stroke="black" points="1573.73,-62.05 1566.41,-54.39 1567.36,-64.95 1573.73,-62.05"/>
</g>
<!-- 24 -->
<g id="node25" class="node">
<title>24</title>
<path fill="#f8dfcc" stroke="black" d="M1779,-53C1779,-53 1660.25,-53 1660.25,-53 1654.25,-53 1648.25,-47 1648.25,-41 1648.25,-41 1648.25,-12 1648.25,-12 1648.25,-6 1654.25,0 1660.25,0 1660.25,0 1779,0 1779,0 1785,0 1791,-6 1791,-12 1791,-12 1791,-41 1791,-41 1791,-47 1785,-53 1779,-53"/>
<text text-anchor="start" x="1656.25" y="-35.7" font-family="Helvetica,sans-Serif" font-size="14.00">squared_error = 0.25</text>
<text text-anchor="start" x="1682.5" y="-20.7" font-family="Helvetica,sans-Serif" font-size="14.00">samples = 2</text>
<text text-anchor="start" x="1682.5" y="-5.7" font-family="Helvetica,sans-Serif" font-size="14.00">value = 19.6</text>
</g>
<!-- 22&#45;&gt;24 -->
<g id="edge24" class="edge">
<title>22&#45;&gt;24</title>
<path fill="none" stroke="black" d="M1640.64,-88.68C1652.67,-79.36 1665.73,-69.24 1677.7,-59.97"/>
<polygon fill="black" stroke="black" points="1679.43,-62.28 1685.2,-53.39 1675.15,-56.75 1679.43,-62.28"/>
</g>
<!-- 26 -->
<g id="node27" class="node">
<title>26</title>
<path fill="#fcf1e9" stroke="black" d="M1947.75,-53C1947.75,-53 1821.5,-53 1821.5,-53 1815.5,-53 1809.5,-47 1809.5,-41 1809.5,-41 1809.5,-12 1809.5,-12 1809.5,-6 1815.5,0 1821.5,0 1821.5,0 1947.75,0 1947.75,0 1953.75,0 1959.75,-6 1959.75,-12 1959.75,-12 1959.75,-41 1959.75,-41 1959.75,-47 1953.75,-53 1947.75,-53"/>
<text text-anchor="start" x="1817.5" y="-35.7" font-family="Helvetica,sans-Serif" font-size="14.00">squared_error = 4.894</text>
<text text-anchor="start" x="1843.75" y="-20.7" font-family="Helvetica,sans-Serif" font-size="14.00">samples = 13</text>
<text text-anchor="start" x="1840" y="-5.7" font-family="Helvetica,sans-Serif" font-size="14.00">value = 13.631</text>
</g>
<!-- 25&#45;&gt;26 -->
<g id="edge26" class="edge">
<title>25&#45;&gt;26</title>
<path fill="none" stroke="black" d="M1884.62,-88.68C1884.62,-80.81 1884.62,-72.37 1884.62,-64.35"/>
<polygon fill="black" stroke="black" points="1888.13,-64.39 1884.62,-54.39 1881.13,-64.39 1888.13,-64.39"/>
</g>
<!-- 27 -->
<g id="node28" class="node">
<title>27</title>
<path fill="#ffffff" stroke="black" d="M2115.75,-53C2115.75,-53 1989.5,-53 1989.5,-53 1983.5,-53 1977.5,-47 1977.5,-41 1977.5,-41 1977.5,-12 1977.5,-12 1977.5,-6 1983.5,0 1989.5,0 1989.5,0 2115.75,0 2115.75,0 2121.75,0 2127.75,-6 2127.75,-12 2127.75,-12 2127.75,-41 2127.75,-41 2127.75,-47 2121.75,-53 2115.75,-53"/>
<text text-anchor="start" x="1985.5" y="-35.7" font-family="Helvetica,sans-Serif" font-size="14.00">squared_error = 5.207</text>
<text text-anchor="start" x="2011.75" y="-20.7" font-family="Helvetica,sans-Serif" font-size="14.00">samples = 28</text>
<text text-anchor="start" x="2011.75" y="-5.7" font-family="Helvetica,sans-Serif" font-size="14.00">value = 9.129</text>
</g>
<!-- 25&#45;&gt;27 -->
<g id="edge27" class="edge">
<title>25&#45;&gt;27</title>
<path fill="none" stroke="black" d="M1943.86,-88.68C1961.23,-78.91 1980.16,-68.26 1997.29,-58.63"/>
<polygon fill="black" stroke="black" points="1998.59,-61.35 2005.59,-53.39 1995.16,-55.25 1998.59,-61.35"/>
</g>
<!-- 29 -->
<g id="node30" class="node">
<title>29</title>
<path fill="#f1bb94" stroke="black" d="M2691.5,-365C2691.5,-365 2557.75,-365 2557.75,-365 2551.75,-365 2545.75,-359 2545.75,-353 2545.75,-353 2545.75,-309 2545.75,-309 2545.75,-303 2551.75,-297 2557.75,-297 2557.75,-297 2691.5,-297 2691.5,-297 2697.5,-297 2703.5,-303 2703.5,-309 2703.5,-309 2703.5,-353 2703.5,-353 2703.5,-359 2697.5,-365 2691.5,-365"/>
<text text-anchor="start" x="2587.12" y="-347.7" font-family="Helvetica,sans-Serif" font-size="14.00">crim ≤ 7.393</text>
<text text-anchor="start" x="2553.75" y="-332.7" font-family="Helvetica,sans-Serif" font-size="14.00">squared_error = 40.472</text>
<text text-anchor="start" x="2583.75" y="-317.7" font-family="Helvetica,sans-Serif" font-size="14.00">samples = 51</text>
<text text-anchor="start" x="2580" y="-302.7" font-family="Helvetica,sans-Serif" font-size="14.00">value = 31.282</text>
</g>
<!-- 28&#45;&gt;29 -->
<g id="edge29" class="edge">
<title>28&#45;&gt;29</title>
<path fill="none" stroke="black" d="M2624.62,-400.6C2624.62,-392.85 2624.62,-384.49 2624.62,-376.35"/>
<polygon fill="black" stroke="black" points="2628.13,-376.47 2624.62,-366.47 2621.13,-376.47 2628.13,-376.47"/>
</g>
<!-- 42 -->
<g id="node43" class="node">
<title>42</title>
<path fill="#e89050" stroke="black" d="M3325.5,-365C3325.5,-365 3191.75,-365 3191.75,-365 3185.75,-365 3179.75,-359 3179.75,-353 3179.75,-353 3179.75,-309 3179.75,-309 3179.75,-303 3185.75,-297 3191.75,-297 3191.75,-297 3325.5,-297 3325.5,-297 3331.5,-297 3337.5,-303 3337.5,-309 3337.5,-309 3337.5,-353 3337.5,-353 3337.5,-359 3331.5,-365 3325.5,-365"/>
<text text-anchor="start" x="3223.38" y="-347.7" font-family="Helvetica,sans-Serif" font-size="14.00">nox ≤ 0.683</text>
<text text-anchor="start" x="3187.75" y="-332.7" font-family="Helvetica,sans-Serif" font-size="14.00">squared_error = 40.484</text>
<text text-anchor="start" x="3217.75" y="-317.7" font-family="Helvetica,sans-Serif" font-size="14.00">samples = 26</text>
<text text-anchor="start" x="3214" y="-302.7" font-family="Helvetica,sans-Serif" font-size="14.00">value = 45.208</text>
</g>
<!-- 28&#45;&gt;42 -->
<g id="edge42" class="edge">
<title>28&#45;&gt;42</title>
<path fill="none" stroke="black" d="M2703.96,-421.24C2822.45,-402.17 3044.95,-366.38 3169.1,-346.4"/>
<polygon fill="black" stroke="black" points="3169.39,-349.74 3178.7,-344.7 3168.27,-342.83 3169.39,-349.74"/>
</g>
<!-- 30 -->
<g id="node31" class="node">
<title>30</title>
<path fill="#f0b78f" stroke="black" d="M2605.5,-261C2605.5,-261 2471.75,-261 2471.75,-261 2465.75,-261 2459.75,-255 2459.75,-249 2459.75,-249 2459.75,-205 2459.75,-205 2459.75,-199 2465.75,-193 2471.75,-193 2471.75,-193 2605.5,-193 2605.5,-193 2611.5,-193 2617.5,-199 2617.5,-205 2617.5,-205 2617.5,-249 2617.5,-249 2617.5,-255 2611.5,-261 2605.5,-261"/>
<text text-anchor="start" x="2505.62" y="-243.7" font-family="Helvetica,sans-Serif" font-size="14.00">dis ≤ 1.886</text>
<text text-anchor="start" x="2467.75" y="-228.7" font-family="Helvetica,sans-Serif" font-size="14.00">squared_error = 23.493</text>
<text text-anchor="start" x="2497.75" y="-213.7" font-family="Helvetica,sans-Serif" font-size="14.00">samples = 48</text>
<text text-anchor="start" x="2494" y="-198.7" font-family="Helvetica,sans-Serif" font-size="14.00">value = 32.338</text>
</g>
<!-- 29&#45;&gt;30 -->
<g id="edge30" class="edge">
<title>29&#45;&gt;30</title>
<path fill="none" stroke="black" d="M2596.47,-296.6C2589.26,-288.06 2581.43,-278.77 2573.92,-269.86"/>
<polygon fill="black" stroke="black" points="2575.97,-267.86 2566.85,-262.47 2570.62,-272.37 2575.97,-267.86"/>
</g>
<!-- 37 -->
<g id="node38" class="node">
<title>37</title>
<path fill="#fcefe5" stroke="black" d="M2773.75,-261C2773.75,-261 2647.5,-261 2647.5,-261 2641.5,-261 2635.5,-255 2635.5,-249 2635.5,-249 2635.5,-205 2635.5,-205 2635.5,-199 2641.5,-193 2647.5,-193 2647.5,-193 2773.75,-193 2773.75,-193 2779.75,-193 2785.75,-199 2785.75,-205 2785.75,-205 2785.75,-249 2785.75,-249 2785.75,-255 2779.75,-261 2773.75,-261"/>
<text text-anchor="start" x="2678.75" y="-243.7" font-family="Helvetica,sans-Serif" font-size="14.00">age ≤ 94.9</text>
<text text-anchor="start" x="2643.5" y="-228.7" font-family="Helvetica,sans-Serif" font-size="14.00">squared_error = 9.307</text>
<text text-anchor="start" x="2673.5" y="-213.7" font-family="Helvetica,sans-Serif" font-size="14.00">samples = 3</text>
<text text-anchor="start" x="2673.5" y="-198.7" font-family="Helvetica,sans-Serif" font-size="14.00">value = 14.4</text>
</g>
<!-- 29&#45;&gt;37 -->
<g id="edge37" class="edge">
<title>29&#45;&gt;37</title>
<path fill="none" stroke="black" d="M2652.78,-296.6C2659.99,-288.06 2667.82,-278.77 2675.33,-269.86"/>
<polygon fill="black" stroke="black" points="2678.63,-272.37 2682.4,-262.47 2673.28,-267.86 2678.63,-272.37"/>
</g>
<!-- 31 -->
<g id="node32" class="node">
<title>31</title>
<path fill="#e88e4e" stroke="black" d="M2432.5,-157C2432.5,-157 2298.75,-157 2298.75,-157 2292.75,-157 2286.75,-151 2286.75,-145 2286.75,-145 2286.75,-101 2286.75,-101 2286.75,-95 2292.75,-89 2298.75,-89 2298.75,-89 2432.5,-89 2432.5,-89 2438.5,-89 2444.5,-95 2444.5,-101 2444.5,-101 2444.5,-145 2444.5,-145 2444.5,-151 2438.5,-157 2432.5,-157"/>
<text text-anchor="start" x="2330.38" y="-139.7" font-family="Helvetica,sans-Serif" font-size="14.00">nox ≤ 0.618</text>
<text text-anchor="start" x="2294.75" y="-124.7" font-family="Helvetica,sans-Serif" font-size="14.00">squared_error = 18.923</text>
<text text-anchor="start" x="2328.5" y="-109.7" font-family="Helvetica,sans-Serif" font-size="14.00">samples = 2</text>
<text text-anchor="start" x="2324.75" y="-94.7" font-family="Helvetica,sans-Serif" font-size="14.00">value = 45.65</text>
</g>
<!-- 30&#45;&gt;31 -->
<g id="edge31" class="edge">
<title>30&#45;&gt;31</title>
<path fill="none" stroke="black" d="M2481.98,-192.6C2465.85,-183.09 2448.14,-172.65 2431.51,-162.85"/>
<polygon fill="black" stroke="black" points="2433.79,-159.54 2423.4,-157.47 2430.24,-165.57 2433.79,-159.54"/>
</g>
<!-- 34 -->
<g id="node35" class="node">
<title>34</title>
<path fill="#f1b991" stroke="black" d="M2608.5,-157C2608.5,-157 2474.75,-157 2474.75,-157 2468.75,-157 2462.75,-151 2462.75,-145 2462.75,-145 2462.75,-101 2462.75,-101 2462.75,-95 2468.75,-89 2474.75,-89 2474.75,-89 2608.5,-89 2608.5,-89 2614.5,-89 2620.5,-95 2620.5,-101 2620.5,-101 2620.5,-145 2620.5,-145 2620.5,-151 2614.5,-157 2608.5,-157"/>
<text text-anchor="start" x="2509" y="-139.7" font-family="Helvetica,sans-Serif" font-size="14.00">rm ≤ 7.127</text>
<text text-anchor="start" x="2470.75" y="-124.7" font-family="Helvetica,sans-Serif" font-size="14.00">squared_error = 15.652</text>
<text text-anchor="start" x="2500.75" y="-109.7" font-family="Helvetica,sans-Serif" font-size="14.00">samples = 46</text>
<text text-anchor="start" x="2497" y="-94.7" font-family="Helvetica,sans-Serif" font-size="14.00">value = 31.759</text>
</g>
<!-- 30&#45;&gt;34 -->
<g id="edge34" class="edge">
<title>30&#45;&gt;34</title>
<path fill="none" stroke="black" d="M2539.61,-192.6C2539.84,-184.85 2540.08,-176.49 2540.32,-168.35"/>
<polygon fill="black" stroke="black" points="2543.84,-168.57 2540.64,-158.47 2536.85,-168.37 2543.84,-168.57"/>
</g>
<!-- 32 -->
<g id="node33" class="node">
<title>32</title>
<path fill="#eb9c63" stroke="black" d="M2269.25,-53C2269.25,-53 2158,-53 2158,-53 2152,-53 2146,-47 2146,-41 2146,-41 2146,-12 2146,-12 2146,-6 2152,0 2158,0 2158,0 2269.25,0 2269.25,0 2275.25,0 2281.25,-6 2281.25,-12 2281.25,-12 2281.25,-41 2281.25,-41 2281.25,-47 2275.25,-53 2269.25,-53"/>
<text text-anchor="start" x="2154" y="-35.7" font-family="Helvetica,sans-Serif" font-size="14.00">squared_error = 0.0</text>
<text text-anchor="start" x="2176.5" y="-20.7" font-family="Helvetica,sans-Serif" font-size="14.00">samples = 1</text>
<text text-anchor="start" x="2176.5" y="-5.7" font-family="Helvetica,sans-Serif" font-size="14.00">value = 41.3</text>
</g>
<!-- 31&#45;&gt;32 -->
<g id="edge32" class="edge">
<title>31&#45;&gt;32</title>
<path fill="none" stroke="black" d="M2312.04,-88.68C2296.61,-79.09 2279.82,-68.65 2264.56,-59.16"/>
<polygon fill="black" stroke="black" points="2266.61,-55.7 2256.27,-53.39 2262.92,-61.65 2266.61,-55.7"/>
</g>
<!-- 33 -->
<g id="node34" class="node">
<title>33</title>
<path fill="#e58139" stroke="black" d="M2422.25,-53C2422.25,-53 2311,-53 2311,-53 2305,-53 2299,-47 2299,-41 2299,-41 2299,-12 2299,-12 2299,-6 2305,0 2311,0 2311,0 2422.25,0 2422.25,0 2428.25,0 2434.25,-6 2434.25,-12 2434.25,-12 2434.25,-41 2434.25,-41 2434.25,-47 2428.25,-53 2422.25,-53"/>
<text text-anchor="start" x="2307" y="-35.7" font-family="Helvetica,sans-Serif" font-size="14.00">squared_error = 0.0</text>
<text text-anchor="start" x="2329.5" y="-20.7" font-family="Helvetica,sans-Serif" font-size="14.00">samples = 1</text>
<text text-anchor="start" x="2329.5" y="-5.7" font-family="Helvetica,sans-Serif" font-size="14.00">value = 50.0</text>
</g>
<!-- 31&#45;&gt;33 -->
<g id="edge33" class="edge">
<title>31&#45;&gt;33</title>
<path fill="none" stroke="black" d="M2365.98,-88.68C2366.06,-80.81 2366.15,-72.37 2366.24,-64.35"/>
<polygon fill="black" stroke="black" points="2369.74,-64.43 2366.35,-54.39 2362.75,-64.36 2369.74,-64.43"/>
</g>
<!-- 35 -->
<g id="node36" class="node">
<title>35</title>
<path fill="#f2bf9a" stroke="black" d="M2598.5,-53C2598.5,-53 2464.75,-53 2464.75,-53 2458.75,-53 2452.75,-47 2452.75,-41 2452.75,-41 2452.75,-12 2452.75,-12 2452.75,-6 2458.75,0 2464.75,0 2464.75,0 2598.5,0 2598.5,0 2604.5,0 2610.5,-6 2610.5,-12 2610.5,-12 2610.5,-41 2610.5,-41 2610.5,-47 2604.5,-53 2598.5,-53"/>
<text text-anchor="start" x="2460.75" y="-35.7" font-family="Helvetica,sans-Serif" font-size="14.00">squared_error = 14.484</text>
<text text-anchor="start" x="2490.75" y="-20.7" font-family="Helvetica,sans-Serif" font-size="14.00">samples = 29</text>
<text text-anchor="start" x="2490.75" y="-5.7" font-family="Helvetica,sans-Serif" font-size="14.00">value = 30.01</text>
</g>
<!-- 34&#45;&gt;35 -->
<g id="edge35" class="edge">
<title>34&#45;&gt;35</title>
<path fill="none" stroke="black" d="M2538.1,-88.68C2537.26,-80.72 2536.35,-72.17 2535.5,-64.07"/>
<polygon fill="black" stroke="black" points="2538.9,-63.97 2534.37,-54.39 2531.94,-64.71 2538.9,-63.97"/>
</g>
<!-- 36 -->
<g id="node37" class="node">
<title>36</title>
<path fill="#efb083" stroke="black" d="M2766.75,-53C2766.75,-53 2640.5,-53 2640.5,-53 2634.5,-53 2628.5,-47 2628.5,-41 2628.5,-41 2628.5,-12 2628.5,-12 2628.5,-6 2634.5,0 2640.5,0 2640.5,0 2766.75,0 2766.75,0 2772.75,0 2778.75,-6 2778.75,-12 2778.75,-12 2778.75,-41 2778.75,-41 2778.75,-47 2772.75,-53 2766.75,-53"/>
<text text-anchor="start" x="2636.5" y="-35.7" font-family="Helvetica,sans-Serif" font-size="14.00">squared_error = 3.533</text>
<text text-anchor="start" x="2662.75" y="-20.7" font-family="Helvetica,sans-Serif" font-size="14.00">samples = 17</text>
<text text-anchor="start" x="2659" y="-5.7" font-family="Helvetica,sans-Serif" font-size="14.00">value = 34.741</text>
</g>
<!-- 34&#45;&gt;36 -->
<g id="edge36" class="edge">
<title>34&#45;&gt;36</title>
<path fill="none" stroke="black" d="M2598.74,-88.68C2615.34,-79 2633.41,-68.46 2649.8,-58.9"/>
<polygon fill="black" stroke="black" points="2651.36,-61.46 2658.24,-53.39 2647.83,-55.41 2651.36,-61.46"/>
</g>
<!-- 38 -->
<g id="node39" class="node">
<title>38</title>
<path fill="#fefbf9" stroke="black" d="M2764.25,-149.5C2764.25,-149.5 2653,-149.5 2653,-149.5 2647,-149.5 2641,-143.5 2641,-137.5 2641,-137.5 2641,-108.5 2641,-108.5 2641,-102.5 2647,-96.5 2653,-96.5 2653,-96.5 2764.25,-96.5 2764.25,-96.5 2770.25,-96.5 2776.25,-102.5 2776.25,-108.5 2776.25,-108.5 2776.25,-137.5 2776.25,-137.5 2776.25,-143.5 2770.25,-149.5 2764.25,-149.5"/>
<text text-anchor="start" x="2649" y="-132.2" font-family="Helvetica,sans-Serif" font-size="14.00">squared_error = 0.0</text>
<text text-anchor="start" x="2671.5" y="-117.2" font-family="Helvetica,sans-Serif" font-size="14.00">samples = 1</text>
<text text-anchor="start" x="2671.5" y="-102.2" font-family="Helvetica,sans-Serif" font-size="14.00">value = 10.4</text>
</g>
<!-- 37&#45;&gt;38 -->
<g id="edge38" class="edge">
<title>37&#45;&gt;38</title>
<path fill="none" stroke="black" d="M2709.97,-192.6C2709.77,-182.36 2709.55,-171.04 2709.34,-160.6"/>
<polygon fill="black" stroke="black" points="2712.82,-160.64 2709.13,-150.71 2705.83,-160.77 2712.82,-160.64"/>
</g>
<!-- 39 -->
<g id="node40" class="node">
<title>39</title>
<path fill="#fae9dc" stroke="black" d="M2925,-157C2925,-157 2806.25,-157 2806.25,-157 2800.25,-157 2794.25,-151 2794.25,-145 2794.25,-145 2794.25,-101 2794.25,-101 2794.25,-95 2800.25,-89 2806.25,-89 2806.25,-89 2925,-89 2925,-89 2931,-89 2937,-95 2937,-101 2937,-101 2937,-145 2937,-145 2937,-151 2931,-157 2925,-157"/>
<text text-anchor="start" x="2830.38" y="-139.7" font-family="Helvetica,sans-Serif" font-size="14.00">nox ≤ 0.692</text>
<text text-anchor="start" x="2802.25" y="-124.7" font-family="Helvetica,sans-Serif" font-size="14.00">squared_error = 1.96</text>
<text text-anchor="start" x="2828.5" y="-109.7" font-family="Helvetica,sans-Serif" font-size="14.00">samples = 2</text>
<text text-anchor="start" x="2828.5" y="-94.7" font-family="Helvetica,sans-Serif" font-size="14.00">value = 16.4</text>
</g>
<!-- 37&#45;&gt;39 -->
<g id="edge39" class="edge">
<title>37&#45;&gt;39</title>
<path fill="none" stroke="black" d="M2761.38,-192.6C2775.56,-183.27 2791.11,-173.04 2805.77,-163.39"/>
<polygon fill="black" stroke="black" points="2807.33,-165.89 2813.76,-157.47 2803.48,-160.05 2807.33,-165.89"/>
</g>
<!-- 40 -->
<g id="node41" class="node">
<title>40</title>
<path fill="#fbede3" stroke="black" d="M2920.25,-53C2920.25,-53 2809,-53 2809,-53 2803,-53 2797,-47 2797,-41 2797,-41 2797,-12 2797,-12 2797,-6 2803,0 2809,0 2809,0 2920.25,0 2920.25,0 2926.25,0 2932.25,-6 2932.25,-12 2932.25,-12 2932.25,-41 2932.25,-41 2932.25,-47 2926.25,-53 2920.25,-53"/>
<text text-anchor="start" x="2805" y="-35.7" font-family="Helvetica,sans-Serif" font-size="14.00">squared_error = 0.0</text>
<text text-anchor="start" x="2827.5" y="-20.7" font-family="Helvetica,sans-Serif" font-size="14.00">samples = 1</text>
<text text-anchor="start" x="2827.5" y="-5.7" font-family="Helvetica,sans-Serif" font-size="14.00">value = 15.0</text>
</g>
<!-- 39&#45;&gt;40 -->
<g id="edge40" class="edge">
<title>39&#45;&gt;40</title>
<path fill="none" stroke="black" d="M2865.27,-88.68C2865.19,-80.81 2865.1,-72.37 2865.01,-64.35"/>
<polygon fill="black" stroke="black" points="2868.5,-64.36 2864.9,-54.39 2861.51,-64.43 2868.5,-64.36"/>
</g>
<!-- 41 -->
<g id="node42" class="node">
<title>41</title>
<path fill="#f9e4d5" stroke="black" d="M3073.25,-53C3073.25,-53 2962,-53 2962,-53 2956,-53 2950,-47 2950,-41 2950,-41 2950,-12 2950,-12 2950,-6 2956,0 2962,0 2962,0 3073.25,0 3073.25,0 3079.25,0 3085.25,-6 3085.25,-12 3085.25,-12 3085.25,-41 3085.25,-41 3085.25,-47 3079.25,-53 3073.25,-53"/>
<text text-anchor="start" x="2958" y="-35.7" font-family="Helvetica,sans-Serif" font-size="14.00">squared_error = 0.0</text>
<text text-anchor="start" x="2980.5" y="-20.7" font-family="Helvetica,sans-Serif" font-size="14.00">samples = 1</text>
<text text-anchor="start" x="2980.5" y="-5.7" font-family="Helvetica,sans-Serif" font-size="14.00">value = 17.8</text>
</g>
<!-- 39&#45;&gt;41 -->
<g id="edge41" class="edge">
<title>39&#45;&gt;41</title>
<path fill="none" stroke="black" d="M2919.21,-88.68C2934.64,-79.09 2951.43,-68.65 2966.69,-59.16"/>
<polygon fill="black" stroke="black" points="2968.33,-61.65 2974.98,-53.39 2964.64,-55.7 2968.33,-61.65"/>
</g>
<!-- 43 -->
<g id="node44" class="node">
<title>43</title>
<path fill="#e78d4c" stroke="black" d="M3325.5,-261C3325.5,-261 3191.75,-261 3191.75,-261 3185.75,-261 3179.75,-255 3179.75,-249 3179.75,-249 3179.75,-205 3179.75,-205 3179.75,-199 3185.75,-193 3191.75,-193 3191.75,-193 3325.5,-193 3325.5,-193 3331.5,-193 3337.5,-199 3337.5,-205 3337.5,-205 3337.5,-249 3337.5,-249 3337.5,-255 3331.5,-261 3325.5,-261"/>
<text text-anchor="start" x="3219.25" y="-243.7" font-family="Helvetica,sans-Serif" font-size="14.00">ptratio ≤ 14.8</text>
<text text-anchor="start" x="3187.75" y="-228.7" font-family="Helvetica,sans-Serif" font-size="14.00">squared_error = 19.504</text>
<text text-anchor="start" x="3217.75" y="-213.7" font-family="Helvetica,sans-Serif" font-size="14.00">samples = 25</text>
<text text-anchor="start" x="3217.75" y="-198.7" font-family="Helvetica,sans-Serif" font-size="14.00">value = 46.14</text>
</g>
<!-- 42&#45;&gt;43 -->
<g id="edge43" class="edge">
<title>42&#45;&gt;43</title>
<path fill="none" stroke="black" d="M3258.62,-296.6C3258.62,-288.85 3258.62,-280.49 3258.62,-272.35"/>
<polygon fill="black" stroke="black" points="3262.13,-272.47 3258.62,-262.47 3255.13,-272.47 3262.13,-272.47"/>
</g>
<!-- 50 -->
<g id="node51" class="node">
<title>50</title>
<path fill="#f7d8c1" stroke="black" d="M3483.5,-253.5C3483.5,-253.5 3367.75,-253.5 3367.75,-253.5 3361.75,-253.5 3355.75,-247.5 3355.75,-241.5 3355.75,-241.5 3355.75,-212.5 3355.75,-212.5 3355.75,-206.5 3361.75,-200.5 3367.75,-200.5 3367.75,-200.5 3483.5,-200.5 3483.5,-200.5 3489.5,-200.5 3495.5,-206.5 3495.5,-212.5 3495.5,-212.5 3495.5,-241.5 3495.5,-241.5 3495.5,-247.5 3489.5,-253.5 3483.5,-253.5"/>
<text text-anchor="start" x="3363.75" y="-236.2" font-family="Helvetica,sans-Serif" font-size="14.00">squared_error = &#45;0.0</text>
<text text-anchor="start" x="3388.5" y="-221.2" font-family="Helvetica,sans-Serif" font-size="14.00">samples = 1</text>
<text text-anchor="start" x="3388.5" y="-206.2" font-family="Helvetica,sans-Serif" font-size="14.00">value = 21.9</text>
</g>
<!-- 42&#45;&gt;50 -->
<g id="edge50" class="edge">
<title>42&#45;&gt;50</title>
<path fill="none" stroke="black" d="M3313.31,-296.6C3332.84,-284.67 3354.78,-271.27 3374.05,-259.5"/>
<polygon fill="black" stroke="black" points="3375.56,-262.07 3382.27,-253.87 3371.91,-256.09 3375.56,-262.07"/>
</g>
<!-- 44 -->
<g id="node45" class="node">
<title>44</title>
<path fill="#e6843d" stroke="black" d="M3321.75,-157C3321.75,-157 3195.5,-157 3195.5,-157 3189.5,-157 3183.5,-151 3183.5,-145 3183.5,-145 3183.5,-101 3183.5,-101 3183.5,-95 3189.5,-89 3195.5,-89 3195.5,-89 3321.75,-89 3321.75,-89 3327.75,-89 3333.75,-95 3333.75,-101 3333.75,-101 3333.75,-145 3333.75,-145 3333.75,-151 3327.75,-157 3321.75,-157"/>
<text text-anchor="start" x="3221.88" y="-139.7" font-family="Helvetica,sans-Serif" font-size="14.00">lstat ≤ 6.585</text>
<text text-anchor="start" x="3191.5" y="-124.7" font-family="Helvetica,sans-Serif" font-size="14.00">squared_error = 3.902</text>
<text text-anchor="start" x="3217.75" y="-109.7" font-family="Helvetica,sans-Serif" font-size="14.00">samples = 11</text>
<text text-anchor="start" x="3214" y="-94.7" font-family="Helvetica,sans-Serif" font-size="14.00">value = 49.127</text>
</g>
<!-- 43&#45;&gt;44 -->
<g id="edge44" class="edge">
<title>43&#45;&gt;44</title>
<path fill="none" stroke="black" d="M3258.62,-192.6C3258.62,-184.85 3258.62,-176.49 3258.62,-168.35"/>
<polygon fill="black" stroke="black" points="3262.13,-168.47 3258.62,-158.47 3255.13,-168.47 3262.13,-168.47"/>
</g>
<!-- 47 -->
<g id="node48" class="node">
<title>47</title>
<path fill="#e99457" stroke="black" d="M3585.5,-157C3585.5,-157 3451.75,-157 3451.75,-157 3445.75,-157 3439.75,-151 3439.75,-145 3439.75,-145 3439.75,-101 3439.75,-101 3439.75,-95 3445.75,-89 3451.75,-89 3451.75,-89 3585.5,-89 3585.5,-89 3591.5,-89 3597.5,-95 3597.5,-101 3597.5,-101 3597.5,-145 3597.5,-145 3597.5,-151 3591.5,-157 3585.5,-157"/>
<text text-anchor="start" x="3481.88" y="-139.7" font-family="Helvetica,sans-Serif" font-size="14.00">lstat ≤ 5.605</text>
<text text-anchor="start" x="3447.75" y="-124.7" font-family="Helvetica,sans-Serif" font-size="14.00">squared_error = 19.242</text>
<text text-anchor="start" x="3477.75" y="-109.7" font-family="Helvetica,sans-Serif" font-size="14.00">samples = 14</text>
<text text-anchor="start" x="3474" y="-94.7" font-family="Helvetica,sans-Serif" font-size="14.00">value = 43.793</text>
</g>
<!-- 43&#45;&gt;47 -->
<g id="edge47" class="edge">
<title>43&#45;&gt;47</title>
<path fill="none" stroke="black" d="M3337.69,-194.98C3366.69,-183.61 3399.69,-170.66 3429.51,-158.96"/>
<polygon fill="black" stroke="black" points="3430.45,-161.96 3438.49,-155.05 3427.9,-155.44 3430.45,-161.96"/>
</g>
<!-- 45 -->
<g id="node46" class="node">
<title>45</title>
<path fill="#e5823a" stroke="black" d="M3234,-53C3234,-53 3115.25,-53 3115.25,-53 3109.25,-53 3103.25,-47 3103.25,-41 3103.25,-41 3103.25,-12 3103.25,-12 3103.25,-6 3109.25,0 3115.25,0 3115.25,0 3234,0 3234,0 3240,0 3246,-6 3246,-12 3246,-12 3246,-41 3246,-41 3246,-47 3240,-53 3234,-53"/>
<text text-anchor="start" x="3111.25" y="-35.7" font-family="Helvetica,sans-Serif" font-size="14.00">squared_error = 0.32</text>
<text text-anchor="start" x="3137.5" y="-20.7" font-family="Helvetica,sans-Serif" font-size="14.00">samples = 9</text>
<text text-anchor="start" x="3137.5" y="-5.7" font-family="Helvetica,sans-Serif" font-size="14.00">value = 49.7</text>
</g>
<!-- 44&#45;&gt;45 -->
<g id="edge45" class="edge">
<title>44&#45;&gt;45</title>
<path fill="none" stroke="black" d="M3229.01,-88.68C3221.21,-79.9 3212.78,-70.42 3204.94,-61.6"/>
<polygon fill="black" stroke="black" points="3207.9,-59.54 3198.64,-54.39 3202.67,-64.19 3207.9,-59.54"/>
</g>
<!-- 46 -->
<g id="node47" class="node">
<title>46</title>
<path fill="#e78c4a" stroke="black" d="M3409.5,-53C3409.5,-53 3275.75,-53 3275.75,-53 3269.75,-53 3263.75,-47 3263.75,-41 3263.75,-41 3263.75,-12 3263.75,-12 3263.75,-6 3269.75,0 3275.75,0 3275.75,0 3409.5,0 3409.5,0 3415.5,0 3421.5,-6 3421.5,-12 3421.5,-12 3421.5,-41 3421.5,-41 3421.5,-47 3415.5,-53 3409.5,-53"/>
<text text-anchor="start" x="3271.75" y="-35.7" font-family="Helvetica,sans-Serif" font-size="14.00">squared_error = 11.902</text>
<text text-anchor="start" x="3305.5" y="-20.7" font-family="Helvetica,sans-Serif" font-size="14.00">samples = 2</text>
<text text-anchor="start" x="3301.75" y="-5.7" font-family="Helvetica,sans-Serif" font-size="14.00">value = 46.55</text>
</g>
<!-- 44&#45;&gt;46 -->
<g id="edge46" class="edge">
<title>44&#45;&gt;46</title>
<path fill="none" stroke="black" d="M3288.24,-88.68C3296.04,-79.9 3304.47,-70.42 3312.31,-61.6"/>
<polygon fill="black" stroke="black" points="3314.58,-64.19 3318.61,-54.39 3309.35,-59.54 3314.58,-64.19"/>
</g>
<!-- 48 -->
<g id="node49" class="node">
<title>48</title>
<path fill="#e89152" stroke="black" d="M3585.5,-53C3585.5,-53 3451.75,-53 3451.75,-53 3445.75,-53 3439.75,-47 3439.75,-41 3439.75,-41 3439.75,-12 3439.75,-12 3439.75,-6 3445.75,0 3451.75,0 3451.75,0 3585.5,0 3585.5,0 3591.5,0 3597.5,-6 3597.5,-12 3597.5,-12 3597.5,-41 3597.5,-41 3597.5,-47 3591.5,-53 3585.5,-53"/>
<text text-anchor="start" x="3447.75" y="-35.7" font-family="Helvetica,sans-Serif" font-size="14.00">squared_error = 13.867</text>
<text text-anchor="start" x="3477.75" y="-20.7" font-family="Helvetica,sans-Serif" font-size="14.00">samples = 12</text>
<text text-anchor="start" x="3474" y="-5.7" font-family="Helvetica,sans-Serif" font-size="14.00">value = 44.842</text>
</g>
<!-- 47&#45;&gt;48 -->
<g id="edge48" class="edge">
<title>47&#45;&gt;48</title>
<path fill="none" stroke="black" d="M3518.62,-88.68C3518.62,-80.81 3518.62,-72.37 3518.62,-64.35"/>
<polygon fill="black" stroke="black" points="3522.13,-64.39 3518.62,-54.39 3515.13,-64.39 3522.13,-64.39"/>
</g>
<!-- 49 -->
<g id="node50" class="node">
<title>49</title>
<path fill="#eda876" stroke="black" d="M3746,-53C3746,-53 3627.25,-53 3627.25,-53 3621.25,-53 3615.25,-47 3615.25,-41 3615.25,-41 3615.25,-12 3615.25,-12 3615.25,-6 3621.25,0 3627.25,0 3627.25,0 3746,0 3746,0 3752,0 3758,-6 3758,-12 3758,-12 3758,-41 3758,-41 3758,-47 3752,-53 3746,-53"/>
<text text-anchor="start" x="3623.25" y="-35.7" font-family="Helvetica,sans-Serif" font-size="14.00">squared_error = 5.29</text>
<text text-anchor="start" x="3649.5" y="-20.7" font-family="Helvetica,sans-Serif" font-size="14.00">samples = 2</text>
<text text-anchor="start" x="3649.5" y="-5.7" font-family="Helvetica,sans-Serif" font-size="14.00">value = 37.5</text>
</g>
<!-- 47&#45;&gt;49 -->
<g id="edge49" class="edge">
<title>47&#45;&gt;49</title>
<path fill="none" stroke="black" d="M3577.86,-88.68C3595.23,-78.91 3614.16,-68.26 3631.29,-58.63"/>
<polygon fill="black" stroke="black" points="3632.59,-61.35 3639.59,-53.39 3629.16,-55.25 3632.59,-61.35"/>
</g>
</g>
</svg>