<?xml version="1.0" encoding="utf-8" standalone="no"?>
<!DOCTYPE svg PUBLIC "-//W3C//DTD SVG 1.1//EN"
  "http://www.w3.org/Graphics/SVG/1.1/DTD/svg11.dtd">
<svg xmlns:xlink="http://www.w3.org/1999/xlink" width="539.503125pt" height="337.074375pt" viewBox="0 0 539.503125 337.074375" xmlns="http://www.w3.org/2000/svg" version="1.1">
 <metadata>
  <rdf:RDF xmlns:dc="http://purl.org/dc/elements/1.1/" xmlns:cc="http://creativecommons.org/ns#" xmlns:rdf="http://www.w3.org/1999/02/22-rdf-syntax-ns#">
   <cc:Work>
    <dc:type rdf:resource="http://purl.org/dc/dcmitype/StillImage"/>
    <dc:date>2024-02-20T18:37:15.020574</dc:date>
    <dc:format>image/svg+xml</dc:format>
    <dc:creator>
     <cc:Agent>
      <dc:title>Matplotlib v3.7.1, https://matplotlib.org/</dc:title>
     </cc:Agent>
    </dc:creator>
   </cc:Work>
  </rdf:RDF>
 </metadata>
 <defs>
  <style type="text/css">*{stroke-linejoin: round; stroke-linecap: butt}</style>
 </defs>
 <g id="figure_1">
  <g id="patch_1">
   <path d="M 0 337.074375 
L 539.503125 337.074375 
L 539.503125 0 
L 0 0 
z
" style="fill: #ffffff"/>
  </g>
  <g id="axes_1">
   <g id="patch_2">
    <path d="M 30.103125 299.518125 
L 532.303125 299.518125 
L 532.303125 22.318125 
L 30.103125 22.318125 
z
" style="fill: #ffffff"/>
   </g>
   <g id="patch_3">
    <path d="M 217.364142 299.518125 
L 218.240719 299.518125 
L 218.240719 298.290412 
L 217.364142 298.290412 
z
" clip-path="url(#p16bc508a42)" style="fill: #ff0000"/>
   </g>
   <g id="patch_4">
    <path d="M 218.240719 299.518125 
L 219.117296 299.518125 
L 219.117296 298.290412 
L 218.240719 298.290412 
z
" clip-path="url(#p16bc508a42)" style="fill: #ff0000"/>
   </g>
   <g id="patch_5">
    <path d="M 219.117296 299.518125 
L 219.993873 299.518125 
L 219.993873 298.290412 
L 219.117296 298.290412 
z
" clip-path="url(#p16bc508a42)" style="fill: #ff0000"/>
   </g>
   <g id="patch_6">
    <path d="M 219.993873 299.518125 
L 220.87045 299.518125 
L 220.87045 299.518125 
L 219.993873 299.518125 
z
" clip-path="url(#p16bc508a42)" style="fill: #ff0000"/>
   </g>
   <g id="patch_7">
    <path d="M 220.87045 299.518125 
L 221.747027 299.518125 
L 221.747027 298.290412 
L 220.87045 298.290412 
z
" clip-path="url(#p16bc508a42)" style="fill: #ff0000"/>
   </g>
   <g id="patch_8">
    <path d="M 221.747027 299.518125 
L 222.623604 299.518125 
L 222.623604 298.904269 
L 221.747027 298.904269 
z
" clip-path="url(#p16bc508a42)" style="fill: #ff0000"/>
   </g>
   <g id="patch_9">
    <path d="M 222.623604 299.518125 
L 223.500181 299.518125 
L 223.500181 293.993418 
L 222.623604 293.993418 
z
" clip-path="url(#p16bc508a42)" style="fill: #ff0000"/>
   </g>
   <g id="patch_10">
    <path d="M 223.500181 299.518125 
L 224.376758 299.518125 
L 224.376758 294.607274 
L 223.500181 294.607274 
z
" clip-path="url(#p16bc508a42)" style="fill: #ff0000"/>
   </g>
   <g id="patch_11">
    <path d="M 224.376758 299.518125 
L 225.253334 299.518125 
L 225.253334 295.22113 
L 224.376758 295.22113 
z
" clip-path="url(#p16bc508a42)" style="fill: #ff0000"/>
   </g>
   <g id="patch_12">
    <path d="M 225.253334 299.518125 
L 226.129911 299.518125 
L 226.129911 290.924136 
L 225.253334 290.924136 
z
" clip-path="url(#p16bc508a42)" style="fill: #ff0000"/>
   </g>
   <g id="patch_13">
    <path d="M 226.129911 299.518125 
L 227.006488 299.518125 
L 227.006488 293.379561 
L 226.129911 293.379561 
z
" clip-path="url(#p16bc508a42)" style="fill: #ff0000"/>
   </g>
   <g id="patch_14">
    <path d="M 227.006488 299.518125 
L 227.883065 299.518125 
L 227.883065 288.46871 
L 227.006488 288.46871 
z
" clip-path="url(#p16bc508a42)" style="fill: #ff0000"/>
   </g>
   <g id="patch_15">
    <path d="M 227.883065 299.518125 
L 228.759642 299.518125 
L 228.759642 280.488577 
L 227.883065 280.488577 
z
" clip-path="url(#p16bc508a42)" style="fill: #ff0000"/>
   </g>
   <g id="patch_16">
    <path d="M 228.759642 299.518125 
L 229.636219 299.518125 
L 229.636219 281.102434 
L 228.759642 281.102434 
z
" clip-path="url(#p16bc508a42)" style="fill: #ff0000"/>
   </g>
   <g id="patch_17">
    <path d="M 229.636219 299.518125 
L 230.512796 299.518125 
L 230.512796 272.508445 
L 229.636219 272.508445 
z
" clip-path="url(#p16bc508a42)" style="fill: #ff0000"/>
   </g>
   <g id="patch_18">
    <path d="M 230.512796 299.518125 
L 231.389373 299.518125 
L 231.389373 290.924136 
L 230.512796 290.924136 
z
" clip-path="url(#p16bc508a42)" style="fill: #ff0000"/>
   </g>
   <g id="patch_19">
    <path d="M 231.389373 299.518125 
L 232.26595 299.518125 
L 232.26595 264.528312 
L 231.389373 264.528312 
z
" clip-path="url(#p16bc508a42)" style="fill: #ff0000"/>
   </g>
   <g id="patch_20">
    <path d="M 232.26595 299.518125 
L 233.142527 299.518125 
L 233.142527 266.369881 
L 232.26595 266.369881 
z
" clip-path="url(#p16bc508a42)" style="fill: #ff0000"/>
   </g>
   <g id="patch_21">
    <path d="M 233.142527 299.518125 
L 234.019104 299.518125 
L 234.019104 249.181902 
L 233.142527 249.181902 
z
" clip-path="url(#p16bc508a42)" style="fill: #ff0000"/>
   </g>
   <g id="patch_22">
    <path d="M 234.019104 299.518125 
L 234.895681 299.518125 
L 234.895681 246.11262 
L 234.019104 246.11262 
z
" clip-path="url(#p16bc508a42)" style="fill: #ff0000"/>
   </g>
   <g id="patch_23">
    <path d="M 234.895681 299.518125 
L 235.772258 299.518125 
L 235.772258 237.518631 
L 234.895681 237.518631 
z
" clip-path="url(#p16bc508a42)" style="fill: #ff0000"/>
   </g>
   <g id="patch_24">
    <path d="M 235.772258 299.518125 
L 236.648835 299.518125 
L 236.648835 266.369881 
L 235.772258 266.369881 
z
" clip-path="url(#p16bc508a42)" style="fill: #ff0000"/>
   </g>
   <g id="patch_25">
    <path d="M 236.648835 299.518125 
L 237.525412 299.518125 
L 237.525412 231.380067 
L 236.648835 231.380067 
z
" clip-path="url(#p16bc508a42)" style="fill: #ff0000"/>
   </g>
   <g id="patch_26">
    <path d="M 237.525412 299.518125 
L 238.401989 299.518125 
L 238.401989 208.053525 
L 237.525412 208.053525 
z
" clip-path="url(#p16bc508a42)" style="fill: #ff0000"/>
   </g>
   <g id="patch_27">
    <path d="M 238.401989 299.518125 
L 239.278566 299.518125 
L 239.278566 206.825812 
L 238.401989 206.825812 
z
" clip-path="url(#p16bc508a42)" style="fill: #ff0000"/>
   </g>
   <g id="patch_28">
    <path d="M 239.278566 299.518125 
L 240.155143 299.518125 
L 240.155143 201.301105 
L 239.278566 201.301105 
z
" clip-path="url(#p16bc508a42)" style="fill: #ff0000"/>
   </g>
   <g id="patch_29">
    <path d="M 240.155143 299.518125 
L 241.031719 299.518125 
L 241.031719 229.538498 
L 240.155143 229.538498 
z
" clip-path="url(#p16bc508a42)" style="fill: #ff0000"/>
   </g>
   <g id="patch_30">
    <path d="M 241.031719 299.518125 
L 241.908296 299.518125 
L 241.908296 167.539004 
L 241.031719 167.539004 
z
" clip-path="url(#p16bc508a42)" style="fill: #ff0000"/>
   </g>
   <g id="patch_31">
    <path d="M 241.908296 299.518125 
L 242.784873 299.518125 
L 242.784873 138.687755 
L 241.908296 138.687755 
z
" clip-path="url(#p16bc508a42)" style="fill: #ff0000"/>
   </g>
   <g id="patch_32">
    <path d="M 242.784873 299.518125 
L 243.66145 299.518125 
L 243.66145 131.321478 
L 242.784873 131.321478 
z
" clip-path="url(#p16bc508a42)" style="fill: #ff0000"/>
   </g>
   <g id="patch_33">
    <path d="M 243.66145 299.518125 
L 244.538027 299.518125 
L 244.538027 114.1335 
L 243.66145 114.1335 
z
" clip-path="url(#p16bc508a42)" style="fill: #ff0000"/>
   </g>
   <g id="patch_34">
    <path d="M 244.538027 299.518125 
L 245.414604 299.518125 
L 245.414604 194.548685 
L 244.538027 194.548685 
z
" clip-path="url(#p16bc508a42)" style="fill: #ff0000"/>
   </g>
   <g id="patch_35">
    <path d="M 245.414604 299.518125 
L 246.291181 299.518125 
L 246.291181 102.470229 
L 245.414604 102.470229 
z
" clip-path="url(#p16bc508a42)" style="fill: #ff0000"/>
   </g>
   <g id="patch_36">
    <path d="M 246.291181 299.518125 
L 247.167758 299.518125 
L 247.167758 73.618979 
L 246.291181 73.618979 
z
" clip-path="url(#p16bc508a42)" style="fill: #ff0000"/>
   </g>
   <g id="patch_37">
    <path d="M 247.167758 299.518125 
L 248.044335 299.518125 
L 248.044335 76.074405 
L 247.167758 76.074405 
z
" clip-path="url(#p16bc508a42)" style="fill: #ff0000"/>
   </g>
   <g id="patch_38">
    <path d="M 248.044335 299.518125 
L 248.920912 299.518125 
L 248.920912 53.975575 
L 248.044335 53.975575 
z
" clip-path="url(#p16bc508a42)" style="fill: #ff0000"/>
   </g>
   <g id="patch_39">
    <path d="M 248.920912 299.518125 
L 249.797489 299.518125 
L 249.797489 68.708128 
L 248.920912 68.708128 
z
" clip-path="url(#p16bc508a42)" style="fill: #ff0000"/>
   </g>
   <g id="patch_40">
    <path d="M 249.797489 299.518125 
L 250.674066 299.518125 
L 250.674066 180.429988 
L 249.797489 180.429988 
z
" clip-path="url(#p16bc508a42)" style="fill: #ff0000"/>
   </g>
   <g id="patch_41">
    <path d="M 250.674066 299.518125 
L 251.550643 299.518125 
L 251.550643 74.846692 
L 250.674066 74.846692 
z
" clip-path="url(#p16bc508a42)" style="fill: #ff0000"/>
   </g>
   <g id="patch_42">
    <path d="M 251.550643 299.518125 
L 252.42722 299.518125 
L 252.42722 60.727995 
L 251.550643 60.727995 
z
" clip-path="url(#p16bc508a42)" style="fill: #ff0000"/>
   </g>
   <g id="patch_43">
    <path d="M 252.42722 299.518125 
L 253.303797 299.518125 
L 253.303797 60.114139 
L 252.42722 60.114139 
z
" clip-path="url(#p16bc508a42)" style="fill: #ff0000"/>
   </g>
   <g id="patch_44">
    <path d="M 253.303797 299.518125 
L 254.180374 299.518125 
L 254.180374 60.114139 
L 253.303797 60.114139 
z
" clip-path="url(#p16bc508a42)" style="fill: #ff0000"/>
   </g>
   <g id="patch_45">
    <path d="M 254.180374 299.518125 
L 255.056951 299.518125 
L 255.056951 185.340839 
L 254.180374 185.340839 
z
" clip-path="url(#p16bc508a42)" style="fill: #ff0000"/>
   </g>
   <g id="patch_46">
    <path d="M 255.056951 299.518125 
L 255.933528 299.518125 
L 255.933528 85.896107 
L 255.056951 85.896107 
z
" clip-path="url(#p16bc508a42)" style="fill: #ff0000"/>
   </g>
   <g id="patch_47">
    <path d="M 255.933528 299.518125 
L 256.810104 299.518125 
L 256.810104 88.351532 
L 255.933528 88.351532 
z
" clip-path="url(#p16bc508a42)" style="fill: #ff0000"/>
   </g>
   <g id="patch_48">
    <path d="M 256.810104 299.518125 
L 257.686681 299.518125 
L 257.686681 100.014803 
L 256.810104 100.014803 
z
" clip-path="url(#p16bc508a42)" style="fill: #ff0000"/>
   </g>
   <g id="patch_49">
    <path d="M 257.686681 299.518125 
L 258.563258 299.518125 
L 258.563258 106.767223 
L 257.686681 106.767223 
z
" clip-path="url(#p16bc508a42)" style="fill: #ff0000"/>
   </g>
   <g id="patch_50">
    <path d="M 258.563258 299.518125 
L 259.439835 299.518125 
L 259.439835 211.736663 
L 258.563258 211.736663 
z
" clip-path="url(#p16bc508a42)" style="fill: #ff0000"/>
   </g>
   <g id="patch_51">
    <path d="M 259.439835 299.518125 
L 260.316412 299.518125 
L 260.316412 121.499776 
L 259.439835 121.499776 
z
" clip-path="url(#p16bc508a42)" style="fill: #ff0000"/>
   </g>
   <g id="patch_52">
    <path d="M 260.316412 299.518125 
L 261.192989 299.518125 
L 261.192989 142.984749 
L 260.316412 142.984749 
z
" clip-path="url(#p16bc508a42)" style="fill: #ff0000"/>
   </g>
   <g id="patch_53">
    <path d="M 261.192989 299.518125 
L 262.069566 299.518125 
L 262.069566 147.8956 
L 261.192989 147.8956 
z
" clip-path="url(#p16bc508a42)" style="fill: #ff0000"/>
   </g>
   <g id="patch_54">
    <path d="M 262.069566 299.518125 
L 262.946143 299.518125 
L 262.946143 168.152861 
L 262.069566 168.152861 
z
" clip-path="url(#p16bc508a42)" style="fill: #ff0000"/>
   </g>
   <g id="patch_55">
    <path d="M 262.946143 299.518125 
L 263.82272 299.518125 
L 263.82272 181.657701 
L 262.946143 181.657701 
z
" clip-path="url(#p16bc508a42)" style="fill: #ff0000"/>
   </g>
   <g id="patch_56">
    <path d="M 263.82272 299.518125 
L 264.699297 299.518125 
L 264.699297 247.340333 
L 263.82272 247.340333 
z
" clip-path="url(#p16bc508a42)" style="fill: #ff0000"/>
   </g>
   <g id="patch_57">
    <path d="M 264.699297 299.518125 
L 265.575874 299.518125 
L 265.575874 211.736663 
L 264.699297 211.736663 
z
" clip-path="url(#p16bc508a42)" style="fill: #ff0000"/>
   </g>
   <g id="patch_58">
    <path d="M 265.575874 299.518125 
L 266.452451 299.518125 
L 266.452451 222.786078 
L 265.575874 222.786078 
z
" clip-path="url(#p16bc508a42)" style="fill: #ff0000"/>
   </g>
   <g id="patch_59">
    <path d="M 266.452451 299.518125 
L 267.329028 299.518125 
L 267.329028 229.538498 
L 266.452451 229.538498 
z
" clip-path="url(#p16bc508a42)" style="fill: #ff0000"/>
   </g>
   <g id="patch_60">
    <path d="M 267.329028 299.518125 
L 268.205605 299.518125 
L 268.205605 247.95419 
L 267.329028 247.95419 
z
" clip-path="url(#p16bc508a42)" style="fill: #ff0000"/>
   </g>
   <g id="patch_61">
    <path d="M 268.205605 299.518125 
L 269.082182 299.518125 
L 269.082182 270.053019 
L 268.205605 270.053019 
z
" clip-path="url(#p16bc508a42)" style="fill: #ff0000"/>
   </g>
   <g id="patch_62">
    <path d="M 269.082182 299.518125 
L 269.958759 299.518125 
L 269.958759 239.974057 
L 269.082182 239.974057 
z
" clip-path="url(#p16bc508a42)" style="fill: #ff0000"/>
   </g>
   <g id="patch_63">
    <path d="M 269.958759 299.518125 
L 270.835336 299.518125 
L 270.835336 255.320466 
L 269.958759 255.320466 
z
" clip-path="url(#p16bc508a42)" style="fill: #ff0000"/>
   </g>
   <g id="patch_64">
    <path d="M 270.835336 299.518125 
L 271.711913 299.518125 
L 271.711913 267.597594 
L 270.835336 267.597594 
z
" clip-path="url(#p16bc508a42)" style="fill: #ff0000"/>
   </g>
   <g id="patch_65">
    <path d="M 271.711913 299.518125 
L 272.58849 299.518125 
L 272.58849 266.983737 
L 271.711913 266.983737 
z
" clip-path="url(#p16bc508a42)" style="fill: #ff0000"/>
   </g>
   <g id="patch_66">
    <path d="M 272.58849 299.518125 
L 273.465066 299.518125 
L 273.465066 291.537992 
L 272.58849 291.537992 
z
" clip-path="url(#p16bc508a42)" style="fill: #ff0000"/>
   </g>
   <g id="patch_67">
    <path d="M 273.465066 299.518125 
L 274.341643 299.518125 
L 274.341643 279.874721 
L 273.465066 279.874721 
z
" clip-path="url(#p16bc508a42)" style="fill: #ff0000"/>
   </g>
   <g id="patch_68">
    <path d="M 274.341643 299.518125 
L 275.21822 299.518125 
L 275.21822 278.647008 
L 274.341643 278.647008 
z
" clip-path="url(#p16bc508a42)" style="fill: #ff0000"/>
   </g>
   <g id="patch_69">
    <path d="M 275.21822 299.518125 
L 276.094797 299.518125 
L 276.094797 287.854854 
L 275.21822 287.854854 
z
" clip-path="url(#p16bc508a42)" style="fill: #ff0000"/>
   </g>
   <g id="patch_70">
    <path d="M 276.094797 299.518125 
L 276.971374 299.518125 
L 276.971374 285.399428 
L 276.094797 285.399428 
z
" clip-path="url(#p16bc508a42)" style="fill: #ff0000"/>
   </g>
   <g id="patch_71">
    <path d="M 276.971374 299.518125 
L 277.847951 299.518125 
L 277.847951 293.379561 
L 276.971374 293.379561 
z
" clip-path="url(#p16bc508a42)" style="fill: #ff0000"/>
   </g>
   <g id="patch_72">
    <path d="M 277.847951 299.518125 
L 278.724528 299.518125 
L 278.724528 292.765705 
L 277.847951 292.765705 
z
" clip-path="url(#p16bc508a42)" style="fill: #ff0000"/>
   </g>
   <g id="patch_73">
    <path d="M 278.724528 299.518125 
L 279.601105 299.518125 
L 279.601105 295.22113 
L 278.724528 295.22113 
z
" clip-path="url(#p16bc508a42)" style="fill: #ff0000"/>
   </g>
   <g id="patch_74">
    <path d="M 279.601105 299.518125 
L 280.477682 299.518125 
L 280.477682 292.765705 
L 279.601105 292.765705 
z
" clip-path="url(#p16bc508a42)" style="fill: #ff0000"/>
   </g>
   <g id="patch_75">
    <path d="M 280.477682 299.518125 
L 281.354259 299.518125 
L 281.354259 298.290412 
L 280.477682 298.290412 
z
" clip-path="url(#p16bc508a42)" style="fill: #ff0000"/>
   </g>
   <g id="patch_76">
    <path d="M 281.354259 299.518125 
L 282.230836 299.518125 
L 282.230836 298.904269 
L 281.354259 298.904269 
z
" clip-path="url(#p16bc508a42)" style="fill: #ff0000"/>
   </g>
   <g id="patch_77">
    <path d="M 282.230836 299.518125 
L 283.107413 299.518125 
L 283.107413 298.904269 
L 282.230836 298.904269 
z
" clip-path="url(#p16bc508a42)" style="fill: #ff0000"/>
   </g>
   <g id="patch_78">
    <path d="M 283.107413 299.518125 
L 283.98399 299.518125 
L 283.98399 297.0627 
L 283.107413 297.0627 
z
" clip-path="url(#p16bc508a42)" style="fill: #ff0000"/>
   </g>
   <g id="patch_79">
    <path d="M 283.98399 299.518125 
L 284.860567 299.518125 
L 284.860567 298.904269 
L 283.98399 298.904269 
z
" clip-path="url(#p16bc508a42)" style="fill: #ff0000"/>
   </g>
   <g id="patch_80">
    <path d="M 284.860567 299.518125 
L 285.737144 299.518125 
L 285.737144 297.676556 
L 284.860567 297.676556 
z
" clip-path="url(#p16bc508a42)" style="fill: #ff0000"/>
   </g>
   <g id="patch_81">
    <path d="M 285.737144 299.518125 
L 286.613721 299.518125 
L 286.613721 299.518125 
L 285.737144 299.518125 
z
" clip-path="url(#p16bc508a42)" style="fill: #ff0000"/>
   </g>
   <g id="patch_82">
    <path d="M 286.613721 299.518125 
L 287.490298 299.518125 
L 287.490298 298.904269 
L 286.613721 298.904269 
z
" clip-path="url(#p16bc508a42)" style="fill: #ff0000"/>
   </g>
   <g id="patch_83">
    <path d="M 390.503202 299.518125 
L 391.99036 299.518125 
L 391.99036 299.156299 
L 390.503202 299.156299 
z
" clip-path="url(#p16bc508a42)" style="fill: #ffa500"/>
   </g>
   <g id="patch_84">
    <path d="M 391.99036 299.518125 
L 393.477518 299.518125 
L 393.477518 299.518125 
L 391.99036 299.518125 
z
" clip-path="url(#p16bc508a42)" style="fill: #ffa500"/>
   </g>
   <g id="patch_85">
    <path d="M 393.477518 299.518125 
L 394.964676 299.518125 
L 394.964676 299.156299 
L 393.477518 299.156299 
z
" clip-path="url(#p16bc508a42)" style="fill: #ffa500"/>
   </g>
   <g id="patch_86">
    <path d="M 394.964676 299.518125 
L 396.451835 299.518125 
L 396.451835 298.794473 
L 394.964676 298.794473 
z
" clip-path="url(#p16bc508a42)" style="fill: #ffa500"/>
   </g>
   <g id="patch_87">
    <path d="M 396.451835 299.518125 
L 397.938993 299.518125 
L 397.938993 299.156299 
L 396.451835 299.156299 
z
" clip-path="url(#p16bc508a42)" style="fill: #ffa500"/>
   </g>
   <g id="patch_88">
    <path d="M 397.938993 299.518125 
L 399.426151 299.518125 
L 399.426151 298.794473 
L 397.938993 298.794473 
z
" clip-path="url(#p16bc508a42)" style="fill: #ffa500"/>
   </g>
   <g id="patch_89">
    <path d="M 399.426151 299.518125 
L 400.913309 299.518125 
L 400.913309 298.432647 
L 399.426151 298.432647 
z
" clip-path="url(#p16bc508a42)" style="fill: #ffa500"/>
   </g>
   <g id="patch_90">
    <path d="M 400.913309 299.518125 
L 402.400467 299.518125 
L 402.400467 295.53804 
L 400.913309 295.53804 
z
" clip-path="url(#p16bc508a42)" style="fill: #ffa500"/>
   </g>
   <g id="patch_91">
    <path d="M 402.400467 299.518125 
L 403.887625 299.518125 
L 403.887625 295.53804 
L 402.400467 295.53804 
z
" clip-path="url(#p16bc508a42)" style="fill: #ffa500"/>
   </g>
   <g id="patch_92">
    <path d="M 403.887625 299.518125 
L 405.374783 299.518125 
L 405.374783 295.899866 
L 403.887625 295.899866 
z
" clip-path="url(#p16bc508a42)" style="fill: #ffa500"/>
   </g>
   <g id="patch_93">
    <path d="M 405.374783 299.518125 
L 406.861941 299.518125 
L 406.861941 295.53804 
L 405.374783 295.53804 
z
" clip-path="url(#p16bc508a42)" style="fill: #ffa500"/>
   </g>
   <g id="patch_94">
    <path d="M 406.861941 299.518125 
L 408.3491 299.518125 
L 408.3491 293.367084 
L 406.861941 293.367084 
z
" clip-path="url(#p16bc508a42)" style="fill: #ffa500"/>
   </g>
   <g id="patch_95">
    <path d="M 408.3491 299.518125 
L 409.836258 299.518125 
L 409.836258 292.643433 
L 408.3491 292.643433 
z
" clip-path="url(#p16bc508a42)" style="fill: #ffa500"/>
   </g>
   <g id="patch_96">
    <path d="M 409.836258 299.518125 
L 411.323416 299.518125 
L 411.323416 284.321437 
L 409.836258 284.321437 
z
" clip-path="url(#p16bc508a42)" style="fill: #ffa500"/>
   </g>
   <g id="patch_97">
    <path d="M 411.323416 299.518125 
L 412.810574 299.518125 
L 412.810574 290.110651 
L 411.323416 290.110651 
z
" clip-path="url(#p16bc508a42)" style="fill: #ffa500"/>
   </g>
   <g id="patch_98">
    <path d="M 412.810574 299.518125 
L 414.297732 299.518125 
L 414.297732 283.959611 
L 412.810574 283.959611 
z
" clip-path="url(#p16bc508a42)" style="fill: #ffa500"/>
   </g>
   <g id="patch_99">
    <path d="M 414.297732 299.518125 
L 415.78489 299.518125 
L 415.78489 276.723093 
L 414.297732 276.723093 
z
" clip-path="url(#p16bc508a42)" style="fill: #ffa500"/>
   </g>
   <g id="patch_100">
    <path d="M 415.78489 299.518125 
L 417.272048 299.518125 
L 417.272048 277.80857 
L 415.78489 277.80857 
z
" clip-path="url(#p16bc508a42)" style="fill: #ffa500"/>
   </g>
   <g id="patch_101">
    <path d="M 417.272048 299.518125 
L 418.759206 299.518125 
L 418.759206 272.743008 
L 417.272048 272.743008 
z
" clip-path="url(#p16bc508a42)" style="fill: #ffa500"/>
   </g>
   <g id="patch_102">
    <path d="M 418.759206 299.518125 
L 420.246365 299.518125 
L 420.246365 266.591967 
L 418.759206 266.591967 
z
" clip-path="url(#p16bc508a42)" style="fill: #ffa500"/>
   </g>
   <g id="patch_103">
    <path d="M 420.246365 299.518125 
L 421.733523 299.518125 
L 421.733523 256.460841 
L 420.246365 256.460841 
z
" clip-path="url(#p16bc508a42)" style="fill: #ffa500"/>
   </g>
   <g id="patch_104">
    <path d="M 421.733523 299.518125 
L 423.220681 299.518125 
L 423.220681 254.651712 
L 421.733523 254.651712 
z
" clip-path="url(#p16bc508a42)" style="fill: #ffa500"/>
   </g>
   <g id="patch_105">
    <path d="M 423.220681 299.518125 
L 424.707839 299.518125 
L 424.707839 247.415194 
L 423.220681 247.415194 
z
" clip-path="url(#p16bc508a42)" style="fill: #ffa500"/>
   </g>
   <g id="patch_106">
    <path d="M 424.707839 299.518125 
L 426.194997 299.518125 
L 426.194997 237.284068 
L 424.707839 237.284068 
z
" clip-path="url(#p16bc508a42)" style="fill: #ffa500"/>
   </g>
   <g id="patch_107">
    <path d="M 426.194997 299.518125 
L 427.682155 299.518125 
L 427.682155 236.560416 
L 426.194997 236.560416 
z
" clip-path="url(#p16bc508a42)" style="fill: #ffa500"/>
   </g>
   <g id="patch_108">
    <path d="M 427.682155 299.518125 
L 429.169313 299.518125 
L 429.169313 221.363728 
L 427.682155 221.363728 
z
" clip-path="url(#p16bc508a42)" style="fill: #ffa500"/>
   </g>
   <g id="patch_109">
    <path d="M 429.169313 299.518125 
L 430.656471 299.518125 
L 430.656471 183.010181 
L 429.169313 183.010181 
z
" clip-path="url(#p16bc508a42)" style="fill: #ffa500"/>
   </g>
   <g id="patch_110">
    <path d="M 430.656471 299.518125 
L 432.14363 299.518125 
L 432.14363 207.614343 
L 430.656471 207.614343 
z
" clip-path="url(#p16bc508a42)" style="fill: #ffa500"/>
   </g>
   <g id="patch_111">
    <path d="M 432.14363 299.518125 
L 433.630788 299.518125 
L 433.630788 197.845044 
L 432.14363 197.845044 
z
" clip-path="url(#p16bc508a42)" style="fill: #ffa500"/>
   </g>
   <g id="patch_112">
    <path d="M 433.630788 299.518125 
L 435.117946 299.518125 
L 435.117946 190.970351 
L 433.630788 190.970351 
z
" clip-path="url(#p16bc508a42)" style="fill: #ffa500"/>
   </g>
   <g id="patch_113">
    <path d="M 435.117946 299.518125 
L 436.605104 299.518125 
L 436.605104 188.43757 
L 435.117946 188.43757 
z
" clip-path="url(#p16bc508a42)" style="fill: #ffa500"/>
   </g>
   <g id="patch_114">
    <path d="M 436.605104 299.518125 
L 438.092262 299.518125 
L 438.092262 188.799396 
L 436.605104 188.799396 
z
" clip-path="url(#p16bc508a42)" style="fill: #ffa500"/>
   </g>
   <g id="patch_115">
    <path d="M 438.092262 299.518125 
L 439.57942 299.518125 
L 439.57942 175.411837 
L 438.092262 175.411837 
z
" clip-path="url(#p16bc508a42)" style="fill: #ffa500"/>
   </g>
   <g id="patch_116">
    <path d="M 439.57942 299.518125 
L 441.066578 299.518125 
L 441.066578 174.32636 
L 439.57942 174.32636 
z
" clip-path="url(#p16bc508a42)" style="fill: #ffa500"/>
   </g>
   <g id="patch_117">
    <path d="M 441.066578 299.518125 
L 442.553737 299.518125 
L 442.553737 163.109756 
L 441.066578 163.109756 
z
" clip-path="url(#p16bc508a42)" style="fill: #ffa500"/>
   </g>
   <g id="patch_118">
    <path d="M 442.553737 299.518125 
L 444.040895 299.518125 
L 444.040895 168.175319 
L 442.553737 168.175319 
z
" clip-path="url(#p16bc508a42)" style="fill: #ffa500"/>
   </g>
   <g id="patch_119">
    <path d="M 444.040895 299.518125 
L 445.528053 299.518125 
L 445.528053 156.235064 
L 444.040895 156.235064 
z
" clip-path="url(#p16bc508a42)" style="fill: #ffa500"/>
   </g>
   <g id="patch_120">
    <path d="M 445.528053 299.518125 
L 447.015211 299.518125 
L 447.015211 166.366189 
L 445.528053 166.366189 
z
" clip-path="url(#p16bc508a42)" style="fill: #ffa500"/>
   </g>
   <g id="patch_121">
    <path d="M 447.015211 299.518125 
L 448.502369 299.518125 
L 448.502369 169.260797 
L 447.015211 169.260797 
z
" clip-path="url(#p16bc508a42)" style="fill: #ffa500"/>
   </g>
   <g id="patch_122">
    <path d="M 448.502369 299.518125 
L 449.989527 299.518125 
L 449.989527 171.793578 
L 448.502369 171.793578 
z
" clip-path="url(#p16bc508a42)" style="fill: #ffa500"/>
   </g>
   <g id="patch_123">
    <path d="M 449.989527 299.518125 
L 451.476685 299.518125 
L 451.476685 117.519691 
L 449.989527 117.519691 
z
" clip-path="url(#p16bc508a42)" style="fill: #ffa500"/>
   </g>
   <g id="patch_124">
    <path d="M 451.476685 299.518125 
L 452.963843 299.518125 
L 452.963843 170.7081 
L 451.476685 170.7081 
z
" clip-path="url(#p16bc508a42)" style="fill: #ffa500"/>
   </g>
   <g id="patch_125">
    <path d="M 452.963843 299.518125 
L 454.451002 299.518125 
L 454.451002 181.562878 
L 452.963843 181.562878 
z
" clip-path="url(#p16bc508a42)" style="fill: #ffa500"/>
   </g>
   <g id="patch_126">
    <path d="M 454.451002 299.518125 
L 455.93816 299.518125 
L 455.93816 187.713918 
L 454.451002 187.713918 
z
" clip-path="url(#p16bc508a42)" style="fill: #ffa500"/>
   </g>
   <g id="patch_127">
    <path d="M 455.93816 299.518125 
L 457.425318 299.518125 
L 457.425318 205.443388 
L 455.93816 205.443388 
z
" clip-path="url(#p16bc508a42)" style="fill: #ffa500"/>
   </g>
   <g id="patch_128">
    <path d="M 457.425318 299.518125 
L 458.912476 299.518125 
L 458.912476 199.292347 
L 457.425318 199.292347 
z
" clip-path="url(#p16bc508a42)" style="fill: #ffa500"/>
   </g>
   <g id="patch_129">
    <path d="M 458.912476 299.518125 
L 460.399634 299.518125 
L 460.399634 219.192773 
L 458.912476 219.192773 
z
" clip-path="url(#p16bc508a42)" style="fill: #ffa500"/>
   </g>
   <g id="patch_130">
    <path d="M 460.399634 299.518125 
L 461.886792 299.518125 
L 461.886792 222.449206 
L 460.399634 222.449206 
z
" clip-path="url(#p16bc508a42)" style="fill: #ffa500"/>
   </g>
   <g id="patch_131">
    <path d="M 461.886792 299.518125 
L 463.37395 299.518125 
L 463.37395 214.489036 
L 461.886792 214.489036 
z
" clip-path="url(#p16bc508a42)" style="fill: #ffa500"/>
   </g>
   <g id="patch_132">
    <path d="M 463.37395 299.518125 
L 464.861108 299.518125 
L 464.861108 239.455024 
L 463.37395 239.455024 
z
" clip-path="url(#p16bc508a42)" style="fill: #ffa500"/>
   </g>
   <g id="patch_133">
    <path d="M 464.861108 299.518125 
L 466.348267 299.518125 
L 466.348267 243.435109 
L 464.861108 243.435109 
z
" clip-path="url(#p16bc508a42)" style="fill: #ffa500"/>
   </g>
   <g id="patch_134">
    <path d="M 466.348267 299.518125 
L 467.835425 299.518125 
L 467.835425 251.757105 
L 466.348267 251.757105 
z
" clip-path="url(#p16bc508a42)" style="fill: #ffa500"/>
   </g>
   <g id="patch_135">
    <path d="M 467.835425 299.518125 
L 469.322583 299.518125 
L 469.322583 253.204408 
L 467.835425 253.204408 
z
" clip-path="url(#p16bc508a42)" style="fill: #ffa500"/>
   </g>
   <g id="patch_136">
    <path d="M 469.322583 299.518125 
L 470.809741 299.518125 
L 470.809741 248.138846 
L 469.322583 248.138846 
z
" clip-path="url(#p16bc508a42)" style="fill: #ffa500"/>
   </g>
   <g id="patch_137">
    <path d="M 470.809741 299.518125 
L 472.296899 299.518125 
L 472.296899 269.8484 
L 470.809741 269.8484 
z
" clip-path="url(#p16bc508a42)" style="fill: #ffa500"/>
   </g>
   <g id="patch_138">
    <path d="M 472.296899 299.518125 
L 473.784057 299.518125 
L 473.784057 275.999441 
L 472.296899 275.999441 
z
" clip-path="url(#p16bc508a42)" style="fill: #ffa500"/>
   </g>
   <g id="patch_139">
    <path d="M 473.784057 299.518125 
L 475.271215 299.518125 
L 475.271215 280.341352 
L 473.784057 280.341352 
z
" clip-path="url(#p16bc508a42)" style="fill: #ffa500"/>
   </g>
   <g id="patch_140">
    <path d="M 475.271215 299.518125 
L 476.758373 299.518125 
L 476.758373 284.683263 
L 475.271215 284.683263 
z
" clip-path="url(#p16bc508a42)" style="fill: #ffa500"/>
   </g>
   <g id="patch_141">
    <path d="M 476.758373 299.518125 
L 478.245532 299.518125 
L 478.245532 281.788655 
L 476.758373 281.788655 
z
" clip-path="url(#p16bc508a42)" style="fill: #ffa500"/>
   </g>
   <g id="patch_142">
    <path d="M 478.245532 299.518125 
L 479.73269 299.518125 
L 479.73269 287.216044 
L 478.245532 287.216044 
z
" clip-path="url(#p16bc508a42)" style="fill: #ffa500"/>
   </g>
   <g id="patch_143">
    <path d="M 479.73269 299.518125 
L 481.219848 299.518125 
L 481.219848 287.216044 
L 479.73269 287.216044 
z
" clip-path="url(#p16bc508a42)" style="fill: #ffa500"/>
   </g>
   <g id="patch_144">
    <path d="M 481.219848 299.518125 
L 482.707006 299.518125 
L 482.707006 291.196129 
L 481.219848 291.196129 
z
" clip-path="url(#p16bc508a42)" style="fill: #ffa500"/>
   </g>
   <g id="patch_145">
    <path d="M 482.707006 299.518125 
L 484.194164 299.518125 
L 484.194164 293.367084 
L 482.707006 293.367084 
z
" clip-path="url(#p16bc508a42)" style="fill: #ffa500"/>
   </g>
   <g id="patch_146">
    <path d="M 484.194164 299.518125 
L 485.681322 299.518125 
L 485.681322 294.452562 
L 484.194164 294.452562 
z
" clip-path="url(#p16bc508a42)" style="fill: #ffa500"/>
   </g>
   <g id="patch_147">
    <path d="M 485.681322 299.518125 
L 487.16848 299.518125 
L 487.16848 292.643433 
L 485.681322 292.643433 
z
" clip-path="url(#p16bc508a42)" style="fill: #ffa500"/>
   </g>
   <g id="patch_148">
    <path d="M 487.16848 299.518125 
L 488.655638 299.518125 
L 488.655638 296.261692 
L 487.16848 296.261692 
z
" clip-path="url(#p16bc508a42)" style="fill: #ffa500"/>
   </g>
   <g id="patch_149">
    <path d="M 488.655638 299.518125 
L 490.142797 299.518125 
L 490.142797 296.261692 
L 488.655638 296.261692 
z
" clip-path="url(#p16bc508a42)" style="fill: #ffa500"/>
   </g>
   <g id="patch_150">
    <path d="M 490.142797 299.518125 
L 491.629955 299.518125 
L 491.629955 298.794473 
L 490.142797 298.794473 
z
" clip-path="url(#p16bc508a42)" style="fill: #ffa500"/>
   </g>
   <g id="patch_151">
    <path d="M 491.629955 299.518125 
L 493.117113 299.518125 
L 493.117113 298.794473 
L 491.629955 298.794473 
z
" clip-path="url(#p16bc508a42)" style="fill: #ffa500"/>
   </g>
   <g id="patch_152">
    <path d="M 493.117113 299.518125 
L 494.604271 299.518125 
L 494.604271 299.156299 
L 493.117113 299.156299 
z
" clip-path="url(#p16bc508a42)" style="fill: #ffa500"/>
   </g>
   <g id="patch_153">
    <path d="M 494.604271 299.518125 
L 496.091429 299.518125 
L 496.091429 299.156299 
L 494.604271 299.156299 
z
" clip-path="url(#p16bc508a42)" style="fill: #ffa500"/>
   </g>
   <g id="patch_154">
    <path d="M 496.091429 299.518125 
L 497.578587 299.518125 
L 497.578587 298.794473 
L 496.091429 298.794473 
z
" clip-path="url(#p16bc508a42)" style="fill: #ffa500"/>
   </g>
   <g id="patch_155">
    <path d="M 497.578587 299.518125 
L 499.065745 299.518125 
L 499.065745 298.794473 
L 497.578587 298.794473 
z
" clip-path="url(#p16bc508a42)" style="fill: #ffa500"/>
   </g>
   <g id="patch_156">
    <path d="M 499.065745 299.518125 
L 500.552904 299.518125 
L 500.552904 298.794473 
L 499.065745 298.794473 
z
" clip-path="url(#p16bc508a42)" style="fill: #ffa500"/>
   </g>
   <g id="patch_157">
    <path d="M 500.552904 299.518125 
L 502.040062 299.518125 
L 502.040062 299.518125 
L 500.552904 299.518125 
z
" clip-path="url(#p16bc508a42)" style="fill: #ffa500"/>
   </g>
   <g id="patch_158">
    <path d="M 502.040062 299.518125 
L 503.52722 299.518125 
L 503.52722 299.156299 
L 502.040062 299.156299 
z
" clip-path="url(#p16bc508a42)" style="fill: #ffa500"/>
   </g>
   <g id="patch_159">
    <path d="M 503.52722 299.518125 
L 505.014378 299.518125 
L 505.014378 299.518125 
L 503.52722 299.518125 
z
" clip-path="url(#p16bc508a42)" style="fill: #ffa500"/>
   </g>
   <g id="patch_160">
    <path d="M 505.014378 299.518125 
L 506.501536 299.518125 
L 506.501536 299.518125 
L 505.014378 299.518125 
z
" clip-path="url(#p16bc508a42)" style="fill: #ffa500"/>
   </g>
   <g id="patch_161">
    <path d="M 506.501536 299.518125 
L 507.988694 299.518125 
L 507.988694 299.518125 
L 506.501536 299.518125 
z
" clip-path="url(#p16bc508a42)" style="fill: #ffa500"/>
   </g>
   <g id="patch_162">
    <path d="M 507.988694 299.518125 
L 509.475852 299.518125 
L 509.475852 299.156299 
L 507.988694 299.156299 
z
" clip-path="url(#p16bc508a42)" style="fill: #ffa500"/>
   </g>
   <g id="patch_163">
    <path d="M 52.930398 299.518125 
L 53.819065 299.518125 
L 53.819065 298.307116 
L 52.930398 298.307116 
z
" clip-path="url(#p16bc508a42)" style="fill: #bf00bf"/>
   </g>
   <g id="patch_164">
    <path d="M 53.819065 299.518125 
L 54.707733 299.518125 
L 54.707733 298.307116 
L 53.819065 298.307116 
z
" clip-path="url(#p16bc508a42)" style="fill: #bf00bf"/>
   </g>
   <g id="patch_165">
    <path d="M 54.707733 299.518125 
L 55.596401 299.518125 
L 55.596401 298.307116 
L 54.707733 298.307116 
z
" clip-path="url(#p16bc508a42)" style="fill: #bf00bf"/>
   </g>
   <g id="patch_166">
    <path d="M 55.596401 299.518125 
L 56.485068 299.518125 
L 56.485068 298.91262 
L 55.596401 298.91262 
z
" clip-path="url(#p16bc508a42)" style="fill: #bf00bf"/>
   </g>
   <g id="patch_167">
    <path d="M 56.485068 299.518125 
L 57.373736 299.518125 
L 57.373736 297.701611 
L 56.485068 297.701611 
z
" clip-path="url(#p16bc508a42)" style="fill: #bf00bf"/>
   </g>
   <g id="patch_168">
    <path d="M 57.373736 299.518125 
L 58.262404 299.518125 
L 58.262404 295.885097 
L 57.373736 295.885097 
z
" clip-path="url(#p16bc508a42)" style="fill: #bf00bf"/>
   </g>
   <g id="patch_169">
    <path d="M 58.262404 299.518125 
L 59.151071 299.518125 
L 59.151071 296.490602 
L 58.262404 296.490602 
z
" clip-path="url(#p16bc508a42)" style="fill: #bf00bf"/>
   </g>
   <g id="patch_170">
    <path d="M 59.151071 299.518125 
L 60.039739 299.518125 
L 60.039739 294.068584 
L 59.151071 294.068584 
z
" clip-path="url(#p16bc508a42)" style="fill: #bf00bf"/>
   </g>
   <g id="patch_171">
    <path d="M 60.039739 299.518125 
L 60.928407 299.518125 
L 60.928407 281.958492 
L 60.039739 281.958492 
z
" clip-path="url(#p16bc508a42)" style="fill: #bf00bf"/>
   </g>
   <g id="patch_172">
    <path d="M 60.928407 299.518125 
L 61.817074 299.518125 
L 61.817074 286.802529 
L 60.928407 286.802529 
z
" clip-path="url(#p16bc508a42)" style="fill: #bf00bf"/>
   </g>
   <g id="patch_173">
    <path d="M 61.817074 299.518125 
L 62.705742 299.518125 
L 62.705742 274.086932 
L 61.817074 274.086932 
z
" clip-path="url(#p16bc508a42)" style="fill: #bf00bf"/>
   </g>
   <g id="patch_174">
    <path d="M 62.705742 299.518125 
L 63.59441 299.518125 
L 63.59441 272.875923 
L 62.705742 272.875923 
z
" clip-path="url(#p16bc508a42)" style="fill: #bf00bf"/>
   </g>
   <g id="patch_175">
    <path d="M 63.59441 299.518125 
L 64.483077 299.518125 
L 64.483077 289.830052 
L 63.59441 289.830052 
z
" clip-path="url(#p16bc508a42)" style="fill: #bf00bf"/>
   </g>
   <g id="patch_176">
    <path d="M 64.483077 299.518125 
L 65.371745 299.518125 
L 65.371745 256.527299 
L 64.483077 256.527299 
z
" clip-path="url(#p16bc508a42)" style="fill: #bf00bf"/>
   </g>
   <g id="patch_177">
    <path d="M 65.371745 299.518125 
L 66.260413 299.518125 
L 66.260413 243.206198 
L 65.371745 243.206198 
z
" clip-path="url(#p16bc508a42)" style="fill: #bf00bf"/>
   </g>
   <g id="patch_178">
    <path d="M 66.260413 299.518125 
L 67.14908 299.518125 
L 67.14908 235.940143 
L 66.260413 235.940143 
z
" clip-path="url(#p16bc508a42)" style="fill: #bf00bf"/>
   </g>
   <g id="patch_179">
    <path d="M 67.14908 299.518125 
L 68.037748 299.518125 
L 68.037748 226.25207 
L 67.14908 226.25207 
z
" clip-path="url(#p16bc508a42)" style="fill: #bf00bf"/>
   </g>
   <g id="patch_180">
    <path d="M 68.037748 299.518125 
L 68.926416 299.518125 
L 68.926416 214.747483 
L 68.037748 214.747483 
z
" clip-path="url(#p16bc508a42)" style="fill: #bf00bf"/>
   </g>
   <g id="patch_181">
    <path d="M 68.926416 299.518125 
L 69.815083 299.518125 
L 69.815083 242.600694 
L 68.926416 242.600694 
z
" clip-path="url(#p16bc508a42)" style="fill: #bf00bf"/>
   </g>
   <g id="patch_182">
    <path d="M 69.815083 299.518125 
L 70.703751 299.518125 
L 70.703751 189.921795 
L 69.815083 189.921795 
z
" clip-path="url(#p16bc508a42)" style="fill: #bf00bf"/>
   </g>
   <g id="patch_183">
    <path d="M 70.703751 299.518125 
L 71.592419 299.518125 
L 71.592419 172.967666 
L 70.703751 172.967666 
z
" clip-path="url(#p16bc508a42)" style="fill: #bf00bf"/>
   </g>
   <g id="patch_184">
    <path d="M 71.592419 299.518125 
L 72.481086 299.518125 
L 72.481086 151.169501 
L 71.592419 151.169501 
z
" clip-path="url(#p16bc508a42)" style="fill: #bf00bf"/>
   </g>
   <g id="patch_185">
    <path d="M 72.481086 299.518125 
L 73.369754 299.518125 
L 73.369754 136.637391 
L 72.481086 136.637391 
z
" clip-path="url(#p16bc508a42)" style="fill: #bf00bf"/>
   </g>
   <g id="patch_186">
    <path d="M 73.369754 299.518125 
L 74.258422 299.518125 
L 74.258422 103.334639 
L 73.369754 103.334639 
z
" clip-path="url(#p16bc508a42)" style="fill: #bf00bf"/>
   </g>
   <g id="patch_187">
    <path d="M 74.258422 299.518125 
L 75.147089 299.518125 
L 75.147089 194.765831 
L 74.258422 194.765831 
z
" clip-path="url(#p16bc508a42)" style="fill: #bf00bf"/>
   </g>
   <g id="patch_188">
    <path d="M 75.147089 299.518125 
L 76.035757 299.518125 
L 76.035757 108.78418 
L 75.147089 108.78418 
z
" clip-path="url(#p16bc508a42)" style="fill: #bf00bf"/>
   </g>
   <g id="patch_189">
    <path d="M 76.035757 299.518125 
L 76.924425 299.518125 
L 76.924425 78.508951 
L 76.035757 78.508951 
z
" clip-path="url(#p16bc508a42)" style="fill: #bf00bf"/>
   </g>
   <g id="patch_190">
    <path d="M 76.924425 299.518125 
L 77.813092 299.518125 
L 77.813092 65.793354 
L 76.924425 65.793354 
z
" clip-path="url(#p16bc508a42)" style="fill: #bf00bf"/>
   </g>
   <g id="patch_191">
    <path d="M 77.813092 299.518125 
L 78.70176 299.518125 
L 78.70176 71.8484 
L 77.813092 71.8484 
z
" clip-path="url(#p16bc508a42)" style="fill: #bf00bf"/>
   </g>
   <g id="patch_192">
    <path d="M 78.70176 299.518125 
L 79.590428 299.518125 
L 79.590428 69.426382 
L 78.70176 69.426382 
z
" clip-path="url(#p16bc508a42)" style="fill: #bf00bf"/>
   </g>
   <g id="patch_193">
    <path d="M 79.590428 299.518125 
L 80.479095 299.518125 
L 80.479095 184.472253 
L 79.590428 184.472253 
z
" clip-path="url(#p16bc508a42)" style="fill: #bf00bf"/>
   </g>
   <g id="patch_194">
    <path d="M 80.479095 299.518125 
L 81.367763 299.518125 
L 81.367763 65.793354 
L 80.479095 65.793354 
z
" clip-path="url(#p16bc508a42)" style="fill: #bf00bf"/>
   </g>
   <g id="patch_195">
    <path d="M 81.367763 299.518125 
L 82.256431 299.518125 
L 82.256431 35.518125 
L 81.367763 35.518125 
z
" clip-path="url(#p16bc508a42)" style="fill: #bf00bf"/>
   </g>
   <g id="patch_196">
    <path d="M 82.256431 299.518125 
L 83.145098 299.518125 
L 83.145098 40.967666 
L 82.256431 40.967666 
z
" clip-path="url(#p16bc508a42)" style="fill: #bf00bf"/>
   </g>
   <g id="patch_197">
    <path d="M 83.145098 299.518125 
L 84.033766 299.518125 
L 84.033766 58.527299 
L 83.145098 58.527299 
z
" clip-path="url(#p16bc508a42)" style="fill: #bf00bf"/>
   </g>
   <g id="patch_198">
    <path d="M 84.033766 299.518125 
L 84.922434 299.518125 
L 84.922434 67.609868 
L 84.033766 67.609868 
z
" clip-path="url(#p16bc508a42)" style="fill: #bf00bf"/>
   </g>
   <g id="patch_199">
    <path d="M 84.922434 299.518125 
L 85.811101 299.518125 
L 85.811101 182.65574 
L 84.922434 182.65574 
z
" clip-path="url(#p16bc508a42)" style="fill: #bf00bf"/>
   </g>
   <g id="patch_200">
    <path d="M 85.811101 299.518125 
L 86.699769 299.518125 
L 86.699769 66.398859 
L 85.811101 66.398859 
z
" clip-path="url(#p16bc508a42)" style="fill: #bf00bf"/>
   </g>
   <g id="patch_201">
    <path d="M 86.699769 299.518125 
L 87.588437 299.518125 
L 87.588437 89.408033 
L 86.699769 89.408033 
z
" clip-path="url(#p16bc508a42)" style="fill: #bf00bf"/>
   </g>
   <g id="patch_202">
    <path d="M 87.588437 299.518125 
L 88.477104 299.518125 
L 88.477104 93.041061 
L 87.588437 93.041061 
z
" clip-path="url(#p16bc508a42)" style="fill: #bf00bf"/>
   </g>
   <g id="patch_203">
    <path d="M 88.477104 299.518125 
L 89.365772 299.518125 
L 89.365772 120.288767 
L 88.477104 120.288767 
z
" clip-path="url(#p16bc508a42)" style="fill: #bf00bf"/>
   </g>
   <g id="patch_204">
    <path d="M 89.365772 299.518125 
L 90.25444 299.518125 
L 90.25444 122.105281 
L 89.365772 122.105281 
z
" clip-path="url(#p16bc508a42)" style="fill: #bf00bf"/>
   </g>
   <g id="patch_205">
    <path d="M 90.25444 299.518125 
L 91.143107 299.518125 
L 91.143107 140.270419 
L 90.25444 140.270419 
z
" clip-path="url(#p16bc508a42)" style="fill: #bf00bf"/>
   </g>
   <g id="patch_206">
    <path d="M 91.143107 299.518125 
L 92.031775 299.518125 
L 92.031775 225.646565 
L 91.143107 225.646565 
z
" clip-path="url(#p16bc508a42)" style="fill: #bf00bf"/>
   </g>
   <g id="patch_207">
    <path d="M 92.031775 299.518125 
L 92.920443 299.518125 
L 92.920443 180.839226 
L 92.031775 180.839226 
z
" clip-path="url(#p16bc508a42)" style="fill: #bf00bf"/>
   </g>
   <g id="patch_208">
    <path d="M 92.920443 299.518125 
L 93.80911 299.518125 
L 93.80911 182.050235 
L 92.920443 182.050235 
z
" clip-path="url(#p16bc508a42)" style="fill: #bf00bf"/>
   </g>
   <g id="patch_209">
    <path d="M 93.80911 299.518125 
L 94.697778 299.518125 
L 94.697778 190.527299 
L 93.80911 190.527299 
z
" clip-path="url(#p16bc508a42)" style="fill: #bf00bf"/>
   </g>
   <g id="patch_210">
    <path d="M 94.697778 299.518125 
L 95.586445 299.518125 
L 95.586445 208.086932 
L 94.697778 208.086932 
z
" clip-path="url(#p16bc508a42)" style="fill: #bf00bf"/>
   </g>
   <g id="patch_211">
    <path d="M 95.586445 299.518125 
L 96.475113 299.518125 
L 96.475113 231.701611 
L 95.586445 231.701611 
z
" clip-path="url(#p16bc508a42)" style="fill: #bf00bf"/>
   </g>
   <g id="patch_212">
    <path d="M 96.475113 299.518125 
L 97.363781 299.518125 
L 97.363781 259.554822 
L 96.475113 259.554822 
z
" clip-path="url(#p16bc508a42)" style="fill: #bf00bf"/>
   </g>
   <g id="patch_213">
    <path d="M 97.363781 299.518125 
L 98.252448 299.518125 
L 98.252448 234.729134 
L 97.363781 234.729134 
z
" clip-path="url(#p16bc508a42)" style="fill: #bf00bf"/>
   </g>
   <g id="patch_214">
    <path d="M 98.252448 299.518125 
L 99.141116 299.518125 
L 99.141116 252.894272 
L 98.252448 252.894272 
z
" clip-path="url(#p16bc508a42)" style="fill: #bf00bf"/>
   </g>
   <g id="patch_215">
    <path d="M 99.141116 299.518125 
L 100.029784 299.518125 
L 100.029784 255.921795 
L 99.141116 255.921795 
z
" clip-path="url(#p16bc508a42)" style="fill: #bf00bf"/>
   </g>
   <g id="patch_216">
    <path d="M 100.029784 299.518125 
L 100.918451 299.518125 
L 100.918451 260.765831 
L 100.029784 260.765831 
z
" clip-path="url(#p16bc508a42)" style="fill: #bf00bf"/>
   </g>
   <g id="patch_217">
    <path d="M 100.918451 299.518125 
L 101.807119 299.518125 
L 101.807119 264.398859 
L 100.918451 264.398859 
z
" clip-path="url(#p16bc508a42)" style="fill: #bf00bf"/>
   </g>
   <g id="patch_218">
    <path d="M 101.807119 299.518125 
L 102.695787 299.518125 
L 102.695787 288.013538 
L 101.807119 288.013538 
z
" clip-path="url(#p16bc508a42)" style="fill: #bf00bf"/>
   </g>
   <g id="patch_219">
    <path d="M 102.695787 299.518125 
L 103.584454 299.518125 
L 103.584454 274.086932 
L 102.695787 274.086932 
z
" clip-path="url(#p16bc508a42)" style="fill: #bf00bf"/>
   </g>
   <g id="patch_220">
    <path d="M 103.584454 299.518125 
L 104.473122 299.518125 
L 104.473122 275.903446 
L 103.584454 275.903446 
z
" clip-path="url(#p16bc508a42)" style="fill: #bf00bf"/>
   </g>
   <g id="patch_221">
    <path d="M 104.473122 299.518125 
L 105.36179 299.518125 
L 105.36179 278.325464 
L 104.473122 278.325464 
z
" clip-path="url(#p16bc508a42)" style="fill: #bf00bf"/>
   </g>
   <g id="patch_222">
    <path d="M 105.36179 299.518125 
L 106.250457 299.518125 
L 106.250457 284.38051 
L 105.36179 284.38051 
z
" clip-path="url(#p16bc508a42)" style="fill: #bf00bf"/>
   </g>
   <g id="patch_223">
    <path d="M 106.250457 299.518125 
L 107.139125 299.518125 
L 107.139125 289.224547 
L 106.250457 289.224547 
z
" clip-path="url(#p16bc508a42)" style="fill: #bf00bf"/>
   </g>
   <g id="patch_224">
    <path d="M 107.139125 299.518125 
L 108.027793 299.518125 
L 108.027793 296.490602 
L 107.139125 296.490602 
z
" clip-path="url(#p16bc508a42)" style="fill: #bf00bf"/>
   </g>
   <g id="patch_225">
    <path d="M 108.027793 299.518125 
L 108.91646 299.518125 
L 108.91646 292.25207 
L 108.027793 292.25207 
z
" clip-path="url(#p16bc508a42)" style="fill: #bf00bf"/>
   </g>
   <g id="patch_226">
    <path d="M 108.91646 299.518125 
L 109.805128 299.518125 
L 109.805128 294.068584 
L 108.91646 294.068584 
z
" clip-path="url(#p16bc508a42)" style="fill: #bf00bf"/>
   </g>
   <g id="patch_227">
    <path d="M 109.805128 299.518125 
L 110.693796 299.518125 
L 110.693796 295.279593 
L 109.805128 295.279593 
z
" clip-path="url(#p16bc508a42)" style="fill: #bf00bf"/>
   </g>
   <g id="patch_228">
    <path d="M 110.693796 299.518125 
L 111.582463 299.518125 
L 111.582463 297.701611 
L 110.693796 297.701611 
z
" clip-path="url(#p16bc508a42)" style="fill: #bf00bf"/>
   </g>
   <g id="patch_229">
    <path d="M 111.582463 299.518125 
L 112.471131 299.518125 
L 112.471131 296.490602 
L 111.582463 296.490602 
z
" clip-path="url(#p16bc508a42)" style="fill: #bf00bf"/>
   </g>
   <g id="patch_230">
    <path d="M 112.471131 299.518125 
L 113.359799 299.518125 
L 113.359799 298.307116 
L 112.471131 298.307116 
z
" clip-path="url(#p16bc508a42)" style="fill: #bf00bf"/>
   </g>
   <g id="patch_231">
    <path d="M 113.359799 299.518125 
L 114.248466 299.518125 
L 114.248466 298.307116 
L 113.359799 298.307116 
z
" clip-path="url(#p16bc508a42)" style="fill: #bf00bf"/>
   </g>
   <g id="patch_232">
    <path d="M 114.248466 299.518125 
L 115.137134 299.518125 
L 115.137134 298.307116 
L 114.248466 298.307116 
z
" clip-path="url(#p16bc508a42)" style="fill: #bf00bf"/>
   </g>
   <g id="patch_233">
    <path d="M 115.137134 299.518125 
L 116.025802 299.518125 
L 116.025802 298.91262 
L 115.137134 298.91262 
z
" clip-path="url(#p16bc508a42)" style="fill: #bf00bf"/>
   </g>
   <g id="patch_234">
    <path d="M 116.025802 299.518125 
L 116.914469 299.518125 
L 116.914469 298.307116 
L 116.025802 298.307116 
z
" clip-path="url(#p16bc508a42)" style="fill: #bf00bf"/>
   </g>
   <g id="patch_235">
    <path d="M 116.914469 299.518125 
L 117.803137 299.518125 
L 117.803137 297.701611 
L 116.914469 297.701611 
z
" clip-path="url(#p16bc508a42)" style="fill: #bf00bf"/>
   </g>
   <g id="patch_236">
    <path d="M 117.803137 299.518125 
L 118.691805 299.518125 
L 118.691805 298.307116 
L 117.803137 298.307116 
z
" clip-path="url(#p16bc508a42)" style="fill: #bf00bf"/>
   </g>
   <g id="patch_237">
    <path d="M 118.691805 299.518125 
L 119.580472 299.518125 
L 119.580472 299.518125 
L 118.691805 299.518125 
z
" clip-path="url(#p16bc508a42)" style="fill: #bf00bf"/>
   </g>
   <g id="patch_238">
    <path d="M 119.580472 299.518125 
L 120.46914 299.518125 
L 120.46914 299.518125 
L 119.580472 299.518125 
z
" clip-path="url(#p16bc508a42)" style="fill: #bf00bf"/>
   </g>
   <g id="patch_239">
    <path d="M 120.46914 299.518125 
L 121.357808 299.518125 
L 121.357808 299.518125 
L 120.46914 299.518125 
z
" clip-path="url(#p16bc508a42)" style="fill: #bf00bf"/>
   </g>
   <g id="patch_240">
    <path d="M 121.357808 299.518125 
L 122.246475 299.518125 
L 122.246475 299.518125 
L 121.357808 299.518125 
z
" clip-path="url(#p16bc508a42)" style="fill: #bf00bf"/>
   </g>
   <g id="patch_241">
    <path d="M 122.246475 299.518125 
L 123.135143 299.518125 
L 123.135143 298.91262 
L 122.246475 298.91262 
z
" clip-path="url(#p16bc508a42)" style="fill: #bf00bf"/>
   </g>
   <g id="patch_242">
    <path d="M 123.135143 299.518125 
L 124.023811 299.518125 
L 124.023811 298.91262 
L 123.135143 298.91262 
z
" clip-path="url(#p16bc508a42)" style="fill: #bf00bf"/>
   </g>
   <g id="matplotlib.axis_1">
    <g id="xtick_1">
     <g id="line2d_1">
      <path d="M 58.250313 299.518125 
L 58.250313 22.318125 
" clip-path="url(#p16bc508a42)" style="fill: none; stroke-dasharray: 0.8,1.32; stroke-dashoffset: 0; stroke: #b0b0b0; stroke-width: 0.8"/>
     </g>
     <g id="line2d_2">
      <defs>
       <path id="mdbd4ec1fc0" d="M 0 0 
L 0 3.5 
" style="stroke: #000000; stroke-width: 0.8"/>
      </defs>
      <g>
       <use xlink:href="#mdbd4ec1fc0" x="58.250313" y="299.518125" style="stroke: #000000; stroke-width: 0.8"/>
      </g>
     </g>
     <g id="text_1">
      <!-- 2 -->
      <g transform="translate(55.069063 314.116563) scale(0.1 -0.1)">
       <defs>
        <path id="DejaVuSans-32" d="M 1228 531 
L 3431 531 
L 3431 0 
L 469 0 
L 469 531 
Q 828 903 1448 1529 
Q 2069 2156 2228 2338 
Q 2531 2678 2651 2914 
Q 2772 3150 2772 3378 
Q 2772 3750 2511 3984 
Q 2250 4219 1831 4219 
Q 1534 4219 1204 4116 
Q 875 4013 500 3803 
L 500 4441 
Q 881 4594 1212 4672 
Q 1544 4750 1819 4750 
Q 2544 4750 2975 4387 
Q 3406 4025 3406 3419 
Q 3406 3131 3298 2873 
Q 3191 2616 2906 2266 
Q 2828 2175 2409 1742 
Q 1991 1309 1228 531 
z
" transform="scale(0.015625)"/>
       </defs>
       <use xlink:href="#DejaVuSans-32"/>
      </g>
     </g>
    </g>
    <g id="xtick_2">
     <g id="line2d_3">
      <path d="M 154.976045 299.518125 
L 154.976045 22.318125 
" clip-path="url(#p16bc508a42)" style="fill: none; stroke-dasharray: 0.8,1.32; stroke-dashoffset: 0; stroke: #b0b0b0; stroke-width: 0.8"/>
     </g>
     <g id="line2d_4">
      <g>
       <use xlink:href="#mdbd4ec1fc0" x="154.976045" y="299.518125" style="stroke: #000000; stroke-width: 0.8"/>
      </g>
     </g>
     <g id="text_2">
      <!-- 4 -->
      <g transform="translate(151.794795 314.116563) scale(0.1 -0.1)">
       <defs>
        <path id="DejaVuSans-34" d="M 2419 4116 
L 825 1625 
L 2419 1625 
L 2419 4116 
z
M 2253 4666 
L 3047 4666 
L 3047 1625 
L 3713 1625 
L 3713 1100 
L 3047 1100 
L 3047 0 
L 2419 0 
L 2419 1100 
L 313 1100 
L 313 1709 
L 2253 4666 
z
" transform="scale(0.015625)"/>
       </defs>
       <use xlink:href="#DejaVuSans-34"/>
      </g>
     </g>
    </g>
    <g id="xtick_3">
     <g id="line2d_5">
      <path d="M 251.701777 299.518125 
L 251.701777 22.318125 
" clip-path="url(#p16bc508a42)" style="fill: none; stroke-dasharray: 0.8,1.32; stroke-dashoffset: 0; stroke: #b0b0b0; stroke-width: 0.8"/>
     </g>
     <g id="line2d_6">
      <g>
       <use xlink:href="#mdbd4ec1fc0" x="251.701777" y="299.518125" style="stroke: #000000; stroke-width: 0.8"/>
      </g>
     </g>
     <g id="text_3">
      <!-- 6 -->
      <g transform="translate(248.520527 314.116563) scale(0.1 -0.1)">
       <defs>
        <path id="DejaVuSans-36" d="M 2113 2584 
Q 1688 2584 1439 2293 
Q 1191 2003 1191 1497 
Q 1191 994 1439 701 
Q 1688 409 2113 409 
Q 2538 409 2786 701 
Q 3034 994 3034 1497 
Q 3034 2003 2786 2293 
Q 2538 2584 2113 2584 
z
M 3366 4563 
L 3366 3988 
Q 3128 4100 2886 4159 
Q 2644 4219 2406 4219 
Q 1781 4219 1451 3797 
Q 1122 3375 1075 2522 
Q 1259 2794 1537 2939 
Q 1816 3084 2150 3084 
Q 2853 3084 3261 2657 
Q 3669 2231 3669 1497 
Q 3669 778 3244 343 
Q 2819 -91 2113 -91 
Q 1303 -91 875 529 
Q 447 1150 447 2328 
Q 447 3434 972 4092 
Q 1497 4750 2381 4750 
Q 2619 4750 2861 4703 
Q 3103 4656 3366 4563 
z
" transform="scale(0.015625)"/>
       </defs>
       <use xlink:href="#DejaVuSans-36"/>
      </g>
     </g>
    </g>
    <g id="xtick_4">
     <g id="line2d_7">
      <path d="M 348.427509 299.518125 
L 348.427509 22.318125 
" clip-path="url(#p16bc508a42)" style="fill: none; stroke-dasharray: 0.8,1.32; stroke-dashoffset: 0; stroke: #b0b0b0; stroke-width: 0.8"/>
     </g>
     <g id="line2d_8">
      <g>
       <use xlink:href="#mdbd4ec1fc0" x="348.427509" y="299.518125" style="stroke: #000000; stroke-width: 0.8"/>
      </g>
     </g>
     <g id="text_4">
      <!-- 8 -->
      <g transform="translate(345.246259 314.116563) scale(0.1 -0.1)">
       <defs>
        <path id="DejaVuSans-38" d="M 2034 2216 
Q 1584 2216 1326 1975 
Q 1069 1734 1069 1313 
Q 1069 891 1326 650 
Q 1584 409 2034 409 
Q 2484 409 2743 651 
Q 3003 894 3003 1313 
Q 3003 1734 2745 1975 
Q 2488 2216 2034 2216 
z
M 1403 2484 
Q 997 2584 770 2862 
Q 544 3141 544 3541 
Q 544 4100 942 4425 
Q 1341 4750 2034 4750 
Q 2731 4750 3128 4425 
Q 3525 4100 3525 3541 
Q 3525 3141 3298 2862 
Q 3072 2584 2669 2484 
Q 3125 2378 3379 2068 
Q 3634 1759 3634 1313 
Q 3634 634 3220 271 
Q 2806 -91 2034 -91 
Q 1263 -91 848 271 
Q 434 634 434 1313 
Q 434 1759 690 2068 
Q 947 2378 1403 2484 
z
M 1172 3481 
Q 1172 3119 1398 2916 
Q 1625 2713 2034 2713 
Q 2441 2713 2670 2916 
Q 2900 3119 2900 3481 
Q 2900 3844 2670 4047 
Q 2441 4250 2034 4250 
Q 1625 4250 1398 4047 
Q 1172 3844 1172 3481 
z
" transform="scale(0.015625)"/>
       </defs>
       <use xlink:href="#DejaVuSans-38"/>
      </g>
     </g>
    </g>
    <g id="xtick_5">
     <g id="line2d_9">
      <path d="M 445.153241 299.518125 
L 445.153241 22.318125 
" clip-path="url(#p16bc508a42)" style="fill: none; stroke-dasharray: 0.8,1.32; stroke-dashoffset: 0; stroke: #b0b0b0; stroke-width: 0.8"/>
     </g>
     <g id="line2d_10">
      <g>
       <use xlink:href="#mdbd4ec1fc0" x="445.153241" y="299.518125" style="stroke: #000000; stroke-width: 0.8"/>
      </g>
     </g>
     <g id="text_5">
      <!-- 10 -->
      <g transform="translate(438.790741 314.116563) scale(0.1 -0.1)">
       <defs>
        <path id="DejaVuSans-31" d="M 794 531 
L 1825 531 
L 1825 4091 
L 703 3866 
L 703 4441 
L 1819 4666 
L 2450 4666 
L 2450 531 
L 3481 531 
L 3481 0 
L 794 0 
L 794 531 
z
" transform="scale(0.015625)"/>
        <path id="DejaVuSans-30" d="M 2034 4250 
Q 1547 4250 1301 3770 
Q 1056 3291 1056 2328 
Q 1056 1369 1301 889 
Q 1547 409 2034 409 
Q 2525 409 2770 889 
Q 3016 1369 3016 2328 
Q 3016 3291 2770 3770 
Q 2525 4250 2034 4250 
z
M 2034 4750 
Q 2819 4750 3233 4129 
Q 3647 3509 3647 2328 
Q 3647 1150 3233 529 
Q 2819 -91 2034 -91 
Q 1250 -91 836 529 
Q 422 1150 422 2328 
Q 422 3509 836 4129 
Q 1250 4750 2034 4750 
z
" transform="scale(0.015625)"/>
       </defs>
       <use xlink:href="#DejaVuSans-31"/>
       <use xlink:href="#DejaVuSans-30" x="63.623047"/>
      </g>
     </g>
    </g>
    <g id="text_6">
     <!-- $x$ -->
     <g transform="translate(278.203125 327.794688) scale(0.1 -0.1)">
      <defs>
       <path id="DejaVuSans-Oblique-78" d="M 3841 3500 
L 2234 1784 
L 3219 0 
L 2559 0 
L 1819 1388 
L 531 0 
L -166 0 
L 1556 1844 
L 641 3500 
L 1300 3500 
L 1972 2234 
L 3144 3500 
L 3841 3500 
z
" transform="scale(0.015625)"/>
      </defs>
      <use xlink:href="#DejaVuSans-Oblique-78" transform="translate(0 0.3125)"/>
     </g>
    </g>
   </g>
   <g id="matplotlib.axis_2">
    <g id="ytick_1">
     <g id="line2d_11">
      <path d="M 30.103125 299.518125 
L 532.303125 299.518125 
" clip-path="url(#p16bc508a42)" style="fill: none; stroke-dasharray: 0.8,1.32; stroke-dashoffset: 0; stroke: #b0b0b0; stroke-width: 0.8"/>
     </g>
     <g id="line2d_12">
      <defs>
       <path id="mcd77f36d62" d="M 0 0 
L -3.5 0 
" style="stroke: #000000; stroke-width: 0.8"/>
      </defs>
      <g>
       <use xlink:href="#mcd77f36d62" x="30.103125" y="299.518125" style="stroke: #000000; stroke-width: 0.8"/>
      </g>
     </g>
     <g id="text_7">
      <!-- 0.0 -->
      <g transform="translate(7.2 303.317344) scale(0.1 -0.1)">
       <defs>
        <path id="DejaVuSans-2e" d="M 684 794 
L 1344 794 
L 1344 0 
L 684 0 
L 684 794 
z
" transform="scale(0.015625)"/>
       </defs>
       <use xlink:href="#DejaVuSans-30"/>
       <use xlink:href="#DejaVuSans-2e" x="63.623047"/>
       <use xlink:href="#DejaVuSans-30" x="95.410156"/>
      </g>
     </g>
    </g>
    <g id="ytick_2">
     <g id="line2d_13">
      <path d="M 30.103125 243.887391 
L 532.303125 243.887391 
" clip-path="url(#p16bc508a42)" style="fill: none; stroke-dasharray: 0.8,1.32; stroke-dashoffset: 0; stroke: #b0b0b0; stroke-width: 0.8"/>
     </g>
     <g id="line2d_14">
      <g>
       <use xlink:href="#mcd77f36d62" x="30.103125" y="243.887391" style="stroke: #000000; stroke-width: 0.8"/>
      </g>
     </g>
     <g id="text_8">
      <!-- 0.5 -->
      <g transform="translate(7.2 247.68661) scale(0.1 -0.1)">
       <defs>
        <path id="DejaVuSans-35" d="M 691 4666 
L 3169 4666 
L 3169 4134 
L 1269 4134 
L 1269 2991 
Q 1406 3038 1543 3061 
Q 1681 3084 1819 3084 
Q 2600 3084 3056 2656 
Q 3513 2228 3513 1497 
Q 3513 744 3044 326 
Q 2575 -91 1722 -91 
Q 1428 -91 1123 -41 
Q 819 9 494 109 
L 494 744 
Q 775 591 1075 516 
Q 1375 441 1709 441 
Q 2250 441 2565 725 
Q 2881 1009 2881 1497 
Q 2881 1984 2565 2268 
Q 2250 2553 1709 2553 
Q 1456 2553 1204 2497 
Q 953 2441 691 2322 
L 691 4666 
z
" transform="scale(0.015625)"/>
       </defs>
       <use xlink:href="#DejaVuSans-30"/>
       <use xlink:href="#DejaVuSans-2e" x="63.623047"/>
       <use xlink:href="#DejaVuSans-35" x="95.410156"/>
      </g>
     </g>
    </g>
    <g id="ytick_3">
     <g id="line2d_15">
      <path d="M 30.103125 188.256657 
L 532.303125 188.256657 
" clip-path="url(#p16bc508a42)" style="fill: none; stroke-dasharray: 0.8,1.32; stroke-dashoffset: 0; stroke: #b0b0b0; stroke-width: 0.8"/>
     </g>
     <g id="line2d_16">
      <g>
       <use xlink:href="#mcd77f36d62" x="30.103125" y="188.256657" style="stroke: #000000; stroke-width: 0.8"/>
      </g>
     </g>
     <g id="text_9">
      <!-- 1.0 -->
      <g transform="translate(7.2 192.055876) scale(0.1 -0.1)">
       <use xlink:href="#DejaVuSans-31"/>
       <use xlink:href="#DejaVuSans-2e" x="63.623047"/>
       <use xlink:href="#DejaVuSans-30" x="95.410156"/>
      </g>
     </g>
    </g>
    <g id="ytick_4">
     <g id="line2d_17">
      <path d="M 30.103125 132.625923 
L 532.303125 132.625923 
" clip-path="url(#p16bc508a42)" style="fill: none; stroke-dasharray: 0.8,1.32; stroke-dashoffset: 0; stroke: #b0b0b0; stroke-width: 0.8"/>
     </g>
     <g id="line2d_18">
      <g>
       <use xlink:href="#mcd77f36d62" x="30.103125" y="132.625923" style="stroke: #000000; stroke-width: 0.8"/>
      </g>
     </g>
     <g id="text_10">
      <!-- 1.5 -->
      <g transform="translate(7.2 136.425142) scale(0.1 -0.1)">
       <use xlink:href="#DejaVuSans-31"/>
       <use xlink:href="#DejaVuSans-2e" x="63.623047"/>
       <use xlink:href="#DejaVuSans-35" x="95.410156"/>
      </g>
     </g>
    </g>
    <g id="ytick_5">
     <g id="line2d_19">
      <path d="M 30.103125 76.995189 
L 532.303125 76.995189 
" clip-path="url(#p16bc508a42)" style="fill: none; stroke-dasharray: 0.8,1.32; stroke-dashoffset: 0; stroke: #b0b0b0; stroke-width: 0.8"/>
     </g>
     <g id="line2d_20">
      <g>
       <use xlink:href="#mcd77f36d62" x="30.103125" y="76.995189" style="stroke: #000000; stroke-width: 0.8"/>
      </g>
     </g>
     <g id="text_11">
      <!-- 2.0 -->
      <g transform="translate(7.2 80.794408) scale(0.1 -0.1)">
       <use xlink:href="#DejaVuSans-32"/>
       <use xlink:href="#DejaVuSans-2e" x="63.623047"/>
       <use xlink:href="#DejaVuSans-30" x="95.410156"/>
      </g>
     </g>
    </g>
   </g>
   <g id="line2d_21">
    <path d="M 221.967462 297.112073 
L 223.098497 296.15181 
L 224.170004 294.946071 
L 225.181983 293.478348 
L 226.193962 291.6222 
L 227.20594 289.302671 
L 228.277447 286.251598 
L 229.348954 282.489442 
L 230.420461 277.914376 
L 231.551496 272.095302 
L 232.742059 264.761528 
L 233.99215 255.628244 
L 235.361298 243.874578 
L 236.849502 229.044507 
L 238.51629 210.120162 
L 240.659304 183.07975 
L 245.3025 123.680999 
L 246.790704 107.952699 
L 247.981267 97.666286 
L 248.933717 91.216148 
L 249.767112 87.019246 
L 250.421921 84.730418 
L 250.957675 83.541721 
L 251.374372 83.050347 
L 251.731541 82.933189 
L 252.029182 83.050347 
L 252.386351 83.448212 
L 252.803048 84.265044 
L 253.338801 85.866337 
L 253.993611 88.645695 
L 254.767477 93.048941 
L 255.660399 99.536127 
L 256.731906 109.103228 
L 258.041525 123.001006 
L 259.767842 143.987784 
L 266.375467 227.127553 
L 267.982728 243.321884 
L 269.411403 255.628244 
L 270.780551 265.553508 
L 272.030642 273.085948 
L 273.221205 279.006431 
L 274.411769 283.828818 
L 275.542804 287.517008 
L 276.673839 290.456957 
L 277.745345 292.65767 
L 278.816852 294.384242 
L 279.947887 295.7853 
L 281.078922 296.839118 
L 281.436091 297.112073 
L 281.436091 297.112073 
" clip-path="url(#p16bc508a42)" style="fill: none; stroke-dasharray: 7.4,3.2; stroke-dashoffset: 0; stroke: #0000ff; stroke-width: 2"/>
   </g>
   <g id="line2d_22">
    <path d="M 399.272197 297.958825 
L 401.292984 297.220436 
L 403.038209 296.351529 
L 404.69158 295.278323 
L 406.253097 293.992313 
L 407.72276 292.494795 
L 409.192423 290.673496 
L 410.662086 288.482277 
L 412.131749 285.874766 
L 413.601412 282.806202 
L 415.162929 278.994984 
L 416.724446 274.575982 
L 418.377817 269.202207 
L 420.123042 262.738381 
L 421.960121 255.069864 
L 424.072761 245.231736 
L 426.552818 232.521244 
L 430.226975 212.338342 
L 434.084841 191.494603 
L 436.197481 181.270402 
L 437.850852 174.276529 
L 439.320515 169.000127 
L 440.514617 165.464412 
L 441.616864 162.857171 
L 442.535403 161.19572 
L 443.362089 160.113761 
L 444.09692 159.488817 
L 444.739898 159.205667 
L 445.382875 159.170233 
L 446.025853 159.382703 
L 446.668831 159.841952 
L 447.403662 160.665812 
L 448.230348 161.966947 
L 449.148887 163.864022 
L 450.15928 166.476051 
L 451.353382 170.227828 
L 452.731191 175.36954 
L 454.292708 182.107716 
L 456.22164 191.494603 
L 458.793551 205.216216 
L 465.590742 242.043726 
L 467.887091 253.019815 
L 469.907877 261.643783 
L 471.744956 268.560145 
L 473.490181 274.296414 
L 475.143552 278.994984 
L 476.705069 282.806202 
L 478.266586 286.050793 
L 479.828103 288.778002 
L 481.297766 290.920433 
L 482.767429 292.698758 
L 484.328946 294.240701 
L 485.890463 295.476346 
L 487.543834 296.505302 
L 489.289059 297.336504 
L 491.034284 297.958825 
L 491.034284 297.958825 
" clip-path="url(#p16bc508a42)" style="fill: none; stroke-dasharray: 7.4,3.2; stroke-dashoffset: 0; stroke: #a52a2a; stroke-width: 2"/>
   </g>
   <g id="line2d_23">
    <path d="M 54.33546 296.971799 
L 55.404187 295.955552 
L 56.416666 294.679518 
L 57.429145 293.022794 
L 58.441624 290.900127 
L 59.454103 288.216633 
L 60.466581 284.869752 
L 61.47906 280.752319 
L 62.547788 275.451507 
L 63.672764 268.683411 
L 64.853989 260.135756 
L 66.091463 249.490041 
L 67.441435 235.849589 
L 68.960153 218.059187 
L 70.703867 194.872066 
L 73.40381 155.48571 
L 76.103754 117.085153 
L 77.566223 99.241132 
L 78.747448 87.372604 
L 79.703678 79.826177 
L 80.491162 75.173309 
L 81.166147 72.388501 
L 81.728636 70.950183 
L 82.122377 70.430162 
L 82.45987 70.306173 
L 82.741114 70.430162 
L 83.078607 70.851223 
L 83.472349 71.715677 
L 83.978589 73.410326 
L 84.597326 76.351722 
L 85.32856 81.011679 
L 86.172293 87.877071 
L 87.184771 98.00194 
L 88.422245 112.709966 
L 90.053461 134.920283 
L 96.353329 223.586702 
L 97.928296 241.211797 
L 99.334517 254.548312 
L 100.62824 264.804301 
L 101.865714 272.897578 
L 103.046939 279.189941 
L 104.171915 284.025172 
L 105.240643 287.707746 
L 106.309371 290.631475 
L 107.378098 292.917927 
L 108.446826 294.679518 
L 109.515553 296.016832 
L 110.528032 296.971799 
L 110.528032 296.971799 
" clip-path="url(#p16bc508a42)" style="fill: none; stroke-dasharray: 7.4,3.2; stroke-dashoffset: 0; stroke: #008000; stroke-width: 2"/>
   </g>
   <g id="patch_243">
    <path d="M 30.103125 299.518125 
L 30.103125 22.318125 
" style="fill: none; stroke: #000000; stroke-width: 0.8; stroke-linejoin: miter; stroke-linecap: square"/>
   </g>
   <g id="patch_244">
    <path d="M 532.303125 299.518125 
L 532.303125 22.318125 
" style="fill: none; stroke: #000000; stroke-width: 0.8; stroke-linejoin: miter; stroke-linecap: square"/>
   </g>
   <g id="patch_245">
    <path d="M 30.103125 299.518125 
L 532.303125 299.518125 
" style="fill: none; stroke: #000000; stroke-width: 0.8; stroke-linejoin: miter; stroke-linecap: square"/>
   </g>
   <g id="patch_246">
    <path d="M 30.103125 22.318125 
L 532.303125 22.318125 
" style="fill: none; stroke: #000000; stroke-width: 0.8; stroke-linejoin: miter; stroke-linecap: square"/>
   </g>
   <g id="text_12">
    <!-- Central limit theorem, $n=100$ -->
    <g transform="translate(190.363125 16.318125) scale(0.12 -0.12)">
     <defs>
      <path id="DejaVuSans-43" d="M 4122 4306 
L 4122 3641 
Q 3803 3938 3442 4084 
Q 3081 4231 2675 4231 
Q 1875 4231 1450 3742 
Q 1025 3253 1025 2328 
Q 1025 1406 1450 917 
Q 1875 428 2675 428 
Q 3081 428 3442 575 
Q 3803 722 4122 1019 
L 4122 359 
Q 3791 134 3420 21 
Q 3050 -91 2638 -91 
Q 1578 -91 968 557 
Q 359 1206 359 2328 
Q 359 3453 968 4101 
Q 1578 4750 2638 4750 
Q 3056 4750 3426 4639 
Q 3797 4528 4122 4306 
z
" transform="scale(0.015625)"/>
      <path id="DejaVuSans-65" d="M 3597 1894 
L 3597 1613 
L 953 1613 
Q 991 1019 1311 708 
Q 1631 397 2203 397 
Q 2534 397 2845 478 
Q 3156 559 3463 722 
L 3463 178 
Q 3153 47 2828 -22 
Q 2503 -91 2169 -91 
Q 1331 -91 842 396 
Q 353 884 353 1716 
Q 353 2575 817 3079 
Q 1281 3584 2069 3584 
Q 2775 3584 3186 3129 
Q 3597 2675 3597 1894 
z
M 3022 2063 
Q 3016 2534 2758 2815 
Q 2500 3097 2075 3097 
Q 1594 3097 1305 2825 
Q 1016 2553 972 2059 
L 3022 2063 
z
" transform="scale(0.015625)"/>
      <path id="DejaVuSans-6e" d="M 3513 2113 
L 3513 0 
L 2938 0 
L 2938 2094 
Q 2938 2591 2744 2837 
Q 2550 3084 2163 3084 
Q 1697 3084 1428 2787 
Q 1159 2491 1159 1978 
L 1159 0 
L 581 0 
L 581 3500 
L 1159 3500 
L 1159 2956 
Q 1366 3272 1645 3428 
Q 1925 3584 2291 3584 
Q 2894 3584 3203 3211 
Q 3513 2838 3513 2113 
z
" transform="scale(0.015625)"/>
      <path id="DejaVuSans-74" d="M 1172 4494 
L 1172 3500 
L 2356 3500 
L 2356 3053 
L 1172 3053 
L 1172 1153 
Q 1172 725 1289 603 
Q 1406 481 1766 481 
L 2356 481 
L 2356 0 
L 1766 0 
Q 1100 0 847 248 
Q 594 497 594 1153 
L 594 3053 
L 172 3053 
L 172 3500 
L 594 3500 
L 594 4494 
L 1172 4494 
z
" transform="scale(0.015625)"/>
      <path id="DejaVuSans-72" d="M 2631 2963 
Q 2534 3019 2420 3045 
Q 2306 3072 2169 3072 
Q 1681 3072 1420 2755 
Q 1159 2438 1159 1844 
L 1159 0 
L 581 0 
L 581 3500 
L 1159 3500 
L 1159 2956 
Q 1341 3275 1631 3429 
Q 1922 3584 2338 3584 
Q 2397 3584 2469 3576 
Q 2541 3569 2628 3553 
L 2631 2963 
z
" transform="scale(0.015625)"/>
      <path id="DejaVuSans-61" d="M 2194 1759 
Q 1497 1759 1228 1600 
Q 959 1441 959 1056 
Q 959 750 1161 570 
Q 1363 391 1709 391 
Q 2188 391 2477 730 
Q 2766 1069 2766 1631 
L 2766 1759 
L 2194 1759 
z
M 3341 1997 
L 3341 0 
L 2766 0 
L 2766 531 
Q 2569 213 2275 61 
Q 1981 -91 1556 -91 
Q 1019 -91 701 211 
Q 384 513 384 1019 
Q 384 1609 779 1909 
Q 1175 2209 1959 2209 
L 2766 2209 
L 2766 2266 
Q 2766 2663 2505 2880 
Q 2244 3097 1772 3097 
Q 1472 3097 1187 3025 
Q 903 2953 641 2809 
L 641 3341 
Q 956 3463 1253 3523 
Q 1550 3584 1831 3584 
Q 2591 3584 2966 3190 
Q 3341 2797 3341 1997 
z
" transform="scale(0.015625)"/>
      <path id="DejaVuSans-6c" d="M 603 4863 
L 1178 4863 
L 1178 0 
L 603 0 
L 603 4863 
z
" transform="scale(0.015625)"/>
      <path id="DejaVuSans-20" transform="scale(0.015625)"/>
      <path id="DejaVuSans-69" d="M 603 3500 
L 1178 3500 
L 1178 0 
L 603 0 
L 603 3500 
z
M 603 4863 
L 1178 4863 
L 1178 4134 
L 603 4134 
L 603 4863 
z
" transform="scale(0.015625)"/>
      <path id="DejaVuSans-6d" d="M 3328 2828 
Q 3544 3216 3844 3400 
Q 4144 3584 4550 3584 
Q 5097 3584 5394 3201 
Q 5691 2819 5691 2113 
L 5691 0 
L 5113 0 
L 5113 2094 
Q 5113 2597 4934 2840 
Q 4756 3084 4391 3084 
Q 3944 3084 3684 2787 
Q 3425 2491 3425 1978 
L 3425 0 
L 2847 0 
L 2847 2094 
Q 2847 2600 2669 2842 
Q 2491 3084 2119 3084 
Q 1678 3084 1418 2786 
Q 1159 2488 1159 1978 
L 1159 0 
L 581 0 
L 581 3500 
L 1159 3500 
L 1159 2956 
Q 1356 3278 1631 3431 
Q 1906 3584 2284 3584 
Q 2666 3584 2933 3390 
Q 3200 3197 3328 2828 
z
" transform="scale(0.015625)"/>
      <path id="DejaVuSans-68" d="M 3513 2113 
L 3513 0 
L 2938 0 
L 2938 2094 
Q 2938 2591 2744 2837 
Q 2550 3084 2163 3084 
Q 1697 3084 1428 2787 
Q 1159 2491 1159 1978 
L 1159 0 
L 581 0 
L 581 4863 
L 1159 4863 
L 1159 2956 
Q 1366 3272 1645 3428 
Q 1925 3584 2291 3584 
Q 2894 3584 3203 3211 
Q 3513 2838 3513 2113 
z
" transform="scale(0.015625)"/>
      <path id="DejaVuSans-6f" d="M 1959 3097 
Q 1497 3097 1228 2736 
Q 959 2375 959 1747 
Q 959 1119 1226 758 
Q 1494 397 1959 397 
Q 2419 397 2687 759 
Q 2956 1122 2956 1747 
Q 2956 2369 2687 2733 
Q 2419 3097 1959 3097 
z
M 1959 3584 
Q 2709 3584 3137 3096 
Q 3566 2609 3566 1747 
Q 3566 888 3137 398 
Q 2709 -91 1959 -91 
Q 1206 -91 779 398 
Q 353 888 353 1747 
Q 353 2609 779 3096 
Q 1206 3584 1959 3584 
z
" transform="scale(0.015625)"/>
      <path id="DejaVuSans-2c" d="M 750 794 
L 1409 794 
L 1409 256 
L 897 -744 
L 494 -744 
L 750 256 
L 750 794 
z
" transform="scale(0.015625)"/>
      <path id="DejaVuSans-Oblique-6e" d="M 3566 2113 
L 3156 0 
L 2578 0 
L 2988 2091 
Q 3016 2238 3031 2350 
Q 3047 2463 3047 2528 
Q 3047 2791 2881 2937 
Q 2716 3084 2419 3084 
Q 1956 3084 1622 2776 
Q 1288 2469 1184 1941 
L 800 0 
L 225 0 
L 903 3500 
L 1478 3500 
L 1363 2950 
Q 1603 3253 1940 3418 
Q 2278 3584 2650 3584 
Q 3113 3584 3367 3334 
Q 3622 3084 3622 2631 
Q 3622 2519 3608 2391 
Q 3594 2263 3566 2113 
z
" transform="scale(0.015625)"/>
      <path id="DejaVuSans-3d" d="M 678 2906 
L 4684 2906 
L 4684 2381 
L 678 2381 
L 678 2906 
z
M 678 1631 
L 4684 1631 
L 4684 1100 
L 678 1100 
L 678 1631 
z
" transform="scale(0.015625)"/>
     </defs>
     <use xlink:href="#DejaVuSans-43" transform="translate(0 0.015625)"/>
     <use xlink:href="#DejaVuSans-65" transform="translate(69.824219 0.015625)"/>
     <use xlink:href="#DejaVuSans-6e" transform="translate(131.347656 0.015625)"/>
     <use xlink:href="#DejaVuSans-74" transform="translate(194.726562 0.015625)"/>
     <use xlink:href="#DejaVuSans-72" transform="translate(233.935547 0.015625)"/>
     <use xlink:href="#DejaVuSans-61" transform="translate(275.048828 0.015625)"/>
     <use xlink:href="#DejaVuSans-6c" transform="translate(336.328125 0.015625)"/>
     <use xlink:href="#DejaVuSans-20" transform="translate(364.111328 0.015625)"/>
     <use xlink:href="#DejaVuSans-6c" transform="translate(395.898438 0.015625)"/>
     <use xlink:href="#DejaVuSans-69" transform="translate(423.681641 0.015625)"/>
     <use xlink:href="#DejaVuSans-6d" transform="translate(451.464844 0.015625)"/>
     <use xlink:href="#DejaVuSans-69" transform="translate(548.876953 0.015625)"/>
     <use xlink:href="#DejaVuSans-74" transform="translate(576.660156 0.015625)"/>
     <use xlink:href="#DejaVuSans-20" transform="translate(615.869141 0.015625)"/>
     <use xlink:href="#DejaVuSans-74" transform="translate(647.65625 0.015625)"/>
     <use xlink:href="#DejaVuSans-68" transform="translate(686.865234 0.015625)"/>
     <use xlink:href="#DejaVuSans-65" transform="translate(750.244141 0.015625)"/>
     <use xlink:href="#DejaVuSans-6f" transform="translate(811.767578 0.015625)"/>
     <use xlink:href="#DejaVuSans-72" transform="translate(872.949219 0.015625)"/>
     <use xlink:href="#DejaVuSans-65" transform="translate(914.0625 0.015625)"/>
     <use xlink:href="#DejaVuSans-6d" transform="translate(975.585938 0.015625)"/>
     <use xlink:href="#DejaVuSans-2c" transform="translate(1072.998047 0.015625)"/>
     <use xlink:href="#DejaVuSans-20" transform="translate(1104.785156 0.015625)"/>
     <use xlink:href="#DejaVuSans-Oblique-6e" transform="translate(1136.572266 0.015625)"/>
     <use xlink:href="#DejaVuSans-3d" transform="translate(1219.433594 0.015625)"/>
     <use xlink:href="#DejaVuSans-31" transform="translate(1322.705078 0.015625)"/>
     <use xlink:href="#DejaVuSans-30" transform="translate(1386.328125 0.015625)"/>
     <use xlink:href="#DejaVuSans-30" transform="translate(1449.951172 0.015625)"/>
    </g>
   </g>
   <g id="legend_1">
    <g id="patch_247">
     <path d="M 434.539062 92.8525 
L 525.303125 92.8525 
Q 527.303125 92.8525 527.303125 90.8525 
L 527.303125 29.318125 
Q 527.303125 27.318125 525.303125 27.318125 
L 434.539062 27.318125 
Q 432.539062 27.318125 432.539062 29.318125 
L 432.539062 90.8525 
Q 432.539062 92.8525 434.539062 92.8525 
z
" style="fill: #ffffff; opacity: 0.8; stroke: #cccccc; stroke-linejoin: miter"/>
    </g>
    <g id="patch_248">
     <path d="M 436.539062 38.916563 
L 456.539062 38.916563 
L 456.539062 31.916563 
L 436.539062 31.916563 
z
" style="fill: #ff0000"/>
    </g>
    <g id="text_13">
     <!-- Bin(20, 0.3) -->
     <g transform="translate(464.539062 38.916563) scale(0.1 -0.1)">
      <defs>
       <path id="DejaVuSans-42" d="M 1259 2228 
L 1259 519 
L 2272 519 
Q 2781 519 3026 730 
Q 3272 941 3272 1375 
Q 3272 1813 3026 2020 
Q 2781 2228 2272 2228 
L 1259 2228 
z
M 1259 4147 
L 1259 2741 
L 2194 2741 
Q 2656 2741 2882 2914 
Q 3109 3088 3109 3444 
Q 3109 3797 2882 3972 
Q 2656 4147 2194 4147 
L 1259 4147 
z
M 628 4666 
L 2241 4666 
Q 2963 4666 3353 4366 
Q 3744 4066 3744 3513 
Q 3744 3084 3544 2831 
Q 3344 2578 2956 2516 
Q 3422 2416 3680 2098 
Q 3938 1781 3938 1306 
Q 3938 681 3513 340 
Q 3088 0 2303 0 
L 628 0 
L 628 4666 
z
" transform="scale(0.015625)"/>
       <path id="DejaVuSans-28" d="M 1984 4856 
Q 1566 4138 1362 3434 
Q 1159 2731 1159 2009 
Q 1159 1288 1364 580 
Q 1569 -128 1984 -844 
L 1484 -844 
Q 1016 -109 783 600 
Q 550 1309 550 2009 
Q 550 2706 781 3412 
Q 1013 4119 1484 4856 
L 1984 4856 
z
" transform="scale(0.015625)"/>
       <path id="DejaVuSans-33" d="M 2597 2516 
Q 3050 2419 3304 2112 
Q 3559 1806 3559 1356 
Q 3559 666 3084 287 
Q 2609 -91 1734 -91 
Q 1441 -91 1130 -33 
Q 819 25 488 141 
L 488 750 
Q 750 597 1062 519 
Q 1375 441 1716 441 
Q 2309 441 2620 675 
Q 2931 909 2931 1356 
Q 2931 1769 2642 2001 
Q 2353 2234 1838 2234 
L 1294 2234 
L 1294 2753 
L 1863 2753 
Q 2328 2753 2575 2939 
Q 2822 3125 2822 3475 
Q 2822 3834 2567 4026 
Q 2313 4219 1838 4219 
Q 1578 4219 1281 4162 
Q 984 4106 628 3988 
L 628 4550 
Q 988 4650 1302 4700 
Q 1616 4750 1894 4750 
Q 2613 4750 3031 4423 
Q 3450 4097 3450 3541 
Q 3450 3153 3228 2886 
Q 3006 2619 2597 2516 
z
" transform="scale(0.015625)"/>
       <path id="DejaVuSans-29" d="M 513 4856 
L 1013 4856 
Q 1481 4119 1714 3412 
Q 1947 2706 1947 2009 
Q 1947 1309 1714 600 
Q 1481 -109 1013 -844 
L 513 -844 
Q 928 -128 1133 580 
Q 1338 1288 1338 2009 
Q 1338 2731 1133 3434 
Q 928 4138 513 4856 
z
" transform="scale(0.015625)"/>
      </defs>
      <use xlink:href="#DejaVuSans-42"/>
      <use xlink:href="#DejaVuSans-69" x="68.603516"/>
      <use xlink:href="#DejaVuSans-6e" x="96.386719"/>
      <use xlink:href="#DejaVuSans-28" x="159.765625"/>
      <use xlink:href="#DejaVuSans-32" x="198.779297"/>
      <use xlink:href="#DejaVuSans-30" x="262.402344"/>
      <use xlink:href="#DejaVuSans-2c" x="326.025391"/>
      <use xlink:href="#DejaVuSans-20" x="357.8125"/>
      <use xlink:href="#DejaVuSans-30" x="389.599609"/>
      <use xlink:href="#DejaVuSans-2e" x="453.222656"/>
      <use xlink:href="#DejaVuSans-33" x="485.009766"/>
      <use xlink:href="#DejaVuSans-29" x="548.632812"/>
     </g>
    </g>
    <g id="line2d_24">
     <path d="M 436.539062 53.29625 
L 446.539062 53.29625 
L 456.539062 53.29625 
" style="fill: none; stroke-dasharray: 7.4,3.2; stroke-dashoffset: 0; stroke: #0000ff; stroke-width: 2"/>
    </g>
    <g id="text_14">
     <!-- $\mathcal{N}(\mu, \frac{\sigma^2}{n})$ -->
     <g transform="translate(464.539062 56.79625) scale(0.1 -0.1)">
      <defs>
       <path id="STIXNonUnicode-Italic-e23a" d="M 4294 800 
L 4301 800 
Q 5293 4070 5408 4378 
Q 5472 4538 5523 4614 
Q 5830 5088 6253 5088 
Q 6490 5088 6650 4931 
Q 6810 4774 6810 4550 
Q 6810 4378 6720 4272 
Q 6630 4166 6470 4166 
Q 6368 4166 6297 4224 
Q 6227 4282 6198 4349 
Q 6170 4416 6118 4473 
Q 6067 4531 6003 4531 
Q 5939 4531 5881 4508 
Q 5824 4486 5785 4457 
Q 5747 4429 5705 4371 
Q 5664 4314 5638 4275 
Q 5613 4237 5584 4163 
Q 5555 4090 5545 4058 
Q 5536 4026 5510 3952 
Q 5485 3878 5485 3866 
L 4262 -154 
L 4134 -154 
Q 3078 1280 2483 2893 
L 2470 2893 
Q 2406 2579 2358 2361 
Q 2310 2144 2214 1792 
Q 2118 1440 2028 1190 
Q 1939 941 1804 653 
Q 1670 365 1529 185 
Q 1389 6 1203 -115 
Q 1018 -237 813 -237 
Q 576 -237 416 -80 
Q 256 77 256 301 
Q 256 474 345 579 
Q 435 685 595 685 
Q 698 685 768 627 
Q 838 570 867 502 
Q 896 435 947 377 
Q 998 320 1062 320 
Q 1222 320 1369 480 
Q 1517 640 1638 928 
Q 1760 1216 1862 1542 
Q 1965 1869 2057 2288 
Q 2150 2707 2214 3033 
Q 2278 3360 2348 3741 
Q 2419 4122 2458 4294 
L 2630 4294 
Q 2682 4166 2874 3680 
Q 3066 3194 3142 3008 
Q 3219 2822 3392 2422 
Q 3565 2022 3683 1798 
Q 3802 1574 3968 1292 
Q 4134 1011 4294 800 
z
" transform="scale(0.015625)"/>
       <path id="DejaVuSans-Oblique-3bc" d="M -84 -1331 
L 856 3500 
L 1434 3500 
L 1009 1322 
Q 997 1256 987 1175 
Q 978 1094 978 1013 
Q 978 722 1161 565 
Q 1344 409 1684 409 
Q 2147 409 2431 671 
Q 2716 934 2816 1459 
L 3213 3500 
L 3788 3500 
L 3266 809 
Q 3253 750 3248 706 
Q 3244 663 3244 628 
Q 3244 531 3283 486 
Q 3322 441 3406 441 
Q 3438 441 3492 456 
Q 3547 472 3647 513 
L 3559 50 
Q 3422 -19 3297 -55 
Q 3172 -91 3053 -91 
Q 2847 -91 2730 40 
Q 2613 172 2613 403 
Q 2438 153 2195 31 
Q 1953 -91 1625 -91 
Q 1334 -91 1117 43 
Q 900 178 831 397 
L 494 -1331 
L -84 -1331 
z
" transform="scale(0.015625)"/>
       <path id="DejaVuSans-Oblique-3c3" d="M 2219 3044 
Q 1744 3044 1422 2700 
Q 1081 2341 969 1747 
Q 844 1119 1044 756 
Q 1241 397 1706 397 
Q 2166 397 2503 759 
Q 2844 1122 2966 1747 
Q 3075 2319 2881 2700 
Q 2700 3044 2219 3044 
z
M 2309 3503 
L 4219 3500 
L 4106 2925 
L 3463 2925 
Q 3706 2438 3575 1747 
Q 3406 888 2884 400 
Q 2359 -91 1609 -91 
Q 856 -91 525 400 
Q 194 888 363 1747 
Q 528 2609 1050 3097 
Q 1484 3503 2309 3503 
z
" transform="scale(0.015625)"/>
      </defs>
      <use xlink:href="#STIXNonUnicode-Italic-e23a" transform="translate(0 0.04375)"/>
      <use xlink:href="#DejaVuSans-28" transform="translate(95.699982 0.04375)"/>
      <use xlink:href="#DejaVuSans-Oblique-3bc" transform="translate(134.713654 0.04375)"/>
      <use xlink:href="#DejaVuSans-2c" transform="translate(198.3367 0.04375)"/>
      <use xlink:href="#DejaVuSans-Oblique-3c3" transform="translate(249.606232 44.835938) scale(0.7)"/>
      <use xlink:href="#DejaVuSans-32" transform="translate(297.102362 71.632812) scale(0.49)"/>
      <use xlink:href="#DejaVuSans-Oblique-6e" transform="translate(267.606232 -26.609375) scale(0.7)"/>
      <use xlink:href="#DejaVuSans-29" transform="translate(342.691717 0.04375)"/>
      <path d="M 249.606232 18.840625 
L 249.606232 25.090625 
L 330.191717 25.090625 
L 330.191717 18.840625 
L 249.606232 18.840625 
z
"/>
     </g>
    </g>
    <g id="patch_249">
     <path d="M 436.539062 72.094688 
L 456.539062 72.094688 
L 456.539062 65.094688 
L 436.539062 65.094688 
z
" style="fill: #ffa500"/>
    </g>
    <g id="text_15">
     <!-- Pois(10) -->
     <g transform="translate(464.539062 72.094688) scale(0.1 -0.1)">
      <defs>
       <path id="DejaVuSans-50" d="M 1259 4147 
L 1259 2394 
L 2053 2394 
Q 2494 2394 2734 2622 
Q 2975 2850 2975 3272 
Q 2975 3691 2734 3919 
Q 2494 4147 2053 4147 
L 1259 4147 
z
M 628 4666 
L 2053 4666 
Q 2838 4666 3239 4311 
Q 3641 3956 3641 3272 
Q 3641 2581 3239 2228 
Q 2838 1875 2053 1875 
L 1259 1875 
L 1259 0 
L 628 0 
L 628 4666 
z
" transform="scale(0.015625)"/>
       <path id="DejaVuSans-73" d="M 2834 3397 
L 2834 2853 
Q 2591 2978 2328 3040 
Q 2066 3103 1784 3103 
Q 1356 3103 1142 2972 
Q 928 2841 928 2578 
Q 928 2378 1081 2264 
Q 1234 2150 1697 2047 
L 1894 2003 
Q 2506 1872 2764 1633 
Q 3022 1394 3022 966 
Q 3022 478 2636 193 
Q 2250 -91 1575 -91 
Q 1294 -91 989 -36 
Q 684 19 347 128 
L 347 722 
Q 666 556 975 473 
Q 1284 391 1588 391 
Q 1994 391 2212 530 
Q 2431 669 2431 922 
Q 2431 1156 2273 1281 
Q 2116 1406 1581 1522 
L 1381 1569 
Q 847 1681 609 1914 
Q 372 2147 372 2553 
Q 372 3047 722 3315 
Q 1072 3584 1716 3584 
Q 2034 3584 2315 3537 
Q 2597 3491 2834 3397 
z
" transform="scale(0.015625)"/>
      </defs>
      <use xlink:href="#DejaVuSans-50"/>
      <use xlink:href="#DejaVuSans-6f" x="56.677734"/>
      <use xlink:href="#DejaVuSans-69" x="117.859375"/>
      <use xlink:href="#DejaVuSans-73" x="145.642578"/>
      <use xlink:href="#DejaVuSans-28" x="197.742188"/>
      <use xlink:href="#DejaVuSans-31" x="236.755859"/>
      <use xlink:href="#DejaVuSans-30" x="300.378906"/>
      <use xlink:href="#DejaVuSans-29" x="364.001953"/>
     </g>
    </g>
    <g id="patch_250">
     <path d="M 436.539062 86.772813 
L 456.539062 86.772813 
L 456.539062 79.772813 
L 436.539062 79.772813 
z
" style="fill: #bf00bf"/>
    </g>
    <g id="text_16">
     <!-- Geom(0.4) -->
     <g transform="translate(464.539062 86.772813) scale(0.1 -0.1)">
      <defs>
       <path id="DejaVuSans-47" d="M 3809 666 
L 3809 1919 
L 2778 1919 
L 2778 2438 
L 4434 2438 
L 4434 434 
Q 4069 175 3628 42 
Q 3188 -91 2688 -91 
Q 1594 -91 976 548 
Q 359 1188 359 2328 
Q 359 3472 976 4111 
Q 1594 4750 2688 4750 
Q 3144 4750 3555 4637 
Q 3966 4525 4313 4306 
L 4313 3634 
Q 3963 3931 3569 4081 
Q 3175 4231 2741 4231 
Q 1884 4231 1454 3753 
Q 1025 3275 1025 2328 
Q 1025 1384 1454 906 
Q 1884 428 2741 428 
Q 3075 428 3337 486 
Q 3600 544 3809 666 
z
" transform="scale(0.015625)"/>
      </defs>
      <use xlink:href="#DejaVuSans-47"/>
      <use xlink:href="#DejaVuSans-65" x="77.490234"/>
      <use xlink:href="#DejaVuSans-6f" x="139.013672"/>
      <use xlink:href="#DejaVuSans-6d" x="200.195312"/>
      <use xlink:href="#DejaVuSans-28" x="297.607422"/>
      <use xlink:href="#DejaVuSans-30" x="336.621094"/>
      <use xlink:href="#DejaVuSans-2e" x="400.244141"/>
      <use xlink:href="#DejaVuSans-34" x="432.03125"/>
      <use xlink:href="#DejaVuSans-29" x="495.654297"/>
     </g>
    </g>
   </g>
  </g>
 </g>
 <defs>
  <clipPath id="p16bc508a42">
   <rect x="30.103125" y="22.318125" width="502.2" height="277.2"/>
  </clipPath>
 </defs>
</svg>