<?xml version="1.0" encoding="utf-8" standalone="no"?>
<!DOCTYPE svg PUBLIC "-//W3C//DTD SVG 1.1//EN"
  "http://www.w3.org/Graphics/SVG/1.1/DTD/svg11.dtd">
<svg xmlns:xlink="http://www.w3.org/1999/xlink" width="394.423125pt" height="297.190125pt" viewBox="0 0 394.423125 297.190125" xmlns="http://www.w3.org/2000/svg" version="1.1">
 <metadata>
  <rdf:RDF xmlns:dc="http://purl.org/dc/elements/1.1/" xmlns:cc="http://creativecommons.org/ns#" xmlns:rdf="http://www.w3.org/1999/02/22-rdf-syntax-ns#">
   <cc:Work>
    <dc:type rdf:resource="http://purl.org/dc/dcmitype/StillImage"/>
    <dc:date>2024-02-14T11:11:22.033036</dc:date>
    <dc:format>image/svg+xml</dc:format>
    <dc:creator>
     <cc:Agent>
      <dc:title>Matplotlib v3.7.1, https://matplotlib.org/</dc:title>
     </cc:Agent>
    </dc:creator>
   </cc:Work>
  </rdf:RDF>
 </metadata>
 <defs>
  <style type="text/css">*{stroke-linejoin: round; stroke-linecap: butt}</style>
 </defs>
 <g id="figure_1">
  <g id="patch_1">
   <path d="M 0 297.190125 
L 394.423125 297.190125 
L 394.423125 0 
L 0 0 
z
" style="fill: #ffffff"/>
  </g>
  <g id="axes_1">
   <g id="patch_2">
    <path d="M 30.103125 273.312 
L 387.223125 273.312 
L 387.223125 7.2 
L 30.103125 7.2 
z
" style="fill: #ffffff"/>
   </g>
   <g id="patch_3">
    <path d="M 51.528263 273.312 
L 54.614225 273.312 
L 54.614225 263.646915 
L 51.528263 263.646915 
z
" clip-path="url(#p771d5fa7b5)" style="fill: #0000ff"/>
   </g>
   <g id="patch_4">
    <path d="M 54.614225 273.312 
L 57.700188 273.312 
L 57.700188 258.277424 
L 54.614225 258.277424 
z
" clip-path="url(#p771d5fa7b5)" style="fill: #0000ff"/>
   </g>
   <g id="patch_5">
    <path d="M 57.700188 273.312 
L 60.78615 273.312 
L 60.78615 258.277424 
L 57.700188 258.277424 
z
" clip-path="url(#p771d5fa7b5)" style="fill: #0000ff"/>
   </g>
   <g id="patch_6">
    <path d="M 60.78615 273.312 
L 63.872113 273.312 
L 63.872113 247.538441 
L 60.78615 247.538441 
z
" clip-path="url(#p771d5fa7b5)" style="fill: #0000ff"/>
   </g>
   <g id="patch_7">
    <path d="M 63.872113 273.312 
L 66.958075 273.312 
L 66.958075 245.390644 
L 63.872113 245.390644 
z
" clip-path="url(#p771d5fa7b5)" style="fill: #0000ff"/>
   </g>
   <g id="patch_8">
    <path d="M 66.958075 273.312 
L 70.044037 273.312 
L 70.044037 232.503864 
L 66.958075 232.503864 
z
" clip-path="url(#p771d5fa7b5)" style="fill: #0000ff"/>
   </g>
   <g id="patch_9">
    <path d="M 70.044037 273.312 
L 73.13 273.312 
L 73.13 227.134373 
L 70.044037 227.134373 
z
" clip-path="url(#p771d5fa7b5)" style="fill: #0000ff"/>
   </g>
   <g id="patch_10">
    <path d="M 73.13 273.312 
L 76.215962 273.312 
L 76.215962 206.730305 
L 73.13 206.730305 
z
" clip-path="url(#p771d5fa7b5)" style="fill: #0000ff"/>
   </g>
   <g id="patch_11">
    <path d="M 76.215962 273.312 
L 79.301925 273.312 
L 79.301925 216.39539 
L 76.215962 216.39539 
z
" clip-path="url(#p771d5fa7b5)" style="fill: #0000ff"/>
   </g>
   <g id="patch_12">
    <path d="M 79.301925 273.312 
L 82.387887 273.312 
L 82.387887 198.139119 
L 79.301925 198.139119 
z
" clip-path="url(#p771d5fa7b5)" style="fill: #0000ff"/>
   </g>
   <g id="patch_13">
    <path d="M 82.387887 273.312 
L 85.47385 273.312 
L 85.47385 197.06522 
L 82.387887 197.06522 
z
" clip-path="url(#p771d5fa7b5)" style="fill: #0000ff"/>
   </g>
   <g id="patch_14">
    <path d="M 85.47385 273.312 
L 88.559812 273.312 
L 88.559812 164.848271 
L 85.47385 164.848271 
z
" clip-path="url(#p771d5fa7b5)" style="fill: #0000ff"/>
   </g>
   <g id="patch_15">
    <path d="M 88.559812 273.312 
L 91.645774 273.312 
L 91.645774 177.735051 
L 88.559812 177.735051 
z
" clip-path="url(#p771d5fa7b5)" style="fill: #0000ff"/>
   </g>
   <g id="patch_16">
    <path d="M 91.645774 273.312 
L 94.731737 273.312 
L 94.731737 153.03539 
L 91.645774 153.03539 
z
" clip-path="url(#p771d5fa7b5)" style="fill: #0000ff"/>
   </g>
   <g id="patch_17">
    <path d="M 94.731737 273.312 
L 97.817699 273.312 
L 97.817699 140.14861 
L 94.731737 140.14861 
z
" clip-path="url(#p771d5fa7b5)" style="fill: #0000ff"/>
   </g>
   <g id="patch_18">
    <path d="M 97.817699 273.312 
L 100.903662 273.312 
L 100.903662 136.926915 
L 97.817699 136.926915 
z
" clip-path="url(#p771d5fa7b5)" style="fill: #0000ff"/>
   </g>
   <g id="patch_19">
    <path d="M 100.903662 273.312 
L 103.989624 273.312 
L 103.989624 117.596746 
L 100.903662 117.596746 
z
" clip-path="url(#p771d5fa7b5)" style="fill: #0000ff"/>
   </g>
   <g id="patch_20">
    <path d="M 103.989624 273.312 
L 107.075587 273.312 
L 107.075587 122.966237 
L 103.989624 122.966237 
z
" clip-path="url(#p771d5fa7b5)" style="fill: #0000ff"/>
   </g>
   <g id="patch_21">
    <path d="M 107.075587 273.312 
L 110.161549 273.312 
L 110.161549 114.375051 
L 107.075587 114.375051 
z
" clip-path="url(#p771d5fa7b5)" style="fill: #0000ff"/>
   </g>
   <g id="patch_22">
    <path d="M 110.161549 273.312 
L 113.247511 273.312 
L 113.247511 86.453695 
L 110.161549 86.453695 
z
" clip-path="url(#p771d5fa7b5)" style="fill: #0000ff"/>
   </g>
   <g id="patch_23">
    <path d="M 113.247511 273.312 
L 116.333474 273.312 
L 116.333474 81.084203 
L 113.247511 81.084203 
z
" clip-path="url(#p771d5fa7b5)" style="fill: #0000ff"/>
   </g>
   <g id="patch_24">
    <path d="M 116.333474 273.312 
L 119.419436 273.312 
L 119.419436 62.827932 
L 116.333474 62.827932 
z
" clip-path="url(#p771d5fa7b5)" style="fill: #0000ff"/>
   </g>
   <g id="patch_25">
    <path d="M 119.419436 273.312 
L 122.505399 273.312 
L 122.505399 80.010305 
L 119.419436 80.010305 
z
" clip-path="url(#p771d5fa7b5)" style="fill: #0000ff"/>
   </g>
   <g id="patch_26">
    <path d="M 122.505399 273.312 
L 125.591361 273.312 
L 125.591361 98.266576 
L 122.505399 98.266576 
z
" clip-path="url(#p771d5fa7b5)" style="fill: #0000ff"/>
   </g>
   <g id="patch_27">
    <path d="M 125.591361 273.312 
L 128.677324 273.312 
L 128.677324 49.941153 
L 125.591361 49.941153 
z
" clip-path="url(#p771d5fa7b5)" style="fill: #0000ff"/>
   </g>
   <g id="patch_28">
    <path d="M 128.677324 273.312 
L 131.763286 273.312 
L 131.763286 32.75878 
L 128.677324 32.75878 
z
" clip-path="url(#p771d5fa7b5)" style="fill: #0000ff"/>
   </g>
   <g id="patch_29">
    <path d="M 131.763286 273.312 
L 134.849248 273.312 
L 134.849248 69.271322 
L 131.763286 69.271322 
z
" clip-path="url(#p771d5fa7b5)" style="fill: #0000ff"/>
   </g>
   <g id="patch_30">
    <path d="M 134.849248 273.312 
L 137.935211 273.312 
L 137.935211 84.305898 
L 134.849248 84.305898 
z
" clip-path="url(#p771d5fa7b5)" style="fill: #0000ff"/>
   </g>
   <g id="patch_31">
    <path d="M 137.935211 273.312 
L 141.021173 273.312 
L 141.021173 53.162847 
L 137.935211 53.162847 
z
" clip-path="url(#p771d5fa7b5)" style="fill: #0000ff"/>
   </g>
   <g id="patch_32">
    <path d="M 141.021173 273.312 
L 144.107136 273.312 
L 144.107136 47.793356 
L 141.021173 47.793356 
z
" clip-path="url(#p771d5fa7b5)" style="fill: #0000ff"/>
   </g>
   <g id="patch_33">
    <path d="M 144.107136 273.312 
L 147.193098 273.312 
L 147.193098 40.276068 
L 144.107136 40.276068 
z
" clip-path="url(#p771d5fa7b5)" style="fill: #0000ff"/>
   </g>
   <g id="patch_34">
    <path d="M 147.193098 273.312 
L 150.279061 273.312 
L 150.279061 53.162847 
L 147.193098 53.162847 
z
" clip-path="url(#p771d5fa7b5)" style="fill: #0000ff"/>
   </g>
   <g id="patch_35">
    <path d="M 150.279061 273.312 
L 153.365023 273.312 
L 153.365023 53.162847 
L 150.279061 53.162847 
z
" clip-path="url(#p771d5fa7b5)" style="fill: #0000ff"/>
   </g>
   <g id="patch_36">
    <path d="M 153.365023 273.312 
L 156.450985 273.312 
L 156.450985 37.054373 
L 153.365023 37.054373 
z
" clip-path="url(#p771d5fa7b5)" style="fill: #0000ff"/>
   </g>
   <g id="patch_37">
    <path d="M 156.450985 273.312 
L 159.536948 273.312 
L 159.536948 31.684881 
L 156.450985 31.684881 
z
" clip-path="url(#p771d5fa7b5)" style="fill: #0000ff"/>
   </g>
   <g id="patch_38">
    <path d="M 159.536948 273.312 
L 162.62291 273.312 
L 162.62291 25.241492 
L 159.536948 25.241492 
z
" clip-path="url(#p771d5fa7b5)" style="fill: #0000ff"/>
   </g>
   <g id="patch_39">
    <path d="M 162.62291 273.312 
L 165.708873 273.312 
L 165.708873 38.128271 
L 162.62291 38.128271 
z
" clip-path="url(#p771d5fa7b5)" style="fill: #0000ff"/>
   </g>
   <g id="patch_40">
    <path d="M 165.708873 273.312 
L 168.794835 273.312 
L 168.794835 28.463186 
L 165.708873 28.463186 
z
" clip-path="url(#p771d5fa7b5)" style="fill: #0000ff"/>
   </g>
   <g id="patch_41">
    <path d="M 168.794835 273.312 
L 171.880798 273.312 
L 171.880798 46.719458 
L 168.794835 46.719458 
z
" clip-path="url(#p771d5fa7b5)" style="fill: #0000ff"/>
   </g>
   <g id="patch_42">
    <path d="M 171.880798 273.312 
L 174.96676 273.312 
L 174.96676 19.872 
L 171.880798 19.872 
z
" clip-path="url(#p771d5fa7b5)" style="fill: #0000ff"/>
   </g>
   <g id="patch_43">
    <path d="M 174.96676 273.312 
L 178.052722 273.312 
L 178.052722 48.867254 
L 174.96676 48.867254 
z
" clip-path="url(#p771d5fa7b5)" style="fill: #0000ff"/>
   </g>
   <g id="patch_44">
    <path d="M 178.052722 273.312 
L 181.138685 273.312 
L 181.138685 57.458441 
L 178.052722 57.458441 
z
" clip-path="url(#p771d5fa7b5)" style="fill: #0000ff"/>
   </g>
   <g id="patch_45">
    <path d="M 181.138685 273.312 
L 184.224647 273.312 
L 184.224647 43.497763 
L 181.138685 43.497763 
z
" clip-path="url(#p771d5fa7b5)" style="fill: #0000ff"/>
   </g>
   <g id="patch_46">
    <path d="M 184.224647 273.312 
L 187.31061 273.312 
L 187.31061 62.827932 
L 184.224647 62.827932 
z
" clip-path="url(#p771d5fa7b5)" style="fill: #0000ff"/>
   </g>
   <g id="patch_47">
    <path d="M 187.31061 273.312 
L 190.396572 273.312 
L 190.396572 55.310644 
L 187.31061 55.310644 
z
" clip-path="url(#p771d5fa7b5)" style="fill: #0000ff"/>
   </g>
   <g id="patch_48">
    <path d="M 190.396572 273.312 
L 193.482535 273.312 
L 193.482535 73.566915 
L 190.396572 73.566915 
z
" clip-path="url(#p771d5fa7b5)" style="fill: #0000ff"/>
   </g>
   <g id="patch_49">
    <path d="M 193.482535 273.312 
L 196.568497 273.312 
L 196.568497 78.936407 
L 193.482535 78.936407 
z
" clip-path="url(#p771d5fa7b5)" style="fill: #0000ff"/>
   </g>
   <g id="patch_50">
    <path d="M 196.568497 273.312 
L 199.654459 273.312 
L 199.654459 85.379797 
L 196.568497 85.379797 
z
" clip-path="url(#p771d5fa7b5)" style="fill: #0000ff"/>
   </g>
   <g id="patch_51">
    <path d="M 199.654459 273.312 
L 202.740422 273.312 
L 202.740422 85.379797 
L 199.654459 85.379797 
z
" clip-path="url(#p771d5fa7b5)" style="fill: #0000ff"/>
   </g>
   <g id="patch_52">
    <path d="M 202.740422 273.312 
L 205.826384 273.312 
L 205.826384 115.448949 
L 202.740422 115.448949 
z
" clip-path="url(#p771d5fa7b5)" style="fill: #0000ff"/>
   </g>
   <g id="patch_53">
    <path d="M 205.826384 273.312 
L 208.912347 273.312 
L 208.912347 80.010305 
L 205.826384 80.010305 
z
" clip-path="url(#p771d5fa7b5)" style="fill: #0000ff"/>
   </g>
   <g id="patch_54">
    <path d="M 208.912347 273.312 
L 211.998309 273.312 
L 211.998309 118.670644 
L 208.912347 118.670644 
z
" clip-path="url(#p771d5fa7b5)" style="fill: #0000ff"/>
   </g>
   <g id="patch_55">
    <path d="M 211.998309 273.312 
L 215.084272 273.312 
L 215.084272 119.744542 
L 211.998309 119.744542 
z
" clip-path="url(#p771d5fa7b5)" style="fill: #0000ff"/>
   </g>
   <g id="patch_56">
    <path d="M 215.084272 273.312 
L 218.170234 273.312 
L 218.170234 124.040136 
L 215.084272 124.040136 
z
" clip-path="url(#p771d5fa7b5)" style="fill: #0000ff"/>
   </g>
   <g id="patch_57">
    <path d="M 218.170234 273.312 
L 221.256196 273.312 
L 221.256196 135.853017 
L 218.170234 135.853017 
z
" clip-path="url(#p771d5fa7b5)" style="fill: #0000ff"/>
   </g>
   <g id="patch_58">
    <path d="M 221.256196 273.312 
L 224.342159 273.312 
L 224.342159 150.887593 
L 221.256196 150.887593 
z
" clip-path="url(#p771d5fa7b5)" style="fill: #0000ff"/>
   </g>
   <g id="patch_59">
    <path d="M 224.342159 273.312 
L 227.428121 273.312 
L 227.428121 139.074712 
L 224.342159 139.074712 
z
" clip-path="url(#p771d5fa7b5)" style="fill: #0000ff"/>
   </g>
   <g id="patch_60">
    <path d="M 227.428121 273.312 
L 230.514084 273.312 
L 230.514084 143.370305 
L 227.428121 143.370305 
z
" clip-path="url(#p771d5fa7b5)" style="fill: #0000ff"/>
   </g>
   <g id="patch_61">
    <path d="M 230.514084 273.312 
L 233.600046 273.312 
L 233.600046 153.03539 
L 230.514084 153.03539 
z
" clip-path="url(#p771d5fa7b5)" style="fill: #0000ff"/>
   </g>
   <g id="patch_62">
    <path d="M 233.600046 273.312 
L 236.686009 273.312 
L 236.686009 169.143864 
L 233.600046 169.143864 
z
" clip-path="url(#p771d5fa7b5)" style="fill: #0000ff"/>
   </g>
   <g id="patch_63">
    <path d="M 236.686009 273.312 
L 239.771971 273.312 
L 239.771971 177.735051 
L 236.686009 177.735051 
z
" clip-path="url(#p771d5fa7b5)" style="fill: #0000ff"/>
   </g>
   <g id="patch_64">
    <path d="M 239.771971 273.312 
L 242.857933 273.312 
L 242.857933 171.291661 
L 239.771971 171.291661 
z
" clip-path="url(#p771d5fa7b5)" style="fill: #0000ff"/>
   </g>
   <g id="patch_65">
    <path d="M 242.857933 273.312 
L 245.943896 273.312 
L 245.943896 169.143864 
L 242.857933 169.143864 
z
" clip-path="url(#p771d5fa7b5)" style="fill: #0000ff"/>
   </g>
   <g id="patch_66">
    <path d="M 245.943896 273.312 
L 249.029858 273.312 
L 249.029858 201.360814 
L 245.943896 201.360814 
z
" clip-path="url(#p771d5fa7b5)" style="fill: #0000ff"/>
   </g>
   <g id="patch_67">
    <path d="M 249.029858 273.312 
L 252.115821 273.312 
L 252.115821 201.360814 
L 249.029858 201.360814 
z
" clip-path="url(#p771d5fa7b5)" style="fill: #0000ff"/>
   </g>
   <g id="patch_68">
    <path d="M 252.115821 273.312 
L 255.201783 273.312 
L 255.201783 194.917424 
L 252.115821 194.917424 
z
" clip-path="url(#p771d5fa7b5)" style="fill: #0000ff"/>
   </g>
   <g id="patch_69">
    <path d="M 255.201783 273.312 
L 258.287746 273.312 
L 258.287746 192.769627 
L 255.201783 192.769627 
z
" clip-path="url(#p771d5fa7b5)" style="fill: #0000ff"/>
   </g>
   <g id="patch_70">
    <path d="M 258.287746 273.312 
L 261.373708 273.312 
L 261.373708 204.582508 
L 258.287746 204.582508 
z
" clip-path="url(#p771d5fa7b5)" style="fill: #0000ff"/>
   </g>
   <g id="patch_71">
    <path d="M 261.373708 273.312 
L 264.45967 273.312 
L 264.45967 216.39539 
L 261.373708 216.39539 
z
" clip-path="url(#p771d5fa7b5)" style="fill: #0000ff"/>
   </g>
   <g id="patch_72">
    <path d="M 264.45967 273.312 
L 267.545633 273.312 
L 267.545633 217.469288 
L 264.45967 217.469288 
z
" clip-path="url(#p771d5fa7b5)" style="fill: #0000ff"/>
   </g>
   <g id="patch_73">
    <path d="M 267.545633 273.312 
L 270.631595 273.312 
L 270.631595 221.764881 
L 267.545633 221.764881 
z
" clip-path="url(#p771d5fa7b5)" style="fill: #0000ff"/>
   </g>
   <g id="patch_74">
    <path d="M 270.631595 273.312 
L 273.717558 273.312 
L 273.717558 234.651661 
L 270.631595 234.651661 
z
" clip-path="url(#p771d5fa7b5)" style="fill: #0000ff"/>
   </g>
   <g id="patch_75">
    <path d="M 273.717558 273.312 
L 276.80352 273.312 
L 276.80352 229.282169 
L 273.717558 229.282169 
z
" clip-path="url(#p771d5fa7b5)" style="fill: #0000ff"/>
   </g>
   <g id="patch_76">
    <path d="M 276.80352 273.312 
L 279.889483 273.312 
L 279.889483 230.356068 
L 276.80352 230.356068 
z
" clip-path="url(#p771d5fa7b5)" style="fill: #0000ff"/>
   </g>
   <g id="patch_77">
    <path d="M 279.889483 273.312 
L 282.975445 273.312 
L 282.975445 245.390644 
L 279.889483 245.390644 
z
" clip-path="url(#p771d5fa7b5)" style="fill: #0000ff"/>
   </g>
   <g id="patch_78">
    <path d="M 282.975445 273.312 
L 286.061407 273.312 
L 286.061407 248.612339 
L 282.975445 248.612339 
z
" clip-path="url(#p771d5fa7b5)" style="fill: #0000ff"/>
   </g>
   <g id="patch_79">
    <path d="M 286.061407 273.312 
L 289.14737 273.312 
L 289.14737 247.538441 
L 286.061407 247.538441 
z
" clip-path="url(#p771d5fa7b5)" style="fill: #0000ff"/>
   </g>
   <g id="patch_80">
    <path d="M 289.14737 273.312 
L 292.233332 273.312 
L 292.233332 250.760136 
L 289.14737 250.760136 
z
" clip-path="url(#p771d5fa7b5)" style="fill: #0000ff"/>
   </g>
   <g id="patch_81">
    <path d="M 292.233332 273.312 
L 295.319295 273.312 
L 295.319295 249.686237 
L 292.233332 249.686237 
z
" clip-path="url(#p771d5fa7b5)" style="fill: #0000ff"/>
   </g>
   <g id="patch_82">
    <path d="M 295.319295 273.312 
L 298.405257 273.312 
L 298.405257 256.129627 
L 295.319295 256.129627 
z
" clip-path="url(#p771d5fa7b5)" style="fill: #0000ff"/>
   </g>
   <g id="patch_83">
    <path d="M 298.405257 273.312 
L 301.49122 273.312 
L 301.49122 265.794712 
L 298.405257 265.794712 
z
" clip-path="url(#p771d5fa7b5)" style="fill: #0000ff"/>
   </g>
   <g id="patch_84">
    <path d="M 301.49122 273.312 
L 304.577182 273.312 
L 304.577182 255.055729 
L 301.49122 255.055729 
z
" clip-path="url(#p771d5fa7b5)" style="fill: #0000ff"/>
   </g>
   <g id="patch_85">
    <path d="M 304.577182 273.312 
L 307.663144 273.312 
L 307.663144 263.646915 
L 304.577182 263.646915 
z
" clip-path="url(#p771d5fa7b5)" style="fill: #0000ff"/>
   </g>
   <g id="patch_86">
    <path d="M 307.663144 273.312 
L 310.749107 273.312 
L 310.749107 265.794712 
L 307.663144 265.794712 
z
" clip-path="url(#p771d5fa7b5)" style="fill: #0000ff"/>
   </g>
   <g id="patch_87">
    <path d="M 310.749107 273.312 
L 313.835069 273.312 
L 313.835069 264.720814 
L 310.749107 264.720814 
z
" clip-path="url(#p771d5fa7b5)" style="fill: #0000ff"/>
   </g>
   <g id="patch_88">
    <path d="M 313.835069 273.312 
L 316.921032 273.312 
L 316.921032 266.86861 
L 313.835069 266.86861 
z
" clip-path="url(#p771d5fa7b5)" style="fill: #0000ff"/>
   </g>
   <g id="patch_89">
    <path d="M 316.921032 273.312 
L 320.006994 273.312 
L 320.006994 271.164203 
L 316.921032 271.164203 
z
" clip-path="url(#p771d5fa7b5)" style="fill: #0000ff"/>
   </g>
   <g id="patch_90">
    <path d="M 320.006994 273.312 
L 323.092957 273.312 
L 323.092957 270.090305 
L 320.006994 270.090305 
z
" clip-path="url(#p771d5fa7b5)" style="fill: #0000ff"/>
   </g>
   <g id="patch_91">
    <path d="M 323.092957 273.312 
L 326.178919 273.312 
L 326.178919 267.942508 
L 323.092957 267.942508 
z
" clip-path="url(#p771d5fa7b5)" style="fill: #0000ff"/>
   </g>
   <g id="patch_92">
    <path d="M 326.178919 273.312 
L 329.264881 273.312 
L 329.264881 271.164203 
L 326.178919 271.164203 
z
" clip-path="url(#p771d5fa7b5)" style="fill: #0000ff"/>
   </g>
   <g id="patch_93">
    <path d="M 329.264881 273.312 
L 332.350844 273.312 
L 332.350844 273.312 
L 329.264881 273.312 
z
" clip-path="url(#p771d5fa7b5)" style="fill: #0000ff"/>
   </g>
   <g id="patch_94">
    <path d="M 332.350844 273.312 
L 335.436806 273.312 
L 335.436806 273.312 
L 332.350844 273.312 
z
" clip-path="url(#p771d5fa7b5)" style="fill: #0000ff"/>
   </g>
   <g id="patch_95">
    <path d="M 335.436806 273.312 
L 338.522769 273.312 
L 338.522769 273.312 
L 335.436806 273.312 
z
" clip-path="url(#p771d5fa7b5)" style="fill: #0000ff"/>
   </g>
   <g id="patch_96">
    <path d="M 338.522769 273.312 
L 341.608731 273.312 
L 341.608731 273.312 
L 338.522769 273.312 
z
" clip-path="url(#p771d5fa7b5)" style="fill: #0000ff"/>
   </g>
   <g id="patch_97">
    <path d="M 341.608731 273.312 
L 344.694694 273.312 
L 344.694694 272.238102 
L 341.608731 272.238102 
z
" clip-path="url(#p771d5fa7b5)" style="fill: #0000ff"/>
   </g>
   <g id="patch_98">
    <path d="M 344.694694 273.312 
L 347.780656 273.312 
L 347.780656 272.238102 
L 344.694694 272.238102 
z
" clip-path="url(#p771d5fa7b5)" style="fill: #0000ff"/>
   </g>
   <g id="patch_99">
    <path d="M 347.780656 273.312 
L 350.866618 273.312 
L 350.866618 273.312 
L 347.780656 273.312 
z
" clip-path="url(#p771d5fa7b5)" style="fill: #0000ff"/>
   </g>
   <g id="patch_100">
    <path d="M 350.866618 273.312 
L 353.952581 273.312 
L 353.952581 273.312 
L 350.866618 273.312 
z
" clip-path="url(#p771d5fa7b5)" style="fill: #0000ff"/>
   </g>
   <g id="patch_101">
    <path d="M 353.952581 273.312 
L 357.038543 273.312 
L 357.038543 273.312 
L 353.952581 273.312 
z
" clip-path="url(#p771d5fa7b5)" style="fill: #0000ff"/>
   </g>
   <g id="patch_102">
    <path d="M 357.038543 273.312 
L 360.124506 273.312 
L 360.124506 272.238102 
L 357.038543 272.238102 
z
" clip-path="url(#p771d5fa7b5)" style="fill: #0000ff"/>
   </g>
   <g id="matplotlib.axis_1">
    <g id="xtick_1">
     <g id="line2d_1">
      <path d="M 46.010547 273.312 
L 46.010547 7.2 
" clip-path="url(#p771d5fa7b5)" style="fill: none; stroke-dasharray: 0.8,1.32; stroke-dashoffset: 0; stroke: #b0b0b0; stroke-width: 0.8"/>
     </g>
     <g id="line2d_2">
      <defs>
       <path id="mcc3bae0b26" d="M 0 0 
L 0 3.5 
" style="stroke: #000000; stroke-width: 0.8"/>
      </defs>
      <g>
       <use xlink:href="#mcc3bae0b26" x="46.010547" y="273.312" style="stroke: #000000; stroke-width: 0.8"/>
      </g>
     </g>
     <g id="text_1">
      <!-- 0.0 -->
      <g transform="translate(38.058985 287.910437) scale(0.1 -0.1)">
       <defs>
        <path id="DejaVuSans-30" d="M 2034 4250 
Q 1547 4250 1301 3770 
Q 1056 3291 1056 2328 
Q 1056 1369 1301 889 
Q 1547 409 2034 409 
Q 2525 409 2770 889 
Q 3016 1369 3016 2328 
Q 3016 3291 2770 3770 
Q 2525 4250 2034 4250 
z
M 2034 4750 
Q 2819 4750 3233 4129 
Q 3647 3509 3647 2328 
Q 3647 1150 3233 529 
Q 2819 -91 2034 -91 
Q 1250 -91 836 529 
Q 422 1150 422 2328 
Q 422 3509 836 4129 
Q 1250 4750 2034 4750 
z
" transform="scale(0.015625)"/>
        <path id="DejaVuSans-2e" d="M 684 794 
L 1344 794 
L 1344 0 
L 684 0 
L 684 794 
z
" transform="scale(0.015625)"/>
       </defs>
       <use xlink:href="#DejaVuSans-30"/>
       <use xlink:href="#DejaVuSans-2e" x="63.623047"/>
       <use xlink:href="#DejaVuSans-30" x="95.410156"/>
      </g>
     </g>
    </g>
    <g id="xtick_2">
     <g id="line2d_3">
      <path d="M 111.071578 273.312 
L 111.071578 7.2 
" clip-path="url(#p771d5fa7b5)" style="fill: none; stroke-dasharray: 0.8,1.32; stroke-dashoffset: 0; stroke: #b0b0b0; stroke-width: 0.8"/>
     </g>
     <g id="line2d_4">
      <g>
       <use xlink:href="#mcc3bae0b26" x="111.071578" y="273.312" style="stroke: #000000; stroke-width: 0.8"/>
      </g>
     </g>
     <g id="text_2">
      <!-- 0.2 -->
      <g transform="translate(103.120016 287.910437) scale(0.1 -0.1)">
       <defs>
        <path id="DejaVuSans-32" d="M 1228 531 
L 3431 531 
L 3431 0 
L 469 0 
L 469 531 
Q 828 903 1448 1529 
Q 2069 2156 2228 2338 
Q 2531 2678 2651 2914 
Q 2772 3150 2772 3378 
Q 2772 3750 2511 3984 
Q 2250 4219 1831 4219 
Q 1534 4219 1204 4116 
Q 875 4013 500 3803 
L 500 4441 
Q 881 4594 1212 4672 
Q 1544 4750 1819 4750 
Q 2544 4750 2975 4387 
Q 3406 4025 3406 3419 
Q 3406 3131 3298 2873 
Q 3191 2616 2906 2266 
Q 2828 2175 2409 1742 
Q 1991 1309 1228 531 
z
" transform="scale(0.015625)"/>
       </defs>
       <use xlink:href="#DejaVuSans-30"/>
       <use xlink:href="#DejaVuSans-2e" x="63.623047"/>
       <use xlink:href="#DejaVuSans-32" x="95.410156"/>
      </g>
     </g>
    </g>
    <g id="xtick_3">
     <g id="line2d_5">
      <path d="M 176.132609 273.312 
L 176.132609 7.2 
" clip-path="url(#p771d5fa7b5)" style="fill: none; stroke-dasharray: 0.8,1.32; stroke-dashoffset: 0; stroke: #b0b0b0; stroke-width: 0.8"/>
     </g>
     <g id="line2d_6">
      <g>
       <use xlink:href="#mcc3bae0b26" x="176.132609" y="273.312" style="stroke: #000000; stroke-width: 0.8"/>
      </g>
     </g>
     <g id="text_3">
      <!-- 0.4 -->
      <g transform="translate(168.181047 287.910437) scale(0.1 -0.1)">
       <defs>
        <path id="DejaVuSans-34" d="M 2419 4116 
L 825 1625 
L 2419 1625 
L 2419 4116 
z
M 2253 4666 
L 3047 4666 
L 3047 1625 
L 3713 1625 
L 3713 1100 
L 3047 1100 
L 3047 0 
L 2419 0 
L 2419 1100 
L 313 1100 
L 313 1709 
L 2253 4666 
z
" transform="scale(0.015625)"/>
       </defs>
       <use xlink:href="#DejaVuSans-30"/>
       <use xlink:href="#DejaVuSans-2e" x="63.623047"/>
       <use xlink:href="#DejaVuSans-34" x="95.410156"/>
      </g>
     </g>
    </g>
    <g id="xtick_4">
     <g id="line2d_7">
      <path d="M 241.193641 273.312 
L 241.193641 7.2 
" clip-path="url(#p771d5fa7b5)" style="fill: none; stroke-dasharray: 0.8,1.32; stroke-dashoffset: 0; stroke: #b0b0b0; stroke-width: 0.8"/>
     </g>
     <g id="line2d_8">
      <g>
       <use xlink:href="#mcc3bae0b26" x="241.193641" y="273.312" style="stroke: #000000; stroke-width: 0.8"/>
      </g>
     </g>
     <g id="text_4">
      <!-- 0.6 -->
      <g transform="translate(233.242078 287.910437) scale(0.1 -0.1)">
       <defs>
        <path id="DejaVuSans-36" d="M 2113 2584 
Q 1688 2584 1439 2293 
Q 1191 2003 1191 1497 
Q 1191 994 1439 701 
Q 1688 409 2113 409 
Q 2538 409 2786 701 
Q 3034 994 3034 1497 
Q 3034 2003 2786 2293 
Q 2538 2584 2113 2584 
z
M 3366 4563 
L 3366 3988 
Q 3128 4100 2886 4159 
Q 2644 4219 2406 4219 
Q 1781 4219 1451 3797 
Q 1122 3375 1075 2522 
Q 1259 2794 1537 2939 
Q 1816 3084 2150 3084 
Q 2853 3084 3261 2657 
Q 3669 2231 3669 1497 
Q 3669 778 3244 343 
Q 2819 -91 2113 -91 
Q 1303 -91 875 529 
Q 447 1150 447 2328 
Q 447 3434 972 4092 
Q 1497 4750 2381 4750 
Q 2619 4750 2861 4703 
Q 3103 4656 3366 4563 
z
" transform="scale(0.015625)"/>
       </defs>
       <use xlink:href="#DejaVuSans-30"/>
       <use xlink:href="#DejaVuSans-2e" x="63.623047"/>
       <use xlink:href="#DejaVuSans-36" x="95.410156"/>
      </g>
     </g>
    </g>
    <g id="xtick_5">
     <g id="line2d_9">
      <path d="M 306.254672 273.312 
L 306.254672 7.2 
" clip-path="url(#p771d5fa7b5)" style="fill: none; stroke-dasharray: 0.8,1.32; stroke-dashoffset: 0; stroke: #b0b0b0; stroke-width: 0.8"/>
     </g>
     <g id="line2d_10">
      <g>
       <use xlink:href="#mcc3bae0b26" x="306.254672" y="273.312" style="stroke: #000000; stroke-width: 0.8"/>
      </g>
     </g>
     <g id="text_5">
      <!-- 0.8 -->
      <g transform="translate(298.303109 287.910437) scale(0.1 -0.1)">
       <defs>
        <path id="DejaVuSans-38" d="M 2034 2216 
Q 1584 2216 1326 1975 
Q 1069 1734 1069 1313 
Q 1069 891 1326 650 
Q 1584 409 2034 409 
Q 2484 409 2743 651 
Q 3003 894 3003 1313 
Q 3003 1734 2745 1975 
Q 2488 2216 2034 2216 
z
M 1403 2484 
Q 997 2584 770 2862 
Q 544 3141 544 3541 
Q 544 4100 942 4425 
Q 1341 4750 2034 4750 
Q 2731 4750 3128 4425 
Q 3525 4100 3525 3541 
Q 3525 3141 3298 2862 
Q 3072 2584 2669 2484 
Q 3125 2378 3379 2068 
Q 3634 1759 3634 1313 
Q 3634 634 3220 271 
Q 2806 -91 2034 -91 
Q 1263 -91 848 271 
Q 434 634 434 1313 
Q 434 1759 690 2068 
Q 947 2378 1403 2484 
z
M 1172 3481 
Q 1172 3119 1398 2916 
Q 1625 2713 2034 2713 
Q 2441 2713 2670 2916 
Q 2900 3119 2900 3481 
Q 2900 3844 2670 4047 
Q 2441 4250 2034 4250 
Q 1625 4250 1398 4047 
Q 1172 3844 1172 3481 
z
" transform="scale(0.015625)"/>
       </defs>
       <use xlink:href="#DejaVuSans-30"/>
       <use xlink:href="#DejaVuSans-2e" x="63.623047"/>
       <use xlink:href="#DejaVuSans-38" x="95.410156"/>
      </g>
     </g>
    </g>
    <g id="xtick_6">
     <g id="line2d_11">
      <path d="M 371.315703 273.312 
L 371.315703 7.2 
" clip-path="url(#p771d5fa7b5)" style="fill: none; stroke-dasharray: 0.8,1.32; stroke-dashoffset: 0; stroke: #b0b0b0; stroke-width: 0.8"/>
     </g>
     <g id="line2d_12">
      <g>
       <use xlink:href="#mcc3bae0b26" x="371.315703" y="273.312" style="stroke: #000000; stroke-width: 0.8"/>
      </g>
     </g>
     <g id="text_6">
      <!-- 1.0 -->
      <g transform="translate(363.36414 287.910437) scale(0.1 -0.1)">
       <defs>
        <path id="DejaVuSans-31" d="M 794 531 
L 1825 531 
L 1825 4091 
L 703 3866 
L 703 4441 
L 1819 4666 
L 2450 4666 
L 2450 531 
L 3481 531 
L 3481 0 
L 794 0 
L 794 531 
z
" transform="scale(0.015625)"/>
       </defs>
       <use xlink:href="#DejaVuSans-31"/>
       <use xlink:href="#DejaVuSans-2e" x="63.623047"/>
       <use xlink:href="#DejaVuSans-30" x="95.410156"/>
      </g>
     </g>
    </g>
   </g>
   <g id="matplotlib.axis_2">
    <g id="ytick_1">
     <g id="line2d_13">
      <path d="M 30.103125 273.312 
L 387.223125 273.312 
" clip-path="url(#p771d5fa7b5)" style="fill: none; stroke-dasharray: 0.8,1.32; stroke-dashoffset: 0; stroke: #b0b0b0; stroke-width: 0.8"/>
     </g>
     <g id="line2d_14">
      <defs>
       <path id="mbc17507af6" d="M 0 0 
L -3.5 0 
" style="stroke: #000000; stroke-width: 0.8"/>
      </defs>
      <g>
       <use xlink:href="#mbc17507af6" x="30.103125" y="273.312" style="stroke: #000000; stroke-width: 0.8"/>
      </g>
     </g>
     <g id="text_7">
      <!-- 0.0 -->
      <g transform="translate(7.2 277.111219) scale(0.1 -0.1)">
       <use xlink:href="#DejaVuSans-30"/>
       <use xlink:href="#DejaVuSans-2e" x="63.623047"/>
       <use xlink:href="#DejaVuSans-30" x="95.410156"/>
      </g>
     </g>
    </g>
    <g id="ytick_2">
     <g id="line2d_15">
      <path d="M 30.103125 222.37506 
L 387.223125 222.37506 
" clip-path="url(#p771d5fa7b5)" style="fill: none; stroke-dasharray: 0.8,1.32; stroke-dashoffset: 0; stroke: #b0b0b0; stroke-width: 0.8"/>
     </g>
     <g id="line2d_16">
      <g>
       <use xlink:href="#mbc17507af6" x="30.103125" y="222.37506" style="stroke: #000000; stroke-width: 0.8"/>
      </g>
     </g>
     <g id="text_8">
      <!-- 0.5 -->
      <g transform="translate(7.2 226.174279) scale(0.1 -0.1)">
       <defs>
        <path id="DejaVuSans-35" d="M 691 4666 
L 3169 4666 
L 3169 4134 
L 1269 4134 
L 1269 2991 
Q 1406 3038 1543 3061 
Q 1681 3084 1819 3084 
Q 2600 3084 3056 2656 
Q 3513 2228 3513 1497 
Q 3513 744 3044 326 
Q 2575 -91 1722 -91 
Q 1428 -91 1123 -41 
Q 819 9 494 109 
L 494 744 
Q 775 591 1075 516 
Q 1375 441 1709 441 
Q 2250 441 2565 725 
Q 2881 1009 2881 1497 
Q 2881 1984 2565 2268 
Q 2250 2553 1709 2553 
Q 1456 2553 1204 2497 
Q 953 2441 691 2322 
L 691 4666 
z
" transform="scale(0.015625)"/>
       </defs>
       <use xlink:href="#DejaVuSans-30"/>
       <use xlink:href="#DejaVuSans-2e" x="63.623047"/>
       <use xlink:href="#DejaVuSans-35" x="95.410156"/>
      </g>
     </g>
    </g>
    <g id="ytick_3">
     <g id="line2d_17">
      <path d="M 30.103125 171.438121 
L 387.223125 171.438121 
" clip-path="url(#p771d5fa7b5)" style="fill: none; stroke-dasharray: 0.8,1.32; stroke-dashoffset: 0; stroke: #b0b0b0; stroke-width: 0.8"/>
     </g>
     <g id="line2d_18">
      <g>
       <use xlink:href="#mbc17507af6" x="30.103125" y="171.438121" style="stroke: #000000; stroke-width: 0.8"/>
      </g>
     </g>
     <g id="text_9">
      <!-- 1.0 -->
      <g transform="translate(7.2 175.237339) scale(0.1 -0.1)">
       <use xlink:href="#DejaVuSans-31"/>
       <use xlink:href="#DejaVuSans-2e" x="63.623047"/>
       <use xlink:href="#DejaVuSans-30" x="95.410156"/>
      </g>
     </g>
    </g>
    <g id="ytick_4">
     <g id="line2d_19">
      <path d="M 30.103125 120.501181 
L 387.223125 120.501181 
" clip-path="url(#p771d5fa7b5)" style="fill: none; stroke-dasharray: 0.8,1.32; stroke-dashoffset: 0; stroke: #b0b0b0; stroke-width: 0.8"/>
     </g>
     <g id="line2d_20">
      <g>
       <use xlink:href="#mbc17507af6" x="30.103125" y="120.501181" style="stroke: #000000; stroke-width: 0.8"/>
      </g>
     </g>
     <g id="text_10">
      <!-- 1.5 -->
      <g transform="translate(7.2 124.3004) scale(0.1 -0.1)">
       <use xlink:href="#DejaVuSans-31"/>
       <use xlink:href="#DejaVuSans-2e" x="63.623047"/>
       <use xlink:href="#DejaVuSans-35" x="95.410156"/>
      </g>
     </g>
    </g>
    <g id="ytick_5">
     <g id="line2d_21">
      <path d="M 30.103125 69.564241 
L 387.223125 69.564241 
" clip-path="url(#p771d5fa7b5)" style="fill: none; stroke-dasharray: 0.8,1.32; stroke-dashoffset: 0; stroke: #b0b0b0; stroke-width: 0.8"/>
     </g>
     <g id="line2d_22">
      <g>
       <use xlink:href="#mbc17507af6" x="30.103125" y="69.564241" style="stroke: #000000; stroke-width: 0.8"/>
      </g>
     </g>
     <g id="text_11">
      <!-- 2.0 -->
      <g transform="translate(7.2 73.36346) scale(0.1 -0.1)">
       <use xlink:href="#DejaVuSans-32"/>
       <use xlink:href="#DejaVuSans-2e" x="63.623047"/>
       <use xlink:href="#DejaVuSans-30" x="95.410156"/>
      </g>
     </g>
    </g>
    <g id="ytick_6">
     <g id="line2d_23">
      <path d="M 30.103125 18.627301 
L 387.223125 18.627301 
" clip-path="url(#p771d5fa7b5)" style="fill: none; stroke-dasharray: 0.8,1.32; stroke-dashoffset: 0; stroke: #b0b0b0; stroke-width: 0.8"/>
     </g>
     <g id="line2d_24">
      <g>
       <use xlink:href="#mbc17507af6" x="30.103125" y="18.627301" style="stroke: #000000; stroke-width: 0.8"/>
      </g>
     </g>
     <g id="text_12">
      <!-- 2.5 -->
      <g transform="translate(7.2 22.42652) scale(0.1 -0.1)">
       <use xlink:href="#DejaVuSans-32"/>
       <use xlink:href="#DejaVuSans-2e" x="63.623047"/>
       <use xlink:href="#DejaVuSans-35" x="95.410156"/>
      </g>
     </g>
    </g>
   </g>
   <g id="line2d_25">
    <path d="M 46.335852 273.301346 
L 47.310791 273.143825 
L 48.285729 272.803243 
L 49.585648 272.075912 
L 50.885566 271.050522 
L 52.185484 269.742206 
L 53.810381 267.731395 
L 55.435279 265.329566 
L 57.385156 261.969371 
L 59.335033 258.130379 
L 61.60989 253.104318 
L 63.884747 247.551751 
L 66.484583 240.641891 
L 69.409399 232.255278 
L 72.984173 221.290634 
L 77.208907 207.577974 
L 83.058539 187.774561 
L 96.05772 143.526776 
L 100.932412 127.7941 
L 105.157146 114.849044 
L 109.056901 103.586653 
L 112.631675 93.917598 
L 115.881471 85.719346 
L 119.131266 78.120683 
L 122.056082 71.818231 
L 124.980897 66.041398 
L 127.580734 61.358425 
L 130.18057 57.108203 
L 132.780406 53.295701 
L 135.055263 50.321274 
L 137.330119 47.685242 
L 139.604976 45.387495 
L 141.879833 43.426958 
L 143.82971 42.013407 
L 145.779587 40.844397 
L 147.729464 39.917724 
L 149.679341 39.230761 
L 151.629218 38.780479 
L 153.579096 38.563467 
L 155.528973 38.575954 
L 157.47885 38.813829 
L 159.428727 39.272661 
L 161.378604 39.947717 
L 163.328481 40.833983 
L 165.603338 42.127851 
L 167.878195 43.693206 
L 170.153051 45.520836 
L 172.752887 47.918391 
L 175.352724 50.63112 
L 178.277539 54.040529 
L 181.202355 57.806849 
L 184.45215 62.382118 
L 187.701946 67.337096 
L 191.27672 73.186857 
L 195.176475 79.994982 
L 199.401209 87.807571 
L 204.275901 97.293614 
L 210.125533 109.193644 
L 217.600062 124.937182 
L 238.398752 169.035887 
L 244.898342 182.121498 
L 250.422994 192.751607 
L 255.297687 201.682274 
L 259.8474 209.5918 
L 264.397114 217.055697 
L 268.621847 223.563646 
L 272.846581 229.647267 
L 276.746335 234.875988 
L 280.64609 239.727328 
L 284.220865 243.840837 
L 287.795639 247.635917 
L 291.370414 251.115473 
L 294.945189 254.284576 
L 298.519964 257.150359 
L 302.094738 259.721902 
L 305.669513 262.010107 
L 309.244288 264.027551 
L 312.819063 265.788334 
L 316.393838 267.307909 
L 320.293592 268.71009 
L 324.193346 269.867906 
L 328.41808 270.874234 
L 332.642814 271.653242 
L 337.192527 272.274392 
L 342.3922 272.757103 
L 348.566811 273.090711 
L 356.366319 273.268577 
L 370.340439 273.311999 
L 370.990398 273.312 
L 370.990398 273.312 
" clip-path="url(#p771d5fa7b5)" style="fill: none; stroke-dasharray: 7.4,3.2; stroke-dashoffset: 0; stroke: #ff0000; stroke-width: 2"/>
   </g>
   <g id="patch_103">
    <path d="M 30.103125 273.312 
L 30.103125 7.2 
" style="fill: none; stroke: #000000; stroke-width: 0.8; stroke-linejoin: miter; stroke-linecap: square"/>
   </g>
   <g id="patch_104">
    <path d="M 387.223125 273.312 
L 387.223125 7.2 
" style="fill: none; stroke: #000000; stroke-width: 0.8; stroke-linejoin: miter; stroke-linecap: square"/>
   </g>
   <g id="patch_105">
    <path d="M 30.103125 273.312 
L 387.223125 273.312 
" style="fill: none; stroke: #000000; stroke-width: 0.8; stroke-linejoin: miter; stroke-linecap: square"/>
   </g>
   <g id="patch_106">
    <path d="M 30.103125 7.2 
L 387.223125 7.2 
" style="fill: none; stroke: #000000; stroke-width: 0.8; stroke-linejoin: miter; stroke-linecap: square"/>
   </g>
  </g>
 </g>
 <defs>
  <clipPath id="p771d5fa7b5">
   <rect x="30.103125" y="7.2" width="357.12" height="266.112"/>
  </clipPath>
 </defs>
</svg>