<?xml version="1.0" encoding="utf-8" standalone="no"?>
<!DOCTYPE svg PUBLIC "-//W3C//DTD SVG 1.1//EN"
  "http://www.w3.org/Graphics/SVG/1.1/DTD/svg11.dtd">
<svg xmlns:xlink="http://www.w3.org/1999/xlink" width="539.503125pt" height="337.074375pt" viewBox="0 0 539.503125 337.074375" xmlns="http://www.w3.org/2000/svg" version="1.1">
 <metadata>
  <rdf:RDF xmlns:dc="http://purl.org/dc/elements/1.1/" xmlns:cc="http://creativecommons.org/ns#" xmlns:rdf="http://www.w3.org/1999/02/22-rdf-syntax-ns#">
   <cc:Work>
    <dc:type rdf:resource="http://purl.org/dc/dcmitype/StillImage"/>
    <dc:date>2024-02-20T21:19:11.427680</dc:date>
    <dc:format>image/svg+xml</dc:format>
    <dc:creator>
     <cc:Agent>
      <dc:title>Matplotlib v3.7.1, https://matplotlib.org/</dc:title>
     </cc:Agent>
    </dc:creator>
   </cc:Work>
  </rdf:RDF>
 </metadata>
 <defs>
  <style type="text/css">*{stroke-linejoin: round; stroke-linecap: butt}</style>
 </defs>
 <g id="figure_1">
  <g id="patch_1">
   <path d="M 0 337.074375 
L 539.503125 337.074375 
L 539.503125 0 
L 0 0 
z
" style="fill: #ffffff"/>
  </g>
  <g id="axes_1">
   <g id="patch_2">
    <path d="M 30.103125 299.518125 
L 532.303125 299.518125 
L 532.303125 22.318125 
L 30.103125 22.318125 
z
" style="fill: #ffffff"/>
   </g>
   <g id="patch_3">
    <path d="M 217.642896 299.518125 
L 218.607429 299.518125 
L 218.607429 298.947323 
L 217.642896 298.947323 
z
" clip-path="url(#pcb8c72f47b)" style="fill: #ff0000"/>
   </g>
   <g id="patch_4">
    <path d="M 218.607429 299.518125 
L 219.571962 299.518125 
L 219.571962 299.518125 
L 218.607429 299.518125 
z
" clip-path="url(#pcb8c72f47b)" style="fill: #ff0000"/>
   </g>
   <g id="patch_5">
    <path d="M 219.571962 299.518125 
L 220.536494 299.518125 
L 220.536494 298.947323 
L 219.571962 298.947323 
z
" clip-path="url(#pcb8c72f47b)" style="fill: #ff0000"/>
   </g>
   <g id="patch_6">
    <path d="M 220.536494 299.518125 
L 221.501027 299.518125 
L 221.501027 298.947323 
L 220.536494 298.947323 
z
" clip-path="url(#pcb8c72f47b)" style="fill: #ff0000"/>
   </g>
   <g id="patch_7">
    <path d="M 221.501027 299.518125 
L 222.46556 299.518125 
L 222.46556 298.947323 
L 221.501027 298.947323 
z
" clip-path="url(#pcb8c72f47b)" style="fill: #ff0000"/>
   </g>
   <g id="patch_8">
    <path d="M 222.46556 299.518125 
L 223.430092 299.518125 
L 223.430092 299.518125 
L 222.46556 299.518125 
z
" clip-path="url(#pcb8c72f47b)" style="fill: #ff0000"/>
   </g>
   <g id="patch_9">
    <path d="M 223.430092 299.518125 
L 224.394625 299.518125 
L 224.394625 299.518125 
L 223.430092 299.518125 
z
" clip-path="url(#pcb8c72f47b)" style="fill: #ff0000"/>
   </g>
   <g id="patch_10">
    <path d="M 224.394625 299.518125 
L 225.359158 299.518125 
L 225.359158 296.093312 
L 224.394625 296.093312 
z
" clip-path="url(#pcb8c72f47b)" style="fill: #ff0000"/>
   </g>
   <g id="patch_11">
    <path d="M 225.359158 299.518125 
L 226.32369 299.518125 
L 226.32369 297.805719 
L 225.359158 297.805719 
z
" clip-path="url(#pcb8c72f47b)" style="fill: #ff0000"/>
   </g>
   <g id="patch_12">
    <path d="M 226.32369 299.518125 
L 227.288223 299.518125 
L 227.288223 296.664114 
L 226.32369 296.664114 
z
" clip-path="url(#pcb8c72f47b)" style="fill: #ff0000"/>
   </g>
   <g id="patch_13">
    <path d="M 227.288223 299.518125 
L 228.252756 299.518125 
L 228.252756 296.664114 
L 227.288223 296.664114 
z
" clip-path="url(#pcb8c72f47b)" style="fill: #ff0000"/>
   </g>
   <g id="patch_14">
    <path d="M 228.252756 299.518125 
L 229.217288 299.518125 
L 229.217288 296.093312 
L 228.252756 296.093312 
z
" clip-path="url(#pcb8c72f47b)" style="fill: #ff0000"/>
   </g>
   <g id="patch_15">
    <path d="M 229.217288 299.518125 
L 230.181821 299.518125 
L 230.181821 292.6685 
L 229.217288 292.6685 
z
" clip-path="url(#pcb8c72f47b)" style="fill: #ff0000"/>
   </g>
   <g id="patch_16">
    <path d="M 230.181821 299.518125 
L 231.146354 299.518125 
L 231.146354 289.243687 
L 230.181821 289.243687 
z
" clip-path="url(#pcb8c72f47b)" style="fill: #ff0000"/>
   </g>
   <g id="patch_17">
    <path d="M 231.146354 299.518125 
L 232.110886 299.518125 
L 232.110886 289.814489 
L 231.146354 289.814489 
z
" clip-path="url(#pcb8c72f47b)" style="fill: #ff0000"/>
   </g>
   <g id="patch_18">
    <path d="M 232.110886 299.518125 
L 233.075419 299.518125 
L 233.075419 288.672885 
L 232.110886 288.672885 
z
" clip-path="url(#pcb8c72f47b)" style="fill: #ff0000"/>
   </g>
   <g id="patch_19">
    <path d="M 233.075419 299.518125 
L 234.039952 299.518125 
L 234.039952 278.969249 
L 233.075419 278.969249 
z
" clip-path="url(#pcb8c72f47b)" style="fill: #ff0000"/>
   </g>
   <g id="patch_20">
    <path d="M 234.039952 299.518125 
L 235.004484 299.518125 
L 235.004484 278.398447 
L 234.039952 278.398447 
z
" clip-path="url(#pcb8c72f47b)" style="fill: #ff0000"/>
   </g>
   <g id="patch_21">
    <path d="M 235.004484 299.518125 
L 235.969017 299.518125 
L 235.969017 281.823259 
L 235.004484 281.823259 
z
" clip-path="url(#pcb8c72f47b)" style="fill: #ff0000"/>
   </g>
   <g id="patch_22">
    <path d="M 235.969017 299.518125 
L 236.93355 299.518125 
L 236.93355 288.672885 
L 235.969017 288.672885 
z
" clip-path="url(#pcb8c72f47b)" style="fill: #ff0000"/>
   </g>
   <g id="patch_23">
    <path d="M 236.93355 299.518125 
L 237.898082 299.518125 
L 237.898082 268.124008 
L 236.93355 268.124008 
z
" clip-path="url(#pcb8c72f47b)" style="fill: #ff0000"/>
   </g>
   <g id="patch_24">
    <path d="M 237.898082 299.518125 
L 238.862615 299.518125 
L 238.862615 254.99556 
L 237.898082 254.99556 
z
" clip-path="url(#pcb8c72f47b)" style="fill: #ff0000"/>
   </g>
   <g id="patch_25">
    <path d="M 238.862615 299.518125 
L 239.827147 299.518125 
L 239.827147 248.716736 
L 238.862615 248.716736 
z
" clip-path="url(#pcb8c72f47b)" style="fill: #ff0000"/>
   </g>
   <g id="patch_26">
    <path d="M 239.827147 299.518125 
L 240.79168 299.518125 
L 240.79168 243.579517 
L 239.827147 243.579517 
z
" clip-path="url(#pcb8c72f47b)" style="fill: #ff0000"/>
   </g>
   <g id="patch_27">
    <path d="M 240.79168 299.518125 
L 241.756213 299.518125 
L 241.756213 241.867111 
L 240.79168 241.867111 
z
" clip-path="url(#pcb8c72f47b)" style="fill: #ff0000"/>
   </g>
   <g id="patch_28">
    <path d="M 241.756213 299.518125 
L 242.720745 299.518125 
L 242.720745 229.309464 
L 241.756213 229.309464 
z
" clip-path="url(#pcb8c72f47b)" style="fill: #ff0000"/>
   </g>
   <g id="patch_29">
    <path d="M 242.720745 299.518125 
L 243.685278 299.518125 
L 243.685278 225.884652 
L 242.720745 225.884652 
z
" clip-path="url(#pcb8c72f47b)" style="fill: #ff0000"/>
   </g>
   <g id="patch_30">
    <path d="M 243.685278 299.518125 
L 244.649811 299.518125 
L 244.649811 200.198556 
L 243.685278 200.198556 
z
" clip-path="url(#pcb8c72f47b)" style="fill: #ff0000"/>
   </g>
   <g id="patch_31">
    <path d="M 244.649811 299.518125 
L 245.614343 299.518125 
L 245.614343 192.207327 
L 244.649811 192.207327 
z
" clip-path="url(#pcb8c72f47b)" style="fill: #ff0000"/>
   </g>
   <g id="patch_32">
    <path d="M 245.614343 299.518125 
L 246.578876 299.518125 
L 246.578876 184.786899 
L 245.614343 184.786899 
z
" clip-path="url(#pcb8c72f47b)" style="fill: #ff0000"/>
   </g>
   <g id="patch_33">
    <path d="M 246.578876 299.518125 
L 247.543409 299.518125 
L 247.543409 159.671606 
L 246.578876 159.671606 
z
" clip-path="url(#pcb8c72f47b)" style="fill: #ff0000"/>
   </g>
   <g id="patch_34">
    <path d="M 247.543409 299.518125 
L 248.507941 299.518125 
L 248.507941 143.118344 
L 247.543409 143.118344 
z
" clip-path="url(#pcb8c72f47b)" style="fill: #ff0000"/>
   </g>
   <g id="patch_35">
    <path d="M 248.507941 299.518125 
L 249.472474 299.518125 
L 249.472474 125.994281 
L 248.507941 125.994281 
z
" clip-path="url(#pcb8c72f47b)" style="fill: #ff0000"/>
   </g>
   <g id="patch_36">
    <path d="M 249.472474 299.518125 
L 250.437007 299.518125 
L 250.437007 125.994281 
L 249.472474 125.994281 
z
" clip-path="url(#pcb8c72f47b)" style="fill: #ff0000"/>
   </g>
   <g id="patch_37">
    <path d="M 250.437007 299.518125 
L 251.401539 299.518125 
L 251.401539 114.007436 
L 250.437007 114.007436 
z
" clip-path="url(#pcb8c72f47b)" style="fill: #ff0000"/>
   </g>
   <g id="patch_38">
    <path d="M 251.401539 299.518125 
L 252.366072 299.518125 
L 252.366072 86.608934 
L 251.401539 86.608934 
z
" clip-path="url(#pcb8c72f47b)" style="fill: #ff0000"/>
   </g>
   <g id="patch_39">
    <path d="M 252.366072 299.518125 
L 253.330605 299.518125 
L 253.330605 89.462945 
L 252.366072 89.462945 
z
" clip-path="url(#pcb8c72f47b)" style="fill: #ff0000"/>
   </g>
   <g id="patch_40">
    <path d="M 253.330605 299.518125 
L 254.295137 299.518125 
L 254.295137 104.3038 
L 253.330605 104.3038 
z
" clip-path="url(#pcb8c72f47b)" style="fill: #ff0000"/>
   </g>
   <g id="patch_41">
    <path d="M 254.295137 299.518125 
L 255.25967 299.518125 
L 255.25967 73.480486 
L 254.295137 73.480486 
z
" clip-path="url(#pcb8c72f47b)" style="fill: #ff0000"/>
   </g>
   <g id="patch_42">
    <path d="M 255.25967 299.518125 
L 256.224203 299.518125 
L 256.224203 195.061337 
L 255.25967 195.061337 
z
" clip-path="url(#pcb8c72f47b)" style="fill: #ff0000"/>
   </g>
   <g id="patch_43">
    <path d="M 256.224203 299.518125 
L 257.188735 299.518125 
L 257.188735 82.042517 
L 256.224203 82.042517 
z
" clip-path="url(#pcb8c72f47b)" style="fill: #ff0000"/>
   </g>
   <g id="patch_44">
    <path d="M 257.188735 299.518125 
L 258.153268 299.518125 
L 258.153268 80.330111 
L 257.188735 80.330111 
z
" clip-path="url(#pcb8c72f47b)" style="fill: #ff0000"/>
   </g>
   <g id="patch_45">
    <path d="M 258.153268 299.518125 
L 259.1178 299.518125 
L 259.1178 79.759309 
L 258.153268 79.759309 
z
" clip-path="url(#pcb8c72f47b)" style="fill: #ff0000"/>
   </g>
   <g id="patch_46">
    <path d="M 259.1178 299.518125 
L 260.082333 299.518125 
L 260.082333 103.732998 
L 259.1178 103.732998 
z
" clip-path="url(#pcb8c72f47b)" style="fill: #ff0000"/>
   </g>
   <g id="patch_47">
    <path d="M 260.082333 299.518125 
L 261.046866 299.518125 
L 261.046866 92.316956 
L 260.082333 92.316956 
z
" clip-path="url(#pcb8c72f47b)" style="fill: #ff0000"/>
   </g>
   <g id="patch_48">
    <path d="M 261.046866 299.518125 
L 262.011398 299.518125 
L 262.011398 100.308185 
L 261.046866 100.308185 
z
" clip-path="url(#pcb8c72f47b)" style="fill: #ff0000"/>
   </g>
   <g id="patch_49">
    <path d="M 262.011398 299.518125 
L 262.975931 299.518125 
L 262.975931 95.741768 
L 262.011398 95.741768 
z
" clip-path="url(#pcb8c72f47b)" style="fill: #ff0000"/>
   </g>
   <g id="patch_50">
    <path d="M 262.975931 299.518125 
L 263.940464 299.518125 
L 263.940464 120.286259 
L 262.975931 120.286259 
z
" clip-path="url(#pcb8c72f47b)" style="fill: #ff0000"/>
   </g>
   <g id="patch_51">
    <path d="M 263.940464 299.518125 
L 264.904996 299.518125 
L 264.904996 122.569468 
L 263.940464 122.569468 
z
" clip-path="url(#pcb8c72f47b)" style="fill: #ff0000"/>
   </g>
   <g id="patch_52">
    <path d="M 264.904996 299.518125 
L 265.869529 299.518125 
L 265.869529 139.693532 
L 264.904996 139.693532 
z
" clip-path="url(#pcb8c72f47b)" style="fill: #ff0000"/>
   </g>
   <g id="patch_53">
    <path d="M 265.869529 299.518125 
L 266.834062 299.518125 
L 266.834062 149.96797 
L 265.869529 149.96797 
z
" clip-path="url(#pcb8c72f47b)" style="fill: #ff0000"/>
   </g>
   <g id="patch_54">
    <path d="M 266.834062 299.518125 
L 267.798594 299.518125 
L 267.798594 148.826365 
L 266.834062 148.826365 
z
" clip-path="url(#pcb8c72f47b)" style="fill: #ff0000"/>
   </g>
   <g id="patch_55">
    <path d="M 267.798594 299.518125 
L 268.763127 299.518125 
L 268.763127 192.778129 
L 267.798594 192.778129 
z
" clip-path="url(#pcb8c72f47b)" style="fill: #ff0000"/>
   </g>
   <g id="patch_56">
    <path d="M 268.763127 299.518125 
L 269.72766 299.518125 
L 269.72766 174.512461 
L 268.763127 174.512461 
z
" clip-path="url(#pcb8c72f47b)" style="fill: #ff0000"/>
   </g>
   <g id="patch_57">
    <path d="M 269.72766 299.518125 
L 270.692192 299.518125 
L 270.692192 209.902192 
L 269.72766 209.902192 
z
" clip-path="url(#pcb8c72f47b)" style="fill: #ff0000"/>
   </g>
   <g id="patch_58">
    <path d="M 270.692192 299.518125 
L 271.656725 299.518125 
L 271.656725 215.610213 
L 270.692192 215.610213 
z
" clip-path="url(#pcb8c72f47b)" style="fill: #ff0000"/>
   </g>
   <g id="patch_59">
    <path d="M 271.656725 299.518125 
L 272.621258 299.518125 
L 272.621258 229.880266 
L 271.656725 229.880266 
z
" clip-path="url(#pcb8c72f47b)" style="fill: #ff0000"/>
   </g>
   <g id="patch_60">
    <path d="M 272.621258 299.518125 
L 273.58579 299.518125 
L 273.58579 239.0131 
L 272.621258 239.0131 
z
" clip-path="url(#pcb8c72f47b)" style="fill: #ff0000"/>
   </g>
   <g id="patch_61">
    <path d="M 273.58579 299.518125 
L 274.550323 299.518125 
L 274.550323 246.433528 
L 273.58579 246.433528 
z
" clip-path="url(#pcb8c72f47b)" style="fill: #ff0000"/>
   </g>
   <g id="patch_62">
    <path d="M 274.550323 299.518125 
L 275.514856 299.518125 
L 275.514856 276.115238 
L 274.550323 276.115238 
z
" clip-path="url(#pcb8c72f47b)" style="fill: #ff0000"/>
   </g>
   <g id="patch_63">
    <path d="M 275.514856 299.518125 
L 276.479388 299.518125 
L 276.479388 253.853955 
L 275.514856 253.853955 
z
" clip-path="url(#pcb8c72f47b)" style="fill: #ff0000"/>
   </g>
   <g id="patch_64">
    <path d="M 276.479388 299.518125 
L 277.443921 299.518125 
L 277.443921 265.269998 
L 276.479388 265.269998 
z
" clip-path="url(#pcb8c72f47b)" style="fill: #ff0000"/>
   </g>
   <g id="patch_65">
    <path d="M 277.443921 299.518125 
L 278.408453 299.518125 
L 278.408453 268.694811 
L 277.443921 268.694811 
z
" clip-path="url(#pcb8c72f47b)" style="fill: #ff0000"/>
   </g>
   <g id="patch_66">
    <path d="M 278.408453 299.518125 
L 279.372986 299.518125 
L 279.372986 282.394061 
L 278.408453 282.394061 
z
" clip-path="url(#pcb8c72f47b)" style="fill: #ff0000"/>
   </g>
   <g id="patch_67">
    <path d="M 279.372986 299.518125 
L 280.337519 299.518125 
L 280.337519 282.964864 
L 279.372986 282.964864 
z
" clip-path="url(#pcb8c72f47b)" style="fill: #ff0000"/>
   </g>
   <g id="patch_68">
    <path d="M 280.337519 299.518125 
L 281.302051 299.518125 
L 281.302051 283.535666 
L 280.337519 283.535666 
z
" clip-path="url(#pcb8c72f47b)" style="fill: #ff0000"/>
   </g>
   <g id="patch_69">
    <path d="M 281.302051 299.518125 
L 282.266584 299.518125 
L 282.266584 289.814489 
L 281.302051 289.814489 
z
" clip-path="url(#pcb8c72f47b)" style="fill: #ff0000"/>
   </g>
   <g id="patch_70">
    <path d="M 282.266584 299.518125 
L 283.231117 299.518125 
L 283.231117 289.814489 
L 282.266584 289.814489 
z
" clip-path="url(#pcb8c72f47b)" style="fill: #ff0000"/>
   </g>
   <g id="patch_71">
    <path d="M 283.231117 299.518125 
L 284.195649 299.518125 
L 284.195649 294.380906 
L 283.231117 294.380906 
z
" clip-path="url(#pcb8c72f47b)" style="fill: #ff0000"/>
   </g>
   <g id="patch_72">
    <path d="M 284.195649 299.518125 
L 285.160182 299.518125 
L 285.160182 292.097697 
L 284.195649 292.097697 
z
" clip-path="url(#pcb8c72f47b)" style="fill: #ff0000"/>
   </g>
   <g id="patch_73">
    <path d="M 285.160182 299.518125 
L 286.124715 299.518125 
L 286.124715 291.526895 
L 285.160182 291.526895 
z
" clip-path="url(#pcb8c72f47b)" style="fill: #ff0000"/>
   </g>
   <g id="patch_74">
    <path d="M 286.124715 299.518125 
L 287.089247 299.518125 
L 287.089247 297.805719 
L 286.124715 297.805719 
z
" clip-path="url(#pcb8c72f47b)" style="fill: #ff0000"/>
   </g>
   <g id="patch_75">
    <path d="M 287.089247 299.518125 
L 288.05378 299.518125 
L 288.05378 297.805719 
L 287.089247 297.805719 
z
" clip-path="url(#pcb8c72f47b)" style="fill: #ff0000"/>
   </g>
   <g id="patch_76">
    <path d="M 288.05378 299.518125 
L 289.018313 299.518125 
L 289.018313 298.947323 
L 288.05378 298.947323 
z
" clip-path="url(#pcb8c72f47b)" style="fill: #ff0000"/>
   </g>
   <g id="patch_77">
    <path d="M 289.018313 299.518125 
L 289.982845 299.518125 
L 289.982845 298.376521 
L 289.018313 298.376521 
z
" clip-path="url(#pcb8c72f47b)" style="fill: #ff0000"/>
   </g>
   <g id="patch_78">
    <path d="M 289.982845 299.518125 
L 290.947378 299.518125 
L 290.947378 298.376521 
L 289.982845 298.376521 
z
" clip-path="url(#pcb8c72f47b)" style="fill: #ff0000"/>
   </g>
   <g id="patch_79">
    <path d="M 290.947378 299.518125 
L 291.911911 299.518125 
L 291.911911 298.376521 
L 290.947378 298.376521 
z
" clip-path="url(#pcb8c72f47b)" style="fill: #ff0000"/>
   </g>
   <g id="patch_80">
    <path d="M 291.911911 299.518125 
L 292.876443 299.518125 
L 292.876443 298.376521 
L 291.911911 298.376521 
z
" clip-path="url(#pcb8c72f47b)" style="fill: #ff0000"/>
   </g>
   <g id="patch_81">
    <path d="M 292.876443 299.518125 
L 293.840976 299.518125 
L 293.840976 298.947323 
L 292.876443 298.947323 
z
" clip-path="url(#pcb8c72f47b)" style="fill: #ff0000"/>
   </g>
   <g id="patch_82">
    <path d="M 293.840976 299.518125 
L 294.805509 299.518125 
L 294.805509 298.947323 
L 293.840976 298.947323 
z
" clip-path="url(#pcb8c72f47b)" style="fill: #ff0000"/>
   </g>
   <g id="patch_83">
    <path d="M 396.699727 299.518125 
L 398.109429 299.518125 
L 398.109429 299.127576 
L 396.699727 299.127576 
z
" clip-path="url(#pcb8c72f47b)" style="fill: #ffa500"/>
   </g>
   <g id="patch_84">
    <path d="M 398.109429 299.518125 
L 399.51913 299.518125 
L 399.51913 299.127576 
L 398.109429 299.127576 
z
" clip-path="url(#pcb8c72f47b)" style="fill: #ffa500"/>
   </g>
   <g id="patch_85">
    <path d="M 399.51913 299.518125 
L 400.928832 299.518125 
L 400.928832 299.127576 
L 399.51913 299.127576 
z
" clip-path="url(#pcb8c72f47b)" style="fill: #ffa500"/>
   </g>
   <g id="patch_86">
    <path d="M 400.928832 299.518125 
L 402.338533 299.518125 
L 402.338533 299.127576 
L 400.928832 299.127576 
z
" clip-path="url(#pcb8c72f47b)" style="fill: #ffa500"/>
   </g>
   <g id="patch_87">
    <path d="M 402.338533 299.518125 
L 403.748235 299.518125 
L 403.748235 299.518125 
L 402.338533 299.518125 
z
" clip-path="url(#pcb8c72f47b)" style="fill: #ffa500"/>
   </g>
   <g id="patch_88">
    <path d="M 403.748235 299.518125 
L 405.157936 299.518125 
L 405.157936 299.127576 
L 403.748235 299.127576 
z
" clip-path="url(#pcb8c72f47b)" style="fill: #ffa500"/>
   </g>
   <g id="patch_89">
    <path d="M 405.157936 299.518125 
L 406.567638 299.518125 
L 406.567638 298.737027 
L 405.157936 298.737027 
z
" clip-path="url(#pcb8c72f47b)" style="fill: #ffa500"/>
   </g>
   <g id="patch_90">
    <path d="M 406.567638 299.518125 
L 407.97734 299.518125 
L 407.97734 298.737027 
L 406.567638 298.737027 
z
" clip-path="url(#pcb8c72f47b)" style="fill: #ffa500"/>
   </g>
   <g id="patch_91">
    <path d="M 407.97734 299.518125 
L 409.387041 299.518125 
L 409.387041 297.95593 
L 407.97734 297.95593 
z
" clip-path="url(#pcb8c72f47b)" style="fill: #ffa500"/>
   </g>
   <g id="patch_92">
    <path d="M 409.387041 299.518125 
L 410.796743 299.518125 
L 410.796743 297.95593 
L 409.387041 297.95593 
z
" clip-path="url(#pcb8c72f47b)" style="fill: #ffa500"/>
   </g>
   <g id="patch_93">
    <path d="M 410.796743 299.518125 
L 412.206444 299.518125 
L 412.206444 296.784283 
L 410.796743 296.784283 
z
" clip-path="url(#pcb8c72f47b)" style="fill: #ffa500"/>
   </g>
   <g id="patch_94">
    <path d="M 412.206444 299.518125 
L 413.616146 299.518125 
L 413.616146 295.612637 
L 412.206444 295.612637 
z
" clip-path="url(#pcb8c72f47b)" style="fill: #ffa500"/>
   </g>
   <g id="patch_95">
    <path d="M 413.616146 299.518125 
L 415.025847 299.518125 
L 415.025847 296.003186 
L 413.616146 296.003186 
z
" clip-path="url(#pcb8c72f47b)" style="fill: #ffa500"/>
   </g>
   <g id="patch_96">
    <path d="M 415.025847 299.518125 
L 416.435549 299.518125 
L 416.435549 297.565381 
L 415.025847 297.565381 
z
" clip-path="url(#pcb8c72f47b)" style="fill: #ffa500"/>
   </g>
   <g id="patch_97">
    <path d="M 416.435549 299.518125 
L 417.84525 299.518125 
L 417.84525 289.754405 
L 416.435549 289.754405 
z
" clip-path="url(#pcb8c72f47b)" style="fill: #ffa500"/>
   </g>
   <g id="patch_98">
    <path d="M 417.84525 299.518125 
L 419.254952 299.518125 
L 419.254952 290.926051 
L 417.84525 290.926051 
z
" clip-path="url(#pcb8c72f47b)" style="fill: #ffa500"/>
   </g>
   <g id="patch_99">
    <path d="M 419.254952 299.518125 
L 420.664654 299.518125 
L 420.664654 287.020563 
L 419.254952 287.020563 
z
" clip-path="url(#pcb8c72f47b)" style="fill: #ffa500"/>
   </g>
   <g id="patch_100">
    <path d="M 420.664654 299.518125 
L 422.074355 299.518125 
L 422.074355 284.67727 
L 420.664654 284.67727 
z
" clip-path="url(#pcb8c72f47b)" style="fill: #ffa500"/>
   </g>
   <g id="patch_101">
    <path d="M 422.074355 299.518125 
L 423.484057 299.518125 
L 423.484057 283.505623 
L 422.074355 283.505623 
z
" clip-path="url(#pcb8c72f47b)" style="fill: #ffa500"/>
   </g>
   <g id="patch_102">
    <path d="M 423.484057 299.518125 
L 424.893758 299.518125 
L 424.893758 289.754405 
L 423.484057 289.754405 
z
" clip-path="url(#pcb8c72f47b)" style="fill: #ffa500"/>
   </g>
   <g id="patch_103">
    <path d="M 424.893758 299.518125 
L 426.30346 299.518125 
L 426.30346 276.866294 
L 424.893758 276.866294 
z
" clip-path="url(#pcb8c72f47b)" style="fill: #ffa500"/>
   </g>
   <g id="patch_104">
    <path d="M 426.30346 299.518125 
L 427.713161 299.518125 
L 427.713161 271.39861 
L 426.30346 271.39861 
z
" clip-path="url(#pcb8c72f47b)" style="fill: #ffa500"/>
   </g>
   <g id="patch_105">
    <path d="M 427.713161 299.518125 
L 429.122863 299.518125 
L 429.122863 265.930927 
L 427.713161 265.930927 
z
" clip-path="url(#pcb8c72f47b)" style="fill: #ffa500"/>
   </g>
   <g id="patch_106">
    <path d="M 429.122863 299.518125 
L 430.532565 299.518125 
L 430.532565 258.901048 
L 429.122863 258.901048 
z
" clip-path="url(#pcb8c72f47b)" style="fill: #ffa500"/>
   </g>
   <g id="patch_107">
    <path d="M 430.532565 299.518125 
L 431.942266 299.518125 
L 431.942266 255.386108 
L 430.532565 255.386108 
z
" clip-path="url(#pcb8c72f47b)" style="fill: #ffa500"/>
   </g>
   <g id="patch_108">
    <path d="M 431.942266 299.518125 
L 433.351968 299.518125 
L 433.351968 244.450742 
L 431.942266 244.450742 
z
" clip-path="url(#pcb8c72f47b)" style="fill: #ffa500"/>
   </g>
   <g id="patch_109">
    <path d="M 433.351968 299.518125 
L 434.761669 299.518125 
L 434.761669 258.901048 
L 433.351968 258.901048 
z
" clip-path="url(#pcb8c72f47b)" style="fill: #ffa500"/>
   </g>
   <g id="patch_110">
    <path d="M 434.761669 299.518125 
L 436.171371 299.518125 
L 436.171371 231.953179 
L 434.761669 231.953179 
z
" clip-path="url(#pcb8c72f47b)" style="fill: #ffa500"/>
   </g>
   <g id="patch_111">
    <path d="M 436.171371 299.518125 
L 437.581072 299.518125 
L 437.581072 221.79891 
L 436.171371 221.79891 
z
" clip-path="url(#pcb8c72f47b)" style="fill: #ffa500"/>
   </g>
   <g id="patch_112">
    <path d="M 437.581072 299.518125 
L 438.990774 299.518125 
L 438.990774 221.017812 
L 437.581072 221.017812 
z
" clip-path="url(#pcb8c72f47b)" style="fill: #ffa500"/>
   </g>
   <g id="patch_113">
    <path d="M 438.990774 299.518125 
L 440.400476 299.518125 
L 440.400476 192.1172 
L 438.990774 192.1172 
z
" clip-path="url(#pcb8c72f47b)" style="fill: #ffa500"/>
   </g>
   <g id="patch_114">
    <path d="M 440.400476 299.518125 
L 441.810177 299.518125 
L 441.810177 203.443116 
L 440.400476 203.443116 
z
" clip-path="url(#pcb8c72f47b)" style="fill: #ffa500"/>
   </g>
   <g id="patch_115">
    <path d="M 441.810177 299.518125 
L 443.219879 299.518125 
L 443.219879 193.288846 
L 441.810177 193.288846 
z
" clip-path="url(#pcb8c72f47b)" style="fill: #ffa500"/>
   </g>
   <g id="patch_116">
    <path d="M 443.219879 299.518125 
L 444.62958 299.518125 
L 444.62958 222.189459 
L 443.219879 222.189459 
z
" clip-path="url(#pcb8c72f47b)" style="fill: #ffa500"/>
   </g>
   <g id="patch_117">
    <path d="M 444.62958 299.518125 
L 446.039282 299.518125 
L 446.039282 178.447991 
L 444.62958 178.447991 
z
" clip-path="url(#pcb8c72f47b)" style="fill: #ffa500"/>
   </g>
   <g id="patch_118">
    <path d="M 446.039282 299.518125 
L 447.448983 299.518125 
L 447.448983 157.358355 
L 446.039282 157.358355 
z
" clip-path="url(#pcb8c72f47b)" style="fill: #ffa500"/>
   </g>
   <g id="patch_119">
    <path d="M 447.448983 299.518125 
L 448.858685 299.518125 
L 448.858685 160.482746 
L 447.448983 160.482746 
z
" clip-path="url(#pcb8c72f47b)" style="fill: #ffa500"/>
   </g>
   <g id="patch_120">
    <path d="M 448.858685 299.518125 
L 450.268386 299.518125 
L 450.268386 155.405611 
L 448.858685 155.405611 
z
" clip-path="url(#pcb8c72f47b)" style="fill: #ffa500"/>
   </g>
   <g id="patch_121">
    <path d="M 450.268386 299.518125 
L 451.678088 299.518125 
L 451.678088 169.465368 
L 450.268386 169.465368 
z
" clip-path="url(#pcb8c72f47b)" style="fill: #ffa500"/>
   </g>
   <g id="patch_122">
    <path d="M 451.678088 299.518125 
L 453.08779 299.518125 
L 453.08779 205.005311 
L 451.678088 205.005311 
z
" clip-path="url(#pcb8c72f47b)" style="fill: #ffa500"/>
   </g>
   <g id="patch_123">
    <path d="M 453.08779 299.518125 
L 454.497491 299.518125 
L 454.497491 147.204086 
L 453.08779 147.204086 
z
" clip-path="url(#pcb8c72f47b)" style="fill: #ffa500"/>
   </g>
   <g id="patch_124">
    <path d="M 454.497491 299.518125 
L 455.907193 299.518125 
L 455.907193 139.783658 
L 454.497491 139.783658 
z
" clip-path="url(#pcb8c72f47b)" style="fill: #ffa500"/>
   </g>
   <g id="patch_125">
    <path d="M 455.907193 299.518125 
L 457.316894 299.518125 
L 457.316894 164.778783 
L 455.907193 164.778783 
z
" clip-path="url(#pcb8c72f47b)" style="fill: #ffa500"/>
   </g>
   <g id="patch_126">
    <path d="M 457.316894 299.518125 
L 458.726596 299.518125 
L 458.726596 157.748904 
L 457.316894 157.748904 
z
" clip-path="url(#pcb8c72f47b)" style="fill: #ffa500"/>
   </g>
   <g id="patch_127">
    <path d="M 458.726596 299.518125 
L 460.136297 299.518125 
L 460.136297 162.826038 
L 458.726596 162.826038 
z
" clip-path="url(#pcb8c72f47b)" style="fill: #ffa500"/>
   </g>
   <g id="patch_128">
    <path d="M 460.136297 299.518125 
L 461.545999 299.518125 
L 461.545999 165.55988 
L 460.136297 165.55988 
z
" clip-path="url(#pcb8c72f47b)" style="fill: #ffa500"/>
   </g>
   <g id="patch_129">
    <path d="M 461.545999 299.518125 
L 462.955701 299.518125 
L 462.955701 210.082446 
L 461.545999 210.082446 
z
" clip-path="url(#pcb8c72f47b)" style="fill: #ffa500"/>
   </g>
   <g id="patch_130">
    <path d="M 462.955701 299.518125 
L 464.365402 299.518125 
L 464.365402 173.370857 
L 462.955701 173.370857 
z
" clip-path="url(#pcb8c72f47b)" style="fill: #ffa500"/>
   </g>
   <g id="patch_131">
    <path d="M 464.365402 299.518125 
L 465.775104 299.518125 
L 465.775104 176.104698 
L 464.365402 176.104698 
z
" clip-path="url(#pcb8c72f47b)" style="fill: #ffa500"/>
   </g>
   <g id="patch_132">
    <path d="M 465.775104 299.518125 
L 467.184805 299.518125 
L 467.184805 188.602261 
L 465.775104 188.602261 
z
" clip-path="url(#pcb8c72f47b)" style="fill: #ffa500"/>
   </g>
   <g id="patch_133">
    <path d="M 467.184805 299.518125 
L 468.594507 299.518125 
L 468.594507 190.945553 
L 467.184805 190.945553 
z
" clip-path="url(#pcb8c72f47b)" style="fill: #ffa500"/>
   </g>
   <g id="patch_134">
    <path d="M 468.594507 299.518125 
L 470.004208 299.518125 
L 470.004208 203.052567 
L 468.594507 203.052567 
z
" clip-path="url(#pcb8c72f47b)" style="fill: #ffa500"/>
   </g>
   <g id="patch_135">
    <path d="M 470.004208 299.518125 
L 471.41391 299.518125 
L 471.41391 208.129701 
L 470.004208 208.129701 
z
" clip-path="url(#pcb8c72f47b)" style="fill: #ffa500"/>
   </g>
   <g id="patch_136">
    <path d="M 471.41391 299.518125 
L 472.823612 299.518125 
L 472.823612 248.746779 
L 471.41391 248.746779 
z
" clip-path="url(#pcb8c72f47b)" style="fill: #ffa500"/>
   </g>
   <g id="patch_137">
    <path d="M 472.823612 299.518125 
L 474.233313 299.518125 
L 474.233313 221.79891 
L 472.823612 221.79891 
z
" clip-path="url(#pcb8c72f47b)" style="fill: #ffa500"/>
   </g>
   <g id="patch_138">
    <path d="M 474.233313 299.518125 
L 475.643015 299.518125 
L 475.643015 231.953179 
L 474.233313 231.953179 
z
" clip-path="url(#pcb8c72f47b)" style="fill: #ffa500"/>
   </g>
   <g id="patch_139">
    <path d="M 475.643015 299.518125 
L 477.052716 299.518125 
L 477.052716 248.35623 
L 475.643015 248.35623 
z
" clip-path="url(#pcb8c72f47b)" style="fill: #ffa500"/>
   </g>
   <g id="patch_140">
    <path d="M 477.052716 299.518125 
L 478.462418 299.518125 
L 478.462418 246.012937 
L 477.052716 246.012937 
z
" clip-path="url(#pcb8c72f47b)" style="fill: #ffa500"/>
   </g>
   <g id="patch_141">
    <path d="M 478.462418 299.518125 
L 479.872119 299.518125 
L 479.872119 260.853792 
L 478.462418 260.853792 
z
" clip-path="url(#pcb8c72f47b)" style="fill: #ffa500"/>
   </g>
   <g id="patch_142">
    <path d="M 479.872119 299.518125 
L 481.281821 299.518125 
L 481.281821 270.617512 
L 479.872119 270.617512 
z
" clip-path="url(#pcb8c72f47b)" style="fill: #ffa500"/>
   </g>
   <g id="patch_143">
    <path d="M 481.281821 299.518125 
L 482.691523 299.518125 
L 482.691523 262.806536 
L 481.281821 262.806536 
z
" clip-path="url(#pcb8c72f47b)" style="fill: #ffa500"/>
   </g>
   <g id="patch_144">
    <path d="M 482.691523 299.518125 
L 484.101224 299.518125 
L 484.101224 271.008061 
L 482.691523 271.008061 
z
" clip-path="url(#pcb8c72f47b)" style="fill: #ffa500"/>
   </g>
   <g id="patch_145">
    <path d="M 484.101224 299.518125 
L 485.510926 299.518125 
L 485.510926 278.03794 
L 484.101224 278.03794 
z
" clip-path="url(#pcb8c72f47b)" style="fill: #ffa500"/>
   </g>
   <g id="patch_146">
    <path d="M 485.510926 299.518125 
L 486.920627 299.518125 
L 486.920627 276.866294 
L 485.510926 276.866294 
z
" clip-path="url(#pcb8c72f47b)" style="fill: #ffa500"/>
   </g>
   <g id="patch_147">
    <path d="M 486.920627 299.518125 
L 488.330329 299.518125 
L 488.330329 287.80166 
L 486.920627 287.80166 
z
" clip-path="url(#pcb8c72f47b)" style="fill: #ffa500"/>
   </g>
   <g id="patch_148">
    <path d="M 488.330329 299.518125 
L 489.74003 299.518125 
L 489.74003 281.552879 
L 488.330329 281.552879 
z
" clip-path="url(#pcb8c72f47b)" style="fill: #ffa500"/>
   </g>
   <g id="patch_149">
    <path d="M 489.74003 299.518125 
L 491.149732 299.518125 
L 491.149732 288.582758 
L 489.74003 288.582758 
z
" clip-path="url(#pcb8c72f47b)" style="fill: #ffa500"/>
   </g>
   <g id="patch_150">
    <path d="M 491.149732 299.518125 
L 492.559433 299.518125 
L 492.559433 288.192209 
L 491.149732 288.192209 
z
" clip-path="url(#pcb8c72f47b)" style="fill: #ffa500"/>
   </g>
   <g id="patch_151">
    <path d="M 492.559433 299.518125 
L 493.969135 299.518125 
L 493.969135 293.659893 
L 492.559433 293.659893 
z
" clip-path="url(#pcb8c72f47b)" style="fill: #ffa500"/>
   </g>
   <g id="patch_152">
    <path d="M 493.969135 299.518125 
L 495.378837 299.518125 
L 495.378837 292.878795 
L 493.969135 292.878795 
z
" clip-path="url(#pcb8c72f47b)" style="fill: #ffa500"/>
   </g>
   <g id="patch_153">
    <path d="M 495.378837 299.518125 
L 496.788538 299.518125 
L 496.788538 292.878795 
L 495.378837 292.878795 
z
" clip-path="url(#pcb8c72f47b)" style="fill: #ffa500"/>
   </g>
   <g id="patch_154">
    <path d="M 496.788538 299.518125 
L 498.19824 299.518125 
L 498.19824 295.612637 
L 496.788538 295.612637 
z
" clip-path="url(#pcb8c72f47b)" style="fill: #ffa500"/>
   </g>
   <g id="patch_155">
    <path d="M 498.19824 299.518125 
L 499.607941 299.518125 
L 499.607941 296.393734 
L 498.19824 296.393734 
z
" clip-path="url(#pcb8c72f47b)" style="fill: #ffa500"/>
   </g>
   <g id="patch_156">
    <path d="M 499.607941 299.518125 
L 501.017643 299.518125 
L 501.017643 297.174832 
L 499.607941 297.174832 
z
" clip-path="url(#pcb8c72f47b)" style="fill: #ffa500"/>
   </g>
   <g id="patch_157">
    <path d="M 501.017643 299.518125 
L 502.427344 299.518125 
L 502.427344 297.565381 
L 501.017643 297.565381 
z
" clip-path="url(#pcb8c72f47b)" style="fill: #ffa500"/>
   </g>
   <g id="patch_158">
    <path d="M 502.427344 299.518125 
L 503.837046 299.518125 
L 503.837046 298.737027 
L 502.427344 298.737027 
z
" clip-path="url(#pcb8c72f47b)" style="fill: #ffa500"/>
   </g>
   <g id="patch_159">
    <path d="M 503.837046 299.518125 
L 505.246748 299.518125 
L 505.246748 297.95593 
L 503.837046 297.95593 
z
" clip-path="url(#pcb8c72f47b)" style="fill: #ffa500"/>
   </g>
   <g id="patch_160">
    <path d="M 505.246748 299.518125 
L 506.656449 299.518125 
L 506.656449 299.127576 
L 505.246748 299.127576 
z
" clip-path="url(#pcb8c72f47b)" style="fill: #ffa500"/>
   </g>
   <g id="patch_161">
    <path d="M 506.656449 299.518125 
L 508.066151 299.518125 
L 508.066151 299.518125 
L 506.656449 299.518125 
z
" clip-path="url(#pcb8c72f47b)" style="fill: #ffa500"/>
   </g>
   <g id="patch_162">
    <path d="M 508.066151 299.518125 
L 509.475852 299.518125 
L 509.475852 299.127576 
L 508.066151 299.127576 
z
" clip-path="url(#pcb8c72f47b)" style="fill: #ffa500"/>
   </g>
   <g id="patch_163">
    <path d="M 52.930398 299.518125 
L 53.80837 299.518125 
L 53.80837 298.891047 
L 52.930398 298.891047 
z
" clip-path="url(#pcb8c72f47b)" style="fill: #bf00bf"/>
   </g>
   <g id="patch_164">
    <path d="M 53.80837 299.518125 
L 54.686342 299.518125 
L 54.686342 299.518125 
L 53.80837 299.518125 
z
" clip-path="url(#pcb8c72f47b)" style="fill: #bf00bf"/>
   </g>
   <g id="patch_165">
    <path d="M 54.686342 299.518125 
L 55.564314 299.518125 
L 55.564314 297.63689 
L 54.686342 297.63689 
z
" clip-path="url(#pcb8c72f47b)" style="fill: #bf00bf"/>
   </g>
   <g id="patch_166">
    <path d="M 55.564314 299.518125 
L 56.442286 299.518125 
L 56.442286 297.009811 
L 55.564314 297.009811 
z
" clip-path="url(#pcb8c72f47b)" style="fill: #bf00bf"/>
   </g>
   <g id="patch_167">
    <path d="M 56.442286 299.518125 
L 57.320258 299.518125 
L 57.320258 298.263968 
L 56.442286 298.263968 
z
" clip-path="url(#pcb8c72f47b)" style="fill: #bf00bf"/>
   </g>
   <g id="patch_168">
    <path d="M 57.320258 299.518125 
L 58.19823 299.518125 
L 58.19823 297.009811 
L 57.320258 297.009811 
z
" clip-path="url(#pcb8c72f47b)" style="fill: #bf00bf"/>
   </g>
   <g id="patch_169">
    <path d="M 58.19823 299.518125 
L 59.076202 299.518125 
L 59.076202 293.87442 
L 58.19823 293.87442 
z
" clip-path="url(#pcb8c72f47b)" style="fill: #bf00bf"/>
   </g>
   <g id="patch_170">
    <path d="M 59.076202 299.518125 
L 59.954174 299.518125 
L 59.954174 291.993184 
L 59.076202 291.993184 
z
" clip-path="url(#pcb8c72f47b)" style="fill: #bf00bf"/>
   </g>
   <g id="patch_171">
    <path d="M 59.954174 299.518125 
L 60.832146 299.518125 
L 60.832146 295.128576 
L 59.954174 295.128576 
z
" clip-path="url(#pcb8c72f47b)" style="fill: #bf00bf"/>
   </g>
   <g id="patch_172">
    <path d="M 60.832146 299.518125 
L 61.710118 299.518125 
L 61.710118 293.87442 
L 60.832146 293.87442 
z
" clip-path="url(#pcb8c72f47b)" style="fill: #bf00bf"/>
   </g>
   <g id="patch_173">
    <path d="M 61.710118 299.518125 
L 62.58809 299.518125 
L 62.58809 287.603636 
L 61.710118 287.603636 
z
" clip-path="url(#pcb8c72f47b)" style="fill: #bf00bf"/>
   </g>
   <g id="patch_174">
    <path d="M 62.58809 299.518125 
L 63.466062 299.518125 
L 63.466062 282.587009 
L 62.58809 282.587009 
z
" clip-path="url(#pcb8c72f47b)" style="fill: #bf00bf"/>
   </g>
   <g id="patch_175">
    <path d="M 63.466062 299.518125 
L 64.344034 299.518125 
L 64.344034 280.705773 
L 63.466062 280.705773 
z
" clip-path="url(#pcb8c72f47b)" style="fill: #bf00bf"/>
   </g>
   <g id="patch_176">
    <path d="M 64.344034 299.518125 
L 65.222006 299.518125 
L 65.222006 279.451617 
L 64.344034 279.451617 
z
" clip-path="url(#pcb8c72f47b)" style="fill: #bf00bf"/>
   </g>
   <g id="patch_177">
    <path d="M 65.222006 299.518125 
L 66.099978 299.518125 
L 66.099978 265.028814 
L 65.222006 265.028814 
z
" clip-path="url(#pcb8c72f47b)" style="fill: #bf00bf"/>
   </g>
   <g id="patch_178">
    <path d="M 66.099978 299.518125 
L 66.97795 299.518125 
L 66.97795 251.860168 
L 66.099978 251.860168 
z
" clip-path="url(#pcb8c72f47b)" style="fill: #bf00bf"/>
   </g>
   <g id="patch_179">
    <path d="M 66.97795 299.518125 
L 67.855922 299.518125 
L 67.855922 239.945678 
L 66.97795 239.945678 
z
" clip-path="url(#pcb8c72f47b)" style="fill: #bf00bf"/>
   </g>
   <g id="patch_180">
    <path d="M 67.855922 299.518125 
L 68.733894 299.518125 
L 68.733894 271.299598 
L 67.855922 271.299598 
z
" clip-path="url(#pcb8c72f47b)" style="fill: #bf00bf"/>
   </g>
   <g id="patch_181">
    <path d="M 68.733894 299.518125 
L 69.611866 299.518125 
L 69.611866 230.539503 
L 68.733894 230.539503 
z
" clip-path="url(#pcb8c72f47b)" style="fill: #bf00bf"/>
   </g>
   <g id="patch_182">
    <path d="M 69.611866 299.518125 
L 70.489838 299.518125 
L 70.489838 212.981308 
L 69.611866 212.981308 
z
" clip-path="url(#pcb8c72f47b)" style="fill: #bf00bf"/>
   </g>
   <g id="patch_183">
    <path d="M 70.489838 299.518125 
L 71.36781 299.518125 
L 71.36781 206.710524 
L 70.489838 206.710524 
z
" clip-path="url(#pcb8c72f47b)" style="fill: #bf00bf"/>
   </g>
   <g id="patch_184">
    <path d="M 71.36781 299.518125 
L 72.245782 299.518125 
L 72.245782 178.491997 
L 71.36781 178.491997 
z
" clip-path="url(#pcb8c72f47b)" style="fill: #bf00bf"/>
   </g>
   <g id="patch_185">
    <path d="M 72.245782 299.518125 
L 73.123754 299.518125 
L 73.123754 238.691522 
L 72.245782 238.691522 
z
" clip-path="url(#pcb8c72f47b)" style="fill: #bf00bf"/>
   </g>
   <g id="patch_186">
    <path d="M 73.123754 299.518125 
L 74.001726 299.518125 
L 74.001726 154.03594 
L 73.123754 154.03594 
z
" clip-path="url(#pcb8c72f47b)" style="fill: #bf00bf"/>
   </g>
   <g id="patch_187">
    <path d="M 74.001726 299.518125 
L 74.879698 299.518125 
L 74.879698 127.071569 
L 74.001726 127.071569 
z
" clip-path="url(#pcb8c72f47b)" style="fill: #bf00bf"/>
   </g>
   <g id="patch_188">
    <path d="M 74.879698 299.518125 
L 75.75767 299.518125 
L 75.75767 112.021688 
L 74.879698 112.021688 
z
" clip-path="url(#pcb8c72f47b)" style="fill: #bf00bf"/>
   </g>
   <g id="patch_189">
    <path d="M 75.75767 299.518125 
L 76.635642 299.518125 
L 76.635642 209.845916 
L 75.75767 209.845916 
z
" clip-path="url(#pcb8c72f47b)" style="fill: #bf00bf"/>
   </g>
   <g id="patch_190">
    <path d="M 76.635642 299.518125 
L 77.513615 299.518125 
L 77.513615 90.073944 
L 76.635642 90.073944 
z
" clip-path="url(#pcb8c72f47b)" style="fill: #bf00bf"/>
   </g>
   <g id="patch_191">
    <path d="M 77.513615 299.518125 
L 78.391587 299.518125 
L 78.391587 70.007436 
L 77.513615 70.007436 
z
" clip-path="url(#pcb8c72f47b)" style="fill: #bf00bf"/>
   </g>
   <g id="patch_192">
    <path d="M 78.391587 299.518125 
L 79.269559 299.518125 
L 79.269559 77.532377 
L 78.391587 77.532377 
z
" clip-path="url(#pcb8c72f47b)" style="fill: #bf00bf"/>
   </g>
   <g id="patch_193">
    <path d="M 79.269559 299.518125 
L 80.147531 299.518125 
L 80.147531 38.026439 
L 79.269559 38.026439 
z
" clip-path="url(#pcb8c72f47b)" style="fill: #bf00bf"/>
   </g>
   <g id="patch_194">
    <path d="M 80.147531 299.518125 
L 81.025503 299.518125 
L 81.025503 175.356605 
L 80.147531 175.356605 
z
" clip-path="url(#pcb8c72f47b)" style="fill: #bf00bf"/>
   </g>
   <g id="patch_195">
    <path d="M 81.025503 299.518125 
L 81.903475 299.518125 
L 81.903475 51.822163 
L 81.025503 51.822163 
z
" clip-path="url(#pcb8c72f47b)" style="fill: #bf00bf"/>
   </g>
   <g id="patch_196">
    <path d="M 81.903475 299.518125 
L 82.781447 299.518125 
L 82.781447 38.026439 
L 81.903475 38.026439 
z
" clip-path="url(#pcb8c72f47b)" style="fill: #bf00bf"/>
   </g>
   <g id="patch_197">
    <path d="M 82.781447 299.518125 
L 83.659419 299.518125 
L 83.659419 55.584633 
L 82.781447 55.584633 
z
" clip-path="url(#pcb8c72f47b)" style="fill: #bf00bf"/>
   </g>
   <g id="patch_198">
    <path d="M 83.659419 299.518125 
L 84.537391 299.518125 
L 84.537391 170.339978 
L 83.659419 170.339978 
z
" clip-path="url(#pcb8c72f47b)" style="fill: #bf00bf"/>
   </g>
   <g id="patch_199">
    <path d="M 84.537391 299.518125 
L 85.415363 299.518125 
L 85.415363 47.432614 
L 84.537391 47.432614 
z
" clip-path="url(#pcb8c72f47b)" style="fill: #bf00bf"/>
   </g>
   <g id="patch_200">
    <path d="M 85.415363 299.518125 
L 86.293335 299.518125 
L 86.293335 35.518125 
L 85.415363 35.518125 
z
" clip-path="url(#pcb8c72f47b)" style="fill: #bf00bf"/>
   </g>
   <g id="patch_201">
    <path d="M 86.293335 299.518125 
L 87.171307 299.518125 
L 87.171307 62.482496 
L 86.293335 62.482496 
z
" clip-path="url(#pcb8c72f47b)" style="fill: #bf00bf"/>
   </g>
   <g id="patch_202">
    <path d="M 87.171307 299.518125 
L 88.049279 299.518125 
L 88.049279 184.135702 
L 87.171307 184.135702 
z
" clip-path="url(#pcb8c72f47b)" style="fill: #bf00bf"/>
   </g>
   <g id="patch_203">
    <path d="M 88.049279 299.518125 
L 88.927251 299.518125 
L 88.927251 56.83879 
L 88.049279 56.83879 
z
" clip-path="url(#pcb8c72f47b)" style="fill: #bf00bf"/>
   </g>
   <g id="patch_204">
    <path d="M 88.927251 299.518125 
L 89.805223 299.518125 
L 89.805223 83.176082 
L 88.927251 83.176082 
z
" clip-path="url(#pcb8c72f47b)" style="fill: #bf00bf"/>
   </g>
   <g id="patch_205">
    <path d="M 89.805223 299.518125 
L 90.683195 299.518125 
L 90.683195 106.377982 
L 89.805223 106.377982 
z
" clip-path="url(#pcb8c72f47b)" style="fill: #bf00bf"/>
   </g>
   <g id="patch_206">
    <path d="M 90.683195 299.518125 
L 91.561167 299.518125 
L 91.561167 96.971807 
L 90.683195 96.971807 
z
" clip-path="url(#pcb8c72f47b)" style="fill: #bf00bf"/>
   </g>
   <g id="patch_207">
    <path d="M 91.561167 299.518125 
L 92.439139 299.518125 
L 92.439139 214.235465 
L 91.561167 214.235465 
z
" clip-path="url(#pcb8c72f47b)" style="fill: #bf00bf"/>
   </g>
   <g id="patch_208">
    <path d="M 92.439139 299.518125 
L 93.317111 299.518125 
L 93.317111 123.936177 
L 92.439139 123.936177 
z
" clip-path="url(#pcb8c72f47b)" style="fill: #bf00bf"/>
   </g>
   <g id="patch_209">
    <path d="M 93.317111 299.518125 
L 94.195083 299.518125 
L 94.195083 154.03594 
L 93.317111 154.03594 
z
" clip-path="url(#pcb8c72f47b)" style="fill: #bf00bf"/>
   </g>
   <g id="patch_210">
    <path d="M 94.195083 299.518125 
L 95.073055 299.518125 
L 95.073055 179.119075 
L 94.195083 179.119075 
z
" clip-path="url(#pcb8c72f47b)" style="fill: #bf00bf"/>
   </g>
   <g id="patch_211">
    <path d="M 95.073055 299.518125 
L 95.951027 299.518125 
L 95.951027 237.437365 
L 95.073055 237.437365 
z
" clip-path="url(#pcb8c72f47b)" style="fill: #bf00bf"/>
   </g>
   <g id="patch_212">
    <path d="M 95.951027 299.518125 
L 96.828999 299.518125 
L 96.828999 187.271094 
L 95.951027 187.271094 
z
" clip-path="url(#pcb8c72f47b)" style="fill: #bf00bf"/>
   </g>
   <g id="patch_213">
    <path d="M 96.828999 299.518125 
L 97.706971 299.518125 
L 97.706971 206.710524 
L 96.828999 206.710524 
z
" clip-path="url(#pcb8c72f47b)" style="fill: #bf00bf"/>
   </g>
   <g id="patch_214">
    <path d="M 97.706971 299.518125 
L 98.584943 299.518125 
L 98.584943 206.710524 
L 97.706971 206.710524 
z
" clip-path="url(#pcb8c72f47b)" style="fill: #bf00bf"/>
   </g>
   <g id="patch_215">
    <path d="M 98.584943 299.518125 
L 99.462915 299.518125 
L 99.462915 223.014562 
L 98.584943 223.014562 
z
" clip-path="url(#pcb8c72f47b)" style="fill: #bf00bf"/>
   </g>
   <g id="patch_216">
    <path d="M 99.462915 299.518125 
L 100.340887 299.518125 
L 100.340887 267.537127 
L 99.462915 267.537127 
z
" clip-path="url(#pcb8c72f47b)" style="fill: #bf00bf"/>
   </g>
   <g id="patch_217">
    <path d="M 100.340887 299.518125 
L 101.218859 299.518125 
L 101.218859 251.233089 
L 100.340887 251.233089 
z
" clip-path="url(#pcb8c72f47b)" style="fill: #bf00bf"/>
   </g>
   <g id="patch_218">
    <path d="M 101.218859 299.518125 
L 102.096831 299.518125 
L 102.096831 247.470619 
L 101.218859 247.470619 
z
" clip-path="url(#pcb8c72f47b)" style="fill: #bf00bf"/>
   </g>
   <g id="patch_219">
    <path d="M 102.096831 299.518125 
L 102.974803 299.518125 
L 102.974803 251.860168 
L 102.096831 251.860168 
z
" clip-path="url(#pcb8c72f47b)" style="fill: #bf00bf"/>
   </g>
   <g id="patch_220">
    <path d="M 102.974803 299.518125 
L 103.852775 299.518125 
L 103.852775 283.841165 
L 102.974803 283.841165 
z
" clip-path="url(#pcb8c72f47b)" style="fill: #bf00bf"/>
   </g>
   <g id="patch_221">
    <path d="M 103.852775 299.518125 
L 104.730747 299.518125 
L 104.730747 270.672519 
L 103.852775 270.672519 
z
" clip-path="url(#pcb8c72f47b)" style="fill: #bf00bf"/>
   </g>
   <g id="patch_222">
    <path d="M 104.730747 299.518125 
L 105.608719 299.518125 
L 105.608719 276.316225 
L 104.730747 276.316225 
z
" clip-path="url(#pcb8c72f47b)" style="fill: #bf00bf"/>
   </g>
   <g id="patch_223">
    <path d="M 105.608719 299.518125 
L 106.486691 299.518125 
L 106.486691 276.943303 
L 105.608719 276.943303 
z
" clip-path="url(#pcb8c72f47b)" style="fill: #bf00bf"/>
   </g>
   <g id="patch_224">
    <path d="M 106.486691 299.518125 
L 107.364663 299.518125 
L 107.364663 279.451617 
L 106.486691 279.451617 
z
" clip-path="url(#pcb8c72f47b)" style="fill: #bf00bf"/>
   </g>
   <g id="patch_225">
    <path d="M 107.364663 299.518125 
L 108.242635 299.518125 
L 108.242635 293.247341 
L 107.364663 293.247341 
z
" clip-path="url(#pcb8c72f47b)" style="fill: #bf00bf"/>
   </g>
   <g id="patch_226">
    <path d="M 108.242635 299.518125 
L 109.120608 299.518125 
L 109.120608 285.722401 
L 108.242635 285.722401 
z
" clip-path="url(#pcb8c72f47b)" style="fill: #bf00bf"/>
   </g>
   <g id="patch_227">
    <path d="M 109.120608 299.518125 
L 109.99858 299.518125 
L 109.99858 290.111949 
L 109.120608 290.111949 
z
" clip-path="url(#pcb8c72f47b)" style="fill: #bf00bf"/>
   </g>
   <g id="patch_228">
    <path d="M 109.99858 299.518125 
L 110.876552 299.518125 
L 110.876552 290.111949 
L 109.99858 290.111949 
z
" clip-path="url(#pcb8c72f47b)" style="fill: #bf00bf"/>
   </g>
   <g id="patch_229">
    <path d="M 110.876552 299.518125 
L 111.754524 299.518125 
L 111.754524 296.382733 
L 110.876552 296.382733 
z
" clip-path="url(#pcb8c72f47b)" style="fill: #bf00bf"/>
   </g>
   <g id="patch_230">
    <path d="M 111.754524 299.518125 
L 112.632496 299.518125 
L 112.632496 290.739028 
L 111.754524 290.739028 
z
" clip-path="url(#pcb8c72f47b)" style="fill: #bf00bf"/>
   </g>
   <g id="patch_231">
    <path d="M 112.632496 299.518125 
L 113.510468 299.518125 
L 113.510468 297.009811 
L 112.632496 297.009811 
z
" clip-path="url(#pcb8c72f47b)" style="fill: #bf00bf"/>
   </g>
   <g id="patch_232">
    <path d="M 113.510468 299.518125 
L 114.38844 299.518125 
L 114.38844 292.620263 
L 113.510468 292.620263 
z
" clip-path="url(#pcb8c72f47b)" style="fill: #bf00bf"/>
   </g>
   <g id="patch_233">
    <path d="M 114.38844 299.518125 
L 115.266412 299.518125 
L 115.266412 296.382733 
L 114.38844 296.382733 
z
" clip-path="url(#pcb8c72f47b)" style="fill: #bf00bf"/>
   </g>
   <g id="patch_234">
    <path d="M 115.266412 299.518125 
L 116.144384 299.518125 
L 116.144384 299.518125 
L 115.266412 299.518125 
z
" clip-path="url(#pcb8c72f47b)" style="fill: #bf00bf"/>
   </g>
   <g id="patch_235">
    <path d="M 116.144384 299.518125 
L 117.022356 299.518125 
L 117.022356 297.009811 
L 116.144384 297.009811 
z
" clip-path="url(#pcb8c72f47b)" style="fill: #bf00bf"/>
   </g>
   <g id="patch_236">
    <path d="M 117.022356 299.518125 
L 117.900328 299.518125 
L 117.900328 298.263968 
L 117.022356 298.263968 
z
" clip-path="url(#pcb8c72f47b)" style="fill: #bf00bf"/>
   </g>
   <g id="patch_237">
    <path d="M 117.900328 299.518125 
L 118.7783 299.518125 
L 118.7783 298.263968 
L 117.900328 298.263968 
z
" clip-path="url(#pcb8c72f47b)" style="fill: #bf00bf"/>
   </g>
   <g id="patch_238">
    <path d="M 118.7783 299.518125 
L 119.656272 299.518125 
L 119.656272 298.891047 
L 118.7783 298.891047 
z
" clip-path="url(#pcb8c72f47b)" style="fill: #bf00bf"/>
   </g>
   <g id="patch_239">
    <path d="M 119.656272 299.518125 
L 120.534244 299.518125 
L 120.534244 298.891047 
L 119.656272 298.891047 
z
" clip-path="url(#pcb8c72f47b)" style="fill: #bf00bf"/>
   </g>
   <g id="patch_240">
    <path d="M 120.534244 299.518125 
L 121.412216 299.518125 
L 121.412216 299.518125 
L 120.534244 299.518125 
z
" clip-path="url(#pcb8c72f47b)" style="fill: #bf00bf"/>
   </g>
   <g id="patch_241">
    <path d="M 121.412216 299.518125 
L 122.290188 299.518125 
L 122.290188 299.518125 
L 121.412216 299.518125 
z
" clip-path="url(#pcb8c72f47b)" style="fill: #bf00bf"/>
   </g>
   <g id="patch_242">
    <path d="M 122.290188 299.518125 
L 123.16816 299.518125 
L 123.16816 298.891047 
L 122.290188 298.891047 
z
" clip-path="url(#pcb8c72f47b)" style="fill: #bf00bf"/>
   </g>
   <g id="matplotlib.axis_1">
    <g id="xtick_1">
     <g id="line2d_1">
      <path d="M 59.360615 299.518125 
L 59.360615 22.318125 
" clip-path="url(#pcb8c72f47b)" style="fill: none; stroke-dasharray: 0.8,1.32; stroke-dashoffset: 0; stroke: #b0b0b0; stroke-width: 0.8"/>
     </g>
     <g id="line2d_2">
      <defs>
       <path id="mf3aa061f6e" d="M 0 0 
L 0 3.5 
" style="stroke: #000000; stroke-width: 0.8"/>
      </defs>
      <g>
       <use xlink:href="#mf3aa061f6e" x="59.360615" y="299.518125" style="stroke: #000000; stroke-width: 0.8"/>
      </g>
     </g>
     <g id="text_1">
      <!-- 2 -->
      <g transform="translate(56.179365 314.116563) scale(0.1 -0.1)">
       <defs>
        <path id="DejaVuSans-32" d="M 1228 531 
L 3431 531 
L 3431 0 
L 469 0 
L 469 531 
Q 828 903 1448 1529 
Q 2069 2156 2228 2338 
Q 2531 2678 2651 2914 
Q 2772 3150 2772 3378 
Q 2772 3750 2511 3984 
Q 2250 4219 1831 4219 
Q 1534 4219 1204 4116 
Q 875 4013 500 3803 
L 500 4441 
Q 881 4594 1212 4672 
Q 1544 4750 1819 4750 
Q 2544 4750 2975 4387 
Q 3406 4025 3406 3419 
Q 3406 3131 3298 2873 
Q 3191 2616 2906 2266 
Q 2828 2175 2409 1742 
Q 1991 1309 1228 531 
z
" transform="scale(0.015625)"/>
       </defs>
       <use xlink:href="#DejaVuSans-32"/>
      </g>
     </g>
    </g>
    <g id="xtick_2">
     <g id="line2d_3">
      <path d="M 158.287041 299.518125 
L 158.287041 22.318125 
" clip-path="url(#pcb8c72f47b)" style="fill: none; stroke-dasharray: 0.8,1.32; stroke-dashoffset: 0; stroke: #b0b0b0; stroke-width: 0.8"/>
     </g>
     <g id="line2d_4">
      <g>
       <use xlink:href="#mf3aa061f6e" x="158.287041" y="299.518125" style="stroke: #000000; stroke-width: 0.8"/>
      </g>
     </g>
     <g id="text_2">
      <!-- 4 -->
      <g transform="translate(155.105791 314.116563) scale(0.1 -0.1)">
       <defs>
        <path id="DejaVuSans-34" d="M 2419 4116 
L 825 1625 
L 2419 1625 
L 2419 4116 
z
M 2253 4666 
L 3047 4666 
L 3047 1625 
L 3713 1625 
L 3713 1100 
L 3047 1100 
L 3047 0 
L 2419 0 
L 2419 1100 
L 313 1100 
L 313 1709 
L 2253 4666 
z
" transform="scale(0.015625)"/>
       </defs>
       <use xlink:href="#DejaVuSans-34"/>
      </g>
     </g>
    </g>
    <g id="xtick_3">
     <g id="line2d_5">
      <path d="M 257.213467 299.518125 
L 257.213467 22.318125 
" clip-path="url(#pcb8c72f47b)" style="fill: none; stroke-dasharray: 0.8,1.32; stroke-dashoffset: 0; stroke: #b0b0b0; stroke-width: 0.8"/>
     </g>
     <g id="line2d_6">
      <g>
       <use xlink:href="#mf3aa061f6e" x="257.213467" y="299.518125" style="stroke: #000000; stroke-width: 0.8"/>
      </g>
     </g>
     <g id="text_3">
      <!-- 6 -->
      <g transform="translate(254.032217 314.116563) scale(0.1 -0.1)">
       <defs>
        <path id="DejaVuSans-36" d="M 2113 2584 
Q 1688 2584 1439 2293 
Q 1191 2003 1191 1497 
Q 1191 994 1439 701 
Q 1688 409 2113 409 
Q 2538 409 2786 701 
Q 3034 994 3034 1497 
Q 3034 2003 2786 2293 
Q 2538 2584 2113 2584 
z
M 3366 4563 
L 3366 3988 
Q 3128 4100 2886 4159 
Q 2644 4219 2406 4219 
Q 1781 4219 1451 3797 
Q 1122 3375 1075 2522 
Q 1259 2794 1537 2939 
Q 1816 3084 2150 3084 
Q 2853 3084 3261 2657 
Q 3669 2231 3669 1497 
Q 3669 778 3244 343 
Q 2819 -91 2113 -91 
Q 1303 -91 875 529 
Q 447 1150 447 2328 
Q 447 3434 972 4092 
Q 1497 4750 2381 4750 
Q 2619 4750 2861 4703 
Q 3103 4656 3366 4563 
z
" transform="scale(0.015625)"/>
       </defs>
       <use xlink:href="#DejaVuSans-36"/>
      </g>
     </g>
    </g>
    <g id="xtick_4">
     <g id="line2d_7">
      <path d="M 356.139892 299.518125 
L 356.139892 22.318125 
" clip-path="url(#pcb8c72f47b)" style="fill: none; stroke-dasharray: 0.8,1.32; stroke-dashoffset: 0; stroke: #b0b0b0; stroke-width: 0.8"/>
     </g>
     <g id="line2d_8">
      <g>
       <use xlink:href="#mf3aa061f6e" x="356.139892" y="299.518125" style="stroke: #000000; stroke-width: 0.8"/>
      </g>
     </g>
     <g id="text_4">
      <!-- 8 -->
      <g transform="translate(352.958642 314.116563) scale(0.1 -0.1)">
       <defs>
        <path id="DejaVuSans-38" d="M 2034 2216 
Q 1584 2216 1326 1975 
Q 1069 1734 1069 1313 
Q 1069 891 1326 650 
Q 1584 409 2034 409 
Q 2484 409 2743 651 
Q 3003 894 3003 1313 
Q 3003 1734 2745 1975 
Q 2488 2216 2034 2216 
z
M 1403 2484 
Q 997 2584 770 2862 
Q 544 3141 544 3541 
Q 544 4100 942 4425 
Q 1341 4750 2034 4750 
Q 2731 4750 3128 4425 
Q 3525 4100 3525 3541 
Q 3525 3141 3298 2862 
Q 3072 2584 2669 2484 
Q 3125 2378 3379 2068 
Q 3634 1759 3634 1313 
Q 3634 634 3220 271 
Q 2806 -91 2034 -91 
Q 1263 -91 848 271 
Q 434 634 434 1313 
Q 434 1759 690 2068 
Q 947 2378 1403 2484 
z
M 1172 3481 
Q 1172 3119 1398 2916 
Q 1625 2713 2034 2713 
Q 2441 2713 2670 2916 
Q 2900 3119 2900 3481 
Q 2900 3844 2670 4047 
Q 2441 4250 2034 4250 
Q 1625 4250 1398 4047 
Q 1172 3844 1172 3481 
z
" transform="scale(0.015625)"/>
       </defs>
       <use xlink:href="#DejaVuSans-38"/>
      </g>
     </g>
    </g>
    <g id="xtick_5">
     <g id="line2d_9">
      <path d="M 455.066318 299.518125 
L 455.066318 22.318125 
" clip-path="url(#pcb8c72f47b)" style="fill: none; stroke-dasharray: 0.8,1.32; stroke-dashoffset: 0; stroke: #b0b0b0; stroke-width: 0.8"/>
     </g>
     <g id="line2d_10">
      <g>
       <use xlink:href="#mf3aa061f6e" x="455.066318" y="299.518125" style="stroke: #000000; stroke-width: 0.8"/>
      </g>
     </g>
     <g id="text_5">
      <!-- 10 -->
      <g transform="translate(448.703818 314.116563) scale(0.1 -0.1)">
       <defs>
        <path id="DejaVuSans-31" d="M 794 531 
L 1825 531 
L 1825 4091 
L 703 3866 
L 703 4441 
L 1819 4666 
L 2450 4666 
L 2450 531 
L 3481 531 
L 3481 0 
L 794 0 
L 794 531 
z
" transform="scale(0.015625)"/>
        <path id="DejaVuSans-30" d="M 2034 4250 
Q 1547 4250 1301 3770 
Q 1056 3291 1056 2328 
Q 1056 1369 1301 889 
Q 1547 409 2034 409 
Q 2525 409 2770 889 
Q 3016 1369 3016 2328 
Q 3016 3291 2770 3770 
Q 2525 4250 2034 4250 
z
M 2034 4750 
Q 2819 4750 3233 4129 
Q 3647 3509 3647 2328 
Q 3647 1150 3233 529 
Q 2819 -91 2034 -91 
Q 1250 -91 836 529 
Q 422 1150 422 2328 
Q 422 3509 836 4129 
Q 1250 4750 2034 4750 
z
" transform="scale(0.015625)"/>
       </defs>
       <use xlink:href="#DejaVuSans-31"/>
       <use xlink:href="#DejaVuSans-30" x="63.623047"/>
      </g>
     </g>
    </g>
    <g id="text_6">
     <!-- $x$ -->
     <g transform="translate(278.203125 327.794688) scale(0.1 -0.1)">
      <defs>
       <path id="DejaVuSans-Oblique-78" d="M 3841 3500 
L 2234 1784 
L 3219 0 
L 2559 0 
L 1819 1388 
L 531 0 
L -166 0 
L 1556 1844 
L 641 3500 
L 1300 3500 
L 1972 2234 
L 3144 3500 
L 3841 3500 
z
" transform="scale(0.015625)"/>
      </defs>
      <use xlink:href="#DejaVuSans-Oblique-78" transform="translate(0 0.3125)"/>
     </g>
    </g>
   </g>
   <g id="matplotlib.axis_2">
    <g id="ytick_1">
     <g id="line2d_11">
      <path d="M 30.103125 299.518125 
L 532.303125 299.518125 
" clip-path="url(#pcb8c72f47b)" style="fill: none; stroke-dasharray: 0.8,1.32; stroke-dashoffset: 0; stroke: #b0b0b0; stroke-width: 0.8"/>
     </g>
     <g id="line2d_12">
      <defs>
       <path id="ma765cc19de" d="M 0 0 
L -3.5 0 
" style="stroke: #000000; stroke-width: 0.8"/>
      </defs>
      <g>
       <use xlink:href="#ma765cc19de" x="30.103125" y="299.518125" style="stroke: #000000; stroke-width: 0.8"/>
      </g>
     </g>
     <g id="text_7">
      <!-- 0.0 -->
      <g transform="translate(7.2 303.317344) scale(0.1 -0.1)">
       <defs>
        <path id="DejaVuSans-2e" d="M 684 794 
L 1344 794 
L 1344 0 
L 684 0 
L 684 794 
z
" transform="scale(0.015625)"/>
       </defs>
       <use xlink:href="#DejaVuSans-30"/>
       <use xlink:href="#DejaVuSans-2e" x="63.623047"/>
       <use xlink:href="#DejaVuSans-30" x="95.410156"/>
      </g>
     </g>
    </g>
    <g id="ytick_2">
     <g id="line2d_13">
      <path d="M 30.103125 243.864918 
L 532.303125 243.864918 
" clip-path="url(#pcb8c72f47b)" style="fill: none; stroke-dasharray: 0.8,1.32; stroke-dashoffset: 0; stroke: #b0b0b0; stroke-width: 0.8"/>
     </g>
     <g id="line2d_14">
      <g>
       <use xlink:href="#ma765cc19de" x="30.103125" y="243.864918" style="stroke: #000000; stroke-width: 0.8"/>
      </g>
     </g>
     <g id="text_8">
      <!-- 0.5 -->
      <g transform="translate(7.2 247.664137) scale(0.1 -0.1)">
       <defs>
        <path id="DejaVuSans-35" d="M 691 4666 
L 3169 4666 
L 3169 4134 
L 1269 4134 
L 1269 2991 
Q 1406 3038 1543 3061 
Q 1681 3084 1819 3084 
Q 2600 3084 3056 2656 
Q 3513 2228 3513 1497 
Q 3513 744 3044 326 
Q 2575 -91 1722 -91 
Q 1428 -91 1123 -41 
Q 819 9 494 109 
L 494 744 
Q 775 591 1075 516 
Q 1375 441 1709 441 
Q 2250 441 2565 725 
Q 2881 1009 2881 1497 
Q 2881 1984 2565 2268 
Q 2250 2553 1709 2553 
Q 1456 2553 1204 2497 
Q 953 2441 691 2322 
L 691 4666 
z
" transform="scale(0.015625)"/>
       </defs>
       <use xlink:href="#DejaVuSans-30"/>
       <use xlink:href="#DejaVuSans-2e" x="63.623047"/>
       <use xlink:href="#DejaVuSans-35" x="95.410156"/>
      </g>
     </g>
    </g>
    <g id="ytick_3">
     <g id="line2d_15">
      <path d="M 30.103125 188.211712 
L 532.303125 188.211712 
" clip-path="url(#pcb8c72f47b)" style="fill: none; stroke-dasharray: 0.8,1.32; stroke-dashoffset: 0; stroke: #b0b0b0; stroke-width: 0.8"/>
     </g>
     <g id="line2d_16">
      <g>
       <use xlink:href="#ma765cc19de" x="30.103125" y="188.211712" style="stroke: #000000; stroke-width: 0.8"/>
      </g>
     </g>
     <g id="text_9">
      <!-- 1.0 -->
      <g transform="translate(7.2 192.01093) scale(0.1 -0.1)">
       <use xlink:href="#DejaVuSans-31"/>
       <use xlink:href="#DejaVuSans-2e" x="63.623047"/>
       <use xlink:href="#DejaVuSans-30" x="95.410156"/>
      </g>
     </g>
    </g>
    <g id="ytick_4">
     <g id="line2d_17">
      <path d="M 30.103125 132.558505 
L 532.303125 132.558505 
" clip-path="url(#pcb8c72f47b)" style="fill: none; stroke-dasharray: 0.8,1.32; stroke-dashoffset: 0; stroke: #b0b0b0; stroke-width: 0.8"/>
     </g>
     <g id="line2d_18">
      <g>
       <use xlink:href="#ma765cc19de" x="30.103125" y="132.558505" style="stroke: #000000; stroke-width: 0.8"/>
      </g>
     </g>
     <g id="text_10">
      <!-- 1.5 -->
      <g transform="translate(7.2 136.357724) scale(0.1 -0.1)">
       <use xlink:href="#DejaVuSans-31"/>
       <use xlink:href="#DejaVuSans-2e" x="63.623047"/>
       <use xlink:href="#DejaVuSans-35" x="95.410156"/>
      </g>
     </g>
    </g>
    <g id="ytick_5">
     <g id="line2d_19">
      <path d="M 30.103125 76.905298 
L 532.303125 76.905298 
" clip-path="url(#pcb8c72f47b)" style="fill: none; stroke-dasharray: 0.8,1.32; stroke-dashoffset: 0; stroke: #b0b0b0; stroke-width: 0.8"/>
     </g>
     <g id="line2d_20">
      <g>
       <use xlink:href="#ma765cc19de" x="30.103125" y="76.905298" style="stroke: #000000; stroke-width: 0.8"/>
      </g>
     </g>
     <g id="text_11">
      <!-- 2.0 -->
      <g transform="translate(7.2 80.704517) scale(0.1 -0.1)">
       <use xlink:href="#DejaVuSans-32"/>
       <use xlink:href="#DejaVuSans-2e" x="63.623047"/>
       <use xlink:href="#DejaVuSans-30" x="95.410156"/>
      </g>
     </g>
    </g>
   </g>
   <g id="line2d_21">
    <path d="M 226.80264 297.111101 
L 227.959409 296.15045 
L 229.055294 294.944224 
L 230.090297 293.475908 
L 231.1253 291.61901 
L 232.160303 289.298544 
L 233.195307 286.43353 
L 234.291192 282.712058 
L 235.387078 278.182954 
L 236.543846 272.417655 
L 237.761497 265.1453 
L 239.04003 256.079971 
L 240.379446 244.94758 
L 241.840627 230.905263 
L 243.545338 212.216459 
L 245.676226 186.141871 
L 250.851242 121.58052 
L 252.312423 106.745182 
L 253.469191 97.132622 
L 254.443311 90.785937 
L 255.234784 86.933405 
L 255.904492 84.643652 
L 256.452435 83.454475 
L 256.878613 82.962902 
L 257.243908 82.845697 
L 257.548321 82.962902 
L 257.913616 83.360928 
L 258.339794 84.17809 
L 258.887736 85.78003 
L 259.557444 88.56051 
L 260.348917 92.965535 
L 261.262155 99.455341 
L 262.358041 109.026308 
L 263.636574 122.253197 
L 265.341285 142.407824 
L 269.05512 190.000802 
L 271.368656 217.787422 
L 273.13425 236.397649 
L 274.656313 250.216784 
L 276.056611 261.016015 
L 277.396027 269.662639 
L 278.67456 276.476584 
L 279.892211 281.778942 
L 281.048979 285.865053 
L 282.205748 289.145904 
L 283.301633 291.61901 
L 284.397519 293.572338 
L 285.493404 295.094641 
L 286.650173 296.321607 
L 287.624293 297.111101 
L 287.624293 297.111101 
" clip-path="url(#pcb8c72f47b)" style="fill: none; stroke-dasharray: 7.4,3.2; stroke-dashoffset: 0; stroke: #0000ff; stroke-width: 2"/>
   </g>
   <g id="line2d_22">
    <path d="M 408.141394 297.958195 
L 410.208158 297.219508 
L 411.99309 296.35025 
L 413.684078 295.27661 
L 415.281122 293.990081 
L 416.784223 292.491958 
L 418.287324 290.669923 
L 419.790424 288.477819 
L 421.293525 285.869255 
L 422.796626 282.799451 
L 424.299726 279.227451 
L 425.896771 274.843376 
L 427.587759 269.507732 
L 429.372691 263.084086 
L 431.251567 255.455872 
L 433.31833 246.105445 
L 435.760869 233.957596 
L 439.236789 215.371843 
L 443.652147 191.921621 
L 445.812855 181.640078 
L 447.503843 174.586979 
L 449.006944 169.248493 
L 450.228213 165.656748 
L 451.355538 162.994164 
L 452.294976 161.284524 
L 453.14047 160.158024 
L 453.892021 159.492876 
L 454.549627 159.174301 
L 455.207234 159.103408 
L 455.86484 159.280573 
L 456.522447 159.704857 
L 457.273997 160.489412 
L 458.119491 161.74748 
L 459.058929 163.598561 
L 460.092311 166.162798 
L 461.31358 169.862623 
L 462.628793 174.586979 
L 464.225838 181.222634 
L 466.104714 190.050306 
L 468.641196 203.162712 
L 476.438531 244.307116 
L 478.693182 254.64586 
L 480.666001 262.723523 
L 482.544877 269.507732 
L 484.329809 275.118641 
L 486.020797 279.702674 
L 487.617842 283.412128 
L 489.214886 286.562935 
L 490.717987 289.063088 
L 492.221088 291.158306 
L 493.724188 292.89508 
L 495.321233 294.398914 
L 496.918277 295.602321 
L 498.609266 296.602994 
L 500.488141 297.446544 
L 501.991242 297.958195 
L 501.991242 297.958195 
" clip-path="url(#pcb8c72f47b)" style="fill: none; stroke-dasharray: 7.4,3.2; stroke-dashoffset: 0; stroke: #a52a2a; stroke-width: 2"/>
   </g>
   <g id="line2d_23">
    <path d="M 55.356692 296.97077 
L 56.449735 295.954113 
L 57.48525 294.677563 
L 58.463236 293.123643 
L 59.441222 291.158488 
L 60.419208 288.702737 
L 61.454722 285.472481 
L 62.490237 281.489381 
L 63.58328 276.34918 
L 64.676323 270.128661 
L 65.826895 262.295806 
L 67.092524 252.045997 
L 68.415681 239.432791 
L 69.853896 223.556029 
L 71.522225 202.589613 
L 73.76584 171.274811 
L 77.735313 115.537438 
L 79.231056 97.920535 
L 80.381628 86.788706 
L 81.359614 79.356558 
L 82.165014 74.807254 
L 82.855357 72.116358 
L 83.373114 70.85785 
L 83.775815 70.337619 
L 84.120986 70.21358 
L 84.408629 70.337619 
L 84.753801 70.75885 
L 85.156501 71.623653 
L 85.674258 73.318987 
L 86.307072 76.261571 
L 87.054944 80.923411 
L 87.917873 87.791576 
L 88.953388 97.920535 
L 90.219016 112.634502 
L 91.887346 134.853792 
L 98.330547 223.556029 
L 99.941348 241.188244 
L 101.379563 254.530146 
L 102.70272 264.790278 
L 103.968349 272.886824 
L 105.176449 279.18173 
L 106.327021 284.018913 
L 107.420064 287.702975 
L 108.513108 290.627885 
L 109.606151 292.915261 
L 110.699194 294.677563 
L 111.792237 296.015418 
L 112.827752 296.97077 
L 112.827752 296.97077 
" clip-path="url(#pcb8c72f47b)" style="fill: none; stroke-dasharray: 7.4,3.2; stroke-dashoffset: 0; stroke: #008000; stroke-width: 2"/>
   </g>
   <g id="patch_243">
    <path d="M 30.103125 299.518125 
L 30.103125 22.318125 
" style="fill: none; stroke: #000000; stroke-width: 0.8; stroke-linejoin: miter; stroke-linecap: square"/>
   </g>
   <g id="patch_244">
    <path d="M 532.303125 299.518125 
L 532.303125 22.318125 
" style="fill: none; stroke: #000000; stroke-width: 0.8; stroke-linejoin: miter; stroke-linecap: square"/>
   </g>
   <g id="patch_245">
    <path d="M 30.103125 299.518125 
L 532.303125 299.518125 
" style="fill: none; stroke: #000000; stroke-width: 0.8; stroke-linejoin: miter; stroke-linecap: square"/>
   </g>
   <g id="patch_246">
    <path d="M 30.103125 22.318125 
L 532.303125 22.318125 
" style="fill: none; stroke: #000000; stroke-width: 0.8; stroke-linejoin: miter; stroke-linecap: square"/>
   </g>
   <g id="text_12">
    <!-- Central limit theorem, $n=100$ -->
    <g transform="translate(190.363125 16.318125) scale(0.12 -0.12)">
     <defs>
      <path id="DejaVuSans-43" d="M 4122 4306 
L 4122 3641 
Q 3803 3938 3442 4084 
Q 3081 4231 2675 4231 
Q 1875 4231 1450 3742 
Q 1025 3253 1025 2328 
Q 1025 1406 1450 917 
Q 1875 428 2675 428 
Q 3081 428 3442 575 
Q 3803 722 4122 1019 
L 4122 359 
Q 3791 134 3420 21 
Q 3050 -91 2638 -91 
Q 1578 -91 968 557 
Q 359 1206 359 2328 
Q 359 3453 968 4101 
Q 1578 4750 2638 4750 
Q 3056 4750 3426 4639 
Q 3797 4528 4122 4306 
z
" transform="scale(0.015625)"/>
      <path id="DejaVuSans-65" d="M 3597 1894 
L 3597 1613 
L 953 1613 
Q 991 1019 1311 708 
Q 1631 397 2203 397 
Q 2534 397 2845 478 
Q 3156 559 3463 722 
L 3463 178 
Q 3153 47 2828 -22 
Q 2503 -91 2169 -91 
Q 1331 -91 842 396 
Q 353 884 353 1716 
Q 353 2575 817 3079 
Q 1281 3584 2069 3584 
Q 2775 3584 3186 3129 
Q 3597 2675 3597 1894 
z
M 3022 2063 
Q 3016 2534 2758 2815 
Q 2500 3097 2075 3097 
Q 1594 3097 1305 2825 
Q 1016 2553 972 2059 
L 3022 2063 
z
" transform="scale(0.015625)"/>
      <path id="DejaVuSans-6e" d="M 3513 2113 
L 3513 0 
L 2938 0 
L 2938 2094 
Q 2938 2591 2744 2837 
Q 2550 3084 2163 3084 
Q 1697 3084 1428 2787 
Q 1159 2491 1159 1978 
L 1159 0 
L 581 0 
L 581 3500 
L 1159 3500 
L 1159 2956 
Q 1366 3272 1645 3428 
Q 1925 3584 2291 3584 
Q 2894 3584 3203 3211 
Q 3513 2838 3513 2113 
z
" transform="scale(0.015625)"/>
      <path id="DejaVuSans-74" d="M 1172 4494 
L 1172 3500 
L 2356 3500 
L 2356 3053 
L 1172 3053 
L 1172 1153 
Q 1172 725 1289 603 
Q 1406 481 1766 481 
L 2356 481 
L 2356 0 
L 1766 0 
Q 1100 0 847 248 
Q 594 497 594 1153 
L 594 3053 
L 172 3053 
L 172 3500 
L 594 3500 
L 594 4494 
L 1172 4494 
z
" transform="scale(0.015625)"/>
      <path id="DejaVuSans-72" d="M 2631 2963 
Q 2534 3019 2420 3045 
Q 2306 3072 2169 3072 
Q 1681 3072 1420 2755 
Q 1159 2438 1159 1844 
L 1159 0 
L 581 0 
L 581 3500 
L 1159 3500 
L 1159 2956 
Q 1341 3275 1631 3429 
Q 1922 3584 2338 3584 
Q 2397 3584 2469 3576 
Q 2541 3569 2628 3553 
L 2631 2963 
z
" transform="scale(0.015625)"/>
      <path id="DejaVuSans-61" d="M 2194 1759 
Q 1497 1759 1228 1600 
Q 959 1441 959 1056 
Q 959 750 1161 570 
Q 1363 391 1709 391 
Q 2188 391 2477 730 
Q 2766 1069 2766 1631 
L 2766 1759 
L 2194 1759 
z
M 3341 1997 
L 3341 0 
L 2766 0 
L 2766 531 
Q 2569 213 2275 61 
Q 1981 -91 1556 -91 
Q 1019 -91 701 211 
Q 384 513 384 1019 
Q 384 1609 779 1909 
Q 1175 2209 1959 2209 
L 2766 2209 
L 2766 2266 
Q 2766 2663 2505 2880 
Q 2244 3097 1772 3097 
Q 1472 3097 1187 3025 
Q 903 2953 641 2809 
L 641 3341 
Q 956 3463 1253 3523 
Q 1550 3584 1831 3584 
Q 2591 3584 2966 3190 
Q 3341 2797 3341 1997 
z
" transform="scale(0.015625)"/>
      <path id="DejaVuSans-6c" d="M 603 4863 
L 1178 4863 
L 1178 0 
L 603 0 
L 603 4863 
z
" transform="scale(0.015625)"/>
      <path id="DejaVuSans-20" transform="scale(0.015625)"/>
      <path id="DejaVuSans-69" d="M 603 3500 
L 1178 3500 
L 1178 0 
L 603 0 
L 603 3500 
z
M 603 4863 
L 1178 4863 
L 1178 4134 
L 603 4134 
L 603 4863 
z
" transform="scale(0.015625)"/>
      <path id="DejaVuSans-6d" d="M 3328 2828 
Q 3544 3216 3844 3400 
Q 4144 3584 4550 3584 
Q 5097 3584 5394 3201 
Q 5691 2819 5691 2113 
L 5691 0 
L 5113 0 
L 5113 2094 
Q 5113 2597 4934 2840 
Q 4756 3084 4391 3084 
Q 3944 3084 3684 2787 
Q 3425 2491 3425 1978 
L 3425 0 
L 2847 0 
L 2847 2094 
Q 2847 2600 2669 2842 
Q 2491 3084 2119 3084 
Q 1678 3084 1418 2786 
Q 1159 2488 1159 1978 
L 1159 0 
L 581 0 
L 581 3500 
L 1159 3500 
L 1159 2956 
Q 1356 3278 1631 3431 
Q 1906 3584 2284 3584 
Q 2666 3584 2933 3390 
Q 3200 3197 3328 2828 
z
" transform="scale(0.015625)"/>
      <path id="DejaVuSans-68" d="M 3513 2113 
L 3513 0 
L 2938 0 
L 2938 2094 
Q 2938 2591 2744 2837 
Q 2550 3084 2163 3084 
Q 1697 3084 1428 2787 
Q 1159 2491 1159 1978 
L 1159 0 
L 581 0 
L 581 4863 
L 1159 4863 
L 1159 2956 
Q 1366 3272 1645 3428 
Q 1925 3584 2291 3584 
Q 2894 3584 3203 3211 
Q 3513 2838 3513 2113 
z
" transform="scale(0.015625)"/>
      <path id="DejaVuSans-6f" d="M 1959 3097 
Q 1497 3097 1228 2736 
Q 959 2375 959 1747 
Q 959 1119 1226 758 
Q 1494 397 1959 397 
Q 2419 397 2687 759 
Q 2956 1122 2956 1747 
Q 2956 2369 2687 2733 
Q 2419 3097 1959 3097 
z
M 1959 3584 
Q 2709 3584 3137 3096 
Q 3566 2609 3566 1747 
Q 3566 888 3137 398 
Q 2709 -91 1959 -91 
Q 1206 -91 779 398 
Q 353 888 353 1747 
Q 353 2609 779 3096 
Q 1206 3584 1959 3584 
z
" transform="scale(0.015625)"/>
      <path id="DejaVuSans-2c" d="M 750 794 
L 1409 794 
L 1409 256 
L 897 -744 
L 494 -744 
L 750 256 
L 750 794 
z
" transform="scale(0.015625)"/>
      <path id="DejaVuSans-Oblique-6e" d="M 3566 2113 
L 3156 0 
L 2578 0 
L 2988 2091 
Q 3016 2238 3031 2350 
Q 3047 2463 3047 2528 
Q 3047 2791 2881 2937 
Q 2716 3084 2419 3084 
Q 1956 3084 1622 2776 
Q 1288 2469 1184 1941 
L 800 0 
L 225 0 
L 903 3500 
L 1478 3500 
L 1363 2950 
Q 1603 3253 1940 3418 
Q 2278 3584 2650 3584 
Q 3113 3584 3367 3334 
Q 3622 3084 3622 2631 
Q 3622 2519 3608 2391 
Q 3594 2263 3566 2113 
z
" transform="scale(0.015625)"/>
      <path id="DejaVuSans-3d" d="M 678 2906 
L 4684 2906 
L 4684 2381 
L 678 2381 
L 678 2906 
z
M 678 1631 
L 4684 1631 
L 4684 1100 
L 678 1100 
L 678 1631 
z
" transform="scale(0.015625)"/>
     </defs>
     <use xlink:href="#DejaVuSans-43" transform="translate(0 0.015625)"/>
     <use xlink:href="#DejaVuSans-65" transform="translate(69.824219 0.015625)"/>
     <use xlink:href="#DejaVuSans-6e" transform="translate(131.347656 0.015625)"/>
     <use xlink:href="#DejaVuSans-74" transform="translate(194.726562 0.015625)"/>
     <use xlink:href="#DejaVuSans-72" transform="translate(233.935547 0.015625)"/>
     <use xlink:href="#DejaVuSans-61" transform="translate(275.048828 0.015625)"/>
     <use xlink:href="#DejaVuSans-6c" transform="translate(336.328125 0.015625)"/>
     <use xlink:href="#DejaVuSans-20" transform="translate(364.111328 0.015625)"/>
     <use xlink:href="#DejaVuSans-6c" transform="translate(395.898438 0.015625)"/>
     <use xlink:href="#DejaVuSans-69" transform="translate(423.681641 0.015625)"/>
     <use xlink:href="#DejaVuSans-6d" transform="translate(451.464844 0.015625)"/>
     <use xlink:href="#DejaVuSans-69" transform="translate(548.876953 0.015625)"/>
     <use xlink:href="#DejaVuSans-74" transform="translate(576.660156 0.015625)"/>
     <use xlink:href="#DejaVuSans-20" transform="translate(615.869141 0.015625)"/>
     <use xlink:href="#DejaVuSans-74" transform="translate(647.65625 0.015625)"/>
     <use xlink:href="#DejaVuSans-68" transform="translate(686.865234 0.015625)"/>
     <use xlink:href="#DejaVuSans-65" transform="translate(750.244141 0.015625)"/>
     <use xlink:href="#DejaVuSans-6f" transform="translate(811.767578 0.015625)"/>
     <use xlink:href="#DejaVuSans-72" transform="translate(872.949219 0.015625)"/>
     <use xlink:href="#DejaVuSans-65" transform="translate(914.0625 0.015625)"/>
     <use xlink:href="#DejaVuSans-6d" transform="translate(975.585938 0.015625)"/>
     <use xlink:href="#DejaVuSans-2c" transform="translate(1072.998047 0.015625)"/>
     <use xlink:href="#DejaVuSans-20" transform="translate(1104.785156 0.015625)"/>
     <use xlink:href="#DejaVuSans-Oblique-6e" transform="translate(1136.572266 0.015625)"/>
     <use xlink:href="#DejaVuSans-3d" transform="translate(1219.433594 0.015625)"/>
     <use xlink:href="#DejaVuSans-31" transform="translate(1322.705078 0.015625)"/>
     <use xlink:href="#DejaVuSans-30" transform="translate(1386.328125 0.015625)"/>
     <use xlink:href="#DejaVuSans-30" transform="translate(1449.951172 0.015625)"/>
    </g>
   </g>
   <g id="legend_1">
    <g id="patch_247">
     <path d="M 434.539062 74.3525 
L 525.303125 74.3525 
Q 527.303125 74.3525 527.303125 72.3525 
L 527.303125 29.318125 
Q 527.303125 27.318125 525.303125 27.318125 
L 434.539062 27.318125 
Q 432.539062 27.318125 432.539062 29.318125 
L 432.539062 72.3525 
Q 432.539062 74.3525 434.539062 74.3525 
z
" style="fill: #ffffff; opacity: 0.8; stroke: #cccccc; stroke-linejoin: miter"/>
    </g>
    <g id="patch_248">
     <path d="M 436.539062 38.916562 
L 456.539062 38.916562 
L 456.539062 31.916562 
L 436.539062 31.916562 
z
" style="fill: #ff0000"/>
    </g>
    <g id="text_13">
     <!-- Bin(20, 0.3) -->
     <g transform="translate(464.539062 38.916562) scale(0.1 -0.1)">
      <defs>
       <path id="DejaVuSans-42" d="M 1259 2228 
L 1259 519 
L 2272 519 
Q 2781 519 3026 730 
Q 3272 941 3272 1375 
Q 3272 1813 3026 2020 
Q 2781 2228 2272 2228 
L 1259 2228 
z
M 1259 4147 
L 1259 2741 
L 2194 2741 
Q 2656 2741 2882 2914 
Q 3109 3088 3109 3444 
Q 3109 3797 2882 3972 
Q 2656 4147 2194 4147 
L 1259 4147 
z
M 628 4666 
L 2241 4666 
Q 2963 4666 3353 4366 
Q 3744 4066 3744 3513 
Q 3744 3084 3544 2831 
Q 3344 2578 2956 2516 
Q 3422 2416 3680 2098 
Q 3938 1781 3938 1306 
Q 3938 681 3513 340 
Q 3088 0 2303 0 
L 628 0 
L 628 4666 
z
" transform="scale(0.015625)"/>
       <path id="DejaVuSans-28" d="M 1984 4856 
Q 1566 4138 1362 3434 
Q 1159 2731 1159 2009 
Q 1159 1288 1364 580 
Q 1569 -128 1984 -844 
L 1484 -844 
Q 1016 -109 783 600 
Q 550 1309 550 2009 
Q 550 2706 781 3412 
Q 1013 4119 1484 4856 
L 1984 4856 
z
" transform="scale(0.015625)"/>
       <path id="DejaVuSans-33" d="M 2597 2516 
Q 3050 2419 3304 2112 
Q 3559 1806 3559 1356 
Q 3559 666 3084 287 
Q 2609 -91 1734 -91 
Q 1441 -91 1130 -33 
Q 819 25 488 141 
L 488 750 
Q 750 597 1062 519 
Q 1375 441 1716 441 
Q 2309 441 2620 675 
Q 2931 909 2931 1356 
Q 2931 1769 2642 2001 
Q 2353 2234 1838 2234 
L 1294 2234 
L 1294 2753 
L 1863 2753 
Q 2328 2753 2575 2939 
Q 2822 3125 2822 3475 
Q 2822 3834 2567 4026 
Q 2313 4219 1838 4219 
Q 1578 4219 1281 4162 
Q 984 4106 628 3988 
L 628 4550 
Q 988 4650 1302 4700 
Q 1616 4750 1894 4750 
Q 2613 4750 3031 4423 
Q 3450 4097 3450 3541 
Q 3450 3153 3228 2886 
Q 3006 2619 2597 2516 
z
" transform="scale(0.015625)"/>
       <path id="DejaVuSans-29" d="M 513 4856 
L 1013 4856 
Q 1481 4119 1714 3412 
Q 1947 2706 1947 2009 
Q 1947 1309 1714 600 
Q 1481 -109 1013 -844 
L 513 -844 
Q 928 -128 1133 580 
Q 1338 1288 1338 2009 
Q 1338 2731 1133 3434 
Q 928 4138 513 4856 
z
" transform="scale(0.015625)"/>
      </defs>
      <use xlink:href="#DejaVuSans-42"/>
      <use xlink:href="#DejaVuSans-69" x="68.603516"/>
      <use xlink:href="#DejaVuSans-6e" x="96.386719"/>
      <use xlink:href="#DejaVuSans-28" x="159.765625"/>
      <use xlink:href="#DejaVuSans-32" x="198.779297"/>
      <use xlink:href="#DejaVuSans-30" x="262.402344"/>
      <use xlink:href="#DejaVuSans-2c" x="326.025391"/>
      <use xlink:href="#DejaVuSans-20" x="357.8125"/>
      <use xlink:href="#DejaVuSans-30" x="389.599609"/>
      <use xlink:href="#DejaVuSans-2e" x="453.222656"/>
      <use xlink:href="#DejaVuSans-33" x="485.009766"/>
      <use xlink:href="#DejaVuSans-29" x="548.632812"/>
     </g>
    </g>
    <g id="patch_249">
     <path d="M 436.539062 53.594688 
L 456.539062 53.594688 
L 456.539062 46.594688 
L 436.539062 46.594688 
z
" style="fill: #ffa500"/>
    </g>
    <g id="text_14">
     <!-- Pois(10) -->
     <g transform="translate(464.539062 53.594688) scale(0.1 -0.1)">
      <defs>
       <path id="DejaVuSans-50" d="M 1259 4147 
L 1259 2394 
L 2053 2394 
Q 2494 2394 2734 2622 
Q 2975 2850 2975 3272 
Q 2975 3691 2734 3919 
Q 2494 4147 2053 4147 
L 1259 4147 
z
M 628 4666 
L 2053 4666 
Q 2838 4666 3239 4311 
Q 3641 3956 3641 3272 
Q 3641 2581 3239 2228 
Q 2838 1875 2053 1875 
L 1259 1875 
L 1259 0 
L 628 0 
L 628 4666 
z
" transform="scale(0.015625)"/>
       <path id="DejaVuSans-73" d="M 2834 3397 
L 2834 2853 
Q 2591 2978 2328 3040 
Q 2066 3103 1784 3103 
Q 1356 3103 1142 2972 
Q 928 2841 928 2578 
Q 928 2378 1081 2264 
Q 1234 2150 1697 2047 
L 1894 2003 
Q 2506 1872 2764 1633 
Q 3022 1394 3022 966 
Q 3022 478 2636 193 
Q 2250 -91 1575 -91 
Q 1294 -91 989 -36 
Q 684 19 347 128 
L 347 722 
Q 666 556 975 473 
Q 1284 391 1588 391 
Q 1994 391 2212 530 
Q 2431 669 2431 922 
Q 2431 1156 2273 1281 
Q 2116 1406 1581 1522 
L 1381 1569 
Q 847 1681 609 1914 
Q 372 2147 372 2553 
Q 372 3047 722 3315 
Q 1072 3584 1716 3584 
Q 2034 3584 2315 3537 
Q 2597 3491 2834 3397 
z
" transform="scale(0.015625)"/>
      </defs>
      <use xlink:href="#DejaVuSans-50"/>
      <use xlink:href="#DejaVuSans-6f" x="56.677734"/>
      <use xlink:href="#DejaVuSans-69" x="117.859375"/>
      <use xlink:href="#DejaVuSans-73" x="145.642578"/>
      <use xlink:href="#DejaVuSans-28" x="197.742188"/>
      <use xlink:href="#DejaVuSans-31" x="236.755859"/>
      <use xlink:href="#DejaVuSans-30" x="300.378906"/>
      <use xlink:href="#DejaVuSans-29" x="364.001953"/>
     </g>
    </g>
    <g id="patch_250">
     <path d="M 436.539062 68.272812 
L 456.539062 68.272812 
L 456.539062 61.272812 
L 436.539062 61.272812 
z
" style="fill: #bf00bf"/>
    </g>
    <g id="text_15">
     <!-- Geom(0.4) -->
     <g transform="translate(464.539062 68.272812) scale(0.1 -0.1)">
      <defs>
       <path id="DejaVuSans-47" d="M 3809 666 
L 3809 1919 
L 2778 1919 
L 2778 2438 
L 4434 2438 
L 4434 434 
Q 4069 175 3628 42 
Q 3188 -91 2688 -91 
Q 1594 -91 976 548 
Q 359 1188 359 2328 
Q 359 3472 976 4111 
Q 1594 4750 2688 4750 
Q 3144 4750 3555 4637 
Q 3966 4525 4313 4306 
L 4313 3634 
Q 3963 3931 3569 4081 
Q 3175 4231 2741 4231 
Q 1884 4231 1454 3753 
Q 1025 3275 1025 2328 
Q 1025 1384 1454 906 
Q 1884 428 2741 428 
Q 3075 428 3337 486 
Q 3600 544 3809 666 
z
" transform="scale(0.015625)"/>
      </defs>
      <use xlink:href="#DejaVuSans-47"/>
      <use xlink:href="#DejaVuSans-65" x="77.490234"/>
      <use xlink:href="#DejaVuSans-6f" x="139.013672"/>
      <use xlink:href="#DejaVuSans-6d" x="200.195312"/>
      <use xlink:href="#DejaVuSans-28" x="297.607422"/>
      <use xlink:href="#DejaVuSans-30" x="336.621094"/>
      <use xlink:href="#DejaVuSans-2e" x="400.244141"/>
      <use xlink:href="#DejaVuSans-34" x="432.03125"/>
      <use xlink:href="#DejaVuSans-29" x="495.654297"/>
     </g>
    </g>
   </g>
  </g>
 </g>
 <defs>
  <clipPath id="pcb8c72f47b">
   <rect x="30.103125" y="22.318125" width="502.2" height="277.2"/>
  </clipPath>
 </defs>
</svg>