<?xml version="1.0" encoding="utf-8" standalone="no"?>
<!DOCTYPE svg PUBLIC "-//W3C//DTD SVG 1.1//EN"
  "http://www.w3.org/Graphics/SVG/1.1/DTD/svg11.dtd">
<svg xmlns:xlink="http://www.w3.org/1999/xlink" width="529.9625pt" height="337.074375pt" viewBox="0 0 529.9625 337.074375" xmlns="http://www.w3.org/2000/svg" version="1.1">
 <metadata>
  <rdf:RDF xmlns:dc="http://purl.org/dc/elements/1.1/" xmlns:cc="http://creativecommons.org/ns#" xmlns:rdf="http://www.w3.org/1999/02/22-rdf-syntax-ns#">
   <cc:Work>
    <dc:type rdf:resource="http://purl.org/dc/dcmitype/StillImage"/>
    <dc:date>2024-02-20T18:34:08.065472</dc:date>
    <dc:format>image/svg+xml</dc:format>
    <dc:creator>
     <cc:Agent>
      <dc:title>Matplotlib v3.7.1, https://matplotlib.org/</dc:title>
     </cc:Agent>
    </dc:creator>
   </cc:Work>
  </rdf:RDF>
 </metadata>
 <defs>
  <style type="text/css">*{stroke-linejoin: round; stroke-linecap: butt}</style>
 </defs>
 <g id="figure_1">
  <g id="patch_1">
   <path d="M 0 337.074375 
L 529.9625 337.074375 
L 529.9625 0 
L 0 0 
z
" style="fill: #ffffff"/>
  </g>
  <g id="axes_1">
   <g id="patch_2">
    <path d="M 20.5625 299.518125 
L 522.7625 299.518125 
L 522.7625 22.318125 
L 20.5625 22.318125 
z
" style="fill: #ffffff"/>
   </g>
   <g id="patch_3">
    <path d="M 238.098486 299.518125 
L 238.475145 299.518125 
L 238.475145 297.824103 
L 238.098486 297.824103 
z
" clip-path="url(#p73b9230a7c)" style="fill: #ff0000"/>
   </g>
   <g id="patch_4">
    <path d="M 238.475145 299.518125 
L 238.851805 299.518125 
L 238.851805 298.953451 
L 238.475145 298.953451 
z
" clip-path="url(#p73b9230a7c)" style="fill: #ff0000"/>
   </g>
   <g id="patch_5">
    <path d="M 238.851805 299.518125 
L 239.228464 299.518125 
L 239.228464 298.953451 
L 238.851805 298.953451 
z
" clip-path="url(#p73b9230a7c)" style="fill: #ff0000"/>
   </g>
   <g id="patch_6">
    <path d="M 239.228464 299.518125 
L 239.605123 299.518125 
L 239.605123 298.388777 
L 239.228464 298.388777 
z
" clip-path="url(#p73b9230a7c)" style="fill: #ff0000"/>
   </g>
   <g id="patch_7">
    <path d="M 239.605123 299.518125 
L 239.981783 299.518125 
L 239.981783 298.953451 
L 239.605123 298.953451 
z
" clip-path="url(#p73b9230a7c)" style="fill: #ff0000"/>
   </g>
   <g id="patch_8">
    <path d="M 239.981783 299.518125 
L 240.358442 299.518125 
L 240.358442 298.388777 
L 239.981783 298.388777 
z
" clip-path="url(#p73b9230a7c)" style="fill: #ff0000"/>
   </g>
   <g id="patch_9">
    <path d="M 240.358442 299.518125 
L 240.735101 299.518125 
L 240.735101 298.953451 
L 240.358442 298.953451 
z
" clip-path="url(#p73b9230a7c)" style="fill: #ff0000"/>
   </g>
   <g id="patch_10">
    <path d="M 240.735101 299.518125 
L 241.111761 299.518125 
L 241.111761 298.388777 
L 240.735101 298.388777 
z
" clip-path="url(#p73b9230a7c)" style="fill: #ff0000"/>
   </g>
   <g id="patch_11">
    <path d="M 241.111761 299.518125 
L 241.48842 299.518125 
L 241.48842 297.259429 
L 241.111761 297.259429 
z
" clip-path="url(#p73b9230a7c)" style="fill: #ff0000"/>
   </g>
   <g id="patch_12">
    <path d="M 241.48842 299.518125 
L 241.86508 299.518125 
L 241.86508 295.565406 
L 241.48842 295.565406 
z
" clip-path="url(#p73b9230a7c)" style="fill: #ff0000"/>
   </g>
   <g id="patch_13">
    <path d="M 241.86508 299.518125 
L 242.241739 299.518125 
L 242.241739 295.000732 
L 241.86508 295.000732 
z
" clip-path="url(#p73b9230a7c)" style="fill: #ff0000"/>
   </g>
   <g id="patch_14">
    <path d="M 242.241739 299.518125 
L 242.618398 299.518125 
L 242.618398 293.30671 
L 242.241739 293.30671 
z
" clip-path="url(#p73b9230a7c)" style="fill: #ff0000"/>
   </g>
   <g id="patch_15">
    <path d="M 242.618398 299.518125 
L 242.995058 299.518125 
L 242.995058 290.483339 
L 242.618398 290.483339 
z
" clip-path="url(#p73b9230a7c)" style="fill: #ff0000"/>
   </g>
   <g id="patch_16">
    <path d="M 242.995058 299.518125 
L 243.371717 299.518125 
L 243.371717 290.483339 
L 242.995058 290.483339 
z
" clip-path="url(#p73b9230a7c)" style="fill: #ff0000"/>
   </g>
   <g id="patch_17">
    <path d="M 243.371717 299.518125 
L 243.748376 299.518125 
L 243.748376 284.271924 
L 243.371717 284.271924 
z
" clip-path="url(#p73b9230a7c)" style="fill: #ff0000"/>
   </g>
   <g id="patch_18">
    <path d="M 243.748376 299.518125 
L 244.125036 299.518125 
L 244.125036 282.013228 
L 243.748376 282.013228 
z
" clip-path="url(#p73b9230a7c)" style="fill: #ff0000"/>
   </g>
   <g id="patch_19">
    <path d="M 244.125036 299.518125 
L 244.501695 299.518125 
L 244.501695 279.754532 
L 244.125036 279.754532 
z
" clip-path="url(#p73b9230a7c)" style="fill: #ff0000"/>
   </g>
   <g id="patch_20">
    <path d="M 244.501695 299.518125 
L 244.878354 299.518125 
L 244.878354 273.543117 
L 244.501695 273.543117 
z
" clip-path="url(#p73b9230a7c)" style="fill: #ff0000"/>
   </g>
   <g id="patch_21">
    <path d="M 244.878354 299.518125 
L 245.255014 299.518125 
L 245.255014 264.508331 
L 244.878354 264.508331 
z
" clip-path="url(#p73b9230a7c)" style="fill: #ff0000"/>
   </g>
   <g id="patch_22">
    <path d="M 245.255014 299.518125 
L 245.631673 299.518125 
L 245.631673 256.602894 
L 245.255014 256.602894 
z
" clip-path="url(#p73b9230a7c)" style="fill: #ff0000"/>
   </g>
   <g id="patch_23">
    <path d="M 245.631673 299.518125 
L 246.008333 299.518125 
L 246.008333 261.684961 
L 245.631673 261.684961 
z
" clip-path="url(#p73b9230a7c)" style="fill: #ff0000"/>
   </g>
   <g id="patch_24">
    <path d="M 246.008333 299.518125 
L 246.384992 299.518125 
L 246.384992 252.085501 
L 246.008333 252.085501 
z
" clip-path="url(#p73b9230a7c)" style="fill: #ff0000"/>
   </g>
   <g id="patch_25">
    <path d="M 246.384992 299.518125 
L 246.761651 299.518125 
L 246.761651 243.615389 
L 246.384992 243.615389 
z
" clip-path="url(#p73b9230a7c)" style="fill: #ff0000"/>
   </g>
   <g id="patch_26">
    <path d="M 246.761651 299.518125 
L 247.138311 299.518125 
L 247.138311 227.239841 
L 246.761651 227.239841 
z
" clip-path="url(#p73b9230a7c)" style="fill: #ff0000"/>
   </g>
   <g id="patch_27">
    <path d="M 247.138311 299.518125 
L 247.51497 299.518125 
L 247.51497 214.817011 
L 247.138311 214.817011 
z
" clip-path="url(#p73b9230a7c)" style="fill: #ff0000"/>
   </g>
   <g id="patch_28">
    <path d="M 247.51497 299.518125 
L 247.891629 299.518125 
L 247.891629 204.652877 
L 247.51497 204.652877 
z
" clip-path="url(#p73b9230a7c)" style="fill: #ff0000"/>
   </g>
   <g id="patch_29">
    <path d="M 247.891629 299.518125 
L 248.268289 299.518125 
L 248.268289 191.665373 
L 247.891629 191.665373 
z
" clip-path="url(#p73b9230a7c)" style="fill: #ff0000"/>
   </g>
   <g id="patch_30">
    <path d="M 248.268289 299.518125 
L 248.644948 299.518125 
L 248.644948 173.031127 
L 248.268289 173.031127 
z
" clip-path="url(#p73b9230a7c)" style="fill: #ff0000"/>
   </g>
   <g id="patch_31">
    <path d="M 248.644948 299.518125 
L 249.021607 299.518125 
L 249.021607 161.172971 
L 248.644948 161.172971 
z
" clip-path="url(#p73b9230a7c)" style="fill: #ff0000"/>
   </g>
   <g id="patch_32">
    <path d="M 249.021607 299.518125 
L 249.398267 299.518125 
L 249.398267 156.090904 
L 249.021607 156.090904 
z
" clip-path="url(#p73b9230a7c)" style="fill: #ff0000"/>
   </g>
   <g id="patch_33">
    <path d="M 249.398267 299.518125 
L 249.774926 299.518125 
L 249.774926 139.715356 
L 249.398267 139.715356 
z
" clip-path="url(#p73b9230a7c)" style="fill: #ff0000"/>
   </g>
   <g id="patch_34">
    <path d="M 249.774926 299.518125 
L 250.151585 299.518125 
L 250.151585 147.620793 
L 249.774926 147.620793 
z
" clip-path="url(#p73b9230a7c)" style="fill: #ff0000"/>
   </g>
   <g id="patch_35">
    <path d="M 250.151585 299.518125 
L 250.528245 299.518125 
L 250.528245 121.645785 
L 250.151585 121.645785 
z
" clip-path="url(#p73b9230a7c)" style="fill: #ff0000"/>
   </g>
   <g id="patch_36">
    <path d="M 250.528245 299.518125 
L 250.904904 299.518125 
L 250.904904 86.635991 
L 250.528245 86.635991 
z
" clip-path="url(#p73b9230a7c)" style="fill: #ff0000"/>
   </g>
   <g id="patch_37">
    <path d="M 250.904904 299.518125 
L 251.281564 299.518125 
L 251.281564 96.23545 
L 250.904904 96.23545 
z
" clip-path="url(#p73b9230a7c)" style="fill: #ff0000"/>
   </g>
   <g id="patch_38">
    <path d="M 251.281564 299.518125 
L 251.658223 299.518125 
L 251.658223 70.260442 
L 251.281564 70.260442 
z
" clip-path="url(#p73b9230a7c)" style="fill: #ff0000"/>
   </g>
   <g id="patch_39">
    <path d="M 251.658223 299.518125 
L 252.034882 299.518125 
L 252.034882 77.036531 
L 251.658223 77.036531 
z
" clip-path="url(#p73b9230a7c)" style="fill: #ff0000"/>
   </g>
   <g id="patch_40">
    <path d="M 252.034882 299.518125 
L 252.411542 299.518125 
L 252.411542 80.424576 
L 252.034882 80.424576 
z
" clip-path="url(#p73b9230a7c)" style="fill: #ff0000"/>
   </g>
   <g id="patch_41">
    <path d="M 252.411542 299.518125 
L 252.788201 299.518125 
L 252.788201 65.743049 
L 252.411542 65.743049 
z
" clip-path="url(#p73b9230a7c)" style="fill: #ff0000"/>
   </g>
   <g id="patch_42">
    <path d="M 252.788201 299.518125 
L 253.16486 299.518125 
L 253.16486 70.825116 
L 252.788201 70.825116 
z
" clip-path="url(#p73b9230a7c)" style="fill: #ff0000"/>
   </g>
   <g id="patch_43">
    <path d="M 253.16486 299.518125 
L 253.54152 299.518125 
L 253.54152 70.825116 
L 253.16486 70.825116 
z
" clip-path="url(#p73b9230a7c)" style="fill: #ff0000"/>
   </g>
   <g id="patch_44">
    <path d="M 253.54152 299.518125 
L 253.918179 299.518125 
L 253.918179 90.588709 
L 253.54152 90.588709 
z
" clip-path="url(#p73b9230a7c)" style="fill: #ff0000"/>
   </g>
   <g id="patch_45">
    <path d="M 253.918179 299.518125 
L 254.294838 299.518125 
L 254.294838 87.200665 
L 253.918179 87.200665 
z
" clip-path="url(#p73b9230a7c)" style="fill: #ff0000"/>
   </g>
   <g id="patch_46">
    <path d="M 254.294838 299.518125 
L 254.671498 299.518125 
L 254.671498 117.693066 
L 254.294838 117.693066 
z
" clip-path="url(#p73b9230a7c)" style="fill: #ff0000"/>
   </g>
   <g id="patch_47">
    <path d="M 254.671498 299.518125 
L 255.048157 299.518125 
L 255.048157 121.08111 
L 254.671498 121.08111 
z
" clip-path="url(#p73b9230a7c)" style="fill: #ff0000"/>
   </g>
   <g id="patch_48">
    <path d="M 255.048157 299.518125 
L 255.424816 299.518125 
L 255.424816 117.693066 
L 255.048157 117.693066 
z
" clip-path="url(#p73b9230a7c)" style="fill: #ff0000"/>
   </g>
   <g id="patch_49">
    <path d="M 255.424816 299.518125 
L 255.801476 299.518125 
L 255.801476 129.551222 
L 255.424816 129.551222 
z
" clip-path="url(#p73b9230a7c)" style="fill: #ff0000"/>
   </g>
   <g id="patch_50">
    <path d="M 255.801476 299.518125 
L 256.178135 299.518125 
L 256.178135 174.160476 
L 255.801476 174.160476 
z
" clip-path="url(#p73b9230a7c)" style="fill: #ff0000"/>
   </g>
   <g id="patch_51">
    <path d="M 256.178135 299.518125 
L 256.554795 299.518125 
L 256.554795 163.431668 
L 256.178135 163.431668 
z
" clip-path="url(#p73b9230a7c)" style="fill: #ff0000"/>
   </g>
   <g id="patch_52">
    <path d="M 256.554795 299.518125 
L 256.931454 299.518125 
L 256.931454 175.289824 
L 256.554795 175.289824 
z
" clip-path="url(#p73b9230a7c)" style="fill: #ff0000"/>
   </g>
   <g id="patch_53">
    <path d="M 256.931454 299.518125 
L 257.308113 299.518125 
L 257.308113 200.700158 
L 256.931454 200.700158 
z
" clip-path="url(#p73b9230a7c)" style="fill: #ff0000"/>
   </g>
   <g id="patch_54">
    <path d="M 257.308113 299.518125 
L 257.684773 299.518125 
L 257.684773 195.618091 
L 257.308113 195.618091 
z
" clip-path="url(#p73b9230a7c)" style="fill: #ff0000"/>
   </g>
   <g id="patch_55">
    <path d="M 257.684773 299.518125 
L 258.061432 299.518125 
L 258.061432 204.088203 
L 257.684773 204.088203 
z
" clip-path="url(#p73b9230a7c)" style="fill: #ff0000"/>
   </g>
   <g id="patch_56">
    <path d="M 258.061432 299.518125 
L 258.438091 299.518125 
L 258.438091 215.946359 
L 258.061432 215.946359 
z
" clip-path="url(#p73b9230a7c)" style="fill: #ff0000"/>
   </g>
   <g id="patch_57">
    <path d="M 258.438091 299.518125 
L 258.814751 299.518125 
L 258.814751 230.627885 
L 258.438091 230.627885 
z
" clip-path="url(#p73b9230a7c)" style="fill: #ff0000"/>
   </g>
   <g id="patch_58">
    <path d="M 258.814751 299.518125 
L 259.19141 299.518125 
L 259.19141 240.227345 
L 258.814751 240.227345 
z
" clip-path="url(#p73b9230a7c)" style="fill: #ff0000"/>
   </g>
   <g id="patch_59">
    <path d="M 259.19141 299.518125 
L 259.568069 299.518125 
L 259.568069 249.826805 
L 259.19141 249.826805 
z
" clip-path="url(#p73b9230a7c)" style="fill: #ff0000"/>
   </g>
   <g id="patch_60">
    <path d="M 259.568069 299.518125 
L 259.944729 299.518125 
L 259.944729 266.202353 
L 259.568069 266.202353 
z
" clip-path="url(#p73b9230a7c)" style="fill: #ff0000"/>
   </g>
   <g id="patch_61">
    <path d="M 259.944729 299.518125 
L 260.321388 299.518125 
L 260.321388 267.896376 
L 259.944729 267.896376 
z
" clip-path="url(#p73b9230a7c)" style="fill: #ff0000"/>
   </g>
   <g id="patch_62">
    <path d="M 260.321388 299.518125 
L 260.698047 299.518125 
L 260.698047 272.978442 
L 260.321388 272.978442 
z
" clip-path="url(#p73b9230a7c)" style="fill: #ff0000"/>
   </g>
   <g id="patch_63">
    <path d="M 260.698047 299.518125 
L 261.074707 299.518125 
L 261.074707 278.060509 
L 260.698047 278.060509 
z
" clip-path="url(#p73b9230a7c)" style="fill: #ff0000"/>
   </g>
   <g id="patch_64">
    <path d="M 261.074707 299.518125 
L 261.451366 299.518125 
L 261.451366 284.836598 
L 261.074707 284.836598 
z
" clip-path="url(#p73b9230a7c)" style="fill: #ff0000"/>
   </g>
   <g id="patch_65">
    <path d="M 261.451366 299.518125 
L 261.828026 299.518125 
L 261.828026 284.271924 
L 261.451366 284.271924 
z
" clip-path="url(#p73b9230a7c)" style="fill: #ff0000"/>
   </g>
   <g id="patch_66">
    <path d="M 261.828026 299.518125 
L 262.204685 299.518125 
L 262.204685 289.918665 
L 261.828026 289.918665 
z
" clip-path="url(#p73b9230a7c)" style="fill: #ff0000"/>
   </g>
   <g id="patch_67">
    <path d="M 262.204685 299.518125 
L 262.581344 299.518125 
L 262.581344 292.742036 
L 262.204685 292.742036 
z
" clip-path="url(#p73b9230a7c)" style="fill: #ff0000"/>
   </g>
   <g id="patch_68">
    <path d="M 262.581344 299.518125 
L 262.958004 299.518125 
L 262.958004 294.436058 
L 262.581344 294.436058 
z
" clip-path="url(#p73b9230a7c)" style="fill: #ff0000"/>
   </g>
   <g id="patch_69">
    <path d="M 262.958004 299.518125 
L 263.334663 299.518125 
L 263.334663 293.871384 
L 262.958004 293.871384 
z
" clip-path="url(#p73b9230a7c)" style="fill: #ff0000"/>
   </g>
   <g id="patch_70">
    <path d="M 263.334663 299.518125 
L 263.711322 299.518125 
L 263.711322 292.742036 
L 263.334663 292.742036 
z
" clip-path="url(#p73b9230a7c)" style="fill: #ff0000"/>
   </g>
   <g id="patch_71">
    <path d="M 263.711322 299.518125 
L 264.087982 299.518125 
L 264.087982 296.13008 
L 263.711322 296.13008 
z
" clip-path="url(#p73b9230a7c)" style="fill: #ff0000"/>
   </g>
   <g id="patch_72">
    <path d="M 264.087982 299.518125 
L 264.464641 299.518125 
L 264.464641 293.871384 
L 264.087982 293.871384 
z
" clip-path="url(#p73b9230a7c)" style="fill: #ff0000"/>
   </g>
   <g id="patch_73">
    <path d="M 264.464641 299.518125 
L 264.8413 299.518125 
L 264.8413 297.824103 
L 264.464641 297.824103 
z
" clip-path="url(#p73b9230a7c)" style="fill: #ff0000"/>
   </g>
   <g id="patch_74">
    <path d="M 264.8413 299.518125 
L 265.21796 299.518125 
L 265.21796 298.388777 
L 264.8413 298.388777 
z
" clip-path="url(#p73b9230a7c)" style="fill: #ff0000"/>
   </g>
   <g id="patch_75">
    <path d="M 265.21796 299.518125 
L 265.594619 299.518125 
L 265.594619 297.824103 
L 265.21796 297.824103 
z
" clip-path="url(#p73b9230a7c)" style="fill: #ff0000"/>
   </g>
   <g id="patch_76">
    <path d="M 265.594619 299.518125 
L 265.971278 299.518125 
L 265.971278 298.388777 
L 265.594619 298.388777 
z
" clip-path="url(#p73b9230a7c)" style="fill: #ff0000"/>
   </g>
   <g id="patch_77">
    <path d="M 265.971278 299.518125 
L 266.347938 299.518125 
L 266.347938 299.518125 
L 265.971278 299.518125 
z
" clip-path="url(#p73b9230a7c)" style="fill: #ff0000"/>
   </g>
   <g id="patch_78">
    <path d="M 266.347938 299.518125 
L 266.724597 299.518125 
L 266.724597 299.518125 
L 266.347938 299.518125 
z
" clip-path="url(#p73b9230a7c)" style="fill: #ff0000"/>
   </g>
   <g id="patch_79">
    <path d="M 266.724597 299.518125 
L 267.101257 299.518125 
L 267.101257 299.518125 
L 266.724597 299.518125 
z
" clip-path="url(#p73b9230a7c)" style="fill: #ff0000"/>
   </g>
   <g id="patch_80">
    <path d="M 267.101257 299.518125 
L 267.477916 299.518125 
L 267.477916 298.953451 
L 267.101257 298.953451 
z
" clip-path="url(#p73b9230a7c)" style="fill: #ff0000"/>
   </g>
   <g id="patch_81">
    <path d="M 267.477916 299.518125 
L 267.854575 299.518125 
L 267.854575 299.518125 
L 267.477916 299.518125 
z
" clip-path="url(#p73b9230a7c)" style="fill: #ff0000"/>
   </g>
   <g id="patch_82">
    <path d="M 267.854575 299.518125 
L 268.231235 299.518125 
L 268.231235 298.953451 
L 267.854575 298.953451 
z
" clip-path="url(#p73b9230a7c)" style="fill: #ff0000"/>
   </g>
   <g id="patch_83">
    <path d="M 457.262763 299.518125 
L 457.796169 299.518125 
L 457.796169 298.720647 
L 457.262763 298.720647 
z
" clip-path="url(#p73b9230a7c)" style="fill: #ffa500"/>
   </g>
   <g id="patch_84">
    <path d="M 457.796169 299.518125 
L 458.329575 299.518125 
L 458.329575 298.321908 
L 457.796169 298.321908 
z
" clip-path="url(#p73b9230a7c)" style="fill: #ffa500"/>
   </g>
   <g id="patch_85">
    <path d="M 458.329575 299.518125 
L 458.862981 299.518125 
L 458.862981 299.518125 
L 458.329575 299.518125 
z
" clip-path="url(#p73b9230a7c)" style="fill: #ffa500"/>
   </g>
   <g id="patch_86">
    <path d="M 458.862981 299.518125 
L 459.396387 299.518125 
L 459.396387 296.726951 
L 458.862981 296.726951 
z
" clip-path="url(#p73b9230a7c)" style="fill: #ffa500"/>
   </g>
   <g id="patch_87">
    <path d="M 459.396387 299.518125 
L 459.929792 299.518125 
L 459.929792 297.12569 
L 459.396387 297.12569 
z
" clip-path="url(#p73b9230a7c)" style="fill: #ffa500"/>
   </g>
   <g id="patch_88">
    <path d="M 459.929792 299.518125 
L 460.463198 299.518125 
L 460.463198 297.524429 
L 459.929792 297.524429 
z
" clip-path="url(#p73b9230a7c)" style="fill: #ffa500"/>
   </g>
   <g id="patch_89">
    <path d="M 460.463198 299.518125 
L 460.996604 299.518125 
L 460.996604 296.328212 
L 460.463198 296.328212 
z
" clip-path="url(#p73b9230a7c)" style="fill: #ffa500"/>
   </g>
   <g id="patch_90">
    <path d="M 460.996604 299.518125 
L 461.53001 299.518125 
L 461.53001 296.726951 
L 460.996604 296.726951 
z
" clip-path="url(#p73b9230a7c)" style="fill: #ffa500"/>
   </g>
   <g id="patch_91">
    <path d="M 461.53001 299.518125 
L 462.063416 299.518125 
L 462.063416 297.12569 
L 461.53001 297.12569 
z
" clip-path="url(#p73b9230a7c)" style="fill: #ffa500"/>
   </g>
   <g id="patch_92">
    <path d="M 462.063416 299.518125 
L 462.596821 299.518125 
L 462.596821 295.131994 
L 462.063416 295.131994 
z
" clip-path="url(#p73b9230a7c)" style="fill: #ffa500"/>
   </g>
   <g id="patch_93">
    <path d="M 462.596821 299.518125 
L 463.130227 299.518125 
L 463.130227 293.537038 
L 462.596821 293.537038 
z
" clip-path="url(#p73b9230a7c)" style="fill: #ffa500"/>
   </g>
   <g id="patch_94">
    <path d="M 463.130227 299.518125 
L 463.663633 299.518125 
L 463.663633 291.543342 
L 463.130227 291.543342 
z
" clip-path="url(#p73b9230a7c)" style="fill: #ffa500"/>
   </g>
   <g id="patch_95">
    <path d="M 463.663633 299.518125 
L 464.197039 299.518125 
L 464.197039 288.752168 
L 463.663633 288.752168 
z
" clip-path="url(#p73b9230a7c)" style="fill: #ffa500"/>
   </g>
   <g id="patch_96">
    <path d="M 464.197039 299.518125 
L 464.730445 299.518125 
L 464.730445 287.157211 
L 464.197039 287.157211 
z
" clip-path="url(#p73b9230a7c)" style="fill: #ffa500"/>
   </g>
   <g id="patch_97">
    <path d="M 464.730445 299.518125 
L 465.26385 299.518125 
L 465.26385 279.581167 
L 464.730445 279.581167 
z
" clip-path="url(#p73b9230a7c)" style="fill: #ffa500"/>
   </g>
   <g id="patch_98">
    <path d="M 465.26385 299.518125 
L 465.797256 299.518125 
L 465.797256 284.764776 
L 465.26385 284.764776 
z
" clip-path="url(#p73b9230a7c)" style="fill: #ffa500"/>
   </g>
   <g id="patch_99">
    <path d="M 465.797256 299.518125 
L 466.330662 299.518125 
L 466.330662 270.410166 
L 465.797256 270.410166 
z
" clip-path="url(#p73b9230a7c)" style="fill: #ffa500"/>
   </g>
   <g id="patch_100">
    <path d="M 466.330662 299.518125 
L 466.864068 299.518125 
L 466.864068 273.20134 
L 466.330662 273.20134 
z
" clip-path="url(#p73b9230a7c)" style="fill: #ffa500"/>
   </g>
   <g id="patch_101">
    <path d="M 466.864068 299.518125 
L 467.397474 299.518125 
L 467.397474 263.232861 
L 466.864068 263.232861 
z
" clip-path="url(#p73b9230a7c)" style="fill: #ffa500"/>
   </g>
   <g id="patch_102">
    <path d="M 467.397474 299.518125 
L 467.930879 299.518125 
L 467.930879 267.618992 
L 467.397474 267.618992 
z
" clip-path="url(#p73b9230a7c)" style="fill: #ffa500"/>
   </g>
   <g id="patch_103">
    <path d="M 467.930879 299.518125 
L 468.464285 299.518125 
L 468.464285 255.258078 
L 467.930879 255.258078 
z
" clip-path="url(#p73b9230a7c)" style="fill: #ffa500"/>
   </g>
   <g id="patch_104">
    <path d="M 468.464285 299.518125 
L 468.997691 299.518125 
L 468.997691 248.080773 
L 468.464285 248.080773 
z
" clip-path="url(#p73b9230a7c)" style="fill: #ffa500"/>
   </g>
   <g id="patch_105">
    <path d="M 468.997691 299.518125 
L 469.531097 299.518125 
L 469.531097 245.688338 
L 468.997691 245.688338 
z
" clip-path="url(#p73b9230a7c)" style="fill: #ffa500"/>
   </g>
   <g id="patch_106">
    <path d="M 469.531097 299.518125 
L 470.064503 299.518125 
L 470.064503 233.327424 
L 469.531097 233.327424 
z
" clip-path="url(#p73b9230a7c)" style="fill: #ffa500"/>
   </g>
   <g id="patch_107">
    <path d="M 470.064503 299.518125 
L 470.597908 299.518125 
L 470.597908 228.542554 
L 470.064503 228.542554 
z
" clip-path="url(#p73b9230a7c)" style="fill: #ffa500"/>
   </g>
   <g id="patch_108">
    <path d="M 470.597908 299.518125 
L 471.131314 299.518125 
L 471.131314 222.561466 
L 470.597908 222.561466 
z
" clip-path="url(#p73b9230a7c)" style="fill: #ffa500"/>
   </g>
   <g id="patch_109">
    <path d="M 471.131314 299.518125 
L 471.66472 299.518125 
L 471.66472 222.561466 
L 471.131314 222.561466 
z
" clip-path="url(#p73b9230a7c)" style="fill: #ffa500"/>
   </g>
   <g id="patch_110">
    <path d="M 471.66472 299.518125 
L 472.198126 299.518125 
L 472.198126 202.225769 
L 471.66472 202.225769 
z
" clip-path="url(#p73b9230a7c)" style="fill: #ffa500"/>
   </g>
   <g id="patch_111">
    <path d="M 472.198126 299.518125 
L 472.731532 299.518125 
L 472.731532 196.244681 
L 472.198126 196.244681 
z
" clip-path="url(#p73b9230a7c)" style="fill: #ffa500"/>
   </g>
   <g id="patch_112">
    <path d="M 472.731532 299.518125 
L 473.264937 299.518125 
L 473.264937 177.90268 
L 472.731532 177.90268 
z
" clip-path="url(#p73b9230a7c)" style="fill: #ffa500"/>
   </g>
   <g id="patch_113">
    <path d="M 473.264937 299.518125 
L 473.798343 299.518125 
L 473.798343 156.769504 
L 473.264937 156.769504 
z
" clip-path="url(#p73b9230a7c)" style="fill: #ffa500"/>
   </g>
   <g id="patch_114">
    <path d="M 473.798343 299.518125 
L 474.331749 299.518125 
L 474.331749 182.288811 
L 473.798343 182.288811 
z
" clip-path="url(#p73b9230a7c)" style="fill: #ffa500"/>
   </g>
   <g id="patch_115">
    <path d="M 474.331749 299.518125 
L 474.865155 299.518125 
L 474.865155 163.149331 
L 474.331749 163.149331 
z
" clip-path="url(#p73b9230a7c)" style="fill: #ffa500"/>
   </g>
   <g id="patch_116">
    <path d="M 474.865155 299.518125 
L 475.398561 299.518125 
L 475.398561 174.712766 
L 474.865155 174.712766 
z
" clip-path="url(#p73b9230a7c)" style="fill: #ffa500"/>
   </g>
   <g id="patch_117">
    <path d="M 475.398561 299.518125 
L 475.931966 299.518125 
L 475.931966 155.972026 
L 475.398561 155.972026 
z
" clip-path="url(#p73b9230a7c)" style="fill: #ffa500"/>
   </g>
   <g id="patch_118">
    <path d="M 475.931966 299.518125 
L 476.465372 299.518125 
L 476.465372 153.97833 
L 475.931966 153.97833 
z
" clip-path="url(#p73b9230a7c)" style="fill: #ffa500"/>
   </g>
   <g id="patch_119">
    <path d="M 476.465372 299.518125 
L 476.998778 299.518125 
L 476.998778 155.573287 
L 476.465372 155.573287 
z
" clip-path="url(#p73b9230a7c)" style="fill: #ffa500"/>
   </g>
   <g id="patch_120">
    <path d="M 476.998778 299.518125 
L 477.532184 299.518125 
L 477.532184 160.358157 
L 476.998778 160.358157 
z
" clip-path="url(#p73b9230a7c)" style="fill: #ffa500"/>
   </g>
   <g id="patch_121">
    <path d="M 477.532184 299.518125 
L 478.06559 299.518125 
L 478.06559 150.389677 
L 477.532184 150.389677 
z
" clip-path="url(#p73b9230a7c)" style="fill: #ffa500"/>
   </g>
   <g id="patch_122">
    <path d="M 478.06559 299.518125 
L 478.598995 299.518125 
L 478.598995 160.756896 
L 478.06559 160.756896 
z
" clip-path="url(#p73b9230a7c)" style="fill: #ffa500"/>
   </g>
   <g id="patch_123">
    <path d="M 478.598995 299.518125 
L 479.132401 299.518125 
L 479.132401 158.7632 
L 478.598995 158.7632 
z
" clip-path="url(#p73b9230a7c)" style="fill: #ffa500"/>
   </g>
   <g id="patch_124">
    <path d="M 479.132401 299.518125 
L 479.665807 299.518125 
L 479.665807 164.345548 
L 479.132401 164.345548 
z
" clip-path="url(#p73b9230a7c)" style="fill: #ffa500"/>
   </g>
   <g id="patch_125">
    <path d="M 479.665807 299.518125 
L 480.199213 299.518125 
L 480.199213 181.092593 
L 479.665807 181.092593 
z
" clip-path="url(#p73b9230a7c)" style="fill: #ffa500"/>
   </g>
   <g id="patch_126">
    <path d="M 480.199213 299.518125 
L 480.732619 299.518125 
L 480.732619 171.124114 
L 480.199213 171.124114 
z
" clip-path="url(#p73b9230a7c)" style="fill: #ffa500"/>
   </g>
   <g id="patch_127">
    <path d="M 480.732619 299.518125 
L 481.266024 299.518125 
L 481.266024 199.434595 
L 480.732619 199.434595 
z
" clip-path="url(#p73b9230a7c)" style="fill: #ffa500"/>
   </g>
   <g id="patch_128">
    <path d="M 481.266024 299.518125 
L 481.79943 299.518125 
L 481.79943 173.11781 
L 481.266024 173.11781 
z
" clip-path="url(#p73b9230a7c)" style="fill: #ffa500"/>
   </g>
   <g id="patch_129">
    <path d="M 481.79943 299.518125 
L 482.332836 299.518125 
L 482.332836 216.18164 
L 481.79943 216.18164 
z
" clip-path="url(#p73b9230a7c)" style="fill: #ffa500"/>
   </g>
   <g id="patch_130">
    <path d="M 482.332836 299.518125 
L 482.866242 299.518125 
L 482.866242 200.630812 
L 482.332836 200.630812 
z
" clip-path="url(#p73b9230a7c)" style="fill: #ffa500"/>
   </g>
   <g id="patch_131">
    <path d="M 482.866242 299.518125 
L 483.399648 299.518125 
L 483.399648 212.194248 
L 482.866242 212.194248 
z
" clip-path="url(#p73b9230a7c)" style="fill: #ffa500"/>
   </g>
   <g id="patch_132">
    <path d="M 483.399648 299.518125 
L 483.933053 299.518125 
L 483.933053 225.35264 
L 483.399648 225.35264 
z
" clip-path="url(#p73b9230a7c)" style="fill: #ffa500"/>
   </g>
   <g id="patch_133">
    <path d="M 483.933053 299.518125 
L 484.466459 299.518125 
L 484.466459 218.574075 
L 483.933053 218.574075 
z
" clip-path="url(#p73b9230a7c)" style="fill: #ffa500"/>
   </g>
   <g id="patch_134">
    <path d="M 484.466459 299.518125 
L 484.999865 299.518125 
L 484.999865 230.53625 
L 484.466459 230.53625 
z
" clip-path="url(#p73b9230a7c)" style="fill: #ffa500"/>
   </g>
   <g id="patch_135">
    <path d="M 484.999865 299.518125 
L 485.533271 299.518125 
L 485.533271 241.302207 
L 484.999865 241.302207 
z
" clip-path="url(#p73b9230a7c)" style="fill: #ffa500"/>
   </g>
   <g id="patch_136">
    <path d="M 485.533271 299.518125 
L 486.066677 299.518125 
L 486.066677 255.656817 
L 485.533271 255.656817 
z
" clip-path="url(#p73b9230a7c)" style="fill: #ffa500"/>
   </g>
   <g id="patch_137">
    <path d="M 486.066677 299.518125 
L 486.600082 299.518125 
L 486.600082 254.859339 
L 486.066677 254.859339 
z
" clip-path="url(#p73b9230a7c)" style="fill: #ffa500"/>
   </g>
   <g id="patch_138">
    <path d="M 486.600082 299.518125 
L 487.133488 299.518125 
L 487.133488 262.036644 
L 486.600082 262.036644 
z
" clip-path="url(#p73b9230a7c)" style="fill: #ffa500"/>
   </g>
   <g id="patch_139">
    <path d="M 487.133488 299.518125 
L 487.666894 299.518125 
L 487.666894 262.834122 
L 487.133488 262.834122 
z
" clip-path="url(#p73b9230a7c)" style="fill: #ffa500"/>
   </g>
   <g id="patch_140">
    <path d="M 487.666894 299.518125 
L 488.2003 299.518125 
L 488.2003 274.796297 
L 487.666894 274.796297 
z
" clip-path="url(#p73b9230a7c)" style="fill: #ffa500"/>
   </g>
   <g id="patch_141">
    <path d="M 488.2003 299.518125 
L 488.733705 299.518125 
L 488.733705 275.195036 
L 488.2003 275.195036 
z
" clip-path="url(#p73b9230a7c)" style="fill: #ffa500"/>
   </g>
   <g id="patch_142">
    <path d="M 488.733705 299.518125 
L 489.267111 299.518125 
L 489.267111 276.391253 
L 488.733705 276.391253 
z
" clip-path="url(#p73b9230a7c)" style="fill: #ffa500"/>
   </g>
   <g id="patch_143">
    <path d="M 489.267111 299.518125 
L 489.800517 299.518125 
L 489.800517 286.758472 
L 489.267111 286.758472 
z
" clip-path="url(#p73b9230a7c)" style="fill: #ffa500"/>
   </g>
   <g id="patch_144">
    <path d="M 489.800517 299.518125 
L 490.333923 299.518125 
L 490.333923 286.758472 
L 489.800517 286.758472 
z
" clip-path="url(#p73b9230a7c)" style="fill: #ffa500"/>
   </g>
   <g id="patch_145">
    <path d="M 490.333923 299.518125 
L 490.867329 299.518125 
L 490.867329 290.347124 
L 490.333923 290.347124 
z
" clip-path="url(#p73b9230a7c)" style="fill: #ffa500"/>
   </g>
   <g id="patch_146">
    <path d="M 490.867329 299.518125 
L 491.400734 299.518125 
L 491.400734 286.359733 
L 490.867329 286.359733 
z
" clip-path="url(#p73b9230a7c)" style="fill: #ffa500"/>
   </g>
   <g id="patch_147">
    <path d="M 491.400734 299.518125 
L 491.93414 299.518125 
L 491.93414 289.150907 
L 491.400734 289.150907 
z
" clip-path="url(#p73b9230a7c)" style="fill: #ffa500"/>
   </g>
   <g id="patch_148">
    <path d="M 491.93414 299.518125 
L 492.467546 299.518125 
L 492.467546 293.138298 
L 491.93414 293.138298 
z
" clip-path="url(#p73b9230a7c)" style="fill: #ffa500"/>
   </g>
   <g id="patch_149">
    <path d="M 492.467546 299.518125 
L 493.000952 299.518125 
L 493.000952 295.530733 
L 492.467546 295.530733 
z
" clip-path="url(#p73b9230a7c)" style="fill: #ffa500"/>
   </g>
   <g id="patch_150">
    <path d="M 493.000952 299.518125 
L 493.534358 299.518125 
L 493.534358 293.935777 
L 493.000952 293.935777 
z
" clip-path="url(#p73b9230a7c)" style="fill: #ffa500"/>
   </g>
   <g id="patch_151">
    <path d="M 493.534358 299.518125 
L 494.067763 299.518125 
L 494.067763 295.131994 
L 493.534358 295.131994 
z
" clip-path="url(#p73b9230a7c)" style="fill: #ffa500"/>
   </g>
   <g id="patch_152">
    <path d="M 494.067763 299.518125 
L 494.601169 299.518125 
L 494.601169 295.131994 
L 494.067763 295.131994 
z
" clip-path="url(#p73b9230a7c)" style="fill: #ffa500"/>
   </g>
   <g id="patch_153">
    <path d="M 494.601169 299.518125 
L 495.134575 299.518125 
L 495.134575 298.321908 
L 494.601169 298.321908 
z
" clip-path="url(#p73b9230a7c)" style="fill: #ffa500"/>
   </g>
   <g id="patch_154">
    <path d="M 495.134575 299.518125 
L 495.667981 299.518125 
L 495.667981 298.321908 
L 495.134575 298.321908 
z
" clip-path="url(#p73b9230a7c)" style="fill: #ffa500"/>
   </g>
   <g id="patch_155">
    <path d="M 495.667981 299.518125 
L 496.201387 299.518125 
L 496.201387 297.923168 
L 495.667981 297.923168 
z
" clip-path="url(#p73b9230a7c)" style="fill: #ffa500"/>
   </g>
   <g id="patch_156">
    <path d="M 496.201387 299.518125 
L 496.734792 299.518125 
L 496.734792 298.720647 
L 496.201387 298.720647 
z
" clip-path="url(#p73b9230a7c)" style="fill: #ffa500"/>
   </g>
   <g id="patch_157">
    <path d="M 496.734792 299.518125 
L 497.268198 299.518125 
L 497.268198 298.720647 
L 496.734792 298.720647 
z
" clip-path="url(#p73b9230a7c)" style="fill: #ffa500"/>
   </g>
   <g id="patch_158">
    <path d="M 497.268198 299.518125 
L 497.801604 299.518125 
L 497.801604 299.518125 
L 497.268198 299.518125 
z
" clip-path="url(#p73b9230a7c)" style="fill: #ffa500"/>
   </g>
   <g id="patch_159">
    <path d="M 497.801604 299.518125 
L 498.33501 299.518125 
L 498.33501 298.321908 
L 497.801604 298.321908 
z
" clip-path="url(#p73b9230a7c)" style="fill: #ffa500"/>
   </g>
   <g id="patch_160">
    <path d="M 498.33501 299.518125 
L 498.868416 299.518125 
L 498.868416 299.518125 
L 498.33501 299.518125 
z
" clip-path="url(#p73b9230a7c)" style="fill: #ffa500"/>
   </g>
   <g id="patch_161">
    <path d="M 498.868416 299.518125 
L 499.401821 299.518125 
L 499.401821 299.518125 
L 498.868416 299.518125 
z
" clip-path="url(#p73b9230a7c)" style="fill: #ffa500"/>
   </g>
   <g id="patch_162">
    <path d="M 499.401821 299.518125 
L 499.935227 299.518125 
L 499.935227 299.119386 
L 499.401821 299.119386 
z
" clip-path="url(#p73b9230a7c)" style="fill: #ffa500"/>
   </g>
   <g id="patch_163">
    <path d="M 43.389773 299.518125 
L 43.73056 299.518125 
L 43.73056 298.269898 
L 43.389773 298.269898 
z
" clip-path="url(#p73b9230a7c)" style="fill: #bf00bf"/>
   </g>
   <g id="patch_164">
    <path d="M 43.73056 299.518125 
L 44.071347 299.518125 
L 44.071347 298.894012 
L 43.73056 298.894012 
z
" clip-path="url(#p73b9230a7c)" style="fill: #bf00bf"/>
   </g>
   <g id="patch_165">
    <path d="M 44.071347 299.518125 
L 44.412134 299.518125 
L 44.412134 298.269898 
L 44.071347 298.269898 
z
" clip-path="url(#p73b9230a7c)" style="fill: #bf00bf"/>
   </g>
   <g id="patch_166">
    <path d="M 44.412134 299.518125 
L 44.752921 299.518125 
L 44.752921 299.518125 
L 44.412134 299.518125 
z
" clip-path="url(#p73b9230a7c)" style="fill: #bf00bf"/>
   </g>
   <g id="patch_167">
    <path d="M 44.752921 299.518125 
L 45.093708 299.518125 
L 45.093708 298.894012 
L 44.752921 298.894012 
z
" clip-path="url(#p73b9230a7c)" style="fill: #bf00bf"/>
   </g>
   <g id="patch_168">
    <path d="M 45.093708 299.518125 
L 45.434495 299.518125 
L 45.434495 297.645785 
L 45.093708 297.645785 
z
" clip-path="url(#p73b9230a7c)" style="fill: #bf00bf"/>
   </g>
   <g id="patch_169">
    <path d="M 45.434495 299.518125 
L 45.775282 299.518125 
L 45.775282 298.894012 
L 45.434495 298.894012 
z
" clip-path="url(#p73b9230a7c)" style="fill: #bf00bf"/>
   </g>
   <g id="patch_170">
    <path d="M 45.775282 299.518125 
L 46.116069 299.518125 
L 46.116069 297.021671 
L 45.775282 297.021671 
z
" clip-path="url(#p73b9230a7c)" style="fill: #bf00bf"/>
   </g>
   <g id="patch_171">
    <path d="M 46.116069 299.518125 
L 46.456856 299.518125 
L 46.456856 295.773444 
L 46.116069 295.773444 
z
" clip-path="url(#p73b9230a7c)" style="fill: #bf00bf"/>
   </g>
   <g id="patch_172">
    <path d="M 46.456856 299.518125 
L 46.797643 299.518125 
L 46.797643 295.149331 
L 46.456856 295.149331 
z
" clip-path="url(#p73b9230a7c)" style="fill: #bf00bf"/>
   </g>
   <g id="patch_173">
    <path d="M 46.797643 299.518125 
L 47.13843 299.518125 
L 47.13843 289.532309 
L 46.797643 289.532309 
z
" clip-path="url(#p73b9230a7c)" style="fill: #bf00bf"/>
   </g>
   <g id="patch_174">
    <path d="M 47.13843 299.518125 
L 47.479217 299.518125 
L 47.479217 287.035855 
L 47.13843 287.035855 
z
" clip-path="url(#p73b9230a7c)" style="fill: #bf00bf"/>
   </g>
   <g id="patch_175">
    <path d="M 47.479217 299.518125 
L 47.820004 299.518125 
L 47.820004 282.667061 
L 47.479217 282.667061 
z
" clip-path="url(#p73b9230a7c)" style="fill: #bf00bf"/>
   </g>
   <g id="patch_176">
    <path d="M 47.820004 299.518125 
L 48.160791 299.518125 
L 48.160791 281.418834 
L 47.820004 281.418834 
z
" clip-path="url(#p73b9230a7c)" style="fill: #bf00bf"/>
   </g>
   <g id="patch_177">
    <path d="M 48.160791 299.518125 
L 48.501578 299.518125 
L 48.501578 278.298267 
L 48.160791 278.298267 
z
" clip-path="url(#p73b9230a7c)" style="fill: #bf00bf"/>
   </g>
   <g id="patch_178">
    <path d="M 48.501578 299.518125 
L 48.842365 299.518125 
L 48.842365 272.681246 
L 48.501578 272.681246 
z
" clip-path="url(#p73b9230a7c)" style="fill: #bf00bf"/>
   </g>
   <g id="patch_179">
    <path d="M 48.842365 299.518125 
L 49.183152 299.518125 
L 49.183152 274.553586 
L 48.842365 274.553586 
z
" clip-path="url(#p73b9230a7c)" style="fill: #bf00bf"/>
   </g>
   <g id="patch_180">
    <path d="M 49.183152 299.518125 
L 49.523939 299.518125 
L 49.523939 252.709614 
L 49.183152 252.709614 
z
" clip-path="url(#p73b9230a7c)" style="fill: #bf00bf"/>
   </g>
   <g id="patch_181">
    <path d="M 49.523939 299.518125 
L 49.864726 299.518125 
L 49.864726 258.326636 
L 49.523939 258.326636 
z
" clip-path="url(#p73b9230a7c)" style="fill: #bf00bf"/>
   </g>
   <g id="patch_182">
    <path d="M 49.864726 299.518125 
L 50.205513 299.518125 
L 50.205513 245.844366 
L 49.864726 245.844366 
z
" clip-path="url(#p73b9230a7c)" style="fill: #bf00bf"/>
   </g>
   <g id="patch_183">
    <path d="M 50.205513 299.518125 
L 50.546301 299.518125 
L 50.546301 245.844366 
L 50.205513 245.844366 
z
" clip-path="url(#p73b9230a7c)" style="fill: #bf00bf"/>
   </g>
   <g id="patch_184">
    <path d="M 50.546301 299.518125 
L 50.887088 299.518125 
L 50.887088 222.752168 
L 50.546301 222.752168 
z
" clip-path="url(#p73b9230a7c)" style="fill: #bf00bf"/>
   </g>
   <g id="patch_185">
    <path d="M 50.887088 299.518125 
L 51.227875 299.518125 
L 51.227875 223.376281 
L 50.887088 223.376281 
z
" clip-path="url(#p73b9230a7c)" style="fill: #bf00bf"/>
   </g>
   <g id="patch_186">
    <path d="M 51.227875 299.518125 
L 51.568662 299.518125 
L 51.568662 182.184792 
L 51.227875 182.184792 
z
" clip-path="url(#p73b9230a7c)" style="fill: #bf00bf"/>
   </g>
   <g id="patch_187">
    <path d="M 51.568662 299.518125 
L 51.909449 299.518125 
L 51.909449 190.92238 
L 51.568662 190.92238 
z
" clip-path="url(#p73b9230a7c)" style="fill: #bf00bf"/>
   </g>
   <g id="patch_188">
    <path d="M 51.909449 299.518125 
L 52.250236 299.518125 
L 52.250236 167.830182 
L 51.909449 167.830182 
z
" clip-path="url(#p73b9230a7c)" style="fill: #bf00bf"/>
   </g>
   <g id="patch_189">
    <path d="M 52.250236 299.518125 
L 52.591023 299.518125 
L 52.591023 158.46848 
L 52.250236 158.46848 
z
" clip-path="url(#p73b9230a7c)" style="fill: #bf00bf"/>
   </g>
   <g id="patch_190">
    <path d="M 52.591023 299.518125 
L 52.93181 299.518125 
L 52.93181 158.46848 
L 52.591023 158.46848 
z
" clip-path="url(#p73b9230a7c)" style="fill: #bf00bf"/>
   </g>
   <g id="patch_191">
    <path d="M 52.93181 299.518125 
L 53.272597 299.518125 
L 53.272597 118.525217 
L 52.93181 118.525217 
z
" clip-path="url(#p73b9230a7c)" style="fill: #bf00bf"/>
   </g>
   <g id="patch_192">
    <path d="M 53.272597 299.518125 
L 53.613384 299.518125 
L 53.613384 132.255714 
L 53.272597 132.255714 
z
" clip-path="url(#p73b9230a7c)" style="fill: #bf00bf"/>
   </g>
   <g id="patch_193">
    <path d="M 53.613384 299.518125 
L 53.954171 299.518125 
L 53.954171 84.198976 
L 53.613384 84.198976 
z
" clip-path="url(#p73b9230a7c)" style="fill: #bf00bf"/>
   </g>
   <g id="patch_194">
    <path d="M 53.954171 299.518125 
L 54.294958 299.518125 
L 54.294958 109.787629 
L 53.954171 109.787629 
z
" clip-path="url(#p73b9230a7c)" style="fill: #bf00bf"/>
   </g>
   <g id="patch_195">
    <path d="M 54.294958 299.518125 
L 54.635745 299.518125 
L 54.635745 72.964934 
L 54.294958 72.964934 
z
" clip-path="url(#p73b9230a7c)" style="fill: #bf00bf"/>
   </g>
   <g id="patch_196">
    <path d="M 54.635745 299.518125 
L 54.976532 299.518125 
L 54.976532 107.915288 
L 54.635745 107.915288 
z
" clip-path="url(#p73b9230a7c)" style="fill: #bf00bf"/>
   </g>
   <g id="patch_197">
    <path d="M 54.976532 299.518125 
L 55.317319 299.518125 
L 55.317319 35.518125 
L 54.976532 35.518125 
z
" clip-path="url(#p73b9230a7c)" style="fill: #bf00bf"/>
   </g>
   <g id="patch_198">
    <path d="M 55.317319 299.518125 
L 55.658106 299.518125 
L 55.658106 101.05004 
L 55.317319 101.05004 
z
" clip-path="url(#p73b9230a7c)" style="fill: #bf00bf"/>
   </g>
   <g id="patch_199">
    <path d="M 55.658106 299.518125 
L 55.998893 299.518125 
L 55.998893 45.503941 
L 55.658106 45.503941 
z
" clip-path="url(#p73b9230a7c)" style="fill: #bf00bf"/>
   </g>
   <g id="patch_200">
    <path d="M 55.998893 299.518125 
L 56.33968 299.518125 
L 56.33968 78.581955 
L 55.998893 78.581955 
z
" clip-path="url(#p73b9230a7c)" style="fill: #bf00bf"/>
   </g>
   <g id="patch_201">
    <path d="M 56.33968 299.518125 
L 56.680467 299.518125 
L 56.680467 38.638692 
L 56.33968 38.638692 
z
" clip-path="url(#p73b9230a7c)" style="fill: #bf00bf"/>
   </g>
   <g id="patch_202">
    <path d="M 56.680467 299.518125 
L 57.021254 299.518125 
L 57.021254 92.312451 
L 56.680467 92.312451 
z
" clip-path="url(#p73b9230a7c)" style="fill: #bf00bf"/>
   </g>
   <g id="patch_203">
    <path d="M 57.021254 299.518125 
L 57.362041 299.518125 
L 57.362041 74.837274 
L 57.021254 74.837274 
z
" clip-path="url(#p73b9230a7c)" style="fill: #bf00bf"/>
   </g>
   <g id="patch_204">
    <path d="M 57.362041 299.518125 
L 57.702828 299.518125 
L 57.702828 62.979118 
L 57.362041 62.979118 
z
" clip-path="url(#p73b9230a7c)" style="fill: #bf00bf"/>
   </g>
   <g id="patch_205">
    <path d="M 57.702828 299.518125 
L 58.043615 299.518125 
L 58.043615 107.915288 
L 57.702828 107.915288 
z
" clip-path="url(#p73b9230a7c)" style="fill: #bf00bf"/>
   </g>
   <g id="patch_206">
    <path d="M 58.043615 299.518125 
L 58.384402 299.518125 
L 58.384402 96.057132 
L 58.043615 96.057132 
z
" clip-path="url(#p73b9230a7c)" style="fill: #bf00bf"/>
   </g>
   <g id="patch_207">
    <path d="M 58.384402 299.518125 
L 58.725189 299.518125 
L 58.725189 140.369189 
L 58.384402 140.369189 
z
" clip-path="url(#p73b9230a7c)" style="fill: #bf00bf"/>
   </g>
   <g id="patch_208">
    <path d="M 58.725189 299.518125 
L 59.065976 299.518125 
L 59.065976 118.525217 
L 58.725189 118.525217 
z
" clip-path="url(#p73b9230a7c)" style="fill: #bf00bf"/>
   </g>
   <g id="patch_209">
    <path d="M 59.065976 299.518125 
L 59.406764 299.518125 
L 59.406764 146.610324 
L 59.065976 146.610324 
z
" clip-path="url(#p73b9230a7c)" style="fill: #bf00bf"/>
   </g>
   <g id="patch_210">
    <path d="M 59.406764 299.518125 
L 59.747551 299.518125 
L 59.747551 129.75926 
L 59.406764 129.75926 
z
" clip-path="url(#p73b9230a7c)" style="fill: #bf00bf"/>
   </g>
   <g id="patch_211">
    <path d="M 59.747551 299.518125 
L 60.088338 299.518125 
L 60.088338 169.702522 
L 59.747551 169.702522 
z
" clip-path="url(#p73b9230a7c)" style="fill: #bf00bf"/>
   </g>
   <g id="patch_212">
    <path d="M 60.088338 299.518125 
L 60.429125 299.518125 
L 60.429125 161.589047 
L 60.088338 161.589047 
z
" clip-path="url(#p73b9230a7c)" style="fill: #bf00bf"/>
   </g>
   <g id="patch_213">
    <path d="M 60.429125 299.518125 
L 60.769912 299.518125 
L 60.769912 202.156423 
L 60.429125 202.156423 
z
" clip-path="url(#p73b9230a7c)" style="fill: #bf00bf"/>
   </g>
   <g id="patch_214">
    <path d="M 60.769912 299.518125 
L 61.110699 299.518125 
L 61.110699 183.433019 
L 60.769912 183.433019 
z
" clip-path="url(#p73b9230a7c)" style="fill: #bf00bf"/>
   </g>
   <g id="patch_215">
    <path d="M 61.110699 299.518125 
L 61.451486 299.518125 
L 61.451486 225.872735 
L 61.110699 225.872735 
z
" clip-path="url(#p73b9230a7c)" style="fill: #bf00bf"/>
   </g>
   <g id="patch_216">
    <path d="M 61.451486 299.518125 
L 61.792273 299.518125 
L 61.792273 222.752168 
L 61.451486 222.752168 
z
" clip-path="url(#p73b9230a7c)" style="fill: #bf00bf"/>
   </g>
   <g id="patch_217">
    <path d="M 61.792273 299.518125 
L 62.13306 299.518125 
L 62.13306 219.6316 
L 61.792273 219.6316 
z
" clip-path="url(#p73b9230a7c)" style="fill: #bf00bf"/>
   </g>
   <g id="patch_218">
    <path d="M 62.13306 299.518125 
L 62.473847 299.518125 
L 62.473847 249.589047 
L 62.13306 249.589047 
z
" clip-path="url(#p73b9230a7c)" style="fill: #bf00bf"/>
   </g>
   <g id="patch_219">
    <path d="M 62.473847 299.518125 
L 62.814634 299.518125 
L 62.814634 254.581955 
L 62.473847 254.581955 
z
" clip-path="url(#p73b9230a7c)" style="fill: #bf00bf"/>
   </g>
   <g id="patch_220">
    <path d="M 62.814634 299.518125 
L 63.155421 299.518125 
L 63.155421 266.440111 
L 62.814634 266.440111 
z
" clip-path="url(#p73b9230a7c)" style="fill: #bf00bf"/>
   </g>
   <g id="patch_221">
    <path d="M 63.155421 299.518125 
L 63.496208 299.518125 
L 63.496208 263.319543 
L 63.155421 263.319543 
z
" clip-path="url(#p73b9230a7c)" style="fill: #bf00bf"/>
   </g>
   <g id="patch_222">
    <path d="M 63.496208 299.518125 
L 63.836995 299.518125 
L 63.836995 275.177699 
L 63.496208 275.177699 
z
" clip-path="url(#p73b9230a7c)" style="fill: #bf00bf"/>
   </g>
   <g id="patch_223">
    <path d="M 63.836995 299.518125 
L 64.177782 299.518125 
L 64.177782 277.674153 
L 63.836995 277.674153 
z
" clip-path="url(#p73b9230a7c)" style="fill: #bf00bf"/>
   </g>
   <g id="patch_224">
    <path d="M 64.177782 299.518125 
L 64.518569 299.518125 
L 64.518569 282.042948 
L 64.177782 282.042948 
z
" clip-path="url(#p73b9230a7c)" style="fill: #bf00bf"/>
   </g>
   <g id="patch_225">
    <path d="M 64.518569 299.518125 
L 64.859356 299.518125 
L 64.859356 283.915288 
L 64.518569 283.915288 
z
" clip-path="url(#p73b9230a7c)" style="fill: #bf00bf"/>
   </g>
   <g id="patch_226">
    <path d="M 64.859356 299.518125 
L 65.200143 299.518125 
L 65.200143 290.156423 
L 64.859356 290.156423 
z
" clip-path="url(#p73b9230a7c)" style="fill: #bf00bf"/>
   </g>
   <g id="patch_227">
    <path d="M 65.200143 299.518125 
L 65.54093 299.518125 
L 65.54093 290.156423 
L 65.200143 290.156423 
z
" clip-path="url(#p73b9230a7c)" style="fill: #bf00bf"/>
   </g>
   <g id="patch_228">
    <path d="M 65.54093 299.518125 
L 65.881717 299.518125 
L 65.881717 290.780536 
L 65.54093 290.780536 
z
" clip-path="url(#p73b9230a7c)" style="fill: #bf00bf"/>
   </g>
   <g id="patch_229">
    <path d="M 65.881717 299.518125 
L 66.222504 299.518125 
L 66.222504 292.652877 
L 65.881717 292.652877 
z
" clip-path="url(#p73b9230a7c)" style="fill: #bf00bf"/>
   </g>
   <g id="patch_230">
    <path d="M 66.222504 299.518125 
L 66.563291 299.518125 
L 66.563291 292.652877 
L 66.222504 292.652877 
z
" clip-path="url(#p73b9230a7c)" style="fill: #bf00bf"/>
   </g>
   <g id="patch_231">
    <path d="M 66.563291 299.518125 
L 66.904078 299.518125 
L 66.904078 295.773444 
L 66.563291 295.773444 
z
" clip-path="url(#p73b9230a7c)" style="fill: #bf00bf"/>
   </g>
   <g id="patch_232">
    <path d="M 66.904078 299.518125 
L 67.244865 299.518125 
L 67.244865 296.397558 
L 66.904078 296.397558 
z
" clip-path="url(#p73b9230a7c)" style="fill: #bf00bf"/>
   </g>
   <g id="patch_233">
    <path d="M 67.244865 299.518125 
L 67.585652 299.518125 
L 67.585652 298.894012 
L 67.244865 298.894012 
z
" clip-path="url(#p73b9230a7c)" style="fill: #bf00bf"/>
   </g>
   <g id="patch_234">
    <path d="M 67.585652 299.518125 
L 67.926439 299.518125 
L 67.926439 298.269898 
L 67.585652 298.269898 
z
" clip-path="url(#p73b9230a7c)" style="fill: #bf00bf"/>
   </g>
   <g id="patch_235">
    <path d="M 67.926439 299.518125 
L 68.267227 299.518125 
L 68.267227 297.645785 
L 67.926439 297.645785 
z
" clip-path="url(#p73b9230a7c)" style="fill: #bf00bf"/>
   </g>
   <g id="patch_236">
    <path d="M 68.267227 299.518125 
L 68.608014 299.518125 
L 68.608014 298.894012 
L 68.267227 298.894012 
z
" clip-path="url(#p73b9230a7c)" style="fill: #bf00bf"/>
   </g>
   <g id="patch_237">
    <path d="M 68.608014 299.518125 
L 68.948801 299.518125 
L 68.948801 298.894012 
L 68.608014 298.894012 
z
" clip-path="url(#p73b9230a7c)" style="fill: #bf00bf"/>
   </g>
   <g id="patch_238">
    <path d="M 68.948801 299.518125 
L 69.289588 299.518125 
L 69.289588 299.518125 
L 68.948801 299.518125 
z
" clip-path="url(#p73b9230a7c)" style="fill: #bf00bf"/>
   </g>
   <g id="patch_239">
    <path d="M 69.289588 299.518125 
L 69.630375 299.518125 
L 69.630375 299.518125 
L 69.289588 299.518125 
z
" clip-path="url(#p73b9230a7c)" style="fill: #bf00bf"/>
   </g>
   <g id="patch_240">
    <path d="M 69.630375 299.518125 
L 69.971162 299.518125 
L 69.971162 298.894012 
L 69.630375 298.894012 
z
" clip-path="url(#p73b9230a7c)" style="fill: #bf00bf"/>
   </g>
   <g id="patch_241">
    <path d="M 69.971162 299.518125 
L 70.311949 299.518125 
L 70.311949 299.518125 
L 69.971162 299.518125 
z
" clip-path="url(#p73b9230a7c)" style="fill: #bf00bf"/>
   </g>
   <g id="patch_242">
    <path d="M 70.311949 299.518125 
L 70.652736 299.518125 
L 70.652736 298.269898 
L 70.311949 298.269898 
z
" clip-path="url(#p73b9230a7c)" style="fill: #bf00bf"/>
   </g>
   <g id="matplotlib.axis_1">
    <g id="xtick_1">
     <g id="line2d_1">
      <path d="M 28.105045 299.518125 
L 28.105045 22.318125 
" clip-path="url(#p73b9230a7c)" style="fill: none; stroke-dasharray: 0.8,1.32; stroke-dashoffset: 0; stroke: #b0b0b0; stroke-width: 0.8"/>
     </g>
     <g id="line2d_2">
      <defs>
       <path id="m855a4c2eb0" d="M 0 0 
L 0 3.5 
" style="stroke: #000000; stroke-width: 0.8"/>
      </defs>
      <g>
       <use xlink:href="#m855a4c2eb0" x="28.105045" y="299.518125" style="stroke: #000000; stroke-width: 0.8"/>
      </g>
     </g>
     <g id="text_1">
      <!-- 2 -->
      <g transform="translate(24.923795 314.116563) scale(0.1 -0.1)">
       <defs>
        <path id="DejaVuSans-32" d="M 1228 531 
L 3431 531 
L 3431 0 
L 469 0 
L 469 531 
Q 828 903 1448 1529 
Q 2069 2156 2228 2338 
Q 2531 2678 2651 2914 
Q 2772 3150 2772 3378 
Q 2772 3750 2511 3984 
Q 2250 4219 1831 4219 
Q 1534 4219 1204 4116 
Q 875 4013 500 3803 
L 500 4441 
Q 881 4594 1212 4672 
Q 1544 4750 1819 4750 
Q 2544 4750 2975 4387 
Q 3406 4025 3406 3419 
Q 3406 3131 3298 2873 
Q 3191 2616 2906 2266 
Q 2828 2175 2409 1742 
Q 1991 1309 1228 531 
z
" transform="scale(0.015625)"/>
       </defs>
       <use xlink:href="#DejaVuSans-32"/>
      </g>
     </g>
    </g>
    <g id="xtick_2">
     <g id="line2d_3">
      <path d="M 84.253024 299.518125 
L 84.253024 22.318125 
" clip-path="url(#p73b9230a7c)" style="fill: none; stroke-dasharray: 0.8,1.32; stroke-dashoffset: 0; stroke: #b0b0b0; stroke-width: 0.8"/>
     </g>
     <g id="line2d_4">
      <g>
       <use xlink:href="#m855a4c2eb0" x="84.253024" y="299.518125" style="stroke: #000000; stroke-width: 0.8"/>
      </g>
     </g>
     <g id="text_2">
      <!-- 3 -->
      <g transform="translate(81.071774 314.116563) scale(0.1 -0.1)">
       <defs>
        <path id="DejaVuSans-33" d="M 2597 2516 
Q 3050 2419 3304 2112 
Q 3559 1806 3559 1356 
Q 3559 666 3084 287 
Q 2609 -91 1734 -91 
Q 1441 -91 1130 -33 
Q 819 25 488 141 
L 488 750 
Q 750 597 1062 519 
Q 1375 441 1716 441 
Q 2309 441 2620 675 
Q 2931 909 2931 1356 
Q 2931 1769 2642 2001 
Q 2353 2234 1838 2234 
L 1294 2234 
L 1294 2753 
L 1863 2753 
Q 2328 2753 2575 2939 
Q 2822 3125 2822 3475 
Q 2822 3834 2567 4026 
Q 2313 4219 1838 4219 
Q 1578 4219 1281 4162 
Q 984 4106 628 3988 
L 628 4550 
Q 988 4650 1302 4700 
Q 1616 4750 1894 4750 
Q 2613 4750 3031 4423 
Q 3450 4097 3450 3541 
Q 3450 3153 3228 2886 
Q 3006 2619 2597 2516 
z
" transform="scale(0.015625)"/>
       </defs>
       <use xlink:href="#DejaVuSans-33"/>
      </g>
     </g>
    </g>
    <g id="xtick_3">
     <g id="line2d_5">
      <path d="M 140.401003 299.518125 
L 140.401003 22.318125 
" clip-path="url(#p73b9230a7c)" style="fill: none; stroke-dasharray: 0.8,1.32; stroke-dashoffset: 0; stroke: #b0b0b0; stroke-width: 0.8"/>
     </g>
     <g id="line2d_6">
      <g>
       <use xlink:href="#m855a4c2eb0" x="140.401003" y="299.518125" style="stroke: #000000; stroke-width: 0.8"/>
      </g>
     </g>
     <g id="text_3">
      <!-- 4 -->
      <g transform="translate(137.219753 314.116563) scale(0.1 -0.1)">
       <defs>
        <path id="DejaVuSans-34" d="M 2419 4116 
L 825 1625 
L 2419 1625 
L 2419 4116 
z
M 2253 4666 
L 3047 4666 
L 3047 1625 
L 3713 1625 
L 3713 1100 
L 3047 1100 
L 3047 0 
L 2419 0 
L 2419 1100 
L 313 1100 
L 313 1709 
L 2253 4666 
z
" transform="scale(0.015625)"/>
       </defs>
       <use xlink:href="#DejaVuSans-34"/>
      </g>
     </g>
    </g>
    <g id="xtick_4">
     <g id="line2d_7">
      <path d="M 196.548982 299.518125 
L 196.548982 22.318125 
" clip-path="url(#p73b9230a7c)" style="fill: none; stroke-dasharray: 0.8,1.32; stroke-dashoffset: 0; stroke: #b0b0b0; stroke-width: 0.8"/>
     </g>
     <g id="line2d_8">
      <g>
       <use xlink:href="#m855a4c2eb0" x="196.548982" y="299.518125" style="stroke: #000000; stroke-width: 0.8"/>
      </g>
     </g>
     <g id="text_4">
      <!-- 5 -->
      <g transform="translate(193.367732 314.116563) scale(0.1 -0.1)">
       <defs>
        <path id="DejaVuSans-35" d="M 691 4666 
L 3169 4666 
L 3169 4134 
L 1269 4134 
L 1269 2991 
Q 1406 3038 1543 3061 
Q 1681 3084 1819 3084 
Q 2600 3084 3056 2656 
Q 3513 2228 3513 1497 
Q 3513 744 3044 326 
Q 2575 -91 1722 -91 
Q 1428 -91 1123 -41 
Q 819 9 494 109 
L 494 744 
Q 775 591 1075 516 
Q 1375 441 1709 441 
Q 2250 441 2565 725 
Q 2881 1009 2881 1497 
Q 2881 1984 2565 2268 
Q 2250 2553 1709 2553 
Q 1456 2553 1204 2497 
Q 953 2441 691 2322 
L 691 4666 
z
" transform="scale(0.015625)"/>
       </defs>
       <use xlink:href="#DejaVuSans-35"/>
      </g>
     </g>
    </g>
    <g id="xtick_5">
     <g id="line2d_9">
      <path d="M 252.69696 299.518125 
L 252.69696 22.318125 
" clip-path="url(#p73b9230a7c)" style="fill: none; stroke-dasharray: 0.8,1.32; stroke-dashoffset: 0; stroke: #b0b0b0; stroke-width: 0.8"/>
     </g>
     <g id="line2d_10">
      <g>
       <use xlink:href="#m855a4c2eb0" x="252.69696" y="299.518125" style="stroke: #000000; stroke-width: 0.8"/>
      </g>
     </g>
     <g id="text_5">
      <!-- 6 -->
      <g transform="translate(249.51571 314.116563) scale(0.1 -0.1)">
       <defs>
        <path id="DejaVuSans-36" d="M 2113 2584 
Q 1688 2584 1439 2293 
Q 1191 2003 1191 1497 
Q 1191 994 1439 701 
Q 1688 409 2113 409 
Q 2538 409 2786 701 
Q 3034 994 3034 1497 
Q 3034 2003 2786 2293 
Q 2538 2584 2113 2584 
z
M 3366 4563 
L 3366 3988 
Q 3128 4100 2886 4159 
Q 2644 4219 2406 4219 
Q 1781 4219 1451 3797 
Q 1122 3375 1075 2522 
Q 1259 2794 1537 2939 
Q 1816 3084 2150 3084 
Q 2853 3084 3261 2657 
Q 3669 2231 3669 1497 
Q 3669 778 3244 343 
Q 2819 -91 2113 -91 
Q 1303 -91 875 529 
Q 447 1150 447 2328 
Q 447 3434 972 4092 
Q 1497 4750 2381 4750 
Q 2619 4750 2861 4703 
Q 3103 4656 3366 4563 
z
" transform="scale(0.015625)"/>
       </defs>
       <use xlink:href="#DejaVuSans-36"/>
      </g>
     </g>
    </g>
    <g id="xtick_6">
     <g id="line2d_11">
      <path d="M 308.844939 299.518125 
L 308.844939 22.318125 
" clip-path="url(#p73b9230a7c)" style="fill: none; stroke-dasharray: 0.8,1.32; stroke-dashoffset: 0; stroke: #b0b0b0; stroke-width: 0.8"/>
     </g>
     <g id="line2d_12">
      <g>
       <use xlink:href="#m855a4c2eb0" x="308.844939" y="299.518125" style="stroke: #000000; stroke-width: 0.8"/>
      </g>
     </g>
     <g id="text_6">
      <!-- 7 -->
      <g transform="translate(305.663689 314.116563) scale(0.1 -0.1)">
       <defs>
        <path id="DejaVuSans-37" d="M 525 4666 
L 3525 4666 
L 3525 4397 
L 1831 0 
L 1172 0 
L 2766 4134 
L 525 4134 
L 525 4666 
z
" transform="scale(0.015625)"/>
       </defs>
       <use xlink:href="#DejaVuSans-37"/>
      </g>
     </g>
    </g>
    <g id="xtick_7">
     <g id="line2d_13">
      <path d="M 364.992918 299.518125 
L 364.992918 22.318125 
" clip-path="url(#p73b9230a7c)" style="fill: none; stroke-dasharray: 0.8,1.32; stroke-dashoffset: 0; stroke: #b0b0b0; stroke-width: 0.8"/>
     </g>
     <g id="line2d_14">
      <g>
       <use xlink:href="#m855a4c2eb0" x="364.992918" y="299.518125" style="stroke: #000000; stroke-width: 0.8"/>
      </g>
     </g>
     <g id="text_7">
      <!-- 8 -->
      <g transform="translate(361.811668 314.116563) scale(0.1 -0.1)">
       <defs>
        <path id="DejaVuSans-38" d="M 2034 2216 
Q 1584 2216 1326 1975 
Q 1069 1734 1069 1313 
Q 1069 891 1326 650 
Q 1584 409 2034 409 
Q 2484 409 2743 651 
Q 3003 894 3003 1313 
Q 3003 1734 2745 1975 
Q 2488 2216 2034 2216 
z
M 1403 2484 
Q 997 2584 770 2862 
Q 544 3141 544 3541 
Q 544 4100 942 4425 
Q 1341 4750 2034 4750 
Q 2731 4750 3128 4425 
Q 3525 4100 3525 3541 
Q 3525 3141 3298 2862 
Q 3072 2584 2669 2484 
Q 3125 2378 3379 2068 
Q 3634 1759 3634 1313 
Q 3634 634 3220 271 
Q 2806 -91 2034 -91 
Q 1263 -91 848 271 
Q 434 634 434 1313 
Q 434 1759 690 2068 
Q 947 2378 1403 2484 
z
M 1172 3481 
Q 1172 3119 1398 2916 
Q 1625 2713 2034 2713 
Q 2441 2713 2670 2916 
Q 2900 3119 2900 3481 
Q 2900 3844 2670 4047 
Q 2441 4250 2034 4250 
Q 1625 4250 1398 4047 
Q 1172 3844 1172 3481 
z
" transform="scale(0.015625)"/>
       </defs>
       <use xlink:href="#DejaVuSans-38"/>
      </g>
     </g>
    </g>
    <g id="xtick_8">
     <g id="line2d_15">
      <path d="M 421.140897 299.518125 
L 421.140897 22.318125 
" clip-path="url(#p73b9230a7c)" style="fill: none; stroke-dasharray: 0.8,1.32; stroke-dashoffset: 0; stroke: #b0b0b0; stroke-width: 0.8"/>
     </g>
     <g id="line2d_16">
      <g>
       <use xlink:href="#m855a4c2eb0" x="421.140897" y="299.518125" style="stroke: #000000; stroke-width: 0.8"/>
      </g>
     </g>
     <g id="text_8">
      <!-- 9 -->
      <g transform="translate(417.959647 314.116563) scale(0.1 -0.1)">
       <defs>
        <path id="DejaVuSans-39" d="M 703 97 
L 703 672 
Q 941 559 1184 500 
Q 1428 441 1663 441 
Q 2288 441 2617 861 
Q 2947 1281 2994 2138 
Q 2813 1869 2534 1725 
Q 2256 1581 1919 1581 
Q 1219 1581 811 2004 
Q 403 2428 403 3163 
Q 403 3881 828 4315 
Q 1253 4750 1959 4750 
Q 2769 4750 3195 4129 
Q 3622 3509 3622 2328 
Q 3622 1225 3098 567 
Q 2575 -91 1691 -91 
Q 1453 -91 1209 -44 
Q 966 3 703 97 
z
M 1959 2075 
Q 2384 2075 2632 2365 
Q 2881 2656 2881 3163 
Q 2881 3666 2632 3958 
Q 2384 4250 1959 4250 
Q 1534 4250 1286 3958 
Q 1038 3666 1038 3163 
Q 1038 2656 1286 2365 
Q 1534 2075 1959 2075 
z
" transform="scale(0.015625)"/>
       </defs>
       <use xlink:href="#DejaVuSans-39"/>
      </g>
     </g>
    </g>
    <g id="xtick_9">
     <g id="line2d_17">
      <path d="M 477.288876 299.518125 
L 477.288876 22.318125 
" clip-path="url(#p73b9230a7c)" style="fill: none; stroke-dasharray: 0.8,1.32; stroke-dashoffset: 0; stroke: #b0b0b0; stroke-width: 0.8"/>
     </g>
     <g id="line2d_18">
      <g>
       <use xlink:href="#m855a4c2eb0" x="477.288876" y="299.518125" style="stroke: #000000; stroke-width: 0.8"/>
      </g>
     </g>
     <g id="text_9">
      <!-- 10 -->
      <g transform="translate(470.926376 314.116563) scale(0.1 -0.1)">
       <defs>
        <path id="DejaVuSans-31" d="M 794 531 
L 1825 531 
L 1825 4091 
L 703 3866 
L 703 4441 
L 1819 4666 
L 2450 4666 
L 2450 531 
L 3481 531 
L 3481 0 
L 794 0 
L 794 531 
z
" transform="scale(0.015625)"/>
        <path id="DejaVuSans-30" d="M 2034 4250 
Q 1547 4250 1301 3770 
Q 1056 3291 1056 2328 
Q 1056 1369 1301 889 
Q 1547 409 2034 409 
Q 2525 409 2770 889 
Q 3016 1369 3016 2328 
Q 3016 3291 2770 3770 
Q 2525 4250 2034 4250 
z
M 2034 4750 
Q 2819 4750 3233 4129 
Q 3647 3509 3647 2328 
Q 3647 1150 3233 529 
Q 2819 -91 2034 -91 
Q 1250 -91 836 529 
Q 422 1150 422 2328 
Q 422 3509 836 4129 
Q 1250 4750 2034 4750 
z
" transform="scale(0.015625)"/>
       </defs>
       <use xlink:href="#DejaVuSans-31"/>
       <use xlink:href="#DejaVuSans-30" x="63.623047"/>
      </g>
     </g>
    </g>
    <g id="text_10">
     <!-- $x$ -->
     <g transform="translate(268.6625 327.794688) scale(0.1 -0.1)">
      <defs>
       <path id="DejaVuSans-Oblique-78" d="M 3841 3500 
L 2234 1784 
L 3219 0 
L 2559 0 
L 1819 1388 
L 531 0 
L -166 0 
L 1556 1844 
L 641 3500 
L 1300 3500 
L 1972 2234 
L 3144 3500 
L 3841 3500 
z
" transform="scale(0.015625)"/>
      </defs>
      <use xlink:href="#DejaVuSans-Oblique-78" transform="translate(0 0.3125)"/>
     </g>
    </g>
   </g>
   <g id="matplotlib.axis_2">
    <g id="ytick_1">
     <g id="line2d_19">
      <path d="M 20.5625 299.518125 
L 522.7625 299.518125 
" clip-path="url(#p73b9230a7c)" style="fill: none; stroke-dasharray: 0.8,1.32; stroke-dashoffset: 0; stroke: #b0b0b0; stroke-width: 0.8"/>
     </g>
     <g id="line2d_20">
      <defs>
       <path id="mcf0eeb77ef" d="M 0 0 
L -3.5 0 
" style="stroke: #000000; stroke-width: 0.8"/>
      </defs>
      <g>
       <use xlink:href="#mcf0eeb77ef" x="20.5625" y="299.518125" style="stroke: #000000; stroke-width: 0.8"/>
      </g>
     </g>
     <g id="text_11">
      <!-- 0 -->
      <g transform="translate(7.2 303.317344) scale(0.1 -0.1)">
       <use xlink:href="#DejaVuSans-30"/>
      </g>
     </g>
    </g>
    <g id="ytick_2">
     <g id="line2d_21">
      <path d="M 20.5625 261.637904 
L 522.7625 261.637904 
" clip-path="url(#p73b9230a7c)" style="fill: none; stroke-dasharray: 0.8,1.32; stroke-dashoffset: 0; stroke: #b0b0b0; stroke-width: 0.8"/>
     </g>
     <g id="line2d_22">
      <g>
       <use xlink:href="#mcf0eeb77ef" x="20.5625" y="261.637904" style="stroke: #000000; stroke-width: 0.8"/>
      </g>
     </g>
     <g id="text_12">
      <!-- 1 -->
      <g transform="translate(7.2 265.437123) scale(0.1 -0.1)">
       <use xlink:href="#DejaVuSans-31"/>
      </g>
     </g>
    </g>
    <g id="ytick_3">
     <g id="line2d_23">
      <path d="M 20.5625 223.757684 
L 522.7625 223.757684 
" clip-path="url(#p73b9230a7c)" style="fill: none; stroke-dasharray: 0.8,1.32; stroke-dashoffset: 0; stroke: #b0b0b0; stroke-width: 0.8"/>
     </g>
     <g id="line2d_24">
      <g>
       <use xlink:href="#mcf0eeb77ef" x="20.5625" y="223.757684" style="stroke: #000000; stroke-width: 0.8"/>
      </g>
     </g>
     <g id="text_13">
      <!-- 2 -->
      <g transform="translate(7.2 227.556902) scale(0.1 -0.1)">
       <use xlink:href="#DejaVuSans-32"/>
      </g>
     </g>
    </g>
    <g id="ytick_4">
     <g id="line2d_25">
      <path d="M 20.5625 185.877463 
L 522.7625 185.877463 
" clip-path="url(#p73b9230a7c)" style="fill: none; stroke-dasharray: 0.8,1.32; stroke-dashoffset: 0; stroke: #b0b0b0; stroke-width: 0.8"/>
     </g>
     <g id="line2d_26">
      <g>
       <use xlink:href="#mcf0eeb77ef" x="20.5625" y="185.877463" style="stroke: #000000; stroke-width: 0.8"/>
      </g>
     </g>
     <g id="text_14">
      <!-- 3 -->
      <g transform="translate(7.2 189.676682) scale(0.1 -0.1)">
       <use xlink:href="#DejaVuSans-33"/>
      </g>
     </g>
    </g>
    <g id="ytick_5">
     <g id="line2d_27">
      <path d="M 20.5625 147.997242 
L 522.7625 147.997242 
" clip-path="url(#p73b9230a7c)" style="fill: none; stroke-dasharray: 0.8,1.32; stroke-dashoffset: 0; stroke: #b0b0b0; stroke-width: 0.8"/>
     </g>
     <g id="line2d_28">
      <g>
       <use xlink:href="#mcf0eeb77ef" x="20.5625" y="147.997242" style="stroke: #000000; stroke-width: 0.8"/>
      </g>
     </g>
     <g id="text_15">
      <!-- 4 -->
      <g transform="translate(7.2 151.796461) scale(0.1 -0.1)">
       <use xlink:href="#DejaVuSans-34"/>
      </g>
     </g>
    </g>
    <g id="ytick_6">
     <g id="line2d_29">
      <path d="M 20.5625 110.117022 
L 522.7625 110.117022 
" clip-path="url(#p73b9230a7c)" style="fill: none; stroke-dasharray: 0.8,1.32; stroke-dashoffset: 0; stroke: #b0b0b0; stroke-width: 0.8"/>
     </g>
     <g id="line2d_30">
      <g>
       <use xlink:href="#mcf0eeb77ef" x="20.5625" y="110.117022" style="stroke: #000000; stroke-width: 0.8"/>
      </g>
     </g>
     <g id="text_16">
      <!-- 5 -->
      <g transform="translate(7.2 113.916241) scale(0.1 -0.1)">
       <use xlink:href="#DejaVuSans-35"/>
      </g>
     </g>
    </g>
    <g id="ytick_7">
     <g id="line2d_31">
      <path d="M 20.5625 72.236801 
L 522.7625 72.236801 
" clip-path="url(#p73b9230a7c)" style="fill: none; stroke-dasharray: 0.8,1.32; stroke-dashoffset: 0; stroke: #b0b0b0; stroke-width: 0.8"/>
     </g>
     <g id="line2d_32">
      <g>
       <use xlink:href="#mcf0eeb77ef" x="20.5625" y="72.236801" style="stroke: #000000; stroke-width: 0.8"/>
      </g>
     </g>
     <g id="text_17">
      <!-- 6 -->
      <g transform="translate(7.2 76.03602) scale(0.1 -0.1)">
       <use xlink:href="#DejaVuSans-36"/>
      </g>
     </g>
    </g>
    <g id="ytick_8">
     <g id="line2d_33">
      <path d="M 20.5625 34.35658 
L 522.7625 34.35658 
" clip-path="url(#p73b9230a7c)" style="fill: none; stroke-dasharray: 0.8,1.32; stroke-dashoffset: 0; stroke: #b0b0b0; stroke-width: 0.8"/>
     </g>
     <g id="line2d_34">
      <g>
       <use xlink:href="#mcf0eeb77ef" x="20.5625" y="34.35658" style="stroke: #000000; stroke-width: 0.8"/>
      </g>
     </g>
     <g id="text_18">
      <!-- 7 -->
      <g transform="translate(7.2 38.155799) scale(0.1 -0.1)">
       <use xlink:href="#DejaVuSans-37"/>
      </g>
     </g>
    </g>
   </g>
   <g id="line2d_35">
    <path d="M 241.190049 297.060622 
L 241.76597 295.705478 
L 242.341892 293.734929 
L 242.917813 290.941468 
L 243.516772 286.90195 
L 244.161804 280.914954 
L 244.829873 272.520728 
L 245.544016 260.645697 
L 246.350306 243.245698 
L 247.27178 218.159926 
L 248.492734 178.198044 
L 250.589088 109.305348 
L 251.349304 91.542311 
L 251.925226 82.73342 
L 252.339889 79.257277 
L 252.616331 78.349651 
L 252.754553 78.325716 
L 252.892774 78.588862 
L 253.123142 79.662113 
L 253.445658 82.47521 
L 253.860322 88.245527 
L 254.413207 99.373332 
L 255.150386 119.226398 
L 256.302229 157.294288 
L 258.35251 224.920536 
L 259.343095 250.216141 
L 260.195458 266.790444 
L 260.978712 278.01579 
L 261.715891 285.578729 
L 262.406997 290.539743 
L 263.075066 293.828047 
L 263.720098 295.958803 
L 264.203872 297.060622 
L 264.203872 297.060622 
" clip-path="url(#p73b9230a7c)" style="fill: none; stroke-dasharray: 7.4,3.2; stroke-dashoffset: 0; stroke: #0000ff; stroke-width: 2"/>
   </g>
   <g id="line2d_36">
    <path d="M 459.533326 297.925481 
L 460.386445 297.089224 
L 461.168472 296.006567 
L 461.950498 294.529193 
L 462.732524 292.552934 
L 463.51455 289.962126 
L 464.332123 286.463784 
L 465.185243 281.805268 
L 466.109455 275.436604 
L 467.104762 266.89715 
L 468.206708 255.350269 
L 469.486387 239.393842 
L 471.299266 213.60718 
L 473.574251 181.783026 
L 474.640651 169.809474 
L 475.458224 162.84949 
L 476.13361 158.85824 
L 476.631263 157.035145 
L 477.022276 156.298274 
L 477.306649 156.153546 
L 477.555476 156.298274 
L 477.839849 156.772781 
L 478.230862 157.957287 
L 478.692968 160.131069 
L 479.297261 164.174109 
L 480.043741 170.871881 
L 480.967954 181.340514 
L 482.28318 199.098347 
L 486.086671 252.025504 
L 487.330803 265.530192 
L 488.432749 275.162291 
L 489.428056 282.021812 
L 490.387815 287.136184 
L 491.276481 290.736581 
L 492.129601 293.336393 
L 492.98272 295.256003 
L 493.83584 296.639944 
L 494.688959 297.614477 
L 495.044426 297.925481 
L 495.044426 297.925481 
" clip-path="url(#p73b9230a7c)" style="fill: none; stroke-dasharray: 7.4,3.2; stroke-dashoffset: 0; stroke: #a52a2a; stroke-width: 2"/>
   </g>
   <g id="line2d_37">
    <path d="M 45.306025 296.917349 
L 45.85022 295.483199 
L 46.394415 293.397766 
L 46.960377 290.301553 
L 47.548107 285.777986 
L 48.157605 279.2985 
L 48.810639 269.875944 
L 49.528976 256.029449 
L 50.312616 236.347026 
L 51.226863 207.468163 
L 52.554698 157.520544 
L 54.143747 99.554729 
L 54.905619 79.417212 
L 55.449814 70.094758 
L 55.863402 66.289793 
L 56.124615 65.430082 
L 56.255222 65.455413 
L 56.407596 65.868761 
L 56.647042 67.34743 
L 56.973559 70.962072 
L 57.408915 78.502273 
L 57.996645 93.068147 
L 58.802053 119.344313 
L 60.521708 185.315925 
L 61.762472 228.055296 
L 62.698487 253.086934 
L 63.503895 269.145338 
L 64.243999 279.83038 
L 64.940569 286.916112 
L 65.61537 291.62151 
L 66.246636 294.57605 
L 66.877902 296.517562 
L 67.052044 296.917349 
L 67.052044 296.917349 
" clip-path="url(#p73b9230a7c)" style="fill: none; stroke-dasharray: 7.4,3.2; stroke-dashoffset: 0; stroke: #008000; stroke-width: 2"/>
   </g>
   <g id="patch_243">
    <path d="M 20.5625 299.518125 
L 20.5625 22.318125 
" style="fill: none; stroke: #000000; stroke-width: 0.8; stroke-linejoin: miter; stroke-linecap: square"/>
   </g>
   <g id="patch_244">
    <path d="M 522.7625 299.518125 
L 522.7625 22.318125 
" style="fill: none; stroke: #000000; stroke-width: 0.8; stroke-linejoin: miter; stroke-linecap: square"/>
   </g>
   <g id="patch_245">
    <path d="M 20.5625 299.518125 
L 522.7625 299.518125 
" style="fill: none; stroke: #000000; stroke-width: 0.8; stroke-linejoin: miter; stroke-linecap: square"/>
   </g>
   <g id="patch_246">
    <path d="M 20.5625 22.318125 
L 522.7625 22.318125 
" style="fill: none; stroke: #000000; stroke-width: 0.8; stroke-linejoin: miter; stroke-linecap: square"/>
   </g>
   <g id="text_19">
    <!-- Central limit theorem, $n=900$ -->
    <g transform="translate(180.8225 16.318125) scale(0.12 -0.12)">
     <defs>
      <path id="DejaVuSans-43" d="M 4122 4306 
L 4122 3641 
Q 3803 3938 3442 4084 
Q 3081 4231 2675 4231 
Q 1875 4231 1450 3742 
Q 1025 3253 1025 2328 
Q 1025 1406 1450 917 
Q 1875 428 2675 428 
Q 3081 428 3442 575 
Q 3803 722 4122 1019 
L 4122 359 
Q 3791 134 3420 21 
Q 3050 -91 2638 -91 
Q 1578 -91 968 557 
Q 359 1206 359 2328 
Q 359 3453 968 4101 
Q 1578 4750 2638 4750 
Q 3056 4750 3426 4639 
Q 3797 4528 4122 4306 
z
" transform="scale(0.015625)"/>
      <path id="DejaVuSans-65" d="M 3597 1894 
L 3597 1613 
L 953 1613 
Q 991 1019 1311 708 
Q 1631 397 2203 397 
Q 2534 397 2845 478 
Q 3156 559 3463 722 
L 3463 178 
Q 3153 47 2828 -22 
Q 2503 -91 2169 -91 
Q 1331 -91 842 396 
Q 353 884 353 1716 
Q 353 2575 817 3079 
Q 1281 3584 2069 3584 
Q 2775 3584 3186 3129 
Q 3597 2675 3597 1894 
z
M 3022 2063 
Q 3016 2534 2758 2815 
Q 2500 3097 2075 3097 
Q 1594 3097 1305 2825 
Q 1016 2553 972 2059 
L 3022 2063 
z
" transform="scale(0.015625)"/>
      <path id="DejaVuSans-6e" d="M 3513 2113 
L 3513 0 
L 2938 0 
L 2938 2094 
Q 2938 2591 2744 2837 
Q 2550 3084 2163 3084 
Q 1697 3084 1428 2787 
Q 1159 2491 1159 1978 
L 1159 0 
L 581 0 
L 581 3500 
L 1159 3500 
L 1159 2956 
Q 1366 3272 1645 3428 
Q 1925 3584 2291 3584 
Q 2894 3584 3203 3211 
Q 3513 2838 3513 2113 
z
" transform="scale(0.015625)"/>
      <path id="DejaVuSans-74" d="M 1172 4494 
L 1172 3500 
L 2356 3500 
L 2356 3053 
L 1172 3053 
L 1172 1153 
Q 1172 725 1289 603 
Q 1406 481 1766 481 
L 2356 481 
L 2356 0 
L 1766 0 
Q 1100 0 847 248 
Q 594 497 594 1153 
L 594 3053 
L 172 3053 
L 172 3500 
L 594 3500 
L 594 4494 
L 1172 4494 
z
" transform="scale(0.015625)"/>
      <path id="DejaVuSans-72" d="M 2631 2963 
Q 2534 3019 2420 3045 
Q 2306 3072 2169 3072 
Q 1681 3072 1420 2755 
Q 1159 2438 1159 1844 
L 1159 0 
L 581 0 
L 581 3500 
L 1159 3500 
L 1159 2956 
Q 1341 3275 1631 3429 
Q 1922 3584 2338 3584 
Q 2397 3584 2469 3576 
Q 2541 3569 2628 3553 
L 2631 2963 
z
" transform="scale(0.015625)"/>
      <path id="DejaVuSans-61" d="M 2194 1759 
Q 1497 1759 1228 1600 
Q 959 1441 959 1056 
Q 959 750 1161 570 
Q 1363 391 1709 391 
Q 2188 391 2477 730 
Q 2766 1069 2766 1631 
L 2766 1759 
L 2194 1759 
z
M 3341 1997 
L 3341 0 
L 2766 0 
L 2766 531 
Q 2569 213 2275 61 
Q 1981 -91 1556 -91 
Q 1019 -91 701 211 
Q 384 513 384 1019 
Q 384 1609 779 1909 
Q 1175 2209 1959 2209 
L 2766 2209 
L 2766 2266 
Q 2766 2663 2505 2880 
Q 2244 3097 1772 3097 
Q 1472 3097 1187 3025 
Q 903 2953 641 2809 
L 641 3341 
Q 956 3463 1253 3523 
Q 1550 3584 1831 3584 
Q 2591 3584 2966 3190 
Q 3341 2797 3341 1997 
z
" transform="scale(0.015625)"/>
      <path id="DejaVuSans-6c" d="M 603 4863 
L 1178 4863 
L 1178 0 
L 603 0 
L 603 4863 
z
" transform="scale(0.015625)"/>
      <path id="DejaVuSans-20" transform="scale(0.015625)"/>
      <path id="DejaVuSans-69" d="M 603 3500 
L 1178 3500 
L 1178 0 
L 603 0 
L 603 3500 
z
M 603 4863 
L 1178 4863 
L 1178 4134 
L 603 4134 
L 603 4863 
z
" transform="scale(0.015625)"/>
      <path id="DejaVuSans-6d" d="M 3328 2828 
Q 3544 3216 3844 3400 
Q 4144 3584 4550 3584 
Q 5097 3584 5394 3201 
Q 5691 2819 5691 2113 
L 5691 0 
L 5113 0 
L 5113 2094 
Q 5113 2597 4934 2840 
Q 4756 3084 4391 3084 
Q 3944 3084 3684 2787 
Q 3425 2491 3425 1978 
L 3425 0 
L 2847 0 
L 2847 2094 
Q 2847 2600 2669 2842 
Q 2491 3084 2119 3084 
Q 1678 3084 1418 2786 
Q 1159 2488 1159 1978 
L 1159 0 
L 581 0 
L 581 3500 
L 1159 3500 
L 1159 2956 
Q 1356 3278 1631 3431 
Q 1906 3584 2284 3584 
Q 2666 3584 2933 3390 
Q 3200 3197 3328 2828 
z
" transform="scale(0.015625)"/>
      <path id="DejaVuSans-68" d="M 3513 2113 
L 3513 0 
L 2938 0 
L 2938 2094 
Q 2938 2591 2744 2837 
Q 2550 3084 2163 3084 
Q 1697 3084 1428 2787 
Q 1159 2491 1159 1978 
L 1159 0 
L 581 0 
L 581 4863 
L 1159 4863 
L 1159 2956 
Q 1366 3272 1645 3428 
Q 1925 3584 2291 3584 
Q 2894 3584 3203 3211 
Q 3513 2838 3513 2113 
z
" transform="scale(0.015625)"/>
      <path id="DejaVuSans-6f" d="M 1959 3097 
Q 1497 3097 1228 2736 
Q 959 2375 959 1747 
Q 959 1119 1226 758 
Q 1494 397 1959 397 
Q 2419 397 2687 759 
Q 2956 1122 2956 1747 
Q 2956 2369 2687 2733 
Q 2419 3097 1959 3097 
z
M 1959 3584 
Q 2709 3584 3137 3096 
Q 3566 2609 3566 1747 
Q 3566 888 3137 398 
Q 2709 -91 1959 -91 
Q 1206 -91 779 398 
Q 353 888 353 1747 
Q 353 2609 779 3096 
Q 1206 3584 1959 3584 
z
" transform="scale(0.015625)"/>
      <path id="DejaVuSans-2c" d="M 750 794 
L 1409 794 
L 1409 256 
L 897 -744 
L 494 -744 
L 750 256 
L 750 794 
z
" transform="scale(0.015625)"/>
      <path id="DejaVuSans-Oblique-6e" d="M 3566 2113 
L 3156 0 
L 2578 0 
L 2988 2091 
Q 3016 2238 3031 2350 
Q 3047 2463 3047 2528 
Q 3047 2791 2881 2937 
Q 2716 3084 2419 3084 
Q 1956 3084 1622 2776 
Q 1288 2469 1184 1941 
L 800 0 
L 225 0 
L 903 3500 
L 1478 3500 
L 1363 2950 
Q 1603 3253 1940 3418 
Q 2278 3584 2650 3584 
Q 3113 3584 3367 3334 
Q 3622 3084 3622 2631 
Q 3622 2519 3608 2391 
Q 3594 2263 3566 2113 
z
" transform="scale(0.015625)"/>
      <path id="DejaVuSans-3d" d="M 678 2906 
L 4684 2906 
L 4684 2381 
L 678 2381 
L 678 2906 
z
M 678 1631 
L 4684 1631 
L 4684 1100 
L 678 1100 
L 678 1631 
z
" transform="scale(0.015625)"/>
     </defs>
     <use xlink:href="#DejaVuSans-43" transform="translate(0 0.015625)"/>
     <use xlink:href="#DejaVuSans-65" transform="translate(69.824219 0.015625)"/>
     <use xlink:href="#DejaVuSans-6e" transform="translate(131.347656 0.015625)"/>
     <use xlink:href="#DejaVuSans-74" transform="translate(194.726562 0.015625)"/>
     <use xlink:href="#DejaVuSans-72" transform="translate(233.935547 0.015625)"/>
     <use xlink:href="#DejaVuSans-61" transform="translate(275.048828 0.015625)"/>
     <use xlink:href="#DejaVuSans-6c" transform="translate(336.328125 0.015625)"/>
     <use xlink:href="#DejaVuSans-20" transform="translate(364.111328 0.015625)"/>
     <use xlink:href="#DejaVuSans-6c" transform="translate(395.898438 0.015625)"/>
     <use xlink:href="#DejaVuSans-69" transform="translate(423.681641 0.015625)"/>
     <use xlink:href="#DejaVuSans-6d" transform="translate(451.464844 0.015625)"/>
     <use xlink:href="#DejaVuSans-69" transform="translate(548.876953 0.015625)"/>
     <use xlink:href="#DejaVuSans-74" transform="translate(576.660156 0.015625)"/>
     <use xlink:href="#DejaVuSans-20" transform="translate(615.869141 0.015625)"/>
     <use xlink:href="#DejaVuSans-74" transform="translate(647.65625 0.015625)"/>
     <use xlink:href="#DejaVuSans-68" transform="translate(686.865234 0.015625)"/>
     <use xlink:href="#DejaVuSans-65" transform="translate(750.244141 0.015625)"/>
     <use xlink:href="#DejaVuSans-6f" transform="translate(811.767578 0.015625)"/>
     <use xlink:href="#DejaVuSans-72" transform="translate(872.949219 0.015625)"/>
     <use xlink:href="#DejaVuSans-65" transform="translate(914.0625 0.015625)"/>
     <use xlink:href="#DejaVuSans-6d" transform="translate(975.585938 0.015625)"/>
     <use xlink:href="#DejaVuSans-2c" transform="translate(1072.998047 0.015625)"/>
     <use xlink:href="#DejaVuSans-20" transform="translate(1104.785156 0.015625)"/>
     <use xlink:href="#DejaVuSans-Oblique-6e" transform="translate(1136.572266 0.015625)"/>
     <use xlink:href="#DejaVuSans-3d" transform="translate(1219.433594 0.015625)"/>
     <use xlink:href="#DejaVuSans-39" transform="translate(1322.705078 0.015625)"/>
     <use xlink:href="#DejaVuSans-30" transform="translate(1386.328125 0.015625)"/>
     <use xlink:href="#DejaVuSans-30" transform="translate(1449.951172 0.015625)"/>
    </g>
   </g>
   <g id="legend_1">
    <g id="patch_247">
     <path d="M 424.998438 74.3525 
L 515.7625 74.3525 
Q 517.7625 74.3525 517.7625 72.3525 
L 517.7625 29.318125 
Q 517.7625 27.318125 515.7625 27.318125 
L 424.998438 27.318125 
Q 422.998438 27.318125 422.998438 29.318125 
L 422.998438 72.3525 
Q 422.998438 74.3525 424.998438 74.3525 
z
" style="fill: #ffffff; opacity: 0.8; stroke: #cccccc; stroke-linejoin: miter"/>
    </g>
    <g id="patch_248">
     <path d="M 426.998438 38.916562 
L 446.998438 38.916562 
L 446.998438 31.916562 
L 426.998438 31.916562 
z
" style="fill: #ff0000"/>
    </g>
    <g id="text_20">
     <!-- Bin(20, 0.3) -->
     <g transform="translate(454.998438 38.916562) scale(0.1 -0.1)">
      <defs>
       <path id="DejaVuSans-42" d="M 1259 2228 
L 1259 519 
L 2272 519 
Q 2781 519 3026 730 
Q 3272 941 3272 1375 
Q 3272 1813 3026 2020 
Q 2781 2228 2272 2228 
L 1259 2228 
z
M 1259 4147 
L 1259 2741 
L 2194 2741 
Q 2656 2741 2882 2914 
Q 3109 3088 3109 3444 
Q 3109 3797 2882 3972 
Q 2656 4147 2194 4147 
L 1259 4147 
z
M 628 4666 
L 2241 4666 
Q 2963 4666 3353 4366 
Q 3744 4066 3744 3513 
Q 3744 3084 3544 2831 
Q 3344 2578 2956 2516 
Q 3422 2416 3680 2098 
Q 3938 1781 3938 1306 
Q 3938 681 3513 340 
Q 3088 0 2303 0 
L 628 0 
L 628 4666 
z
" transform="scale(0.015625)"/>
       <path id="DejaVuSans-28" d="M 1984 4856 
Q 1566 4138 1362 3434 
Q 1159 2731 1159 2009 
Q 1159 1288 1364 580 
Q 1569 -128 1984 -844 
L 1484 -844 
Q 1016 -109 783 600 
Q 550 1309 550 2009 
Q 550 2706 781 3412 
Q 1013 4119 1484 4856 
L 1984 4856 
z
" transform="scale(0.015625)"/>
       <path id="DejaVuSans-2e" d="M 684 794 
L 1344 794 
L 1344 0 
L 684 0 
L 684 794 
z
" transform="scale(0.015625)"/>
       <path id="DejaVuSans-29" d="M 513 4856 
L 1013 4856 
Q 1481 4119 1714 3412 
Q 1947 2706 1947 2009 
Q 1947 1309 1714 600 
Q 1481 -109 1013 -844 
L 513 -844 
Q 928 -128 1133 580 
Q 1338 1288 1338 2009 
Q 1338 2731 1133 3434 
Q 928 4138 513 4856 
z
" transform="scale(0.015625)"/>
      </defs>
      <use xlink:href="#DejaVuSans-42"/>
      <use xlink:href="#DejaVuSans-69" x="68.603516"/>
      <use xlink:href="#DejaVuSans-6e" x="96.386719"/>
      <use xlink:href="#DejaVuSans-28" x="159.765625"/>
      <use xlink:href="#DejaVuSans-32" x="198.779297"/>
      <use xlink:href="#DejaVuSans-30" x="262.402344"/>
      <use xlink:href="#DejaVuSans-2c" x="326.025391"/>
      <use xlink:href="#DejaVuSans-20" x="357.8125"/>
      <use xlink:href="#DejaVuSans-30" x="389.599609"/>
      <use xlink:href="#DejaVuSans-2e" x="453.222656"/>
      <use xlink:href="#DejaVuSans-33" x="485.009766"/>
      <use xlink:href="#DejaVuSans-29" x="548.632812"/>
     </g>
    </g>
    <g id="patch_249">
     <path d="M 426.998438 53.594688 
L 446.998438 53.594688 
L 446.998438 46.594688 
L 426.998438 46.594688 
z
" style="fill: #ffa500"/>
    </g>
    <g id="text_21">
     <!-- Pois(10) -->
     <g transform="translate(454.998438 53.594688) scale(0.1 -0.1)">
      <defs>
       <path id="DejaVuSans-50" d="M 1259 4147 
L 1259 2394 
L 2053 2394 
Q 2494 2394 2734 2622 
Q 2975 2850 2975 3272 
Q 2975 3691 2734 3919 
Q 2494 4147 2053 4147 
L 1259 4147 
z
M 628 4666 
L 2053 4666 
Q 2838 4666 3239 4311 
Q 3641 3956 3641 3272 
Q 3641 2581 3239 2228 
Q 2838 1875 2053 1875 
L 1259 1875 
L 1259 0 
L 628 0 
L 628 4666 
z
" transform="scale(0.015625)"/>
       <path id="DejaVuSans-73" d="M 2834 3397 
L 2834 2853 
Q 2591 2978 2328 3040 
Q 2066 3103 1784 3103 
Q 1356 3103 1142 2972 
Q 928 2841 928 2578 
Q 928 2378 1081 2264 
Q 1234 2150 1697 2047 
L 1894 2003 
Q 2506 1872 2764 1633 
Q 3022 1394 3022 966 
Q 3022 478 2636 193 
Q 2250 -91 1575 -91 
Q 1294 -91 989 -36 
Q 684 19 347 128 
L 347 722 
Q 666 556 975 473 
Q 1284 391 1588 391 
Q 1994 391 2212 530 
Q 2431 669 2431 922 
Q 2431 1156 2273 1281 
Q 2116 1406 1581 1522 
L 1381 1569 
Q 847 1681 609 1914 
Q 372 2147 372 2553 
Q 372 3047 722 3315 
Q 1072 3584 1716 3584 
Q 2034 3584 2315 3537 
Q 2597 3491 2834 3397 
z
" transform="scale(0.015625)"/>
      </defs>
      <use xlink:href="#DejaVuSans-50"/>
      <use xlink:href="#DejaVuSans-6f" x="56.677734"/>
      <use xlink:href="#DejaVuSans-69" x="117.859375"/>
      <use xlink:href="#DejaVuSans-73" x="145.642578"/>
      <use xlink:href="#DejaVuSans-28" x="197.742188"/>
      <use xlink:href="#DejaVuSans-31" x="236.755859"/>
      <use xlink:href="#DejaVuSans-30" x="300.378906"/>
      <use xlink:href="#DejaVuSans-29" x="364.001953"/>
     </g>
    </g>
    <g id="patch_250">
     <path d="M 426.998438 68.272812 
L 446.998438 68.272812 
L 446.998438 61.272812 
L 426.998438 61.272812 
z
" style="fill: #bf00bf"/>
    </g>
    <g id="text_22">
     <!-- Geom(0.4) -->
     <g transform="translate(454.998438 68.272812) scale(0.1 -0.1)">
      <defs>
       <path id="DejaVuSans-47" d="M 3809 666 
L 3809 1919 
L 2778 1919 
L 2778 2438 
L 4434 2438 
L 4434 434 
Q 4069 175 3628 42 
Q 3188 -91 2688 -91 
Q 1594 -91 976 548 
Q 359 1188 359 2328 
Q 359 3472 976 4111 
Q 1594 4750 2688 4750 
Q 3144 4750 3555 4637 
Q 3966 4525 4313 4306 
L 4313 3634 
Q 3963 3931 3569 4081 
Q 3175 4231 2741 4231 
Q 1884 4231 1454 3753 
Q 1025 3275 1025 2328 
Q 1025 1384 1454 906 
Q 1884 428 2741 428 
Q 3075 428 3337 486 
Q 3600 544 3809 666 
z
" transform="scale(0.015625)"/>
      </defs>
      <use xlink:href="#DejaVuSans-47"/>
      <use xlink:href="#DejaVuSans-65" x="77.490234"/>
      <use xlink:href="#DejaVuSans-6f" x="139.013672"/>
      <use xlink:href="#DejaVuSans-6d" x="200.195312"/>
      <use xlink:href="#DejaVuSans-28" x="297.607422"/>
      <use xlink:href="#DejaVuSans-30" x="336.621094"/>
      <use xlink:href="#DejaVuSans-2e" x="400.244141"/>
      <use xlink:href="#DejaVuSans-34" x="432.03125"/>
      <use xlink:href="#DejaVuSans-29" x="495.654297"/>
     </g>
    </g>
   </g>
  </g>
 </g>
 <defs>
  <clipPath id="p73b9230a7c">
   <rect x="20.5625" y="22.318125" width="502.2" height="277.2"/>
  </clipPath>
 </defs>
</svg>