<?xml version="1.0" encoding="UTF-8" standalone="no"?>
<!DOCTYPE svg PUBLIC "-//W3C//DTD SVG 1.1//EN"
 "http://www.w3.org/Graphics/SVG/1.1/DTD/svg11.dtd">
<!-- Generated by graphviz version 8.1.0 (20230707.0739)
 -->
<!-- Title: Tree Pages: 1 -->
<svg width="3312pt" height="581pt"
 viewBox="0.00 0.00 3312.25 581.00" xmlns="http://www.w3.org/2000/svg" xmlns:xlink="http://www.w3.org/1999/xlink">
<g id="graph0" class="graph" transform="scale(1 1) rotate(0) translate(4 577)">
<title>Tree</title>
<polygon fill="white" stroke="none" points="-4,4 -4,-577 3308.25,-577 3308.25,4 -4,4"/>
<!-- 0 -->
<g id="node1" class="node">
<title>0</title>
<path fill="#f7d8c1" stroke="black" d="M1307,-573C1307,-573 1173.25,-573 1173.25,-573 1167.25,-573 1161.25,-567 1161.25,-561 1161.25,-561 1161.25,-517 1161.25,-517 1161.25,-511 1167.25,-505 1173.25,-505 1173.25,-505 1307,-505 1307,-505 1313,-505 1319,-511 1319,-517 1319,-517 1319,-561 1319,-561 1319,-567 1313,-573 1307,-573"/>
<text text-anchor="start" x="1203.38" y="-555.7" font-family="Helvetica,sans-Serif" font-size="14.00">lstat ≤ 7.865</text>
<text text-anchor="start" x="1169.25" y="-540.7" font-family="Helvetica,sans-Serif" font-size="14.00">squared_error = 87.132</text>
<text text-anchor="start" x="1195.5" y="-525.7" font-family="Helvetica,sans-Serif" font-size="14.00">samples = 404</text>
<text text-anchor="start" x="1195.5" y="-510.7" font-family="Helvetica,sans-Serif" font-size="14.00">value = 22.386</text>
</g>
<!-- 1 -->
<g id="node2" class="node">
<title>1</title>
<path fill="#f1b991" stroke="black" d="M1145,-469C1145,-469 1011.25,-469 1011.25,-469 1005.25,-469 999.25,-463 999.25,-457 999.25,-457 999.25,-413 999.25,-413 999.25,-407 1005.25,-401 1011.25,-401 1011.25,-401 1145,-401 1145,-401 1151,-401 1157,-407 1157,-413 1157,-413 1157,-457 1157,-457 1157,-463 1151,-469 1145,-469"/>
<text text-anchor="start" x="1045.5" y="-451.7" font-family="Helvetica,sans-Serif" font-size="14.00">rm ≤ 7.445</text>
<text text-anchor="start" x="1007.25" y="-436.7" font-family="Helvetica,sans-Serif" font-size="14.00">squared_error = 80.152</text>
<text text-anchor="start" x="1033.5" y="-421.7" font-family="Helvetica,sans-Serif" font-size="14.00">samples = 123</text>
<text text-anchor="start" x="1033.5" y="-406.7" font-family="Helvetica,sans-Serif" font-size="14.00">value = 32.147</text>
</g>
<!-- 0&#45;&gt;1 -->
<g id="edge1" class="edge">
<title>0&#45;&gt;1</title>
<path fill="none" stroke="black" d="M1187.08,-504.6C1172.12,-495.18 1155.7,-484.84 1140.25,-475.12"/>
<polygon fill="black" stroke="black" points="1142.62,-471.84 1132.29,-469.47 1138.89,-477.76 1142.62,-471.84"/>
<text text-anchor="middle" x="1136.83" y="-488.05" font-family="Helvetica,sans-Serif" font-size="14.00">True</text>
</g>
<!-- 20 -->
<g id="node21" class="node">
<title>20</title>
<path fill="#fae5d6" stroke="black" d="M1645,-469C1645,-469 1511.25,-469 1511.25,-469 1505.25,-469 1499.25,-463 1499.25,-457 1499.25,-457 1499.25,-413 1499.25,-413 1499.25,-407 1505.25,-401 1511.25,-401 1511.25,-401 1645,-401 1645,-401 1651,-401 1657,-407 1657,-413 1657,-413 1657,-457 1657,-457 1657,-463 1651,-469 1645,-469"/>
<text text-anchor="start" x="1545.12" y="-451.7" font-family="Helvetica,sans-Serif" font-size="14.00">lstat ≤ 15.0</text>
<text text-anchor="start" x="1507.25" y="-436.7" font-family="Helvetica,sans-Serif" font-size="14.00">squared_error = 30.221</text>
<text text-anchor="start" x="1533.5" y="-421.7" font-family="Helvetica,sans-Serif" font-size="14.00">samples = 281</text>
<text text-anchor="start" x="1533.5" y="-406.7" font-family="Helvetica,sans-Serif" font-size="14.00">value = 18.113</text>
</g>
<!-- 0&#45;&gt;20 -->
<g id="edge20" class="edge">
<title>0&#45;&gt;20</title>
<path fill="none" stroke="black" d="M1319.37,-514.09C1370.04,-498.79 1435.88,-478.93 1488.46,-463.06"/>
<polygon fill="black" stroke="black" points="1489.23,-466.18 1497.79,-459.94 1487.21,-459.48 1489.23,-466.18"/>
<text text-anchor="middle" x="1486.97" y="-476.17" font-family="Helvetica,sans-Serif" font-size="14.00">False</text>
</g>
<!-- 2 -->
<g id="node3" class="node">
<title>2</title>
<path fill="#f3c3a1" stroke="black" d="M568,-365C568,-365 434.25,-365 434.25,-365 428.25,-365 422.25,-359 422.25,-353 422.25,-353 422.25,-309 422.25,-309 422.25,-303 428.25,-297 434.25,-297 434.25,-297 568,-297 568,-297 574,-297 580,-303 580,-309 580,-309 580,-353 580,-353 580,-359 574,-365 568,-365"/>
<text text-anchor="start" x="468.12" y="-347.7" font-family="Helvetica,sans-Serif" font-size="14.00">dis ≤ 1.557</text>
<text text-anchor="start" x="430.25" y="-332.7" font-family="Helvetica,sans-Serif" font-size="14.00">squared_error = 37.162</text>
<text text-anchor="start" x="460.25" y="-317.7" font-family="Helvetica,sans-Serif" font-size="14.00">samples = 98</text>
<text text-anchor="start" x="456.5" y="-302.7" font-family="Helvetica,sans-Serif" font-size="14.00">value = 28.872</text>
</g>
<!-- 1&#45;&gt;2 -->
<g id="edge2" class="edge">
<title>1&#45;&gt;2</title>
<path fill="none" stroke="black" d="M998.8,-419.98C892.12,-401.12 702.92,-367.67 591.06,-347.9"/>
<polygon fill="black" stroke="black" points="591.94,-344.32 581.49,-346.03 590.72,-351.22 591.94,-344.32"/>
</g>
<!-- 11 -->
<g id="node12" class="node">
<title>11</title>
<path fill="#e89152" stroke="black" d="M1145,-365C1145,-365 1011.25,-365 1011.25,-365 1005.25,-365 999.25,-359 999.25,-353 999.25,-353 999.25,-309 999.25,-309 999.25,-303 1005.25,-297 1011.25,-297 1011.25,-297 1145,-297 1145,-297 1151,-297 1157,-303 1157,-309 1157,-309 1157,-353 1157,-353 1157,-359 1151,-365 1145,-365"/>
<text text-anchor="start" x="1047.75" y="-347.7" font-family="Helvetica,sans-Serif" font-size="14.00">rad ≤ 16.0</text>
<text text-anchor="start" x="1007.25" y="-332.7" font-family="Helvetica,sans-Serif" font-size="14.00">squared_error = 41.854</text>
<text text-anchor="start" x="1037.25" y="-317.7" font-family="Helvetica,sans-Serif" font-size="14.00">samples = 25</text>
<text text-anchor="start" x="1033.5" y="-302.7" font-family="Helvetica,sans-Serif" font-size="14.00">value = 44.984</text>
</g>
<!-- 1&#45;&gt;11 -->
<g id="edge11" class="edge">
<title>1&#45;&gt;11</title>
<path fill="none" stroke="black" d="M1078.12,-400.6C1078.12,-392.85 1078.12,-384.49 1078.12,-376.35"/>
<polygon fill="black" stroke="black" points="1081.63,-376.47 1078.12,-366.47 1074.63,-376.47 1081.63,-376.47"/>
</g>
<!-- 3 -->
<g id="node4" class="node">
<title>3</title>
<path fill="#e58139" stroke="black" d="M391.75,-253.5C391.75,-253.5 280.5,-253.5 280.5,-253.5 274.5,-253.5 268.5,-247.5 268.5,-241.5 268.5,-241.5 268.5,-212.5 268.5,-212.5 268.5,-206.5 274.5,-200.5 280.5,-200.5 280.5,-200.5 391.75,-200.5 391.75,-200.5 397.75,-200.5 403.75,-206.5 403.75,-212.5 403.75,-212.5 403.75,-241.5 403.75,-241.5 403.75,-247.5 397.75,-253.5 391.75,-253.5"/>
<text text-anchor="start" x="276.5" y="-236.2" font-family="Helvetica,sans-Serif" font-size="14.00">squared_error = 0.0</text>
<text text-anchor="start" x="299" y="-221.2" font-family="Helvetica,sans-Serif" font-size="14.00">samples = 3</text>
<text text-anchor="start" x="299" y="-206.2" font-family="Helvetica,sans-Serif" font-size="14.00">value = 50.0</text>
</g>
<!-- 2&#45;&gt;3 -->
<g id="edge3" class="edge">
<title>2&#45;&gt;3</title>
<path fill="none" stroke="black" d="M447.1,-296.6C427.79,-284.67 406.12,-271.27 387.08,-259.5"/>
<polygon fill="black" stroke="black" points="389.32,-256.15 378.97,-253.87 385.64,-262.1 389.32,-256.15"/>
</g>
<!-- 4 -->
<g id="node5" class="node">
<title>4</title>
<path fill="#f3c5a4" stroke="black" d="M568,-261C568,-261 434.25,-261 434.25,-261 428.25,-261 422.25,-255 422.25,-249 422.25,-249 422.25,-205 422.25,-205 422.25,-199 428.25,-193 434.25,-193 434.25,-193 568,-193 568,-193 574,-193 580,-199 580,-205 580,-205 580,-249 580,-249 580,-255 574,-261 568,-261"/>
<text text-anchor="start" x="468.5" y="-243.7" font-family="Helvetica,sans-Serif" font-size="14.00">rm ≤ 6.797</text>
<text text-anchor="start" x="430.25" y="-228.7" font-family="Helvetica,sans-Serif" font-size="14.00">squared_error = 23.794</text>
<text text-anchor="start" x="460.25" y="-213.7" font-family="Helvetica,sans-Serif" font-size="14.00">samples = 95</text>
<text text-anchor="start" x="456.5" y="-198.7" font-family="Helvetica,sans-Serif" font-size="14.00">value = 28.205</text>
</g>
<!-- 2&#45;&gt;4 -->
<g id="edge4" class="edge">
<title>2&#45;&gt;4</title>
<path fill="none" stroke="black" d="M501.12,-296.6C501.12,-288.85 501.12,-280.49 501.12,-272.35"/>
<polygon fill="black" stroke="black" points="504.63,-272.47 501.12,-262.47 497.63,-272.47 504.63,-272.47"/>
</g>
<!-- 5 -->
<g id="node6" class="node">
<title>5</title>
<path fill="#f5ceb2" stroke="black" d="M306.25,-157C306.25,-157 180,-157 180,-157 174,-157 168,-151 168,-145 168,-145 168,-101 168,-101 168,-95 174,-89 180,-89 180,-89 306.25,-89 306.25,-89 312.25,-89 318.25,-95 318.25,-101 318.25,-101 318.25,-145 318.25,-145 318.25,-151 312.25,-157 306.25,-157"/>
<text text-anchor="start" x="210.5" y="-139.7" font-family="Helvetica,sans-Serif" font-size="14.00">rm ≤ 6.529</text>
<text text-anchor="start" x="176" y="-124.7" font-family="Helvetica,sans-Serif" font-size="14.00">squared_error = 8.845</text>
<text text-anchor="start" x="202.25" y="-109.7" font-family="Helvetica,sans-Serif" font-size="14.00">samples = 59</text>
<text text-anchor="start" x="198.5" y="-94.7" font-family="Helvetica,sans-Serif" font-size="14.00">value = 25.424</text>
</g>
<!-- 4&#45;&gt;5 -->
<g id="edge5" class="edge">
<title>4&#45;&gt;5</title>
<path fill="none" stroke="black" d="M421.96,-194.7C392.42,-183.02 358.75,-169.71 328.66,-157.82"/>
<polygon fill="black" stroke="black" points="330.19,-154.26 319.6,-153.84 327.62,-160.77 330.19,-154.26"/>
</g>
<!-- 8 -->
<g id="node9" class="node">
<title>8</title>
<path fill="#f0b78e" stroke="black" d="M568,-157C568,-157 434.25,-157 434.25,-157 428.25,-157 422.25,-151 422.25,-145 422.25,-145 422.25,-101 422.25,-101 422.25,-95 428.25,-89 434.25,-89 434.25,-89 568,-89 568,-89 574,-89 580,-95 580,-101 580,-101 580,-145 580,-145 580,-151 574,-157 568,-157"/>
<text text-anchor="start" x="458" y="-139.7" font-family="Helvetica,sans-Serif" font-size="14.00">ptratio ≤ 19.45</text>
<text text-anchor="start" x="430.25" y="-124.7" font-family="Helvetica,sans-Serif" font-size="14.00">squared_error = 14.833</text>
<text text-anchor="start" x="460.25" y="-109.7" font-family="Helvetica,sans-Serif" font-size="14.00">samples = 36</text>
<text text-anchor="start" x="456.5" y="-94.7" font-family="Helvetica,sans-Serif" font-size="14.00">value = 32.764</text>
</g>
<!-- 4&#45;&gt;8 -->
<g id="edge8" class="edge">
<title>4&#45;&gt;8</title>
<path fill="none" stroke="black" d="M501.12,-192.6C501.12,-184.85 501.12,-176.49 501.12,-168.35"/>
<polygon fill="black" stroke="black" points="504.63,-168.47 501.12,-158.47 497.63,-168.47 504.63,-168.47"/>
</g>
<!-- 6 -->
<g id="node7" class="node">
<title>6</title>
<path fill="#f6d3b9" stroke="black" d="M138.25,-53C138.25,-53 12,-53 12,-53 6,-53 0,-47 0,-41 0,-41 0,-12 0,-12 0,-6 6,0 12,0 12,0 138.25,0 138.25,0 144.25,0 150.25,-6 150.25,-12 150.25,-12 150.25,-41 150.25,-41 150.25,-47 144.25,-53 138.25,-53"/>
<text text-anchor="start" x="8" y="-35.7" font-family="Helvetica,sans-Serif" font-size="14.00">squared_error = 2.943</text>
<text text-anchor="start" x="34.25" y="-20.7" font-family="Helvetica,sans-Serif" font-size="14.00">samples = 35</text>
<text text-anchor="start" x="30.5" y="-5.7" font-family="Helvetica,sans-Serif" font-size="14.00">value = 23.929</text>
</g>
<!-- 5&#45;&gt;6 -->
<g id="edge6" class="edge">
<title>5&#45;&gt;6</title>
<path fill="none" stroke="black" d="M183.89,-88.68C166.52,-78.91 147.59,-68.26 130.46,-58.63"/>
<polygon fill="black" stroke="black" points="132.59,-55.25 122.16,-53.39 129.16,-61.35 132.59,-55.25"/>
</g>
<!-- 7 -->
<g id="node8" class="node">
<title>7</title>
<path fill="#f3c7a7" stroke="black" d="M306.25,-53C306.25,-53 180,-53 180,-53 174,-53 168,-47 168,-41 168,-41 168,-12 168,-12 168,-6 174,0 180,0 180,0 306.25,0 306.25,0 312.25,0 318.25,-6 318.25,-12 318.25,-12 318.25,-41 318.25,-41 318.25,-47 312.25,-53 306.25,-53"/>
<text text-anchor="start" x="176" y="-35.7" font-family="Helvetica,sans-Serif" font-size="14.00">squared_error = 9.438</text>
<text text-anchor="start" x="202.25" y="-20.7" font-family="Helvetica,sans-Serif" font-size="14.00">samples = 24</text>
<text text-anchor="start" x="198.5" y="-5.7" font-family="Helvetica,sans-Serif" font-size="14.00">value = 27.604</text>
</g>
<!-- 5&#45;&gt;7 -->
<g id="edge7" class="edge">
<title>5&#45;&gt;7</title>
<path fill="none" stroke="black" d="M243.12,-88.68C243.12,-80.81 243.12,-72.37 243.12,-64.35"/>
<polygon fill="black" stroke="black" points="246.63,-64.39 243.12,-54.39 239.63,-64.39 246.63,-64.39"/>
</g>
<!-- 9 -->
<g id="node10" class="node">
<title>9</title>
<path fill="#f0b68c" stroke="black" d="M482,-53C482,-53 348.25,-53 348.25,-53 342.25,-53 336.25,-47 336.25,-41 336.25,-41 336.25,-12 336.25,-12 336.25,-6 342.25,0 348.25,0 348.25,0 482,0 482,0 488,0 494,-6 494,-12 494,-12 494,-41 494,-41 494,-47 488,-53 482,-53"/>
<text text-anchor="start" x="344.25" y="-35.7" font-family="Helvetica,sans-Serif" font-size="14.00">squared_error = 12.082</text>
<text text-anchor="start" x="374.25" y="-20.7" font-family="Helvetica,sans-Serif" font-size="14.00">samples = 34</text>
<text text-anchor="start" x="370.5" y="-5.7" font-family="Helvetica,sans-Serif" font-size="14.00">value = 33.206</text>
</g>
<!-- 8&#45;&gt;9 -->
<g id="edge9" class="edge">
<title>8&#45;&gt;9</title>
<path fill="none" stroke="black" d="M470.8,-88.68C462.73,-79.81 454.01,-70.23 445.91,-61.33"/>
<polygon fill="black" stroke="black" points="449.01,-59.43 439.69,-54.39 443.83,-64.15 449.01,-59.43"/>
</g>
<!-- 10 -->
<g id="node11" class="node">
<title>10</title>
<path fill="#f5cfb3" stroke="black" d="M650.25,-53C650.25,-53 524,-53 524,-53 518,-53 512,-47 512,-41 512,-41 512,-12 512,-12 512,-6 518,0 524,0 524,0 650.25,0 650.25,0 656.25,0 662.25,-6 662.25,-12 662.25,-12 662.25,-41 662.25,-41 662.25,-47 656.25,-53 650.25,-53"/>
<text text-anchor="start" x="520" y="-35.7" font-family="Helvetica,sans-Serif" font-size="14.00">squared_error = 1.822</text>
<text text-anchor="start" x="550" y="-20.7" font-family="Helvetica,sans-Serif" font-size="14.00">samples = 2</text>
<text text-anchor="start" x="546.25" y="-5.7" font-family="Helvetica,sans-Serif" font-size="14.00">value = 25.25</text>
</g>
<!-- 8&#45;&gt;10 -->
<g id="edge10" class="edge">
<title>8&#45;&gt;10</title>
<path fill="none" stroke="black" d="M531.45,-88.68C539.52,-79.81 548.24,-70.23 556.34,-61.33"/>
<polygon fill="black" stroke="black" points="558.42,-64.15 562.56,-54.39 553.24,-59.43 558.42,-64.15"/>
</g>
<!-- 12 -->
<g id="node13" class="node">
<title>12</title>
<path fill="#e88e4d" stroke="black" d="M1067.25,-261C1067.25,-261 941,-261 941,-261 935,-261 929,-255 929,-249 929,-249 929,-205 929,-205 929,-199 935,-193 941,-193 941,-193 1067.25,-193 1067.25,-193 1073.25,-193 1079.25,-199 1079.25,-205 1079.25,-205 1079.25,-249 1079.25,-249 1079.25,-255 1073.25,-261 1067.25,-261"/>
<text text-anchor="start" x="964.75" y="-243.7" font-family="Helvetica,sans-Serif" font-size="14.00">ptratio ≤ 17.9</text>
<text text-anchor="start" x="937" y="-228.7" font-family="Helvetica,sans-Serif" font-size="14.00">squared_error = 20.47</text>
<text text-anchor="start" x="963.25" y="-213.7" font-family="Helvetica,sans-Serif" font-size="14.00">samples = 24</text>
<text text-anchor="start" x="959.5" y="-198.7" font-family="Helvetica,sans-Serif" font-size="14.00">value = 45.946</text>
</g>
<!-- 11&#45;&gt;12 -->
<g id="edge12" class="edge">
<title>11&#45;&gt;12</title>
<path fill="none" stroke="black" d="M1053.89,-296.6C1047.76,-288.15 1041.1,-278.96 1034.69,-270.13"/>
<polygon fill="black" stroke="black" points="1037.12,-268.51 1028.41,-262.47 1031.45,-272.62 1037.12,-268.51"/>
</g>
<!-- 19 -->
<g id="node20" class="node">
<title>19</title>
<path fill="#f7d9c3" stroke="black" d="M1220.75,-253.5C1220.75,-253.5 1109.5,-253.5 1109.5,-253.5 1103.5,-253.5 1097.5,-247.5 1097.5,-241.5 1097.5,-241.5 1097.5,-212.5 1097.5,-212.5 1097.5,-206.5 1103.5,-200.5 1109.5,-200.5 1109.5,-200.5 1220.75,-200.5 1220.75,-200.5 1226.75,-200.5 1232.75,-206.5 1232.75,-212.5 1232.75,-212.5 1232.75,-241.5 1232.75,-241.5 1232.75,-247.5 1226.75,-253.5 1220.75,-253.5"/>
<text text-anchor="start" x="1105.5" y="-236.2" font-family="Helvetica,sans-Serif" font-size="14.00">squared_error = 0.0</text>
<text text-anchor="start" x="1128" y="-221.2" font-family="Helvetica,sans-Serif" font-size="14.00">samples = 1</text>
<text text-anchor="start" x="1128" y="-206.2" font-family="Helvetica,sans-Serif" font-size="14.00">value = 21.9</text>
</g>
<!-- 11&#45;&gt;19 -->
<g id="edge19" class="edge">
<title>11&#45;&gt;19</title>
<path fill="none" stroke="black" d="M1106.61,-296.6C1116.09,-285.49 1126.65,-273.11 1136.16,-261.95"/>
<polygon fill="black" stroke="black" points="1139.37,-264.59 1143.2,-254.71 1134.05,-260.04 1139.37,-264.59"/>
</g>
<!-- 13 -->
<g id="node14" class="node">
<title>13</title>
<path fill="#e78b48" stroke="black" d="M985,-157C985,-157 851.25,-157 851.25,-157 845.25,-157 839.25,-151 839.25,-145 839.25,-145 839.25,-101 839.25,-101 839.25,-95 845.25,-89 851.25,-89 851.25,-89 985,-89 985,-89 991,-89 997,-95 997,-101 997,-101 997,-145 997,-145 997,-151 991,-157 985,-157"/>
<text text-anchor="start" x="880.62" y="-139.7" font-family="Helvetica,sans-Serif" font-size="14.00">crim ≤ 0.559</text>
<text text-anchor="start" x="847.25" y="-124.7" font-family="Helvetica,sans-Serif" font-size="14.00">squared_error = 13.911</text>
<text text-anchor="start" x="877.25" y="-109.7" font-family="Helvetica,sans-Serif" font-size="14.00">samples = 21</text>
<text text-anchor="start" x="873.5" y="-94.7" font-family="Helvetica,sans-Serif" font-size="14.00">value = 46.952</text>
</g>
<!-- 12&#45;&gt;13 -->
<g id="edge13" class="edge">
<title>12&#45;&gt;13</title>
<path fill="none" stroke="black" d="M975.97,-192.6C968.76,-184.06 960.93,-174.77 953.42,-165.86"/>
<polygon fill="black" stroke="black" points="955.47,-163.86 946.35,-158.47 950.12,-168.37 955.47,-163.86"/>
</g>
<!-- 16 -->
<g id="node17" class="node">
<title>16</title>
<path fill="#eca470" stroke="black" d="M1153.25,-157C1153.25,-157 1027,-157 1027,-157 1021,-157 1015,-151 1015,-145 1015,-145 1015,-101 1015,-101 1015,-95 1021,-89 1027,-89 1027,-89 1153.25,-89 1153.25,-89 1159.25,-89 1165.25,-95 1165.25,-101 1165.25,-101 1165.25,-145 1165.25,-145 1165.25,-151 1159.25,-157 1153.25,-157"/>
<text text-anchor="start" x="1052.62" y="-139.7" font-family="Helvetica,sans-Serif" font-size="14.00">crim ≤ 0.295</text>
<text text-anchor="start" x="1023" y="-124.7" font-family="Helvetica,sans-Serif" font-size="14.00">squared_error = 9.647</text>
<text text-anchor="start" x="1053" y="-109.7" font-family="Helvetica,sans-Serif" font-size="14.00">samples = 3</text>
<text text-anchor="start" x="1053" y="-94.7" font-family="Helvetica,sans-Serif" font-size="14.00">value = 38.9</text>
</g>
<!-- 12&#45;&gt;16 -->
<g id="edge16" class="edge">
<title>12&#45;&gt;16</title>
<path fill="none" stroke="black" d="M1032.28,-192.6C1039.49,-184.06 1047.32,-174.77 1054.83,-165.86"/>
<polygon fill="black" stroke="black" points="1058.13,-168.37 1061.9,-158.47 1052.78,-163.86 1058.13,-168.37"/>
</g>
<!-- 14 -->
<g id="node15" class="node">
<title>14</title>
<path fill="#e88e4e" stroke="black" d="M826,-53C826,-53 692.25,-53 692.25,-53 686.25,-53 680.25,-47 680.25,-41 680.25,-41 680.25,-12 680.25,-12 680.25,-6 686.25,0 692.25,0 692.25,0 826,0 826,0 832,0 838,-6 838,-12 838,-12 838,-41 838,-41 838,-47 832,-53 826,-53"/>
<text text-anchor="start" x="688.25" y="-35.7" font-family="Helvetica,sans-Serif" font-size="14.00">squared_error = 14.274</text>
<text text-anchor="start" x="718.25" y="-20.7" font-family="Helvetica,sans-Serif" font-size="14.00">samples = 15</text>
<text text-anchor="start" x="714.5" y="-5.7" font-family="Helvetica,sans-Serif" font-size="14.00">value = 45.733</text>
</g>
<!-- 13&#45;&gt;14 -->
<g id="edge14" class="edge">
<title>13&#45;&gt;14</title>
<path fill="none" stroke="black" d="M862.07,-88.68C845.77,-79 828.04,-68.46 811.95,-58.9"/>
<polygon fill="black" stroke="black" points="814.08,-55.49 803.69,-53.39 810.5,-61.51 814.08,-55.49"/>
</g>
<!-- 15 -->
<g id="node16" class="node">
<title>15</title>
<path fill="#e58139" stroke="black" d="M979.75,-53C979.75,-53 868.5,-53 868.5,-53 862.5,-53 856.5,-47 856.5,-41 856.5,-41 856.5,-12 856.5,-12 856.5,-6 862.5,0 868.5,0 868.5,0 979.75,0 979.75,0 985.75,0 991.75,-6 991.75,-12 991.75,-12 991.75,-41 991.75,-41 991.75,-47 985.75,-53 979.75,-53"/>
<text text-anchor="start" x="864.5" y="-35.7" font-family="Helvetica,sans-Serif" font-size="14.00">squared_error = 0.0</text>
<text text-anchor="start" x="887" y="-20.7" font-family="Helvetica,sans-Serif" font-size="14.00">samples = 6</text>
<text text-anchor="start" x="887" y="-5.7" font-family="Helvetica,sans-Serif" font-size="14.00">value = 50.0</text>
</g>
<!-- 13&#45;&gt;15 -->
<g id="edge15" class="edge">
<title>13&#45;&gt;15</title>
<path fill="none" stroke="black" d="M920.24,-88.68C920.74,-80.81 921.28,-72.37 921.79,-64.35"/>
<polygon fill="black" stroke="black" points="925.34,-64.6 922.48,-54.39 918.35,-64.15 925.34,-64.6"/>
</g>
<!-- 17 -->
<g id="node18" class="node">
<title>17</title>
<path fill="#edaa79" stroke="black" d="M1148.25,-53C1148.25,-53 1022,-53 1022,-53 1016,-53 1010,-47 1010,-41 1010,-41 1010,-12 1010,-12 1010,-6 1016,0 1022,0 1022,0 1148.25,0 1148.25,0 1154.25,0 1160.25,-6 1160.25,-12 1160.25,-12 1160.25,-41 1160.25,-41 1160.25,-47 1154.25,-53 1148.25,-53"/>
<text text-anchor="start" x="1018" y="-35.7" font-family="Helvetica,sans-Serif" font-size="14.00">squared_error = 3.062</text>
<text text-anchor="start" x="1048" y="-20.7" font-family="Helvetica,sans-Serif" font-size="14.00">samples = 2</text>
<text text-anchor="start" x="1044.25" y="-5.7" font-family="Helvetica,sans-Serif" font-size="14.00">value = 36.95</text>
</g>
<!-- 16&#45;&gt;17 -->
<g id="edge17" class="edge">
<title>16&#45;&gt;17</title>
<path fill="none" stroke="black" d="M1088.36,-88.68C1087.95,-80.81 1087.5,-72.37 1087.07,-64.35"/>
<polygon fill="black" stroke="black" points="1090.52,-64.19 1086.5,-54.39 1083.53,-64.56 1090.52,-64.19"/>
</g>
<!-- 18 -->
<g id="node19" class="node">
<title>18</title>
<path fill="#ea985c" stroke="black" d="M1301.75,-53C1301.75,-53 1190.5,-53 1190.5,-53 1184.5,-53 1178.5,-47 1178.5,-41 1178.5,-41 1178.5,-12 1178.5,-12 1178.5,-6 1184.5,0 1190.5,0 1190.5,0 1301.75,0 1301.75,0 1307.75,0 1313.75,-6 1313.75,-12 1313.75,-12 1313.75,-41 1313.75,-41 1313.75,-47 1307.75,-53 1301.75,-53"/>
<text text-anchor="start" x="1186.5" y="-35.7" font-family="Helvetica,sans-Serif" font-size="14.00">squared_error = 0.0</text>
<text text-anchor="start" x="1209" y="-20.7" font-family="Helvetica,sans-Serif" font-size="14.00">samples = 1</text>
<text text-anchor="start" x="1209" y="-5.7" font-family="Helvetica,sans-Serif" font-size="14.00">value = 42.8</text>
</g>
<!-- 16&#45;&gt;18 -->
<g id="edge18" class="edge">
<title>16&#45;&gt;18</title>
<path fill="none" stroke="black" d="M1145.12,-88.68C1161.11,-79 1178.51,-68.46 1194.3,-58.9"/>
<polygon fill="black" stroke="black" points="1195.64,-61.57 1202.38,-53.39 1192.01,-55.58 1195.64,-61.57"/>
</g>
<!-- 21 -->
<g id="node22" class="node">
<title>21</title>
<path fill="#f7dac5" stroke="black" d="M1645,-365C1645,-365 1511.25,-365 1511.25,-365 1505.25,-365 1499.25,-359 1499.25,-353 1499.25,-353 1499.25,-309 1499.25,-309 1499.25,-303 1505.25,-297 1511.25,-297 1511.25,-297 1645,-297 1645,-297 1651,-297 1657,-303 1657,-309 1657,-309 1657,-353 1657,-353 1657,-359 1651,-365 1645,-365"/>
<text text-anchor="start" x="1545.12" y="-347.7" font-family="Helvetica,sans-Serif" font-size="14.00">dis ≤ 1.207</text>
<text text-anchor="start" x="1507.25" y="-332.7" font-family="Helvetica,sans-Serif" font-size="14.00">squared_error = 17.083</text>
<text text-anchor="start" x="1533.5" y="-317.7" font-family="Helvetica,sans-Serif" font-size="14.00">samples = 145</text>
<text text-anchor="start" x="1533.5" y="-302.7" font-family="Helvetica,sans-Serif" font-size="14.00">value = 21.541</text>
</g>
<!-- 20&#45;&gt;21 -->
<g id="edge21" class="edge">
<title>20&#45;&gt;21</title>
<path fill="none" stroke="black" d="M1578.12,-400.6C1578.12,-392.85 1578.12,-384.49 1578.12,-376.35"/>
<polygon fill="black" stroke="black" points="1581.63,-376.47 1578.12,-366.47 1574.63,-376.47 1581.63,-376.47"/>
</g>
<!-- 30 -->
<g id="node31" class="node">
<title>30</title>
<path fill="#fcf0e8" stroke="black" d="M2384,-365C2384,-365 2250.25,-365 2250.25,-365 2244.25,-365 2238.25,-359 2238.25,-353 2238.25,-353 2238.25,-309 2238.25,-309 2238.25,-303 2244.25,-297 2250.25,-297 2250.25,-297 2384,-297 2384,-297 2390,-297 2396,-303 2396,-309 2396,-309 2396,-353 2396,-353 2396,-359 2390,-365 2384,-365"/>
<text text-anchor="start" x="2281.88" y="-347.7" font-family="Helvetica,sans-Serif" font-size="14.00">nox ≤ 0.603</text>
<text text-anchor="start" x="2246.25" y="-332.7" font-family="Helvetica,sans-Serif" font-size="14.00">squared_error = 18.333</text>
<text text-anchor="start" x="2272.5" y="-317.7" font-family="Helvetica,sans-Serif" font-size="14.00">samples = 136</text>
<text text-anchor="start" x="2272.5" y="-302.7" font-family="Helvetica,sans-Serif" font-size="14.00">value = 14.457</text>
</g>
<!-- 20&#45;&gt;30 -->
<g id="edge30" class="edge">
<title>20&#45;&gt;30</title>
<path fill="none" stroke="black" d="M1657.21,-423.08C1795.7,-403.97 2081.24,-364.56 2227.09,-344.43"/>
<polygon fill="black" stroke="black" points="2227.34,-347.79 2236.77,-342.95 2226.39,-340.85 2227.34,-347.79"/>
</g>
<!-- 22 -->
<g id="node23" class="node">
<title>22</title>
<path fill="#e58139" stroke="black" d="M1551.75,-253.5C1551.75,-253.5 1440.5,-253.5 1440.5,-253.5 1434.5,-253.5 1428.5,-247.5 1428.5,-241.5 1428.5,-241.5 1428.5,-212.5 1428.5,-212.5 1428.5,-206.5 1434.5,-200.5 1440.5,-200.5 1440.5,-200.5 1551.75,-200.5 1551.75,-200.5 1557.75,-200.5 1563.75,-206.5 1563.75,-212.5 1563.75,-212.5 1563.75,-241.5 1563.75,-241.5 1563.75,-247.5 1557.75,-253.5 1551.75,-253.5"/>
<text text-anchor="start" x="1436.5" y="-236.2" font-family="Helvetica,sans-Serif" font-size="14.00">squared_error = 0.0</text>
<text text-anchor="start" x="1459" y="-221.2" font-family="Helvetica,sans-Serif" font-size="14.00">samples = 1</text>
<text text-anchor="start" x="1459" y="-206.2" font-family="Helvetica,sans-Serif" font-size="14.00">value = 50.0</text>
</g>
<!-- 21&#45;&gt;22 -->
<g id="edge22" class="edge">
<title>21&#45;&gt;22</title>
<path fill="none" stroke="black" d="M1551.28,-296.6C1542.34,-285.49 1532.39,-273.11 1523.42,-261.95"/>
<polygon fill="black" stroke="black" points="1525.78,-260.31 1516.79,-254.71 1520.33,-264.69 1525.78,-260.31"/>
</g>
<!-- 23 -->
<g id="node24" class="node">
<title>23</title>
<path fill="#f8dbc6" stroke="black" d="M1728,-261C1728,-261 1594.25,-261 1594.25,-261 1588.25,-261 1582.25,-255 1582.25,-249 1582.25,-249 1582.25,-205 1582.25,-205 1582.25,-199 1588.25,-193 1594.25,-193 1594.25,-193 1728,-193 1728,-193 1734,-193 1740,-199 1740,-205 1740,-205 1740,-249 1740,-249 1740,-255 1734,-261 1728,-261"/>
<text text-anchor="start" x="1628.5" y="-243.7" font-family="Helvetica,sans-Serif" font-size="14.00">rm ≤ 6.605</text>
<text text-anchor="start" x="1590.25" y="-228.7" font-family="Helvetica,sans-Serif" font-size="14.00">squared_error = 11.539</text>
<text text-anchor="start" x="1616.5" y="-213.7" font-family="Helvetica,sans-Serif" font-size="14.00">samples = 144</text>
<text text-anchor="start" x="1616.5" y="-198.7" font-family="Helvetica,sans-Serif" font-size="14.00">value = 21.344</text>
</g>
<!-- 21&#45;&gt;23 -->
<g id="edge23" class="edge">
<title>21&#45;&gt;23</title>
<path fill="none" stroke="black" d="M1605.3,-296.6C1612.25,-288.06 1619.81,-278.77 1627.06,-269.86"/>
<polygon fill="black" stroke="black" points="1630.29,-272.44 1633.89,-262.47 1624.86,-268.02 1630.29,-272.44"/>
</g>
<!-- 24 -->
<g id="node25" class="node">
<title>24</title>
<path fill="#f8dcc9" stroke="black" d="M1638.25,-157C1638.25,-157 1512,-157 1512,-157 1506,-157 1500,-151 1500,-145 1500,-145 1500,-101 1500,-101 1500,-95 1506,-89 1512,-89 1512,-89 1638.25,-89 1638.25,-89 1644.25,-89 1650.25,-95 1650.25,-101 1650.25,-101 1650.25,-145 1650.25,-145 1650.25,-151 1644.25,-157 1638.25,-157"/>
<text text-anchor="start" x="1532" y="-139.7" font-family="Helvetica,sans-Serif" font-size="14.00">ptratio ≤ 19.65</text>
<text text-anchor="start" x="1508" y="-124.7" font-family="Helvetica,sans-Serif" font-size="14.00">squared_error = 7.822</text>
<text text-anchor="start" x="1530.5" y="-109.7" font-family="Helvetica,sans-Serif" font-size="14.00">samples = 131</text>
<text text-anchor="start" x="1530.5" y="-94.7" font-family="Helvetica,sans-Serif" font-size="14.00">value = 20.873</text>
</g>
<!-- 23&#45;&gt;24 -->
<g id="edge24" class="edge">
<title>23&#45;&gt;24</title>
<path fill="none" stroke="black" d="M1632.97,-192.6C1625.76,-184.06 1617.93,-174.77 1610.42,-165.86"/>
<polygon fill="black" stroke="black" points="1612.47,-163.86 1603.35,-158.47 1607.12,-168.37 1612.47,-163.86"/>
</g>
<!-- 27 -->
<g id="node28" class="node">
<title>27</title>
<path fill="#f4ccaf" stroke="black" d="M1814,-157C1814,-157 1680.25,-157 1680.25,-157 1674.25,-157 1668.25,-151 1668.25,-145 1668.25,-145 1668.25,-101 1668.25,-101 1668.25,-95 1674.25,-89 1680.25,-89 1680.25,-89 1814,-89 1814,-89 1820,-89 1826,-95 1826,-101 1826,-101 1826,-145 1826,-145 1826,-151 1820,-157 1814,-157"/>
<text text-anchor="start" x="1710.38" y="-139.7" font-family="Helvetica,sans-Serif" font-size="14.00">lstat ≤ 11.82</text>
<text text-anchor="start" x="1676.25" y="-124.7" font-family="Helvetica,sans-Serif" font-size="14.00">squared_error = 24.287</text>
<text text-anchor="start" x="1706.25" y="-109.7" font-family="Helvetica,sans-Serif" font-size="14.00">samples = 13</text>
<text text-anchor="start" x="1702.5" y="-94.7" font-family="Helvetica,sans-Serif" font-size="14.00">value = 26.085</text>
</g>
<!-- 23&#45;&gt;27 -->
<g id="edge27" class="edge">
<title>23&#45;&gt;27</title>
<path fill="none" stroke="black" d="M1689.28,-192.6C1696.49,-184.06 1704.32,-174.77 1711.83,-165.86"/>
<polygon fill="black" stroke="black" points="1715.13,-168.37 1718.9,-158.47 1709.78,-163.86 1715.13,-168.37"/>
</g>
<!-- 25 -->
<g id="node26" class="node">
<title>25</title>
<path fill="#f7dac4" stroke="black" d="M1470.25,-53C1470.25,-53 1344,-53 1344,-53 1338,-53 1332,-47 1332,-41 1332,-41 1332,-12 1332,-12 1332,-6 1338,0 1344,0 1344,0 1470.25,0 1470.25,0 1476.25,0 1482.25,-6 1482.25,-12 1482.25,-12 1482.25,-41 1482.25,-41 1482.25,-47 1476.25,-53 1470.25,-53"/>
<text text-anchor="start" x="1340" y="-35.7" font-family="Helvetica,sans-Serif" font-size="14.00">squared_error = 6.295</text>
<text text-anchor="start" x="1366.25" y="-20.7" font-family="Helvetica,sans-Serif" font-size="14.00">samples = 78</text>
<text text-anchor="start" x="1362.5" y="-5.7" font-family="Helvetica,sans-Serif" font-size="14.00">value = 21.704</text>
</g>
<!-- 24&#45;&gt;25 -->
<g id="edge25" class="edge">
<title>24&#45;&gt;25</title>
<path fill="none" stroke="black" d="M1515.89,-88.68C1498.52,-78.91 1479.59,-68.26 1462.46,-58.63"/>
<polygon fill="black" stroke="black" points="1464.59,-55.25 1454.16,-53.39 1461.16,-61.35 1464.59,-55.25"/>
</g>
<!-- 26 -->
<g id="node27" class="node">
<title>26</title>
<path fill="#f9e0cf" stroke="black" d="M1638.25,-53C1638.25,-53 1512,-53 1512,-53 1506,-53 1500,-47 1500,-41 1500,-41 1500,-12 1500,-12 1500,-6 1506,0 1512,0 1512,0 1638.25,0 1638.25,0 1644.25,0 1650.25,-6 1650.25,-12 1650.25,-12 1650.25,-41 1650.25,-41 1650.25,-47 1644.25,-53 1638.25,-53"/>
<text text-anchor="start" x="1508" y="-35.7" font-family="Helvetica,sans-Serif" font-size="14.00">squared_error = 7.559</text>
<text text-anchor="start" x="1534.25" y="-20.7" font-family="Helvetica,sans-Serif" font-size="14.00">samples = 53</text>
<text text-anchor="start" x="1530.5" y="-5.7" font-family="Helvetica,sans-Serif" font-size="14.00">value = 19.651</text>
</g>
<!-- 24&#45;&gt;26 -->
<g id="edge26" class="edge">
<title>24&#45;&gt;26</title>
<path fill="none" stroke="black" d="M1575.12,-88.68C1575.12,-80.81 1575.12,-72.37 1575.12,-64.35"/>
<polygon fill="black" stroke="black" points="1578.63,-64.39 1575.12,-54.39 1571.63,-64.39 1578.63,-64.39"/>
</g>
<!-- 28 -->
<g id="node29" class="node">
<title>28</title>
<path fill="#f4c7a8" stroke="black" d="M1814,-53C1814,-53 1680.25,-53 1680.25,-53 1674.25,-53 1668.25,-47 1668.25,-41 1668.25,-41 1668.25,-12 1668.25,-12 1668.25,-6 1674.25,0 1680.25,0 1680.25,0 1814,0 1814,0 1820,0 1826,-6 1826,-12 1826,-12 1826,-41 1826,-41 1826,-47 1820,-53 1814,-53"/>
<text text-anchor="start" x="1676.25" y="-35.7" font-family="Helvetica,sans-Serif" font-size="14.00">squared_error = 13.022</text>
<text text-anchor="start" x="1706.25" y="-20.7" font-family="Helvetica,sans-Serif" font-size="14.00">samples = 11</text>
<text text-anchor="start" x="1702.5" y="-5.7" font-family="Helvetica,sans-Serif" font-size="14.00">value = 27.555</text>
</g>
<!-- 27&#45;&gt;28 -->
<g id="edge28" class="edge">
<title>27&#45;&gt;28</title>
<path fill="none" stroke="black" d="M1747.12,-88.68C1747.12,-80.81 1747.12,-72.37 1747.12,-64.35"/>
<polygon fill="black" stroke="black" points="1750.63,-64.39 1747.12,-54.39 1743.63,-64.39 1750.63,-64.39"/>
</g>
<!-- 29 -->
<g id="node30" class="node">
<title>29</title>
<path fill="#fae5d7" stroke="black" d="M1967.75,-53C1967.75,-53 1856.5,-53 1856.5,-53 1850.5,-53 1844.5,-47 1844.5,-41 1844.5,-41 1844.5,-12 1844.5,-12 1844.5,-6 1850.5,0 1856.5,0 1856.5,0 1967.75,0 1967.75,0 1973.75,0 1979.75,-6 1979.75,-12 1979.75,-12 1979.75,-41 1979.75,-41 1979.75,-47 1973.75,-53 1967.75,-53"/>
<text text-anchor="start" x="1852.5" y="-35.7" font-family="Helvetica,sans-Serif" font-size="14.00">squared_error = 9.0</text>
<text text-anchor="start" x="1875" y="-20.7" font-family="Helvetica,sans-Serif" font-size="14.00">samples = 2</text>
<text text-anchor="start" x="1875" y="-5.7" font-family="Helvetica,sans-Serif" font-size="14.00">value = 18.0</text>
</g>
<!-- 27&#45;&gt;29 -->
<g id="edge29" class="edge">
<title>27&#45;&gt;29</title>
<path fill="none" stroke="black" d="M1805.3,-88.68C1822.36,-78.91 1840.96,-68.26 1857.77,-58.63"/>
<polygon fill="black" stroke="black" points="1858.98,-61.4 1865.91,-53.39 1855.5,-55.33 1858.98,-61.4"/>
</g>
<!-- 31 -->
<g id="node32" class="node">
<title>31</title>
<path fill="#fae6d8" stroke="black" d="M2384,-261C2384,-261 2250.25,-261 2250.25,-261 2244.25,-261 2238.25,-255 2238.25,-249 2238.25,-249 2238.25,-205 2238.25,-205 2238.25,-199 2244.25,-193 2250.25,-193 2250.25,-193 2384,-193 2384,-193 2390,-193 2396,-199 2396,-205 2396,-205 2396,-249 2396,-249 2396,-255 2390,-261 2384,-261"/>
<text text-anchor="start" x="2279.62" y="-243.7" font-family="Helvetica,sans-Serif" font-size="14.00">crim ≤ 0.593</text>
<text text-anchor="start" x="2246.25" y="-228.7" font-family="Helvetica,sans-Serif" font-size="14.00">squared_error = 12.725</text>
<text text-anchor="start" x="2276.25" y="-213.7" font-family="Helvetica,sans-Serif" font-size="14.00">samples = 47</text>
<text text-anchor="start" x="2276.25" y="-198.7" font-family="Helvetica,sans-Serif" font-size="14.00">value = 17.83</text>
</g>
<!-- 30&#45;&gt;31 -->
<g id="edge31" class="edge">
<title>30&#45;&gt;31</title>
<path fill="none" stroke="black" d="M2317.12,-296.6C2317.12,-288.85 2317.12,-280.49 2317.12,-272.35"/>
<polygon fill="black" stroke="black" points="2320.63,-272.47 2317.12,-262.47 2313.63,-272.47 2320.63,-272.47"/>
</g>
<!-- 38 -->
<g id="node39" class="node">
<title>38</title>
<path fill="#fdf6f1" stroke="black" d="M2876,-261C2876,-261 2742.25,-261 2742.25,-261 2736.25,-261 2730.25,-255 2730.25,-249 2730.25,-249 2730.25,-205 2730.25,-205 2730.25,-199 2736.25,-193 2742.25,-193 2742.25,-193 2876,-193 2876,-193 2882,-193 2888,-199 2888,-205 2888,-205 2888,-249 2888,-249 2888,-255 2882,-261 2876,-261"/>
<text text-anchor="start" x="2768.62" y="-243.7" font-family="Helvetica,sans-Serif" font-size="14.00">lstat ≤ 19.645</text>
<text text-anchor="start" x="2738.25" y="-228.7" font-family="Helvetica,sans-Serif" font-size="14.00">squared_error = 12.116</text>
<text text-anchor="start" x="2768.25" y="-213.7" font-family="Helvetica,sans-Serif" font-size="14.00">samples = 89</text>
<text text-anchor="start" x="2764.5" y="-198.7" font-family="Helvetica,sans-Serif" font-size="14.00">value = 12.676</text>
</g>
<!-- 30&#45;&gt;38 -->
<g id="edge38" class="edge">
<title>30&#45;&gt;38</title>
<path fill="none" stroke="black" d="M2396.45,-313.56C2484.69,-295.26 2626.94,-265.77 2719.24,-246.64"/>
<polygon fill="black" stroke="black" points="2719.88,-249.87 2728.96,-244.41 2718.46,-243.02 2719.88,-249.87"/>
</g>
<!-- 32 -->
<g id="node33" class="node">
<title>32</title>
<path fill="#f9e0ce" stroke="black" d="M2294.25,-157C2294.25,-157 2168,-157 2168,-157 2162,-157 2156,-151 2156,-145 2156,-145 2156,-101 2156,-101 2156,-95 2162,-89 2168,-89 2168,-89 2294.25,-89 2294.25,-89 2300.25,-89 2306.25,-95 2306.25,-101 2306.25,-101 2306.25,-145 2306.25,-145 2306.25,-151 2300.25,-157 2294.25,-157"/>
<text text-anchor="start" x="2198.5" y="-139.7" font-family="Helvetica,sans-Serif" font-size="14.00">rm ≤ 6.168</text>
<text text-anchor="start" x="2164" y="-124.7" font-family="Helvetica,sans-Serif" font-size="14.00">squared_error = 5.946</text>
<text text-anchor="start" x="2190.25" y="-109.7" font-family="Helvetica,sans-Serif" font-size="14.00">samples = 24</text>
<text text-anchor="start" x="2186.5" y="-94.7" font-family="Helvetica,sans-Serif" font-size="14.00">value = 19.846</text>
</g>
<!-- 31&#45;&gt;32 -->
<g id="edge32" class="edge">
<title>31&#45;&gt;32</title>
<path fill="none" stroke="black" d="M2288.97,-192.6C2281.76,-184.06 2273.93,-174.77 2266.42,-165.86"/>
<polygon fill="black" stroke="black" points="2268.47,-163.86 2259.35,-158.47 2263.12,-168.37 2268.47,-163.86"/>
</g>
<!-- 35 -->
<g id="node36" class="node">
<title>35</title>
<path fill="#fbece2" stroke="black" d="M2470,-157C2470,-157 2336.25,-157 2336.25,-157 2330.25,-157 2324.25,-151 2324.25,-145 2324.25,-145 2324.25,-101 2324.25,-101 2324.25,-95 2330.25,-89 2336.25,-89 2336.25,-89 2470,-89 2470,-89 2476,-89 2482,-95 2482,-101 2482,-101 2482,-145 2482,-145 2482,-151 2476,-157 2470,-157"/>
<text text-anchor="start" x="2370.5" y="-139.7" font-family="Helvetica,sans-Serif" font-size="14.00">rm ≤ 6.843</text>
<text text-anchor="start" x="2332.25" y="-124.7" font-family="Helvetica,sans-Serif" font-size="14.00">squared_error = 11.133</text>
<text text-anchor="start" x="2362.25" y="-109.7" font-family="Helvetica,sans-Serif" font-size="14.00">samples = 23</text>
<text text-anchor="start" x="2358.5" y="-94.7" font-family="Helvetica,sans-Serif" font-size="14.00">value = 15.726</text>
</g>
<!-- 31&#45;&gt;35 -->
<g id="edge35" class="edge">
<title>31&#45;&gt;35</title>
<path fill="none" stroke="black" d="M2345.28,-192.6C2352.49,-184.06 2360.32,-174.77 2367.83,-165.86"/>
<polygon fill="black" stroke="black" points="2371.13,-168.37 2374.9,-158.47 2365.78,-163.86 2371.13,-168.37"/>
</g>
<!-- 33 -->
<g id="node34" class="node">
<title>33</title>
<path fill="#f9e1cf" stroke="black" d="M2136.25,-53C2136.25,-53 2010,-53 2010,-53 2004,-53 1998,-47 1998,-41 1998,-41 1998,-12 1998,-12 1998,-6 2004,0 2010,0 2010,0 2136.25,0 2136.25,0 2142.25,0 2148.25,-6 2148.25,-12 2148.25,-12 2148.25,-41 2148.25,-41 2148.25,-47 2142.25,-53 2136.25,-53"/>
<text text-anchor="start" x="2006" y="-35.7" font-family="Helvetica,sans-Serif" font-size="14.00">squared_error = 3.817</text>
<text text-anchor="start" x="2032.25" y="-20.7" font-family="Helvetica,sans-Serif" font-size="14.00">samples = 23</text>
<text text-anchor="start" x="2032.25" y="-5.7" font-family="Helvetica,sans-Serif" font-size="14.00">value = 19.53</text>
</g>
<!-- 32&#45;&gt;33 -->
<g id="edge33" class="edge">
<title>32&#45;&gt;33</title>
<path fill="none" stroke="black" d="M2175.42,-88.68C2159.23,-79 2141.6,-68.46 2125.62,-58.9"/>
<polygon fill="black" stroke="black" points="2127.8,-55.52 2117.42,-53.39 2124.2,-61.53 2127.8,-55.52"/>
</g>
<!-- 34 -->
<g id="node35" class="node">
<title>34</title>
<path fill="#f4c9aa" stroke="black" d="M2294,-53C2294,-53 2178.25,-53 2178.25,-53 2172.25,-53 2166.25,-47 2166.25,-41 2166.25,-41 2166.25,-12 2166.25,-12 2166.25,-6 2172.25,0 2178.25,0 2178.25,0 2294,0 2294,0 2300,0 2306,-6 2306,-12 2306,-12 2306,-41 2306,-41 2306,-47 2300,-53 2294,-53"/>
<text text-anchor="start" x="2174.25" y="-35.7" font-family="Helvetica,sans-Serif" font-size="14.00">squared_error = &#45;0.0</text>
<text text-anchor="start" x="2199" y="-20.7" font-family="Helvetica,sans-Serif" font-size="14.00">samples = 1</text>
<text text-anchor="start" x="2199" y="-5.7" font-family="Helvetica,sans-Serif" font-size="14.00">value = 27.1</text>
</g>
<!-- 32&#45;&gt;34 -->
<g id="edge34" class="edge">
<title>32&#45;&gt;34</title>
<path fill="none" stroke="black" d="M2232.89,-88.68C2233.3,-80.81 2233.75,-72.37 2234.18,-64.35"/>
<polygon fill="black" stroke="black" points="2237.72,-64.56 2234.75,-54.39 2230.73,-64.19 2237.72,-64.56"/>
</g>
<!-- 36 -->
<g id="node37" class="node">
<title>36</title>
<path fill="#fceee5" stroke="black" d="M2462.25,-53C2462.25,-53 2336,-53 2336,-53 2330,-53 2324,-47 2324,-41 2324,-41 2324,-12 2324,-12 2324,-6 2330,0 2336,0 2336,0 2462.25,0 2462.25,0 2468.25,0 2474.25,-6 2474.25,-12 2474.25,-12 2474.25,-41 2474.25,-41 2474.25,-47 2468.25,-53 2462.25,-53"/>
<text text-anchor="start" x="2332" y="-35.7" font-family="Helvetica,sans-Serif" font-size="14.00">squared_error = 5.052</text>
<text text-anchor="start" x="2358.25" y="-20.7" font-family="Helvetica,sans-Serif" font-size="14.00">samples = 22</text>
<text text-anchor="start" x="2354.5" y="-5.7" font-family="Helvetica,sans-Serif" font-size="14.00">value = 15.191</text>
</g>
<!-- 35&#45;&gt;36 -->
<g id="edge36" class="edge">
<title>35&#45;&gt;36</title>
<path fill="none" stroke="black" d="M2401.71,-88.68C2401.38,-80.81 2401.02,-72.37 2400.68,-64.35"/>
<polygon fill="black" stroke="black" points="2404.14,-64.24 2400.22,-54.39 2397.15,-64.53 2404.14,-64.24"/>
</g>
<!-- 37 -->
<g id="node38" class="node">
<title>37</title>
<path fill="#f4c8a8" stroke="black" d="M2620,-53C2620,-53 2504.25,-53 2504.25,-53 2498.25,-53 2492.25,-47 2492.25,-41 2492.25,-41 2492.25,-12 2492.25,-12 2492.25,-6 2498.25,0 2504.25,0 2504.25,0 2620,0 2620,0 2626,0 2632,-6 2632,-12 2632,-12 2632,-41 2632,-41 2632,-47 2626,-53 2620,-53"/>
<text text-anchor="start" x="2500.25" y="-35.7" font-family="Helvetica,sans-Serif" font-size="14.00">squared_error = &#45;0.0</text>
<text text-anchor="start" x="2525" y="-20.7" font-family="Helvetica,sans-Serif" font-size="14.00">samples = 1</text>
<text text-anchor="start" x="2525" y="-5.7" font-family="Helvetica,sans-Serif" font-size="14.00">value = 27.5</text>
</g>
<!-- 35&#45;&gt;37 -->
<g id="edge37" class="edge">
<title>35&#45;&gt;37</title>
<path fill="none" stroke="black" d="M2459.18,-88.68C2475.48,-79 2493.21,-68.46 2509.3,-58.9"/>
<polygon fill="black" stroke="black" points="2510.75,-61.51 2517.56,-53.39 2507.17,-55.49 2510.75,-61.51"/>
</g>
<!-- 39 -->
<g id="node40" class="node">
<title>39</title>
<path fill="#fcefe5" stroke="black" d="M2868.5,-157C2868.5,-157 2749.75,-157 2749.75,-157 2743.75,-157 2737.75,-151 2737.75,-145 2737.75,-145 2737.75,-101 2737.75,-101 2737.75,-95 2743.75,-89 2749.75,-89 2749.75,-89 2868.5,-89 2868.5,-89 2874.5,-89 2880.5,-95 2880.5,-101 2880.5,-101 2880.5,-145 2880.5,-145 2880.5,-151 2874.5,-157 2868.5,-157"/>
<text text-anchor="start" x="2767.88" y="-139.7" font-family="Helvetica,sans-Serif" font-size="14.00">crim ≤ 12.224</text>
<text text-anchor="start" x="2745.75" y="-124.7" font-family="Helvetica,sans-Serif" font-size="14.00">squared_error = 6.22</text>
<text text-anchor="start" x="2768.25" y="-109.7" font-family="Helvetica,sans-Serif" font-size="14.00">samples = 40</text>
<text text-anchor="start" x="2764.5" y="-94.7" font-family="Helvetica,sans-Serif" font-size="14.00">value = 15.025</text>
</g>
<!-- 38&#45;&gt;39 -->
<g id="edge39" class="edge">
<title>38&#45;&gt;39</title>
<path fill="none" stroke="black" d="M2809.12,-192.6C2809.12,-184.85 2809.12,-176.49 2809.12,-168.35"/>
<polygon fill="black" stroke="black" points="2812.63,-168.47 2809.12,-158.47 2805.63,-168.47 2812.63,-168.47"/>
</g>
<!-- 42 -->
<g id="node43" class="node">
<title>42</title>
<path fill="#fefcfa" stroke="black" d="M3120.5,-157C3120.5,-157 3001.75,-157 3001.75,-157 2995.75,-157 2989.75,-151 2989.75,-145 2989.75,-145 2989.75,-101 2989.75,-101 2989.75,-95 2995.75,-89 3001.75,-89 3001.75,-89 3120.5,-89 3120.5,-89 3126.5,-89 3132.5,-95 3132.5,-101 3132.5,-101 3132.5,-145 3132.5,-145 3132.5,-151 3126.5,-157 3120.5,-157"/>
<text text-anchor="start" x="3027.75" y="-139.7" font-family="Helvetica,sans-Serif" font-size="14.00">tax ≤ 551.5</text>
<text text-anchor="start" x="2997.75" y="-124.7" font-family="Helvetica,sans-Serif" font-size="14.00">squared_error = 8.75</text>
<text text-anchor="start" x="3020.25" y="-109.7" font-family="Helvetica,sans-Serif" font-size="14.00">samples = 49</text>
<text text-anchor="start" x="3016.5" y="-94.7" font-family="Helvetica,sans-Serif" font-size="14.00">value = 10.759</text>
</g>
<!-- 38&#45;&gt;42 -->
<g id="edge42" class="edge">
<title>38&#45;&gt;42</title>
<path fill="none" stroke="black" d="M2888.17,-194.01C2917.22,-182.25 2950.16,-168.92 2979.44,-157.06"/>
<polygon fill="black" stroke="black" points="2980.67,-159.94 2988.63,-152.94 2978.05,-153.45 2980.67,-159.94"/>
</g>
<!-- 40 -->
<g id="node41" class="node">
<title>40</title>
<path fill="#fbede3" stroke="black" d="M2788.25,-53C2788.25,-53 2662,-53 2662,-53 2656,-53 2650,-47 2650,-41 2650,-41 2650,-12 2650,-12 2650,-6 2656,0 2662,0 2662,0 2788.25,0 2788.25,0 2794.25,0 2800.25,-6 2800.25,-12 2800.25,-12 2800.25,-41 2800.25,-41 2800.25,-47 2794.25,-53 2788.25,-53"/>
<text text-anchor="start" x="2658" y="-35.7" font-family="Helvetica,sans-Serif" font-size="14.00">squared_error = 4.852</text>
<text text-anchor="start" x="2684.25" y="-20.7" font-family="Helvetica,sans-Serif" font-size="14.00">samples = 36</text>
<text text-anchor="start" x="2680.5" y="-5.7" font-family="Helvetica,sans-Serif" font-size="14.00">value = 15.461</text>
</g>
<!-- 39&#45;&gt;40 -->
<g id="edge40" class="edge">
<title>39&#45;&gt;40</title>
<path fill="none" stroke="black" d="M2779.51,-88.68C2771.71,-79.9 2763.28,-70.42 2755.44,-61.6"/>
<polygon fill="black" stroke="black" points="2758.4,-59.54 2749.14,-54.39 2753.17,-64.19 2758.4,-59.54"/>
</g>
<!-- 41 -->
<g id="node42" class="node">
<title>41</title>
<path fill="#fefbf9" stroke="black" d="M2956.25,-53C2956.25,-53 2830,-53 2830,-53 2824,-53 2818,-47 2818,-41 2818,-41 2818,-12 2818,-12 2818,-6 2824,0 2830,0 2830,0 2956.25,0 2956.25,0 2962.25,0 2968.25,-6 2968.25,-12 2968.25,-12 2968.25,-41 2968.25,-41 2968.25,-47 2962.25,-53 2956.25,-53"/>
<text text-anchor="start" x="2826" y="-35.7" font-family="Helvetica,sans-Serif" font-size="14.00">squared_error = 1.415</text>
<text text-anchor="start" x="2856" y="-20.7" font-family="Helvetica,sans-Serif" font-size="14.00">samples = 4</text>
<text text-anchor="start" x="2856" y="-5.7" font-family="Helvetica,sans-Serif" font-size="14.00">value = 11.1</text>
</g>
<!-- 39&#45;&gt;41 -->
<g id="edge41" class="edge">
<title>39&#45;&gt;41</title>
<path fill="none" stroke="black" d="M2838.74,-88.68C2846.54,-79.9 2854.97,-70.42 2862.81,-61.6"/>
<polygon fill="black" stroke="black" points="2865.08,-64.19 2869.11,-54.39 2859.85,-59.54 2865.08,-64.19"/>
</g>
<!-- 43 -->
<g id="node44" class="node">
<title>43</title>
<path fill="#fcf1e8" stroke="black" d="M3124.25,-53C3124.25,-53 2998,-53 2998,-53 2992,-53 2986,-47 2986,-41 2986,-41 2986,-12 2986,-12 2986,-6 2992,0 2998,0 2998,0 3124.25,0 3124.25,0 3130.25,0 3136.25,-6 3136.25,-12 3136.25,-12 3136.25,-41 3136.25,-41 3136.25,-47 3130.25,-53 3124.25,-53"/>
<text text-anchor="start" x="2994" y="-35.7" font-family="Helvetica,sans-Serif" font-size="14.00">squared_error = 2.353</text>
<text text-anchor="start" x="3020.25" y="-20.7" font-family="Helvetica,sans-Serif" font-size="14.00">samples = 10</text>
<text text-anchor="start" x="3020.25" y="-5.7" font-family="Helvetica,sans-Serif" font-size="14.00">value = 14.41</text>
</g>
<!-- 42&#45;&gt;43 -->
<g id="edge43" class="edge">
<title>42&#45;&gt;43</title>
<path fill="none" stroke="black" d="M3061.12,-88.68C3061.12,-80.81 3061.12,-72.37 3061.12,-64.35"/>
<polygon fill="black" stroke="black" points="3064.63,-64.39 3061.12,-54.39 3057.63,-64.39 3064.63,-64.39"/>
</g>
<!-- 44 -->
<g id="node45" class="node">
<title>44</title>
<path fill="#ffffff" stroke="black" d="M3292.25,-53C3292.25,-53 3166,-53 3166,-53 3160,-53 3154,-47 3154,-41 3154,-41 3154,-12 3154,-12 3154,-6 3160,0 3166,0 3166,0 3292.25,0 3292.25,0 3298.25,0 3304.25,-6 3304.25,-12 3304.25,-12 3304.25,-41 3304.25,-41 3304.25,-47 3298.25,-53 3292.25,-53"/>
<text text-anchor="start" x="3162" y="-35.7" font-family="Helvetica,sans-Serif" font-size="14.00">squared_error = 6.097</text>
<text text-anchor="start" x="3188.25" y="-20.7" font-family="Helvetica,sans-Serif" font-size="14.00">samples = 39</text>
<text text-anchor="start" x="3188.25" y="-5.7" font-family="Helvetica,sans-Serif" font-size="14.00">value = 9.823</text>
</g>
<!-- 42&#45;&gt;44 -->
<g id="edge44" class="edge">
<title>42&#45;&gt;44</title>
<path fill="none" stroke="black" d="M3120.36,-88.68C3137.73,-78.91 3156.66,-68.26 3173.79,-58.63"/>
<polygon fill="black" stroke="black" points="3175.09,-61.35 3182.09,-53.39 3171.66,-55.25 3175.09,-61.35"/>
</g>
</g>
</svg>