<?xml version="1.0" encoding="UTF-8" standalone="no"?>
<!DOCTYPE svg PUBLIC "-//W3C//DTD SVG 1.1//EN"
 "http://www.w3.org/Graphics/SVG/1.1/DTD/svg11.dtd">
<!-- Generated by graphviz version 8.1.0 (20230707.0739)
 -->
<!-- Title: Tree Pages: 1 -->
<svg width="2951pt" height="581pt"
 viewBox="0.00 0.00 2950.50 581.00" xmlns="http://www.w3.org/2000/svg" xmlns:xlink="http://www.w3.org/1999/xlink">
<g id="graph0" class="graph" transform="scale(1 1) rotate(0) translate(4 577)">
<title>Tree</title>
<polygon fill="white" stroke="none" points="-4,4 -4,-577 2946.5,-577 2946.5,4 -4,4"/>
<!-- 0 -->
<g id="node1" class="node">
<title>0</title>
<path fill="#f7d6bf" stroke="black" d="M1958.5,-573C1958.5,-573 1824.75,-573 1824.75,-573 1818.75,-573 1812.75,-567 1812.75,-561 1812.75,-561 1812.75,-517 1812.75,-517 1812.75,-511 1818.75,-505 1824.75,-505 1824.75,-505 1958.5,-505 1958.5,-505 1964.5,-505 1970.5,-511 1970.5,-517 1970.5,-517 1970.5,-561 1970.5,-561 1970.5,-567 1964.5,-573 1958.5,-573"/>
<text text-anchor="start" x="1859" y="-555.7" font-family="Helvetica,sans-Serif" font-size="14.00">rm ≤ 6.974</text>
<text text-anchor="start" x="1820.75" y="-540.7" font-family="Helvetica,sans-Serif" font-size="14.00">squared_error = 84.659</text>
<text text-anchor="start" x="1847" y="-525.7" font-family="Helvetica,sans-Serif" font-size="14.00">samples = 404</text>
<text text-anchor="start" x="1847" y="-510.7" font-family="Helvetica,sans-Serif" font-size="14.00">value = 22.568</text>
</g>
<!-- 1 -->
<g id="node2" class="node">
<title>1</title>
<path fill="#f8decb" stroke="black" d="M1547.5,-469C1547.5,-469 1413.75,-469 1413.75,-469 1407.75,-469 1401.75,-463 1401.75,-457 1401.75,-457 1401.75,-413 1401.75,-413 1401.75,-407 1407.75,-401 1413.75,-401 1413.75,-401 1547.5,-401 1547.5,-401 1553.5,-401 1559.5,-407 1559.5,-413 1559.5,-413 1559.5,-457 1559.5,-457 1559.5,-463 1553.5,-469 1547.5,-469"/>
<text text-anchor="start" x="1440.12" y="-451.7" font-family="Helvetica,sans-Serif" font-size="14.00">lstat ≤ 14.405</text>
<text text-anchor="start" x="1409.75" y="-436.7" font-family="Helvetica,sans-Serif" font-size="14.00">squared_error = 42.082</text>
<text text-anchor="start" x="1436" y="-421.7" font-family="Helvetica,sans-Serif" font-size="14.00">samples = 348</text>
<text text-anchor="start" x="1436" y="-406.7" font-family="Helvetica,sans-Serif" font-size="14.00">value = 20.099</text>
</g>
<!-- 0&#45;&gt;1 -->
<g id="edge1" class="edge">
<title>0&#45;&gt;1</title>
<path fill="none" stroke="black" d="M1812.38,-518.33C1743.12,-501.15 1642.63,-476.21 1570.42,-458.28"/>
<polygon fill="black" stroke="black" points="1571.53,-454.7 1560.98,-455.69 1569.84,-461.5 1571.53,-454.7"/>
<text text-anchor="middle" x="1572.88" y="-471.31" font-family="Helvetica,sans-Serif" font-size="14.00">True</text>
</g>
<!-- 28 -->
<g id="node29" class="node">
<title>28</title>
<path fill="#eda674" stroke="black" d="M2371.5,-469C2371.5,-469 2237.75,-469 2237.75,-469 2231.75,-469 2225.75,-463 2225.75,-457 2225.75,-457 2225.75,-413 2225.75,-413 2225.75,-407 2231.75,-401 2237.75,-401 2237.75,-401 2371.5,-401 2371.5,-401 2377.5,-401 2383.5,-407 2383.5,-413 2383.5,-413 2383.5,-457 2383.5,-457 2383.5,-463 2377.5,-469 2371.5,-469"/>
<text text-anchor="start" x="2272" y="-451.7" font-family="Helvetica,sans-Serif" font-size="14.00">rm ≤ 7.437</text>
<text text-anchor="start" x="2233.75" y="-436.7" font-family="Helvetica,sans-Serif" font-size="14.00">squared_error = 76.078</text>
<text text-anchor="start" x="2263.75" y="-421.7" font-family="Helvetica,sans-Serif" font-size="14.00">samples = 56</text>
<text text-anchor="start" x="2260" y="-406.7" font-family="Helvetica,sans-Serif" font-size="14.00">value = 37.907</text>
</g>
<!-- 0&#45;&gt;28 -->
<g id="edge28" class="edge">
<title>0&#45;&gt;28</title>
<path fill="none" stroke="black" d="M1970.77,-518.45C2040.53,-501.22 2142.11,-476.14 2214.88,-458.16"/>
<polygon fill="black" stroke="black" points="2215.53,-461.36 2224.4,-455.57 2213.85,-454.57 2215.53,-461.36"/>
<text text-anchor="middle" x="2212.48" y="-471.17" font-family="Helvetica,sans-Serif" font-size="14.00">False</text>
</g>
<!-- 2 -->
<g id="node3" class="node">
<title>2</title>
<path fill="#f6d3ba" stroke="black" d="M542.5,-365C542.5,-365 408.75,-365 408.75,-365 402.75,-365 396.75,-359 396.75,-353 396.75,-353 396.75,-309 396.75,-309 396.75,-303 402.75,-297 408.75,-297 408.75,-297 542.5,-297 542.5,-297 548.5,-297 554.5,-303 554.5,-309 554.5,-309 554.5,-353 554.5,-353 554.5,-359 548.5,-365 542.5,-365"/>
<text text-anchor="start" x="442.62" y="-347.7" font-family="Helvetica,sans-Serif" font-size="14.00">dis ≤ 1.385</text>
<text text-anchor="start" x="404.75" y="-332.7" font-family="Helvetica,sans-Serif" font-size="14.00">squared_error = 26.619</text>
<text text-anchor="start" x="431" y="-317.7" font-family="Helvetica,sans-Serif" font-size="14.00">samples = 210</text>
<text text-anchor="start" x="431" y="-302.7" font-family="Helvetica,sans-Serif" font-size="14.00">value = 23.528</text>
</g>
<!-- 1&#45;&gt;2 -->
<g id="edge2" class="edge">
<title>1&#45;&gt;2</title>
<path fill="none" stroke="black" d="M1401.34,-425.95C1216.88,-407.23 759.87,-360.85 565.47,-341.12"/>
<polygon fill="black" stroke="black" points="566.03,-337.56 555.73,-340.03 565.32,-344.52 566.03,-337.56"/>
</g>
<!-- 13 -->
<g id="node14" class="node">
<title>13</title>
<path fill="#fbeee4" stroke="black" d="M1547.5,-365C1547.5,-365 1413.75,-365 1413.75,-365 1407.75,-365 1401.75,-359 1401.75,-353 1401.75,-353 1401.75,-309 1401.75,-309 1401.75,-303 1407.75,-297 1413.75,-297 1413.75,-297 1547.5,-297 1547.5,-297 1553.5,-297 1559.5,-303 1559.5,-309 1559.5,-309 1559.5,-353 1559.5,-353 1559.5,-359 1553.5,-365 1547.5,-365"/>
<text text-anchor="start" x="1443.12" y="-347.7" font-family="Helvetica,sans-Serif" font-size="14.00">crim ≤ 6.992</text>
<text text-anchor="start" x="1409.75" y="-332.7" font-family="Helvetica,sans-Serif" font-size="14.00">squared_error = 20.493</text>
<text text-anchor="start" x="1436" y="-317.7" font-family="Helvetica,sans-Serif" font-size="14.00">samples = 138</text>
<text text-anchor="start" x="1436" y="-302.7" font-family="Helvetica,sans-Serif" font-size="14.00">value = 14.881</text>
</g>
<!-- 1&#45;&gt;13 -->
<g id="edge13" class="edge">
<title>1&#45;&gt;13</title>
<path fill="none" stroke="black" d="M1480.62,-400.6C1480.62,-392.85 1480.62,-384.49 1480.62,-376.35"/>
<polygon fill="black" stroke="black" points="1484.13,-376.47 1480.62,-366.47 1477.13,-376.47 1484.13,-376.47"/>
</g>
<!-- 3 -->
<g id="node4" class="node">
<title>3</title>
<path fill="#e99254" stroke="black" d="M290.5,-261C290.5,-261 156.75,-261 156.75,-261 150.75,-261 144.75,-255 144.75,-249 144.75,-249 144.75,-205 144.75,-205 144.75,-199 150.75,-193 156.75,-193 156.75,-193 290.5,-193 290.5,-193 296.5,-193 302.5,-199 302.5,-205 302.5,-205 302.5,-249 302.5,-249 302.5,-255 296.5,-261 290.5,-261"/>
<text text-anchor="start" x="186.88" y="-243.7" font-family="Helvetica,sans-Serif" font-size="14.00">lstat ≤ 10.83</text>
<text text-anchor="start" x="152.75" y="-228.7" font-family="Helvetica,sans-Serif" font-size="14.00">squared_error = 91.577</text>
<text text-anchor="start" x="186.5" y="-213.7" font-family="Helvetica,sans-Serif" font-size="14.00">samples = 4</text>
<text text-anchor="start" x="179" y="-198.7" font-family="Helvetica,sans-Serif" font-size="14.00">value = 44.475</text>
</g>
<!-- 2&#45;&gt;3 -->
<g id="edge3" class="edge">
<title>2&#45;&gt;3</title>
<path fill="none" stroke="black" d="M396.58,-298.01C369.97,-287.24 340.1,-275.14 312.77,-264.08"/>
<polygon fill="black" stroke="black" points="314.4,-260.56 303.82,-260.06 311.78,-267.05 314.4,-260.56"/>
</g>
<!-- 6 -->
<g id="node7" class="node">
<title>6</title>
<path fill="#f6d4bc" stroke="black" d="M542.5,-261C542.5,-261 408.75,-261 408.75,-261 402.75,-261 396.75,-255 396.75,-249 396.75,-249 396.75,-205 396.75,-205 396.75,-199 402.75,-193 408.75,-193 408.75,-193 542.5,-193 542.5,-193 548.5,-193 554.5,-199 554.5,-205 554.5,-205 554.5,-249 554.5,-249 554.5,-255 548.5,-261 542.5,-261"/>
<text text-anchor="start" x="443" y="-243.7" font-family="Helvetica,sans-Serif" font-size="14.00">rm ≤ 6.542</text>
<text text-anchor="start" x="404.75" y="-228.7" font-family="Helvetica,sans-Serif" font-size="14.00">squared_error = 16.673</text>
<text text-anchor="start" x="431" y="-213.7" font-family="Helvetica,sans-Serif" font-size="14.00">samples = 206</text>
<text text-anchor="start" x="431" y="-198.7" font-family="Helvetica,sans-Serif" font-size="14.00">value = 23.121</text>
</g>
<!-- 2&#45;&gt;6 -->
<g id="edge6" class="edge">
<title>2&#45;&gt;6</title>
<path fill="none" stroke="black" d="M475.62,-296.6C475.62,-288.85 475.62,-280.49 475.62,-272.35"/>
<polygon fill="black" stroke="black" points="479.13,-272.47 475.62,-262.47 472.13,-272.47 479.13,-272.47"/>
</g>
<!-- 4 -->
<g id="node5" class="node">
<title>4</title>
<path fill="#e58139" stroke="black" d="M123.25,-149.5C123.25,-149.5 12,-149.5 12,-149.5 6,-149.5 0,-143.5 0,-137.5 0,-137.5 0,-108.5 0,-108.5 0,-102.5 6,-96.5 12,-96.5 12,-96.5 123.25,-96.5 123.25,-96.5 129.25,-96.5 135.25,-102.5 135.25,-108.5 135.25,-108.5 135.25,-137.5 135.25,-137.5 135.25,-143.5 129.25,-149.5 123.25,-149.5"/>
<text text-anchor="start" x="8" y="-132.2" font-family="Helvetica,sans-Serif" font-size="14.00">squared_error = 0.0</text>
<text text-anchor="start" x="30.5" y="-117.2" font-family="Helvetica,sans-Serif" font-size="14.00">samples = 3</text>
<text text-anchor="start" x="30.5" y="-102.2" font-family="Helvetica,sans-Serif" font-size="14.00">value = 50.0</text>
</g>
<!-- 3&#45;&gt;4 -->
<g id="edge4" class="edge">
<title>3&#45;&gt;4</title>
<path fill="none" stroke="black" d="M172.54,-192.6C154.46,-180.78 134.17,-167.51 116.29,-155.82"/>
<polygon fill="black" stroke="black" points="118.47,-152.41 108.19,-149.87 114.64,-158.27 118.47,-152.41"/>
</g>
<!-- 5 -->
<g id="node6" class="node">
<title>5</title>
<path fill="#f3c5a5" stroke="black" d="M281.5,-149.5C281.5,-149.5 165.75,-149.5 165.75,-149.5 159.75,-149.5 153.75,-143.5 153.75,-137.5 153.75,-137.5 153.75,-108.5 153.75,-108.5 153.75,-102.5 159.75,-96.5 165.75,-96.5 165.75,-96.5 281.5,-96.5 281.5,-96.5 287.5,-96.5 293.5,-102.5 293.5,-108.5 293.5,-108.5 293.5,-137.5 293.5,-137.5 293.5,-143.5 287.5,-149.5 281.5,-149.5"/>
<text text-anchor="start" x="161.75" y="-132.2" font-family="Helvetica,sans-Serif" font-size="14.00">squared_error = &#45;0.0</text>
<text text-anchor="start" x="186.5" y="-117.2" font-family="Helvetica,sans-Serif" font-size="14.00">samples = 1</text>
<text text-anchor="start" x="186.5" y="-102.2" font-family="Helvetica,sans-Serif" font-size="14.00">value = 27.9</text>
</g>
<!-- 3&#45;&gt;5 -->
<g id="edge5" class="edge">
<title>3&#45;&gt;5</title>
<path fill="none" stroke="black" d="M223.62,-192.6C223.62,-182.36 223.62,-171.04 223.62,-160.6"/>
<polygon fill="black" stroke="black" points="227.13,-160.71 223.62,-150.71 220.13,-160.71 227.13,-160.71"/>
</g>
<!-- 7 -->
<g id="node8" class="node">
<title>7</title>
<path fill="#f7d9c3" stroke="black" d="M442,-157C442,-157 323.25,-157 323.25,-157 317.25,-157 311.25,-151 311.25,-145 311.25,-145 311.25,-101 311.25,-101 311.25,-95 317.25,-89 323.25,-89 323.25,-89 442,-89 442,-89 448,-89 454,-95 454,-101 454,-101 454,-145 454,-145 454,-151 448,-157 442,-157"/>
<text text-anchor="start" x="349.62" y="-139.7" font-family="Helvetica,sans-Serif" font-size="14.00">lstat ≤ 9.66</text>
<text text-anchor="start" x="319.25" y="-124.7" font-family="Helvetica,sans-Serif" font-size="14.00">squared_error = 8.39</text>
<text text-anchor="start" x="338" y="-109.7" font-family="Helvetica,sans-Serif" font-size="14.00">samples = 157</text>
<text text-anchor="start" x="338" y="-94.7" font-family="Helvetica,sans-Serif" font-size="14.00">value = 21.666</text>
</g>
<!-- 6&#45;&gt;7 -->
<g id="edge7" class="edge">
<title>6&#45;&gt;7</title>
<path fill="none" stroke="black" d="M445.17,-192.6C437.31,-183.97 428.74,-174.58 420.54,-165.58"/>
<polygon fill="black" stroke="black" points="423.47,-163.51 414.15,-158.47 418.3,-168.22 423.47,-163.51"/>
</g>
<!-- 10 -->
<g id="node11" class="node">
<title>10</title>
<path fill="#f3c6a5" stroke="black" d="M619.5,-157C619.5,-157 485.75,-157 485.75,-157 479.75,-157 473.75,-151 473.75,-145 473.75,-145 473.75,-101 473.75,-101 473.75,-95 479.75,-89 485.75,-89 485.75,-89 619.5,-89 619.5,-89 625.5,-89 631.5,-95 631.5,-101 631.5,-101 631.5,-145 631.5,-145 631.5,-151 625.5,-157 619.5,-157"/>
<text text-anchor="start" x="515.88" y="-139.7" font-family="Helvetica,sans-Serif" font-size="14.00">lstat ≤ 5.835</text>
<text text-anchor="start" x="481.75" y="-124.7" font-family="Helvetica,sans-Serif" font-size="14.00">squared_error = 14.665</text>
<text text-anchor="start" x="511.75" y="-109.7" font-family="Helvetica,sans-Serif" font-size="14.00">samples = 49</text>
<text text-anchor="start" x="508" y="-94.7" font-family="Helvetica,sans-Serif" font-size="14.00">value = 27.786</text>
</g>
<!-- 6&#45;&gt;10 -->
<g id="edge10" class="edge">
<title>6&#45;&gt;10</title>
<path fill="none" stroke="black" d="M500.84,-192.6C507.22,-184.15 514.16,-174.96 520.82,-166.13"/>
<polygon fill="black" stroke="black" points="524.12,-168.56 527.36,-158.47 518.54,-164.35 524.12,-168.56"/>
</g>
<!-- 8 -->
<g id="node9" class="node">
<title>8</title>
<path fill="#f6d4bc" stroke="black" d="M275.75,-53C275.75,-53 149.5,-53 149.5,-53 143.5,-53 137.5,-47 137.5,-41 137.5,-41 137.5,-12 137.5,-12 137.5,-6 143.5,0 149.5,0 149.5,0 275.75,0 275.75,0 281.75,0 287.75,-6 287.75,-12 287.75,-12 287.75,-41 287.75,-41 287.75,-47 281.75,-53 275.75,-53"/>
<text text-anchor="start" x="145.5" y="-35.7" font-family="Helvetica,sans-Serif" font-size="14.00">squared_error = 7.522</text>
<text text-anchor="start" x="171.75" y="-20.7" font-family="Helvetica,sans-Serif" font-size="14.00">samples = 70</text>
<text text-anchor="start" x="168" y="-5.7" font-family="Helvetica,sans-Serif" font-size="14.00">value = 23.064</text>
</g>
<!-- 7&#45;&gt;8 -->
<g id="edge8" class="edge">
<title>7&#45;&gt;8</title>
<path fill="none" stroke="black" d="M322.69,-88.68C305.11,-78.91 285.95,-68.26 268.62,-58.63"/>
<polygon fill="black" stroke="black" points="270.65,-55.19 260.21,-53.39 267.25,-61.31 270.65,-55.19"/>
</g>
<!-- 9 -->
<g id="node10" class="node">
<title>9</title>
<path fill="#f8dcc8" stroke="black" d="M443.75,-53C443.75,-53 317.5,-53 317.5,-53 311.5,-53 305.5,-47 305.5,-41 305.5,-41 305.5,-12 305.5,-12 305.5,-6 311.5,0 317.5,0 317.5,0 443.75,0 443.75,0 449.75,0 455.75,-6 455.75,-12 455.75,-12 455.75,-41 455.75,-41 455.75,-47 449.75,-53 443.75,-53"/>
<text text-anchor="start" x="313.5" y="-35.7" font-family="Helvetica,sans-Serif" font-size="14.00">squared_error = 6.248</text>
<text text-anchor="start" x="339.75" y="-20.7" font-family="Helvetica,sans-Serif" font-size="14.00">samples = 87</text>
<text text-anchor="start" x="339.75" y="-5.7" font-family="Helvetica,sans-Serif" font-size="14.00">value = 20.54</text>
</g>
<!-- 7&#45;&gt;9 -->
<g id="edge9" class="edge">
<title>7&#45;&gt;9</title>
<path fill="none" stroke="black" d="M381.92,-88.68C381.75,-80.81 381.57,-72.37 381.4,-64.35"/>
<polygon fill="black" stroke="black" points="384.88,-64.32 381.17,-54.39 377.89,-64.47 384.88,-64.32"/>
</g>
<!-- 11 -->
<g id="node12" class="node">
<title>11</title>
<path fill="#f2bf9a" stroke="black" d="M619.5,-53C619.5,-53 485.75,-53 485.75,-53 479.75,-53 473.75,-47 473.75,-41 473.75,-41 473.75,-12 473.75,-12 473.75,-6 479.75,0 485.75,0 485.75,0 619.5,0 619.5,0 625.5,0 631.5,-6 631.5,-12 631.5,-12 631.5,-41 631.5,-41 631.5,-47 625.5,-53 619.5,-53"/>
<text text-anchor="start" x="481.75" y="-35.7" font-family="Helvetica,sans-Serif" font-size="14.00">squared_error = 11.919</text>
<text text-anchor="start" x="511.75" y="-20.7" font-family="Helvetica,sans-Serif" font-size="14.00">samples = 23</text>
<text text-anchor="start" x="508" y="-5.7" font-family="Helvetica,sans-Serif" font-size="14.00">value = 30.009</text>
</g>
<!-- 10&#45;&gt;11 -->
<g id="edge11" class="edge">
<title>10&#45;&gt;11</title>
<path fill="none" stroke="black" d="M552.62,-88.68C552.62,-80.81 552.62,-72.37 552.62,-64.35"/>
<polygon fill="black" stroke="black" points="556.13,-64.39 552.62,-54.39 549.13,-64.39 556.13,-64.39"/>
</g>
<!-- 12 -->
<g id="node13" class="node">
<title>12</title>
<path fill="#f4ccaf" stroke="black" d="M787.75,-53C787.75,-53 661.5,-53 661.5,-53 655.5,-53 649.5,-47 649.5,-41 649.5,-41 649.5,-12 649.5,-12 649.5,-6 655.5,0 661.5,0 661.5,0 787.75,0 787.75,0 793.75,0 799.75,-6 799.75,-12 799.75,-12 799.75,-41 799.75,-41 799.75,-47 793.75,-53 787.75,-53"/>
<text text-anchor="start" x="657.5" y="-35.7" font-family="Helvetica,sans-Serif" font-size="14.00">squared_error = 8.855</text>
<text text-anchor="start" x="683.75" y="-20.7" font-family="Helvetica,sans-Serif" font-size="14.00">samples = 26</text>
<text text-anchor="start" x="680" y="-5.7" font-family="Helvetica,sans-Serif" font-size="14.00">value = 25.819</text>
</g>
<!-- 10&#45;&gt;12 -->
<g id="edge12" class="edge">
<title>10&#45;&gt;12</title>
<path fill="none" stroke="black" d="M613.27,-88.68C631.06,-78.91 650.44,-68.26 667.97,-58.63"/>
<polygon fill="black" stroke="black" points="669.42,-61.28 676.5,-53.39 666.05,-55.14 669.42,-61.28"/>
</g>
<!-- 14 -->
<g id="node15" class="node">
<title>14</title>
<path fill="#fae7d9" stroke="black" d="M1424.5,-261C1424.5,-261 1290.75,-261 1290.75,-261 1284.75,-261 1278.75,-255 1278.75,-249 1278.75,-249 1278.75,-205 1278.75,-205 1278.75,-199 1284.75,-193 1290.75,-193 1290.75,-193 1424.5,-193 1424.5,-193 1430.5,-193 1436.5,-199 1436.5,-205 1436.5,-205 1436.5,-249 1436.5,-249 1436.5,-255 1430.5,-261 1424.5,-261"/>
<text text-anchor="start" x="1322.38" y="-243.7" font-family="Helvetica,sans-Serif" font-size="14.00">nox ≤ 0.531</text>
<text text-anchor="start" x="1286.75" y="-228.7" font-family="Helvetica,sans-Serif" font-size="14.00">squared_error = 12.191</text>
<text text-anchor="start" x="1316.75" y="-213.7" font-family="Helvetica,sans-Serif" font-size="14.00">samples = 80</text>
<text text-anchor="start" x="1313" y="-198.7" font-family="Helvetica,sans-Serif" font-size="14.00">value = 17.122</text>
</g>
<!-- 13&#45;&gt;14 -->
<g id="edge14" class="edge">
<title>13&#45;&gt;14</title>
<path fill="none" stroke="black" d="M1440.35,-296.6C1429.52,-287.62 1417.69,-277.81 1406.45,-268.49"/>
<polygon fill="black" stroke="black" points="1408.92,-265.16 1398.99,-261.47 1404.45,-270.55 1408.92,-265.16"/>
</g>
<!-- 21 -->
<g id="node22" class="node">
<title>21</title>
<path fill="#fdf7f3" stroke="black" d="M1671.5,-261C1671.5,-261 1537.75,-261 1537.75,-261 1531.75,-261 1525.75,-255 1525.75,-249 1525.75,-249 1525.75,-205 1525.75,-205 1525.75,-199 1531.75,-193 1537.75,-193 1537.75,-193 1671.5,-193 1671.5,-193 1677.5,-193 1683.5,-199 1683.5,-205 1683.5,-205 1683.5,-249 1683.5,-249 1683.5,-255 1677.5,-261 1671.5,-261"/>
<text text-anchor="start" x="1569.38" y="-243.7" font-family="Helvetica,sans-Serif" font-size="14.00">nox ≤ 0.669</text>
<text text-anchor="start" x="1533.75" y="-228.7" font-family="Helvetica,sans-Serif" font-size="14.00">squared_error = 15.458</text>
<text text-anchor="start" x="1563.75" y="-213.7" font-family="Helvetica,sans-Serif" font-size="14.00">samples = 58</text>
<text text-anchor="start" x="1563.75" y="-198.7" font-family="Helvetica,sans-Serif" font-size="14.00">value = 11.79</text>
</g>
<!-- 13&#45;&gt;21 -->
<g id="edge21" class="edge">
<title>13&#45;&gt;21</title>
<path fill="none" stroke="black" d="M1521.23,-296.6C1532.25,-287.53 1544.31,-277.61 1555.74,-268.21"/>
<polygon fill="black" stroke="black" points="1557.43,-270.53 1562.93,-261.47 1552.99,-265.12 1557.43,-270.53"/>
</g>
<!-- 15 -->
<g id="node16" class="node">
<title>15</title>
<path fill="#f8decb" stroke="black" d="M1123.75,-157C1123.75,-157 997.5,-157 997.5,-157 991.5,-157 985.5,-151 985.5,-145 985.5,-145 985.5,-101 985.5,-101 985.5,-95 991.5,-89 997.5,-89 997.5,-89 1123.75,-89 1123.75,-89 1129.75,-89 1135.75,-95 1135.75,-101 1135.75,-101 1135.75,-145 1135.75,-145 1135.75,-151 1129.75,-157 1123.75,-157"/>
<text text-anchor="start" x="1025.38" y="-139.7" font-family="Helvetica,sans-Serif" font-size="14.00">nox ≤ 0.471</text>
<text text-anchor="start" x="993.5" y="-124.7" font-family="Helvetica,sans-Serif" font-size="14.00">squared_error = 9.309</text>
<text text-anchor="start" x="1019.75" y="-109.7" font-family="Helvetica,sans-Serif" font-size="14.00">samples = 21</text>
<text text-anchor="start" x="1016" y="-94.7" font-family="Helvetica,sans-Serif" font-size="14.00">value = 19.995</text>
</g>
<!-- 14&#45;&gt;15 -->
<g id="edge15" class="edge">
<title>14&#45;&gt;15</title>
<path fill="none" stroke="black" d="M1278.42,-198.8C1237.71,-184.82 1188.04,-167.76 1146.42,-153.47"/>
<polygon fill="black" stroke="black" points="1147.62,-149.83 1137.02,-149.89 1145.34,-156.45 1147.62,-149.83"/>
</g>
<!-- 18 -->
<g id="node19" class="node">
<title>18</title>
<path fill="#fbeade" stroke="black" d="M1420.75,-157C1420.75,-157 1294.5,-157 1294.5,-157 1288.5,-157 1282.5,-151 1282.5,-145 1282.5,-145 1282.5,-101 1282.5,-101 1282.5,-95 1288.5,-89 1294.5,-89 1294.5,-89 1420.75,-89 1420.75,-89 1426.75,-89 1432.75,-95 1432.75,-101 1432.75,-101 1432.75,-145 1432.75,-145 1432.75,-151 1426.75,-157 1420.75,-157"/>
<text text-anchor="start" x="1317.12" y="-139.7" font-family="Helvetica,sans-Serif" font-size="14.00">lstat ≤ 22.025</text>
<text text-anchor="start" x="1290.5" y="-124.7" font-family="Helvetica,sans-Serif" font-size="14.00">squared_error = 9.234</text>
<text text-anchor="start" x="1316.75" y="-109.7" font-family="Helvetica,sans-Serif" font-size="14.00">samples = 59</text>
<text text-anchor="start" x="1320.5" y="-94.7" font-family="Helvetica,sans-Serif" font-size="14.00">value = 16.1</text>
</g>
<!-- 14&#45;&gt;18 -->
<g id="edge18" class="edge">
<title>14&#45;&gt;18</title>
<path fill="none" stroke="black" d="M1357.62,-192.6C1357.62,-184.85 1357.62,-176.49 1357.62,-168.35"/>
<polygon fill="black" stroke="black" points="1361.13,-168.47 1357.62,-158.47 1354.13,-168.47 1361.13,-168.47"/>
</g>
<!-- 16 -->
<g id="node17" class="node">
<title>16</title>
<path fill="#fae5d6" stroke="black" d="M955.75,-53C955.75,-53 829.5,-53 829.5,-53 823.5,-53 817.5,-47 817.5,-41 817.5,-41 817.5,-12 817.5,-12 817.5,-6 823.5,0 829.5,0 829.5,0 955.75,0 955.75,0 961.75,0 967.75,-6 967.75,-12 967.75,-12 967.75,-41 967.75,-41 967.75,-47 961.75,-53 955.75,-53"/>
<text text-anchor="start" x="825.5" y="-35.7" font-family="Helvetica,sans-Serif" font-size="14.00">squared_error = 3.816</text>
<text text-anchor="start" x="855.5" y="-20.7" font-family="Helvetica,sans-Serif" font-size="14.00">samples = 7</text>
<text text-anchor="start" x="848" y="-5.7" font-family="Helvetica,sans-Serif" font-size="14.00">value = 17.729</text>
</g>
<!-- 15&#45;&gt;16 -->
<g id="edge16" class="edge">
<title>15&#45;&gt;16</title>
<path fill="none" stroke="black" d="M1001.39,-88.68C984.02,-78.91 965.09,-68.26 947.96,-58.63"/>
<polygon fill="black" stroke="black" points="950.09,-55.25 939.66,-53.39 946.66,-61.35 950.09,-55.25"/>
</g>
<!-- 17 -->
<g id="node18" class="node">
<title>17</title>
<path fill="#f7dac6" stroke="black" d="M1123.75,-53C1123.75,-53 997.5,-53 997.5,-53 991.5,-53 985.5,-47 985.5,-41 985.5,-41 985.5,-12 985.5,-12 985.5,-6 991.5,0 997.5,0 997.5,0 1123.75,0 1123.75,0 1129.75,0 1135.75,-6 1135.75,-12 1135.75,-12 1135.75,-41 1135.75,-41 1135.75,-47 1129.75,-53 1123.75,-53"/>
<text text-anchor="start" x="993.5" y="-35.7" font-family="Helvetica,sans-Serif" font-size="14.00">squared_error = 8.202</text>
<text text-anchor="start" x="1019.75" y="-20.7" font-family="Helvetica,sans-Serif" font-size="14.00">samples = 14</text>
<text text-anchor="start" x="1016" y="-5.7" font-family="Helvetica,sans-Serif" font-size="14.00">value = 21.129</text>
</g>
<!-- 15&#45;&gt;17 -->
<g id="edge17" class="edge">
<title>15&#45;&gt;17</title>
<path fill="none" stroke="black" d="M1060.62,-88.68C1060.62,-80.81 1060.62,-72.37 1060.62,-64.35"/>
<polygon fill="black" stroke="black" points="1064.13,-64.39 1060.62,-54.39 1057.13,-64.39 1064.13,-64.39"/>
</g>
<!-- 19 -->
<g id="node20" class="node">
<title>19</title>
<path fill="#fae8da" stroke="black" d="M1291.75,-53C1291.75,-53 1165.5,-53 1165.5,-53 1159.5,-53 1153.5,-47 1153.5,-41 1153.5,-41 1153.5,-12 1153.5,-12 1153.5,-6 1159.5,0 1165.5,0 1165.5,0 1291.75,0 1291.75,0 1297.75,0 1303.75,-6 1303.75,-12 1303.75,-12 1303.75,-41 1303.75,-41 1303.75,-47 1297.75,-53 1291.75,-53"/>
<text text-anchor="start" x="1161.5" y="-35.7" font-family="Helvetica,sans-Serif" font-size="14.00">squared_error = 6.565</text>
<text text-anchor="start" x="1187.75" y="-20.7" font-family="Helvetica,sans-Serif" font-size="14.00">samples = 48</text>
<text text-anchor="start" x="1187.75" y="-5.7" font-family="Helvetica,sans-Serif" font-size="14.00">value = 16.86</text>
</g>
<!-- 18&#45;&gt;19 -->
<g id="edge19" class="edge">
<title>18&#45;&gt;19</title>
<path fill="none" stroke="black" d="M1312.14,-88.68C1299.3,-79.27 1285.34,-69.05 1272.58,-59.7"/>
<polygon fill="black" stroke="black" points="1275.11,-56.48 1264.97,-53.39 1270.97,-62.13 1275.11,-56.48"/>
</g>
<!-- 20 -->
<g id="node21" class="node">
<title>20</title>
<path fill="#fdf4ee" stroke="black" d="M1459.75,-53C1459.75,-53 1333.5,-53 1333.5,-53 1327.5,-53 1321.5,-47 1321.5,-41 1321.5,-41 1321.5,-12 1321.5,-12 1321.5,-6 1327.5,0 1333.5,0 1333.5,0 1459.75,0 1459.75,0 1465.75,0 1471.75,-6 1471.75,-12 1471.75,-12 1471.75,-41 1471.75,-41 1471.75,-47 1465.75,-53 1459.75,-53"/>
<text text-anchor="start" x="1329.5" y="-35.7" font-family="Helvetica,sans-Serif" font-size="14.00">squared_error = 7.349</text>
<text text-anchor="start" x="1355.75" y="-20.7" font-family="Helvetica,sans-Serif" font-size="14.00">samples = 11</text>
<text text-anchor="start" x="1352" y="-5.7" font-family="Helvetica,sans-Serif" font-size="14.00">value = 12.782</text>
</g>
<!-- 18&#45;&gt;20 -->
<g id="edge20" class="edge">
<title>18&#45;&gt;20</title>
<path fill="none" stroke="black" d="M1371.37,-88.68C1374.74,-80.54 1378.35,-71.79 1381.76,-63.52"/>
<polygon fill="black" stroke="black" points="1385.36,-64.97 1385.94,-54.39 1378.89,-62.3 1385.36,-64.97"/>
</g>
<!-- 22 -->
<g id="node23" class="node">
<title>22</title>
<path fill="#fbebdf" stroke="black" d="M1671.5,-157C1671.5,-157 1537.75,-157 1537.75,-157 1531.75,-157 1525.75,-151 1525.75,-145 1525.75,-145 1525.75,-101 1525.75,-101 1525.75,-95 1531.75,-89 1537.75,-89 1537.75,-89 1671.5,-89 1671.5,-89 1677.5,-89 1683.5,-95 1683.5,-101 1683.5,-101 1683.5,-145 1683.5,-145 1683.5,-151 1677.5,-157 1671.5,-157"/>
<text text-anchor="start" x="1572" y="-139.7" font-family="Helvetica,sans-Serif" font-size="14.00">rm ≤ 6.843</text>
<text text-anchor="start" x="1533.75" y="-124.7" font-family="Helvetica,sans-Serif" font-size="14.00">squared_error = 18.041</text>
<text text-anchor="start" x="1563.75" y="-109.7" font-family="Helvetica,sans-Serif" font-size="14.00">samples = 12</text>
<text text-anchor="start" x="1560" y="-94.7" font-family="Helvetica,sans-Serif" font-size="14.00">value = 15.892</text>
</g>
<!-- 21&#45;&gt;22 -->
<g id="edge22" class="edge">
<title>21&#45;&gt;22</title>
<path fill="none" stroke="black" d="M1604.62,-192.6C1604.62,-184.85 1604.62,-176.49 1604.62,-168.35"/>
<polygon fill="black" stroke="black" points="1608.13,-168.47 1604.62,-158.47 1601.13,-168.47 1608.13,-168.47"/>
</g>
<!-- 25 -->
<g id="node26" class="node">
<title>25</title>
<path fill="#fefbf8" stroke="black" d="M1949.75,-157C1949.75,-157 1823.5,-157 1823.5,-157 1817.5,-157 1811.5,-151 1811.5,-145 1811.5,-145 1811.5,-101 1811.5,-101 1811.5,-95 1817.5,-89 1823.5,-89 1823.5,-89 1949.75,-89 1949.75,-89 1955.75,-89 1961.75,-95 1961.75,-101 1961.75,-101 1961.75,-145 1961.75,-145 1961.75,-151 1955.75,-157 1949.75,-157"/>
<text text-anchor="start" x="1846.12" y="-139.7" font-family="Helvetica,sans-Serif" font-size="14.00">lstat ≤ 19.645</text>
<text text-anchor="start" x="1819.5" y="-124.7" font-family="Helvetica,sans-Serif" font-size="14.00">squared_error = 9.249</text>
<text text-anchor="start" x="1845.75" y="-109.7" font-family="Helvetica,sans-Serif" font-size="14.00">samples = 46</text>
<text text-anchor="start" x="1845.75" y="-94.7" font-family="Helvetica,sans-Serif" font-size="14.00">value = 10.72</text>
</g>
<!-- 21&#45;&gt;25 -->
<g id="edge25" class="edge">
<title>21&#45;&gt;25</title>
<path fill="none" stroke="black" d="M1683.93,-197.32C1720.41,-184.12 1763.76,-168.44 1800.98,-154.98"/>
<polygon fill="black" stroke="black" points="1802.1,-157.93 1810.31,-151.24 1799.72,-151.35 1802.1,-157.93"/>
</g>
<!-- 23 -->
<g id="node24" class="node">
<title>23</title>
<path fill="#fbeee4" stroke="black" d="M1627.75,-53C1627.75,-53 1501.5,-53 1501.5,-53 1495.5,-53 1489.5,-47 1489.5,-41 1489.5,-41 1489.5,-12 1489.5,-12 1489.5,-6 1495.5,0 1501.5,0 1501.5,0 1627.75,0 1627.75,0 1633.75,0 1639.75,-6 1639.75,-12 1639.75,-12 1639.75,-41 1639.75,-41 1639.75,-47 1633.75,-53 1627.75,-53"/>
<text text-anchor="start" x="1497.5" y="-35.7" font-family="Helvetica,sans-Serif" font-size="14.00">squared_error = 6.317</text>
<text text-anchor="start" x="1523.75" y="-20.7" font-family="Helvetica,sans-Serif" font-size="14.00">samples = 11</text>
<text text-anchor="start" x="1520" y="-5.7" font-family="Helvetica,sans-Serif" font-size="14.00">value = 14.836</text>
</g>
<!-- 22&#45;&gt;23 -->
<g id="edge23" class="edge">
<title>22&#45;&gt;23</title>
<path fill="none" stroke="black" d="M1590.52,-88.68C1587.07,-80.54 1583.37,-71.79 1579.87,-63.52"/>
<polygon fill="black" stroke="black" points="1582.71,-62.24 1575.59,-54.39 1576.26,-64.97 1582.71,-62.24"/>
</g>
<!-- 24 -->
<g id="node25" class="node">
<title>24</title>
<path fill="#f3c7a7" stroke="black" d="M1781.25,-53C1781.25,-53 1670,-53 1670,-53 1664,-53 1658,-47 1658,-41 1658,-41 1658,-12 1658,-12 1658,-6 1664,0 1670,0 1670,0 1781.25,0 1781.25,0 1787.25,0 1793.25,-6 1793.25,-12 1793.25,-12 1793.25,-41 1793.25,-41 1793.25,-47 1787.25,-53 1781.25,-53"/>
<text text-anchor="start" x="1666" y="-35.7" font-family="Helvetica,sans-Serif" font-size="14.00">squared_error = 0.0</text>
<text text-anchor="start" x="1688.5" y="-20.7" font-family="Helvetica,sans-Serif" font-size="14.00">samples = 1</text>
<text text-anchor="start" x="1688.5" y="-5.7" font-family="Helvetica,sans-Serif" font-size="14.00">value = 27.5</text>
</g>
<!-- 22&#45;&gt;24 -->
<g id="edge24" class="edge">
<title>22&#45;&gt;24</title>
<path fill="none" stroke="black" d="M1647.29,-88.68C1659.22,-79.36 1672.17,-69.24 1684.05,-59.97"/>
<polygon fill="black" stroke="black" points="1685.74,-62.31 1691.47,-53.39 1681.43,-56.79 1685.74,-62.31"/>
</g>
<!-- 26 -->
<g id="node27" class="node">
<title>26</title>
<path fill="#fcf2ea" stroke="black" d="M1949.75,-53C1949.75,-53 1823.5,-53 1823.5,-53 1817.5,-53 1811.5,-47 1811.5,-41 1811.5,-41 1811.5,-12 1811.5,-12 1811.5,-6 1817.5,0 1823.5,0 1823.5,0 1949.75,0 1949.75,0 1955.75,0 1961.75,-6 1961.75,-12 1961.75,-12 1961.75,-41 1961.75,-41 1961.75,-47 1955.75,-53 1949.75,-53"/>
<text text-anchor="start" x="1819.5" y="-35.7" font-family="Helvetica,sans-Serif" font-size="14.00">squared_error = 5.372</text>
<text text-anchor="start" x="1845.75" y="-20.7" font-family="Helvetica,sans-Serif" font-size="14.00">samples = 15</text>
<text text-anchor="start" x="1845.75" y="-5.7" font-family="Helvetica,sans-Serif" font-size="14.00">value = 13.56</text>
</g>
<!-- 25&#45;&gt;26 -->
<g id="edge26" class="edge">
<title>25&#45;&gt;26</title>
<path fill="none" stroke="black" d="M1886.62,-88.68C1886.62,-80.81 1886.62,-72.37 1886.62,-64.35"/>
<polygon fill="black" stroke="black" points="1890.13,-64.39 1886.62,-54.39 1883.13,-64.39 1890.13,-64.39"/>
</g>
<!-- 27 -->
<g id="node28" class="node">
<title>27</title>
<path fill="#ffffff" stroke="black" d="M2117.75,-53C2117.75,-53 1991.5,-53 1991.5,-53 1985.5,-53 1979.5,-47 1979.5,-41 1979.5,-41 1979.5,-12 1979.5,-12 1979.5,-6 1985.5,0 1991.5,0 1991.5,0 2117.75,0 2117.75,0 2123.75,0 2129.75,-6 2129.75,-12 2129.75,-12 2129.75,-41 2129.75,-41 2129.75,-47 2123.75,-53 2117.75,-53"/>
<text text-anchor="start" x="1987.5" y="-35.7" font-family="Helvetica,sans-Serif" font-size="14.00">squared_error = 5.333</text>
<text text-anchor="start" x="2013.75" y="-20.7" font-family="Helvetica,sans-Serif" font-size="14.00">samples = 31</text>
<text text-anchor="start" x="2013.75" y="-5.7" font-family="Helvetica,sans-Serif" font-size="14.00">value = 9.345</text>
</g>
<!-- 25&#45;&gt;27 -->
<g id="edge27" class="edge">
<title>25&#45;&gt;27</title>
<path fill="none" stroke="black" d="M1945.86,-88.68C1963.23,-78.91 1982.16,-68.26 1999.29,-58.63"/>
<polygon fill="black" stroke="black" points="2000.59,-61.35 2007.59,-53.39 1997.16,-55.25 2000.59,-61.35"/>
</g>
<!-- 29 -->
<g id="node30" class="node">
<title>29</title>
<path fill="#f0b78e" stroke="black" d="M2371.5,-365C2371.5,-365 2237.75,-365 2237.75,-365 2231.75,-365 2225.75,-359 2225.75,-353 2225.75,-353 2225.75,-309 2225.75,-309 2225.75,-303 2231.75,-297 2237.75,-297 2237.75,-297 2371.5,-297 2371.5,-297 2377.5,-297 2383.5,-303 2383.5,-309 2383.5,-309 2383.5,-353 2383.5,-353 2383.5,-359 2377.5,-365 2371.5,-365"/>
<text text-anchor="start" x="2267.88" y="-347.7" font-family="Helvetica,sans-Serif" font-size="14.00">lstat ≤ 12.55</text>
<text text-anchor="start" x="2233.75" y="-332.7" font-family="Helvetica,sans-Serif" font-size="14.00">squared_error = 36.492</text>
<text text-anchor="start" x="2263.75" y="-317.7" font-family="Helvetica,sans-Serif" font-size="14.00">samples = 32</text>
<text text-anchor="start" x="2263.75" y="-302.7" font-family="Helvetica,sans-Serif" font-size="14.00">value = 32.55</text>
</g>
<!-- 28&#45;&gt;29 -->
<g id="edge29" class="edge">
<title>28&#45;&gt;29</title>
<path fill="none" stroke="black" d="M2304.62,-400.6C2304.62,-392.85 2304.62,-384.49 2304.62,-376.35"/>
<polygon fill="black" stroke="black" points="2308.13,-376.47 2304.62,-366.47 2301.13,-376.47 2308.13,-376.47"/>
</g>
<!-- 38 -->
<g id="node39" class="node">
<title>38</title>
<path fill="#e89051" stroke="black" d="M2772.5,-365C2772.5,-365 2638.75,-365 2638.75,-365 2632.75,-365 2626.75,-359 2626.75,-353 2626.75,-353 2626.75,-309 2626.75,-309 2626.75,-303 2632.75,-297 2638.75,-297 2638.75,-297 2772.5,-297 2772.5,-297 2778.5,-297 2784.5,-303 2784.5,-309 2784.5,-309 2784.5,-353 2784.5,-353 2784.5,-359 2778.5,-365 2772.5,-365"/>
<text text-anchor="start" x="2668.12" y="-347.7" font-family="Helvetica,sans-Serif" font-size="14.00">crim ≤ 2.742</text>
<text text-anchor="start" x="2634.75" y="-332.7" font-family="Helvetica,sans-Serif" font-size="14.00">squared_error = 39.573</text>
<text text-anchor="start" x="2664.75" y="-317.7" font-family="Helvetica,sans-Serif" font-size="14.00">samples = 24</text>
<text text-anchor="start" x="2664.75" y="-302.7" font-family="Helvetica,sans-Serif" font-size="14.00">value = 45.05</text>
</g>
<!-- 28&#45;&gt;38 -->
<g id="edge38" class="edge">
<title>28&#45;&gt;38</title>
<path fill="none" stroke="black" d="M2383.85,-413.85C2450.72,-396.84 2546.41,-372.5 2616.05,-354.78"/>
<polygon fill="black" stroke="black" points="2616.74,-357.97 2625.56,-352.11 2615.01,-351.18 2616.74,-357.97"/>
</g>
<!-- 30 -->
<g id="node31" class="node">
<title>30</title>
<path fill="#efb489" stroke="black" d="M2287.5,-261C2287.5,-261 2153.75,-261 2153.75,-261 2147.75,-261 2141.75,-255 2141.75,-249 2141.75,-249 2141.75,-205 2141.75,-205 2141.75,-199 2147.75,-193 2153.75,-193 2153.75,-193 2287.5,-193 2287.5,-193 2293.5,-193 2299.5,-199 2299.5,-205 2299.5,-205 2299.5,-249 2299.5,-249 2299.5,-255 2293.5,-261 2287.5,-261"/>
<text text-anchor="start" x="2187.62" y="-243.7" font-family="Helvetica,sans-Serif" font-size="14.00">dis ≤ 1.549</text>
<text text-anchor="start" x="2149.75" y="-228.7" font-family="Helvetica,sans-Serif" font-size="14.00">squared_error = 20.247</text>
<text text-anchor="start" x="2179.75" y="-213.7" font-family="Helvetica,sans-Serif" font-size="14.00">samples = 30</text>
<text text-anchor="start" x="2176" y="-198.7" font-family="Helvetica,sans-Serif" font-size="14.00">value = 33.627</text>
</g>
<!-- 29&#45;&gt;30 -->
<g id="edge30" class="edge">
<title>29&#45;&gt;30</title>
<path fill="none" stroke="black" d="M2277.12,-296.6C2270.09,-288.06 2262.43,-278.77 2255.1,-269.86"/>
<polygon fill="black" stroke="black" points="2257.25,-267.97 2248.19,-262.47 2251.85,-272.42 2257.25,-267.97"/>
</g>
<!-- 35 -->
<g id="node36" class="node">
<title>35</title>
<path fill="#fae9dd" stroke="black" d="M2448,-261C2448,-261 2329.25,-261 2329.25,-261 2323.25,-261 2317.25,-255 2317.25,-249 2317.25,-249 2317.25,-205 2317.25,-205 2317.25,-199 2323.25,-193 2329.25,-193 2329.25,-193 2448,-193 2448,-193 2454,-193 2460,-199 2460,-205 2460,-205 2460,-249 2460,-249 2460,-255 2454,-261 2448,-261"/>
<text text-anchor="start" x="2356.75" y="-243.7" font-family="Helvetica,sans-Serif" font-size="14.00">age ≤ 98.6</text>
<text text-anchor="start" x="2325.25" y="-228.7" font-family="Helvetica,sans-Serif" font-size="14.00">squared_error = 1.96</text>
<text text-anchor="start" x="2351.5" y="-213.7" font-family="Helvetica,sans-Serif" font-size="14.00">samples = 2</text>
<text text-anchor="start" x="2351.5" y="-198.7" font-family="Helvetica,sans-Serif" font-size="14.00">value = 16.4</text>
</g>
<!-- 29&#45;&gt;35 -->
<g id="edge35" class="edge">
<title>29&#45;&gt;35</title>
<path fill="none" stroke="black" d="M2332.13,-296.6C2339.16,-288.06 2346.82,-278.77 2354.15,-269.86"/>
<polygon fill="black" stroke="black" points="2357.4,-272.42 2361.06,-262.47 2352,-267.97 2357.4,-272.42"/>
</g>
<!-- 31 -->
<g id="node32" class="node">
<title>31</title>
<path fill="#e58139" stroke="black" d="M2113.25,-149.5C2113.25,-149.5 2002,-149.5 2002,-149.5 1996,-149.5 1990,-143.5 1990,-137.5 1990,-137.5 1990,-108.5 1990,-108.5 1990,-102.5 1996,-96.5 2002,-96.5 2002,-96.5 2113.25,-96.5 2113.25,-96.5 2119.25,-96.5 2125.25,-102.5 2125.25,-108.5 2125.25,-108.5 2125.25,-137.5 2125.25,-137.5 2125.25,-143.5 2119.25,-149.5 2113.25,-149.5"/>
<text text-anchor="start" x="1998" y="-132.2" font-family="Helvetica,sans-Serif" font-size="14.00">squared_error = 0.0</text>
<text text-anchor="start" x="2020.5" y="-117.2" font-family="Helvetica,sans-Serif" font-size="14.00">samples = 1</text>
<text text-anchor="start" x="2020.5" y="-102.2" font-family="Helvetica,sans-Serif" font-size="14.00">value = 50.0</text>
</g>
<!-- 30&#45;&gt;31 -->
<g id="edge31" class="edge">
<title>30&#45;&gt;31</title>
<path fill="none" stroke="black" d="M2167.25,-192.6C2148.27,-180.72 2126.97,-167.39 2108.22,-155.66"/>
<polygon fill="black" stroke="black" points="2110.3,-152.21 2099.96,-149.87 2106.58,-158.14 2110.3,-152.21"/>
</g>
<!-- 32 -->
<g id="node33" class="node">
<title>32</title>
<path fill="#f0b58b" stroke="black" d="M2289.5,-157C2289.5,-157 2155.75,-157 2155.75,-157 2149.75,-157 2143.75,-151 2143.75,-145 2143.75,-145 2143.75,-101 2143.75,-101 2143.75,-95 2149.75,-89 2155.75,-89 2155.75,-89 2289.5,-89 2289.5,-89 2295.5,-89 2301.5,-95 2301.5,-101 2301.5,-101 2301.5,-145 2301.5,-145 2301.5,-151 2295.5,-157 2289.5,-157"/>
<text text-anchor="start" x="2189.25" y="-139.7" font-family="Helvetica,sans-Serif" font-size="14.00">tax ≤ 267.0</text>
<text text-anchor="start" x="2151.75" y="-124.7" font-family="Helvetica,sans-Serif" font-size="14.00">squared_error = 11.382</text>
<text text-anchor="start" x="2181.75" y="-109.7" font-family="Helvetica,sans-Serif" font-size="14.00">samples = 29</text>
<text text-anchor="start" x="2178" y="-94.7" font-family="Helvetica,sans-Serif" font-size="14.00">value = 33.062</text>
</g>
<!-- 30&#45;&gt;32 -->
<g id="edge32" class="edge">
<title>30&#45;&gt;32</title>
<path fill="none" stroke="black" d="M2221.28,-192.6C2221.43,-184.85 2221.6,-176.49 2221.76,-168.35"/>
<polygon fill="black" stroke="black" points="2225.27,-168.54 2221.97,-158.47 2218.27,-168.4 2225.27,-168.54"/>
</g>
<!-- 33 -->
<g id="node34" class="node">
<title>33</title>
<path fill="#efaf82" stroke="black" d="M2285.75,-53C2285.75,-53 2159.5,-53 2159.5,-53 2153.5,-53 2147.5,-47 2147.5,-41 2147.5,-41 2147.5,-12 2147.5,-12 2147.5,-6 2153.5,0 2159.5,0 2159.5,0 2285.75,0 2285.75,0 2291.75,0 2297.75,-6 2297.75,-12 2297.75,-12 2297.75,-41 2297.75,-41 2297.75,-47 2291.75,-53 2285.75,-53"/>
<text text-anchor="start" x="2155.5" y="-35.7" font-family="Helvetica,sans-Serif" font-size="14.00">squared_error = 3.622</text>
<text text-anchor="start" x="2181.75" y="-20.7" font-family="Helvetica,sans-Serif" font-size="14.00">samples = 14</text>
<text text-anchor="start" x="2178" y="-5.7" font-family="Helvetica,sans-Serif" font-size="14.00">value = 35.036</text>
</g>
<!-- 32&#45;&gt;33 -->
<g id="edge33" class="edge">
<title>32&#45;&gt;33</title>
<path fill="none" stroke="black" d="M2222.62,-88.68C2222.62,-80.81 2222.62,-72.37 2222.62,-64.35"/>
<polygon fill="black" stroke="black" points="2226.13,-64.39 2222.62,-54.39 2219.13,-64.39 2226.13,-64.39"/>
</g>
<!-- 34 -->
<g id="node35" class="node">
<title>34</title>
<path fill="#f1bb94" stroke="black" d="M2461.5,-53C2461.5,-53 2327.75,-53 2327.75,-53 2321.75,-53 2315.75,-47 2315.75,-41 2315.75,-41 2315.75,-12 2315.75,-12 2315.75,-6 2321.75,0 2327.75,0 2327.75,0 2461.5,0 2461.5,0 2467.5,0 2473.5,-6 2473.5,-12 2473.5,-12 2473.5,-41 2473.5,-41 2473.5,-47 2467.5,-53 2461.5,-53"/>
<text text-anchor="start" x="2323.75" y="-35.7" font-family="Helvetica,sans-Serif" font-size="14.00">squared_error = 11.596</text>
<text text-anchor="start" x="2353.75" y="-20.7" font-family="Helvetica,sans-Serif" font-size="14.00">samples = 15</text>
<text text-anchor="start" x="2353.75" y="-5.7" font-family="Helvetica,sans-Serif" font-size="14.00">value = 31.22</text>
</g>
<!-- 32&#45;&gt;34 -->
<g id="edge34" class="edge">
<title>32&#45;&gt;34</title>
<path fill="none" stroke="black" d="M2283.27,-88.68C2301.06,-78.91 2320.44,-68.26 2337.97,-58.63"/>
<polygon fill="black" stroke="black" points="2339.42,-61.28 2346.5,-53.39 2336.05,-55.14 2339.42,-61.28"/>
</g>
<!-- 36 -->
<g id="node37" class="node">
<title>36</title>
<path fill="#fbede3" stroke="black" d="M2443.25,-149.5C2443.25,-149.5 2332,-149.5 2332,-149.5 2326,-149.5 2320,-143.5 2320,-137.5 2320,-137.5 2320,-108.5 2320,-108.5 2320,-102.5 2326,-96.5 2332,-96.5 2332,-96.5 2443.25,-96.5 2443.25,-96.5 2449.25,-96.5 2455.25,-102.5 2455.25,-108.5 2455.25,-108.5 2455.25,-137.5 2455.25,-137.5 2455.25,-143.5 2449.25,-149.5 2443.25,-149.5"/>
<text text-anchor="start" x="2328" y="-132.2" font-family="Helvetica,sans-Serif" font-size="14.00">squared_error = 0.0</text>
<text text-anchor="start" x="2350.5" y="-117.2" font-family="Helvetica,sans-Serif" font-size="14.00">samples = 1</text>
<text text-anchor="start" x="2350.5" y="-102.2" font-family="Helvetica,sans-Serif" font-size="14.00">value = 15.0</text>
</g>
<!-- 35&#45;&gt;36 -->
<g id="edge36" class="edge">
<title>35&#45;&gt;36</title>
<path fill="none" stroke="black" d="M2388.3,-192.6C2388.2,-182.36 2388.09,-171.04 2387.98,-160.6"/>
<polygon fill="black" stroke="black" points="2391.47,-160.67 2387.88,-150.71 2384.48,-160.74 2391.47,-160.67"/>
</g>
<!-- 37 -->
<g id="node38" class="node">
<title>37</title>
<path fill="#fae5d6" stroke="black" d="M2596.25,-149.5C2596.25,-149.5 2485,-149.5 2485,-149.5 2479,-149.5 2473,-143.5 2473,-137.5 2473,-137.5 2473,-108.5 2473,-108.5 2473,-102.5 2479,-96.5 2485,-96.5 2485,-96.5 2596.25,-96.5 2596.25,-96.5 2602.25,-96.5 2608.25,-102.5 2608.25,-108.5 2608.25,-108.5 2608.25,-137.5 2608.25,-137.5 2608.25,-143.5 2602.25,-149.5 2596.25,-149.5"/>
<text text-anchor="start" x="2481" y="-132.2" font-family="Helvetica,sans-Serif" font-size="14.00">squared_error = 0.0</text>
<text text-anchor="start" x="2503.5" y="-117.2" font-family="Helvetica,sans-Serif" font-size="14.00">samples = 1</text>
<text text-anchor="start" x="2503.5" y="-102.2" font-family="Helvetica,sans-Serif" font-size="14.00">value = 17.8</text>
</g>
<!-- 35&#45;&gt;37 -->
<g id="edge37" class="edge">
<title>35&#45;&gt;37</title>
<path fill="none" stroke="black" d="M2438.4,-192.6C2456.09,-180.73 2475.95,-167.4 2493.42,-155.68"/>
<polygon fill="black" stroke="black" points="2494.96,-158.18 2501.32,-149.71 2491.06,-152.37 2494.96,-158.18"/>
</g>
<!-- 39 -->
<g id="node40" class="node">
<title>39</title>
<path fill="#e88d4c" stroke="black" d="M2772.5,-261C2772.5,-261 2638.75,-261 2638.75,-261 2632.75,-261 2626.75,-255 2626.75,-249 2626.75,-249 2626.75,-205 2626.75,-205 2626.75,-199 2632.75,-193 2638.75,-193 2638.75,-193 2772.5,-193 2772.5,-193 2778.5,-193 2784.5,-199 2784.5,-205 2784.5,-205 2784.5,-249 2784.5,-249 2784.5,-255 2778.5,-261 2772.5,-261"/>
<text text-anchor="start" x="2668.12" y="-243.7" font-family="Helvetica,sans-Serif" font-size="14.00">crim ≤ 0.577</text>
<text text-anchor="start" x="2634.75" y="-228.7" font-family="Helvetica,sans-Serif" font-size="14.00">squared_error = 16.979</text>
<text text-anchor="start" x="2664.75" y="-213.7" font-family="Helvetica,sans-Serif" font-size="14.00">samples = 23</text>
<text text-anchor="start" x="2661" y="-198.7" font-family="Helvetica,sans-Serif" font-size="14.00">value = 46.057</text>
</g>
<!-- 38&#45;&gt;39 -->
<g id="edge39" class="edge">
<title>38&#45;&gt;39</title>
<path fill="none" stroke="black" d="M2705.62,-296.6C2705.62,-288.85 2705.62,-280.49 2705.62,-272.35"/>
<polygon fill="black" stroke="black" points="2709.13,-272.47 2705.62,-262.47 2702.13,-272.47 2709.13,-272.47"/>
</g>
<!-- 44 -->
<g id="node45" class="node">
<title>44</title>
<path fill="#f7d8c2" stroke="black" d="M2930.5,-253.5C2930.5,-253.5 2814.75,-253.5 2814.75,-253.5 2808.75,-253.5 2802.75,-247.5 2802.75,-241.5 2802.75,-241.5 2802.75,-212.5 2802.75,-212.5 2802.75,-206.5 2808.75,-200.5 2814.75,-200.5 2814.75,-200.5 2930.5,-200.5 2930.5,-200.5 2936.5,-200.5 2942.5,-206.5 2942.5,-212.5 2942.5,-212.5 2942.5,-241.5 2942.5,-241.5 2942.5,-247.5 2936.5,-253.5 2930.5,-253.5"/>
<text text-anchor="start" x="2810.75" y="-236.2" font-family="Helvetica,sans-Serif" font-size="14.00">squared_error = &#45;0.0</text>
<text text-anchor="start" x="2835.5" y="-221.2" font-family="Helvetica,sans-Serif" font-size="14.00">samples = 1</text>
<text text-anchor="start" x="2835.5" y="-206.2" font-family="Helvetica,sans-Serif" font-size="14.00">value = 21.9</text>
</g>
<!-- 38&#45;&gt;44 -->
<g id="edge44" class="edge">
<title>38&#45;&gt;44</title>
<path fill="none" stroke="black" d="M2760.31,-296.6C2779.84,-284.67 2801.78,-271.27 2821.05,-259.5"/>
<polygon fill="black" stroke="black" points="2822.56,-262.07 2829.27,-253.87 2818.91,-256.09 2822.56,-262.07"/>
</g>
<!-- 40 -->
<g id="node41" class="node">
<title>40</title>
<path fill="#e89253" stroke="black" d="M2772.5,-157C2772.5,-157 2638.75,-157 2638.75,-157 2632.75,-157 2626.75,-151 2626.75,-145 2626.75,-145 2626.75,-101 2626.75,-101 2626.75,-95 2632.75,-89 2638.75,-89 2638.75,-89 2772.5,-89 2772.5,-89 2778.5,-89 2784.5,-95 2784.5,-101 2784.5,-101 2784.5,-145 2784.5,-145 2784.5,-151 2778.5,-157 2772.5,-157"/>
<text text-anchor="start" x="2670" y="-139.7" font-family="Helvetica,sans-Serif" font-size="14.00">age ≤ 83.15</text>
<text text-anchor="start" x="2634.75" y="-124.7" font-family="Helvetica,sans-Serif" font-size="14.00">squared_error = 15.546</text>
<text text-anchor="start" x="2664.75" y="-109.7" font-family="Helvetica,sans-Serif" font-size="14.00">samples = 17</text>
<text text-anchor="start" x="2661" y="-94.7" font-family="Helvetica,sans-Serif" font-size="14.00">value = 44.665</text>
</g>
<!-- 39&#45;&gt;40 -->
<g id="edge40" class="edge">
<title>39&#45;&gt;40</title>
<path fill="none" stroke="black" d="M2705.62,-192.6C2705.62,-184.85 2705.62,-176.49 2705.62,-168.35"/>
<polygon fill="black" stroke="black" points="2709.13,-168.47 2705.62,-158.47 2702.13,-168.47 2709.13,-168.47"/>
</g>
<!-- 43 -->
<g id="node44" class="node">
<title>43</title>
<path fill="#e58139" stroke="black" d="M2926.25,-149.5C2926.25,-149.5 2815,-149.5 2815,-149.5 2809,-149.5 2803,-143.5 2803,-137.5 2803,-137.5 2803,-108.5 2803,-108.5 2803,-102.5 2809,-96.5 2815,-96.5 2815,-96.5 2926.25,-96.5 2926.25,-96.5 2932.25,-96.5 2938.25,-102.5 2938.25,-108.5 2938.25,-108.5 2938.25,-137.5 2938.25,-137.5 2938.25,-143.5 2932.25,-149.5 2926.25,-149.5"/>
<text text-anchor="start" x="2811" y="-132.2" font-family="Helvetica,sans-Serif" font-size="14.00">squared_error = 0.0</text>
<text text-anchor="start" x="2833.5" y="-117.2" font-family="Helvetica,sans-Serif" font-size="14.00">samples = 6</text>
<text text-anchor="start" x="2833.5" y="-102.2" font-family="Helvetica,sans-Serif" font-size="14.00">value = 50.0</text>
</g>
<!-- 39&#45;&gt;43 -->
<g id="edge43" class="edge">
<title>39&#45;&gt;43</title>
<path fill="none" stroke="black" d="M2759.65,-192.6C2778.96,-180.67 2800.63,-167.27 2819.67,-155.5"/>
<polygon fill="black" stroke="black" points="2821.11,-158.1 2827.78,-149.87 2817.43,-152.15 2821.11,-158.1"/>
</g>
<!-- 41 -->
<g id="node42" class="node">
<title>41</title>
<path fill="#e88f4e" stroke="black" d="M2705.5,-53C2705.5,-53 2571.75,-53 2571.75,-53 2565.75,-53 2559.75,-47 2559.75,-41 2559.75,-41 2559.75,-12 2559.75,-12 2559.75,-6 2565.75,0 2571.75,0 2571.75,0 2705.5,0 2705.5,0 2711.5,0 2717.5,-6 2717.5,-12 2717.5,-12 2717.5,-41 2717.5,-41 2717.5,-47 2711.5,-53 2705.5,-53"/>
<text text-anchor="start" x="2567.75" y="-35.7" font-family="Helvetica,sans-Serif" font-size="14.00">squared_error = 12.518</text>
<text text-anchor="start" x="2597.75" y="-20.7" font-family="Helvetica,sans-Serif" font-size="14.00">samples = 14</text>
<text text-anchor="start" x="2594" y="-5.7" font-family="Helvetica,sans-Serif" font-size="14.00">value = 45.629</text>
</g>
<!-- 40&#45;&gt;41 -->
<g id="edge41" class="edge">
<title>40&#45;&gt;41</title>
<path fill="none" stroke="black" d="M2682,-88.68C2675.91,-80.09 2669.33,-70.81 2663.19,-62.15"/>
<polygon fill="black" stroke="black" points="2665.62,-60.53 2656.98,-54.39 2659.91,-64.58 2665.62,-60.53"/>
</g>
<!-- 42 -->
<g id="node43" class="node">
<title>42</title>
<path fill="#eb9f69" stroke="black" d="M2873.75,-53C2873.75,-53 2747.5,-53 2747.5,-53 2741.5,-53 2735.5,-47 2735.5,-41 2735.5,-41 2735.5,-12 2735.5,-12 2735.5,-6 2741.5,0 2747.5,0 2747.5,0 2873.75,0 2873.75,0 2879.75,0 2885.75,-6 2885.75,-12 2885.75,-12 2885.75,-41 2885.75,-41 2885.75,-47 2879.75,-53 2873.75,-53"/>
<text text-anchor="start" x="2743.5" y="-35.7" font-family="Helvetica,sans-Serif" font-size="14.00">squared_error = 5.109</text>
<text text-anchor="start" x="2773.5" y="-20.7" font-family="Helvetica,sans-Serif" font-size="14.00">samples = 3</text>
<text text-anchor="start" x="2766" y="-5.7" font-family="Helvetica,sans-Serif" font-size="14.00">value = 40.167</text>
</g>
<!-- 40&#45;&gt;42 -->
<g id="edge42" class="edge">
<title>40&#45;&gt;42</title>
<path fill="none" stroke="black" d="M2742.64,-88.68C2752.8,-79.54 2763.81,-69.64 2773.94,-60.51"/>
<polygon fill="black" stroke="black" points="2775.76,-63.69 2780.85,-54.39 2771.08,-58.48 2775.76,-63.69"/>
</g>
</g>
</svg>