<?xml version="1.0" encoding="utf-8" standalone="no"?>
<!DOCTYPE svg PUBLIC "-//W3C//DTD SVG 1.1//EN"
  "http://www.w3.org/Graphics/SVG/1.1/DTD/svg11.dtd">
<svg xmlns:xlink="http://www.w3.org/1999/xlink" width="539.503125pt" height="337.074375pt" viewBox="0 0 539.503125 337.074375" xmlns="http://www.w3.org/2000/svg" version="1.1">
 <metadata>
  <rdf:RDF xmlns:dc="http://purl.org/dc/elements/1.1/" xmlns:cc="http://creativecommons.org/ns#" xmlns:rdf="http://www.w3.org/1999/02/22-rdf-syntax-ns#">
   <cc:Work>
    <dc:type rdf:resource="http://purl.org/dc/dcmitype/StillImage"/>
    <dc:date>2024-02-20T21:19:05.100025</dc:date>
    <dc:format>image/svg+xml</dc:format>
    <dc:creator>
     <cc:Agent>
      <dc:title>Matplotlib v3.7.1, https://matplotlib.org/</dc:title>
     </cc:Agent>
    </dc:creator>
   </cc:Work>
  </rdf:RDF>
 </metadata>
 <defs>
  <style type="text/css">*{stroke-linejoin: round; stroke-linecap: butt}</style>
 </defs>
 <g id="figure_1">
  <g id="patch_1">
   <path d="M 0 337.074375 
L 539.503125 337.074375 
L 539.503125 0 
L 0 0 
z
" style="fill: #ffffff"/>
  </g>
  <g id="axes_1">
   <g id="patch_2">
    <path d="M 30.103125 299.518125 
L 532.303125 299.518125 
L 532.303125 22.318125 
L 30.103125 22.318125 
z
" style="fill: #ffffff"/>
   </g>
   <g id="patch_3">
    <path d="M 168.533356 299.518125 
L 170.427481 299.518125 
L 170.427481 299.010653 
L 168.533356 299.010653 
z
" clip-path="url(#p2c23a9a295)" style="fill: #ff0000"/>
   </g>
   <g id="patch_4">
    <path d="M 170.427481 299.518125 
L 172.321606 299.518125 
L 172.321606 299.518125 
L 170.427481 299.518125 
z
" clip-path="url(#p2c23a9a295)" style="fill: #ff0000"/>
   </g>
   <g id="patch_5">
    <path d="M 172.321606 299.518125 
L 174.215731 299.518125 
L 174.215731 299.518125 
L 172.321606 299.518125 
z
" clip-path="url(#p2c23a9a295)" style="fill: #ff0000"/>
   </g>
   <g id="patch_6">
    <path d="M 174.215731 299.518125 
L 176.109856 299.518125 
L 176.109856 299.518125 
L 174.215731 299.518125 
z
" clip-path="url(#p2c23a9a295)" style="fill: #ff0000"/>
   </g>
   <g id="patch_7">
    <path d="M 176.109856 299.518125 
L 178.00398 299.518125 
L 178.00398 299.518125 
L 176.109856 299.518125 
z
" clip-path="url(#p2c23a9a295)" style="fill: #ff0000"/>
   </g>
   <g id="patch_8">
    <path d="M 178.00398 299.518125 
L 179.898105 299.518125 
L 179.898105 299.518125 
L 178.00398 299.518125 
z
" clip-path="url(#p2c23a9a295)" style="fill: #ff0000"/>
   </g>
   <g id="patch_9">
    <path d="M 179.898105 299.518125 
L 181.79223 299.518125 
L 181.79223 297.995708 
L 179.898105 297.995708 
z
" clip-path="url(#p2c23a9a295)" style="fill: #ff0000"/>
   </g>
   <g id="patch_10">
    <path d="M 181.79223 299.518125 
L 183.686355 299.518125 
L 183.686355 299.010653 
L 181.79223 299.010653 
z
" clip-path="url(#p2c23a9a295)" style="fill: #ff0000"/>
   </g>
   <g id="patch_11">
    <path d="M 183.686355 299.518125 
L 185.58048 299.518125 
L 185.58048 297.488235 
L 183.686355 297.488235 
z
" clip-path="url(#p2c23a9a295)" style="fill: #ff0000"/>
   </g>
   <g id="patch_12">
    <path d="M 185.58048 299.518125 
L 187.474605 299.518125 
L 187.474605 298.50318 
L 185.58048 298.50318 
z
" clip-path="url(#p2c23a9a295)" style="fill: #ff0000"/>
   </g>
   <g id="patch_13">
    <path d="M 187.474605 299.518125 
L 189.36873 299.518125 
L 189.36873 297.995708 
L 187.474605 297.995708 
z
" clip-path="url(#p2c23a9a295)" style="fill: #ff0000"/>
   </g>
   <g id="patch_14">
    <path d="M 189.36873 299.518125 
L 191.262855 299.518125 
L 191.262855 298.50318 
L 189.36873 298.50318 
z
" clip-path="url(#p2c23a9a295)" style="fill: #ff0000"/>
   </g>
   <g id="patch_15">
    <path d="M 191.262855 299.518125 
L 193.15698 299.518125 
L 193.15698 294.950874 
L 191.262855 294.950874 
z
" clip-path="url(#p2c23a9a295)" style="fill: #ff0000"/>
   </g>
   <g id="patch_16">
    <path d="M 193.15698 299.518125 
L 195.051105 299.518125 
L 195.051105 295.965818 
L 193.15698 295.965818 
z
" clip-path="url(#p2c23a9a295)" style="fill: #ff0000"/>
   </g>
   <g id="patch_17">
    <path d="M 195.051105 299.518125 
L 196.94523 299.518125 
L 196.94523 294.443401 
L 195.051105 294.443401 
z
" clip-path="url(#p2c23a9a295)" style="fill: #ff0000"/>
   </g>
   <g id="patch_18">
    <path d="M 196.94523 299.518125 
L 198.839355 299.518125 
L 198.839355 291.398567 
L 196.94523 291.398567 
z
" clip-path="url(#p2c23a9a295)" style="fill: #ff0000"/>
   </g>
   <g id="patch_19">
    <path d="M 198.839355 299.518125 
L 200.73348 299.518125 
L 200.73348 289.87615 
L 198.839355 289.87615 
z
" clip-path="url(#p2c23a9a295)" style="fill: #ff0000"/>
   </g>
   <g id="patch_20">
    <path d="M 200.73348 299.518125 
L 202.627605 299.518125 
L 202.627605 284.801426 
L 200.73348 284.801426 
z
" clip-path="url(#p2c23a9a295)" style="fill: #ff0000"/>
   </g>
   <g id="patch_21">
    <path d="M 202.627605 299.518125 
L 204.52173 299.518125 
L 204.52173 279.21923 
L 202.627605 279.21923 
z
" clip-path="url(#p2c23a9a295)" style="fill: #ff0000"/>
   </g>
   <g id="patch_22">
    <path d="M 204.52173 299.518125 
L 206.415855 299.518125 
L 206.415855 299.518125 
L 204.52173 299.518125 
z
" clip-path="url(#p2c23a9a295)" style="fill: #ff0000"/>
   </g>
   <g id="patch_23">
    <path d="M 206.415855 299.518125 
L 208.30998 299.518125 
L 208.30998 282.264064 
L 206.415855 282.264064 
z
" clip-path="url(#p2c23a9a295)" style="fill: #ff0000"/>
   </g>
   <g id="patch_24">
    <path d="M 208.30998 299.518125 
L 210.204105 299.518125 
L 210.204105 267.039892 
L 208.30998 267.039892 
z
" clip-path="url(#p2c23a9a295)" style="fill: #ff0000"/>
   </g>
   <g id="patch_25">
    <path d="M 210.204105 299.518125 
L 212.09823 299.518125 
L 212.09823 262.472641 
L 210.204105 262.472641 
z
" clip-path="url(#p2c23a9a295)" style="fill: #ff0000"/>
   </g>
   <g id="patch_26">
    <path d="M 212.09823 299.518125 
L 213.992355 299.518125 
L 213.992355 253.84561 
L 212.09823 253.84561 
z
" clip-path="url(#p2c23a9a295)" style="fill: #ff0000"/>
   </g>
   <g id="patch_27">
    <path d="M 213.992355 299.518125 
L 215.88648 299.518125 
L 215.88648 236.084077 
L 213.992355 236.084077 
z
" clip-path="url(#p2c23a9a295)" style="fill: #ff0000"/>
   </g>
   <g id="patch_28">
    <path d="M 215.88648 299.518125 
L 217.780605 299.518125 
L 217.780605 232.53177 
L 215.88648 232.53177 
z
" clip-path="url(#p2c23a9a295)" style="fill: #ff0000"/>
   </g>
   <g id="patch_29">
    <path d="M 217.780605 299.518125 
L 219.67473 299.518125 
L 219.67473 213.24782 
L 217.780605 213.24782 
z
" clip-path="url(#p2c23a9a295)" style="fill: #ff0000"/>
   </g>
   <g id="patch_30">
    <path d="M 219.67473 299.518125 
L 221.568855 299.518125 
L 221.568855 200.56101 
L 219.67473 200.56101 
z
" clip-path="url(#p2c23a9a295)" style="fill: #ff0000"/>
   </g>
   <g id="patch_31">
    <path d="M 221.568855 299.518125 
L 223.46298 299.518125 
L 223.46298 195.993759 
L 221.568855 195.993759 
z
" clip-path="url(#p2c23a9a295)" style="fill: #ff0000"/>
   </g>
   <g id="patch_32">
    <path d="M 223.46298 299.518125 
L 225.357105 299.518125 
L 225.357105 175.187391 
L 223.46298 175.187391 
z
" clip-path="url(#p2c23a9a295)" style="fill: #ff0000"/>
   </g>
   <g id="patch_33">
    <path d="M 225.357105 299.518125 
L 227.25123 299.518125 
L 227.25123 167.575305 
L 225.357105 167.575305 
z
" clip-path="url(#p2c23a9a295)" style="fill: #ff0000"/>
   </g>
   <g id="patch_34">
    <path d="M 227.25123 299.518125 
L 229.145355 299.518125 
L 229.145355 140.679269 
L 227.25123 140.679269 
z
" clip-path="url(#p2c23a9a295)" style="fill: #ff0000"/>
   </g>
   <g id="patch_35">
    <path d="M 229.145355 299.518125 
L 231.03948 299.518125 
L 231.03948 130.022349 
L 229.145355 130.022349 
z
" clip-path="url(#p2c23a9a295)" style="fill: #ff0000"/>
   </g>
   <g id="patch_36">
    <path d="M 231.03948 299.518125 
L 232.933605 299.518125 
L 232.933605 114.290705 
L 231.03948 114.290705 
z
" clip-path="url(#p2c23a9a295)" style="fill: #ff0000"/>
   </g>
   <g id="patch_37">
    <path d="M 232.933605 299.518125 
L 234.82773 299.518125 
L 234.82773 109.215981 
L 232.933605 109.215981 
z
" clip-path="url(#p2c23a9a295)" style="fill: #ff0000"/>
   </g>
   <g id="patch_38">
    <path d="M 234.82773 299.518125 
L 236.721855 299.518125 
L 236.721855 86.379723 
L 234.82773 86.379723 
z
" clip-path="url(#p2c23a9a295)" style="fill: #ff0000"/>
   </g>
   <g id="patch_39">
    <path d="M 236.721855 299.518125 
L 238.61598 299.518125 
L 238.61598 89.93203 
L 236.721855 89.93203 
z
" clip-path="url(#p2c23a9a295)" style="fill: #ff0000"/>
   </g>
   <g id="patch_40">
    <path d="M 238.61598 299.518125 
L 240.510105 299.518125 
L 240.510105 83.842362 
L 238.61598 83.842362 
z
" clip-path="url(#p2c23a9a295)" style="fill: #ff0000"/>
   </g>
   <g id="patch_41">
    <path d="M 240.510105 299.518125 
L 242.40423 299.518125 
L 242.40423 72.677969 
L 240.510105 72.677969 
z
" clip-path="url(#p2c23a9a295)" style="fill: #ff0000"/>
   </g>
   <g id="patch_42">
    <path d="M 242.40423 299.518125 
L 244.298355 299.518125 
L 244.298355 299.518125 
L 242.40423 299.518125 
z
" clip-path="url(#p2c23a9a295)" style="fill: #ff0000"/>
   </g>
   <g id="patch_43">
    <path d="M 244.298355 299.518125 
L 246.19248 299.518125 
L 246.19248 73.185441 
L 244.298355 73.185441 
z
" clip-path="url(#p2c23a9a295)" style="fill: #ff0000"/>
   </g>
   <g id="patch_44">
    <path d="M 246.19248 299.518125 
L 248.086605 299.518125 
L 248.086605 76.737748 
L 246.19248 76.737748 
z
" clip-path="url(#p2c23a9a295)" style="fill: #ff0000"/>
   </g>
   <g id="patch_45">
    <path d="M 248.086605 299.518125 
L 249.98073 299.518125 
L 249.98073 77.245221 
L 248.086605 77.245221 
z
" clip-path="url(#p2c23a9a295)" style="fill: #ff0000"/>
   </g>
   <g id="patch_46">
    <path d="M 249.98073 299.518125 
L 251.874855 299.518125 
L 251.874855 100.081478 
L 249.98073 100.081478 
z
" clip-path="url(#p2c23a9a295)" style="fill: #ff0000"/>
   </g>
   <g id="patch_47">
    <path d="M 251.874855 299.518125 
L 253.76898 299.518125 
L 253.76898 100.081478 
L 251.874855 100.081478 
z
" clip-path="url(#p2c23a9a295)" style="fill: #ff0000"/>
   </g>
   <g id="patch_48">
    <path d="M 253.76898 299.518125 
L 255.663105 299.518125 
L 255.663105 112.260815 
L 253.76898 112.260815 
z
" clip-path="url(#p2c23a9a295)" style="fill: #ff0000"/>
   </g>
   <g id="patch_49">
    <path d="M 255.663105 299.518125 
L 257.55723 299.518125 
L 257.55723 133.574655 
L 255.663105 133.574655 
z
" clip-path="url(#p2c23a9a295)" style="fill: #ff0000"/>
   </g>
   <g id="patch_50">
    <path d="M 257.55723 299.518125 
L 259.451355 299.518125 
L 259.451355 147.27641 
L 257.55723 147.27641 
z
" clip-path="url(#p2c23a9a295)" style="fill: #ff0000"/>
   </g>
   <g id="patch_51">
    <path d="M 259.451355 299.518125 
L 261.34548 299.518125 
L 261.34548 157.425857 
L 259.451355 157.425857 
z
" clip-path="url(#p2c23a9a295)" style="fill: #ff0000"/>
   </g>
   <g id="patch_52">
    <path d="M 261.34548 299.518125 
L 263.239605 299.518125 
L 263.239605 158.948274 
L 261.34548 158.948274 
z
" clip-path="url(#p2c23a9a295)" style="fill: #ff0000"/>
   </g>
   <g id="patch_53">
    <path d="M 263.239605 299.518125 
L 265.13373 299.518125 
L 265.13373 170.620139 
L 263.239605 170.620139 
z
" clip-path="url(#p2c23a9a295)" style="fill: #ff0000"/>
   </g>
   <g id="patch_54">
    <path d="M 265.13373 299.518125 
L 267.027855 299.518125 
L 267.027855 193.963869 
L 265.13373 193.963869 
z
" clip-path="url(#p2c23a9a295)" style="fill: #ff0000"/>
   </g>
   <g id="patch_55">
    <path d="M 267.027855 299.518125 
L 268.92198 299.518125 
L 268.92198 208.680568 
L 267.027855 208.680568 
z
" clip-path="url(#p2c23a9a295)" style="fill: #ff0000"/>
   </g>
   <g id="patch_56">
    <path d="M 268.92198 299.518125 
L 270.816105 299.518125 
L 270.816105 218.322543 
L 268.92198 218.322543 
z
" clip-path="url(#p2c23a9a295)" style="fill: #ff0000"/>
   </g>
   <g id="patch_57">
    <path d="M 270.816105 299.518125 
L 272.71023 299.518125 
L 272.71023 234.054187 
L 270.816105 234.054187 
z
" clip-path="url(#p2c23a9a295)" style="fill: #ff0000"/>
   </g>
   <g id="patch_58">
    <path d="M 272.71023 299.518125 
L 274.604355 299.518125 
L 274.604355 243.696163 
L 272.71023 243.696163 
z
" clip-path="url(#p2c23a9a295)" style="fill: #ff0000"/>
   </g>
   <g id="patch_59">
    <path d="M 274.604355 299.518125 
L 276.49848 299.518125 
L 276.49848 254.860555 
L 274.604355 254.860555 
z
" clip-path="url(#p2c23a9a295)" style="fill: #ff0000"/>
   </g>
   <g id="patch_60">
    <path d="M 276.49848 299.518125 
L 278.392605 299.518125 
L 278.392605 262.980113 
L 276.49848 262.980113 
z
" clip-path="url(#p2c23a9a295)" style="fill: #ff0000"/>
   </g>
   <g id="patch_61">
    <path d="M 278.392605 299.518125 
L 280.28673 299.518125 
L 280.28673 264.50253 
L 278.392605 264.50253 
z
" clip-path="url(#p2c23a9a295)" style="fill: #ff0000"/>
   </g>
   <g id="patch_62">
    <path d="M 280.28673 299.518125 
L 282.180854 299.518125 
L 282.180854 299.518125 
L 280.28673 299.518125 
z
" clip-path="url(#p2c23a9a295)" style="fill: #ff0000"/>
   </g>
   <g id="patch_63">
    <path d="M 282.180854 299.518125 
L 284.074979 299.518125 
L 284.074979 273.129561 
L 282.180854 273.129561 
z
" clip-path="url(#p2c23a9a295)" style="fill: #ff0000"/>
   </g>
   <g id="patch_64">
    <path d="M 284.074979 299.518125 
L 285.969104 299.518125 
L 285.969104 273.129561 
L 284.074979 273.129561 
z
" clip-path="url(#p2c23a9a295)" style="fill: #ff0000"/>
   </g>
   <g id="patch_65">
    <path d="M 285.969104 299.518125 
L 287.863229 299.518125 
L 287.863229 282.264064 
L 285.969104 282.264064 
z
" clip-path="url(#p2c23a9a295)" style="fill: #ff0000"/>
   </g>
   <g id="patch_66">
    <path d="M 287.863229 299.518125 
L 289.757354 299.518125 
L 289.757354 287.84626 
L 287.863229 287.84626 
z
" clip-path="url(#p2c23a9a295)" style="fill: #ff0000"/>
   </g>
   <g id="patch_67">
    <path d="M 289.757354 299.518125 
L 291.651479 299.518125 
L 291.651479 292.920984 
L 289.757354 292.920984 
z
" clip-path="url(#p2c23a9a295)" style="fill: #ff0000"/>
   </g>
   <g id="patch_68">
    <path d="M 291.651479 299.518125 
L 293.545604 299.518125 
L 293.545604 288.861205 
L 291.651479 288.861205 
z
" clip-path="url(#p2c23a9a295)" style="fill: #ff0000"/>
   </g>
   <g id="patch_69">
    <path d="M 293.545604 299.518125 
L 295.439729 299.518125 
L 295.439729 294.443401 
L 293.545604 294.443401 
z
" clip-path="url(#p2c23a9a295)" style="fill: #ff0000"/>
   </g>
   <g id="patch_70">
    <path d="M 295.439729 299.518125 
L 297.333854 299.518125 
L 297.333854 295.965818 
L 295.439729 295.965818 
z
" clip-path="url(#p2c23a9a295)" style="fill: #ff0000"/>
   </g>
   <g id="patch_71">
    <path d="M 297.333854 299.518125 
L 299.227979 299.518125 
L 299.227979 294.950874 
L 297.333854 294.950874 
z
" clip-path="url(#p2c23a9a295)" style="fill: #ff0000"/>
   </g>
   <g id="patch_72">
    <path d="M 299.227979 299.518125 
L 301.122104 299.518125 
L 301.122104 297.488235 
L 299.227979 297.488235 
z
" clip-path="url(#p2c23a9a295)" style="fill: #ff0000"/>
   </g>
   <g id="patch_73">
    <path d="M 301.122104 299.518125 
L 303.016229 299.518125 
L 303.016229 297.995708 
L 301.122104 297.995708 
z
" clip-path="url(#p2c23a9a295)" style="fill: #ff0000"/>
   </g>
   <g id="patch_74">
    <path d="M 303.016229 299.518125 
L 304.910354 299.518125 
L 304.910354 297.995708 
L 303.016229 297.995708 
z
" clip-path="url(#p2c23a9a295)" style="fill: #ff0000"/>
   </g>
   <g id="patch_75">
    <path d="M 304.910354 299.518125 
L 306.804479 299.518125 
L 306.804479 297.488235 
L 304.910354 297.488235 
z
" clip-path="url(#p2c23a9a295)" style="fill: #ff0000"/>
   </g>
   <g id="patch_76">
    <path d="M 306.804479 299.518125 
L 308.698604 299.518125 
L 308.698604 298.50318 
L 306.804479 298.50318 
z
" clip-path="url(#p2c23a9a295)" style="fill: #ff0000"/>
   </g>
   <g id="patch_77">
    <path d="M 308.698604 299.518125 
L 310.592729 299.518125 
L 310.592729 299.518125 
L 308.698604 299.518125 
z
" clip-path="url(#p2c23a9a295)" style="fill: #ff0000"/>
   </g>
   <g id="patch_78">
    <path d="M 310.592729 299.518125 
L 312.486854 299.518125 
L 312.486854 299.518125 
L 310.592729 299.518125 
z
" clip-path="url(#p2c23a9a295)" style="fill: #ff0000"/>
   </g>
   <g id="patch_79">
    <path d="M 312.486854 299.518125 
L 314.380979 299.518125 
L 314.380979 299.518125 
L 312.486854 299.518125 
z
" clip-path="url(#p2c23a9a295)" style="fill: #ff0000"/>
   </g>
   <g id="patch_80">
    <path d="M 314.380979 299.518125 
L 316.275104 299.518125 
L 316.275104 299.518125 
L 314.380979 299.518125 
z
" clip-path="url(#p2c23a9a295)" style="fill: #ff0000"/>
   </g>
   <g id="patch_81">
    <path d="M 316.275104 299.518125 
L 318.169229 299.518125 
L 318.169229 299.010653 
L 316.275104 299.010653 
z
" clip-path="url(#p2c23a9a295)" style="fill: #ff0000"/>
   </g>
   <g id="patch_82">
    <path d="M 318.169229 299.518125 
L 320.063354 299.518125 
L 320.063354 299.010653 
L 318.169229 299.010653 
z
" clip-path="url(#p2c23a9a295)" style="fill: #ff0000"/>
   </g>
   <g id="patch_83">
    <path d="M 294.143749 299.518125 
L 296.8354 299.518125 
L 296.8354 299.161015 
L 294.143749 299.161015 
z
" clip-path="url(#p2c23a9a295)" style="fill: #ffa500"/>
   </g>
   <g id="patch_84">
    <path d="M 296.8354 299.518125 
L 299.527052 299.518125 
L 299.527052 299.518125 
L 296.8354 299.518125 
z
" clip-path="url(#p2c23a9a295)" style="fill: #ffa500"/>
   </g>
   <g id="patch_85">
    <path d="M 299.527052 299.518125 
L 302.218703 299.518125 
L 302.218703 299.518125 
L 299.527052 299.518125 
z
" clip-path="url(#p2c23a9a295)" style="fill: #ffa500"/>
   </g>
   <g id="patch_86">
    <path d="M 302.218703 299.518125 
L 304.910354 299.518125 
L 304.910354 299.161015 
L 302.218703 299.161015 
z
" clip-path="url(#p2c23a9a295)" style="fill: #ffa500"/>
   </g>
   <g id="patch_87">
    <path d="M 304.910354 299.518125 
L 307.602006 299.518125 
L 307.602006 299.161015 
L 304.910354 299.161015 
z
" clip-path="url(#p2c23a9a295)" style="fill: #ffa500"/>
   </g>
   <g id="patch_88">
    <path d="M 307.602006 299.518125 
L 310.293657 299.518125 
L 310.293657 299.161015 
L 307.602006 299.161015 
z
" clip-path="url(#p2c23a9a295)" style="fill: #ffa500"/>
   </g>
   <g id="patch_89">
    <path d="M 310.293657 299.518125 
L 312.985308 299.518125 
L 312.985308 299.518125 
L 310.293657 299.518125 
z
" clip-path="url(#p2c23a9a295)" style="fill: #ffa500"/>
   </g>
   <g id="patch_90">
    <path d="M 312.985308 299.518125 
L 315.676959 299.518125 
L 315.676959 298.803905 
L 312.985308 298.803905 
z
" clip-path="url(#p2c23a9a295)" style="fill: #ffa500"/>
   </g>
   <g id="patch_91">
    <path d="M 315.676959 299.518125 
L 318.368611 299.518125 
L 318.368611 298.446794 
L 315.676959 298.446794 
z
" clip-path="url(#p2c23a9a295)" style="fill: #ffa500"/>
   </g>
   <g id="patch_92">
    <path d="M 318.368611 299.518125 
L 321.060262 299.518125 
L 321.060262 298.803905 
L 318.368611 298.803905 
z
" clip-path="url(#p2c23a9a295)" style="fill: #ffa500"/>
   </g>
   <g id="patch_93">
    <path d="M 321.060262 299.518125 
L 323.751913 299.518125 
L 323.751913 298.089684 
L 321.060262 298.089684 
z
" clip-path="url(#p2c23a9a295)" style="fill: #ffa500"/>
   </g>
   <g id="patch_94">
    <path d="M 323.751913 299.518125 
L 326.443565 299.518125 
L 326.443565 296.304133 
L 323.751913 296.304133 
z
" clip-path="url(#p2c23a9a295)" style="fill: #ffa500"/>
   </g>
   <g id="patch_95">
    <path d="M 326.443565 299.518125 
L 329.135216 299.518125 
L 329.135216 296.661243 
L 326.443565 296.661243 
z
" clip-path="url(#p2c23a9a295)" style="fill: #ffa500"/>
   </g>
   <g id="patch_96">
    <path d="M 329.135216 299.518125 
L 331.826867 299.518125 
L 331.826867 296.304133 
L 329.135216 296.304133 
z
" clip-path="url(#p2c23a9a295)" style="fill: #ffa500"/>
   </g>
   <g id="patch_97">
    <path d="M 331.826867 299.518125 
L 334.518518 299.518125 
L 334.518518 293.447252 
L 331.826867 293.447252 
z
" clip-path="url(#p2c23a9a295)" style="fill: #ffa500"/>
   </g>
   <g id="patch_98">
    <path d="M 334.518518 299.518125 
L 337.21017 299.518125 
L 337.21017 292.375921 
L 334.518518 292.375921 
z
" clip-path="url(#p2c23a9a295)" style="fill: #ffa500"/>
   </g>
   <g id="patch_99">
    <path d="M 337.21017 299.518125 
L 339.901821 299.518125 
L 339.901821 290.94748 
L 337.21017 290.94748 
z
" clip-path="url(#p2c23a9a295)" style="fill: #ffa500"/>
   </g>
   <g id="patch_100">
    <path d="M 339.901821 299.518125 
L 342.593472 299.518125 
L 342.593472 285.590827 
L 339.901821 285.590827 
z
" clip-path="url(#p2c23a9a295)" style="fill: #ffa500"/>
   </g>
   <g id="patch_101">
    <path d="M 342.593472 299.518125 
L 345.285124 299.518125 
L 345.285124 289.87615 
L 342.593472 289.87615 
z
" clip-path="url(#p2c23a9a295)" style="fill: #ffa500"/>
   </g>
   <g id="patch_102">
    <path d="M 345.285124 299.518125 
L 347.976775 299.518125 
L 347.976775 285.233717 
L 345.285124 285.233717 
z
" clip-path="url(#p2c23a9a295)" style="fill: #ffa500"/>
   </g>
   <g id="patch_103">
    <path d="M 347.976775 299.518125 
L 350.668426 299.518125 
L 350.668426 270.949309 
L 347.976775 270.949309 
z
" clip-path="url(#p2c23a9a295)" style="fill: #ffa500"/>
   </g>
   <g id="patch_104">
    <path d="M 350.668426 299.518125 
L 353.360077 299.518125 
L 353.360077 280.591285 
L 350.668426 280.591285 
z
" clip-path="url(#p2c23a9a295)" style="fill: #ffa500"/>
   </g>
   <g id="patch_105">
    <path d="M 353.360077 299.518125 
L 356.051729 299.518125 
L 356.051729 256.664901 
L 353.360077 256.664901 
z
" clip-path="url(#p2c23a9a295)" style="fill: #ffa500"/>
   </g>
   <g id="patch_106">
    <path d="M 356.051729 299.518125 
L 358.74338 299.518125 
L 358.74338 274.520411 
L 356.051729 274.520411 
z
" clip-path="url(#p2c23a9a295)" style="fill: #ffa500"/>
   </g>
   <g id="patch_107">
    <path d="M 358.74338 299.518125 
L 361.435031 299.518125 
L 361.435031 269.877979 
L 358.74338 269.877979 
z
" clip-path="url(#p2c23a9a295)" style="fill: #ffa500"/>
   </g>
   <g id="patch_108">
    <path d="M 361.435031 299.518125 
L 364.126683 299.518125 
L 364.126683 225.239204 
L 361.435031 225.239204 
z
" clip-path="url(#p2c23a9a295)" style="fill: #ffa500"/>
   </g>
   <g id="patch_109">
    <path d="M 364.126683 299.518125 
L 366.818334 299.518125 
L 366.818334 258.450452 
L 364.126683 258.450452 
z
" clip-path="url(#p2c23a9a295)" style="fill: #ffa500"/>
   </g>
   <g id="patch_110">
    <path d="M 366.818334 299.518125 
L 369.509985 299.518125 
L 369.509985 254.52224 
L 366.818334 254.52224 
z
" clip-path="url(#p2c23a9a295)" style="fill: #ffa500"/>
   </g>
   <g id="patch_111">
    <path d="M 369.509985 299.518125 
L 372.201637 299.518125 
L 372.201637 187.385523 
L 369.509985 187.385523 
z
" clip-path="url(#p2c23a9a295)" style="fill: #ffa500"/>
   </g>
   <g id="patch_112">
    <path d="M 372.201637 299.518125 
L 374.893288 299.518125 
L 374.893288 250.236918 
L 372.201637 250.236918 
z
" clip-path="url(#p2c23a9a295)" style="fill: #ffa500"/>
   </g>
   <g id="patch_113">
    <path d="M 374.893288 299.518125 
L 377.584939 299.518125 
L 377.584939 239.880722 
L 374.893288 239.880722 
z
" clip-path="url(#p2c23a9a295)" style="fill: #ffa500"/>
   </g>
   <g id="patch_114">
    <path d="M 377.584939 299.518125 
L 380.27659 299.518125 
L 380.27659 159.530928 
L 377.584939 159.530928 
z
" clip-path="url(#p2c23a9a295)" style="fill: #ffa500"/>
   </g>
   <g id="patch_115">
    <path d="M 380.27659 299.518125 
L 382.968242 299.518125 
L 382.968242 233.452739 
L 380.27659 233.452739 
z
" clip-path="url(#p2c23a9a295)" style="fill: #ffa500"/>
   </g>
   <g id="patch_116">
    <path d="M 382.968242 299.518125 
L 385.659893 299.518125 
L 385.659893 229.167416 
L 382.968242 229.167416 
z
" clip-path="url(#p2c23a9a295)" style="fill: #ffa500"/>
   </g>
   <g id="patch_117">
    <path d="M 385.659893 299.518125 
L 388.351544 299.518125 
L 388.351544 124.891239 
L 385.659893 124.891239 
z
" clip-path="url(#p2c23a9a295)" style="fill: #ffa500"/>
   </g>
   <g id="patch_118">
    <path d="M 388.351544 299.518125 
L 391.043196 299.518125 
L 391.043196 204.526813 
L 388.351544 204.526813 
z
" clip-path="url(#p2c23a9a295)" style="fill: #ffa500"/>
   </g>
   <g id="patch_119">
    <path d="M 391.043196 299.518125 
L 393.734847 299.518125 
L 393.734847 205.598143 
L 391.043196 205.598143 
z
" clip-path="url(#p2c23a9a295)" style="fill: #ffa500"/>
   </g>
   <g id="patch_120">
    <path d="M 393.734847 299.518125 
L 396.426498 299.518125 
L 396.426498 113.106602 
L 393.734847 113.106602 
z
" clip-path="url(#p2c23a9a295)" style="fill: #ffa500"/>
   </g>
   <g id="patch_121">
    <path d="M 396.426498 299.518125 
L 399.118149 299.518125 
L 399.118149 197.384609 
L 396.426498 197.384609 
z
" clip-path="url(#p2c23a9a295)" style="fill: #ffa500"/>
   </g>
   <g id="patch_122">
    <path d="M 399.118149 299.518125 
L 401.809801 299.518125 
L 401.809801 198.455939 
L 399.118149 198.455939 
z
" clip-path="url(#p2c23a9a295)" style="fill: #ffa500"/>
   </g>
   <g id="patch_123">
    <path d="M 401.809801 299.518125 
L 404.501452 299.518125 
L 404.501452 95.965313 
L 401.809801 95.965313 
z
" clip-path="url(#p2c23a9a295)" style="fill: #ffa500"/>
   </g>
   <g id="patch_124">
    <path d="M 404.501452 299.518125 
L 407.193103 299.518125 
L 407.193103 202.027041 
L 404.501452 202.027041 
z
" clip-path="url(#p2c23a9a295)" style="fill: #ffa500"/>
   </g>
   <g id="patch_125">
    <path d="M 407.193103 299.518125 
L 409.884755 299.518125 
L 409.884755 99.179305 
L 407.193103 99.179305 
z
" clip-path="url(#p2c23a9a295)" style="fill: #ffa500"/>
   </g>
   <g id="patch_126">
    <path d="M 409.884755 299.518125 
L 412.576406 299.518125 
L 412.576406 198.455939 
L 409.884755 198.455939 
z
" clip-path="url(#p2c23a9a295)" style="fill: #ffa500"/>
   </g>
   <g id="patch_127">
    <path d="M 412.576406 299.518125 
L 415.268057 299.518125 
L 415.268057 203.098372 
L 412.576406 203.098372 
z
" clip-path="url(#p2c23a9a295)" style="fill: #ffa500"/>
   </g>
   <g id="patch_128">
    <path d="M 415.268057 299.518125 
L 417.959708 299.518125 
L 417.959708 112.749492 
L 415.268057 112.749492 
z
" clip-path="url(#p2c23a9a295)" style="fill: #ffa500"/>
   </g>
   <g id="patch_129">
    <path d="M 417.959708 299.518125 
L 420.65136 299.518125 
L 420.65136 212.026127 
L 417.959708 212.026127 
z
" clip-path="url(#p2c23a9a295)" style="fill: #ffa500"/>
   </g>
   <g id="patch_130">
    <path d="M 420.65136 299.518125 
L 423.343011 299.518125 
L 423.343011 224.524984 
L 420.65136 224.524984 
z
" clip-path="url(#p2c23a9a295)" style="fill: #ffa500"/>
   </g>
   <g id="patch_131">
    <path d="M 423.343011 299.518125 
L 426.034662 299.518125 
L 426.034662 151.674504 
L 423.343011 151.674504 
z
" clip-path="url(#p2c23a9a295)" style="fill: #ffa500"/>
   </g>
   <g id="patch_132">
    <path d="M 426.034662 299.518125 
L 428.726314 299.518125 
L 428.726314 224.882094 
L 426.034662 224.882094 
z
" clip-path="url(#p2c23a9a295)" style="fill: #ffa500"/>
   </g>
   <g id="patch_133">
    <path d="M 428.726314 299.518125 
L 431.417965 299.518125 
L 431.417965 230.952967 
L 428.726314 230.952967 
z
" clip-path="url(#p2c23a9a295)" style="fill: #ffa500"/>
   </g>
   <g id="patch_134">
    <path d="M 431.417965 299.518125 
L 434.109616 299.518125 
L 434.109616 191.313735 
L 431.417965 191.313735 
z
" clip-path="url(#p2c23a9a295)" style="fill: #ffa500"/>
   </g>
   <g id="patch_135">
    <path d="M 434.109616 299.518125 
L 436.801267 299.518125 
L 436.801267 249.522697 
L 434.109616 249.522697 
z
" clip-path="url(#p2c23a9a295)" style="fill: #ffa500"/>
   </g>
   <g id="patch_136">
    <path d="M 436.801267 299.518125 
L 439.492919 299.518125 
L 439.492919 254.87935 
L 436.801267 254.87935 
z
" clip-path="url(#p2c23a9a295)" style="fill: #ffa500"/>
   </g>
   <g id="patch_137">
    <path d="M 439.492919 299.518125 
L 442.18457 299.518125 
L 442.18457 219.882551 
L 439.492919 219.882551 
z
" clip-path="url(#p2c23a9a295)" style="fill: #ffa500"/>
   </g>
   <g id="patch_138">
    <path d="M 442.18457 299.518125 
L 444.876221 299.518125 
L 444.876221 258.093342 
L 442.18457 258.093342 
z
" clip-path="url(#p2c23a9a295)" style="fill: #ffa500"/>
   </g>
   <g id="patch_139">
    <path d="M 444.876221 299.518125 
L 447.567873 299.518125 
L 447.567873 262.021554 
L 444.876221 262.021554 
z
" clip-path="url(#p2c23a9a295)" style="fill: #ffa500"/>
   </g>
   <g id="patch_140">
    <path d="M 447.567873 299.518125 
L 450.259524 299.518125 
L 450.259524 239.166502 
L 447.567873 239.166502 
z
" clip-path="url(#p2c23a9a295)" style="fill: #ffa500"/>
   </g>
   <g id="patch_141">
    <path d="M 450.259524 299.518125 
L 452.951175 299.518125 
L 452.951175 271.66353 
L 450.259524 271.66353 
z
" clip-path="url(#p2c23a9a295)" style="fill: #ffa500"/>
   </g>
   <g id="patch_142">
    <path d="M 452.951175 299.518125 
L 455.642826 299.518125 
L 455.642826 280.234174 
L 452.951175 280.234174 
z
" clip-path="url(#p2c23a9a295)" style="fill: #ffa500"/>
   </g>
   <g id="patch_143">
    <path d="M 455.642826 299.518125 
L 458.334478 299.518125 
L 458.334478 271.306419 
L 455.642826 271.306419 
z
" clip-path="url(#p2c23a9a295)" style="fill: #ffa500"/>
   </g>
   <g id="patch_144">
    <path d="M 458.334478 299.518125 
L 461.026129 299.518125 
L 461.026129 284.876607 
L 458.334478 284.876607 
z
" clip-path="url(#p2c23a9a295)" style="fill: #ffa500"/>
   </g>
   <g id="patch_145">
    <path d="M 461.026129 299.518125 
L 463.71778 299.518125 
L 463.71778 277.020183 
L 461.026129 277.020183 
z
" clip-path="url(#p2c23a9a295)" style="fill: #ffa500"/>
   </g>
   <g id="patch_146">
    <path d="M 463.71778 299.518125 
L 466.409432 299.518125 
L 466.409432 289.519039 
L 463.71778 289.519039 
z
" clip-path="url(#p2c23a9a295)" style="fill: #ffa500"/>
   </g>
   <g id="patch_147">
    <path d="M 466.409432 299.518125 
L 469.101083 299.518125 
L 469.101083 287.733489 
L 466.409432 287.733489 
z
" clip-path="url(#p2c23a9a295)" style="fill: #ffa500"/>
   </g>
   <g id="patch_148">
    <path d="M 469.101083 299.518125 
L 471.792734 299.518125 
L 471.792734 285.233717 
L 469.101083 285.233717 
z
" clip-path="url(#p2c23a9a295)" style="fill: #ffa500"/>
   </g>
   <g id="patch_149">
    <path d="M 471.792734 299.518125 
L 474.484386 299.518125 
L 474.484386 296.304133 
L 471.792734 296.304133 
z
" clip-path="url(#p2c23a9a295)" style="fill: #ffa500"/>
   </g>
   <g id="patch_150">
    <path d="M 474.484386 299.518125 
L 477.176037 299.518125 
L 477.176037 293.090141 
L 474.484386 293.090141 
z
" clip-path="url(#p2c23a9a295)" style="fill: #ffa500"/>
   </g>
   <g id="patch_151">
    <path d="M 477.176037 299.518125 
L 479.867688 299.518125 
L 479.867688 293.804362 
L 477.176037 293.804362 
z
" clip-path="url(#p2c23a9a295)" style="fill: #ffa500"/>
   </g>
   <g id="patch_152">
    <path d="M 479.867688 299.518125 
L 482.559339 299.518125 
L 482.559339 297.018354 
L 479.867688 297.018354 
z
" clip-path="url(#p2c23a9a295)" style="fill: #ffa500"/>
   </g>
   <g id="patch_153">
    <path d="M 482.559339 299.518125 
L 485.250991 299.518125 
L 485.250991 298.089684 
L 482.559339 298.089684 
z
" clip-path="url(#p2c23a9a295)" style="fill: #ffa500"/>
   </g>
   <g id="patch_154">
    <path d="M 485.250991 299.518125 
L 487.942642 299.518125 
L 487.942642 296.661243 
L 485.250991 296.661243 
z
" clip-path="url(#p2c23a9a295)" style="fill: #ffa500"/>
   </g>
   <g id="patch_155">
    <path d="M 487.942642 299.518125 
L 490.634293 299.518125 
L 490.634293 297.732574 
L 487.942642 297.732574 
z
" clip-path="url(#p2c23a9a295)" style="fill: #ffa500"/>
   </g>
   <g id="patch_156">
    <path d="M 490.634293 299.518125 
L 493.325945 299.518125 
L 493.325945 298.803905 
L 490.634293 298.803905 
z
" clip-path="url(#p2c23a9a295)" style="fill: #ffa500"/>
   </g>
   <g id="patch_157">
    <path d="M 493.325945 299.518125 
L 496.017596 299.518125 
L 496.017596 297.018354 
L 493.325945 297.018354 
z
" clip-path="url(#p2c23a9a295)" style="fill: #ffa500"/>
   </g>
   <g id="patch_158">
    <path d="M 496.017596 299.518125 
L 498.709247 299.518125 
L 498.709247 299.161015 
L 496.017596 299.161015 
z
" clip-path="url(#p2c23a9a295)" style="fill: #ffa500"/>
   </g>
   <g id="patch_159">
    <path d="M 498.709247 299.518125 
L 501.400898 299.518125 
L 501.400898 298.446794 
L 498.709247 298.446794 
z
" clip-path="url(#p2c23a9a295)" style="fill: #ffa500"/>
   </g>
   <g id="patch_160">
    <path d="M 501.400898 299.518125 
L 504.09255 299.518125 
L 504.09255 297.375464 
L 501.400898 297.375464 
z
" clip-path="url(#p2c23a9a295)" style="fill: #ffa500"/>
   </g>
   <g id="patch_161">
    <path d="M 504.09255 299.518125 
L 506.784201 299.518125 
L 506.784201 299.518125 
L 504.09255 299.518125 
z
" clip-path="url(#p2c23a9a295)" style="fill: #ffa500"/>
   </g>
   <g id="patch_162">
    <path d="M 506.784201 299.518125 
L 509.475852 299.518125 
L 509.475852 298.803905 
L 506.784201 298.803905 
z
" clip-path="url(#p2c23a9a295)" style="fill: #ffa500"/>
   </g>
   <g id="patch_163">
    <path d="M 54.885857 299.518125 
L 56.655368 299.518125 
L 56.655368 298.974915 
L 54.885857 298.974915 
z
" clip-path="url(#p2c23a9a295)" style="fill: #bf00bf"/>
   </g>
   <g id="patch_164">
    <path d="M 56.655368 299.518125 
L 58.42488 299.518125 
L 58.42488 298.974915 
L 56.655368 298.974915 
z
" clip-path="url(#p2c23a9a295)" style="fill: #bf00bf"/>
   </g>
   <g id="patch_165">
    <path d="M 58.42488 299.518125 
L 60.194391 299.518125 
L 60.194391 298.974915 
L 58.42488 298.974915 
z
" clip-path="url(#p2c23a9a295)" style="fill: #bf00bf"/>
   </g>
   <g id="patch_166">
    <path d="M 60.194391 299.518125 
L 61.963903 299.518125 
L 61.963903 296.802076 
L 60.194391 296.802076 
z
" clip-path="url(#p2c23a9a295)" style="fill: #bf00bf"/>
   </g>
   <g id="patch_167">
    <path d="M 61.963903 299.518125 
L 63.733414 299.518125 
L 63.733414 295.172446 
L 61.963903 295.172446 
z
" clip-path="url(#p2c23a9a295)" style="fill: #bf00bf"/>
   </g>
   <g id="patch_168">
    <path d="M 63.733414 299.518125 
L 65.502926 299.518125 
L 65.502926 292.456397 
L 63.733414 292.456397 
z
" clip-path="url(#p2c23a9a295)" style="fill: #bf00bf"/>
   </g>
   <g id="patch_169">
    <path d="M 65.502926 299.518125 
L 67.272437 299.518125 
L 67.272437 282.135409 
L 65.502926 282.135409 
z
" clip-path="url(#p2c23a9a295)" style="fill: #bf00bf"/>
   </g>
   <g id="patch_170">
    <path d="M 67.272437 299.518125 
L 69.041949 299.518125 
L 69.041949 278.87615 
L 67.272437 278.87615 
z
" clip-path="url(#p2c23a9a295)" style="fill: #bf00bf"/>
   </g>
   <g id="patch_171">
    <path d="M 69.041949 299.518125 
L 70.81146 299.518125 
L 70.81146 299.518125 
L 69.041949 299.518125 
z
" clip-path="url(#p2c23a9a295)" style="fill: #bf00bf"/>
   </g>
   <g id="patch_172">
    <path d="M 70.81146 299.518125 
L 72.580972 299.518125 
L 72.580972 279.962569 
L 70.81146 279.962569 
z
" clip-path="url(#p2c23a9a295)" style="fill: #bf00bf"/>
   </g>
   <g id="patch_173">
    <path d="M 72.580972 299.518125 
L 74.350483 299.518125 
L 74.350483 261.493434 
L 72.580972 261.493434 
z
" clip-path="url(#p2c23a9a295)" style="fill: #bf00bf"/>
   </g>
   <g id="patch_174">
    <path d="M 74.350483 299.518125 
L 76.119995 299.518125 
L 76.119995 251.715656 
L 74.350483 251.715656 
z
" clip-path="url(#p2c23a9a295)" style="fill: #bf00bf"/>
   </g>
   <g id="patch_175">
    <path d="M 76.119995 299.518125 
L 77.889506 299.518125 
L 77.889506 226.184792 
L 76.119995 226.184792 
z
" clip-path="url(#p2c23a9a295)" style="fill: #bf00bf"/>
   </g>
   <g id="patch_176">
    <path d="M 77.889506 299.518125 
L 79.659018 299.518125 
L 79.659018 212.061335 
L 77.889506 212.061335 
z
" clip-path="url(#p2c23a9a295)" style="fill: #bf00bf"/>
   </g>
   <g id="patch_177">
    <path d="M 79.659018 299.518125 
L 81.428529 299.518125 
L 81.428529 181.641582 
L 79.659018 181.641582 
z
" clip-path="url(#p2c23a9a295)" style="fill: #bf00bf"/>
   </g>
   <g id="patch_178">
    <path d="M 81.428529 299.518125 
L 83.198041 299.518125 
L 83.198041 178.382323 
L 81.428529 178.382323 
z
" clip-path="url(#p2c23a9a295)" style="fill: #bf00bf"/>
   </g>
   <g id="patch_179">
    <path d="M 83.198041 299.518125 
L 84.967552 299.518125 
L 84.967552 145.78973 
L 83.198041 145.78973 
z
" clip-path="url(#p2c23a9a295)" style="fill: #bf00bf"/>
   </g>
   <g id="patch_180">
    <path d="M 84.967552 299.518125 
L 86.737064 299.518125 
L 86.737064 299.518125 
L 84.967552 299.518125 
z
" clip-path="url(#p2c23a9a295)" style="fill: #bf00bf"/>
   </g>
   <g id="patch_181">
    <path d="M 86.737064 299.518125 
L 88.506575 299.518125 
L 88.506575 136.555162 
L 86.737064 136.555162 
z
" clip-path="url(#p2c23a9a295)" style="fill: #bf00bf"/>
   </g>
   <g id="patch_182">
    <path d="M 88.506575 299.518125 
L 90.276087 299.518125 
L 90.276087 95.271211 
L 88.506575 95.271211 
z
" clip-path="url(#p2c23a9a295)" style="fill: #bf00bf"/>
   </g>
   <g id="patch_183">
    <path d="M 90.276087 299.518125 
L 92.045598 299.518125 
L 92.045598 106.135409 
L 90.276087 106.135409 
z
" clip-path="url(#p2c23a9a295)" style="fill: #bf00bf"/>
   </g>
   <g id="patch_184">
    <path d="M 92.045598 299.518125 
L 93.81511 299.518125 
L 93.81511 76.802076 
L 92.045598 76.802076 
z
" clip-path="url(#p2c23a9a295)" style="fill: #bf00bf"/>
   </g>
   <g id="patch_185">
    <path d="M 93.81511 299.518125 
L 95.584621 299.518125 
L 95.584621 64.308248 
L 93.81511 64.308248 
z
" clip-path="url(#p2c23a9a295)" style="fill: #bf00bf"/>
   </g>
   <g id="patch_186">
    <path d="M 95.584621 299.518125 
L 97.354133 299.518125 
L 97.354133 45.295903 
L 95.584621 45.295903 
z
" clip-path="url(#p2c23a9a295)" style="fill: #bf00bf"/>
   </g>
   <g id="patch_187">
    <path d="M 97.354133 299.518125 
L 99.123644 299.518125 
L 99.123644 49.641582 
L 97.354133 49.641582 
z
" clip-path="url(#p2c23a9a295)" style="fill: #bf00bf"/>
   </g>
   <g id="patch_188">
    <path d="M 99.123644 299.518125 
L 100.893156 299.518125 
L 100.893156 35.518125 
L 99.123644 35.518125 
z
" clip-path="url(#p2c23a9a295)" style="fill: #bf00bf"/>
   </g>
   <g id="patch_189">
    <path d="M 100.893156 299.518125 
L 102.662667 299.518125 
L 102.662667 299.518125 
L 100.893156 299.518125 
z
" clip-path="url(#p2c23a9a295)" style="fill: #bf00bf"/>
   </g>
   <g id="patch_190">
    <path d="M 102.662667 299.518125 
L 104.432179 299.518125 
L 104.432179 54.530471 
L 102.662667 54.530471 
z
" clip-path="url(#p2c23a9a295)" style="fill: #bf00bf"/>
   </g>
   <g id="patch_191">
    <path d="M 104.432179 299.518125 
L 106.20169 299.518125 
L 106.20169 67.567508 
L 104.432179 67.567508 
z
" clip-path="url(#p2c23a9a295)" style="fill: #bf00bf"/>
   </g>
   <g id="patch_192">
    <path d="M 106.20169 299.518125 
L 107.971202 299.518125 
L 107.971202 46.382323 
L 106.20169 46.382323 
z
" clip-path="url(#p2c23a9a295)" style="fill: #bf00bf"/>
   </g>
   <g id="patch_193">
    <path d="M 107.971202 299.518125 
L 109.740713 299.518125 
L 109.740713 67.567508 
L 107.971202 67.567508 
z
" clip-path="url(#p2c23a9a295)" style="fill: #bf00bf"/>
   </g>
   <g id="patch_194">
    <path d="M 109.740713 299.518125 
L 111.510225 299.518125 
L 111.510225 91.468742 
L 109.740713 91.468742 
z
" clip-path="url(#p2c23a9a295)" style="fill: #bf00bf"/>
   </g>
   <g id="patch_195">
    <path d="M 111.510225 299.518125 
L 113.279736 299.518125 
L 113.279736 94.184792 
L 111.510225 94.184792 
z
" clip-path="url(#p2c23a9a295)" style="fill: #bf00bf"/>
   </g>
   <g id="patch_196">
    <path d="M 113.279736 299.518125 
L 115.049248 299.518125 
L 115.049248 109.394668 
L 113.279736 109.394668 
z
" clip-path="url(#p2c23a9a295)" style="fill: #bf00bf"/>
   </g>
   <g id="patch_197">
    <path d="M 115.049248 299.518125 
L 116.818759 299.518125 
L 116.818759 119.172446 
L 115.049248 119.172446 
z
" clip-path="url(#p2c23a9a295)" style="fill: #bf00bf"/>
   </g>
   <g id="patch_198">
    <path d="M 116.818759 299.518125 
L 118.588271 299.518125 
L 118.588271 299.518125 
L 116.818759 299.518125 
z
" clip-path="url(#p2c23a9a295)" style="fill: #bf00bf"/>
   </g>
   <g id="patch_199">
    <path d="M 118.588271 299.518125 
L 120.357782 299.518125 
L 120.357782 140.900841 
L 118.588271 140.900841 
z
" clip-path="url(#p2c23a9a295)" style="fill: #bf00bf"/>
   </g>
   <g id="patch_200">
    <path d="M 120.357782 299.518125 
L 122.127294 299.518125 
L 122.127294 164.258866 
L 120.357782 164.258866 
z
" clip-path="url(#p2c23a9a295)" style="fill: #bf00bf"/>
   </g>
   <g id="patch_201">
    <path d="M 122.127294 299.518125 
L 123.896805 299.518125 
L 123.896805 181.641582 
L 122.127294 181.641582 
z
" clip-path="url(#p2c23a9a295)" style="fill: #bf00bf"/>
   </g>
   <g id="patch_202">
    <path d="M 123.896805 299.518125 
L 125.666317 299.518125 
L 125.666317 178.382323 
L 123.896805 178.382323 
z
" clip-path="url(#p2c23a9a295)" style="fill: #bf00bf"/>
   </g>
   <g id="patch_203">
    <path d="M 125.666317 299.518125 
L 127.435828 299.518125 
L 127.435828 212.604545 
L 125.666317 212.604545 
z
" clip-path="url(#p2c23a9a295)" style="fill: #bf00bf"/>
   </g>
   <g id="patch_204">
    <path d="M 127.435828 299.518125 
L 129.20534 299.518125 
L 129.20534 210.974915 
L 127.435828 210.974915 
z
" clip-path="url(#p2c23a9a295)" style="fill: #bf00bf"/>
   </g>
   <g id="patch_205">
    <path d="M 129.20534 299.518125 
L 130.974851 299.518125 
L 130.974851 222.925532 
L 129.20534 222.925532 
z
" clip-path="url(#p2c23a9a295)" style="fill: #bf00bf"/>
   </g>
   <g id="patch_206">
    <path d="M 130.974851 299.518125 
L 132.744363 299.518125 
L 132.744363 233.78973 
L 130.974851 233.78973 
z
" clip-path="url(#p2c23a9a295)" style="fill: #bf00bf"/>
   </g>
   <g id="patch_207">
    <path d="M 132.744363 299.518125 
L 134.513874 299.518125 
L 134.513874 299.518125 
L 132.744363 299.518125 
z
" clip-path="url(#p2c23a9a295)" style="fill: #bf00bf"/>
   </g>
   <g id="patch_208">
    <path d="M 134.513874 299.518125 
L 136.283386 299.518125 
L 136.283386 237.048989 
L 134.513874 237.048989 
z
" clip-path="url(#p2c23a9a295)" style="fill: #bf00bf"/>
   </g>
   <g id="patch_209">
    <path d="M 136.283386 299.518125 
L 138.052897 299.518125 
L 138.052897 244.653927 
L 136.283386 244.653927 
z
" clip-path="url(#p2c23a9a295)" style="fill: #bf00bf"/>
   </g>
   <g id="patch_210">
    <path d="M 138.052897 299.518125 
L 139.822409 299.518125 
L 139.822409 263.123063 
L 138.052897 263.123063 
z
" clip-path="url(#p2c23a9a295)" style="fill: #bf00bf"/>
   </g>
   <g id="patch_211">
    <path d="M 139.822409 299.518125 
L 141.59192 299.518125 
L 141.59192 268.555162 
L 139.822409 268.555162 
z
" clip-path="url(#p2c23a9a295)" style="fill: #bf00bf"/>
   </g>
   <g id="patch_212">
    <path d="M 141.59192 299.518125 
L 143.361431 299.518125 
L 143.361431 269.641582 
L 141.59192 269.641582 
z
" clip-path="url(#p2c23a9a295)" style="fill: #bf00bf"/>
   </g>
   <g id="patch_213">
    <path d="M 143.361431 299.518125 
L 145.130943 299.518125 
L 145.130943 270.184792 
L 143.361431 270.184792 
z
" clip-path="url(#p2c23a9a295)" style="fill: #bf00bf"/>
   </g>
   <g id="patch_214">
    <path d="M 145.130943 299.518125 
L 146.900454 299.518125 
L 146.900454 277.24652 
L 145.130943 277.24652 
z
" clip-path="url(#p2c23a9a295)" style="fill: #bf00bf"/>
   </g>
   <g id="patch_215">
    <path d="M 146.900454 299.518125 
L 148.669966 299.518125 
L 148.669966 287.024298 
L 146.900454 287.024298 
z
" clip-path="url(#p2c23a9a295)" style="fill: #bf00bf"/>
   </g>
   <g id="patch_216">
    <path d="M 148.669966 299.518125 
L 150.439477 299.518125 
L 150.439477 299.518125 
L 148.669966 299.518125 
z
" clip-path="url(#p2c23a9a295)" style="fill: #bf00bf"/>
   </g>
   <g id="patch_217">
    <path d="M 150.439477 299.518125 
L 152.208989 299.518125 
L 152.208989 288.110718 
L 150.439477 288.110718 
z
" clip-path="url(#p2c23a9a295)" style="fill: #bf00bf"/>
   </g>
   <g id="patch_218">
    <path d="M 152.208989 299.518125 
L 153.9785 299.518125 
L 153.9785 289.197137 
L 152.208989 289.197137 
z
" clip-path="url(#p2c23a9a295)" style="fill: #bf00bf"/>
   </g>
   <g id="patch_219">
    <path d="M 153.9785 299.518125 
L 155.748012 299.518125 
L 155.748012 291.913187 
L 153.9785 291.913187 
z
" clip-path="url(#p2c23a9a295)" style="fill: #bf00bf"/>
   </g>
   <g id="patch_220">
    <path d="M 155.748012 299.518125 
L 157.517523 299.518125 
L 157.517523 291.369977 
L 155.748012 291.369977 
z
" clip-path="url(#p2c23a9a295)" style="fill: #bf00bf"/>
   </g>
   <g id="patch_221">
    <path d="M 157.517523 299.518125 
L 159.287035 299.518125 
L 159.287035 295.172446 
L 157.517523 295.172446 
z
" clip-path="url(#p2c23a9a295)" style="fill: #bf00bf"/>
   </g>
   <g id="patch_222">
    <path d="M 159.287035 299.518125 
L 161.056546 299.518125 
L 161.056546 295.715656 
L 159.287035 295.715656 
z
" clip-path="url(#p2c23a9a295)" style="fill: #bf00bf"/>
   </g>
   <g id="patch_223">
    <path d="M 161.056546 299.518125 
L 162.826058 299.518125 
L 162.826058 295.172446 
L 161.056546 295.172446 
z
" clip-path="url(#p2c23a9a295)" style="fill: #bf00bf"/>
   </g>
   <g id="patch_224">
    <path d="M 162.826058 299.518125 
L 164.595569 299.518125 
L 164.595569 296.258866 
L 162.826058 296.258866 
z
" clip-path="url(#p2c23a9a295)" style="fill: #bf00bf"/>
   </g>
   <g id="patch_225">
    <path d="M 164.595569 299.518125 
L 166.365081 299.518125 
L 166.365081 299.518125 
L 164.595569 299.518125 
z
" clip-path="url(#p2c23a9a295)" style="fill: #bf00bf"/>
   </g>
   <g id="patch_226">
    <path d="M 166.365081 299.518125 
L 168.134592 299.518125 
L 168.134592 298.974915 
L 166.365081 298.974915 
z
" clip-path="url(#p2c23a9a295)" style="fill: #bf00bf"/>
   </g>
   <g id="patch_227">
    <path d="M 168.134592 299.518125 
L 169.904104 299.518125 
L 169.904104 298.431705 
L 168.134592 298.431705 
z
" clip-path="url(#p2c23a9a295)" style="fill: #bf00bf"/>
   </g>
   <g id="patch_228">
    <path d="M 169.904104 299.518125 
L 171.673615 299.518125 
L 171.673615 298.431705 
L 169.904104 298.431705 
z
" clip-path="url(#p2c23a9a295)" style="fill: #bf00bf"/>
   </g>
   <g id="patch_229">
    <path d="M 171.673615 299.518125 
L 173.443127 299.518125 
L 173.443127 298.974915 
L 171.673615 298.974915 
z
" clip-path="url(#p2c23a9a295)" style="fill: #bf00bf"/>
   </g>
   <g id="patch_230">
    <path d="M 173.443127 299.518125 
L 175.212638 299.518125 
L 175.212638 298.974915 
L 173.443127 298.974915 
z
" clip-path="url(#p2c23a9a295)" style="fill: #bf00bf"/>
   </g>
   <g id="patch_231">
    <path d="M 175.212638 299.518125 
L 176.98215 299.518125 
L 176.98215 299.518125 
L 175.212638 299.518125 
z
" clip-path="url(#p2c23a9a295)" style="fill: #bf00bf"/>
   </g>
   <g id="patch_232">
    <path d="M 176.98215 299.518125 
L 178.751661 299.518125 
L 178.751661 299.518125 
L 176.98215 299.518125 
z
" clip-path="url(#p2c23a9a295)" style="fill: #bf00bf"/>
   </g>
   <g id="patch_233">
    <path d="M 178.751661 299.518125 
L 180.521173 299.518125 
L 180.521173 299.518125 
L 178.751661 299.518125 
z
" clip-path="url(#p2c23a9a295)" style="fill: #bf00bf"/>
   </g>
   <g id="patch_234">
    <path d="M 180.521173 299.518125 
L 182.290684 299.518125 
L 182.290684 299.518125 
L 180.521173 299.518125 
z
" clip-path="url(#p2c23a9a295)" style="fill: #bf00bf"/>
   </g>
   <g id="patch_235">
    <path d="M 182.290684 299.518125 
L 184.060196 299.518125 
L 184.060196 299.518125 
L 182.290684 299.518125 
z
" clip-path="url(#p2c23a9a295)" style="fill: #bf00bf"/>
   </g>
   <g id="patch_236">
    <path d="M 184.060196 299.518125 
L 185.829707 299.518125 
L 185.829707 299.518125 
L 184.060196 299.518125 
z
" clip-path="url(#p2c23a9a295)" style="fill: #bf00bf"/>
   </g>
   <g id="patch_237">
    <path d="M 185.829707 299.518125 
L 187.599219 299.518125 
L 187.599219 299.518125 
L 185.829707 299.518125 
z
" clip-path="url(#p2c23a9a295)" style="fill: #bf00bf"/>
   </g>
   <g id="patch_238">
    <path d="M 187.599219 299.518125 
L 189.36873 299.518125 
L 189.36873 299.518125 
L 187.599219 299.518125 
z
" clip-path="url(#p2c23a9a295)" style="fill: #bf00bf"/>
   </g>
   <g id="patch_239">
    <path d="M 189.36873 299.518125 
L 191.138242 299.518125 
L 191.138242 299.518125 
L 189.36873 299.518125 
z
" clip-path="url(#p2c23a9a295)" style="fill: #bf00bf"/>
   </g>
   <g id="patch_240">
    <path d="M 191.138242 299.518125 
L 192.907753 299.518125 
L 192.907753 299.518125 
L 191.138242 299.518125 
z
" clip-path="url(#p2c23a9a295)" style="fill: #bf00bf"/>
   </g>
   <g id="patch_241">
    <path d="M 192.907753 299.518125 
L 194.677265 299.518125 
L 194.677265 299.518125 
L 192.907753 299.518125 
z
" clip-path="url(#p2c23a9a295)" style="fill: #bf00bf"/>
   </g>
   <g id="patch_242">
    <path d="M 194.677265 299.518125 
L 196.446776 299.518125 
L 196.446776 298.974915 
L 194.677265 298.974915 
z
" clip-path="url(#p2c23a9a295)" style="fill: #bf00bf"/>
   </g>
   <g id="matplotlib.axis_1">
    <g id="xtick_1">
     <g id="line2d_1">
      <path d="M 84.793093 299.518125 
L 84.793093 22.318125 
" clip-path="url(#p2c23a9a295)" style="fill: none; stroke-dasharray: 0.8,1.32; stroke-dashoffset: 0; stroke: #b0b0b0; stroke-width: 0.8"/>
     </g>
     <g id="line2d_2">
      <defs>
       <path id="m4f277c7fb5" d="M 0 0 
L 0 3.5 
" style="stroke: #000000; stroke-width: 0.8"/>
      </defs>
      <g>
       <use xlink:href="#m4f277c7fb5" x="84.793093" y="299.518125" style="stroke: #000000; stroke-width: 0.8"/>
      </g>
     </g>
     <g id="text_1">
      <!-- 2 -->
      <g transform="translate(81.611843 314.116563) scale(0.1 -0.1)">
       <defs>
        <path id="DejaVuSans-32" d="M 1228 531 
L 3431 531 
L 3431 0 
L 469 0 
L 469 531 
Q 828 903 1448 1529 
Q 2069 2156 2228 2338 
Q 2531 2678 2651 2914 
Q 2772 3150 2772 3378 
Q 2772 3750 2511 3984 
Q 2250 4219 1831 4219 
Q 1534 4219 1204 4116 
Q 875 4013 500 3803 
L 500 4441 
Q 881 4594 1212 4672 
Q 1544 4750 1819 4750 
Q 2544 4750 2975 4387 
Q 3406 4025 3406 3419 
Q 3406 3131 3298 2873 
Q 3191 2616 2906 2266 
Q 2828 2175 2409 1742 
Q 1991 1309 1228 531 
z
" transform="scale(0.015625)"/>
       </defs>
       <use xlink:href="#DejaVuSans-32"/>
      </g>
     </g>
    </g>
    <g id="xtick_2">
     <g id="line2d_3">
      <path d="M 164.545724 299.518125 
L 164.545724 22.318125 
" clip-path="url(#p2c23a9a295)" style="fill: none; stroke-dasharray: 0.8,1.32; stroke-dashoffset: 0; stroke: #b0b0b0; stroke-width: 0.8"/>
     </g>
     <g id="line2d_4">
      <g>
       <use xlink:href="#m4f277c7fb5" x="164.545724" y="299.518125" style="stroke: #000000; stroke-width: 0.8"/>
      </g>
     </g>
     <g id="text_2">
      <!-- 4 -->
      <g transform="translate(161.364474 314.116563) scale(0.1 -0.1)">
       <defs>
        <path id="DejaVuSans-34" d="M 2419 4116 
L 825 1625 
L 2419 1625 
L 2419 4116 
z
M 2253 4666 
L 3047 4666 
L 3047 1625 
L 3713 1625 
L 3713 1100 
L 3047 1100 
L 3047 0 
L 2419 0 
L 2419 1100 
L 313 1100 
L 313 1709 
L 2253 4666 
z
" transform="scale(0.015625)"/>
       </defs>
       <use xlink:href="#DejaVuSans-34"/>
      </g>
     </g>
    </g>
    <g id="xtick_3">
     <g id="line2d_5">
      <path d="M 244.298355 299.518125 
L 244.298355 22.318125 
" clip-path="url(#p2c23a9a295)" style="fill: none; stroke-dasharray: 0.8,1.32; stroke-dashoffset: 0; stroke: #b0b0b0; stroke-width: 0.8"/>
     </g>
     <g id="line2d_6">
      <g>
       <use xlink:href="#m4f277c7fb5" x="244.298355" y="299.518125" style="stroke: #000000; stroke-width: 0.8"/>
      </g>
     </g>
     <g id="text_3">
      <!-- 6 -->
      <g transform="translate(241.117105 314.116563) scale(0.1 -0.1)">
       <defs>
        <path id="DejaVuSans-36" d="M 2113 2584 
Q 1688 2584 1439 2293 
Q 1191 2003 1191 1497 
Q 1191 994 1439 701 
Q 1688 409 2113 409 
Q 2538 409 2786 701 
Q 3034 994 3034 1497 
Q 3034 2003 2786 2293 
Q 2538 2584 2113 2584 
z
M 3366 4563 
L 3366 3988 
Q 3128 4100 2886 4159 
Q 2644 4219 2406 4219 
Q 1781 4219 1451 3797 
Q 1122 3375 1075 2522 
Q 1259 2794 1537 2939 
Q 1816 3084 2150 3084 
Q 2853 3084 3261 2657 
Q 3669 2231 3669 1497 
Q 3669 778 3244 343 
Q 2819 -91 2113 -91 
Q 1303 -91 875 529 
Q 447 1150 447 2328 
Q 447 3434 972 4092 
Q 1497 4750 2381 4750 
Q 2619 4750 2861 4703 
Q 3103 4656 3366 4563 
z
" transform="scale(0.015625)"/>
       </defs>
       <use xlink:href="#DejaVuSans-36"/>
      </g>
     </g>
    </g>
    <g id="xtick_4">
     <g id="line2d_7">
      <path d="M 324.050986 299.518125 
L 324.050986 22.318125 
" clip-path="url(#p2c23a9a295)" style="fill: none; stroke-dasharray: 0.8,1.32; stroke-dashoffset: 0; stroke: #b0b0b0; stroke-width: 0.8"/>
     </g>
     <g id="line2d_8">
      <g>
       <use xlink:href="#m4f277c7fb5" x="324.050986" y="299.518125" style="stroke: #000000; stroke-width: 0.8"/>
      </g>
     </g>
     <g id="text_4">
      <!-- 8 -->
      <g transform="translate(320.869736 314.116563) scale(0.1 -0.1)">
       <defs>
        <path id="DejaVuSans-38" d="M 2034 2216 
Q 1584 2216 1326 1975 
Q 1069 1734 1069 1313 
Q 1069 891 1326 650 
Q 1584 409 2034 409 
Q 2484 409 2743 651 
Q 3003 894 3003 1313 
Q 3003 1734 2745 1975 
Q 2488 2216 2034 2216 
z
M 1403 2484 
Q 997 2584 770 2862 
Q 544 3141 544 3541 
Q 544 4100 942 4425 
Q 1341 4750 2034 4750 
Q 2731 4750 3128 4425 
Q 3525 4100 3525 3541 
Q 3525 3141 3298 2862 
Q 3072 2584 2669 2484 
Q 3125 2378 3379 2068 
Q 3634 1759 3634 1313 
Q 3634 634 3220 271 
Q 2806 -91 2034 -91 
Q 1263 -91 848 271 
Q 434 634 434 1313 
Q 434 1759 690 2068 
Q 947 2378 1403 2484 
z
M 1172 3481 
Q 1172 3119 1398 2916 
Q 1625 2713 2034 2713 
Q 2441 2713 2670 2916 
Q 2900 3119 2900 3481 
Q 2900 3844 2670 4047 
Q 2441 4250 2034 4250 
Q 1625 4250 1398 4047 
Q 1172 3844 1172 3481 
z
" transform="scale(0.015625)"/>
       </defs>
       <use xlink:href="#DejaVuSans-38"/>
      </g>
     </g>
    </g>
    <g id="xtick_5">
     <g id="line2d_9">
      <path d="M 403.803616 299.518125 
L 403.803616 22.318125 
" clip-path="url(#p2c23a9a295)" style="fill: none; stroke-dasharray: 0.8,1.32; stroke-dashoffset: 0; stroke: #b0b0b0; stroke-width: 0.8"/>
     </g>
     <g id="line2d_10">
      <g>
       <use xlink:href="#m4f277c7fb5" x="403.803616" y="299.518125" style="stroke: #000000; stroke-width: 0.8"/>
      </g>
     </g>
     <g id="text_5">
      <!-- 10 -->
      <g transform="translate(397.441116 314.116563) scale(0.1 -0.1)">
       <defs>
        <path id="DejaVuSans-31" d="M 794 531 
L 1825 531 
L 1825 4091 
L 703 3866 
L 703 4441 
L 1819 4666 
L 2450 4666 
L 2450 531 
L 3481 531 
L 3481 0 
L 794 0 
L 794 531 
z
" transform="scale(0.015625)"/>
        <path id="DejaVuSans-30" d="M 2034 4250 
Q 1547 4250 1301 3770 
Q 1056 3291 1056 2328 
Q 1056 1369 1301 889 
Q 1547 409 2034 409 
Q 2525 409 2770 889 
Q 3016 1369 3016 2328 
Q 3016 3291 2770 3770 
Q 2525 4250 2034 4250 
z
M 2034 4750 
Q 2819 4750 3233 4129 
Q 3647 3509 3647 2328 
Q 3647 1150 3233 529 
Q 2819 -91 2034 -91 
Q 1250 -91 836 529 
Q 422 1150 422 2328 
Q 422 3509 836 4129 
Q 1250 4750 2034 4750 
z
" transform="scale(0.015625)"/>
       </defs>
       <use xlink:href="#DejaVuSans-31"/>
       <use xlink:href="#DejaVuSans-30" x="63.623047"/>
      </g>
     </g>
    </g>
    <g id="xtick_6">
     <g id="line2d_11">
      <path d="M 483.556247 299.518125 
L 483.556247 22.318125 
" clip-path="url(#p2c23a9a295)" style="fill: none; stroke-dasharray: 0.8,1.32; stroke-dashoffset: 0; stroke: #b0b0b0; stroke-width: 0.8"/>
     </g>
     <g id="line2d_12">
      <g>
       <use xlink:href="#m4f277c7fb5" x="483.556247" y="299.518125" style="stroke: #000000; stroke-width: 0.8"/>
      </g>
     </g>
     <g id="text_6">
      <!-- 12 -->
      <g transform="translate(477.193747 314.116563) scale(0.1 -0.1)">
       <use xlink:href="#DejaVuSans-31"/>
       <use xlink:href="#DejaVuSans-32" x="63.623047"/>
      </g>
     </g>
    </g>
    <g id="text_7">
     <!-- $x$ -->
     <g transform="translate(278.203125 327.794688) scale(0.1 -0.1)">
      <defs>
       <path id="DejaVuSans-Oblique-78" d="M 3841 3500 
L 2234 1784 
L 3219 0 
L 2559 0 
L 1819 1388 
L 531 0 
L -166 0 
L 1556 1844 
L 641 3500 
L 1300 3500 
L 1972 2234 
L 3144 3500 
L 3841 3500 
z
" transform="scale(0.015625)"/>
      </defs>
      <use xlink:href="#DejaVuSans-Oblique-78" transform="translate(0 0.3125)"/>
     </g>
    </g>
   </g>
   <g id="matplotlib.axis_2">
    <g id="ytick_1">
     <g id="line2d_13">
      <path d="M 30.103125 299.518125 
L 532.303125 299.518125 
" clip-path="url(#p2c23a9a295)" style="fill: none; stroke-dasharray: 0.8,1.32; stroke-dashoffset: 0; stroke: #b0b0b0; stroke-width: 0.8"/>
     </g>
     <g id="line2d_14">
      <defs>
       <path id="m82efc2affe" d="M 0 0 
L -3.5 0 
" style="stroke: #000000; stroke-width: 0.8"/>
      </defs>
      <g>
       <use xlink:href="#m82efc2affe" x="30.103125" y="299.518125" style="stroke: #000000; stroke-width: 0.8"/>
      </g>
     </g>
     <g id="text_8">
      <!-- 0.0 -->
      <g transform="translate(7.2 303.317344) scale(0.1 -0.1)">
       <defs>
        <path id="DejaVuSans-2e" d="M 684 794 
L 1344 794 
L 1344 0 
L 684 0 
L 684 794 
z
" transform="scale(0.015625)"/>
       </defs>
       <use xlink:href="#DejaVuSans-30"/>
       <use xlink:href="#DejaVuSans-2e" x="63.623047"/>
       <use xlink:href="#DejaVuSans-30" x="95.410156"/>
      </g>
     </g>
    </g>
    <g id="ytick_2">
     <g id="line2d_15">
      <path d="M 30.103125 251.308248 
L 532.303125 251.308248 
" clip-path="url(#p2c23a9a295)" style="fill: none; stroke-dasharray: 0.8,1.32; stroke-dashoffset: 0; stroke: #b0b0b0; stroke-width: 0.8"/>
     </g>
     <g id="line2d_16">
      <g>
       <use xlink:href="#m82efc2affe" x="30.103125" y="251.308248" style="stroke: #000000; stroke-width: 0.8"/>
      </g>
     </g>
     <g id="text_9">
      <!-- 0.2 -->
      <g transform="translate(7.2 255.107467) scale(0.1 -0.1)">
       <use xlink:href="#DejaVuSans-30"/>
       <use xlink:href="#DejaVuSans-2e" x="63.623047"/>
       <use xlink:href="#DejaVuSans-32" x="95.410156"/>
      </g>
     </g>
    </g>
    <g id="ytick_3">
     <g id="line2d_17">
      <path d="M 30.103125 203.098372 
L 532.303125 203.098372 
" clip-path="url(#p2c23a9a295)" style="fill: none; stroke-dasharray: 0.8,1.32; stroke-dashoffset: 0; stroke: #b0b0b0; stroke-width: 0.8"/>
     </g>
     <g id="line2d_18">
      <g>
       <use xlink:href="#m82efc2affe" x="30.103125" y="203.098372" style="stroke: #000000; stroke-width: 0.8"/>
      </g>
     </g>
     <g id="text_10">
      <!-- 0.4 -->
      <g transform="translate(7.2 206.897591) scale(0.1 -0.1)">
       <use xlink:href="#DejaVuSans-30"/>
       <use xlink:href="#DejaVuSans-2e" x="63.623047"/>
       <use xlink:href="#DejaVuSans-34" x="95.410156"/>
      </g>
     </g>
    </g>
    <g id="ytick_4">
     <g id="line2d_19">
      <path d="M 30.103125 154.888495 
L 532.303125 154.888495 
" clip-path="url(#p2c23a9a295)" style="fill: none; stroke-dasharray: 0.8,1.32; stroke-dashoffset: 0; stroke: #b0b0b0; stroke-width: 0.8"/>
     </g>
     <g id="line2d_20">
      <g>
       <use xlink:href="#m82efc2affe" x="30.103125" y="154.888495" style="stroke: #000000; stroke-width: 0.8"/>
      </g>
     </g>
     <g id="text_11">
      <!-- 0.6 -->
      <g transform="translate(7.2 158.687714) scale(0.1 -0.1)">
       <use xlink:href="#DejaVuSans-30"/>
       <use xlink:href="#DejaVuSans-2e" x="63.623047"/>
       <use xlink:href="#DejaVuSans-36" x="95.410156"/>
      </g>
     </g>
    </g>
    <g id="ytick_5">
     <g id="line2d_21">
      <path d="M 30.103125 106.678619 
L 532.303125 106.678619 
" clip-path="url(#p2c23a9a295)" style="fill: none; stroke-dasharray: 0.8,1.32; stroke-dashoffset: 0; stroke: #b0b0b0; stroke-width: 0.8"/>
     </g>
     <g id="line2d_22">
      <g>
       <use xlink:href="#m82efc2affe" x="30.103125" y="106.678619" style="stroke: #000000; stroke-width: 0.8"/>
      </g>
     </g>
     <g id="text_12">
      <!-- 0.8 -->
      <g transform="translate(7.2 110.477838) scale(0.1 -0.1)">
       <use xlink:href="#DejaVuSans-30"/>
       <use xlink:href="#DejaVuSans-2e" x="63.623047"/>
       <use xlink:href="#DejaVuSans-38" x="95.410156"/>
      </g>
     </g>
    </g>
    <g id="ytick_6">
     <g id="line2d_23">
      <path d="M 30.103125 58.468742 
L 532.303125 58.468742 
" clip-path="url(#p2c23a9a295)" style="fill: none; stroke-dasharray: 0.8,1.32; stroke-dashoffset: 0; stroke: #b0b0b0; stroke-width: 0.8"/>
     </g>
     <g id="line2d_24">
      <g>
       <use xlink:href="#m82efc2affe" x="30.103125" y="58.468742" style="stroke: #000000; stroke-width: 0.8"/>
      </g>
     </g>
     <g id="text_13">
      <!-- 1.0 -->
      <g transform="translate(7.2 62.267961) scale(0.1 -0.1)">
       <use xlink:href="#DejaVuSans-31"/>
       <use xlink:href="#DejaVuSans-2e" x="63.623047"/>
       <use xlink:href="#DejaVuSans-30" x="95.410156"/>
      </g>
     </g>
    </g>
   </g>
   <g id="line2d_25">
    <path d="M 189.477485 297.186916 
L 191.453012 296.312626 
L 193.209035 295.30523 
L 194.855308 294.120465 
L 196.50158 292.658419 
L 198.038101 291.00115 
L 199.574622 289.017995 
L 201.111143 286.664267 
L 202.647664 283.893782 
L 204.184185 280.659956 
L 205.720706 276.917171 
L 207.366978 272.293438 
L 209.01325 266.988864 
L 210.769274 260.536993 
L 212.525298 253.234836 
L 214.391073 244.531091 
L 216.476352 233.67008 
L 218.671382 221.024225 
L 221.195666 205.149836 
L 224.488211 182.91594 
L 231.183052 137.318505 
L 233.487833 123.357388 
L 235.353608 113.361725 
L 236.890129 106.224503 
L 238.316899 100.615463 
L 239.524165 96.710385 
L 240.62168 93.874191 
L 241.609443 91.928947 
L 242.487455 90.697246 
L 243.255716 90.010652 
L 243.914225 89.715707 
L 244.462982 89.677864 
L 245.01174 89.829197 
L 245.670248 90.259898 
L 246.328757 90.960721 
L 247.097018 92.116067 
L 247.97503 93.874191 
L 248.962793 96.395565 
L 250.060308 99.846271 
L 251.267575 104.389046 
L 252.694344 110.690292 
L 254.340616 119.080562 
L 256.206392 129.813025 
L 258.511173 144.441705 
L 261.913469 167.653754 
L 267.510795 205.865367 
L 270.254583 222.995222 
L 272.559364 236.053412 
L 274.644642 246.666406 
L 276.620169 255.609284 
L 278.485945 263.054753 
L 280.241968 269.195091 
L 281.997992 274.533202 
L 283.644265 278.854955 
L 285.290537 282.567291 
L 286.936809 285.725074 
L 288.583082 288.385315 
L 290.229354 290.605114 
L 291.875627 292.439984 
L 293.521899 293.942556 
L 295.277923 295.233969 
L 297.033947 296.256523 
L 299.009473 297.144574 
L 299.119225 297.186916 
L 299.119225 297.186916 
" clip-path="url(#p2c23a9a295)" style="fill: none; stroke-dasharray: 7.4,3.2; stroke-dashoffset: 0; stroke: #0000ff; stroke-width: 2"/>
   </g>
   <g id="line2d_26">
    <path d="M 319.213177 298.007329 
L 322.938882 297.291908 
L 326.156537 296.45003 
L 329.035491 295.475037 
L 331.745094 294.32568 
L 334.285348 293.007881 
L 336.656251 291.53645 
L 339.027154 289.801392 
L 341.398057 287.772504 
L 343.59961 285.599389 
L 345.801163 283.12446 
L 348.002716 280.326807 
L 350.204269 277.188266 
L 352.575172 273.410558 
L 354.946076 269.208797 
L 357.486329 264.23166 
L 360.026582 258.769294 
L 362.736186 252.430785 
L 365.78449 244.722232 
L 369.340845 235.078851 
L 373.913301 221.979732 
L 382.380813 197.615324 
L 385.598467 189.10735 
L 388.13872 182.968647 
L 390.340273 178.172303 
L 392.372476 174.249541 
L 394.235329 171.129566 
L 395.928831 168.722182 
L 397.452983 166.926532 
L 398.807785 165.63851 
L 400.162587 164.649695 
L 401.348038 164.035311 
L 402.53349 163.658478 
L 403.718941 163.521187 
L 404.904393 163.624168 
L 406.089845 163.966874 
L 407.275296 164.547491 
L 408.460748 165.362956 
L 409.81555 166.576923 
L 411.170351 168.083687 
L 412.694503 170.115974 
L 414.388006 172.772321 
L 416.250858 176.146443 
L 418.283061 180.319787 
L 420.484614 185.352919 
L 423.024867 191.716588 
L 426.242522 200.431804 
L 430.814978 213.565596 
L 438.774439 236.492654 
L 442.500144 246.484088 
L 445.548448 254.062997 
L 448.427402 260.643059 
L 451.137005 266.281387 
L 453.677259 271.061944 
L 456.048162 275.080962 
L 458.419065 278.680202 
L 460.789968 281.874511 
L 463.160872 284.684403 
L 465.531775 287.134659 
L 467.902678 289.253011 
L 470.273581 291.06894 
L 472.644484 292.612621 
L 475.184738 293.998494 
L 477.894341 295.210342 
L 480.773295 296.241137 
L 483.821599 297.092777 
L 487.208604 297.805754 
L 488.394056 298.007329 
L 488.394056 298.007329 
" clip-path="url(#p2c23a9a295)" style="fill: none; stroke-dasharray: 7.4,3.2; stroke-dashoffset: 0; stroke: #a52a2a; stroke-width: 2"/>
   </g>
   <g id="line2d_27">
    <path d="M 52.930398 297.051005 
L 54.797095 296.125744 
L 56.456382 295.059616 
L 58.011963 293.805779 
L 59.567544 292.258494 
L 61.01942 290.504606 
L 62.471296 288.405832 
L 63.923171 285.914881 
L 65.375047 282.982875 
L 66.826923 279.560515 
L 68.382504 275.294758 
L 69.938085 270.354893 
L 71.597372 264.287117 
L 73.256658 257.348086 
L 75.01965 248.985882 
L 76.886348 239.009145 
L 78.856751 227.25582 
L 81.034564 212.913905 
L 83.6272 194.289231 
L 87.360594 165.626934 
L 92.027338 130.095223 
L 94.308857 114.4206 
L 96.175554 103.090585 
L 97.731136 94.955384 
L 99.079306 89.019333 
L 100.220066 84.886587 
L 101.25712 81.885041 
L 102.190468 79.826389 
L 103.020112 78.522879 
L 103.74605 77.796257 
L 104.368282 77.484116 
L 104.886809 77.444067 
L 105.405336 77.604222 
L 106.027569 78.060033 
L 106.649801 78.801715 
L 107.375739 80.024419 
L 108.205382 81.885041 
L 109.138731 84.553414 
L 110.175785 88.205298 
L 111.42025 93.48911 
L 112.76842 100.235817 
L 114.324002 109.193624 
L 116.190699 121.332334 
L 118.472218 137.71084 
L 122.101907 165.626934 
L 126.768651 201.160415 
L 129.361286 219.223288 
L 131.642805 233.594352 
L 133.716914 245.242759 
L 135.583611 254.514277 
L 137.346603 262.214113 
L 139.109595 268.91724 
L 140.768882 274.362406 
L 142.324463 278.758681 
L 143.880044 282.525132 
L 145.435625 285.720663 
L 146.991206 288.405832 
L 148.546787 290.640775 
L 150.102369 292.483545 
L 151.65795 293.98885 
L 153.317236 295.279337 
L 155.080228 296.354341 
L 156.532104 297.051005 
L 156.532104 297.051005 
" clip-path="url(#p2c23a9a295)" style="fill: none; stroke-dasharray: 7.4,3.2; stroke-dashoffset: 0; stroke: #008000; stroke-width: 2"/>
   </g>
   <g id="patch_243">
    <path d="M 30.103125 299.518125 
L 30.103125 22.318125 
" style="fill: none; stroke: #000000; stroke-width: 0.8; stroke-linejoin: miter; stroke-linecap: square"/>
   </g>
   <g id="patch_244">
    <path d="M 532.303125 299.518125 
L 532.303125 22.318125 
" style="fill: none; stroke: #000000; stroke-width: 0.8; stroke-linejoin: miter; stroke-linecap: square"/>
   </g>
   <g id="patch_245">
    <path d="M 30.103125 299.518125 
L 532.303125 299.518125 
" style="fill: none; stroke: #000000; stroke-width: 0.8; stroke-linejoin: miter; stroke-linecap: square"/>
   </g>
   <g id="patch_246">
    <path d="M 30.103125 22.318125 
L 532.303125 22.318125 
" style="fill: none; stroke: #000000; stroke-width: 0.8; stroke-linejoin: miter; stroke-linecap: square"/>
   </g>
   <g id="text_14">
    <!-- Central limit theorem, $n=20$ -->
    <g transform="translate(194.203125 16.318125) scale(0.12 -0.12)">
     <defs>
      <path id="DejaVuSans-43" d="M 4122 4306 
L 4122 3641 
Q 3803 3938 3442 4084 
Q 3081 4231 2675 4231 
Q 1875 4231 1450 3742 
Q 1025 3253 1025 2328 
Q 1025 1406 1450 917 
Q 1875 428 2675 428 
Q 3081 428 3442 575 
Q 3803 722 4122 1019 
L 4122 359 
Q 3791 134 3420 21 
Q 3050 -91 2638 -91 
Q 1578 -91 968 557 
Q 359 1206 359 2328 
Q 359 3453 968 4101 
Q 1578 4750 2638 4750 
Q 3056 4750 3426 4639 
Q 3797 4528 4122 4306 
z
" transform="scale(0.015625)"/>
      <path id="DejaVuSans-65" d="M 3597 1894 
L 3597 1613 
L 953 1613 
Q 991 1019 1311 708 
Q 1631 397 2203 397 
Q 2534 397 2845 478 
Q 3156 559 3463 722 
L 3463 178 
Q 3153 47 2828 -22 
Q 2503 -91 2169 -91 
Q 1331 -91 842 396 
Q 353 884 353 1716 
Q 353 2575 817 3079 
Q 1281 3584 2069 3584 
Q 2775 3584 3186 3129 
Q 3597 2675 3597 1894 
z
M 3022 2063 
Q 3016 2534 2758 2815 
Q 2500 3097 2075 3097 
Q 1594 3097 1305 2825 
Q 1016 2553 972 2059 
L 3022 2063 
z
" transform="scale(0.015625)"/>
      <path id="DejaVuSans-6e" d="M 3513 2113 
L 3513 0 
L 2938 0 
L 2938 2094 
Q 2938 2591 2744 2837 
Q 2550 3084 2163 3084 
Q 1697 3084 1428 2787 
Q 1159 2491 1159 1978 
L 1159 0 
L 581 0 
L 581 3500 
L 1159 3500 
L 1159 2956 
Q 1366 3272 1645 3428 
Q 1925 3584 2291 3584 
Q 2894 3584 3203 3211 
Q 3513 2838 3513 2113 
z
" transform="scale(0.015625)"/>
      <path id="DejaVuSans-74" d="M 1172 4494 
L 1172 3500 
L 2356 3500 
L 2356 3053 
L 1172 3053 
L 1172 1153 
Q 1172 725 1289 603 
Q 1406 481 1766 481 
L 2356 481 
L 2356 0 
L 1766 0 
Q 1100 0 847 248 
Q 594 497 594 1153 
L 594 3053 
L 172 3053 
L 172 3500 
L 594 3500 
L 594 4494 
L 1172 4494 
z
" transform="scale(0.015625)"/>
      <path id="DejaVuSans-72" d="M 2631 2963 
Q 2534 3019 2420 3045 
Q 2306 3072 2169 3072 
Q 1681 3072 1420 2755 
Q 1159 2438 1159 1844 
L 1159 0 
L 581 0 
L 581 3500 
L 1159 3500 
L 1159 2956 
Q 1341 3275 1631 3429 
Q 1922 3584 2338 3584 
Q 2397 3584 2469 3576 
Q 2541 3569 2628 3553 
L 2631 2963 
z
" transform="scale(0.015625)"/>
      <path id="DejaVuSans-61" d="M 2194 1759 
Q 1497 1759 1228 1600 
Q 959 1441 959 1056 
Q 959 750 1161 570 
Q 1363 391 1709 391 
Q 2188 391 2477 730 
Q 2766 1069 2766 1631 
L 2766 1759 
L 2194 1759 
z
M 3341 1997 
L 3341 0 
L 2766 0 
L 2766 531 
Q 2569 213 2275 61 
Q 1981 -91 1556 -91 
Q 1019 -91 701 211 
Q 384 513 384 1019 
Q 384 1609 779 1909 
Q 1175 2209 1959 2209 
L 2766 2209 
L 2766 2266 
Q 2766 2663 2505 2880 
Q 2244 3097 1772 3097 
Q 1472 3097 1187 3025 
Q 903 2953 641 2809 
L 641 3341 
Q 956 3463 1253 3523 
Q 1550 3584 1831 3584 
Q 2591 3584 2966 3190 
Q 3341 2797 3341 1997 
z
" transform="scale(0.015625)"/>
      <path id="DejaVuSans-6c" d="M 603 4863 
L 1178 4863 
L 1178 0 
L 603 0 
L 603 4863 
z
" transform="scale(0.015625)"/>
      <path id="DejaVuSans-20" transform="scale(0.015625)"/>
      <path id="DejaVuSans-69" d="M 603 3500 
L 1178 3500 
L 1178 0 
L 603 0 
L 603 3500 
z
M 603 4863 
L 1178 4863 
L 1178 4134 
L 603 4134 
L 603 4863 
z
" transform="scale(0.015625)"/>
      <path id="DejaVuSans-6d" d="M 3328 2828 
Q 3544 3216 3844 3400 
Q 4144 3584 4550 3584 
Q 5097 3584 5394 3201 
Q 5691 2819 5691 2113 
L 5691 0 
L 5113 0 
L 5113 2094 
Q 5113 2597 4934 2840 
Q 4756 3084 4391 3084 
Q 3944 3084 3684 2787 
Q 3425 2491 3425 1978 
L 3425 0 
L 2847 0 
L 2847 2094 
Q 2847 2600 2669 2842 
Q 2491 3084 2119 3084 
Q 1678 3084 1418 2786 
Q 1159 2488 1159 1978 
L 1159 0 
L 581 0 
L 581 3500 
L 1159 3500 
L 1159 2956 
Q 1356 3278 1631 3431 
Q 1906 3584 2284 3584 
Q 2666 3584 2933 3390 
Q 3200 3197 3328 2828 
z
" transform="scale(0.015625)"/>
      <path id="DejaVuSans-68" d="M 3513 2113 
L 3513 0 
L 2938 0 
L 2938 2094 
Q 2938 2591 2744 2837 
Q 2550 3084 2163 3084 
Q 1697 3084 1428 2787 
Q 1159 2491 1159 1978 
L 1159 0 
L 581 0 
L 581 4863 
L 1159 4863 
L 1159 2956 
Q 1366 3272 1645 3428 
Q 1925 3584 2291 3584 
Q 2894 3584 3203 3211 
Q 3513 2838 3513 2113 
z
" transform="scale(0.015625)"/>
      <path id="DejaVuSans-6f" d="M 1959 3097 
Q 1497 3097 1228 2736 
Q 959 2375 959 1747 
Q 959 1119 1226 758 
Q 1494 397 1959 397 
Q 2419 397 2687 759 
Q 2956 1122 2956 1747 
Q 2956 2369 2687 2733 
Q 2419 3097 1959 3097 
z
M 1959 3584 
Q 2709 3584 3137 3096 
Q 3566 2609 3566 1747 
Q 3566 888 3137 398 
Q 2709 -91 1959 -91 
Q 1206 -91 779 398 
Q 353 888 353 1747 
Q 353 2609 779 3096 
Q 1206 3584 1959 3584 
z
" transform="scale(0.015625)"/>
      <path id="DejaVuSans-2c" d="M 750 794 
L 1409 794 
L 1409 256 
L 897 -744 
L 494 -744 
L 750 256 
L 750 794 
z
" transform="scale(0.015625)"/>
      <path id="DejaVuSans-Oblique-6e" d="M 3566 2113 
L 3156 0 
L 2578 0 
L 2988 2091 
Q 3016 2238 3031 2350 
Q 3047 2463 3047 2528 
Q 3047 2791 2881 2937 
Q 2716 3084 2419 3084 
Q 1956 3084 1622 2776 
Q 1288 2469 1184 1941 
L 800 0 
L 225 0 
L 903 3500 
L 1478 3500 
L 1363 2950 
Q 1603 3253 1940 3418 
Q 2278 3584 2650 3584 
Q 3113 3584 3367 3334 
Q 3622 3084 3622 2631 
Q 3622 2519 3608 2391 
Q 3594 2263 3566 2113 
z
" transform="scale(0.015625)"/>
      <path id="DejaVuSans-3d" d="M 678 2906 
L 4684 2906 
L 4684 2381 
L 678 2381 
L 678 2906 
z
M 678 1631 
L 4684 1631 
L 4684 1100 
L 678 1100 
L 678 1631 
z
" transform="scale(0.015625)"/>
     </defs>
     <use xlink:href="#DejaVuSans-43" transform="translate(0 0.015625)"/>
     <use xlink:href="#DejaVuSans-65" transform="translate(69.824219 0.015625)"/>
     <use xlink:href="#DejaVuSans-6e" transform="translate(131.347656 0.015625)"/>
     <use xlink:href="#DejaVuSans-74" transform="translate(194.726562 0.015625)"/>
     <use xlink:href="#DejaVuSans-72" transform="translate(233.935547 0.015625)"/>
     <use xlink:href="#DejaVuSans-61" transform="translate(275.048828 0.015625)"/>
     <use xlink:href="#DejaVuSans-6c" transform="translate(336.328125 0.015625)"/>
     <use xlink:href="#DejaVuSans-20" transform="translate(364.111328 0.015625)"/>
     <use xlink:href="#DejaVuSans-6c" transform="translate(395.898438 0.015625)"/>
     <use xlink:href="#DejaVuSans-69" transform="translate(423.681641 0.015625)"/>
     <use xlink:href="#DejaVuSans-6d" transform="translate(451.464844 0.015625)"/>
     <use xlink:href="#DejaVuSans-69" transform="translate(548.876953 0.015625)"/>
     <use xlink:href="#DejaVuSans-74" transform="translate(576.660156 0.015625)"/>
     <use xlink:href="#DejaVuSans-20" transform="translate(615.869141 0.015625)"/>
     <use xlink:href="#DejaVuSans-74" transform="translate(647.65625 0.015625)"/>
     <use xlink:href="#DejaVuSans-68" transform="translate(686.865234 0.015625)"/>
     <use xlink:href="#DejaVuSans-65" transform="translate(750.244141 0.015625)"/>
     <use xlink:href="#DejaVuSans-6f" transform="translate(811.767578 0.015625)"/>
     <use xlink:href="#DejaVuSans-72" transform="translate(872.949219 0.015625)"/>
     <use xlink:href="#DejaVuSans-65" transform="translate(914.0625 0.015625)"/>
     <use xlink:href="#DejaVuSans-6d" transform="translate(975.585938 0.015625)"/>
     <use xlink:href="#DejaVuSans-2c" transform="translate(1072.998047 0.015625)"/>
     <use xlink:href="#DejaVuSans-20" transform="translate(1104.785156 0.015625)"/>
     <use xlink:href="#DejaVuSans-Oblique-6e" transform="translate(1136.572266 0.015625)"/>
     <use xlink:href="#DejaVuSans-3d" transform="translate(1219.433594 0.015625)"/>
     <use xlink:href="#DejaVuSans-32" transform="translate(1322.705078 0.015625)"/>
     <use xlink:href="#DejaVuSans-30" transform="translate(1386.328125 0.015625)"/>
    </g>
   </g>
   <g id="legend_1">
    <g id="patch_247">
     <path d="M 434.539062 74.3525 
L 525.303125 74.3525 
Q 527.303125 74.3525 527.303125 72.3525 
L 527.303125 29.318125 
Q 527.303125 27.318125 525.303125 27.318125 
L 434.539062 27.318125 
Q 432.539062 27.318125 432.539062 29.318125 
L 432.539062 72.3525 
Q 432.539062 74.3525 434.539062 74.3525 
z
" style="fill: #ffffff; opacity: 0.8; stroke: #cccccc; stroke-linejoin: miter"/>
    </g>
    <g id="patch_248">
     <path d="M 436.539062 38.916562 
L 456.539062 38.916562 
L 456.539062 31.916562 
L 436.539062 31.916562 
z
" style="fill: #ff0000"/>
    </g>
    <g id="text_15">
     <!-- Bin(20, 0.3) -->
     <g transform="translate(464.539062 38.916562) scale(0.1 -0.1)">
      <defs>
       <path id="DejaVuSans-42" d="M 1259 2228 
L 1259 519 
L 2272 519 
Q 2781 519 3026 730 
Q 3272 941 3272 1375 
Q 3272 1813 3026 2020 
Q 2781 2228 2272 2228 
L 1259 2228 
z
M 1259 4147 
L 1259 2741 
L 2194 2741 
Q 2656 2741 2882 2914 
Q 3109 3088 3109 3444 
Q 3109 3797 2882 3972 
Q 2656 4147 2194 4147 
L 1259 4147 
z
M 628 4666 
L 2241 4666 
Q 2963 4666 3353 4366 
Q 3744 4066 3744 3513 
Q 3744 3084 3544 2831 
Q 3344 2578 2956 2516 
Q 3422 2416 3680 2098 
Q 3938 1781 3938 1306 
Q 3938 681 3513 340 
Q 3088 0 2303 0 
L 628 0 
L 628 4666 
z
" transform="scale(0.015625)"/>
       <path id="DejaVuSans-28" d="M 1984 4856 
Q 1566 4138 1362 3434 
Q 1159 2731 1159 2009 
Q 1159 1288 1364 580 
Q 1569 -128 1984 -844 
L 1484 -844 
Q 1016 -109 783 600 
Q 550 1309 550 2009 
Q 550 2706 781 3412 
Q 1013 4119 1484 4856 
L 1984 4856 
z
" transform="scale(0.015625)"/>
       <path id="DejaVuSans-33" d="M 2597 2516 
Q 3050 2419 3304 2112 
Q 3559 1806 3559 1356 
Q 3559 666 3084 287 
Q 2609 -91 1734 -91 
Q 1441 -91 1130 -33 
Q 819 25 488 141 
L 488 750 
Q 750 597 1062 519 
Q 1375 441 1716 441 
Q 2309 441 2620 675 
Q 2931 909 2931 1356 
Q 2931 1769 2642 2001 
Q 2353 2234 1838 2234 
L 1294 2234 
L 1294 2753 
L 1863 2753 
Q 2328 2753 2575 2939 
Q 2822 3125 2822 3475 
Q 2822 3834 2567 4026 
Q 2313 4219 1838 4219 
Q 1578 4219 1281 4162 
Q 984 4106 628 3988 
L 628 4550 
Q 988 4650 1302 4700 
Q 1616 4750 1894 4750 
Q 2613 4750 3031 4423 
Q 3450 4097 3450 3541 
Q 3450 3153 3228 2886 
Q 3006 2619 2597 2516 
z
" transform="scale(0.015625)"/>
       <path id="DejaVuSans-29" d="M 513 4856 
L 1013 4856 
Q 1481 4119 1714 3412 
Q 1947 2706 1947 2009 
Q 1947 1309 1714 600 
Q 1481 -109 1013 -844 
L 513 -844 
Q 928 -128 1133 580 
Q 1338 1288 1338 2009 
Q 1338 2731 1133 3434 
Q 928 4138 513 4856 
z
" transform="scale(0.015625)"/>
      </defs>
      <use xlink:href="#DejaVuSans-42"/>
      <use xlink:href="#DejaVuSans-69" x="68.603516"/>
      <use xlink:href="#DejaVuSans-6e" x="96.386719"/>
      <use xlink:href="#DejaVuSans-28" x="159.765625"/>
      <use xlink:href="#DejaVuSans-32" x="198.779297"/>
      <use xlink:href="#DejaVuSans-30" x="262.402344"/>
      <use xlink:href="#DejaVuSans-2c" x="326.025391"/>
      <use xlink:href="#DejaVuSans-20" x="357.8125"/>
      <use xlink:href="#DejaVuSans-30" x="389.599609"/>
      <use xlink:href="#DejaVuSans-2e" x="453.222656"/>
      <use xlink:href="#DejaVuSans-33" x="485.009766"/>
      <use xlink:href="#DejaVuSans-29" x="548.632812"/>
     </g>
    </g>
    <g id="patch_249">
     <path d="M 436.539062 53.594688 
L 456.539062 53.594688 
L 456.539062 46.594688 
L 436.539062 46.594688 
z
" style="fill: #ffa500"/>
    </g>
    <g id="text_16">
     <!-- Pois(10) -->
     <g transform="translate(464.539062 53.594688) scale(0.1 -0.1)">
      <defs>
       <path id="DejaVuSans-50" d="M 1259 4147 
L 1259 2394 
L 2053 2394 
Q 2494 2394 2734 2622 
Q 2975 2850 2975 3272 
Q 2975 3691 2734 3919 
Q 2494 4147 2053 4147 
L 1259 4147 
z
M 628 4666 
L 2053 4666 
Q 2838 4666 3239 4311 
Q 3641 3956 3641 3272 
Q 3641 2581 3239 2228 
Q 2838 1875 2053 1875 
L 1259 1875 
L 1259 0 
L 628 0 
L 628 4666 
z
" transform="scale(0.015625)"/>
       <path id="DejaVuSans-73" d="M 2834 3397 
L 2834 2853 
Q 2591 2978 2328 3040 
Q 2066 3103 1784 3103 
Q 1356 3103 1142 2972 
Q 928 2841 928 2578 
Q 928 2378 1081 2264 
Q 1234 2150 1697 2047 
L 1894 2003 
Q 2506 1872 2764 1633 
Q 3022 1394 3022 966 
Q 3022 478 2636 193 
Q 2250 -91 1575 -91 
Q 1294 -91 989 -36 
Q 684 19 347 128 
L 347 722 
Q 666 556 975 473 
Q 1284 391 1588 391 
Q 1994 391 2212 530 
Q 2431 669 2431 922 
Q 2431 1156 2273 1281 
Q 2116 1406 1581 1522 
L 1381 1569 
Q 847 1681 609 1914 
Q 372 2147 372 2553 
Q 372 3047 722 3315 
Q 1072 3584 1716 3584 
Q 2034 3584 2315 3537 
Q 2597 3491 2834 3397 
z
" transform="scale(0.015625)"/>
      </defs>
      <use xlink:href="#DejaVuSans-50"/>
      <use xlink:href="#DejaVuSans-6f" x="56.677734"/>
      <use xlink:href="#DejaVuSans-69" x="117.859375"/>
      <use xlink:href="#DejaVuSans-73" x="145.642578"/>
      <use xlink:href="#DejaVuSans-28" x="197.742188"/>
      <use xlink:href="#DejaVuSans-31" x="236.755859"/>
      <use xlink:href="#DejaVuSans-30" x="300.378906"/>
      <use xlink:href="#DejaVuSans-29" x="364.001953"/>
     </g>
    </g>
    <g id="patch_250">
     <path d="M 436.539062 68.272812 
L 456.539062 68.272812 
L 456.539062 61.272812 
L 436.539062 61.272812 
z
" style="fill: #bf00bf"/>
    </g>
    <g id="text_17">
     <!-- Geom(0.4) -->
     <g transform="translate(464.539062 68.272812) scale(0.1 -0.1)">
      <defs>
       <path id="DejaVuSans-47" d="M 3809 666 
L 3809 1919 
L 2778 1919 
L 2778 2438 
L 4434 2438 
L 4434 434 
Q 4069 175 3628 42 
Q 3188 -91 2688 -91 
Q 1594 -91 976 548 
Q 359 1188 359 2328 
Q 359 3472 976 4111 
Q 1594 4750 2688 4750 
Q 3144 4750 3555 4637 
Q 3966 4525 4313 4306 
L 4313 3634 
Q 3963 3931 3569 4081 
Q 3175 4231 2741 4231 
Q 1884 4231 1454 3753 
Q 1025 3275 1025 2328 
Q 1025 1384 1454 906 
Q 1884 428 2741 428 
Q 3075 428 3337 486 
Q 3600 544 3809 666 
z
" transform="scale(0.015625)"/>
      </defs>
      <use xlink:href="#DejaVuSans-47"/>
      <use xlink:href="#DejaVuSans-65" x="77.490234"/>
      <use xlink:href="#DejaVuSans-6f" x="139.013672"/>
      <use xlink:href="#DejaVuSans-6d" x="200.195312"/>
      <use xlink:href="#DejaVuSans-28" x="297.607422"/>
      <use xlink:href="#DejaVuSans-30" x="336.621094"/>
      <use xlink:href="#DejaVuSans-2e" x="400.244141"/>
      <use xlink:href="#DejaVuSans-34" x="432.03125"/>
      <use xlink:href="#DejaVuSans-29" x="495.654297"/>
     </g>
    </g>
   </g>
  </g>
 </g>
 <defs>
  <clipPath id="p2c23a9a295">
   <rect x="30.103125" y="22.318125" width="502.2" height="277.2"/>
  </clipPath>
 </defs>
</svg>