<?xml version="1.0" encoding="utf-8" standalone="no"?>
<!DOCTYPE svg PUBLIC "-//W3C//DTD SVG 1.1//EN"
  "http://www.w3.org/Graphics/SVG/1.1/DTD/svg11.dtd">
<svg xmlns:xlink="http://www.w3.org/1999/xlink" width="539.503125pt" height="337.074375pt" viewBox="0 0 539.503125 337.074375" xmlns="http://www.w3.org/2000/svg" version="1.1">
 <metadata>
  <rdf:RDF xmlns:dc="http://purl.org/dc/elements/1.1/" xmlns:cc="http://creativecommons.org/ns#" xmlns:rdf="http://www.w3.org/1999/02/22-rdf-syntax-ns#">
   <cc:Work>
    <dc:type rdf:resource="http://purl.org/dc/dcmitype/StillImage"/>
    <dc:date>2024-02-20T18:37:35.464928</dc:date>
    <dc:format>image/svg+xml</dc:format>
    <dc:creator>
     <cc:Agent>
      <dc:title>Matplotlib v3.7.1, https://matplotlib.org/</dc:title>
     </cc:Agent>
    </dc:creator>
   </cc:Work>
  </rdf:RDF>
 </metadata>
 <defs>
  <style type="text/css">*{stroke-linejoin: round; stroke-linecap: butt}</style>
 </defs>
 <g id="figure_1">
  <g id="patch_1">
   <path d="M 0 337.074375 
L 539.503125 337.074375 
L 539.503125 0 
L 0 0 
z
" style="fill: #ffffff"/>
  </g>
  <g id="axes_1">
   <g id="patch_2">
    <path d="M 30.103125 299.518125 
L 532.303125 299.518125 
L 532.303125 22.318125 
L 30.103125 22.318125 
z
" style="fill: #ffffff"/>
   </g>
   <g id="patch_3">
    <path d="M 172.842864 299.518125 
L 174.680803 299.518125 
L 174.680803 299.012462 
L 172.842864 299.012462 
z
" clip-path="url(#p5d29e67924)" style="fill: #ff0000"/>
   </g>
   <g id="patch_4">
    <path d="M 174.680803 299.518125 
L 176.518742 299.518125 
L 176.518742 299.518125 
L 174.680803 299.518125 
z
" clip-path="url(#p5d29e67924)" style="fill: #ff0000"/>
   </g>
   <g id="patch_5">
    <path d="M 176.518742 299.518125 
L 178.35668 299.518125 
L 178.35668 298.506799 
L 176.518742 298.506799 
z
" clip-path="url(#p5d29e67924)" style="fill: #ff0000"/>
   </g>
   <g id="patch_6">
    <path d="M 178.35668 299.518125 
L 180.194619 299.518125 
L 180.194619 298.001136 
L 178.35668 298.001136 
z
" clip-path="url(#p5d29e67924)" style="fill: #ff0000"/>
   </g>
   <g id="patch_7">
    <path d="M 180.194619 299.518125 
L 182.032558 299.518125 
L 182.032558 299.012462 
L 180.194619 299.012462 
z
" clip-path="url(#p5d29e67924)" style="fill: #ff0000"/>
   </g>
   <g id="patch_8">
    <path d="M 182.032558 299.518125 
L 183.870497 299.518125 
L 183.870497 299.012462 
L 182.032558 299.012462 
z
" clip-path="url(#p5d29e67924)" style="fill: #ff0000"/>
   </g>
   <g id="patch_9">
    <path d="M 183.870497 299.518125 
L 185.708435 299.518125 
L 185.708435 299.012462 
L 183.870497 299.012462 
z
" clip-path="url(#p5d29e67924)" style="fill: #ff0000"/>
   </g>
   <g id="patch_10">
    <path d="M 185.708435 299.518125 
L 187.546374 299.518125 
L 187.546374 298.001136 
L 185.708435 298.001136 
z
" clip-path="url(#p5d29e67924)" style="fill: #ff0000"/>
   </g>
   <g id="patch_11">
    <path d="M 187.546374 299.518125 
L 189.384313 299.518125 
L 189.384313 298.001136 
L 187.546374 298.001136 
z
" clip-path="url(#p5d29e67924)" style="fill: #ff0000"/>
   </g>
   <g id="patch_12">
    <path d="M 189.384313 299.518125 
L 191.222251 299.518125 
L 191.222251 293.45017 
L 189.384313 293.45017 
z
" clip-path="url(#p5d29e67924)" style="fill: #ff0000"/>
   </g>
   <g id="patch_13">
    <path d="M 191.222251 299.518125 
L 193.06019 299.518125 
L 193.06019 290.416193 
L 191.222251 290.416193 
z
" clip-path="url(#p5d29e67924)" style="fill: #ff0000"/>
   </g>
   <g id="patch_14">
    <path d="M 193.06019 299.518125 
L 194.898129 299.518125 
L 194.898129 289.91053 
L 193.06019 289.91053 
z
" clip-path="url(#p5d29e67924)" style="fill: #ff0000"/>
   </g>
   <g id="patch_15">
    <path d="M 194.898129 299.518125 
L 196.736068 299.518125 
L 196.736068 288.899204 
L 194.898129 288.899204 
z
" clip-path="url(#p5d29e67924)" style="fill: #ff0000"/>
   </g>
   <g id="patch_16">
    <path d="M 196.736068 299.518125 
L 198.574006 299.518125 
L 198.574006 287.382216 
L 196.736068 287.382216 
z
" clip-path="url(#p5d29e67924)" style="fill: #ff0000"/>
   </g>
   <g id="patch_17">
    <path d="M 198.574006 299.518125 
L 200.411945 299.518125 
L 200.411945 282.83125 
L 198.574006 282.83125 
z
" clip-path="url(#p5d29e67924)" style="fill: #ff0000"/>
   </g>
   <g id="patch_18">
    <path d="M 200.411945 299.518125 
L 202.249884 299.518125 
L 202.249884 273.729318 
L 200.411945 273.729318 
z
" clip-path="url(#p5d29e67924)" style="fill: #ff0000"/>
   </g>
   <g id="patch_19">
    <path d="M 202.249884 299.518125 
L 204.087823 299.518125 
L 204.087823 270.189677 
L 202.249884 270.189677 
z
" clip-path="url(#p5d29e67924)" style="fill: #ff0000"/>
   </g>
   <g id="patch_20">
    <path d="M 204.087823 299.518125 
L 205.925761 299.518125 
L 205.925761 262.099071 
L 204.087823 262.099071 
z
" clip-path="url(#p5d29e67924)" style="fill: #ff0000"/>
   </g>
   <g id="patch_21">
    <path d="M 205.925761 299.518125 
L 207.7637 299.518125 
L 207.7637 248.446173 
L 205.925761 248.446173 
z
" clip-path="url(#p5d29e67924)" style="fill: #ff0000"/>
   </g>
   <g id="patch_22">
    <path d="M 207.7637 299.518125 
L 209.601639 299.518125 
L 209.601639 299.518125 
L 207.7637 299.518125 
z
" clip-path="url(#p5d29e67924)" style="fill: #ff0000"/>
   </g>
   <g id="patch_23">
    <path d="M 209.601639 299.518125 
L 211.439577 299.518125 
L 211.439577 243.389544 
L 209.601639 243.389544 
z
" clip-path="url(#p5d29e67924)" style="fill: #ff0000"/>
   </g>
   <g id="patch_24">
    <path d="M 211.439577 299.518125 
L 213.277516 299.518125 
L 213.277516 221.140377 
L 211.439577 221.140377 
z
" clip-path="url(#p5d29e67924)" style="fill: #ff0000"/>
   </g>
   <g id="patch_25">
    <path d="M 213.277516 299.518125 
L 215.115455 299.518125 
L 215.115455 205.464827 
L 213.277516 205.464827 
z
" clip-path="url(#p5d29e67924)" style="fill: #ff0000"/>
   </g>
   <g id="patch_26">
    <path d="M 215.115455 299.518125 
L 216.953394 299.518125 
L 216.953394 202.43085 
L 215.115455 202.43085 
z
" clip-path="url(#p5d29e67924)" style="fill: #ff0000"/>
   </g>
   <g id="patch_27">
    <path d="M 216.953394 299.518125 
L 218.791332 299.518125 
L 218.791332 196.868558 
L 216.953394 196.868558 
z
" clip-path="url(#p5d29e67924)" style="fill: #ff0000"/>
   </g>
   <g id="patch_28">
    <path d="M 218.791332 299.518125 
L 220.629271 299.518125 
L 220.629271 167.034447 
L 218.791332 167.034447 
z
" clip-path="url(#p5d29e67924)" style="fill: #ff0000"/>
   </g>
   <g id="patch_29">
    <path d="M 220.629271 299.518125 
L 222.46721 299.518125 
L 222.46721 131.638045 
L 220.629271 131.638045 
z
" clip-path="url(#p5d29e67924)" style="fill: #ff0000"/>
   </g>
   <g id="patch_30">
    <path d="M 222.46721 299.518125 
L 224.305149 299.518125 
L 224.305149 151.358898 
L 222.46721 151.358898 
z
" clip-path="url(#p5d29e67924)" style="fill: #ff0000"/>
   </g>
   <g id="patch_31">
    <path d="M 224.305149 299.518125 
L 226.143087 299.518125 
L 226.143087 115.456833 
L 224.305149 115.456833 
z
" clip-path="url(#p5d29e67924)" style="fill: #ff0000"/>
   </g>
   <g id="patch_32">
    <path d="M 226.143087 299.518125 
L 227.981026 299.518125 
L 227.981026 127.592742 
L 226.143087 127.592742 
z
" clip-path="url(#p5d29e67924)" style="fill: #ff0000"/>
   </g>
   <g id="patch_33">
    <path d="M 227.981026 299.518125 
L 229.818965 299.518125 
L 229.818965 105.849238 
L 227.981026 105.849238 
z
" clip-path="url(#p5d29e67924)" style="fill: #ff0000"/>
   </g>
   <g id="patch_34">
    <path d="M 229.818965 299.518125 
L 231.656903 299.518125 
L 231.656903 95.73598 
L 229.818965 95.73598 
z
" clip-path="url(#p5d29e67924)" style="fill: #ff0000"/>
   </g>
   <g id="patch_35">
    <path d="M 231.656903 299.518125 
L 233.494842 299.518125 
L 233.494842 86.128385 
L 231.656903 86.128385 
z
" clip-path="url(#p5d29e67924)" style="fill: #ff0000"/>
   </g>
   <g id="patch_36">
    <path d="M 233.494842 299.518125 
L 235.332781 299.518125 
L 235.332781 69.441509 
L 233.494842 69.441509 
z
" clip-path="url(#p5d29e67924)" style="fill: #ff0000"/>
   </g>
   <g id="patch_37">
    <path d="M 235.332781 299.518125 
L 237.17072 299.518125 
L 237.17072 86.128385 
L 235.332781 86.128385 
z
" clip-path="url(#p5d29e67924)" style="fill: #ff0000"/>
   </g>
   <g id="patch_38">
    <path d="M 237.17072 299.518125 
L 239.008658 299.518125 
L 239.008658 97.252968 
L 237.17072 97.252968 
z
" clip-path="url(#p5d29e67924)" style="fill: #ff0000"/>
   </g>
   <g id="patch_39">
    <path d="M 239.008658 299.518125 
L 240.846597 299.518125 
L 240.846597 103.320923 
L 239.008658 103.320923 
z
" clip-path="url(#p5d29e67924)" style="fill: #ff0000"/>
   </g>
   <g id="patch_40">
    <path d="M 240.846597 299.518125 
L 242.684536 299.518125 
L 242.684536 88.151036 
L 240.846597 88.151036 
z
" clip-path="url(#p5d29e67924)" style="fill: #ff0000"/>
   </g>
   <g id="patch_41">
    <path d="M 242.684536 299.518125 
L 244.522475 299.518125 
L 244.522475 95.73598 
L 242.684536 95.73598 
z
" clip-path="url(#p5d29e67924)" style="fill: #ff0000"/>
   </g>
   <g id="patch_42">
    <path d="M 244.522475 299.518125 
L 246.360413 299.518125 
L 246.360413 299.518125 
L 244.522475 299.518125 
z
" clip-path="url(#p5d29e67924)" style="fill: #ff0000"/>
   </g>
   <g id="patch_43">
    <path d="M 246.360413 299.518125 
L 248.198352 299.518125 
L 248.198352 97.758631 
L 246.360413 97.758631 
z
" clip-path="url(#p5d29e67924)" style="fill: #ff0000"/>
   </g>
   <g id="patch_44">
    <path d="M 248.198352 299.518125 
L 250.036291 299.518125 
L 250.036291 107.366226 
L 248.198352 107.366226 
z
" clip-path="url(#p5d29e67924)" style="fill: #ff0000"/>
   </g>
   <g id="patch_45">
    <path d="M 250.036291 299.518125 
L 251.874229 299.518125 
L 251.874229 130.626719 
L 250.036291 130.626719 
z
" clip-path="url(#p5d29e67924)" style="fill: #ff0000"/>
   </g>
   <g id="patch_46">
    <path d="M 251.874229 299.518125 
L 253.712168 299.518125 
L 253.712168 125.57009 
L 251.874229 125.57009 
z
" clip-path="url(#p5d29e67924)" style="fill: #ff0000"/>
   </g>
   <g id="patch_47">
    <path d="M 253.712168 299.518125 
L 255.550107 299.518125 
L 255.550107 170.068425 
L 253.712168 170.068425 
z
" clip-path="url(#p5d29e67924)" style="fill: #ff0000"/>
   </g>
   <g id="patch_48">
    <path d="M 255.550107 299.518125 
L 257.388046 299.518125 
L 257.388046 168.551436 
L 255.550107 168.551436 
z
" clip-path="url(#p5d29e67924)" style="fill: #ff0000"/>
   </g>
   <g id="patch_49">
    <path d="M 257.388046 299.518125 
L 259.225984 299.518125 
L 259.225984 175.630717 
L 257.388046 175.630717 
z
" clip-path="url(#p5d29e67924)" style="fill: #ff0000"/>
   </g>
   <g id="patch_50">
    <path d="M 259.225984 299.518125 
L 261.063923 299.518125 
L 261.063923 205.464827 
L 259.225984 205.464827 
z
" clip-path="url(#p5d29e67924)" style="fill: #ff0000"/>
   </g>
   <g id="patch_51">
    <path d="M 261.063923 299.518125 
L 262.901862 299.518125 
L 262.901862 205.464827 
L 261.063923 205.464827 
z
" clip-path="url(#p5d29e67924)" style="fill: #ff0000"/>
   </g>
   <g id="patch_52">
    <path d="M 262.901862 299.518125 
L 264.739801 299.518125 
L 264.739801 221.140377 
L 262.901862 221.140377 
z
" clip-path="url(#p5d29e67924)" style="fill: #ff0000"/>
   </g>
   <g id="patch_53">
    <path d="M 264.739801 299.518125 
L 266.577739 299.518125 
L 266.577739 240.355567 
L 264.739801 240.355567 
z
" clip-path="url(#p5d29e67924)" style="fill: #ff0000"/>
   </g>
   <g id="patch_54">
    <path d="M 266.577739 299.518125 
L 268.415678 299.518125 
L 268.415678 233.781949 
L 266.577739 233.781949 
z
" clip-path="url(#p5d29e67924)" style="fill: #ff0000"/>
   </g>
   <g id="patch_55">
    <path d="M 268.415678 299.518125 
L 270.253617 299.518125 
L 270.253617 254.514128 
L 268.415678 254.514128 
z
" clip-path="url(#p5d29e67924)" style="fill: #ff0000"/>
   </g>
   <g id="patch_56">
    <path d="M 270.253617 299.518125 
L 272.091555 299.518125 
L 272.091555 263.110397 
L 270.253617 263.110397 
z
" clip-path="url(#p5d29e67924)" style="fill: #ff0000"/>
   </g>
   <g id="patch_57">
    <path d="M 272.091555 299.518125 
L 273.929494 299.518125 
L 273.929494 273.729318 
L 272.091555 273.729318 
z
" clip-path="url(#p5d29e67924)" style="fill: #ff0000"/>
   </g>
   <g id="patch_58">
    <path d="M 273.929494 299.518125 
L 275.767433 299.518125 
L 275.767433 276.763295 
L 273.929494 276.763295 
z
" clip-path="url(#p5d29e67924)" style="fill: #ff0000"/>
   </g>
   <g id="patch_59">
    <path d="M 275.767433 299.518125 
L 277.605372 299.518125 
L 277.605372 275.751969 
L 275.767433 275.751969 
z
" clip-path="url(#p5d29e67924)" style="fill: #ff0000"/>
   </g>
   <g id="patch_60">
    <path d="M 277.605372 299.518125 
L 279.44331 299.518125 
L 279.44331 283.842575 
L 277.605372 283.842575 
z
" clip-path="url(#p5d29e67924)" style="fill: #ff0000"/>
   </g>
   <g id="patch_61">
    <path d="M 279.44331 299.518125 
L 281.281249 299.518125 
L 281.281249 284.348238 
L 279.44331 284.348238 
z
" clip-path="url(#p5d29e67924)" style="fill: #ff0000"/>
   </g>
   <g id="patch_62">
    <path d="M 281.281249 299.518125 
L 283.119188 299.518125 
L 283.119188 299.518125 
L 281.281249 299.518125 
z
" clip-path="url(#p5d29e67924)" style="fill: #ff0000"/>
   </g>
   <g id="patch_63">
    <path d="M 283.119188 299.518125 
L 284.957127 299.518125 
L 284.957127 284.853901 
L 283.119188 284.853901 
z
" clip-path="url(#p5d29e67924)" style="fill: #ff0000"/>
   </g>
   <g id="patch_64">
    <path d="M 284.957127 299.518125 
L 286.795065 299.518125 
L 286.795065 291.933182 
L 284.957127 291.933182 
z
" clip-path="url(#p5d29e67924)" style="fill: #ff0000"/>
   </g>
   <g id="patch_65">
    <path d="M 286.795065 299.518125 
L 288.633004 299.518125 
L 288.633004 291.933182 
L 286.795065 291.933182 
z
" clip-path="url(#p5d29e67924)" style="fill: #ff0000"/>
   </g>
   <g id="patch_66">
    <path d="M 288.633004 299.518125 
L 290.470943 299.518125 
L 290.470943 296.989811 
L 288.633004 296.989811 
z
" clip-path="url(#p5d29e67924)" style="fill: #ff0000"/>
   </g>
   <g id="patch_67">
    <path d="M 290.470943 299.518125 
L 292.308881 299.518125 
L 292.308881 296.484148 
L 290.470943 296.484148 
z
" clip-path="url(#p5d29e67924)" style="fill: #ff0000"/>
   </g>
   <g id="patch_68">
    <path d="M 292.308881 299.518125 
L 294.14682 299.518125 
L 294.14682 298.001136 
L 292.308881 298.001136 
z
" clip-path="url(#p5d29e67924)" style="fill: #ff0000"/>
   </g>
   <g id="patch_69">
    <path d="M 294.14682 299.518125 
L 295.984759 299.518125 
L 295.984759 296.989811 
L 294.14682 296.989811 
z
" clip-path="url(#p5d29e67924)" style="fill: #ff0000"/>
   </g>
   <g id="patch_70">
    <path d="M 295.984759 299.518125 
L 297.822698 299.518125 
L 297.822698 298.001136 
L 295.984759 298.001136 
z
" clip-path="url(#p5d29e67924)" style="fill: #ff0000"/>
   </g>
   <g id="patch_71">
    <path d="M 297.822698 299.518125 
L 299.660636 299.518125 
L 299.660636 299.518125 
L 297.822698 299.518125 
z
" clip-path="url(#p5d29e67924)" style="fill: #ff0000"/>
   </g>
   <g id="patch_72">
    <path d="M 299.660636 299.518125 
L 301.498575 299.518125 
L 301.498575 299.518125 
L 299.660636 299.518125 
z
" clip-path="url(#p5d29e67924)" style="fill: #ff0000"/>
   </g>
   <g id="patch_73">
    <path d="M 301.498575 299.518125 
L 303.336514 299.518125 
L 303.336514 298.506799 
L 301.498575 298.506799 
z
" clip-path="url(#p5d29e67924)" style="fill: #ff0000"/>
   </g>
   <g id="patch_74">
    <path d="M 303.336514 299.518125 
L 305.174453 299.518125 
L 305.174453 299.518125 
L 303.336514 299.518125 
z
" clip-path="url(#p5d29e67924)" style="fill: #ff0000"/>
   </g>
   <g id="patch_75">
    <path d="M 305.174453 299.518125 
L 307.012391 299.518125 
L 307.012391 299.012462 
L 305.174453 299.012462 
z
" clip-path="url(#p5d29e67924)" style="fill: #ff0000"/>
   </g>
   <g id="patch_76">
    <path d="M 307.012391 299.518125 
L 308.85033 299.518125 
L 308.85033 299.012462 
L 307.012391 299.012462 
z
" clip-path="url(#p5d29e67924)" style="fill: #ff0000"/>
   </g>
   <g id="patch_77">
    <path d="M 308.85033 299.518125 
L 310.688269 299.518125 
L 310.688269 299.518125 
L 308.85033 299.518125 
z
" clip-path="url(#p5d29e67924)" style="fill: #ff0000"/>
   </g>
   <g id="patch_78">
    <path d="M 310.688269 299.518125 
L 312.526207 299.518125 
L 312.526207 299.518125 
L 310.688269 299.518125 
z
" clip-path="url(#p5d29e67924)" style="fill: #ff0000"/>
   </g>
   <g id="patch_79">
    <path d="M 312.526207 299.518125 
L 314.364146 299.518125 
L 314.364146 299.518125 
L 312.526207 299.518125 
z
" clip-path="url(#p5d29e67924)" style="fill: #ff0000"/>
   </g>
   <g id="patch_80">
    <path d="M 314.364146 299.518125 
L 316.202085 299.518125 
L 316.202085 299.518125 
L 314.364146 299.518125 
z
" clip-path="url(#p5d29e67924)" style="fill: #ff0000"/>
   </g>
   <g id="patch_81">
    <path d="M 316.202085 299.518125 
L 318.040024 299.518125 
L 318.040024 299.518125 
L 316.202085 299.518125 
z
" clip-path="url(#p5d29e67924)" style="fill: #ff0000"/>
   </g>
   <g id="patch_82">
    <path d="M 318.040024 299.518125 
L 319.877962 299.518125 
L 319.877962 299.012462 
L 318.040024 299.012462 
z
" clip-path="url(#p5d29e67924)" style="fill: #ff0000"/>
   </g>
   <g id="patch_83">
    <path d="M 271.511154 299.518125 
L 274.485713 299.518125 
L 274.485713 299.205683 
L 271.511154 299.205683 
z
" clip-path="url(#p5d29e67924)" style="fill: #ffa500"/>
   </g>
   <g id="patch_84">
    <path d="M 274.485713 299.518125 
L 277.460271 299.518125 
L 277.460271 299.518125 
L 274.485713 299.518125 
z
" clip-path="url(#p5d29e67924)" style="fill: #ffa500"/>
   </g>
   <g id="patch_85">
    <path d="M 277.460271 299.518125 
L 280.43483 299.518125 
L 280.43483 299.518125 
L 277.460271 299.518125 
z
" clip-path="url(#p5d29e67924)" style="fill: #ffa500"/>
   </g>
   <g id="patch_86">
    <path d="M 280.43483 299.518125 
L 283.409389 299.518125 
L 283.409389 299.518125 
L 280.43483 299.518125 
z
" clip-path="url(#p5d29e67924)" style="fill: #ffa500"/>
   </g>
   <g id="patch_87">
    <path d="M 283.409389 299.518125 
L 286.383947 299.518125 
L 286.383947 299.518125 
L 283.409389 299.518125 
z
" clip-path="url(#p5d29e67924)" style="fill: #ffa500"/>
   </g>
   <g id="patch_88">
    <path d="M 286.383947 299.518125 
L 289.358506 299.518125 
L 289.358506 299.518125 
L 286.383947 299.518125 
z
" clip-path="url(#p5d29e67924)" style="fill: #ffa500"/>
   </g>
   <g id="patch_89">
    <path d="M 289.358506 299.518125 
L 292.333065 299.518125 
L 292.333065 299.518125 
L 289.358506 299.518125 
z
" clip-path="url(#p5d29e67924)" style="fill: #ffa500"/>
   </g>
   <g id="patch_90">
    <path d="M 292.333065 299.518125 
L 295.307624 299.518125 
L 295.307624 299.205683 
L 292.333065 299.205683 
z
" clip-path="url(#p5d29e67924)" style="fill: #ffa500"/>
   </g>
   <g id="patch_91">
    <path d="M 295.307624 299.518125 
L 298.282182 299.518125 
L 298.282182 299.205683 
L 295.307624 299.205683 
z
" clip-path="url(#p5d29e67924)" style="fill: #ffa500"/>
   </g>
   <g id="patch_92">
    <path d="M 298.282182 299.518125 
L 301.256741 299.518125 
L 301.256741 299.518125 
L 298.282182 299.518125 
z
" clip-path="url(#p5d29e67924)" style="fill: #ffa500"/>
   </g>
   <g id="patch_93">
    <path d="M 301.256741 299.518125 
L 304.2313 299.518125 
L 304.2313 299.205683 
L 301.256741 299.205683 
z
" clip-path="url(#p5d29e67924)" style="fill: #ffa500"/>
   </g>
   <g id="patch_94">
    <path d="M 304.2313 299.518125 
L 307.205859 299.518125 
L 307.205859 298.893241 
L 304.2313 298.893241 
z
" clip-path="url(#p5d29e67924)" style="fill: #ffa500"/>
   </g>
   <g id="patch_95">
    <path d="M 307.205859 299.518125 
L 310.180417 299.518125 
L 310.180417 299.205683 
L 307.205859 299.205683 
z
" clip-path="url(#p5d29e67924)" style="fill: #ffa500"/>
   </g>
   <g id="patch_96">
    <path d="M 310.180417 299.518125 
L 313.154976 299.518125 
L 313.154976 299.205683 
L 310.180417 299.205683 
z
" clip-path="url(#p5d29e67924)" style="fill: #ffa500"/>
   </g>
   <g id="patch_97">
    <path d="M 313.154976 299.518125 
L 316.129535 299.518125 
L 316.129535 296.706146 
L 313.154976 296.706146 
z
" clip-path="url(#p5d29e67924)" style="fill: #ffa500"/>
   </g>
   <g id="patch_98">
    <path d="M 316.129535 299.518125 
L 319.104093 299.518125 
L 319.104093 299.205683 
L 316.129535 299.205683 
z
" clip-path="url(#p5d29e67924)" style="fill: #ffa500"/>
   </g>
   <g id="patch_99">
    <path d="M 319.104093 299.518125 
L 322.078652 299.518125 
L 322.078652 292.019514 
L 319.104093 292.019514 
z
" clip-path="url(#p5d29e67924)" style="fill: #ffa500"/>
   </g>
   <g id="patch_100">
    <path d="M 322.078652 299.518125 
L 325.053211 299.518125 
L 325.053211 297.018588 
L 322.078652 297.018588 
z
" clip-path="url(#p5d29e67924)" style="fill: #ffa500"/>
   </g>
   <g id="patch_101">
    <path d="M 325.053211 299.518125 
L 328.02777 299.518125 
L 328.02777 291.082188 
L 325.053211 291.082188 
z
" clip-path="url(#p5d29e67924)" style="fill: #ffa500"/>
   </g>
   <g id="patch_102">
    <path d="M 328.02777 299.518125 
L 331.002328 299.518125 
L 331.002328 293.894167 
L 328.02777 293.894167 
z
" clip-path="url(#p5d29e67924)" style="fill: #ffa500"/>
   </g>
   <g id="patch_103">
    <path d="M 331.002328 299.518125 
L 333.976887 299.518125 
L 333.976887 285.145788 
L 331.002328 285.145788 
z
" clip-path="url(#p5d29e67924)" style="fill: #ffa500"/>
   </g>
   <g id="patch_104">
    <path d="M 333.976887 299.518125 
L 336.951446 299.518125 
L 336.951446 292.644399 
L 333.976887 292.644399 
z
" clip-path="url(#p5d29e67924)" style="fill: #ffa500"/>
   </g>
   <g id="patch_105">
    <path d="M 336.951446 299.518125 
L 339.926005 299.518125 
L 339.926005 278.272061 
L 336.951446 278.272061 
z
" clip-path="url(#p5d29e67924)" style="fill: #ffa500"/>
   </g>
   <g id="patch_106">
    <path d="M 339.926005 299.518125 
L 342.900563 299.518125 
L 342.900563 283.271135 
L 339.926005 283.271135 
z
" clip-path="url(#p5d29e67924)" style="fill: #ffa500"/>
   </g>
   <g id="patch_107">
    <path d="M 342.900563 299.518125 
L 345.875122 299.518125 
L 345.875122 263.587282 
L 342.900563 263.587282 
z
" clip-path="url(#p5d29e67924)" style="fill: #ffa500"/>
   </g>
   <g id="patch_108">
    <path d="M 345.875122 299.518125 
L 348.849681 299.518125 
L 348.849681 277.959619 
L 345.875122 277.959619 
z
" clip-path="url(#p5d29e67924)" style="fill: #ffa500"/>
   </g>
   <g id="patch_109">
    <path d="M 348.849681 299.518125 
L 351.82424 299.518125 
L 351.82424 248.902503 
L 348.849681 248.902503 
z
" clip-path="url(#p5d29e67924)" style="fill: #ffa500"/>
   </g>
   <g id="patch_110">
    <path d="M 351.82424 299.518125 
L 354.798798 299.518125 
L 354.798798 233.592839 
L 351.82424 233.592839 
z
" clip-path="url(#p5d29e67924)" style="fill: #ffa500"/>
   </g>
   <g id="patch_111">
    <path d="M 354.798798 299.518125 
L 357.773357 299.518125 
L 357.773357 259.837977 
L 354.798798 259.837977 
z
" clip-path="url(#p5d29e67924)" style="fill: #ffa500"/>
   </g>
   <g id="patch_112">
    <path d="M 357.773357 299.518125 
L 360.747916 299.518125 
L 360.747916 208.59747 
L 357.773357 208.59747 
z
" clip-path="url(#p5d29e67924)" style="fill: #ffa500"/>
   </g>
   <g id="patch_113">
    <path d="M 360.747916 299.518125 
L 363.722474 299.518125 
L 363.722474 248.590061 
L 360.747916 248.590061 
z
" clip-path="url(#p5d29e67924)" style="fill: #ffa500"/>
   </g>
   <g id="patch_114">
    <path d="M 363.722474 299.518125 
L 366.697033 299.518125 
L 366.697033 193.600249 
L 363.722474 193.600249 
z
" clip-path="url(#p5d29e67924)" style="fill: #ffa500"/>
   </g>
   <g id="patch_115">
    <path d="M 366.697033 299.518125 
L 369.671592 299.518125 
L 369.671592 243.278545 
L 366.697033 243.278545 
z
" clip-path="url(#p5d29e67924)" style="fill: #ffa500"/>
   </g>
   <g id="patch_116">
    <path d="M 369.671592 299.518125 
L 372.646151 299.518125 
L 372.646151 175.166165 
L 369.671592 175.166165 
z
" clip-path="url(#p5d29e67924)" style="fill: #ffa500"/>
   </g>
   <g id="patch_117">
    <path d="M 372.646151 299.518125 
L 375.620709 299.518125 
L 375.620709 233.905282 
L 372.646151 233.905282 
z
" clip-path="url(#p5d29e67924)" style="fill: #ffa500"/>
   </g>
   <g id="patch_118">
    <path d="M 375.620709 299.518125 
L 378.595268 299.518125 
L 378.595268 151.733006 
L 375.620709 151.733006 
z
" clip-path="url(#p5d29e67924)" style="fill: #ffa500"/>
   </g>
   <g id="patch_119">
    <path d="M 378.595268 299.518125 
L 381.569827 299.518125 
L 381.569827 215.471197 
L 378.595268 215.471197 
z
" clip-path="url(#p5d29e67924)" style="fill: #ffa500"/>
   </g>
   <g id="patch_120">
    <path d="M 381.569827 299.518125 
L 384.544386 299.518125 
L 384.544386 128.924732 
L 381.569827 128.924732 
z
" clip-path="url(#p5d29e67924)" style="fill: #ffa500"/>
   </g>
   <g id="patch_121">
    <path d="M 384.544386 299.518125 
L 387.518944 299.518125 
L 387.518944 219.845387 
L 384.544386 219.845387 
z
" clip-path="url(#p5d29e67924)" style="fill: #ffa500"/>
   </g>
   <g id="patch_122">
    <path d="M 387.518944 299.518125 
L 390.493503 299.518125 
L 390.493503 120.801237 
L 387.518944 120.801237 
z
" clip-path="url(#p5d29e67924)" style="fill: #ffa500"/>
   </g>
   <g id="patch_123">
    <path d="M 390.493503 299.518125 
L 393.468062 299.518125 
L 393.468062 125.175427 
L 390.493503 125.175427 
z
" clip-path="url(#p5d29e67924)" style="fill: #ffa500"/>
   </g>
   <g id="patch_124">
    <path d="M 393.468062 299.518125 
L 396.44262 299.518125 
L 396.44262 203.910839 
L 393.468062 203.910839 
z
" clip-path="url(#p5d29e67924)" style="fill: #ffa500"/>
   </g>
   <g id="patch_125">
    <path d="M 396.44262 299.518125 
L 399.417179 299.518125 
L 399.417179 141.734859 
L 396.44262 141.734859 
z
" clip-path="url(#p5d29e67924)" style="fill: #ffa500"/>
   </g>
   <g id="patch_126">
    <path d="M 399.417179 299.518125 
L 402.391738 299.518125 
L 402.391738 214.533871 
L 399.417179 214.533871 
z
" clip-path="url(#p5d29e67924)" style="fill: #ffa500"/>
   </g>
   <g id="patch_127">
    <path d="M 402.391738 299.518125 
L 405.366297 299.518125 
L 405.366297 133.923806 
L 402.391738 133.923806 
z
" clip-path="url(#p5d29e67924)" style="fill: #ffa500"/>
   </g>
   <g id="patch_128">
    <path d="M 405.366297 299.518125 
L 408.340855 299.518125 
L 408.340855 221.095155 
L 405.366297 221.095155 
z
" clip-path="url(#p5d29e67924)" style="fill: #ffa500"/>
   </g>
   <g id="patch_129">
    <path d="M 408.340855 299.518125 
L 411.315414 299.518125 
L 411.315414 154.857427 
L 408.340855 154.857427 
z
" clip-path="url(#p5d29e67924)" style="fill: #ffa500"/>
   </g>
   <g id="patch_130">
    <path d="M 411.315414 299.518125 
L 414.289973 299.518125 
L 414.289973 239.52924 
L 411.315414 239.52924 
z
" clip-path="url(#p5d29e67924)" style="fill: #ffa500"/>
   </g>
   <g id="patch_131">
    <path d="M 414.289973 299.518125 
L 417.264532 299.518125 
L 417.264532 173.603954 
L 414.289973 173.603954 
z
" clip-path="url(#p5d29e67924)" style="fill: #ffa500"/>
   </g>
   <g id="patch_132">
    <path d="M 417.264532 299.518125 
L 420.23909 299.518125 
L 420.23909 245.46564 
L 417.264532 245.46564 
z
" clip-path="url(#p5d29e67924)" style="fill: #ffa500"/>
   </g>
   <g id="patch_133">
    <path d="M 420.23909 299.518125 
L 423.213649 299.518125 
L 423.213649 195.787344 
L 420.23909 195.787344 
z
" clip-path="url(#p5d29e67924)" style="fill: #ffa500"/>
   </g>
   <g id="patch_134">
    <path d="M 423.213649 299.518125 
L 426.188208 299.518125 
L 426.188208 251.714482 
L 423.213649 251.714482 
z
" clip-path="url(#p5d29e67924)" style="fill: #ffa500"/>
   </g>
   <g id="patch_135">
    <path d="M 426.188208 299.518125 
L 429.162767 299.518125 
L 429.162767 227.968881 
L 426.188208 227.968881 
z
" clip-path="url(#p5d29e67924)" style="fill: #ffa500"/>
   </g>
   <g id="patch_136">
    <path d="M 429.162767 299.518125 
L 432.137325 299.518125 
L 432.137325 235.15505 
L 429.162767 235.15505 
z
" clip-path="url(#p5d29e67924)" style="fill: #ffa500"/>
   </g>
   <g id="patch_137">
    <path d="M 432.137325 299.518125 
L 435.111884 299.518125 
L 435.111884 268.586356 
L 432.137325 268.586356 
z
" clip-path="url(#p5d29e67924)" style="fill: #ffa500"/>
   </g>
   <g id="patch_138">
    <path d="M 435.111884 299.518125 
L 438.086443 299.518125 
L 438.086443 251.089598 
L 435.111884 251.089598 
z
" clip-path="url(#p5d29e67924)" style="fill: #ffa500"/>
   </g>
   <g id="patch_139">
    <path d="M 438.086443 299.518125 
L 441.061001 299.518125 
L 441.061001 284.208462 
L 438.086443 284.208462 
z
" clip-path="url(#p5d29e67924)" style="fill: #ffa500"/>
   </g>
   <g id="patch_140">
    <path d="M 441.061001 299.518125 
L 444.03556 299.518125 
L 444.03556 264.212166 
L 441.061001 264.212166 
z
" clip-path="url(#p5d29e67924)" style="fill: #ffa500"/>
   </g>
   <g id="patch_141">
    <path d="M 444.03556 299.518125 
L 447.010119 299.518125 
L 447.010119 282.646251 
L 444.03556 282.646251 
z
" clip-path="url(#p5d29e67924)" style="fill: #ffa500"/>
   </g>
   <g id="patch_142">
    <path d="M 447.010119 299.518125 
L 449.984678 299.518125 
L 449.984678 273.272988 
L 447.010119 273.272988 
z
" clip-path="url(#p5d29e67924)" style="fill: #ffa500"/>
   </g>
   <g id="patch_143">
    <path d="M 449.984678 299.518125 
L 452.959236 299.518125 
L 452.959236 291.082188 
L 449.984678 291.082188 
z
" clip-path="url(#p5d29e67924)" style="fill: #ffa500"/>
   </g>
   <g id="patch_144">
    <path d="M 452.959236 299.518125 
L 455.933795 299.518125 
L 455.933795 284.520904 
L 452.959236 284.520904 
z
" clip-path="url(#p5d29e67924)" style="fill: #ffa500"/>
   </g>
   <g id="patch_145">
    <path d="M 455.933795 299.518125 
L 458.908354 299.518125 
L 458.908354 291.39463 
L 455.933795 291.39463 
z
" clip-path="url(#p5d29e67924)" style="fill: #ffa500"/>
   </g>
   <g id="patch_146">
    <path d="M 458.908354 299.518125 
L 461.882913 299.518125 
L 461.882913 290.769746 
L 458.908354 290.769746 
z
" clip-path="url(#p5d29e67924)" style="fill: #ffa500"/>
   </g>
   <g id="patch_147">
    <path d="M 461.882913 299.518125 
L 464.857471 299.518125 
L 464.857471 295.456378 
L 461.882913 295.456378 
z
" clip-path="url(#p5d29e67924)" style="fill: #ffa500"/>
   </g>
   <g id="patch_148">
    <path d="M 464.857471 299.518125 
L 467.83203 299.518125 
L 467.83203 292.019514 
L 464.857471 292.019514 
z
" clip-path="url(#p5d29e67924)" style="fill: #ffa500"/>
   </g>
   <g id="patch_149">
    <path d="M 467.83203 299.518125 
L 470.806589 299.518125 
L 470.806589 296.393704 
L 467.83203 296.393704 
z
" clip-path="url(#p5d29e67924)" style="fill: #ffa500"/>
   </g>
   <g id="patch_150">
    <path d="M 470.806589 299.518125 
L 473.781147 299.518125 
L 473.781147 297.33103 
L 470.806589 297.33103 
z
" clip-path="url(#p5d29e67924)" style="fill: #ffa500"/>
   </g>
   <g id="patch_151">
    <path d="M 473.781147 299.518125 
L 476.755706 299.518125 
L 476.755706 296.706146 
L 473.781147 296.706146 
z
" clip-path="url(#p5d29e67924)" style="fill: #ffa500"/>
   </g>
   <g id="patch_152">
    <path d="M 476.755706 299.518125 
L 479.730265 299.518125 
L 479.730265 298.580799 
L 476.755706 298.580799 
z
" clip-path="url(#p5d29e67924)" style="fill: #ffa500"/>
   </g>
   <g id="patch_153">
    <path d="M 479.730265 299.518125 
L 482.704824 299.518125 
L 482.704824 298.268357 
L 479.730265 298.268357 
z
" clip-path="url(#p5d29e67924)" style="fill: #ffa500"/>
   </g>
   <g id="patch_154">
    <path d="M 482.704824 299.518125 
L 485.679382 299.518125 
L 485.679382 299.205683 
L 482.704824 299.205683 
z
" clip-path="url(#p5d29e67924)" style="fill: #ffa500"/>
   </g>
   <g id="patch_155">
    <path d="M 485.679382 299.518125 
L 488.653941 299.518125 
L 488.653941 298.268357 
L 485.679382 298.268357 
z
" clip-path="url(#p5d29e67924)" style="fill: #ffa500"/>
   </g>
   <g id="patch_156">
    <path d="M 488.653941 299.518125 
L 491.6285 299.518125 
L 491.6285 298.893241 
L 488.653941 298.893241 
z
" clip-path="url(#p5d29e67924)" style="fill: #ffa500"/>
   </g>
   <g id="patch_157">
    <path d="M 491.6285 299.518125 
L 494.603059 299.518125 
L 494.603059 299.205683 
L 491.6285 299.205683 
z
" clip-path="url(#p5d29e67924)" style="fill: #ffa500"/>
   </g>
   <g id="patch_158">
    <path d="M 494.603059 299.518125 
L 497.577617 299.518125 
L 497.577617 299.518125 
L 494.603059 299.518125 
z
" clip-path="url(#p5d29e67924)" style="fill: #ffa500"/>
   </g>
   <g id="patch_159">
    <path d="M 497.577617 299.518125 
L 500.552176 299.518125 
L 500.552176 299.518125 
L 497.577617 299.518125 
z
" clip-path="url(#p5d29e67924)" style="fill: #ffa500"/>
   </g>
   <g id="patch_160">
    <path d="M 500.552176 299.518125 
L 503.526735 299.518125 
L 503.526735 299.205683 
L 500.552176 299.205683 
z
" clip-path="url(#p5d29e67924)" style="fill: #ffa500"/>
   </g>
   <g id="patch_161">
    <path d="M 503.526735 299.518125 
L 506.501294 299.518125 
L 506.501294 299.518125 
L 503.526735 299.518125 
z
" clip-path="url(#p5d29e67924)" style="fill: #ffa500"/>
   </g>
   <g id="patch_162">
    <path d="M 506.501294 299.518125 
L 509.475852 299.518125 
L 509.475852 298.893241 
L 506.501294 298.893241 
z
" clip-path="url(#p5d29e67924)" style="fill: #ffa500"/>
   </g>
   <g id="patch_163">
    <path d="M 56.762523 299.518125 
L 58.431178 299.518125 
L 58.431178 298.404201 
L 56.762523 298.404201 
z
" clip-path="url(#p5d29e67924)" style="fill: #bf00bf"/>
   </g>
   <g id="patch_164">
    <path d="M 58.431178 299.518125 
L 60.099833 299.518125 
L 60.099833 297.847239 
L 58.431178 297.847239 
z
" clip-path="url(#p5d29e67924)" style="fill: #bf00bf"/>
   </g>
   <g id="patch_165">
    <path d="M 60.099833 299.518125 
L 61.768488 299.518125 
L 61.768488 297.290277 
L 60.099833 297.290277 
z
" clip-path="url(#p5d29e67924)" style="fill: #bf00bf"/>
   </g>
   <g id="patch_166">
    <path d="M 61.768488 299.518125 
L 63.437143 299.518125 
L 63.437143 296.176353 
L 61.768488 296.176353 
z
" clip-path="url(#p5d29e67924)" style="fill: #bf00bf"/>
   </g>
   <g id="patch_167">
    <path d="M 63.437143 299.518125 
L 65.105798 299.518125 
L 65.105798 291.720657 
L 63.437143 291.720657 
z
" clip-path="url(#p5d29e67924)" style="fill: #bf00bf"/>
   </g>
   <g id="patch_168">
    <path d="M 65.105798 299.518125 
L 66.774453 299.518125 
L 66.774453 287.821922 
L 65.105798 287.821922 
z
" clip-path="url(#p5d29e67924)" style="fill: #bf00bf"/>
   </g>
   <g id="patch_169">
    <path d="M 66.774453 299.518125 
L 68.443108 299.518125 
L 68.443108 276.682682 
L 66.774453 276.682682 
z
" clip-path="url(#p5d29e67924)" style="fill: #bf00bf"/>
   </g>
   <g id="patch_170">
    <path d="M 68.443108 299.518125 
L 70.111763 299.518125 
L 70.111763 299.518125 
L 68.443108 299.518125 
z
" clip-path="url(#p5d29e67924)" style="fill: #bf00bf"/>
   </g>
   <g id="patch_171">
    <path d="M 70.111763 299.518125 
L 71.780417 299.518125 
L 71.780417 273.34091 
L 70.111763 273.34091 
z
" clip-path="url(#p5d29e67924)" style="fill: #bf00bf"/>
   </g>
   <g id="patch_172">
    <path d="M 71.780417 299.518125 
L 73.449072 299.518125 
L 73.449072 258.302935 
L 71.780417 258.302935 
z
" clip-path="url(#p5d29e67924)" style="fill: #bf00bf"/>
   </g>
   <g id="patch_173">
    <path d="M 73.449072 299.518125 
L 75.117727 299.518125 
L 75.117727 236.581416 
L 73.449072 236.581416 
z
" clip-path="url(#p5d29e67924)" style="fill: #bf00bf"/>
   </g>
   <g id="patch_174">
    <path d="M 75.117727 299.518125 
L 76.786382 299.518125 
L 76.786382 230.454834 
L 75.117727 230.454834 
z
" clip-path="url(#p5d29e67924)" style="fill: #bf00bf"/>
   </g>
   <g id="patch_175">
    <path d="M 76.786382 299.518125 
L 78.455037 299.518125 
L 78.455037 202.606733 
L 76.786382 202.606733 
z
" clip-path="url(#p5d29e67924)" style="fill: #bf00bf"/>
   </g>
   <g id="patch_176">
    <path d="M 78.455037 299.518125 
L 80.123692 299.518125 
L 80.123692 183.113062 
L 78.455037 183.113062 
z
" clip-path="url(#p5d29e67924)" style="fill: #bf00bf"/>
   </g>
   <g id="patch_177">
    <path d="M 80.123692 299.518125 
L 81.792347 299.518125 
L 81.792347 299.518125 
L 80.123692 299.518125 
z
" clip-path="url(#p5d29e67924)" style="fill: #bf00bf"/>
   </g>
   <g id="patch_178">
    <path d="M 81.792347 299.518125 
L 83.461002 299.518125 
L 83.461002 150.809264 
L 81.792347 150.809264 
z
" clip-path="url(#p5d29e67924)" style="fill: #bf00bf"/>
   </g>
   <g id="patch_179">
    <path d="M 83.461002 299.518125 
L 85.129657 299.518125 
L 85.129657 144.12572 
L 83.461002 144.12572 
z
" clip-path="url(#p5d29e67924)" style="fill: #bf00bf"/>
   </g>
   <g id="patch_180">
    <path d="M 85.129657 299.518125 
L 86.798312 299.518125 
L 86.798312 122.404201 
L 85.129657 122.404201 
z
" clip-path="url(#p5d29e67924)" style="fill: #bf00bf"/>
   </g>
   <g id="patch_181">
    <path d="M 86.798312 299.518125 
L 88.466966 299.518125 
L 88.466966 114.049771 
L 86.798312 114.049771 
z
" clip-path="url(#p5d29e67924)" style="fill: #bf00bf"/>
   </g>
   <g id="patch_182">
    <path d="M 88.466966 299.518125 
L 90.135621 299.518125 
L 90.135621 81.189011 
L 88.466966 81.189011 
z
" clip-path="url(#p5d29e67924)" style="fill: #bf00bf"/>
   </g>
   <g id="patch_183">
    <path d="M 90.135621 299.518125 
L 91.804276 299.518125 
L 91.804276 72.277619 
L 90.135621 72.277619 
z
" clip-path="url(#p5d29e67924)" style="fill: #bf00bf"/>
   </g>
   <g id="patch_184">
    <path d="M 91.804276 299.518125 
L 93.472931 299.518125 
L 93.472931 299.518125 
L 91.804276 299.518125 
z
" clip-path="url(#p5d29e67924)" style="fill: #bf00bf"/>
   </g>
   <g id="patch_185">
    <path d="M 93.472931 299.518125 
L 95.141586 299.518125 
L 95.141586 53.897872 
L 93.472931 53.897872 
z
" clip-path="url(#p5d29e67924)" style="fill: #bf00bf"/>
   </g>
   <g id="patch_186">
    <path d="M 95.141586 299.518125 
L 96.810241 299.518125 
L 96.810241 41.644707 
L 95.141586 41.644707 
z
" clip-path="url(#p5d29e67924)" style="fill: #bf00bf"/>
   </g>
   <g id="patch_187">
    <path d="M 96.810241 299.518125 
L 98.478896 299.518125 
L 98.478896 36.632049 
L 96.810241 36.632049 
z
" clip-path="url(#p5d29e67924)" style="fill: #bf00bf"/>
   </g>
   <g id="patch_188">
    <path d="M 98.478896 299.518125 
L 100.147551 299.518125 
L 100.147551 35.518125 
L 98.478896 35.518125 
z
" clip-path="url(#p5d29e67924)" style="fill: #bf00bf"/>
   </g>
   <g id="patch_189">
    <path d="M 100.147551 299.518125 
L 101.816206 299.518125 
L 101.816206 45.543441 
L 100.147551 45.543441 
z
" clip-path="url(#p5d29e67924)" style="fill: #bf00bf"/>
   </g>
   <g id="patch_190">
    <path d="M 101.816206 299.518125 
L 103.484861 299.518125 
L 103.484861 62.809264 
L 101.816206 62.809264 
z
" clip-path="url(#p5d29e67924)" style="fill: #bf00bf"/>
   </g>
   <g id="patch_191">
    <path d="M 103.484861 299.518125 
L 105.153515 299.518125 
L 105.153515 40.530783 
L 103.484861 40.530783 
z
" clip-path="url(#p5d29e67924)" style="fill: #bf00bf"/>
   </g>
   <g id="patch_192">
    <path d="M 105.153515 299.518125 
L 106.82217 299.518125 
L 106.82217 299.518125 
L 105.153515 299.518125 
z
" clip-path="url(#p5d29e67924)" style="fill: #bf00bf"/>
   </g>
   <g id="patch_193">
    <path d="M 106.82217 299.518125 
L 108.490825 299.518125 
L 108.490825 77.290277 
L 106.82217 77.290277 
z
" clip-path="url(#p5d29e67924)" style="fill: #bf00bf"/>
   </g>
   <g id="patch_194">
    <path d="M 108.490825 299.518125 
L 110.15948 299.518125 
L 110.15948 74.505467 
L 108.490825 74.505467 
z
" clip-path="url(#p5d29e67924)" style="fill: #bf00bf"/>
   </g>
   <g id="patch_195">
    <path d="M 110.15948 299.518125 
L 111.828135 299.518125 
L 111.828135 102.91053 
L 110.15948 102.91053 
z
" clip-path="url(#p5d29e67924)" style="fill: #bf00bf"/>
   </g>
   <g id="patch_196">
    <path d="M 111.828135 299.518125 
L 113.49679 299.518125 
L 113.49679 97.34091 
L 111.828135 97.34091 
z
" clip-path="url(#p5d29e67924)" style="fill: #bf00bf"/>
   </g>
   <g id="patch_197">
    <path d="M 113.49679 299.518125 
L 115.165445 299.518125 
L 115.165445 125.745973 
L 113.49679 125.745973 
z
" clip-path="url(#p5d29e67924)" style="fill: #bf00bf"/>
   </g>
   <g id="patch_198">
    <path d="M 115.165445 299.518125 
L 116.8341 299.518125 
L 116.8341 125.189011 
L 115.165445 125.189011 
z
" clip-path="url(#p5d29e67924)" style="fill: #bf00bf"/>
   </g>
   <g id="patch_199">
    <path d="M 116.8341 299.518125 
L 118.502755 299.518125 
L 118.502755 299.518125 
L 116.8341 299.518125 
z
" clip-path="url(#p5d29e67924)" style="fill: #bf00bf"/>
   </g>
   <g id="patch_200">
    <path d="M 118.502755 299.518125 
L 120.17141 299.518125 
L 120.17141 164.733315 
L 118.502755 164.733315 
z
" clip-path="url(#p5d29e67924)" style="fill: #bf00bf"/>
   </g>
   <g id="patch_201">
    <path d="M 120.17141 299.518125 
L 121.840064 299.518125 
L 121.840064 169.189011 
L 120.17141 169.189011 
z
" clip-path="url(#p5d29e67924)" style="fill: #bf00bf"/>
   </g>
   <g id="patch_202">
    <path d="M 121.840064 299.518125 
L 123.508719 299.518125 
L 123.508719 176.429517 
L 121.840064 176.429517 
z
" clip-path="url(#p5d29e67924)" style="fill: #bf00bf"/>
   </g>
   <g id="patch_203">
    <path d="M 123.508719 299.518125 
L 125.177374 299.518125 
L 125.177374 200.378884 
L 123.508719 200.378884 
z
" clip-path="url(#p5d29e67924)" style="fill: #bf00bf"/>
   </g>
   <g id="patch_204">
    <path d="M 125.177374 299.518125 
L 126.846029 299.518125 
L 126.846029 211.518125 
L 125.177374 211.518125 
z
" clip-path="url(#p5d29e67924)" style="fill: #bf00bf"/>
   </g>
   <g id="patch_205">
    <path d="M 126.846029 299.518125 
L 128.514684 299.518125 
L 128.514684 220.429517 
L 126.846029 220.429517 
z
" clip-path="url(#p5d29e67924)" style="fill: #bf00bf"/>
   </g>
   <g id="patch_206">
    <path d="M 128.514684 299.518125 
L 130.183339 299.518125 
L 130.183339 299.518125 
L 128.514684 299.518125 
z
" clip-path="url(#p5d29e67924)" style="fill: #bf00bf"/>
   </g>
   <g id="patch_207">
    <path d="M 130.183339 299.518125 
L 131.851994 299.518125 
L 131.851994 241.594074 
L 130.183339 241.594074 
z
" clip-path="url(#p5d29e67924)" style="fill: #bf00bf"/>
   </g>
   <g id="patch_208">
    <path d="M 131.851994 299.518125 
L 133.520649 299.518125 
L 133.520649 242.151036 
L 131.851994 242.151036 
z
" clip-path="url(#p5d29e67924)" style="fill: #bf00bf"/>
   </g>
   <g id="patch_209">
    <path d="M 133.520649 299.518125 
L 135.189304 299.518125 
L 135.189304 258.302935 
L 133.520649 258.302935 
z
" clip-path="url(#p5d29e67924)" style="fill: #bf00bf"/>
   </g>
   <g id="patch_210">
    <path d="M 135.189304 299.518125 
L 136.857959 299.518125 
L 136.857959 268.885214 
L 135.189304 268.885214 
z
" clip-path="url(#p5d29e67924)" style="fill: #bf00bf"/>
   </g>
   <g id="patch_211">
    <path d="M 136.857959 299.518125 
L 138.526613 299.518125 
L 138.526613 263.872555 
L 136.857959 263.872555 
z
" clip-path="url(#p5d29e67924)" style="fill: #bf00bf"/>
   </g>
   <g id="patch_212">
    <path d="M 138.526613 299.518125 
L 140.195268 299.518125 
L 140.195268 265.543441 
L 138.526613 265.543441 
z
" clip-path="url(#p5d29e67924)" style="fill: #bf00bf"/>
   </g>
   <g id="patch_213">
    <path d="M 140.195268 299.518125 
L 141.863923 299.518125 
L 141.863923 299.518125 
L 140.195268 299.518125 
z
" clip-path="url(#p5d29e67924)" style="fill: #bf00bf"/>
   </g>
   <g id="patch_214">
    <path d="M 141.863923 299.518125 
L 143.532578 299.518125 
L 143.532578 283.923188 
L 141.863923 283.923188 
z
" clip-path="url(#p5d29e67924)" style="fill: #bf00bf"/>
   </g>
   <g id="patch_215">
    <path d="M 143.532578 299.518125 
L 145.201233 299.518125 
L 145.201233 277.239644 
L 143.532578 277.239644 
z
" clip-path="url(#p5d29e67924)" style="fill: #bf00bf"/>
   </g>
   <g id="patch_216">
    <path d="M 145.201233 299.518125 
L 146.869888 299.518125 
L 146.869888 285.037112 
L 145.201233 285.037112 
z
" clip-path="url(#p5d29e67924)" style="fill: #bf00bf"/>
   </g>
   <g id="patch_217">
    <path d="M 146.869888 299.518125 
L 148.538543 299.518125 
L 148.538543 287.821922 
L 146.869888 287.821922 
z
" clip-path="url(#p5d29e67924)" style="fill: #bf00bf"/>
   </g>
   <g id="patch_218">
    <path d="M 148.538543 299.518125 
L 150.207198 299.518125 
L 150.207198 291.720657 
L 148.538543 291.720657 
z
" clip-path="url(#p5d29e67924)" style="fill: #bf00bf"/>
   </g>
   <g id="patch_219">
    <path d="M 150.207198 299.518125 
L 151.875853 299.518125 
L 151.875853 292.834581 
L 150.207198 292.834581 
z
" clip-path="url(#p5d29e67924)" style="fill: #bf00bf"/>
   </g>
   <g id="patch_220">
    <path d="M 151.875853 299.518125 
L 153.544507 299.518125 
L 153.544507 292.834581 
L 151.875853 292.834581 
z
" clip-path="url(#p5d29e67924)" style="fill: #bf00bf"/>
   </g>
   <g id="patch_221">
    <path d="M 153.544507 299.518125 
L 155.213162 299.518125 
L 155.213162 299.518125 
L 153.544507 299.518125 
z
" clip-path="url(#p5d29e67924)" style="fill: #bf00bf"/>
   </g>
   <g id="patch_222">
    <path d="M 155.213162 299.518125 
L 156.881817 299.518125 
L 156.881817 296.733315 
L 155.213162 296.733315 
z
" clip-path="url(#p5d29e67924)" style="fill: #bf00bf"/>
   </g>
   <g id="patch_223">
    <path d="M 156.881817 299.518125 
L 158.550472 299.518125 
L 158.550472 295.619391 
L 156.881817 295.619391 
z
" clip-path="url(#p5d29e67924)" style="fill: #bf00bf"/>
   </g>
   <g id="patch_224">
    <path d="M 158.550472 299.518125 
L 160.219127 299.518125 
L 160.219127 295.062429 
L 158.550472 295.062429 
z
" clip-path="url(#p5d29e67924)" style="fill: #bf00bf"/>
   </g>
   <g id="patch_225">
    <path d="M 160.219127 299.518125 
L 161.887782 299.518125 
L 161.887782 297.290277 
L 160.219127 297.290277 
z
" clip-path="url(#p5d29e67924)" style="fill: #bf00bf"/>
   </g>
   <g id="patch_226">
    <path d="M 161.887782 299.518125 
L 163.556437 299.518125 
L 163.556437 295.619391 
L 161.887782 295.619391 
z
" clip-path="url(#p5d29e67924)" style="fill: #bf00bf"/>
   </g>
   <g id="patch_227">
    <path d="M 163.556437 299.518125 
L 165.225092 299.518125 
L 165.225092 298.961163 
L 163.556437 298.961163 
z
" clip-path="url(#p5d29e67924)" style="fill: #bf00bf"/>
   </g>
   <g id="patch_228">
    <path d="M 165.225092 299.518125 
L 166.893747 299.518125 
L 166.893747 299.518125 
L 165.225092 299.518125 
z
" clip-path="url(#p5d29e67924)" style="fill: #bf00bf"/>
   </g>
   <g id="patch_229">
    <path d="M 166.893747 299.518125 
L 168.562402 299.518125 
L 168.562402 297.290277 
L 166.893747 297.290277 
z
" clip-path="url(#p5d29e67924)" style="fill: #bf00bf"/>
   </g>
   <g id="patch_230">
    <path d="M 168.562402 299.518125 
L 170.231056 299.518125 
L 170.231056 299.518125 
L 168.562402 299.518125 
z
" clip-path="url(#p5d29e67924)" style="fill: #bf00bf"/>
   </g>
   <g id="patch_231">
    <path d="M 170.231056 299.518125 
L 171.899711 299.518125 
L 171.899711 298.961163 
L 170.231056 298.961163 
z
" clip-path="url(#p5d29e67924)" style="fill: #bf00bf"/>
   </g>
   <g id="patch_232">
    <path d="M 171.899711 299.518125 
L 173.568366 299.518125 
L 173.568366 298.404201 
L 171.899711 298.404201 
z
" clip-path="url(#p5d29e67924)" style="fill: #bf00bf"/>
   </g>
   <g id="patch_233">
    <path d="M 173.568366 299.518125 
L 175.237021 299.518125 
L 175.237021 299.518125 
L 173.568366 299.518125 
z
" clip-path="url(#p5d29e67924)" style="fill: #bf00bf"/>
   </g>
   <g id="patch_234">
    <path d="M 175.237021 299.518125 
L 176.905676 299.518125 
L 176.905676 299.518125 
L 175.237021 299.518125 
z
" clip-path="url(#p5d29e67924)" style="fill: #bf00bf"/>
   </g>
   <g id="patch_235">
    <path d="M 176.905676 299.518125 
L 178.574331 299.518125 
L 178.574331 299.518125 
L 176.905676 299.518125 
z
" clip-path="url(#p5d29e67924)" style="fill: #bf00bf"/>
   </g>
   <g id="patch_236">
    <path d="M 178.574331 299.518125 
L 180.242986 299.518125 
L 180.242986 298.961163 
L 178.574331 298.961163 
z
" clip-path="url(#p5d29e67924)" style="fill: #bf00bf"/>
   </g>
   <g id="patch_237">
    <path d="M 180.242986 299.518125 
L 181.911641 299.518125 
L 181.911641 299.518125 
L 180.242986 299.518125 
z
" clip-path="url(#p5d29e67924)" style="fill: #bf00bf"/>
   </g>
   <g id="patch_238">
    <path d="M 181.911641 299.518125 
L 183.580296 299.518125 
L 183.580296 299.518125 
L 181.911641 299.518125 
z
" clip-path="url(#p5d29e67924)" style="fill: #bf00bf"/>
   </g>
   <g id="patch_239">
    <path d="M 183.580296 299.518125 
L 185.248951 299.518125 
L 185.248951 299.518125 
L 183.580296 299.518125 
z
" clip-path="url(#p5d29e67924)" style="fill: #bf00bf"/>
   </g>
   <g id="patch_240">
    <path d="M 185.248951 299.518125 
L 186.917605 299.518125 
L 186.917605 299.518125 
L 185.248951 299.518125 
z
" clip-path="url(#p5d29e67924)" style="fill: #bf00bf"/>
   </g>
   <g id="patch_241">
    <path d="M 186.917605 299.518125 
L 188.58626 299.518125 
L 188.58626 298.961163 
L 186.917605 298.961163 
z
" clip-path="url(#p5d29e67924)" style="fill: #bf00bf"/>
   </g>
   <g id="patch_242">
    <path d="M 188.58626 299.518125 
L 190.254915 299.518125 
L 190.254915 298.961163 
L 188.58626 298.961163 
z
" clip-path="url(#p5d29e67924)" style="fill: #bf00bf"/>
   </g>
   <g id="matplotlib.axis_1">
    <g id="xtick_1">
     <g id="line2d_1">
      <path d="M 83.847936 299.518125 
L 83.847936 22.318125 
" clip-path="url(#p5d29e67924)" style="fill: none; stroke-dasharray: 0.8,1.32; stroke-dashoffset: 0; stroke: #b0b0b0; stroke-width: 0.8"/>
     </g>
     <g id="line2d_2">
      <defs>
       <path id="mf8968c8ff8" d="M 0 0 
L 0 3.5 
" style="stroke: #000000; stroke-width: 0.8"/>
      </defs>
      <g>
       <use xlink:href="#mf8968c8ff8" x="83.847936" y="299.518125" style="stroke: #000000; stroke-width: 0.8"/>
      </g>
     </g>
     <g id="text_1">
      <!-- 2 -->
      <g transform="translate(80.666686 314.116563) scale(0.1 -0.1)">
       <defs>
        <path id="DejaVuSans-32" d="M 1228 531 
L 3431 531 
L 3431 0 
L 469 0 
L 469 531 
Q 828 903 1448 1529 
Q 2069 2156 2228 2338 
Q 2531 2678 2651 2914 
Q 2772 3150 2772 3378 
Q 2772 3750 2511 3984 
Q 2250 4219 1831 4219 
Q 1534 4219 1204 4116 
Q 875 4013 500 3803 
L 500 4441 
Q 881 4594 1212 4672 
Q 1544 4750 1819 4750 
Q 2544 4750 2975 4387 
Q 3406 4025 3406 3419 
Q 3406 3131 3298 2873 
Q 3191 2616 2906 2266 
Q 2828 2175 2409 1742 
Q 1991 1309 1228 531 
z
" transform="scale(0.015625)"/>
       </defs>
       <use xlink:href="#DejaVuSans-32"/>
      </g>
     </g>
    </g>
    <g id="xtick_2">
     <g id="line2d_3">
      <path d="M 161.23483 299.518125 
L 161.23483 22.318125 
" clip-path="url(#p5d29e67924)" style="fill: none; stroke-dasharray: 0.8,1.32; stroke-dashoffset: 0; stroke: #b0b0b0; stroke-width: 0.8"/>
     </g>
     <g id="line2d_4">
      <g>
       <use xlink:href="#mf8968c8ff8" x="161.23483" y="299.518125" style="stroke: #000000; stroke-width: 0.8"/>
      </g>
     </g>
     <g id="text_2">
      <!-- 4 -->
      <g transform="translate(158.05358 314.116563) scale(0.1 -0.1)">
       <defs>
        <path id="DejaVuSans-34" d="M 2419 4116 
L 825 1625 
L 2419 1625 
L 2419 4116 
z
M 2253 4666 
L 3047 4666 
L 3047 1625 
L 3713 1625 
L 3713 1100 
L 3047 1100 
L 3047 0 
L 2419 0 
L 2419 1100 
L 313 1100 
L 313 1709 
L 2253 4666 
z
" transform="scale(0.015625)"/>
       </defs>
       <use xlink:href="#DejaVuSans-34"/>
      </g>
     </g>
    </g>
    <g id="xtick_3">
     <g id="line2d_5">
      <path d="M 238.621724 299.518125 
L 238.621724 22.318125 
" clip-path="url(#p5d29e67924)" style="fill: none; stroke-dasharray: 0.8,1.32; stroke-dashoffset: 0; stroke: #b0b0b0; stroke-width: 0.8"/>
     </g>
     <g id="line2d_6">
      <g>
       <use xlink:href="#mf8968c8ff8" x="238.621724" y="299.518125" style="stroke: #000000; stroke-width: 0.8"/>
      </g>
     </g>
     <g id="text_3">
      <!-- 6 -->
      <g transform="translate(235.440474 314.116563) scale(0.1 -0.1)">
       <defs>
        <path id="DejaVuSans-36" d="M 2113 2584 
Q 1688 2584 1439 2293 
Q 1191 2003 1191 1497 
Q 1191 994 1439 701 
Q 1688 409 2113 409 
Q 2538 409 2786 701 
Q 3034 994 3034 1497 
Q 3034 2003 2786 2293 
Q 2538 2584 2113 2584 
z
M 3366 4563 
L 3366 3988 
Q 3128 4100 2886 4159 
Q 2644 4219 2406 4219 
Q 1781 4219 1451 3797 
Q 1122 3375 1075 2522 
Q 1259 2794 1537 2939 
Q 1816 3084 2150 3084 
Q 2853 3084 3261 2657 
Q 3669 2231 3669 1497 
Q 3669 778 3244 343 
Q 2819 -91 2113 -91 
Q 1303 -91 875 529 
Q 447 1150 447 2328 
Q 447 3434 972 4092 
Q 1497 4750 2381 4750 
Q 2619 4750 2861 4703 
Q 3103 4656 3366 4563 
z
" transform="scale(0.015625)"/>
       </defs>
       <use xlink:href="#DejaVuSans-36"/>
      </g>
     </g>
    </g>
    <g id="xtick_4">
     <g id="line2d_7">
      <path d="M 316.008618 299.518125 
L 316.008618 22.318125 
" clip-path="url(#p5d29e67924)" style="fill: none; stroke-dasharray: 0.8,1.32; stroke-dashoffset: 0; stroke: #b0b0b0; stroke-width: 0.8"/>
     </g>
     <g id="line2d_8">
      <g>
       <use xlink:href="#mf8968c8ff8" x="316.008618" y="299.518125" style="stroke: #000000; stroke-width: 0.8"/>
      </g>
     </g>
     <g id="text_4">
      <!-- 8 -->
      <g transform="translate(312.827368 314.116563) scale(0.1 -0.1)">
       <defs>
        <path id="DejaVuSans-38" d="M 2034 2216 
Q 1584 2216 1326 1975 
Q 1069 1734 1069 1313 
Q 1069 891 1326 650 
Q 1584 409 2034 409 
Q 2484 409 2743 651 
Q 3003 894 3003 1313 
Q 3003 1734 2745 1975 
Q 2488 2216 2034 2216 
z
M 1403 2484 
Q 997 2584 770 2862 
Q 544 3141 544 3541 
Q 544 4100 942 4425 
Q 1341 4750 2034 4750 
Q 2731 4750 3128 4425 
Q 3525 4100 3525 3541 
Q 3525 3141 3298 2862 
Q 3072 2584 2669 2484 
Q 3125 2378 3379 2068 
Q 3634 1759 3634 1313 
Q 3634 634 3220 271 
Q 2806 -91 2034 -91 
Q 1263 -91 848 271 
Q 434 634 434 1313 
Q 434 1759 690 2068 
Q 947 2378 1403 2484 
z
M 1172 3481 
Q 1172 3119 1398 2916 
Q 1625 2713 2034 2713 
Q 2441 2713 2670 2916 
Q 2900 3119 2900 3481 
Q 2900 3844 2670 4047 
Q 2441 4250 2034 4250 
Q 1625 4250 1398 4047 
Q 1172 3844 1172 3481 
z
" transform="scale(0.015625)"/>
       </defs>
       <use xlink:href="#DejaVuSans-38"/>
      </g>
     </g>
    </g>
    <g id="xtick_5">
     <g id="line2d_9">
      <path d="M 393.395512 299.518125 
L 393.395512 22.318125 
" clip-path="url(#p5d29e67924)" style="fill: none; stroke-dasharray: 0.8,1.32; stroke-dashoffset: 0; stroke: #b0b0b0; stroke-width: 0.8"/>
     </g>
     <g id="line2d_10">
      <g>
       <use xlink:href="#mf8968c8ff8" x="393.395512" y="299.518125" style="stroke: #000000; stroke-width: 0.8"/>
      </g>
     </g>
     <g id="text_5">
      <!-- 10 -->
      <g transform="translate(387.033012 314.116563) scale(0.1 -0.1)">
       <defs>
        <path id="DejaVuSans-31" d="M 794 531 
L 1825 531 
L 1825 4091 
L 703 3866 
L 703 4441 
L 1819 4666 
L 2450 4666 
L 2450 531 
L 3481 531 
L 3481 0 
L 794 0 
L 794 531 
z
" transform="scale(0.015625)"/>
        <path id="DejaVuSans-30" d="M 2034 4250 
Q 1547 4250 1301 3770 
Q 1056 3291 1056 2328 
Q 1056 1369 1301 889 
Q 1547 409 2034 409 
Q 2525 409 2770 889 
Q 3016 1369 3016 2328 
Q 3016 3291 2770 3770 
Q 2525 4250 2034 4250 
z
M 2034 4750 
Q 2819 4750 3233 4129 
Q 3647 3509 3647 2328 
Q 3647 1150 3233 529 
Q 2819 -91 2034 -91 
Q 1250 -91 836 529 
Q 422 1150 422 2328 
Q 422 3509 836 4129 
Q 1250 4750 2034 4750 
z
" transform="scale(0.015625)"/>
       </defs>
       <use xlink:href="#DejaVuSans-31"/>
       <use xlink:href="#DejaVuSans-30" x="63.623047"/>
      </g>
     </g>
    </g>
    <g id="xtick_6">
     <g id="line2d_11">
      <path d="M 470.782405 299.518125 
L 470.782405 22.318125 
" clip-path="url(#p5d29e67924)" style="fill: none; stroke-dasharray: 0.8,1.32; stroke-dashoffset: 0; stroke: #b0b0b0; stroke-width: 0.8"/>
     </g>
     <g id="line2d_12">
      <g>
       <use xlink:href="#mf8968c8ff8" x="470.782405" y="299.518125" style="stroke: #000000; stroke-width: 0.8"/>
      </g>
     </g>
     <g id="text_6">
      <!-- 12 -->
      <g transform="translate(464.419905 314.116563) scale(0.1 -0.1)">
       <use xlink:href="#DejaVuSans-31"/>
       <use xlink:href="#DejaVuSans-32" x="63.623047"/>
      </g>
     </g>
    </g>
    <g id="text_7">
     <!-- $x$ -->
     <g transform="translate(278.203125 327.794688) scale(0.1 -0.1)">
      <defs>
       <path id="DejaVuSans-Oblique-78" d="M 3841 3500 
L 2234 1784 
L 3219 0 
L 2559 0 
L 1819 1388 
L 531 0 
L -166 0 
L 1556 1844 
L 641 3500 
L 1300 3500 
L 1972 2234 
L 3144 3500 
L 3841 3500 
z
" transform="scale(0.015625)"/>
      </defs>
      <use xlink:href="#DejaVuSans-Oblique-78" transform="translate(0 0.3125)"/>
     </g>
    </g>
   </g>
   <g id="matplotlib.axis_2">
    <g id="ytick_1">
     <g id="line2d_13">
      <path d="M 30.103125 299.518125 
L 532.303125 299.518125 
" clip-path="url(#p5d29e67924)" style="fill: none; stroke-dasharray: 0.8,1.32; stroke-dashoffset: 0; stroke: #b0b0b0; stroke-width: 0.8"/>
     </g>
     <g id="line2d_14">
      <defs>
       <path id="md523bfd3a7" d="M 0 0 
L -3.5 0 
" style="stroke: #000000; stroke-width: 0.8"/>
      </defs>
      <g>
       <use xlink:href="#md523bfd3a7" x="30.103125" y="299.518125" style="stroke: #000000; stroke-width: 0.8"/>
      </g>
     </g>
     <g id="text_8">
      <!-- 0.0 -->
      <g transform="translate(7.2 303.317344) scale(0.1 -0.1)">
       <defs>
        <path id="DejaVuSans-2e" d="M 684 794 
L 1344 794 
L 1344 0 
L 684 0 
L 684 794 
z
" transform="scale(0.015625)"/>
       </defs>
       <use xlink:href="#DejaVuSans-30"/>
       <use xlink:href="#DejaVuSans-2e" x="63.623047"/>
       <use xlink:href="#DejaVuSans-30" x="95.410156"/>
      </g>
     </g>
    </g>
    <g id="ytick_2">
     <g id="line2d_15">
      <path d="M 30.103125 251.48015 
L 532.303125 251.48015 
" clip-path="url(#p5d29e67924)" style="fill: none; stroke-dasharray: 0.8,1.32; stroke-dashoffset: 0; stroke: #b0b0b0; stroke-width: 0.8"/>
     </g>
     <g id="line2d_16">
      <g>
       <use xlink:href="#md523bfd3a7" x="30.103125" y="251.48015" style="stroke: #000000; stroke-width: 0.8"/>
      </g>
     </g>
     <g id="text_9">
      <!-- 0.2 -->
      <g transform="translate(7.2 255.279369) scale(0.1 -0.1)">
       <use xlink:href="#DejaVuSans-30"/>
       <use xlink:href="#DejaVuSans-2e" x="63.623047"/>
       <use xlink:href="#DejaVuSans-32" x="95.410156"/>
      </g>
     </g>
    </g>
    <g id="ytick_3">
     <g id="line2d_17">
      <path d="M 30.103125 203.442176 
L 532.303125 203.442176 
" clip-path="url(#p5d29e67924)" style="fill: none; stroke-dasharray: 0.8,1.32; stroke-dashoffset: 0; stroke: #b0b0b0; stroke-width: 0.8"/>
     </g>
     <g id="line2d_18">
      <g>
       <use xlink:href="#md523bfd3a7" x="30.103125" y="203.442176" style="stroke: #000000; stroke-width: 0.8"/>
      </g>
     </g>
     <g id="text_10">
      <!-- 0.4 -->
      <g transform="translate(7.2 207.241394) scale(0.1 -0.1)">
       <use xlink:href="#DejaVuSans-30"/>
       <use xlink:href="#DejaVuSans-2e" x="63.623047"/>
       <use xlink:href="#DejaVuSans-34" x="95.410156"/>
      </g>
     </g>
    </g>
    <g id="ytick_4">
     <g id="line2d_19">
      <path d="M 30.103125 155.404201 
L 532.303125 155.404201 
" clip-path="url(#p5d29e67924)" style="fill: none; stroke-dasharray: 0.8,1.32; stroke-dashoffset: 0; stroke: #b0b0b0; stroke-width: 0.8"/>
     </g>
     <g id="line2d_20">
      <g>
       <use xlink:href="#md523bfd3a7" x="30.103125" y="155.404201" style="stroke: #000000; stroke-width: 0.8"/>
      </g>
     </g>
     <g id="text_11">
      <!-- 0.6 -->
      <g transform="translate(7.2 159.20342) scale(0.1 -0.1)">
       <use xlink:href="#DejaVuSans-30"/>
       <use xlink:href="#DejaVuSans-2e" x="63.623047"/>
       <use xlink:href="#DejaVuSans-36" x="95.410156"/>
      </g>
     </g>
    </g>
    <g id="ytick_5">
     <g id="line2d_21">
      <path d="M 30.103125 107.366226 
L 532.303125 107.366226 
" clip-path="url(#p5d29e67924)" style="fill: none; stroke-dasharray: 0.8,1.32; stroke-dashoffset: 0; stroke: #b0b0b0; stroke-width: 0.8"/>
     </g>
     <g id="line2d_22">
      <g>
       <use xlink:href="#md523bfd3a7" x="30.103125" y="107.366226" style="stroke: #000000; stroke-width: 0.8"/>
      </g>
     </g>
     <g id="text_12">
      <!-- 0.8 -->
      <g transform="translate(7.2 111.165445) scale(0.1 -0.1)">
       <use xlink:href="#DejaVuSans-30"/>
       <use xlink:href="#DejaVuSans-2e" x="63.623047"/>
       <use xlink:href="#DejaVuSans-38" x="95.410156"/>
      </g>
     </g>
    </g>
    <g id="ytick_6">
     <g id="line2d_23">
      <path d="M 30.103125 59.328252 
L 532.303125 59.328252 
" clip-path="url(#p5d29e67924)" style="fill: none; stroke-dasharray: 0.8,1.32; stroke-dashoffset: 0; stroke: #b0b0b0; stroke-width: 0.8"/>
     </g>
     <g id="line2d_24">
      <g>
       <use xlink:href="#md523bfd3a7" x="30.103125" y="59.328252" style="stroke: #000000; stroke-width: 0.8"/>
      </g>
     </g>
     <g id="text_13">
      <!-- 1.0 -->
      <g transform="translate(7.2 63.12747) scale(0.1 -0.1)">
       <use xlink:href="#DejaVuSans-31"/>
       <use xlink:href="#DejaVuSans-2e" x="63.623047"/>
       <use xlink:href="#DejaVuSans-30" x="95.410156"/>
      </g>
     </g>
    </g>
   </g>
   <g id="line2d_25">
    <path d="M 185.427029 297.195228 
L 187.343955 296.324056 
L 189.154385 295.249245 
L 190.858319 293.962437 
L 192.455758 292.465223 
L 193.9467 290.770119 
L 195.437642 288.744056 
L 196.928585 286.342237 
L 198.419527 283.51851 
L 199.91047 280.226507 
L 201.507908 276.128425 
L 203.105346 271.389026 
L 204.702784 265.962746 
L 206.406719 259.376918 
L 208.217149 251.446513 
L 210.134075 241.992949 
L 212.157496 230.866269 
L 214.39391 217.303224 
L 217.056307 199.71254 
L 220.890159 172.692249 
L 225.469482 140.705558 
L 227.812392 125.874832 
L 229.729317 115.126257 
L 231.326756 107.385591 
L 232.711202 101.717509 
L 233.882657 97.754025 
L 234.947616 94.858614 
L 235.906079 92.8556 
L 236.758046 91.569397 
L 237.503517 90.832984 
L 238.142492 90.493961 
L 238.781468 90.426091 
L 239.313947 90.576884 
L 239.952922 91.006049 
L 240.591898 91.704374 
L 241.337369 92.8556 
L 242.189336 94.607455 
L 243.147799 97.119839 
L 244.212758 100.558241 
L 245.384213 105.084818 
L 246.768659 111.363595 
L 248.366097 119.723948 
L 250.176527 130.418142 
L 252.519437 145.717583 
L 256.033801 170.407346 
L 261.145604 206.199304 
L 263.808001 223.26808 
L 266.15091 236.865513 
L 268.174332 247.378449 
L 270.091258 256.228961 
L 271.901688 263.591391 
L 273.605622 269.658599 
L 275.309556 274.92931 
L 276.906995 279.193546 
L 278.504433 282.85407 
L 280.101871 285.965763 
L 281.69931 288.5855 
L 283.296748 290.770119 
L 284.894186 292.574778 
L 286.491624 294.051694 
L 288.195559 295.320252 
L 290.005989 296.37911 
L 291.816419 297.195228 
L 291.816419 297.195228 
" clip-path="url(#p5d29e67924)" style="fill: none; stroke-dasharray: 7.4,3.2; stroke-dashoffset: 0; stroke: #0000ff; stroke-width: 2"/>
   </g>
   <g id="line2d_26">
    <path d="M 311.314315 298.012716 
L 314.929503 297.299846 
L 318.051711 296.460969 
L 320.845265 295.489454 
L 323.474493 294.344194 
L 325.939393 293.031095 
L 328.239967 291.564911 
L 330.540542 289.836039 
L 332.841116 287.814385 
L 334.977363 285.649019 
L 337.11361 283.182914 
L 339.249858 280.395238 
L 341.550432 277.012811 
L 343.851006 273.218704 
L 346.15158 269.001482 
L 348.616481 264.00952 
L 351.245708 258.153244 
L 354.039262 251.358923 
L 357.16147 243.136272 
L 360.776658 232.938161 
L 366.035113 217.325563 
L 372.279528 198.908395 
L 375.566063 189.928811 
L 378.19529 183.384227 
L 380.495864 178.259928 
L 382.467785 174.394172 
L 384.275379 171.328675 
L 385.918646 168.972124 
L 387.397586 167.222861 
L 388.7122 165.97626 
L 390.026814 165.028756 
L 391.177101 164.450209 
L 392.327388 164.108725 
L 393.477675 164.006111 
L 394.627962 164.142912 
L 395.778249 164.518402 
L 396.928536 165.130595 
L 398.24315 166.115884 
L 399.557763 167.399313 
L 401.036704 169.188561 
L 402.515644 171.328675 
L 404.158912 174.095928 
L 405.966506 177.580053 
L 407.938426 181.857794 
L 410.239 187.3977 
L 412.868228 194.324992 
L 416.154762 203.638576 
L 421.577544 219.793072 
L 427.328979 236.717384 
L 430.944167 246.673191 
L 434.066374 254.626836 
L 436.859929 261.148814 
L 439.489156 266.732716 
L 441.954057 271.463541 
L 444.418958 275.705776 
L 446.719532 279.233488 
L 449.020106 282.36032 
L 451.32068 285.107405 
L 453.621254 287.499934 
L 455.921828 289.565858 
L 458.222402 291.334713 
L 460.522976 292.836589 
L 462.987877 294.18329 
L 465.617104 295.359369 
L 468.410659 296.358381 
L 471.36854 297.182586 
L 474.655074 297.871539 
L 475.476708 298.012716 
L 475.476708 298.012716 
" clip-path="url(#p5d29e67924)" style="fill: none; stroke-dasharray: 7.4,3.2; stroke-dashoffset: 0; stroke: #a52a2a; stroke-width: 2"/>
   </g>
   <g id="line2d_27">
    <path d="M 52.930398 297.059802 
L 54.741722 296.13784 
L 56.351789 295.075514 
L 57.861226 293.826147 
L 59.370664 292.28438 
L 60.779472 290.536746 
L 62.18828 288.445455 
L 63.597088 285.963386 
L 65.005896 283.041834 
L 66.515333 279.368115 
L 68.024771 275.074464 
L 69.534208 270.105593 
L 71.144274 264.00645 
L 72.754341 257.036664 
L 74.465036 248.643913 
L 76.276361 238.639201 
L 78.288944 226.210957 
L 80.502786 211.076602 
L 83.119144 191.571167 
L 87.345568 158.050263 
L 91.068847 129.213045 
L 93.282688 113.751882 
L 95.094013 102.636769 
L 96.60345 94.704534 
L 97.911629 88.958775 
L 99.01855 84.995151 
L 100.024841 82.151997 
L 100.930504 80.238294 
L 101.735537 79.064501 
L 102.339312 78.515113 
L 102.943087 78.251879 
L 103.446233 78.251879 
L 103.949378 78.451328 
L 104.553153 78.953141 
L 105.257557 79.897905 
L 105.961961 81.224804 
L 106.766995 83.200136 
L 107.672657 85.991072 
L 108.779578 90.185629 
L 109.987128 95.684793 
L 111.395936 103.211185 
L 113.006002 113.094023 
L 114.917956 126.276101 
L 117.433685 145.301688 
L 126.490309 215.344072 
L 128.804779 230.712899 
L 130.817362 242.665736 
L 132.729316 252.721403 
L 134.540641 261.066517 
L 136.251337 267.917773 
L 137.861403 273.495769 
L 139.471469 278.286128 
L 140.980907 282.119498 
L 142.490344 285.376013 
L 143.999781 288.115922 
L 145.509219 290.39931 
L 147.018656 292.28438 
L 148.528093 293.826147 
L 150.13816 295.149568 
L 151.848855 296.253482 
L 153.458922 297.059802 
L 153.458922 297.059802 
" clip-path="url(#p5d29e67924)" style="fill: none; stroke-dasharray: 7.4,3.2; stroke-dashoffset: 0; stroke: #008000; stroke-width: 2"/>
   </g>
   <g id="patch_243">
    <path d="M 30.103125 299.518125 
L 30.103125 22.318125 
" style="fill: none; stroke: #000000; stroke-width: 0.8; stroke-linejoin: miter; stroke-linecap: square"/>
   </g>
   <g id="patch_244">
    <path d="M 532.303125 299.518125 
L 532.303125 22.318125 
" style="fill: none; stroke: #000000; stroke-width: 0.8; stroke-linejoin: miter; stroke-linecap: square"/>
   </g>
   <g id="patch_245">
    <path d="M 30.103125 299.518125 
L 532.303125 299.518125 
" style="fill: none; stroke: #000000; stroke-width: 0.8; stroke-linejoin: miter; stroke-linecap: square"/>
   </g>
   <g id="patch_246">
    <path d="M 30.103125 22.318125 
L 532.303125 22.318125 
" style="fill: none; stroke: #000000; stroke-width: 0.8; stroke-linejoin: miter; stroke-linecap: square"/>
   </g>
   <g id="text_14">
    <!-- Central limit theorem, $n=20$ -->
    <g transform="translate(194.203125 16.318125) scale(0.12 -0.12)">
     <defs>
      <path id="DejaVuSans-43" d="M 4122 4306 
L 4122 3641 
Q 3803 3938 3442 4084 
Q 3081 4231 2675 4231 
Q 1875 4231 1450 3742 
Q 1025 3253 1025 2328 
Q 1025 1406 1450 917 
Q 1875 428 2675 428 
Q 3081 428 3442 575 
Q 3803 722 4122 1019 
L 4122 359 
Q 3791 134 3420 21 
Q 3050 -91 2638 -91 
Q 1578 -91 968 557 
Q 359 1206 359 2328 
Q 359 3453 968 4101 
Q 1578 4750 2638 4750 
Q 3056 4750 3426 4639 
Q 3797 4528 4122 4306 
z
" transform="scale(0.015625)"/>
      <path id="DejaVuSans-65" d="M 3597 1894 
L 3597 1613 
L 953 1613 
Q 991 1019 1311 708 
Q 1631 397 2203 397 
Q 2534 397 2845 478 
Q 3156 559 3463 722 
L 3463 178 
Q 3153 47 2828 -22 
Q 2503 -91 2169 -91 
Q 1331 -91 842 396 
Q 353 884 353 1716 
Q 353 2575 817 3079 
Q 1281 3584 2069 3584 
Q 2775 3584 3186 3129 
Q 3597 2675 3597 1894 
z
M 3022 2063 
Q 3016 2534 2758 2815 
Q 2500 3097 2075 3097 
Q 1594 3097 1305 2825 
Q 1016 2553 972 2059 
L 3022 2063 
z
" transform="scale(0.015625)"/>
      <path id="DejaVuSans-6e" d="M 3513 2113 
L 3513 0 
L 2938 0 
L 2938 2094 
Q 2938 2591 2744 2837 
Q 2550 3084 2163 3084 
Q 1697 3084 1428 2787 
Q 1159 2491 1159 1978 
L 1159 0 
L 581 0 
L 581 3500 
L 1159 3500 
L 1159 2956 
Q 1366 3272 1645 3428 
Q 1925 3584 2291 3584 
Q 2894 3584 3203 3211 
Q 3513 2838 3513 2113 
z
" transform="scale(0.015625)"/>
      <path id="DejaVuSans-74" d="M 1172 4494 
L 1172 3500 
L 2356 3500 
L 2356 3053 
L 1172 3053 
L 1172 1153 
Q 1172 725 1289 603 
Q 1406 481 1766 481 
L 2356 481 
L 2356 0 
L 1766 0 
Q 1100 0 847 248 
Q 594 497 594 1153 
L 594 3053 
L 172 3053 
L 172 3500 
L 594 3500 
L 594 4494 
L 1172 4494 
z
" transform="scale(0.015625)"/>
      <path id="DejaVuSans-72" d="M 2631 2963 
Q 2534 3019 2420 3045 
Q 2306 3072 2169 3072 
Q 1681 3072 1420 2755 
Q 1159 2438 1159 1844 
L 1159 0 
L 581 0 
L 581 3500 
L 1159 3500 
L 1159 2956 
Q 1341 3275 1631 3429 
Q 1922 3584 2338 3584 
Q 2397 3584 2469 3576 
Q 2541 3569 2628 3553 
L 2631 2963 
z
" transform="scale(0.015625)"/>
      <path id="DejaVuSans-61" d="M 2194 1759 
Q 1497 1759 1228 1600 
Q 959 1441 959 1056 
Q 959 750 1161 570 
Q 1363 391 1709 391 
Q 2188 391 2477 730 
Q 2766 1069 2766 1631 
L 2766 1759 
L 2194 1759 
z
M 3341 1997 
L 3341 0 
L 2766 0 
L 2766 531 
Q 2569 213 2275 61 
Q 1981 -91 1556 -91 
Q 1019 -91 701 211 
Q 384 513 384 1019 
Q 384 1609 779 1909 
Q 1175 2209 1959 2209 
L 2766 2209 
L 2766 2266 
Q 2766 2663 2505 2880 
Q 2244 3097 1772 3097 
Q 1472 3097 1187 3025 
Q 903 2953 641 2809 
L 641 3341 
Q 956 3463 1253 3523 
Q 1550 3584 1831 3584 
Q 2591 3584 2966 3190 
Q 3341 2797 3341 1997 
z
" transform="scale(0.015625)"/>
      <path id="DejaVuSans-6c" d="M 603 4863 
L 1178 4863 
L 1178 0 
L 603 0 
L 603 4863 
z
" transform="scale(0.015625)"/>
      <path id="DejaVuSans-20" transform="scale(0.015625)"/>
      <path id="DejaVuSans-69" d="M 603 3500 
L 1178 3500 
L 1178 0 
L 603 0 
L 603 3500 
z
M 603 4863 
L 1178 4863 
L 1178 4134 
L 603 4134 
L 603 4863 
z
" transform="scale(0.015625)"/>
      <path id="DejaVuSans-6d" d="M 3328 2828 
Q 3544 3216 3844 3400 
Q 4144 3584 4550 3584 
Q 5097 3584 5394 3201 
Q 5691 2819 5691 2113 
L 5691 0 
L 5113 0 
L 5113 2094 
Q 5113 2597 4934 2840 
Q 4756 3084 4391 3084 
Q 3944 3084 3684 2787 
Q 3425 2491 3425 1978 
L 3425 0 
L 2847 0 
L 2847 2094 
Q 2847 2600 2669 2842 
Q 2491 3084 2119 3084 
Q 1678 3084 1418 2786 
Q 1159 2488 1159 1978 
L 1159 0 
L 581 0 
L 581 3500 
L 1159 3500 
L 1159 2956 
Q 1356 3278 1631 3431 
Q 1906 3584 2284 3584 
Q 2666 3584 2933 3390 
Q 3200 3197 3328 2828 
z
" transform="scale(0.015625)"/>
      <path id="DejaVuSans-68" d="M 3513 2113 
L 3513 0 
L 2938 0 
L 2938 2094 
Q 2938 2591 2744 2837 
Q 2550 3084 2163 3084 
Q 1697 3084 1428 2787 
Q 1159 2491 1159 1978 
L 1159 0 
L 581 0 
L 581 4863 
L 1159 4863 
L 1159 2956 
Q 1366 3272 1645 3428 
Q 1925 3584 2291 3584 
Q 2894 3584 3203 3211 
Q 3513 2838 3513 2113 
z
" transform="scale(0.015625)"/>
      <path id="DejaVuSans-6f" d="M 1959 3097 
Q 1497 3097 1228 2736 
Q 959 2375 959 1747 
Q 959 1119 1226 758 
Q 1494 397 1959 397 
Q 2419 397 2687 759 
Q 2956 1122 2956 1747 
Q 2956 2369 2687 2733 
Q 2419 3097 1959 3097 
z
M 1959 3584 
Q 2709 3584 3137 3096 
Q 3566 2609 3566 1747 
Q 3566 888 3137 398 
Q 2709 -91 1959 -91 
Q 1206 -91 779 398 
Q 353 888 353 1747 
Q 353 2609 779 3096 
Q 1206 3584 1959 3584 
z
" transform="scale(0.015625)"/>
      <path id="DejaVuSans-2c" d="M 750 794 
L 1409 794 
L 1409 256 
L 897 -744 
L 494 -744 
L 750 256 
L 750 794 
z
" transform="scale(0.015625)"/>
      <path id="DejaVuSans-Oblique-6e" d="M 3566 2113 
L 3156 0 
L 2578 0 
L 2988 2091 
Q 3016 2238 3031 2350 
Q 3047 2463 3047 2528 
Q 3047 2791 2881 2937 
Q 2716 3084 2419 3084 
Q 1956 3084 1622 2776 
Q 1288 2469 1184 1941 
L 800 0 
L 225 0 
L 903 3500 
L 1478 3500 
L 1363 2950 
Q 1603 3253 1940 3418 
Q 2278 3584 2650 3584 
Q 3113 3584 3367 3334 
Q 3622 3084 3622 2631 
Q 3622 2519 3608 2391 
Q 3594 2263 3566 2113 
z
" transform="scale(0.015625)"/>
      <path id="DejaVuSans-3d" d="M 678 2906 
L 4684 2906 
L 4684 2381 
L 678 2381 
L 678 2906 
z
M 678 1631 
L 4684 1631 
L 4684 1100 
L 678 1100 
L 678 1631 
z
" transform="scale(0.015625)"/>
     </defs>
     <use xlink:href="#DejaVuSans-43" transform="translate(0 0.015625)"/>
     <use xlink:href="#DejaVuSans-65" transform="translate(69.824219 0.015625)"/>
     <use xlink:href="#DejaVuSans-6e" transform="translate(131.347656 0.015625)"/>
     <use xlink:href="#DejaVuSans-74" transform="translate(194.726562 0.015625)"/>
     <use xlink:href="#DejaVuSans-72" transform="translate(233.935547 0.015625)"/>
     <use xlink:href="#DejaVuSans-61" transform="translate(275.048828 0.015625)"/>
     <use xlink:href="#DejaVuSans-6c" transform="translate(336.328125 0.015625)"/>
     <use xlink:href="#DejaVuSans-20" transform="translate(364.111328 0.015625)"/>
     <use xlink:href="#DejaVuSans-6c" transform="translate(395.898438 0.015625)"/>
     <use xlink:href="#DejaVuSans-69" transform="translate(423.681641 0.015625)"/>
     <use xlink:href="#DejaVuSans-6d" transform="translate(451.464844 0.015625)"/>
     <use xlink:href="#DejaVuSans-69" transform="translate(548.876953 0.015625)"/>
     <use xlink:href="#DejaVuSans-74" transform="translate(576.660156 0.015625)"/>
     <use xlink:href="#DejaVuSans-20" transform="translate(615.869141 0.015625)"/>
     <use xlink:href="#DejaVuSans-74" transform="translate(647.65625 0.015625)"/>
     <use xlink:href="#DejaVuSans-68" transform="translate(686.865234 0.015625)"/>
     <use xlink:href="#DejaVuSans-65" transform="translate(750.244141 0.015625)"/>
     <use xlink:href="#DejaVuSans-6f" transform="translate(811.767578 0.015625)"/>
     <use xlink:href="#DejaVuSans-72" transform="translate(872.949219 0.015625)"/>
     <use xlink:href="#DejaVuSans-65" transform="translate(914.0625 0.015625)"/>
     <use xlink:href="#DejaVuSans-6d" transform="translate(975.585938 0.015625)"/>
     <use xlink:href="#DejaVuSans-2c" transform="translate(1072.998047 0.015625)"/>
     <use xlink:href="#DejaVuSans-20" transform="translate(1104.785156 0.015625)"/>
     <use xlink:href="#DejaVuSans-Oblique-6e" transform="translate(1136.572266 0.015625)"/>
     <use xlink:href="#DejaVuSans-3d" transform="translate(1219.433594 0.015625)"/>
     <use xlink:href="#DejaVuSans-32" transform="translate(1322.705078 0.015625)"/>
     <use xlink:href="#DejaVuSans-30" transform="translate(1386.328125 0.015625)"/>
    </g>
   </g>
   <g id="legend_1">
    <g id="patch_247">
     <path d="M 434.539062 74.3525 
L 525.303125 74.3525 
Q 527.303125 74.3525 527.303125 72.3525 
L 527.303125 29.318125 
Q 527.303125 27.318125 525.303125 27.318125 
L 434.539062 27.318125 
Q 432.539062 27.318125 432.539062 29.318125 
L 432.539062 72.3525 
Q 432.539062 74.3525 434.539062 74.3525 
z
" style="fill: #ffffff; opacity: 0.8; stroke: #cccccc; stroke-linejoin: miter"/>
    </g>
    <g id="patch_248">
     <path d="M 436.539062 38.916562 
L 456.539062 38.916562 
L 456.539062 31.916562 
L 436.539062 31.916562 
z
" style="fill: #ff0000"/>
    </g>
    <g id="text_15">
     <!-- Bin(20, 0.3) -->
     <g transform="translate(464.539062 38.916562) scale(0.1 -0.1)">
      <defs>
       <path id="DejaVuSans-42" d="M 1259 2228 
L 1259 519 
L 2272 519 
Q 2781 519 3026 730 
Q 3272 941 3272 1375 
Q 3272 1813 3026 2020 
Q 2781 2228 2272 2228 
L 1259 2228 
z
M 1259 4147 
L 1259 2741 
L 2194 2741 
Q 2656 2741 2882 2914 
Q 3109 3088 3109 3444 
Q 3109 3797 2882 3972 
Q 2656 4147 2194 4147 
L 1259 4147 
z
M 628 4666 
L 2241 4666 
Q 2963 4666 3353 4366 
Q 3744 4066 3744 3513 
Q 3744 3084 3544 2831 
Q 3344 2578 2956 2516 
Q 3422 2416 3680 2098 
Q 3938 1781 3938 1306 
Q 3938 681 3513 340 
Q 3088 0 2303 0 
L 628 0 
L 628 4666 
z
" transform="scale(0.015625)"/>
       <path id="DejaVuSans-28" d="M 1984 4856 
Q 1566 4138 1362 3434 
Q 1159 2731 1159 2009 
Q 1159 1288 1364 580 
Q 1569 -128 1984 -844 
L 1484 -844 
Q 1016 -109 783 600 
Q 550 1309 550 2009 
Q 550 2706 781 3412 
Q 1013 4119 1484 4856 
L 1984 4856 
z
" transform="scale(0.015625)"/>
       <path id="DejaVuSans-33" d="M 2597 2516 
Q 3050 2419 3304 2112 
Q 3559 1806 3559 1356 
Q 3559 666 3084 287 
Q 2609 -91 1734 -91 
Q 1441 -91 1130 -33 
Q 819 25 488 141 
L 488 750 
Q 750 597 1062 519 
Q 1375 441 1716 441 
Q 2309 441 2620 675 
Q 2931 909 2931 1356 
Q 2931 1769 2642 2001 
Q 2353 2234 1838 2234 
L 1294 2234 
L 1294 2753 
L 1863 2753 
Q 2328 2753 2575 2939 
Q 2822 3125 2822 3475 
Q 2822 3834 2567 4026 
Q 2313 4219 1838 4219 
Q 1578 4219 1281 4162 
Q 984 4106 628 3988 
L 628 4550 
Q 988 4650 1302 4700 
Q 1616 4750 1894 4750 
Q 2613 4750 3031 4423 
Q 3450 4097 3450 3541 
Q 3450 3153 3228 2886 
Q 3006 2619 2597 2516 
z
" transform="scale(0.015625)"/>
       <path id="DejaVuSans-29" d="M 513 4856 
L 1013 4856 
Q 1481 4119 1714 3412 
Q 1947 2706 1947 2009 
Q 1947 1309 1714 600 
Q 1481 -109 1013 -844 
L 513 -844 
Q 928 -128 1133 580 
Q 1338 1288 1338 2009 
Q 1338 2731 1133 3434 
Q 928 4138 513 4856 
z
" transform="scale(0.015625)"/>
      </defs>
      <use xlink:href="#DejaVuSans-42"/>
      <use xlink:href="#DejaVuSans-69" x="68.603516"/>
      <use xlink:href="#DejaVuSans-6e" x="96.386719"/>
      <use xlink:href="#DejaVuSans-28" x="159.765625"/>
      <use xlink:href="#DejaVuSans-32" x="198.779297"/>
      <use xlink:href="#DejaVuSans-30" x="262.402344"/>
      <use xlink:href="#DejaVuSans-2c" x="326.025391"/>
      <use xlink:href="#DejaVuSans-20" x="357.8125"/>
      <use xlink:href="#DejaVuSans-30" x="389.599609"/>
      <use xlink:href="#DejaVuSans-2e" x="453.222656"/>
      <use xlink:href="#DejaVuSans-33" x="485.009766"/>
      <use xlink:href="#DejaVuSans-29" x="548.632812"/>
     </g>
    </g>
    <g id="patch_249">
     <path d="M 436.539062 53.594688 
L 456.539062 53.594688 
L 456.539062 46.594688 
L 436.539062 46.594688 
z
" style="fill: #ffa500"/>
    </g>
    <g id="text_16">
     <!-- Pois(10) -->
     <g transform="translate(464.539062 53.594688) scale(0.1 -0.1)">
      <defs>
       <path id="DejaVuSans-50" d="M 1259 4147 
L 1259 2394 
L 2053 2394 
Q 2494 2394 2734 2622 
Q 2975 2850 2975 3272 
Q 2975 3691 2734 3919 
Q 2494 4147 2053 4147 
L 1259 4147 
z
M 628 4666 
L 2053 4666 
Q 2838 4666 3239 4311 
Q 3641 3956 3641 3272 
Q 3641 2581 3239 2228 
Q 2838 1875 2053 1875 
L 1259 1875 
L 1259 0 
L 628 0 
L 628 4666 
z
" transform="scale(0.015625)"/>
       <path id="DejaVuSans-73" d="M 2834 3397 
L 2834 2853 
Q 2591 2978 2328 3040 
Q 2066 3103 1784 3103 
Q 1356 3103 1142 2972 
Q 928 2841 928 2578 
Q 928 2378 1081 2264 
Q 1234 2150 1697 2047 
L 1894 2003 
Q 2506 1872 2764 1633 
Q 3022 1394 3022 966 
Q 3022 478 2636 193 
Q 2250 -91 1575 -91 
Q 1294 -91 989 -36 
Q 684 19 347 128 
L 347 722 
Q 666 556 975 473 
Q 1284 391 1588 391 
Q 1994 391 2212 530 
Q 2431 669 2431 922 
Q 2431 1156 2273 1281 
Q 2116 1406 1581 1522 
L 1381 1569 
Q 847 1681 609 1914 
Q 372 2147 372 2553 
Q 372 3047 722 3315 
Q 1072 3584 1716 3584 
Q 2034 3584 2315 3537 
Q 2597 3491 2834 3397 
z
" transform="scale(0.015625)"/>
      </defs>
      <use xlink:href="#DejaVuSans-50"/>
      <use xlink:href="#DejaVuSans-6f" x="56.677734"/>
      <use xlink:href="#DejaVuSans-69" x="117.859375"/>
      <use xlink:href="#DejaVuSans-73" x="145.642578"/>
      <use xlink:href="#DejaVuSans-28" x="197.742188"/>
      <use xlink:href="#DejaVuSans-31" x="236.755859"/>
      <use xlink:href="#DejaVuSans-30" x="300.378906"/>
      <use xlink:href="#DejaVuSans-29" x="364.001953"/>
     </g>
    </g>
    <g id="patch_250">
     <path d="M 436.539062 68.272812 
L 456.539062 68.272812 
L 456.539062 61.272812 
L 436.539062 61.272812 
z
" style="fill: #bf00bf"/>
    </g>
    <g id="text_17">
     <!-- Geom(0.4) -->
     <g transform="translate(464.539062 68.272812) scale(0.1 -0.1)">
      <defs>
       <path id="DejaVuSans-47" d="M 3809 666 
L 3809 1919 
L 2778 1919 
L 2778 2438 
L 4434 2438 
L 4434 434 
Q 4069 175 3628 42 
Q 3188 -91 2688 -91 
Q 1594 -91 976 548 
Q 359 1188 359 2328 
Q 359 3472 976 4111 
Q 1594 4750 2688 4750 
Q 3144 4750 3555 4637 
Q 3966 4525 4313 4306 
L 4313 3634 
Q 3963 3931 3569 4081 
Q 3175 4231 2741 4231 
Q 1884 4231 1454 3753 
Q 1025 3275 1025 2328 
Q 1025 1384 1454 906 
Q 1884 428 2741 428 
Q 3075 428 3337 486 
Q 3600 544 3809 666 
z
" transform="scale(0.015625)"/>
      </defs>
      <use xlink:href="#DejaVuSans-47"/>
      <use xlink:href="#DejaVuSans-65" x="77.490234"/>
      <use xlink:href="#DejaVuSans-6f" x="139.013672"/>
      <use xlink:href="#DejaVuSans-6d" x="200.195312"/>
      <use xlink:href="#DejaVuSans-28" x="297.607422"/>
      <use xlink:href="#DejaVuSans-30" x="336.621094"/>
      <use xlink:href="#DejaVuSans-2e" x="400.244141"/>
      <use xlink:href="#DejaVuSans-34" x="432.03125"/>
      <use xlink:href="#DejaVuSans-29" x="495.654297"/>
     </g>
    </g>
   </g>
  </g>
 </g>
 <defs>
  <clipPath id="p5d29e67924">
   <rect x="30.103125" y="22.318125" width="502.2" height="277.2"/>
  </clipPath>
 </defs>
</svg>