<?xml version="1.0" encoding="UTF-8" standalone="no"?>
<!DOCTYPE svg PUBLIC "-//W3C//DTD SVG 1.1//EN"
 "http://www.w3.org/Graphics/SVG/1.1/DTD/svg11.dtd">
<!-- Generated by graphviz version 11.0.0 (20240428.1522)
 -->
<!-- Title: Tree Pages: 1 -->
<svg width="4060pt" height="581pt"
 viewBox="0.00 0.00 4059.75 581.00" xmlns="http://www.w3.org/2000/svg" xmlns:xlink="http://www.w3.org/1999/xlink">
<g id="graph0" class="graph" transform="scale(1 1) rotate(0) translate(4 577)">
<title>Tree</title>
<polygon fill="white" stroke="none" points="-4,4 -4,-577 4055.75,-577 4055.75,4 -4,4"/>
<!-- 0 -->
<g id="node1" class="node">
<title>0</title>
<path fill="#f7d6be" stroke="black" d="M2076.5,-573C2076.5,-573 1942.75,-573 1942.75,-573 1936.75,-573 1930.75,-567 1930.75,-561 1930.75,-561 1930.75,-517 1930.75,-517 1930.75,-511 1936.75,-505 1942.75,-505 1942.75,-505 2076.5,-505 2076.5,-505 2082.5,-505 2088.5,-511 2088.5,-517 2088.5,-517 2088.5,-561 2088.5,-561 2088.5,-567 2082.5,-573 2076.5,-573"/>
<text text-anchor="start" x="1977" y="-555.7" font-family="Helvetica,sans-Serif" font-size="14.00">rm ≤ 6.797</text>
<text text-anchor="start" x="1938.75" y="-540.7" font-family="Helvetica,sans-Serif" font-size="14.00">squared_error = 82.991</text>
<text text-anchor="start" x="1965" y="-525.7" font-family="Helvetica,sans-Serif" font-size="14.00">samples = 404</text>
<text text-anchor="start" x="1965" y="-510.7" font-family="Helvetica,sans-Serif" font-size="14.00">value = 22.494</text>
</g>
<!-- 1 -->
<g id="node2" class="node">
<title>1</title>
<path fill="#f8dfcd" stroke="black" d="M1496.5,-469C1496.5,-469 1362.75,-469 1362.75,-469 1356.75,-469 1350.75,-463 1350.75,-457 1350.75,-457 1350.75,-413 1350.75,-413 1350.75,-407 1356.75,-401 1362.75,-401 1362.75,-401 1496.5,-401 1496.5,-401 1502.5,-401 1508.5,-407 1508.5,-413 1508.5,-413 1508.5,-457 1508.5,-457 1508.5,-463 1502.5,-469 1496.5,-469"/>
<text text-anchor="start" x="1389.12" y="-451.7" font-family="Helvetica,sans-Serif" font-size="14.00">lstat ≤ 14.395</text>
<text text-anchor="start" x="1358.75" y="-436.7" font-family="Helvetica,sans-Serif" font-size="14.00">squared_error = 37.554</text>
<text text-anchor="start" x="1385" y="-421.7" font-family="Helvetica,sans-Serif" font-size="14.00">samples = 330</text>
<text text-anchor="start" x="1385" y="-406.7" font-family="Helvetica,sans-Serif" font-size="14.00">value = 19.544</text>
</g>
<!-- 0&#45;&gt;1 -->
<g id="edge1" class="edge">
<title>0&#45;&gt;1</title>
<path fill="none" stroke="black" d="M1930.5,-524.08C1823.36,-505.24 1632.62,-471.7 1519.97,-451.89"/>
<polygon fill="black" stroke="black" points="1520.6,-448.44 1510.14,-450.16 1519.38,-455.34 1520.6,-448.44"/>
<text text-anchor="middle" x="1523" y="-464.57" font-family="Helvetica,sans-Serif" font-size="14.00">True</text>
</g>
<!-- 28 -->
<g id="node29" class="node">
<title>28</title>
<path fill="#eead7f" stroke="black" d="M2528.5,-469C2528.5,-469 2394.75,-469 2394.75,-469 2388.75,-469 2382.75,-463 2382.75,-457 2382.75,-457 2382.75,-413 2382.75,-413 2382.75,-407 2388.75,-401 2394.75,-401 2394.75,-401 2528.5,-401 2528.5,-401 2534.5,-401 2540.5,-407 2540.5,-413 2540.5,-413 2540.5,-457 2540.5,-457 2540.5,-463 2534.5,-469 2528.5,-469"/>
<text text-anchor="start" x="2429" y="-451.7" font-family="Helvetica,sans-Serif" font-size="14.00">rm ≤ 7.437</text>
<text text-anchor="start" x="2390.75" y="-436.7" font-family="Helvetica,sans-Serif" font-size="14.00">squared_error = 73.757</text>
<text text-anchor="start" x="2420.75" y="-421.7" font-family="Helvetica,sans-Serif" font-size="14.00">samples = 74</text>
<text text-anchor="start" x="2417" y="-406.7" font-family="Helvetica,sans-Serif" font-size="14.00">value = 35.649</text>
</g>
<!-- 0&#45;&gt;28 -->
<g id="edge28" class="edge">
<title>0&#45;&gt;28</title>
<path fill="none" stroke="black" d="M2088.87,-520.12C2167.79,-502.31 2288.75,-475.01 2371.33,-456.38"/>
<polygon fill="black" stroke="black" points="2372.01,-459.81 2380.99,-454.2 2370.46,-452.98 2372.01,-459.81"/>
<text text-anchor="middle" x="2369.11" y="-469.2" font-family="Helvetica,sans-Serif" font-size="14.00">False</text>
</g>
<!-- 2 -->
<g id="node3" class="node">
<title>2</title>
<path fill="#f6d4bc" stroke="black" d="M543.5,-365C543.5,-365 409.75,-365 409.75,-365 403.75,-365 397.75,-359 397.75,-353 397.75,-353 397.75,-309 397.75,-309 397.75,-303 403.75,-297 409.75,-297 409.75,-297 543.5,-297 543.5,-297 549.5,-297 555.5,-303 555.5,-309 555.5,-309 555.5,-353 555.5,-353 555.5,-359 549.5,-365 543.5,-365"/>
<text text-anchor="start" x="443.62" y="-347.7" font-family="Helvetica,sans-Serif" font-size="14.00">dis ≤ 1.385</text>
<text text-anchor="start" x="405.75" y="-332.7" font-family="Helvetica,sans-Serif" font-size="14.00">squared_error = 23.444</text>
<text text-anchor="start" x="432" y="-317.7" font-family="Helvetica,sans-Serif" font-size="14.00">samples = 192</text>
<text text-anchor="start" x="432" y="-302.7" font-family="Helvetica,sans-Serif" font-size="14.00">value = 22.954</text>
</g>
<!-- 1&#45;&gt;2 -->
<g id="edge2" class="edge">
<title>1&#45;&gt;2</title>
<path fill="none" stroke="black" d="M1350.42,-425.52C1174.66,-406.71 752.91,-361.57 567.12,-341.69"/>
<polygon fill="black" stroke="black" points="567.58,-338.22 557.27,-340.63 566.84,-345.18 567.58,-338.22"/>
</g>
<!-- 13 -->
<g id="node14" class="node">
<title>13</title>
<path fill="#fbeee4" stroke="black" d="M1496.5,-365C1496.5,-365 1362.75,-365 1362.75,-365 1356.75,-365 1350.75,-359 1350.75,-353 1350.75,-353 1350.75,-309 1350.75,-309 1350.75,-303 1356.75,-297 1362.75,-297 1362.75,-297 1496.5,-297 1496.5,-297 1502.5,-297 1508.5,-303 1508.5,-309 1508.5,-309 1508.5,-353 1508.5,-353 1508.5,-359 1502.5,-365 1496.5,-365"/>
<text text-anchor="start" x="1392.12" y="-347.7" font-family="Helvetica,sans-Serif" font-size="14.00">crim ≤ 7.465</text>
<text text-anchor="start" x="1358.75" y="-332.7" font-family="Helvetica,sans-Serif" font-size="14.00">squared_error = 18.494</text>
<text text-anchor="start" x="1385" y="-317.7" font-family="Helvetica,sans-Serif" font-size="14.00">samples = 138</text>
<text text-anchor="start" x="1385" y="-302.7" font-family="Helvetica,sans-Serif" font-size="14.00">value = 14.799</text>
</g>
<!-- 1&#45;&gt;13 -->
<g id="edge13" class="edge">
<title>1&#45;&gt;13</title>
<path fill="none" stroke="black" d="M1429.62,-400.6C1429.62,-393.03 1429.62,-384.87 1429.62,-376.9"/>
<polygon fill="black" stroke="black" points="1433.13,-376.99 1429.63,-366.99 1426.13,-376.99 1433.13,-376.99"/>
</g>
<!-- 3 -->
<g id="node4" class="node">
<title>3</title>
<path fill="#e99254" stroke="black" d="M290.5,-261C290.5,-261 156.75,-261 156.75,-261 150.75,-261 144.75,-255 144.75,-249 144.75,-249 144.75,-205 144.75,-205 144.75,-199 150.75,-193 156.75,-193 156.75,-193 290.5,-193 290.5,-193 296.5,-193 302.5,-199 302.5,-205 302.5,-205 302.5,-249 302.5,-249 302.5,-255 296.5,-261 290.5,-261"/>
<text text-anchor="start" x="182.38" y="-243.7" font-family="Helvetica,sans-Serif" font-size="14.00">crim ≤ 10.592</text>
<text text-anchor="start" x="152.75" y="-228.7" font-family="Helvetica,sans-Serif" font-size="14.00">squared_error = 91.577</text>
<text text-anchor="start" x="186.5" y="-213.7" font-family="Helvetica,sans-Serif" font-size="14.00">samples = 4</text>
<text text-anchor="start" x="179" y="-198.7" font-family="Helvetica,sans-Serif" font-size="14.00">value = 44.475</text>
</g>
<!-- 2&#45;&gt;3 -->
<g id="edge3" class="edge">
<title>2&#45;&gt;3</title>
<path fill="none" stroke="black" d="M397.27,-298.01C370.54,-287.23 340.54,-275.13 313.08,-264.07"/>
<polygon fill="black" stroke="black" points="314.69,-260.94 304.1,-260.45 312.07,-267.43 314.69,-260.94"/>
</g>
<!-- 6 -->
<g id="node7" class="node">
<title>6</title>
<path fill="#f7d6be" stroke="black" d="M539.75,-261C539.75,-261 413.5,-261 413.5,-261 407.5,-261 401.5,-255 401.5,-249 401.5,-249 401.5,-205 401.5,-205 401.5,-199 407.5,-193 413.5,-193 413.5,-193 539.75,-193 539.75,-193 545.75,-193 551.75,-199 551.75,-205 551.75,-205 551.75,-249 551.75,-249 551.75,-255 545.75,-261 539.75,-261"/>
<text text-anchor="start" x="444" y="-243.7" font-family="Helvetica,sans-Serif" font-size="14.00">rm ≤ 6.543</text>
<text text-anchor="start" x="409.5" y="-228.7" font-family="Helvetica,sans-Serif" font-size="14.00">squared_error = 11.93</text>
<text text-anchor="start" x="432" y="-213.7" font-family="Helvetica,sans-Serif" font-size="14.00">samples = 188</text>
<text text-anchor="start" x="432" y="-198.7" font-family="Helvetica,sans-Serif" font-size="14.00">value = 22.496</text>
</g>
<!-- 2&#45;&gt;6 -->
<g id="edge6" class="edge">
<title>2&#45;&gt;6</title>
<path fill="none" stroke="black" d="M476.62,-296.6C476.62,-289.03 476.62,-280.87 476.62,-272.9"/>
<polygon fill="black" stroke="black" points="480.13,-272.99 476.63,-262.99 473.13,-272.99 480.13,-272.99"/>
</g>
<!-- 4 -->
<g id="node5" class="node">
<title>4</title>
<path fill="#e58139" stroke="black" d="M123.25,-149.5C123.25,-149.5 12,-149.5 12,-149.5 6,-149.5 0,-143.5 0,-137.5 0,-137.5 0,-108.5 0,-108.5 0,-102.5 6,-96.5 12,-96.5 12,-96.5 123.25,-96.5 123.25,-96.5 129.25,-96.5 135.25,-102.5 135.25,-108.5 135.25,-108.5 135.25,-137.5 135.25,-137.5 135.25,-143.5 129.25,-149.5 123.25,-149.5"/>
<text text-anchor="start" x="8" y="-132.2" font-family="Helvetica,sans-Serif" font-size="14.00">squared_error = 0.0</text>
<text text-anchor="start" x="30.5" y="-117.2" font-family="Helvetica,sans-Serif" font-size="14.00">samples = 3</text>
<text text-anchor="start" x="30.5" y="-102.2" font-family="Helvetica,sans-Serif" font-size="14.00">value = 50.0</text>
</g>
<!-- 3&#45;&gt;4 -->
<g id="edge4" class="edge">
<title>3&#45;&gt;4</title>
<path fill="none" stroke="black" d="M172.54,-192.6C154.63,-180.89 134.55,-167.76 116.79,-156.14"/>
<polygon fill="black" stroke="black" points="118.74,-153.24 108.46,-150.7 114.91,-159.1 118.74,-153.24"/>
</g>
<!-- 5 -->
<g id="node6" class="node">
<title>5</title>
<path fill="#f3c5a4" stroke="black" d="M281.5,-149.5C281.5,-149.5 165.75,-149.5 165.75,-149.5 159.75,-149.5 153.75,-143.5 153.75,-137.5 153.75,-137.5 153.75,-108.5 153.75,-108.5 153.75,-102.5 159.75,-96.5 165.75,-96.5 165.75,-96.5 281.5,-96.5 281.5,-96.5 287.5,-96.5 293.5,-102.5 293.5,-108.5 293.5,-108.5 293.5,-137.5 293.5,-137.5 293.5,-143.5 287.5,-149.5 281.5,-149.5"/>
<text text-anchor="start" x="161.75" y="-132.2" font-family="Helvetica,sans-Serif" font-size="14.00">squared_error = &#45;0.0</text>
<text text-anchor="start" x="186.5" y="-117.2" font-family="Helvetica,sans-Serif" font-size="14.00">samples = 1</text>
<text text-anchor="start" x="186.5" y="-102.2" font-family="Helvetica,sans-Serif" font-size="14.00">value = 27.9</text>
</g>
<!-- 3&#45;&gt;5 -->
<g id="edge5" class="edge">
<title>3&#45;&gt;5</title>
<path fill="none" stroke="black" d="M223.62,-192.6C223.62,-182.47 223.62,-171.28 223.62,-160.93"/>
<polygon fill="black" stroke="black" points="227.13,-161.22 223.63,-151.22 220.13,-161.22 227.13,-161.22"/>
</g>
<!-- 7 -->
<g id="node8" class="node">
<title>7</title>
<path fill="#f7d9c3" stroke="black" d="M449.75,-157C449.75,-157 323.5,-157 323.5,-157 317.5,-157 311.5,-151 311.5,-145 311.5,-145 311.5,-101 311.5,-101 311.5,-95 317.5,-89 323.5,-89 323.5,-89 449.75,-89 449.75,-89 455.75,-89 461.75,-95 461.75,-101 461.75,-101 461.75,-145 461.75,-145 461.75,-151 455.75,-157 449.75,-157"/>
<text text-anchor="start" x="353.62" y="-139.7" font-family="Helvetica,sans-Serif" font-size="14.00">lstat ≤ 7.57</text>
<text text-anchor="start" x="319.5" y="-124.7" font-family="Helvetica,sans-Serif" font-size="14.00">squared_error = 7.474</text>
<text text-anchor="start" x="342" y="-109.7" font-family="Helvetica,sans-Serif" font-size="14.00">samples = 157</text>
<text text-anchor="start" x="345.75" y="-94.7" font-family="Helvetica,sans-Serif" font-size="14.00">value = 21.62</text>
</g>
<!-- 6&#45;&gt;7 -->
<g id="edge7" class="edge">
<title>6&#45;&gt;7</title>
<path fill="none" stroke="black" d="M447.16,-192.6C439.62,-184.06 431.42,-174.77 423.56,-165.86"/>
<polygon fill="black" stroke="black" points="426.4,-163.79 417.16,-158.61 421.15,-168.42 426.4,-163.79"/>
</g>
<!-- 10 -->
<g id="node11" class="node">
<title>10</title>
<path fill="#f4c8a9" stroke="black" d="M625.5,-157C625.5,-157 491.75,-157 491.75,-157 485.75,-157 479.75,-151 479.75,-145 479.75,-145 479.75,-101 479.75,-101 479.75,-95 485.75,-89 491.75,-89 491.75,-89 625.5,-89 625.5,-89 631.5,-89 637.5,-95 637.5,-101 637.5,-101 637.5,-145 637.5,-145 637.5,-151 631.5,-157 625.5,-157"/>
<text text-anchor="start" x="523.38" y="-139.7" font-family="Helvetica,sans-Serif" font-size="14.00">nox ≤ 0.526</text>
<text text-anchor="start" x="487.75" y="-124.7" font-family="Helvetica,sans-Serif" font-size="14.00">squared_error = 10.938</text>
<text text-anchor="start" x="517.75" y="-109.7" font-family="Helvetica,sans-Serif" font-size="14.00">samples = 31</text>
<text text-anchor="start" x="514" y="-94.7" font-family="Helvetica,sans-Serif" font-size="14.00">value = 26.932</text>
</g>
<!-- 6&#45;&gt;10 -->
<g id="edge10" class="edge">
<title>6&#45;&gt;10</title>
<path fill="none" stroke="black" d="M503.47,-192.6C510.2,-184.24 517.5,-175.15 524.53,-166.41"/>
<polygon fill="black" stroke="black" points="527.23,-168.64 530.77,-158.65 521.77,-164.25 527.23,-168.64"/>
</g>
<!-- 8 -->
<g id="node9" class="node">
<title>8</title>
<path fill="#f6d1b7" stroke="black" d="M281.75,-53C281.75,-53 155.5,-53 155.5,-53 149.5,-53 143.5,-47 143.5,-41 143.5,-41 143.5,-12 143.5,-12 143.5,-6 149.5,0 155.5,0 155.5,0 281.75,0 281.75,0 287.75,0 293.75,-6 293.75,-12 293.75,-12 293.75,-41 293.75,-41 293.75,-47 287.75,-53 281.75,-53"/>
<text text-anchor="start" x="151.5" y="-35.7" font-family="Helvetica,sans-Serif" font-size="14.00">squared_error = 2.733</text>
<text text-anchor="start" x="177.75" y="-20.7" font-family="Helvetica,sans-Serif" font-size="14.00">samples = 33</text>
<text text-anchor="start" x="174" y="-5.7" font-family="Helvetica,sans-Serif" font-size="14.00">value = 24.018</text>
</g>
<!-- 7&#45;&gt;8 -->
<g id="edge8" class="edge">
<title>7&#45;&gt;8</title>
<path fill="none" stroke="black" d="M327.39,-88.68C310.18,-79 291.44,-68.46 274.44,-58.9"/>
<polygon fill="black" stroke="black" points="276.41,-55.99 265.98,-54.14 272.98,-62.09 276.41,-55.99"/>
</g>
<!-- 9 -->
<g id="node10" class="node">
<title>9</title>
<path fill="#f7dac6" stroke="black" d="M449.75,-53C449.75,-53 323.5,-53 323.5,-53 317.5,-53 311.5,-47 311.5,-41 311.5,-41 311.5,-12 311.5,-12 311.5,-6 317.5,0 323.5,0 323.5,0 449.75,0 449.75,0 455.75,0 461.75,-6 461.75,-12 461.75,-12 461.75,-41 461.75,-41 461.75,-47 455.75,-53 449.75,-53"/>
<text text-anchor="start" x="319.5" y="-35.7" font-family="Helvetica,sans-Serif" font-size="14.00">squared_error = 6.798</text>
<text text-anchor="start" x="342" y="-20.7" font-family="Helvetica,sans-Serif" font-size="14.00">samples = 124</text>
<text text-anchor="start" x="342" y="-5.7" font-family="Helvetica,sans-Serif" font-size="14.00">value = 20.982</text>
</g>
<!-- 7&#45;&gt;9 -->
<g id="edge9" class="edge">
<title>7&#45;&gt;9</title>
<path fill="none" stroke="black" d="M386.62,-88.68C386.62,-80.99 386.62,-72.76 386.62,-64.9"/>
<polygon fill="black" stroke="black" points="390.13,-64.91 386.63,-54.91 383.13,-64.91 390.13,-64.91"/>
</g>
<!-- 11 -->
<g id="node12" class="node">
<title>11</title>
<path fill="#f3c5a3" stroke="black" d="M617.75,-53C617.75,-53 491.5,-53 491.5,-53 485.5,-53 479.5,-47 479.5,-41 479.5,-41 479.5,-12 479.5,-12 479.5,-6 485.5,0 491.5,0 491.5,0 617.75,0 617.75,0 623.75,0 629.75,-6 629.75,-12 629.75,-12 629.75,-41 629.75,-41 629.75,-47 623.75,-53 617.75,-53"/>
<text text-anchor="start" x="487.5" y="-35.7" font-family="Helvetica,sans-Serif" font-size="14.00">squared_error = 8.141</text>
<text text-anchor="start" x="513.75" y="-20.7" font-family="Helvetica,sans-Serif" font-size="14.00">samples = 23</text>
<text text-anchor="start" x="510" y="-5.7" font-family="Helvetica,sans-Serif" font-size="14.00">value = 28.074</text>
</g>
<!-- 10&#45;&gt;11 -->
<g id="edge11" class="edge">
<title>10&#45;&gt;11</title>
<path fill="none" stroke="black" d="M557.21,-88.68C556.89,-80.9 556.53,-72.56 556.2,-64.63"/>
<polygon fill="black" stroke="black" points="559.7,-64.75 555.79,-54.91 552.71,-65.05 559.7,-64.75"/>
</g>
<!-- 12 -->
<g id="node13" class="node">
<title>12</title>
<path fill="#f6d2b9" stroke="black" d="M779,-53C779,-53 660.25,-53 660.25,-53 654.25,-53 648.25,-47 648.25,-41 648.25,-41 648.25,-12 648.25,-12 648.25,-6 654.25,0 660.25,0 660.25,0 779,0 779,0 785,0 791,-6 791,-12 791,-12 791,-41 791,-41 791,-47 785,-53 779,-53"/>
<text text-anchor="start" x="656.25" y="-35.7" font-family="Helvetica,sans-Serif" font-size="14.00">squared_error = 4.46</text>
<text text-anchor="start" x="682.5" y="-20.7" font-family="Helvetica,sans-Serif" font-size="14.00">samples = 8</text>
<text text-anchor="start" x="678.75" y="-5.7" font-family="Helvetica,sans-Serif" font-size="14.00">value = 23.65</text>
</g>
<!-- 10&#45;&gt;12 -->
<g id="edge12" class="edge">
<title>10&#45;&gt;12</title>
<path fill="none" stroke="black" d="M615.39,-88.68C631.73,-79.09 649.51,-68.65 665.68,-59.16"/>
<polygon fill="black" stroke="black" points="667.35,-62.24 674.2,-54.16 663.81,-56.2 667.35,-62.24"/>
</g>
<!-- 14 -->
<g id="node15" class="node">
<title>14</title>
<path fill="#fae6d8" stroke="black" d="M1365.75,-261C1365.75,-261 1239.5,-261 1239.5,-261 1233.5,-261 1227.5,-255 1227.5,-249 1227.5,-249 1227.5,-205 1227.5,-205 1227.5,-199 1233.5,-193 1239.5,-193 1239.5,-193 1365.75,-193 1365.75,-193 1371.75,-193 1377.75,-199 1377.75,-205 1377.75,-205 1377.75,-249 1377.75,-249 1377.75,-255 1371.75,-261 1365.75,-261"/>
<text text-anchor="start" x="1265.12" y="-243.7" font-family="Helvetica,sans-Serif" font-size="14.00">crim ≤ 0.199</text>
<text text-anchor="start" x="1235.5" y="-228.7" font-family="Helvetica,sans-Serif" font-size="14.00">squared_error = 9.947</text>
<text text-anchor="start" x="1261.75" y="-213.7" font-family="Helvetica,sans-Serif" font-size="14.00">samples = 83</text>
<text text-anchor="start" x="1258" y="-198.7" font-family="Helvetica,sans-Serif" font-size="14.00">value = 17.096</text>
</g>
<!-- 13&#45;&gt;14 -->
<g id="edge14" class="edge">
<title>13&#45;&gt;14</title>
<path fill="none" stroke="black" d="M1388.04,-296.6C1376.86,-287.62 1364.64,-277.81 1353.03,-268.49"/>
<polygon fill="black" stroke="black" points="1355.47,-265.95 1345.48,-262.42 1351.09,-271.41 1355.47,-265.95"/>
</g>
<!-- 21 -->
<g id="node22" class="node">
<title>21</title>
<path fill="#fef8f4" stroke="black" d="M1704.5,-261C1704.5,-261 1570.75,-261 1570.75,-261 1564.75,-261 1558.75,-255 1558.75,-249 1558.75,-249 1558.75,-205 1558.75,-205 1558.75,-199 1564.75,-193 1570.75,-193 1570.75,-193 1704.5,-193 1704.5,-193 1710.5,-193 1716.5,-199 1716.5,-205 1716.5,-205 1716.5,-249 1716.5,-249 1716.5,-255 1710.5,-261 1704.5,-261"/>
<text text-anchor="start" x="1604.62" y="-243.7" font-family="Helvetica,sans-Serif" font-size="14.00">dis ≤ 2.028</text>
<text text-anchor="start" x="1566.75" y="-228.7" font-family="Helvetica,sans-Serif" font-size="14.00">squared_error = 11.413</text>
<text text-anchor="start" x="1596.75" y="-213.7" font-family="Helvetica,sans-Serif" font-size="14.00">samples = 55</text>
<text text-anchor="start" x="1593" y="-198.7" font-family="Helvetica,sans-Serif" font-size="14.00">value = 11.333</text>
</g>
<!-- 13&#45;&gt;21 -->
<g id="edge21" class="edge">
<title>13&#45;&gt;21</title>
<path fill="none" stroke="black" d="M1497.73,-296.6C1517.39,-286.96 1539.01,-276.36 1559.24,-266.44"/>
<polygon fill="black" stroke="black" points="1560.57,-269.69 1568.01,-262.14 1557.49,-263.4 1560.57,-269.69"/>
</g>
<!-- 15 -->
<g id="node16" class="node">
<title>15</title>
<path fill="#f8decb" stroke="black" d="M1115.75,-157C1115.75,-157 989.5,-157 989.5,-157 983.5,-157 977.5,-151 977.5,-145 977.5,-145 977.5,-101 977.5,-101 977.5,-95 983.5,-89 989.5,-89 989.5,-89 1115.75,-89 1115.75,-89 1121.75,-89 1127.75,-95 1127.75,-101 1127.75,-101 1127.75,-145 1127.75,-145 1127.75,-151 1121.75,-157 1115.75,-157"/>
<text text-anchor="start" x="1020" y="-139.7" font-family="Helvetica,sans-Serif" font-size="14.00">rm ≤ 6.025</text>
<text text-anchor="start" x="985.5" y="-124.7" font-family="Helvetica,sans-Serif" font-size="14.00">squared_error = 8.794</text>
<text text-anchor="start" x="1011.75" y="-109.7" font-family="Helvetica,sans-Serif" font-size="14.00">samples = 20</text>
<text text-anchor="start" x="1008" y="-94.7" font-family="Helvetica,sans-Serif" font-size="14.00">value = 19.955</text>
</g>
<!-- 14&#45;&gt;15 -->
<g id="edge15" class="edge">
<title>14&#45;&gt;15</title>
<path fill="none" stroke="black" d="M1227.28,-195.26C1199.36,-183.87 1167.51,-170.87 1138.71,-159.12"/>
<polygon fill="black" stroke="black" points="1140.23,-155.96 1129.65,-155.43 1137.59,-162.44 1140.23,-155.96"/>
</g>
<!-- 18 -->
<g id="node19" class="node">
<title>18</title>
<path fill="#fbe9dd" stroke="black" d="M1365.75,-157C1365.75,-157 1239.5,-157 1239.5,-157 1233.5,-157 1227.5,-151 1227.5,-145 1227.5,-145 1227.5,-101 1227.5,-101 1227.5,-95 1233.5,-89 1239.5,-89 1239.5,-89 1365.75,-89 1365.75,-89 1371.75,-89 1377.75,-95 1377.75,-101 1377.75,-101 1377.75,-145 1377.75,-145 1377.75,-151 1371.75,-157 1365.75,-157"/>
<text text-anchor="start" x="1270.75" y="-139.7" font-family="Helvetica,sans-Serif" font-size="14.00">age ≤ 84.9</text>
<text text-anchor="start" x="1235.5" y="-124.7" font-family="Helvetica,sans-Serif" font-size="14.00">squared_error = 6.895</text>
<text text-anchor="start" x="1261.75" y="-109.7" font-family="Helvetica,sans-Serif" font-size="14.00">samples = 63</text>
<text text-anchor="start" x="1258" y="-94.7" font-family="Helvetica,sans-Serif" font-size="14.00">value = 16.189</text>
</g>
<!-- 14&#45;&gt;18 -->
<g id="edge18" class="edge">
<title>14&#45;&gt;18</title>
<path fill="none" stroke="black" d="M1302.62,-192.6C1302.62,-185.03 1302.62,-176.87 1302.62,-168.9"/>
<polygon fill="black" stroke="black" points="1306.13,-168.99 1302.63,-158.99 1299.13,-168.99 1306.13,-168.99"/>
</g>
<!-- 16 -->
<g id="node17" class="node">
<title>16</title>
<path fill="#f9e0ce" stroke="black" d="M947.75,-53C947.75,-53 821.5,-53 821.5,-53 815.5,-53 809.5,-47 809.5,-41 809.5,-41 809.5,-12 809.5,-12 809.5,-6 815.5,0 821.5,0 821.5,0 947.75,0 947.75,0 953.75,0 959.75,-6 959.75,-12 959.75,-12 959.75,-41 959.75,-41 959.75,-47 953.75,-53 947.75,-53"/>
<text text-anchor="start" x="817.5" y="-35.7" font-family="Helvetica,sans-Serif" font-size="14.00">squared_error = 5.423</text>
<text text-anchor="start" x="843.75" y="-20.7" font-family="Helvetica,sans-Serif" font-size="14.00">samples = 18</text>
<text text-anchor="start" x="840" y="-5.7" font-family="Helvetica,sans-Serif" font-size="14.00">value = 19.311</text>
</g>
<!-- 15&#45;&gt;16 -->
<g id="edge16" class="edge">
<title>15&#45;&gt;16</title>
<path fill="none" stroke="black" d="M993.39,-88.68C976.18,-79 957.44,-68.46 940.44,-58.9"/>
<polygon fill="black" stroke="black" points="942.41,-55.99 931.98,-54.14 938.98,-62.09 942.41,-55.99"/>
</g>
<!-- 17 -->
<g id="node18" class="node">
<title>17</title>
<path fill="#f4ccaf" stroke="black" d="M1115.75,-53C1115.75,-53 989.5,-53 989.5,-53 983.5,-53 977.5,-47 977.5,-41 977.5,-41 977.5,-12 977.5,-12 977.5,-6 983.5,0 989.5,0 989.5,0 1115.75,0 1115.75,0 1121.75,0 1127.75,-6 1127.75,-12 1127.75,-12 1127.75,-41 1127.75,-41 1127.75,-47 1121.75,-53 1115.75,-53"/>
<text text-anchor="start" x="985.5" y="-35.7" font-family="Helvetica,sans-Serif" font-size="14.00">squared_error = 1.823</text>
<text text-anchor="start" x="1015.5" y="-20.7" font-family="Helvetica,sans-Serif" font-size="14.00">samples = 2</text>
<text text-anchor="start" x="1011.75" y="-5.7" font-family="Helvetica,sans-Serif" font-size="14.00">value = 25.75</text>
</g>
<!-- 15&#45;&gt;17 -->
<g id="edge17" class="edge">
<title>15&#45;&gt;17</title>
<path fill="none" stroke="black" d="M1052.62,-88.68C1052.62,-80.99 1052.62,-72.76 1052.62,-64.9"/>
<polygon fill="black" stroke="black" points="1056.13,-64.91 1052.63,-54.91 1049.13,-64.91 1056.13,-64.91"/>
</g>
<!-- 19 -->
<g id="node20" class="node">
<title>19</title>
<path fill="#f9e0ce" stroke="black" d="M1283.75,-53C1283.75,-53 1157.5,-53 1157.5,-53 1151.5,-53 1145.5,-47 1145.5,-41 1145.5,-41 1145.5,-12 1145.5,-12 1145.5,-6 1151.5,0 1157.5,0 1157.5,0 1283.75,0 1283.75,0 1289.75,0 1295.75,-6 1295.75,-12 1295.75,-12 1295.75,-41 1295.75,-41 1295.75,-47 1289.75,-53 1283.75,-53"/>
<text text-anchor="start" x="1153.5" y="-35.7" font-family="Helvetica,sans-Serif" font-size="14.00">squared_error = 3.964</text>
<text text-anchor="start" x="1179.75" y="-20.7" font-family="Helvetica,sans-Serif" font-size="14.00">samples = 10</text>
<text text-anchor="start" x="1179.75" y="-5.7" font-family="Helvetica,sans-Serif" font-size="14.00">value = 19.18</text>
</g>
<!-- 18&#45;&gt;19 -->
<g id="edge19" class="edge">
<title>18&#45;&gt;19</title>
<path fill="none" stroke="black" d="M1273.71,-88.68C1266.18,-79.99 1258.04,-70.62 1250.45,-61.87"/>
<polygon fill="black" stroke="black" points="1253.28,-59.8 1244.09,-54.54 1248,-64.38 1253.28,-59.8"/>
</g>
<!-- 20 -->
<g id="node21" class="node">
<title>20</title>
<path fill="#fbebe0" stroke="black" d="M1451.75,-53C1451.75,-53 1325.5,-53 1325.5,-53 1319.5,-53 1313.5,-47 1313.5,-41 1313.5,-41 1313.5,-12 1313.5,-12 1313.5,-6 1319.5,0 1325.5,0 1325.5,0 1451.75,0 1451.75,0 1457.75,0 1463.75,-6 1463.75,-12 1463.75,-12 1463.75,-41 1463.75,-41 1463.75,-47 1457.75,-53 1451.75,-53"/>
<text text-anchor="start" x="1321.5" y="-35.7" font-family="Helvetica,sans-Serif" font-size="14.00">squared_error = 5.441</text>
<text text-anchor="start" x="1347.75" y="-20.7" font-family="Helvetica,sans-Serif" font-size="14.00">samples = 53</text>
<text text-anchor="start" x="1344" y="-5.7" font-family="Helvetica,sans-Serif" font-size="14.00">value = 15.625</text>
</g>
<!-- 18&#45;&gt;20 -->
<g id="edge20" class="edge">
<title>18&#45;&gt;20</title>
<path fill="none" stroke="black" d="M1332.95,-88.68C1340.85,-79.99 1349.39,-70.62 1357.34,-61.87"/>
<polygon fill="black" stroke="black" points="1359.9,-64.26 1364.04,-54.51 1354.72,-59.55 1359.9,-64.26"/>
</g>
<!-- 22 -->
<g id="node23" class="node">
<title>22</title>
<path fill="#fefbf9" stroke="black" d="M1700.75,-157C1700.75,-157 1574.5,-157 1574.5,-157 1568.5,-157 1562.5,-151 1562.5,-145 1562.5,-145 1562.5,-101 1562.5,-101 1562.5,-95 1568.5,-89 1574.5,-89 1574.5,-89 1700.75,-89 1700.75,-89 1706.75,-89 1712.75,-95 1712.75,-101 1712.75,-101 1712.75,-145 1712.75,-145 1712.75,-151 1706.75,-157 1700.75,-157"/>
<text text-anchor="start" x="1602.38" y="-139.7" font-family="Helvetica,sans-Serif" font-size="14.00">nox ≤ 0.675</text>
<text text-anchor="start" x="1570.5" y="-124.7" font-family="Helvetica,sans-Serif" font-size="14.00">squared_error = 9.698</text>
<text text-anchor="start" x="1596.75" y="-109.7" font-family="Helvetica,sans-Serif" font-size="14.00">samples = 41</text>
<text text-anchor="start" x="1593" y="-94.7" font-family="Helvetica,sans-Serif" font-size="14.00">value = 10.332</text>
</g>
<!-- 21&#45;&gt;22 -->
<g id="edge22" class="edge">
<title>21&#45;&gt;22</title>
<path fill="none" stroke="black" d="M1637.62,-192.6C1637.62,-185.03 1637.62,-176.87 1637.62,-168.9"/>
<polygon fill="black" stroke="black" points="1641.13,-168.99 1637.63,-158.99 1634.13,-168.99 1641.13,-168.99"/>
</g>
<!-- 25 -->
<g id="node26" class="node">
<title>25</title>
<path fill="#fcefe6" stroke="black" d="M1949.75,-157C1949.75,-157 1823.5,-157 1823.5,-157 1817.5,-157 1811.5,-151 1811.5,-145 1811.5,-145 1811.5,-101 1811.5,-101 1811.5,-95 1817.5,-89 1823.5,-89 1823.5,-89 1949.75,-89 1949.75,-89 1955.75,-89 1961.75,-95 1961.75,-101 1961.75,-101 1961.75,-145 1961.75,-145 1961.75,-151 1955.75,-157 1949.75,-157"/>
<text text-anchor="start" x="1853.62" y="-139.7" font-family="Helvetica,sans-Serif" font-size="14.00">dis ≤ 2.846</text>
<text text-anchor="start" x="1819.5" y="-124.7" font-family="Helvetica,sans-Serif" font-size="14.00">squared_error = 4.907</text>
<text text-anchor="start" x="1845.75" y="-109.7" font-family="Helvetica,sans-Serif" font-size="14.00">samples = 14</text>
<text text-anchor="start" x="1842" y="-94.7" font-family="Helvetica,sans-Serif" font-size="14.00">value = 14.264</text>
</g>
<!-- 21&#45;&gt;25 -->
<g id="edge25" class="edge">
<title>21&#45;&gt;25</title>
<path fill="none" stroke="black" d="M1716.75,-193.59C1743.52,-182.62 1773.53,-170.33 1800.8,-159.16"/>
<polygon fill="black" stroke="black" points="1801.77,-162.54 1809.7,-155.51 1799.12,-156.06 1801.77,-162.54"/>
</g>
<!-- 23 -->
<g id="node24" class="node">
<title>23</title>
<path fill="#fcf1e9" stroke="black" d="M1619.75,-53C1619.75,-53 1493.5,-53 1493.5,-53 1487.5,-53 1481.5,-47 1481.5,-41 1481.5,-41 1481.5,-12 1481.5,-12 1481.5,-6 1487.5,0 1493.5,0 1493.5,0 1619.75,0 1619.75,0 1625.75,0 1631.75,-6 1631.75,-12 1631.75,-12 1631.75,-41 1631.75,-41 1631.75,-47 1625.75,-53 1619.75,-53"/>
<text text-anchor="start" x="1489.5" y="-35.7" font-family="Helvetica,sans-Serif" font-size="14.00">squared_error = 6.572</text>
<text text-anchor="start" x="1515.75" y="-20.7" font-family="Helvetica,sans-Serif" font-size="14.00">samples = 11</text>
<text text-anchor="start" x="1512" y="-5.7" font-family="Helvetica,sans-Serif" font-size="14.00">value = 13.582</text>
</g>
<!-- 22&#45;&gt;23 -->
<g id="edge23" class="edge">
<title>22&#45;&gt;23</title>
<path fill="none" stroke="black" d="M1609.07,-88.68C1601.62,-79.99 1593.58,-70.62 1586.09,-61.87"/>
<polygon fill="black" stroke="black" points="1588.97,-59.86 1579.8,-54.54 1583.66,-64.41 1588.97,-59.86"/>
</g>
<!-- 24 -->
<g id="node25" class="node">
<title>24</title>
<path fill="#ffffff" stroke="black" d="M1781,-53C1781,-53 1662.25,-53 1662.25,-53 1656.25,-53 1650.25,-47 1650.25,-41 1650.25,-41 1650.25,-12 1650.25,-12 1650.25,-6 1656.25,0 1662.25,0 1662.25,0 1781,0 1781,0 1787,0 1793,-6 1793,-12 1793,-12 1793,-41 1793,-41 1793,-47 1787,-53 1781,-53"/>
<text text-anchor="start" x="1658.25" y="-35.7" font-family="Helvetica,sans-Serif" font-size="14.00">squared_error = 5.55</text>
<text text-anchor="start" x="1680.75" y="-20.7" font-family="Helvetica,sans-Serif" font-size="14.00">samples = 30</text>
<text text-anchor="start" x="1684.5" y="-5.7" font-family="Helvetica,sans-Serif" font-size="14.00">value = 9.14</text>
</g>
<!-- 22&#45;&gt;24 -->
<g id="edge24" class="edge">
<title>22&#45;&gt;24</title>
<path fill="none" stroke="black" d="M1667.24,-88.68C1674.96,-79.99 1683.3,-70.62 1691.07,-61.87"/>
<polygon fill="black" stroke="black" points="1693.58,-64.32 1697.6,-54.53 1688.34,-59.67 1693.58,-64.32"/>
</g>
<!-- 26 -->
<g id="node27" class="node">
<title>26</title>
<path fill="#fcf0e8" stroke="black" d="M1949.75,-53C1949.75,-53 1823.5,-53 1823.5,-53 1817.5,-53 1811.5,-47 1811.5,-41 1811.5,-41 1811.5,-12 1811.5,-12 1811.5,-6 1817.5,0 1823.5,0 1823.5,0 1949.75,0 1949.75,0 1955.75,0 1961.75,-6 1961.75,-12 1961.75,-12 1961.75,-41 1961.75,-41 1961.75,-47 1955.75,-53 1949.75,-53"/>
<text text-anchor="start" x="1819.5" y="-35.7" font-family="Helvetica,sans-Serif" font-size="14.00">squared_error = 3.347</text>
<text text-anchor="start" x="1845.75" y="-20.7" font-family="Helvetica,sans-Serif" font-size="14.00">samples = 13</text>
<text text-anchor="start" x="1842" y="-5.7" font-family="Helvetica,sans-Serif" font-size="14.00">value = 13.892</text>
</g>
<!-- 25&#45;&gt;26 -->
<g id="edge26" class="edge">
<title>25&#45;&gt;26</title>
<path fill="none" stroke="black" d="M1886.62,-88.68C1886.62,-80.99 1886.62,-72.76 1886.62,-64.9"/>
<polygon fill="black" stroke="black" points="1890.13,-64.91 1886.63,-54.91 1883.13,-64.91 1890.13,-64.91"/>
</g>
<!-- 27 -->
<g id="node28" class="node">
<title>27</title>
<path fill="#f9e0cf" stroke="black" d="M2103.25,-53C2103.25,-53 1992,-53 1992,-53 1986,-53 1980,-47 1980,-41 1980,-41 1980,-12 1980,-12 1980,-6 1986,0 1992,0 1992,0 2103.25,0 2103.25,0 2109.25,0 2115.25,-6 2115.25,-12 2115.25,-12 2115.25,-41 2115.25,-41 2115.25,-47 2109.25,-53 2103.25,-53"/>
<text text-anchor="start" x="1988" y="-35.7" font-family="Helvetica,sans-Serif" font-size="14.00">squared_error = 0.0</text>
<text text-anchor="start" x="2010.5" y="-20.7" font-family="Helvetica,sans-Serif" font-size="14.00">samples = 1</text>
<text text-anchor="start" x="2010.5" y="-5.7" font-family="Helvetica,sans-Serif" font-size="14.00">value = 19.1</text>
</g>
<!-- 25&#45;&gt;27 -->
<g id="edge27" class="edge">
<title>25&#45;&gt;27</title>
<path fill="none" stroke="black" d="M1943.39,-88.68C1959.73,-79.09 1977.51,-68.65 1993.68,-59.16"/>
<polygon fill="black" stroke="black" points="1995.35,-62.24 2002.2,-54.16 1991.81,-56.2 1995.35,-62.24"/>
</g>
<!-- 29 -->
<g id="node30" class="node">
<title>29</title>
<path fill="#f1ba92" stroke="black" d="M2528.5,-365C2528.5,-365 2394.75,-365 2394.75,-365 2388.75,-365 2382.75,-359 2382.75,-353 2382.75,-353 2382.75,-309 2382.75,-309 2382.75,-303 2388.75,-297 2394.75,-297 2394.75,-297 2528.5,-297 2528.5,-297 2534.5,-297 2540.5,-303 2540.5,-309 2540.5,-309 2540.5,-353 2540.5,-353 2540.5,-359 2534.5,-365 2528.5,-365"/>
<text text-anchor="start" x="2426.38" y="-347.7" font-family="Helvetica,sans-Serif" font-size="14.00">nox ≤ 0.659</text>
<text text-anchor="start" x="2390.75" y="-332.7" font-family="Helvetica,sans-Serif" font-size="14.00">squared_error = 38.945</text>
<text text-anchor="start" x="2420.75" y="-317.7" font-family="Helvetica,sans-Serif" font-size="14.00">samples = 52</text>
<text text-anchor="start" x="2417" y="-302.7" font-family="Helvetica,sans-Serif" font-size="14.00">value = 31.544</text>
</g>
<!-- 28&#45;&gt;29 -->
<g id="edge29" class="edge">
<title>28&#45;&gt;29</title>
<path fill="none" stroke="black" d="M2461.62,-400.6C2461.62,-393.03 2461.62,-384.87 2461.62,-376.9"/>
<polygon fill="black" stroke="black" points="2465.13,-376.99 2461.63,-366.99 2458.13,-376.99 2465.13,-376.99"/>
</g>
<!-- 40 -->
<g id="node41" class="node">
<title>40</title>
<path fill="#e88f50" stroke="black" d="M3163.5,-365C3163.5,-365 3029.75,-365 3029.75,-365 3023.75,-365 3017.75,-359 3017.75,-353 3017.75,-353 3017.75,-309 3017.75,-309 3017.75,-303 3023.75,-297 3029.75,-297 3029.75,-297 3163.5,-297 3163.5,-297 3169.5,-297 3175.5,-303 3175.5,-309 3175.5,-309 3175.5,-353 3175.5,-353 3175.5,-359 3169.5,-365 3163.5,-365"/>
<text text-anchor="start" x="3057.25" y="-347.7" font-family="Helvetica,sans-Serif" font-size="14.00">ptratio ≤ 15.3</text>
<text text-anchor="start" x="3025.75" y="-332.7" font-family="Helvetica,sans-Serif" font-size="14.00">squared_error = 22.104</text>
<text text-anchor="start" x="3055.75" y="-317.7" font-family="Helvetica,sans-Serif" font-size="14.00">samples = 22</text>
<text text-anchor="start" x="3055.75" y="-302.7" font-family="Helvetica,sans-Serif" font-size="14.00">value = 45.35</text>
</g>
<!-- 28&#45;&gt;40 -->
<g id="edge40" class="edge">
<title>28&#45;&gt;40</title>
<path fill="none" stroke="black" d="M2540.76,-421.29C2659.2,-402.26 2881.94,-366.49 3006.48,-346.48"/>
<polygon fill="black" stroke="black" points="3006.68,-349.99 3015.99,-344.95 3005.57,-343.08 3006.68,-349.99"/>
</g>
<!-- 30 -->
<g id="node31" class="node">
<title>30</title>
<path fill="#f0b78d" stroke="black" d="M2442.5,-261C2442.5,-261 2308.75,-261 2308.75,-261 2302.75,-261 2296.75,-255 2296.75,-249 2296.75,-249 2296.75,-205 2296.75,-205 2296.75,-199 2302.75,-193 2308.75,-193 2308.75,-193 2442.5,-193 2442.5,-193 2448.5,-193 2454.5,-199 2454.5,-205 2454.5,-205 2454.5,-249 2454.5,-249 2454.5,-255 2448.5,-261 2442.5,-261"/>
<text text-anchor="start" x="2342.62" y="-243.7" font-family="Helvetica,sans-Serif" font-size="14.00">dis ≤ 1.334</text>
<text text-anchor="start" x="2304.75" y="-228.7" font-family="Helvetica,sans-Serif" font-size="14.00">squared_error = 21.663</text>
<text text-anchor="start" x="2334.75" y="-213.7" font-family="Helvetica,sans-Serif" font-size="14.00">samples = 49</text>
<text text-anchor="start" x="2331" y="-198.7" font-family="Helvetica,sans-Serif" font-size="14.00">value = 32.594</text>
</g>
<!-- 29&#45;&gt;30 -->
<g id="edge30" class="edge">
<title>29&#45;&gt;30</title>
<path fill="none" stroke="black" d="M2433.47,-296.6C2426.34,-288.15 2418.59,-278.96 2411.15,-270.13"/>
<polygon fill="black" stroke="black" points="2413.95,-268.02 2404.82,-262.63 2408.59,-272.53 2413.95,-268.02"/>
</g>
<!-- 35 -->
<g id="node36" class="node">
<title>35</title>
<path fill="#fcefe6" stroke="black" d="M2610.75,-261C2610.75,-261 2484.5,-261 2484.5,-261 2478.5,-261 2472.5,-255 2472.5,-249 2472.5,-249 2472.5,-205 2472.5,-205 2472.5,-199 2478.5,-193 2484.5,-193 2484.5,-193 2610.75,-193 2610.75,-193 2616.75,-193 2622.75,-199 2622.75,-205 2622.75,-205 2622.75,-249 2622.75,-249 2622.75,-255 2616.75,-261 2610.75,-261"/>
<text text-anchor="start" x="2507.12" y="-243.7" font-family="Helvetica,sans-Serif" font-size="14.00">lstat ≤ 16.975</text>
<text text-anchor="start" x="2480.5" y="-228.7" font-family="Helvetica,sans-Serif" font-size="14.00">squared_error = 9.307</text>
<text text-anchor="start" x="2510.5" y="-213.7" font-family="Helvetica,sans-Serif" font-size="14.00">samples = 3</text>
<text text-anchor="start" x="2510.5" y="-198.7" font-family="Helvetica,sans-Serif" font-size="14.00">value = 14.4</text>
</g>
<!-- 29&#45;&gt;35 -->
<g id="edge35" class="edge">
<title>29&#45;&gt;35</title>
<path fill="none" stroke="black" d="M2489.78,-296.6C2496.91,-288.15 2504.66,-278.96 2512.1,-270.13"/>
<polygon fill="black" stroke="black" points="2514.66,-272.53 2518.43,-262.63 2509.3,-268.02 2514.66,-272.53"/>
</g>
<!-- 31 -->
<g id="node32" class="node">
<title>31</title>
<path fill="#e58139" stroke="black" d="M2272.25,-149.5C2272.25,-149.5 2161,-149.5 2161,-149.5 2155,-149.5 2149,-143.5 2149,-137.5 2149,-137.5 2149,-108.5 2149,-108.5 2149,-102.5 2155,-96.5 2161,-96.5 2161,-96.5 2272.25,-96.5 2272.25,-96.5 2278.25,-96.5 2284.25,-102.5 2284.25,-108.5 2284.25,-108.5 2284.25,-137.5 2284.25,-137.5 2284.25,-143.5 2278.25,-149.5 2272.25,-149.5"/>
<text text-anchor="start" x="2157" y="-132.2" font-family="Helvetica,sans-Serif" font-size="14.00">squared_error = 0.0</text>
<text text-anchor="start" x="2179.5" y="-117.2" font-family="Helvetica,sans-Serif" font-size="14.00">samples = 1</text>
<text text-anchor="start" x="2179.5" y="-102.2" font-family="Helvetica,sans-Serif" font-size="14.00">value = 50.0</text>
</g>
<!-- 30&#45;&gt;31 -->
<g id="edge31" class="edge">
<title>30&#45;&gt;31</title>
<path fill="none" stroke="black" d="M2323.56,-192.6C2305.21,-180.83 2284.64,-167.63 2266.48,-155.98"/>
<polygon fill="black" stroke="black" points="2268.53,-153.14 2258.22,-150.69 2264.75,-159.03 2268.53,-153.14"/>
</g>
<!-- 32 -->
<g id="node33" class="node">
<title>32</title>
<path fill="#f0b88f" stroke="black" d="M2440.75,-157C2440.75,-157 2314.5,-157 2314.5,-157 2308.5,-157 2302.5,-151 2302.5,-145 2302.5,-145 2302.5,-101 2302.5,-101 2302.5,-95 2308.5,-89 2314.5,-89 2314.5,-89 2440.75,-89 2440.75,-89 2446.75,-89 2452.75,-95 2452.75,-101 2452.75,-101 2452.75,-145 2452.75,-145 2452.75,-151 2446.75,-157 2440.75,-157"/>
<text text-anchor="start" x="2340.88" y="-139.7" font-family="Helvetica,sans-Serif" font-size="14.00">lstat ≤ 5.495</text>
<text text-anchor="start" x="2310.5" y="-124.7" font-family="Helvetica,sans-Serif" font-size="14.00">squared_error = 15.67</text>
<text text-anchor="start" x="2336.75" y="-109.7" font-family="Helvetica,sans-Serif" font-size="14.00">samples = 48</text>
<text text-anchor="start" x="2333" y="-94.7" font-family="Helvetica,sans-Serif" font-size="14.00">value = 32.231</text>
</g>
<!-- 30&#45;&gt;32 -->
<g id="edge32" class="edge">
<title>30&#45;&gt;32</title>
<path fill="none" stroke="black" d="M2376.28,-192.6C2376.43,-185.03 2376.59,-176.87 2376.74,-168.9"/>
<polygon fill="black" stroke="black" points="2380.24,-169.05 2376.94,-158.99 2373.24,-168.92 2380.24,-169.05"/>
</g>
<!-- 33 -->
<g id="node34" class="node">
<title>33</title>
<path fill="#efb286" stroke="black" d="M2271.75,-53C2271.75,-53 2145.5,-53 2145.5,-53 2139.5,-53 2133.5,-47 2133.5,-41 2133.5,-41 2133.5,-12 2133.5,-12 2133.5,-6 2139.5,0 2145.5,0 2145.5,0 2271.75,0 2271.75,0 2277.75,0 2283.75,-6 2283.75,-12 2283.75,-12 2283.75,-41 2283.75,-41 2283.75,-47 2277.75,-53 2271.75,-53"/>
<text text-anchor="start" x="2141.5" y="-35.7" font-family="Helvetica,sans-Serif" font-size="14.00">squared_error = 7.792</text>
<text text-anchor="start" x="2167.75" y="-20.7" font-family="Helvetica,sans-Serif" font-size="14.00">samples = 25</text>
<text text-anchor="start" x="2164" y="-5.7" font-family="Helvetica,sans-Serif" font-size="14.00">value = 34.068</text>
</g>
<!-- 32&#45;&gt;33 -->
<g id="edge33" class="edge">
<title>32&#45;&gt;33</title>
<path fill="none" stroke="black" d="M2318.04,-88.68C2300.72,-79 2281.87,-68.46 2264.77,-58.9"/>
<polygon fill="black" stroke="black" points="2266.69,-55.96 2256.25,-54.13 2263.27,-62.07 2266.69,-55.96"/>
</g>
<!-- 34 -->
<g id="node35" class="node">
<title>34</title>
<path fill="#f2be99" stroke="black" d="M2447.5,-53C2447.5,-53 2313.75,-53 2313.75,-53 2307.75,-53 2301.75,-47 2301.75,-41 2301.75,-41 2301.75,-12 2301.75,-12 2301.75,-6 2307.75,0 2313.75,0 2313.75,0 2447.5,0 2447.5,0 2453.5,0 2459.5,-6 2459.5,-12 2459.5,-12 2459.5,-41 2459.5,-41 2459.5,-47 2453.5,-53 2447.5,-53"/>
<text text-anchor="start" x="2309.75" y="-35.7" font-family="Helvetica,sans-Serif" font-size="14.00">squared_error = 16.581</text>
<text text-anchor="start" x="2339.75" y="-20.7" font-family="Helvetica,sans-Serif" font-size="14.00">samples = 23</text>
<text text-anchor="start" x="2336" y="-5.7" font-family="Helvetica,sans-Serif" font-size="14.00">value = 30.235</text>
</g>
<!-- 32&#45;&gt;34 -->
<g id="edge34" class="edge">
<title>32&#45;&gt;34</title>
<path fill="none" stroke="black" d="M2378.68,-88.68C2378.93,-80.9 2379.19,-72.56 2379.45,-64.63"/>
<polygon fill="black" stroke="black" points="2382.94,-65.01 2379.75,-54.91 2375.94,-64.79 2382.94,-65.01"/>
</g>
<!-- 36 -->
<g id="node37" class="node">
<title>36</title>
<path fill="#fae9dc" stroke="black" d="M2606,-157C2606,-157 2487.25,-157 2487.25,-157 2481.25,-157 2475.25,-151 2475.25,-145 2475.25,-145 2475.25,-101 2475.25,-101 2475.25,-95 2481.25,-89 2487.25,-89 2487.25,-89 2606,-89 2606,-89 2612,-89 2618,-95 2618,-101 2618,-101 2618,-145 2618,-145 2618,-151 2612,-157 2606,-157"/>
<text text-anchor="start" x="2514" y="-139.7" font-family="Helvetica,sans-Serif" font-size="14.00">rm ≤ 7.353</text>
<text text-anchor="start" x="2483.25" y="-124.7" font-family="Helvetica,sans-Serif" font-size="14.00">squared_error = 1.96</text>
<text text-anchor="start" x="2509.5" y="-109.7" font-family="Helvetica,sans-Serif" font-size="14.00">samples = 2</text>
<text text-anchor="start" x="2509.5" y="-94.7" font-family="Helvetica,sans-Serif" font-size="14.00">value = 16.4</text>
</g>
<!-- 35&#45;&gt;36 -->
<g id="edge36" class="edge">
<title>35&#45;&gt;36</title>
<path fill="none" stroke="black" d="M2547.3,-192.6C2547.22,-185.03 2547.14,-176.87 2547.07,-168.9"/>
<polygon fill="black" stroke="black" points="2550.57,-168.95 2546.97,-158.99 2543.57,-169.02 2550.57,-168.95"/>
</g>
<!-- 39 -->
<g id="node40" class="node">
<title>39</title>
<path fill="#fefbf9" stroke="black" d="M2759.25,-149.5C2759.25,-149.5 2648,-149.5 2648,-149.5 2642,-149.5 2636,-143.5 2636,-137.5 2636,-137.5 2636,-108.5 2636,-108.5 2636,-102.5 2642,-96.5 2648,-96.5 2648,-96.5 2759.25,-96.5 2759.25,-96.5 2765.25,-96.5 2771.25,-102.5 2771.25,-108.5 2771.25,-108.5 2771.25,-137.5 2771.25,-137.5 2771.25,-143.5 2765.25,-149.5 2759.25,-149.5"/>
<text text-anchor="start" x="2644" y="-132.2" font-family="Helvetica,sans-Serif" font-size="14.00">squared_error = 0.0</text>
<text text-anchor="start" x="2666.5" y="-117.2" font-family="Helvetica,sans-Serif" font-size="14.00">samples = 1</text>
<text text-anchor="start" x="2666.5" y="-102.2" font-family="Helvetica,sans-Serif" font-size="14.00">value = 10.4</text>
</g>
<!-- 35&#45;&gt;39 -->
<g id="edge39" class="edge">
<title>35&#45;&gt;39</title>
<path fill="none" stroke="black" d="M2598.71,-192.6C2616.62,-180.89 2636.7,-167.76 2654.46,-156.14"/>
<polygon fill="black" stroke="black" points="2656.34,-159.1 2662.79,-150.7 2652.51,-153.24 2656.34,-159.1"/>
</g>
<!-- 37 -->
<g id="node38" class="node">
<title>37</title>
<path fill="#fbede3" stroke="black" d="M2601.25,-53C2601.25,-53 2490,-53 2490,-53 2484,-53 2478,-47 2478,-41 2478,-41 2478,-12 2478,-12 2478,-6 2484,0 2490,0 2490,0 2601.25,0 2601.25,0 2607.25,0 2613.25,-6 2613.25,-12 2613.25,-12 2613.25,-41 2613.25,-41 2613.25,-47 2607.25,-53 2601.25,-53"/>
<text text-anchor="start" x="2486" y="-35.7" font-family="Helvetica,sans-Serif" font-size="14.00">squared_error = 0.0</text>
<text text-anchor="start" x="2508.5" y="-20.7" font-family="Helvetica,sans-Serif" font-size="14.00">samples = 1</text>
<text text-anchor="start" x="2508.5" y="-5.7" font-family="Helvetica,sans-Serif" font-size="14.00">value = 15.0</text>
</g>
<!-- 36&#45;&gt;37 -->
<g id="edge37" class="edge">
<title>36&#45;&gt;37</title>
<path fill="none" stroke="black" d="M2546.27,-88.68C2546.19,-80.99 2546.1,-72.76 2546.02,-64.9"/>
<polygon fill="black" stroke="black" points="2549.52,-64.87 2545.92,-54.91 2542.52,-64.94 2549.52,-64.87"/>
</g>
<!-- 38 -->
<g id="node39" class="node">
<title>38</title>
<path fill="#f9e4d5" stroke="black" d="M2754.25,-53C2754.25,-53 2643,-53 2643,-53 2637,-53 2631,-47 2631,-41 2631,-41 2631,-12 2631,-12 2631,-6 2637,0 2643,0 2643,0 2754.25,0 2754.25,0 2760.25,0 2766.25,-6 2766.25,-12 2766.25,-12 2766.25,-41 2766.25,-41 2766.25,-47 2760.25,-53 2754.25,-53"/>
<text text-anchor="start" x="2639" y="-35.7" font-family="Helvetica,sans-Serif" font-size="14.00">squared_error = 0.0</text>
<text text-anchor="start" x="2661.5" y="-20.7" font-family="Helvetica,sans-Serif" font-size="14.00">samples = 1</text>
<text text-anchor="start" x="2661.5" y="-5.7" font-family="Helvetica,sans-Serif" font-size="14.00">value = 17.8</text>
</g>
<!-- 36&#45;&gt;38 -->
<g id="edge38" class="edge">
<title>36&#45;&gt;38</title>
<path fill="none" stroke="black" d="M2600.21,-88.68C2615.5,-79.18 2632.11,-68.85 2647.26,-59.43"/>
<polygon fill="black" stroke="black" points="2649.05,-62.45 2655.69,-54.19 2645.35,-56.5 2649.05,-62.45"/>
</g>
<!-- 41 -->
<g id="node42" class="node">
<title>41</title>
<path fill="#e68742" stroke="black" d="M3156,-261C3156,-261 3037.25,-261 3037.25,-261 3031.25,-261 3025.25,-255 3025.25,-249 3025.25,-249 3025.25,-205 3025.25,-205 3025.25,-199 3031.25,-193 3037.25,-193 3037.25,-193 3156,-193 3156,-193 3162,-193 3168,-199 3168,-205 3168,-205 3168,-249 3168,-249 3168,-255 3162,-261 3156,-261"/>
<text text-anchor="start" x="3064" y="-243.7" font-family="Helvetica,sans-Serif" font-size="14.00">rm ≤ 7.706</text>
<text text-anchor="start" x="3033.25" y="-228.7" font-family="Helvetica,sans-Serif" font-size="14.00">squared_error = 9.07</text>
<text text-anchor="start" x="3055.75" y="-213.7" font-family="Helvetica,sans-Serif" font-size="14.00">samples = 12</text>
<text text-anchor="start" x="3052" y="-198.7" font-family="Helvetica,sans-Serif" font-size="14.00">value = 48.117</text>
</g>
<!-- 40&#45;&gt;41 -->
<g id="edge41" class="edge">
<title>40&#45;&gt;41</title>
<path fill="none" stroke="black" d="M3096.62,-296.6C3096.62,-289.03 3096.62,-280.87 3096.62,-272.9"/>
<polygon fill="black" stroke="black" points="3100.13,-272.99 3096.63,-262.99 3093.13,-272.99 3100.13,-272.99"/>
</g>
<!-- 48 -->
<g id="node49" class="node">
<title>48</title>
<path fill="#ea9a60" stroke="black" d="M3635.5,-261C3635.5,-261 3501.75,-261 3501.75,-261 3495.75,-261 3489.75,-255 3489.75,-249 3489.75,-249 3489.75,-205 3489.75,-205 3489.75,-199 3495.75,-193 3501.75,-193 3501.75,-193 3635.5,-193 3635.5,-193 3641.5,-193 3647.5,-199 3647.5,-205 3647.5,-205 3647.5,-249 3647.5,-249 3647.5,-255 3641.5,-261 3635.5,-261"/>
<text text-anchor="start" x="3531.12" y="-243.7" font-family="Helvetica,sans-Serif" font-size="14.00">crim ≤ 0.061</text>
<text text-anchor="start" x="3497.75" y="-228.7" font-family="Helvetica,sans-Serif" font-size="14.00">squared_error = 17.538</text>
<text text-anchor="start" x="3527.75" y="-213.7" font-family="Helvetica,sans-Serif" font-size="14.00">samples = 10</text>
<text text-anchor="start" x="3527.75" y="-198.7" font-family="Helvetica,sans-Serif" font-size="14.00">value = 42.03</text>
</g>
<!-- 40&#45;&gt;48 -->
<g id="edge48" class="edge">
<title>40&#45;&gt;48</title>
<path fill="none" stroke="black" d="M3175.89,-312.87C3259.41,-294.82 3390.72,-266.45 3478.21,-247.54"/>
<polygon fill="black" stroke="black" points="3478.94,-250.96 3487.98,-245.43 3477.47,-244.12 3478.94,-250.96"/>
</g>
<!-- 42 -->
<g id="node43" class="node">
<title>42</title>
<path fill="#e89153" stroke="black" d="M3075.75,-157C3075.75,-157 2949.5,-157 2949.5,-157 2943.5,-157 2937.5,-151 2937.5,-145 2937.5,-145 2937.5,-101 2937.5,-101 2937.5,-95 2943.5,-89 2949.5,-89 2949.5,-89 3075.75,-89 3075.75,-89 3081.75,-89 3087.75,-95 3087.75,-101 3087.75,-101 3087.75,-145 3087.75,-145 3087.75,-151 3081.75,-157 3075.75,-157"/>
<text text-anchor="start" x="2979.62" y="-139.7" font-family="Helvetica,sans-Serif" font-size="14.00">lstat ≤ 2.42</text>
<text text-anchor="start" x="2945.5" y="-124.7" font-family="Helvetica,sans-Serif" font-size="14.00">squared_error = 9.462</text>
<text text-anchor="start" x="2975.5" y="-109.7" font-family="Helvetica,sans-Serif" font-size="14.00">samples = 4</text>
<text text-anchor="start" x="2968" y="-94.7" font-family="Helvetica,sans-Serif" font-size="14.00">value = 44.725</text>
</g>
<!-- 41&#45;&gt;42 -->
<g id="edge42" class="edge">
<title>41&#45;&gt;42</title>
<path fill="none" stroke="black" d="M3069.12,-192.6C3062.16,-184.15 3054.59,-174.96 3047.32,-166.13"/>
<polygon fill="black" stroke="black" points="3050.21,-164.14 3041.15,-158.64 3044.81,-168.59 3050.21,-164.14"/>
</g>
<!-- 45 -->
<g id="node46" class="node">
<title>45</title>
<path fill="#e5823a" stroke="black" d="M3243.75,-157C3243.75,-157 3117.5,-157 3117.5,-157 3111.5,-157 3105.5,-151 3105.5,-145 3105.5,-145 3105.5,-101 3105.5,-101 3105.5,-95 3111.5,-89 3117.5,-89 3117.5,-89 3243.75,-89 3243.75,-89 3249.75,-89 3255.75,-95 3255.75,-101 3255.75,-101 3255.75,-145 3255.75,-145 3255.75,-151 3249.75,-157 3243.75,-157"/>
<text text-anchor="start" x="3148" y="-139.7" font-family="Helvetica,sans-Serif" font-size="14.00">rm ≤ 7.888</text>
<text text-anchor="start" x="3113.5" y="-124.7" font-family="Helvetica,sans-Serif" font-size="14.00">squared_error = 0.246</text>
<text text-anchor="start" x="3143.5" y="-109.7" font-family="Helvetica,sans-Serif" font-size="14.00">samples = 8</text>
<text text-anchor="start" x="3136" y="-94.7" font-family="Helvetica,sans-Serif" font-size="14.00">value = 49.812</text>
</g>
<!-- 41&#45;&gt;45 -->
<g id="edge45" class="edge">
<title>41&#45;&gt;45</title>
<path fill="none" stroke="black" d="M3124.13,-192.6C3131.09,-184.15 3138.66,-174.96 3145.93,-166.13"/>
<polygon fill="black" stroke="black" points="3148.44,-168.59 3152.1,-158.64 3143.04,-164.14 3148.44,-168.59"/>
</g>
<!-- 43 -->
<g id="node44" class="node">
<title>43</title>
<path fill="#e58139" stroke="black" d="M2907.25,-53C2907.25,-53 2796,-53 2796,-53 2790,-53 2784,-47 2784,-41 2784,-41 2784,-12 2784,-12 2784,-6 2790,0 2796,0 2796,0 2907.25,0 2907.25,0 2913.25,0 2919.25,-6 2919.25,-12 2919.25,-12 2919.25,-41 2919.25,-41 2919.25,-47 2913.25,-53 2907.25,-53"/>
<text text-anchor="start" x="2792" y="-35.7" font-family="Helvetica,sans-Serif" font-size="14.00">squared_error = 0.0</text>
<text text-anchor="start" x="2814.5" y="-20.7" font-family="Helvetica,sans-Serif" font-size="14.00">samples = 1</text>
<text text-anchor="start" x="2814.5" y="-5.7" font-family="Helvetica,sans-Serif" font-size="14.00">value = 50.0</text>
</g>
<!-- 42&#45;&gt;43 -->
<g id="edge43" class="edge">
<title>42&#45;&gt;43</title>
<path fill="none" stroke="black" d="M2955.86,-88.68C2939.52,-79.09 2921.74,-68.65 2905.57,-59.16"/>
<polygon fill="black" stroke="black" points="2907.44,-56.2 2897.05,-54.16 2903.9,-62.24 2907.44,-56.2"/>
</g>
<!-- 44 -->
<g id="node45" class="node">
<title>44</title>
<path fill="#e9975b" stroke="black" d="M3075.75,-53C3075.75,-53 2949.5,-53 2949.5,-53 2943.5,-53 2937.5,-47 2937.5,-41 2937.5,-41 2937.5,-12 2937.5,-12 2937.5,-6 2943.5,0 2949.5,0 2949.5,0 3075.75,0 3075.75,0 3081.75,0 3087.75,-6 3087.75,-12 3087.75,-12 3087.75,-41 3087.75,-41 3087.75,-47 3081.75,-53 3075.75,-53"/>
<text text-anchor="start" x="2945.5" y="-35.7" font-family="Helvetica,sans-Serif" font-size="14.00">squared_error = 0.249</text>
<text text-anchor="start" x="2975.5" y="-20.7" font-family="Helvetica,sans-Serif" font-size="14.00">samples = 3</text>
<text text-anchor="start" x="2968" y="-5.7" font-family="Helvetica,sans-Serif" font-size="14.00">value = 42.967</text>
</g>
<!-- 42&#45;&gt;44 -->
<g id="edge44" class="edge">
<title>42&#45;&gt;44</title>
<path fill="none" stroke="black" d="M3012.62,-88.68C3012.62,-80.99 3012.62,-72.76 3012.62,-64.9"/>
<polygon fill="black" stroke="black" points="3016.13,-64.91 3012.63,-54.91 3009.13,-64.91 3016.13,-64.91"/>
</g>
<!-- 46 -->
<g id="node47" class="node">
<title>46</title>
<path fill="#e5833d" stroke="black" d="M3243.75,-53C3243.75,-53 3117.5,-53 3117.5,-53 3111.5,-53 3105.5,-47 3105.5,-41 3105.5,-41 3105.5,-12 3105.5,-12 3105.5,-6 3111.5,0 3117.5,0 3117.5,0 3243.75,0 3243.75,0 3249.75,0 3255.75,-6 3255.75,-12 3255.75,-12 3255.75,-41 3255.75,-41 3255.75,-47 3249.75,-53 3243.75,-53"/>
<text text-anchor="start" x="3113.5" y="-35.7" font-family="Helvetica,sans-Serif" font-size="14.00">squared_error = 0.562</text>
<text text-anchor="start" x="3143.5" y="-20.7" font-family="Helvetica,sans-Serif" font-size="14.00">samples = 2</text>
<text text-anchor="start" x="3139.75" y="-5.7" font-family="Helvetica,sans-Serif" font-size="14.00">value = 49.25</text>
</g>
<!-- 45&#45;&gt;46 -->
<g id="edge46" class="edge">
<title>45&#45;&gt;46</title>
<path fill="none" stroke="black" d="M3180.62,-88.68C3180.62,-80.99 3180.62,-72.76 3180.62,-64.9"/>
<polygon fill="black" stroke="black" points="3184.13,-64.91 3180.63,-54.91 3177.13,-64.91 3184.13,-64.91"/>
</g>
<!-- 47 -->
<g id="node48" class="node">
<title>47</title>
<path fill="#e58139" stroke="black" d="M3397.25,-53C3397.25,-53 3286,-53 3286,-53 3280,-53 3274,-47 3274,-41 3274,-41 3274,-12 3274,-12 3274,-6 3280,0 3286,0 3286,0 3397.25,0 3397.25,0 3403.25,0 3409.25,-6 3409.25,-12 3409.25,-12 3409.25,-41 3409.25,-41 3409.25,-47 3403.25,-53 3397.25,-53"/>
<text text-anchor="start" x="3282" y="-35.7" font-family="Helvetica,sans-Serif" font-size="14.00">squared_error = 0.0</text>
<text text-anchor="start" x="3304.5" y="-20.7" font-family="Helvetica,sans-Serif" font-size="14.00">samples = 6</text>
<text text-anchor="start" x="3304.5" y="-5.7" font-family="Helvetica,sans-Serif" font-size="14.00">value = 50.0</text>
</g>
<!-- 45&#45;&gt;47 -->
<g id="edge47" class="edge">
<title>45&#45;&gt;47</title>
<path fill="none" stroke="black" d="M3237.39,-88.68C3253.73,-79.09 3271.51,-68.65 3287.68,-59.16"/>
<polygon fill="black" stroke="black" points="3289.35,-62.24 3296.2,-54.16 3285.81,-56.2 3289.35,-62.24"/>
</g>
<!-- 49 -->
<g id="node50" class="node">
<title>49</title>
<path fill="#e78a48" stroke="black" d="M3624.25,-157C3624.25,-157 3513,-157 3513,-157 3507,-157 3501,-151 3501,-145 3501,-145 3501,-101 3501,-101 3501,-95 3507,-89 3513,-89 3513,-89 3624.25,-89 3624.25,-89 3630.25,-89 3636.25,-95 3636.25,-101 3636.25,-101 3636.25,-145 3636.25,-145 3636.25,-151 3630.25,-157 3624.25,-157"/>
<text text-anchor="start" x="3540.88" y="-139.7" font-family="Helvetica,sans-Serif" font-size="14.00">zn ≤ 45.0</text>
<text text-anchor="start" x="3509" y="-124.7" font-family="Helvetica,sans-Serif" font-size="14.00">squared_error = 9.0</text>
<text text-anchor="start" x="3531.5" y="-109.7" font-family="Helvetica,sans-Serif" font-size="14.00">samples = 2</text>
<text text-anchor="start" x="3531.5" y="-94.7" font-family="Helvetica,sans-Serif" font-size="14.00">value = 47.0</text>
</g>
<!-- 48&#45;&gt;49 -->
<g id="edge49" class="edge">
<title>48&#45;&gt;49</title>
<path fill="none" stroke="black" d="M3568.62,-192.6C3568.62,-185.03 3568.62,-176.87 3568.62,-168.9"/>
<polygon fill="black" stroke="black" points="3572.13,-168.99 3568.63,-158.99 3565.13,-168.99 3572.13,-168.99"/>
</g>
<!-- 52 -->
<g id="node53" class="node">
<title>52</title>
<path fill="#eb9d66" stroke="black" d="M3875.5,-157C3875.5,-157 3741.75,-157 3741.75,-157 3735.75,-157 3729.75,-151 3729.75,-145 3729.75,-145 3729.75,-101 3729.75,-101 3729.75,-95 3735.75,-89 3741.75,-89 3741.75,-89 3875.5,-89 3875.5,-89 3881.5,-89 3887.5,-95 3887.5,-101 3887.5,-101 3887.5,-145 3887.5,-145 3887.5,-151 3881.5,-157 3875.5,-157"/>
<text text-anchor="start" x="3773" y="-139.7" font-family="Helvetica,sans-Serif" font-size="14.00">age ≤ 44.35</text>
<text text-anchor="start" x="3737.75" y="-124.7" font-family="Helvetica,sans-Serif" font-size="14.00">squared_error = 11.954</text>
<text text-anchor="start" x="3771.5" y="-109.7" font-family="Helvetica,sans-Serif" font-size="14.00">samples = 8</text>
<text text-anchor="start" x="3764" y="-94.7" font-family="Helvetica,sans-Serif" font-size="14.00">value = 40.788</text>
</g>
<!-- 48&#45;&gt;52 -->
<g id="edge52" class="edge">
<title>48&#45;&gt;52</title>
<path fill="none" stroke="black" d="M3647.21,-192.6C3670.31,-182.78 3695.75,-171.97 3719.46,-161.89"/>
<polygon fill="black" stroke="black" points="3720.64,-165.2 3728.47,-158.07 3717.9,-158.76 3720.64,-165.2"/>
</g>
<!-- 50 -->
<g id="node51" class="node">
<title>50</title>
<path fill="#e58139" stroke="black" d="M3550.25,-53C3550.25,-53 3439,-53 3439,-53 3433,-53 3427,-47 3427,-41 3427,-41 3427,-12 3427,-12 3427,-6 3433,0 3439,0 3439,0 3550.25,0 3550.25,0 3556.25,0 3562.25,-6 3562.25,-12 3562.25,-12 3562.25,-41 3562.25,-41 3562.25,-47 3556.25,-53 3550.25,-53"/>
<text text-anchor="start" x="3435" y="-35.7" font-family="Helvetica,sans-Serif" font-size="14.00">squared_error = 0.0</text>
<text text-anchor="start" x="3457.5" y="-20.7" font-family="Helvetica,sans-Serif" font-size="14.00">samples = 1</text>
<text text-anchor="start" x="3457.5" y="-5.7" font-family="Helvetica,sans-Serif" font-size="14.00">value = 50.0</text>
</g>
<!-- 49&#45;&gt;50 -->
<g id="edge50" class="edge">
<title>49&#45;&gt;50</title>
<path fill="none" stroke="black" d="M3542.54,-88.68C3535.87,-80.18 3528.69,-71.01 3521.97,-62.42"/>
<polygon fill="black" stroke="black" points="3524.76,-60.3 3515.83,-54.59 3519.24,-64.62 3524.76,-60.3"/>
</g>
<!-- 51 -->
<g id="node52" class="node">
<title>51</title>
<path fill="#e99456" stroke="black" d="M3703.25,-53C3703.25,-53 3592,-53 3592,-53 3586,-53 3580,-47 3580,-41 3580,-41 3580,-12 3580,-12 3580,-6 3586,0 3592,0 3592,0 3703.25,0 3703.25,0 3709.25,0 3715.25,-6 3715.25,-12 3715.25,-12 3715.25,-41 3715.25,-41 3715.25,-47 3709.25,-53 3703.25,-53"/>
<text text-anchor="start" x="3588" y="-35.7" font-family="Helvetica,sans-Serif" font-size="14.00">squared_error = 0.0</text>
<text text-anchor="start" x="3610.5" y="-20.7" font-family="Helvetica,sans-Serif" font-size="14.00">samples = 1</text>
<text text-anchor="start" x="3610.5" y="-5.7" font-family="Helvetica,sans-Serif" font-size="14.00">value = 44.0</text>
</g>
<!-- 49&#45;&gt;51 -->
<g id="edge51" class="edge">
<title>49&#45;&gt;51</title>
<path fill="none" stroke="black" d="M3596.48,-88.68C3603.66,-80.09 3611.42,-70.81 3618.66,-62.15"/>
<polygon fill="black" stroke="black" points="3621.28,-64.47 3625.01,-54.56 3615.91,-59.98 3621.28,-64.47"/>
</g>
<!-- 53 -->
<g id="node54" class="node">
<title>53</title>
<path fill="#e99254" stroke="black" d="M3871.75,-53C3871.75,-53 3745.5,-53 3745.5,-53 3739.5,-53 3733.5,-47 3733.5,-41 3733.5,-41 3733.5,-12 3733.5,-12 3733.5,-6 3739.5,0 3745.5,0 3745.5,0 3871.75,0 3871.75,0 3877.75,0 3883.75,-6 3883.75,-12 3883.75,-12 3883.75,-41 3883.75,-41 3883.75,-47 3877.75,-53 3871.75,-53"/>
<text text-anchor="start" x="3741.5" y="-35.7" font-family="Helvetica,sans-Serif" font-size="14.00">squared_error = 2.736</text>
<text text-anchor="start" x="3771.5" y="-20.7" font-family="Helvetica,sans-Serif" font-size="14.00">samples = 3</text>
<text text-anchor="start" x="3764" y="-5.7" font-family="Helvetica,sans-Serif" font-size="14.00">value = 44.433</text>
</g>
<!-- 52&#45;&gt;53 -->
<g id="edge53" class="edge">
<title>52&#45;&gt;53</title>
<path fill="none" stroke="black" d="M3808.62,-88.68C3808.62,-80.99 3808.62,-72.76 3808.62,-64.9"/>
<polygon fill="black" stroke="black" points="3812.13,-64.91 3808.63,-54.91 3805.13,-64.91 3812.13,-64.91"/>
</g>
<!-- 54 -->
<g id="node55" class="node">
<title>54</title>
<path fill="#eca470" stroke="black" d="M4039.75,-53C4039.75,-53 3913.5,-53 3913.5,-53 3907.5,-53 3901.5,-47 3901.5,-41 3901.5,-41 3901.5,-12 3901.5,-12 3901.5,-6 3907.5,0 3913.5,0 3913.5,0 4039.75,0 4039.75,0 4045.75,0 4051.75,-6 4051.75,-12 4051.75,-12 4051.75,-41 4051.75,-41 4051.75,-47 4045.75,-53 4039.75,-53"/>
<text text-anchor="start" x="3909.5" y="-35.7" font-family="Helvetica,sans-Serif" font-size="14.00">squared_error = 4.724</text>
<text text-anchor="start" x="3939.5" y="-20.7" font-family="Helvetica,sans-Serif" font-size="14.00">samples = 5</text>
<text text-anchor="start" x="3939.5" y="-5.7" font-family="Helvetica,sans-Serif" font-size="14.00">value = 38.6</text>
</g>
<!-- 52&#45;&gt;54 -->
<g id="edge54" class="edge">
<title>52&#45;&gt;54</title>
<path fill="none" stroke="black" d="M3867.86,-88.68C3885.07,-79 3903.81,-68.46 3920.81,-58.9"/>
<polygon fill="black" stroke="black" points="3922.27,-62.09 3929.27,-54.14 3918.84,-55.99 3922.27,-62.09"/>
</g>
</g>
</svg>