<?xml version="1.0" encoding="UTF-8" standalone="no"?>
<!DOCTYPE svg PUBLIC "-//W3C//DTD SVG 1.1//EN"
 "http://www.w3.org/Graphics/SVG/1.1/DTD/svg11.dtd">
<!-- Generated by graphviz version 8.1.0 (20230707.0739)
 -->
<!-- Title: Tree Pages: 1 -->
<svg width="3460pt" height="581pt"
 viewBox="0.00 0.00 3459.75 581.00" xmlns="http://www.w3.org/2000/svg" xmlns:xlink="http://www.w3.org/1999/xlink">
<g id="graph0" class="graph" transform="scale(1 1) rotate(0) translate(4 577)">
<title>Tree</title>
<polygon fill="white" stroke="none" points="-4,4 -4,-577 3455.75,-577 3455.75,4 -4,4"/>
<!-- 0 -->
<g id="node1" class="node">
<title>0</title>
<path fill="#f7d6bf" stroke="black" d="M2100.75,-573C2100.75,-573 1974.5,-573 1974.5,-573 1968.5,-573 1962.5,-567 1962.5,-561 1962.5,-561 1962.5,-517 1962.5,-517 1962.5,-511 1968.5,-505 1974.5,-505 1974.5,-505 2100.75,-505 2100.75,-505 2106.75,-505 2112.75,-511 2112.75,-517 2112.75,-517 2112.75,-561 2112.75,-561 2112.75,-567 2106.75,-573 2100.75,-573"/>
<text text-anchor="start" x="2005" y="-555.7" font-family="Helvetica,sans-Serif" font-size="14.00">rm ≤ 6.941</text>
<text text-anchor="start" x="1970.5" y="-540.7" font-family="Helvetica,sans-Serif" font-size="14.00">squared_error = 83.31</text>
<text text-anchor="start" x="1993" y="-525.7" font-family="Helvetica,sans-Serif" font-size="14.00">samples = 404</text>
<text text-anchor="start" x="1993" y="-510.7" font-family="Helvetica,sans-Serif" font-size="14.00">value = 22.509</text>
</g>
<!-- 1 -->
<g id="node2" class="node">
<title>1</title>
<path fill="#f8decc" stroke="black" d="M1542.5,-469C1542.5,-469 1408.75,-469 1408.75,-469 1402.75,-469 1396.75,-463 1396.75,-457 1396.75,-457 1396.75,-413 1396.75,-413 1396.75,-407 1402.75,-401 1408.75,-401 1408.75,-401 1542.5,-401 1542.5,-401 1548.5,-401 1554.5,-407 1554.5,-413 1554.5,-413 1554.5,-457 1554.5,-457 1554.5,-463 1548.5,-469 1542.5,-469"/>
<text text-anchor="start" x="1442.62" y="-451.7" font-family="Helvetica,sans-Serif" font-size="14.00">lstat ≤ 14.4</text>
<text text-anchor="start" x="1404.75" y="-436.7" font-family="Helvetica,sans-Serif" font-size="14.00">squared_error = 38.927</text>
<text text-anchor="start" x="1431" y="-421.7" font-family="Helvetica,sans-Serif" font-size="14.00">samples = 345</text>
<text text-anchor="start" x="1431" y="-406.7" font-family="Helvetica,sans-Serif" font-size="14.00">value = 19.902</text>
</g>
<!-- 0&#45;&gt;1 -->
<g id="edge1" class="edge">
<title>0&#45;&gt;1</title>
<path fill="none" stroke="black" d="M1962.12,-524.3C1859.28,-505.63 1675.4,-472.26 1565.55,-452.32"/>
<polygon fill="black" stroke="black" points="1566.29,-448.72 1555.83,-450.37 1565.04,-455.6 1566.29,-448.72"/>
<text text-anchor="middle" x="1569.06" y="-465.13" font-family="Helvetica,sans-Serif" font-size="14.00">True</text>
</g>
<!-- 28 -->
<g id="node29" class="node">
<title>28</title>
<path fill="#eda775" stroke="black" d="M2597.5,-469C2597.5,-469 2463.75,-469 2463.75,-469 2457.75,-469 2451.75,-463 2451.75,-457 2451.75,-457 2451.75,-413 2451.75,-413 2451.75,-407 2457.75,-401 2463.75,-401 2463.75,-401 2597.5,-401 2597.5,-401 2603.5,-401 2609.5,-407 2609.5,-413 2609.5,-413 2609.5,-457 2609.5,-457 2609.5,-463 2603.5,-469 2597.5,-469"/>
<text text-anchor="start" x="2498" y="-451.7" font-family="Helvetica,sans-Serif" font-size="14.00">rm ≤ 7.437</text>
<text text-anchor="start" x="2459.75" y="-436.7" font-family="Helvetica,sans-Serif" font-size="14.00">squared_error = 70.619</text>
<text text-anchor="start" x="2489.75" y="-421.7" font-family="Helvetica,sans-Serif" font-size="14.00">samples = 59</text>
<text text-anchor="start" x="2486" y="-406.7" font-family="Helvetica,sans-Serif" font-size="14.00">value = 37.756</text>
</g>
<!-- 0&#45;&gt;28 -->
<g id="edge28" class="edge">
<title>0&#45;&gt;28</title>
<path fill="none" stroke="black" d="M2113.04,-522.4C2201.21,-504.15 2347.02,-473.99 2440.93,-454.56"/>
<polygon fill="black" stroke="black" points="2441.46,-457.81 2450.55,-452.36 2440.05,-450.96 2441.46,-457.81"/>
<text text-anchor="middle" x="2437.82" y="-467.45" font-family="Helvetica,sans-Serif" font-size="14.00">False</text>
</g>
<!-- 2 -->
<g id="node3" class="node">
<title>2</title>
<path fill="#f6d4bb" stroke="black" d="M544.5,-365C544.5,-365 410.75,-365 410.75,-365 404.75,-365 398.75,-359 398.75,-353 398.75,-353 398.75,-309 398.75,-309 398.75,-303 404.75,-297 410.75,-297 410.75,-297 544.5,-297 544.5,-297 550.5,-297 556.5,-303 556.5,-309 556.5,-309 556.5,-353 556.5,-353 556.5,-359 550.5,-365 544.5,-365"/>
<text text-anchor="start" x="444.62" y="-347.7" font-family="Helvetica,sans-Serif" font-size="14.00">dis ≤ 1.434</text>
<text text-anchor="start" x="406.75" y="-332.7" font-family="Helvetica,sans-Serif" font-size="14.00">squared_error = 24.376</text>
<text text-anchor="start" x="433" y="-317.7" font-family="Helvetica,sans-Serif" font-size="14.00">samples = 202</text>
<text text-anchor="start" x="433" y="-302.7" font-family="Helvetica,sans-Serif" font-size="14.00">value = 23.319</text>
</g>
<!-- 1&#45;&gt;2 -->
<g id="edge2" class="edge">
<title>1&#45;&gt;2</title>
<path fill="none" stroke="black" d="M1396.48,-425.91C1213.23,-407.18 760.71,-360.93 567.46,-341.18"/>
<polygon fill="black" stroke="black" points="568.08,-337.62 557.78,-340.09 567.37,-344.59 568.08,-337.62"/>
</g>
<!-- 13 -->
<g id="node14" class="node">
<title>13</title>
<path fill="#fbede3" stroke="black" d="M1542.5,-365C1542.5,-365 1408.75,-365 1408.75,-365 1402.75,-365 1396.75,-359 1396.75,-353 1396.75,-353 1396.75,-309 1396.75,-309 1396.75,-303 1402.75,-297 1408.75,-297 1408.75,-297 1542.5,-297 1542.5,-297 1548.5,-297 1554.5,-303 1554.5,-309 1554.5,-309 1554.5,-353 1554.5,-353 1554.5,-359 1548.5,-365 1542.5,-365"/>
<text text-anchor="start" x="1438.12" y="-347.7" font-family="Helvetica,sans-Serif" font-size="14.00">crim ≤ 7.006</text>
<text text-anchor="start" x="1404.75" y="-332.7" font-family="Helvetica,sans-Serif" font-size="14.00">squared_error = 19.677</text>
<text text-anchor="start" x="1431" y="-317.7" font-family="Helvetica,sans-Serif" font-size="14.00">samples = 143</text>
<text text-anchor="start" x="1431" y="-302.7" font-family="Helvetica,sans-Serif" font-size="14.00">value = 15.074</text>
</g>
<!-- 1&#45;&gt;13 -->
<g id="edge13" class="edge">
<title>1&#45;&gt;13</title>
<path fill="none" stroke="black" d="M1475.62,-400.6C1475.62,-392.85 1475.62,-384.49 1475.62,-376.35"/>
<polygon fill="black" stroke="black" points="1479.13,-376.47 1475.62,-366.47 1472.13,-376.47 1479.13,-376.47"/>
</g>
<!-- 3 -->
<g id="node4" class="node">
<title>3</title>
<path fill="#e99254" stroke="black" d="M290.5,-261C290.5,-261 156.75,-261 156.75,-261 150.75,-261 144.75,-255 144.75,-249 144.75,-249 144.75,-205 144.75,-205 144.75,-199 150.75,-193 156.75,-193 156.75,-193 290.5,-193 290.5,-193 296.5,-193 302.5,-199 302.5,-205 302.5,-205 302.5,-249 302.5,-249 302.5,-255 296.5,-261 290.5,-261"/>
<text text-anchor="start" x="182.38" y="-243.7" font-family="Helvetica,sans-Serif" font-size="14.00">crim ≤ 10.109</text>
<text text-anchor="start" x="152.75" y="-228.7" font-family="Helvetica,sans-Serif" font-size="14.00">squared_error = 91.577</text>
<text text-anchor="start" x="186.5" y="-213.7" font-family="Helvetica,sans-Serif" font-size="14.00">samples = 4</text>
<text text-anchor="start" x="179" y="-198.7" font-family="Helvetica,sans-Serif" font-size="14.00">value = 44.475</text>
</g>
<!-- 2&#45;&gt;3 -->
<g id="edge3" class="edge">
<title>2&#45;&gt;3</title>
<path fill="none" stroke="black" d="M398.3,-298.15C371.21,-287.27 340.73,-275.03 312.9,-263.85"/>
<polygon fill="black" stroke="black" points="314.37,-260.27 303.78,-259.79 311.76,-266.76 314.37,-260.27"/>
</g>
<!-- 6 -->
<g id="node7" class="node">
<title>6</title>
<path fill="#f6d5bd" stroke="black" d="M544.5,-261C544.5,-261 410.75,-261 410.75,-261 404.75,-261 398.75,-255 398.75,-249 398.75,-249 398.75,-205 398.75,-205 398.75,-199 404.75,-193 410.75,-193 410.75,-193 544.5,-193 544.5,-193 550.5,-193 556.5,-199 556.5,-205 556.5,-205 556.5,-249 556.5,-249 556.5,-255 550.5,-261 544.5,-261"/>
<text text-anchor="start" x="445" y="-243.7" font-family="Helvetica,sans-Serif" font-size="14.00">rm ≤ 6.543</text>
<text text-anchor="start" x="406.75" y="-228.7" font-family="Helvetica,sans-Serif" font-size="14.00">squared_error = 13.794</text>
<text text-anchor="start" x="433" y="-213.7" font-family="Helvetica,sans-Serif" font-size="14.00">samples = 198</text>
<text text-anchor="start" x="433" y="-198.7" font-family="Helvetica,sans-Serif" font-size="14.00">value = 22.892</text>
</g>
<!-- 2&#45;&gt;6 -->
<g id="edge6" class="edge">
<title>2&#45;&gt;6</title>
<path fill="none" stroke="black" d="M477.62,-296.6C477.62,-288.85 477.62,-280.49 477.62,-272.35"/>
<polygon fill="black" stroke="black" points="481.13,-272.47 477.62,-262.47 474.13,-272.47 481.13,-272.47"/>
</g>
<!-- 4 -->
<g id="node5" class="node">
<title>4</title>
<path fill="#e58139" stroke="black" d="M123.25,-149.5C123.25,-149.5 12,-149.5 12,-149.5 6,-149.5 0,-143.5 0,-137.5 0,-137.5 0,-108.5 0,-108.5 0,-102.5 6,-96.5 12,-96.5 12,-96.5 123.25,-96.5 123.25,-96.5 129.25,-96.5 135.25,-102.5 135.25,-108.5 135.25,-108.5 135.25,-137.5 135.25,-137.5 135.25,-143.5 129.25,-149.5 123.25,-149.5"/>
<text text-anchor="start" x="8" y="-132.2" font-family="Helvetica,sans-Serif" font-size="14.00">squared_error = 0.0</text>
<text text-anchor="start" x="30.5" y="-117.2" font-family="Helvetica,sans-Serif" font-size="14.00">samples = 3</text>
<text text-anchor="start" x="30.5" y="-102.2" font-family="Helvetica,sans-Serif" font-size="14.00">value = 50.0</text>
</g>
<!-- 3&#45;&gt;4 -->
<g id="edge4" class="edge">
<title>3&#45;&gt;4</title>
<path fill="none" stroke="black" d="M172.54,-192.6C154.46,-180.78 134.17,-167.51 116.29,-155.82"/>
<polygon fill="black" stroke="black" points="118.47,-152.41 108.19,-149.87 114.64,-158.27 118.47,-152.41"/>
</g>
<!-- 5 -->
<g id="node6" class="node">
<title>5</title>
<path fill="#f3c5a5" stroke="black" d="M281.5,-149.5C281.5,-149.5 165.75,-149.5 165.75,-149.5 159.75,-149.5 153.75,-143.5 153.75,-137.5 153.75,-137.5 153.75,-108.5 153.75,-108.5 153.75,-102.5 159.75,-96.5 165.75,-96.5 165.75,-96.5 281.5,-96.5 281.5,-96.5 287.5,-96.5 293.5,-102.5 293.5,-108.5 293.5,-108.5 293.5,-137.5 293.5,-137.5 293.5,-143.5 287.5,-149.5 281.5,-149.5"/>
<text text-anchor="start" x="161.75" y="-132.2" font-family="Helvetica,sans-Serif" font-size="14.00">squared_error = &#45;0.0</text>
<text text-anchor="start" x="186.5" y="-117.2" font-family="Helvetica,sans-Serif" font-size="14.00">samples = 1</text>
<text text-anchor="start" x="186.5" y="-102.2" font-family="Helvetica,sans-Serif" font-size="14.00">value = 27.9</text>
</g>
<!-- 3&#45;&gt;5 -->
<g id="edge5" class="edge">
<title>3&#45;&gt;5</title>
<path fill="none" stroke="black" d="M223.62,-192.6C223.62,-182.36 223.62,-171.04 223.62,-160.6"/>
<polygon fill="black" stroke="black" points="227.13,-160.71 223.62,-150.71 220.13,-160.71 227.13,-160.71"/>
</g>
<!-- 7 -->
<g id="node8" class="node">
<title>7</title>
<path fill="#f7d9c3" stroke="black" d="M449.75,-157C449.75,-157 323.5,-157 323.5,-157 317.5,-157 311.5,-151 311.5,-145 311.5,-145 311.5,-101 311.5,-101 311.5,-95 317.5,-89 323.5,-89 323.5,-89 449.75,-89 449.75,-89 455.75,-89 461.75,-95 461.75,-101 461.75,-101 461.75,-145 461.75,-145 461.75,-151 455.75,-157 449.75,-157"/>
<text text-anchor="start" x="353.62" y="-139.7" font-family="Helvetica,sans-Serif" font-size="14.00">lstat ≤ 7.57</text>
<text text-anchor="start" x="319.5" y="-124.7" font-family="Helvetica,sans-Serif" font-size="14.00">squared_error = 7.564</text>
<text text-anchor="start" x="342" y="-109.7" font-family="Helvetica,sans-Serif" font-size="14.00">samples = 157</text>
<text text-anchor="start" x="342" y="-94.7" font-family="Helvetica,sans-Serif" font-size="14.00">value = 21.662</text>
</g>
<!-- 6&#45;&gt;7 -->
<g id="edge7" class="edge">
<title>6&#45;&gt;7</title>
<path fill="none" stroke="black" d="M447.83,-192.6C440.13,-183.97 431.75,-174.58 423.72,-165.58"/>
<polygon fill="black" stroke="black" points="426.76,-163.61 417.49,-158.47 421.53,-168.27 426.76,-163.61"/>
</g>
<!-- 10 -->
<g id="node11" class="node">
<title>10</title>
<path fill="#f3c6a6" stroke="black" d="M617.75,-157C617.75,-157 491.5,-157 491.5,-157 485.5,-157 479.5,-151 479.5,-145 479.5,-145 479.5,-101 479.5,-101 479.5,-95 485.5,-89 491.5,-89 491.5,-89 617.75,-89 617.75,-89 623.75,-89 629.75,-95 629.75,-101 629.75,-101 629.75,-145 629.75,-145 629.75,-151 623.75,-157 617.75,-157"/>
<text text-anchor="start" x="511.5" y="-139.7" font-family="Helvetica,sans-Serif" font-size="14.00">ptratio ≤ 18.15</text>
<text text-anchor="start" x="487.5" y="-124.7" font-family="Helvetica,sans-Serif" font-size="14.00">squared_error = 9.694</text>
<text text-anchor="start" x="513.75" y="-109.7" font-family="Helvetica,sans-Serif" font-size="14.00">samples = 41</text>
<text text-anchor="start" x="517.5" y="-94.7" font-family="Helvetica,sans-Serif" font-size="14.00">value = 27.6</text>
</g>
<!-- 6&#45;&gt;10 -->
<g id="edge10" class="edge">
<title>6&#45;&gt;10</title>
<path fill="none" stroke="black" d="M502.84,-192.6C509.22,-184.15 516.16,-174.96 522.82,-166.13"/>
<polygon fill="black" stroke="black" points="526.12,-168.56 529.36,-158.47 520.54,-164.35 526.12,-168.56"/>
</g>
<!-- 8 -->
<g id="node9" class="node">
<title>8</title>
<path fill="#f6d1b7" stroke="black" d="M281.75,-53C281.75,-53 155.5,-53 155.5,-53 149.5,-53 143.5,-47 143.5,-41 143.5,-41 143.5,-12 143.5,-12 143.5,-6 149.5,0 155.5,0 155.5,0 281.75,0 281.75,0 287.75,0 293.75,-6 293.75,-12 293.75,-12 293.75,-41 293.75,-41 293.75,-47 287.75,-53 281.75,-53"/>
<text text-anchor="start" x="151.5" y="-35.7" font-family="Helvetica,sans-Serif" font-size="14.00">squared_error = 3.243</text>
<text text-anchor="start" x="177.75" y="-20.7" font-family="Helvetica,sans-Serif" font-size="14.00">samples = 35</text>
<text text-anchor="start" x="174" y="-5.7" font-family="Helvetica,sans-Serif" font-size="14.00">value = 24.091</text>
</g>
<!-- 7&#45;&gt;8 -->
<g id="edge8" class="edge">
<title>7&#45;&gt;8</title>
<path fill="none" stroke="black" d="M327.39,-88.68C310.02,-78.91 291.09,-68.26 273.96,-58.63"/>
<polygon fill="black" stroke="black" points="276.09,-55.25 265.66,-53.39 272.66,-61.35 276.09,-55.25"/>
</g>
<!-- 9 -->
<g id="node10" class="node">
<title>9</title>
<path fill="#f8dbc6" stroke="black" d="M449.75,-53C449.75,-53 323.5,-53 323.5,-53 317.5,-53 311.5,-47 311.5,-41 311.5,-41 311.5,-12 311.5,-12 311.5,-6 317.5,0 323.5,0 323.5,0 449.75,0 449.75,0 455.75,0 461.75,-6 461.75,-12 461.75,-12 461.75,-41 461.75,-41 461.75,-47 455.75,-53 449.75,-53"/>
<text text-anchor="start" x="319.5" y="-35.7" font-family="Helvetica,sans-Serif" font-size="14.00">squared_error = 6.626</text>
<text text-anchor="start" x="342" y="-20.7" font-family="Helvetica,sans-Serif" font-size="14.00">samples = 122</text>
<text text-anchor="start" x="342" y="-5.7" font-family="Helvetica,sans-Serif" font-size="14.00">value = 20.966</text>
</g>
<!-- 7&#45;&gt;9 -->
<g id="edge9" class="edge">
<title>7&#45;&gt;9</title>
<path fill="none" stroke="black" d="M386.62,-88.68C386.62,-80.81 386.62,-72.37 386.62,-64.35"/>
<polygon fill="black" stroke="black" points="390.13,-64.39 386.62,-54.39 383.13,-64.39 390.13,-64.39"/>
</g>
<!-- 11 -->
<g id="node12" class="node">
<title>11</title>
<path fill="#f2c29f" stroke="black" d="M617.75,-53C617.75,-53 491.5,-53 491.5,-53 485.5,-53 479.5,-47 479.5,-41 479.5,-41 479.5,-12 479.5,-12 479.5,-6 485.5,0 491.5,0 491.5,0 617.75,0 617.75,0 623.75,0 629.75,-6 629.75,-12 629.75,-12 629.75,-41 629.75,-41 629.75,-47 623.75,-53 617.75,-53"/>
<text text-anchor="start" x="487.5" y="-35.7" font-family="Helvetica,sans-Serif" font-size="14.00">squared_error = 7.527</text>
<text text-anchor="start" x="513.75" y="-20.7" font-family="Helvetica,sans-Serif" font-size="14.00">samples = 25</text>
<text text-anchor="start" x="510" y="-5.7" font-family="Helvetica,sans-Serif" font-size="14.00">value = 28.988</text>
</g>
<!-- 10&#45;&gt;11 -->
<g id="edge11" class="edge">
<title>10&#45;&gt;11</title>
<path fill="none" stroke="black" d="M554.62,-88.68C554.62,-80.81 554.62,-72.37 554.62,-64.35"/>
<polygon fill="black" stroke="black" points="558.13,-64.39 554.62,-54.39 551.13,-64.39 558.13,-64.39"/>
</g>
<!-- 12 -->
<g id="node13" class="node">
<title>12</title>
<path fill="#f5cdb1" stroke="black" d="M785.75,-53C785.75,-53 659.5,-53 659.5,-53 653.5,-53 647.5,-47 647.5,-41 647.5,-41 647.5,-12 647.5,-12 647.5,-6 653.5,0 659.5,0 659.5,0 785.75,0 785.75,0 791.75,0 797.75,-6 797.75,-12 797.75,-12 797.75,-41 797.75,-41 797.75,-47 791.75,-53 785.75,-53"/>
<text text-anchor="start" x="655.5" y="-35.7" font-family="Helvetica,sans-Serif" font-size="14.00">squared_error = 5.366</text>
<text text-anchor="start" x="681.75" y="-20.7" font-family="Helvetica,sans-Serif" font-size="14.00">samples = 16</text>
<text text-anchor="start" x="678" y="-5.7" font-family="Helvetica,sans-Serif" font-size="14.00">value = 25.431</text>
</g>
<!-- 10&#45;&gt;12 -->
<g id="edge12" class="edge">
<title>10&#45;&gt;12</title>
<path fill="none" stroke="black" d="M613.86,-88.68C631.23,-78.91 650.16,-68.26 667.29,-58.63"/>
<polygon fill="black" stroke="black" points="668.59,-61.35 675.59,-53.39 665.16,-55.25 668.59,-61.35"/>
</g>
<!-- 14 -->
<g id="node15" class="node">
<title>14</title>
<path fill="#fae6d8" stroke="black" d="M1374.5,-261C1374.5,-261 1240.75,-261 1240.75,-261 1234.75,-261 1228.75,-255 1228.75,-249 1228.75,-249 1228.75,-205 1228.75,-205 1228.75,-199 1234.75,-193 1240.75,-193 1240.75,-193 1374.5,-193 1374.5,-193 1380.5,-193 1386.5,-199 1386.5,-205 1386.5,-205 1386.5,-249 1386.5,-249 1386.5,-255 1380.5,-261 1374.5,-261"/>
<text text-anchor="start" x="1272.38" y="-243.7" font-family="Helvetica,sans-Serif" font-size="14.00">nox ≤ 0.531</text>
<text text-anchor="start" x="1236.75" y="-228.7" font-family="Helvetica,sans-Serif" font-size="14.00">squared_error = 10.916</text>
<text text-anchor="start" x="1266.75" y="-213.7" font-family="Helvetica,sans-Serif" font-size="14.00">samples = 83</text>
<text text-anchor="start" x="1263" y="-198.7" font-family="Helvetica,sans-Serif" font-size="14.00">value = 17.267</text>
</g>
<!-- 13&#45;&gt;14 -->
<g id="edge14" class="edge">
<title>13&#45;&gt;14</title>
<path fill="none" stroke="black" d="M1420.62,-296.6C1405.1,-287.18 1388.07,-276.84 1372.05,-267.12"/>
<polygon fill="black" stroke="black" points="1374.12,-263.67 1363.76,-261.47 1370.49,-269.66 1374.12,-263.67"/>
</g>
<!-- 21 -->
<g id="node22" class="node">
<title>21</title>
<path fill="#fdf7f2" stroke="black" d="M1705.5,-261C1705.5,-261 1571.75,-261 1571.75,-261 1565.75,-261 1559.75,-255 1559.75,-249 1559.75,-249 1559.75,-205 1559.75,-205 1559.75,-199 1565.75,-193 1571.75,-193 1571.75,-193 1705.5,-193 1705.5,-193 1711.5,-193 1717.5,-199 1717.5,-205 1717.5,-205 1717.5,-249 1717.5,-249 1717.5,-255 1711.5,-261 1705.5,-261"/>
<text text-anchor="start" x="1603.38" y="-243.7" font-family="Helvetica,sans-Serif" font-size="14.00">nox ≤ 0.606</text>
<text text-anchor="start" x="1567.75" y="-228.7" font-family="Helvetica,sans-Serif" font-size="14.00">squared_error = 15.934</text>
<text text-anchor="start" x="1597.75" y="-213.7" font-family="Helvetica,sans-Serif" font-size="14.00">samples = 60</text>
<text text-anchor="start" x="1597.75" y="-198.7" font-family="Helvetica,sans-Serif" font-size="14.00">value = 12.04</text>
</g>
<!-- 13&#45;&gt;21 -->
<g id="edge21" class="edge">
<title>13&#45;&gt;21</title>
<path fill="none" stroke="black" d="M1529,-296.6C1544.05,-287.18 1560.57,-276.84 1576.11,-267.12"/>
<polygon fill="black" stroke="black" points="1577.51,-269.75 1584.13,-261.47 1573.8,-263.81 1577.51,-269.75"/>
</g>
<!-- 15 -->
<g id="node16" class="node">
<title>15</title>
<path fill="#f8decb" stroke="black" d="M1118.75,-157C1118.75,-157 992.5,-157 992.5,-157 986.5,-157 980.5,-151 980.5,-145 980.5,-145 980.5,-101 980.5,-101 980.5,-95 986.5,-89 992.5,-89 992.5,-89 1118.75,-89 1118.75,-89 1124.75,-89 1130.75,-95 1130.75,-101 1130.75,-101 1130.75,-145 1130.75,-145 1130.75,-151 1124.75,-157 1118.75,-157"/>
<text text-anchor="start" x="1026.38" y="-139.7" font-family="Helvetica,sans-Serif" font-size="14.00">dis ≤ 5.57</text>
<text text-anchor="start" x="988.5" y="-124.7" font-family="Helvetica,sans-Serif" font-size="14.00">squared_error = 9.814</text>
<text text-anchor="start" x="1014.75" y="-109.7" font-family="Helvetica,sans-Serif" font-size="14.00">samples = 22</text>
<text text-anchor="start" x="1011" y="-94.7" font-family="Helvetica,sans-Serif" font-size="14.00">value = 20.036</text>
</g>
<!-- 14&#45;&gt;15 -->
<g id="edge15" class="edge">
<title>14&#45;&gt;15</title>
<path fill="none" stroke="black" d="M1228.58,-194.01C1200.69,-182.72 1169.22,-169.98 1140.84,-158.49"/>
<polygon fill="black" stroke="black" points="1142.53,-154.99 1131.95,-154.49 1139.9,-161.48 1142.53,-154.99"/>
</g>
<!-- 18 -->
<g id="node19" class="node">
<title>18</title>
<path fill="#fbeadd" stroke="black" d="M1370.75,-157C1370.75,-157 1244.5,-157 1244.5,-157 1238.5,-157 1232.5,-151 1232.5,-145 1232.5,-145 1232.5,-101 1232.5,-101 1232.5,-95 1238.5,-89 1244.5,-89 1244.5,-89 1370.75,-89 1370.75,-89 1376.75,-89 1382.75,-95 1382.75,-101 1382.75,-101 1382.75,-145 1382.75,-145 1382.75,-151 1376.75,-157 1370.75,-157"/>
<text text-anchor="start" x="1275.75" y="-139.7" font-family="Helvetica,sans-Serif" font-size="14.00">age ≤ 85.2</text>
<text text-anchor="start" x="1240.5" y="-124.7" font-family="Helvetica,sans-Serif" font-size="14.00">squared_error = 7.552</text>
<text text-anchor="start" x="1266.75" y="-109.7" font-family="Helvetica,sans-Serif" font-size="14.00">samples = 61</text>
<text text-anchor="start" x="1263" y="-94.7" font-family="Helvetica,sans-Serif" font-size="14.00">value = 16.269</text>
</g>
<!-- 14&#45;&gt;18 -->
<g id="edge18" class="edge">
<title>14&#45;&gt;18</title>
<path fill="none" stroke="black" d="M1307.62,-192.6C1307.62,-184.85 1307.62,-176.49 1307.62,-168.35"/>
<polygon fill="black" stroke="black" points="1311.13,-168.47 1307.62,-158.47 1304.13,-168.47 1311.13,-168.47"/>
</g>
<!-- 16 -->
<g id="node17" class="node">
<title>16</title>
<path fill="#f7d9c3" stroke="black" d="M947,-53C947,-53 828.25,-53 828.25,-53 822.25,-53 816.25,-47 816.25,-41 816.25,-41 816.25,-12 816.25,-12 816.25,-6 822.25,0 828.25,0 828.25,0 947,0 947,0 953,0 959,-6 959,-12 959,-12 959,-41 959,-41 959,-47 953,-53 947,-53"/>
<text text-anchor="start" x="824.25" y="-35.7" font-family="Helvetica,sans-Serif" font-size="14.00">squared_error = 2.72</text>
<text text-anchor="start" x="846.75" y="-20.7" font-family="Helvetica,sans-Serif" font-size="14.00">samples = 12</text>
<text text-anchor="start" x="843" y="-5.7" font-family="Helvetica,sans-Serif" font-size="14.00">value = 21.625</text>
</g>
<!-- 15&#45;&gt;16 -->
<g id="edge16" class="edge">
<title>15&#45;&gt;16</title>
<path fill="none" stroke="black" d="M996.39,-88.68C979.02,-78.91 960.09,-68.26 942.96,-58.63"/>
<polygon fill="black" stroke="black" points="945.09,-55.25 934.66,-53.39 941.66,-61.35 945.09,-55.25"/>
</g>
<!-- 17 -->
<g id="node18" class="node">
<title>17</title>
<path fill="#f9e4d4" stroke="black" d="M1122.5,-53C1122.5,-53 988.75,-53 988.75,-53 982.75,-53 976.75,-47 976.75,-41 976.75,-41 976.75,-12 976.75,-12 976.75,-6 982.75,0 988.75,0 988.75,0 1122.5,0 1122.5,0 1128.5,0 1134.5,-6 1134.5,-12 1134.5,-12 1134.5,-41 1134.5,-41 1134.5,-47 1128.5,-53 1122.5,-53"/>
<text text-anchor="start" x="984.75" y="-35.7" font-family="Helvetica,sans-Serif" font-size="14.00">squared_error = 11.664</text>
<text text-anchor="start" x="1014.75" y="-20.7" font-family="Helvetica,sans-Serif" font-size="14.00">samples = 10</text>
<text text-anchor="start" x="1014.75" y="-5.7" font-family="Helvetica,sans-Serif" font-size="14.00">value = 18.13</text>
</g>
<!-- 15&#45;&gt;17 -->
<g id="edge17" class="edge">
<title>15&#45;&gt;17</title>
<path fill="none" stroke="black" d="M1055.62,-88.68C1055.62,-80.81 1055.62,-72.37 1055.62,-64.35"/>
<polygon fill="black" stroke="black" points="1059.13,-64.39 1055.62,-54.39 1052.13,-64.39 1059.13,-64.39"/>
</g>
<!-- 19 -->
<g id="node20" class="node">
<title>19</title>
<path fill="#f9e2d2" stroke="black" d="M1290.75,-53C1290.75,-53 1164.5,-53 1164.5,-53 1158.5,-53 1152.5,-47 1152.5,-41 1152.5,-41 1152.5,-12 1152.5,-12 1152.5,-6 1158.5,0 1164.5,0 1164.5,0 1290.75,0 1290.75,0 1296.75,0 1302.75,-6 1302.75,-12 1302.75,-12 1302.75,-41 1302.75,-41 1302.75,-47 1296.75,-53 1290.75,-53"/>
<text text-anchor="start" x="1160.5" y="-35.7" font-family="Helvetica,sans-Serif" font-size="14.00">squared_error = 5.907</text>
<text text-anchor="start" x="1186.75" y="-20.7" font-family="Helvetica,sans-Serif" font-size="14.00">samples = 12</text>
<text text-anchor="start" x="1183" y="-5.7" font-family="Helvetica,sans-Serif" font-size="14.00">value = 18.575</text>
</g>
<!-- 18&#45;&gt;19 -->
<g id="edge19" class="edge">
<title>18&#45;&gt;19</title>
<path fill="none" stroke="black" d="M1279.42,-88.68C1271.99,-79.9 1263.96,-70.42 1256.49,-61.6"/>
<polygon fill="black" stroke="black" points="1258.68,-59.76 1249.55,-54.39 1253.34,-64.29 1258.68,-59.76"/>
</g>
<!-- 20 -->
<g id="node21" class="node">
<title>20</title>
<path fill="#fbebe0" stroke="black" d="M1458.75,-53C1458.75,-53 1332.5,-53 1332.5,-53 1326.5,-53 1320.5,-47 1320.5,-41 1320.5,-41 1320.5,-12 1320.5,-12 1320.5,-6 1326.5,0 1332.5,0 1332.5,0 1458.75,0 1458.75,0 1464.75,0 1470.75,-6 1470.75,-12 1470.75,-12 1470.75,-41 1470.75,-41 1470.75,-47 1464.75,-53 1458.75,-53"/>
<text text-anchor="start" x="1328.5" y="-35.7" font-family="Helvetica,sans-Serif" font-size="14.00">squared_error = 6.333</text>
<text text-anchor="start" x="1354.75" y="-20.7" font-family="Helvetica,sans-Serif" font-size="14.00">samples = 49</text>
<text text-anchor="start" x="1351" y="-5.7" font-family="Helvetica,sans-Serif" font-size="14.00">value = 15.704</text>
</g>
<!-- 18&#45;&gt;20 -->
<g id="edge20" class="edge">
<title>18&#45;&gt;20</title>
<path fill="none" stroke="black" d="M1338.65,-88.68C1346.91,-79.81 1355.84,-70.23 1364.12,-61.33"/>
<polygon fill="black" stroke="black" points="1366.26,-64.1 1370.51,-54.39 1361.14,-59.33 1366.26,-64.1"/>
</g>
<!-- 22 -->
<g id="node23" class="node">
<title>22</title>
<path fill="#fae8db" stroke="black" d="M1705.5,-157C1705.5,-157 1571.75,-157 1571.75,-157 1565.75,-157 1559.75,-151 1559.75,-145 1559.75,-145 1559.75,-101 1559.75,-101 1559.75,-95 1565.75,-89 1571.75,-89 1571.75,-89 1705.5,-89 1705.5,-89 1711.5,-89 1717.5,-95 1717.5,-101 1717.5,-101 1717.5,-145 1717.5,-145 1717.5,-151 1711.5,-157 1705.5,-157"/>
<text text-anchor="start" x="1606" y="-139.7" font-family="Helvetica,sans-Serif" font-size="14.00">rm ≤ 6.843</text>
<text text-anchor="start" x="1567.75" y="-124.7" font-family="Helvetica,sans-Serif" font-size="14.00">squared_error = 21.704</text>
<text text-anchor="start" x="1597.75" y="-109.7" font-family="Helvetica,sans-Serif" font-size="14.00">samples = 10</text>
<text text-anchor="start" x="1597.75" y="-94.7" font-family="Helvetica,sans-Serif" font-size="14.00">value = 16.72</text>
</g>
<!-- 21&#45;&gt;22 -->
<g id="edge22" class="edge">
<title>21&#45;&gt;22</title>
<path fill="none" stroke="black" d="M1638.62,-192.6C1638.62,-184.85 1638.62,-176.49 1638.62,-168.35"/>
<polygon fill="black" stroke="black" points="1642.13,-168.47 1638.62,-158.47 1635.13,-168.47 1642.13,-168.47"/>
</g>
<!-- 25 -->
<g id="node26" class="node">
<title>25</title>
<path fill="#fefaf6" stroke="black" d="M1948.75,-157C1948.75,-157 1822.5,-157 1822.5,-157 1816.5,-157 1810.5,-151 1810.5,-145 1810.5,-145 1810.5,-101 1810.5,-101 1810.5,-95 1816.5,-89 1822.5,-89 1822.5,-89 1948.75,-89 1948.75,-89 1954.75,-89 1960.75,-95 1960.75,-101 1960.75,-101 1960.75,-145 1960.75,-145 1960.75,-151 1954.75,-157 1948.75,-157"/>
<text text-anchor="start" x="1844.38" y="-139.7" font-family="Helvetica,sans-Serif" font-size="14.00">crim ≤ 11.369</text>
<text text-anchor="start" x="1818.5" y="-124.7" font-family="Helvetica,sans-Serif" font-size="14.00">squared_error = 9.524</text>
<text text-anchor="start" x="1844.75" y="-109.7" font-family="Helvetica,sans-Serif" font-size="14.00">samples = 50</text>
<text text-anchor="start" x="1841" y="-94.7" font-family="Helvetica,sans-Serif" font-size="14.00">value = 11.104</text>
</g>
<!-- 21&#45;&gt;25 -->
<g id="edge25" class="edge">
<title>21&#45;&gt;25</title>
<path fill="none" stroke="black" d="M1717.8,-193.31C1744.07,-182.46 1773.43,-170.33 1800.16,-159.29"/>
<polygon fill="black" stroke="black" points="1801.36,-162.17 1809.27,-155.12 1798.69,-155.7 1801.36,-162.17"/>
</g>
<!-- 23 -->
<g id="node24" class="node">
<title>23</title>
<path fill="#fbece1" stroke="black" d="M1626.75,-53C1626.75,-53 1500.5,-53 1500.5,-53 1494.5,-53 1488.5,-47 1488.5,-41 1488.5,-41 1488.5,-12 1488.5,-12 1488.5,-6 1494.5,0 1500.5,0 1500.5,0 1626.75,0 1626.75,0 1632.75,0 1638.75,-6 1638.75,-12 1638.75,-12 1638.75,-41 1638.75,-41 1638.75,-47 1632.75,-53 1626.75,-53"/>
<text text-anchor="start" x="1496.5" y="-35.7" font-family="Helvetica,sans-Serif" font-size="14.00">squared_error = 9.768</text>
<text text-anchor="start" x="1526.5" y="-20.7" font-family="Helvetica,sans-Serif" font-size="14.00">samples = 9</text>
<text text-anchor="start" x="1519" y="-5.7" font-family="Helvetica,sans-Serif" font-size="14.00">value = 15.522</text>
</g>
<!-- 22&#45;&gt;23 -->
<g id="edge23" class="edge">
<title>22&#45;&gt;23</title>
<path fill="none" stroke="black" d="M1612.18,-88.68C1605.29,-79.99 1597.84,-70.62 1590.91,-61.87"/>
<polygon fill="black" stroke="black" points="1593.13,-60.05 1584.18,-54.39 1587.65,-64.4 1593.13,-60.05"/>
</g>
<!-- 24 -->
<g id="node25" class="node">
<title>24</title>
<path fill="#f3c7a7" stroke="black" d="M1780.25,-53C1780.25,-53 1669,-53 1669,-53 1663,-53 1657,-47 1657,-41 1657,-41 1657,-12 1657,-12 1657,-6 1663,0 1669,0 1669,0 1780.25,0 1780.25,0 1786.25,0 1792.25,-6 1792.25,-12 1792.25,-12 1792.25,-41 1792.25,-41 1792.25,-47 1786.25,-53 1780.25,-53"/>
<text text-anchor="start" x="1665" y="-35.7" font-family="Helvetica,sans-Serif" font-size="14.00">squared_error = 0.0</text>
<text text-anchor="start" x="1687.5" y="-20.7" font-family="Helvetica,sans-Serif" font-size="14.00">samples = 1</text>
<text text-anchor="start" x="1687.5" y="-5.7" font-family="Helvetica,sans-Serif" font-size="14.00">value = 27.5</text>
</g>
<!-- 22&#45;&gt;24 -->
<g id="edge24" class="edge">
<title>22&#45;&gt;24</title>
<path fill="none" stroke="black" d="M1668.95,-88.68C1677.02,-79.81 1685.74,-70.23 1693.84,-61.33"/>
<polygon fill="black" stroke="black" points="1695.92,-64.15 1700.06,-54.39 1690.74,-59.43 1695.92,-64.15"/>
</g>
<!-- 26 -->
<g id="node27" class="node">
<title>26</title>
<path fill="#fdf3ec" stroke="black" d="M1948.75,-53C1948.75,-53 1822.5,-53 1822.5,-53 1816.5,-53 1810.5,-47 1810.5,-41 1810.5,-41 1810.5,-12 1810.5,-12 1810.5,-6 1816.5,0 1822.5,0 1822.5,0 1948.75,0 1948.75,0 1954.75,0 1960.75,-6 1960.75,-12 1960.75,-12 1960.75,-41 1960.75,-41 1960.75,-47 1954.75,-53 1948.75,-53"/>
<text text-anchor="start" x="1818.5" y="-35.7" font-family="Helvetica,sans-Serif" font-size="14.00">squared_error = 6.087</text>
<text text-anchor="start" x="1844.75" y="-20.7" font-family="Helvetica,sans-Serif" font-size="14.00">samples = 23</text>
<text text-anchor="start" x="1841" y="-5.7" font-family="Helvetica,sans-Serif" font-size="14.00">value = 13.187</text>
</g>
<!-- 25&#45;&gt;26 -->
<g id="edge26" class="edge">
<title>25&#45;&gt;26</title>
<path fill="none" stroke="black" d="M1885.62,-88.68C1885.62,-80.81 1885.62,-72.37 1885.62,-64.35"/>
<polygon fill="black" stroke="black" points="1889.13,-64.39 1885.62,-54.39 1882.13,-64.39 1889.13,-64.39"/>
</g>
<!-- 27 -->
<g id="node28" class="node">
<title>27</title>
<path fill="#ffffff" stroke="black" d="M2116.75,-53C2116.75,-53 1990.5,-53 1990.5,-53 1984.5,-53 1978.5,-47 1978.5,-41 1978.5,-41 1978.5,-12 1978.5,-12 1978.5,-6 1984.5,0 1990.5,0 1990.5,0 2116.75,0 2116.75,0 2122.75,0 2128.75,-6 2128.75,-12 2128.75,-12 2128.75,-41 2128.75,-41 2128.75,-47 2122.75,-53 2116.75,-53"/>
<text text-anchor="start" x="1986.5" y="-35.7" font-family="Helvetica,sans-Serif" font-size="14.00">squared_error = 5.607</text>
<text text-anchor="start" x="2012.75" y="-20.7" font-family="Helvetica,sans-Serif" font-size="14.00">samples = 27</text>
<text text-anchor="start" x="2016.5" y="-5.7" font-family="Helvetica,sans-Serif" font-size="14.00">value = 9.33</text>
</g>
<!-- 25&#45;&gt;27 -->
<g id="edge27" class="edge">
<title>25&#45;&gt;27</title>
<path fill="none" stroke="black" d="M1944.86,-88.68C1962.23,-78.91 1981.16,-68.26 1998.29,-58.63"/>
<polygon fill="black" stroke="black" points="1999.59,-61.35 2006.59,-53.39 1996.16,-55.25 1999.59,-61.35"/>
</g>
<!-- 29 -->
<g id="node30" class="node">
<title>29</title>
<path fill="#f0b68c" stroke="black" d="M2593.75,-365C2593.75,-365 2467.5,-365 2467.5,-365 2461.5,-365 2455.5,-359 2455.5,-353 2455.5,-353 2455.5,-309 2455.5,-309 2455.5,-303 2461.5,-297 2467.5,-297 2467.5,-297 2593.75,-297 2593.75,-297 2599.75,-297 2605.75,-303 2605.75,-309 2605.75,-309 2605.75,-353 2605.75,-353 2605.75,-359 2599.75,-365 2593.75,-365"/>
<text text-anchor="start" x="2495.38" y="-347.7" font-family="Helvetica,sans-Serif" font-size="14.00">nox ≤ 0.659</text>
<text text-anchor="start" x="2463.5" y="-332.7" font-family="Helvetica,sans-Serif" font-size="14.00">squared_error = 29.93</text>
<text text-anchor="start" x="2489.75" y="-317.7" font-family="Helvetica,sans-Serif" font-size="14.00">samples = 36</text>
<text text-anchor="start" x="2486" y="-302.7" font-family="Helvetica,sans-Serif" font-size="14.00">value = 32.858</text>
</g>
<!-- 28&#45;&gt;29 -->
<g id="edge29" class="edge">
<title>28&#45;&gt;29</title>
<path fill="none" stroke="black" d="M2530.62,-400.6C2530.62,-392.85 2530.62,-384.49 2530.62,-376.35"/>
<polygon fill="black" stroke="black" points="2534.13,-376.47 2530.62,-366.47 2527.13,-376.47 2534.13,-376.47"/>
</g>
<!-- 38 -->
<g id="node39" class="node">
<title>38</title>
<path fill="#e88f4f" stroke="black" d="M3023.5,-365C3023.5,-365 2889.75,-365 2889.75,-365 2883.75,-365 2877.75,-359 2877.75,-353 2877.75,-353 2877.75,-309 2877.75,-309 2877.75,-303 2883.75,-297 2889.75,-297 2889.75,-297 3023.5,-297 3023.5,-297 3029.5,-297 3035.5,-303 3035.5,-309 3035.5,-309 3035.5,-353 3035.5,-353 3035.5,-359 3029.5,-365 3023.5,-365"/>
<text text-anchor="start" x="2924" y="-347.7" font-family="Helvetica,sans-Serif" font-size="14.00">rm ≤ 8.753</text>
<text text-anchor="start" x="2885.75" y="-332.7" font-family="Helvetica,sans-Serif" font-size="14.00">squared_error = 37.997</text>
<text text-anchor="start" x="2915.75" y="-317.7" font-family="Helvetica,sans-Serif" font-size="14.00">samples = 23</text>
<text text-anchor="start" x="2912" y="-302.7" font-family="Helvetica,sans-Serif" font-size="14.00">value = 45.422</text>
</g>
<!-- 28&#45;&gt;38 -->
<g id="edge38" class="edge">
<title>28&#45;&gt;38</title>
<path fill="none" stroke="black" d="M2609.75,-415.05C2682.72,-397.58 2790.93,-371.67 2867.04,-353.45"/>
<polygon fill="black" stroke="black" points="2867.65,-356.66 2876.56,-350.93 2866.02,-349.86 2867.65,-356.66"/>
</g>
<!-- 30 -->
<g id="node31" class="node">
<title>30</title>
<path fill="#f0b58a" stroke="black" d="M2514.5,-261C2514.5,-261 2380.75,-261 2380.75,-261 2374.75,-261 2368.75,-255 2368.75,-249 2368.75,-249 2368.75,-205 2368.75,-205 2368.75,-199 2374.75,-193 2380.75,-193 2380.75,-193 2514.5,-193 2514.5,-193 2520.5,-193 2526.5,-199 2526.5,-205 2526.5,-205 2526.5,-249 2526.5,-249 2526.5,-255 2520.5,-261 2514.5,-261"/>
<text text-anchor="start" x="2414.62" y="-243.7" font-family="Helvetica,sans-Serif" font-size="14.00">dis ≤ 1.886</text>
<text text-anchor="start" x="2376.75" y="-228.7" font-family="Helvetica,sans-Serif" font-size="14.00">squared_error = 21.413</text>
<text text-anchor="start" x="2406.75" y="-213.7" font-family="Helvetica,sans-Serif" font-size="14.00">samples = 35</text>
<text text-anchor="start" x="2403" y="-198.7" font-family="Helvetica,sans-Serif" font-size="14.00">value = 33.369</text>
</g>
<!-- 29&#45;&gt;30 -->
<g id="edge30" class="edge">
<title>29&#45;&gt;30</title>
<path fill="none" stroke="black" d="M2503.45,-296.6C2496.5,-288.06 2488.94,-278.77 2481.69,-269.86"/>
<polygon fill="black" stroke="black" points="2483.89,-268.02 2474.86,-262.47 2478.46,-272.44 2483.89,-268.02"/>
</g>
<!-- 37 -->
<g id="node38" class="node">
<title>37</title>
<path fill="#fbede3" stroke="black" d="M2672.5,-253.5C2672.5,-253.5 2556.75,-253.5 2556.75,-253.5 2550.75,-253.5 2544.75,-247.5 2544.75,-241.5 2544.75,-241.5 2544.75,-212.5 2544.75,-212.5 2544.75,-206.5 2550.75,-200.5 2556.75,-200.5 2556.75,-200.5 2672.5,-200.5 2672.5,-200.5 2678.5,-200.5 2684.5,-206.5 2684.5,-212.5 2684.5,-212.5 2684.5,-241.5 2684.5,-241.5 2684.5,-247.5 2678.5,-253.5 2672.5,-253.5"/>
<text text-anchor="start" x="2552.75" y="-236.2" font-family="Helvetica,sans-Serif" font-size="14.00">squared_error = &#45;0.0</text>
<text text-anchor="start" x="2577.5" y="-221.2" font-family="Helvetica,sans-Serif" font-size="14.00">samples = 1</text>
<text text-anchor="start" x="2577.5" y="-206.2" font-family="Helvetica,sans-Serif" font-size="14.00">value = 15.0</text>
</g>
<!-- 29&#45;&gt;37 -->
<g id="edge37" class="edge">
<title>29&#45;&gt;37</title>
<path fill="none" stroke="black" d="M2558.13,-296.6C2567.28,-285.49 2577.48,-273.11 2586.66,-261.95"/>
<polygon fill="black" stroke="black" points="2589.8,-264.65 2593.46,-254.71 2584.4,-260.2 2589.8,-264.65"/>
</g>
<!-- 31 -->
<g id="node32" class="node">
<title>31</title>
<path fill="#e88e4e" stroke="black" d="M2426.5,-157C2426.5,-157 2292.75,-157 2292.75,-157 2286.75,-157 2280.75,-151 2280.75,-145 2280.75,-145 2280.75,-101 2280.75,-101 2280.75,-95 2286.75,-89 2292.75,-89 2292.75,-89 2426.5,-89 2426.5,-89 2432.5,-89 2438.5,-95 2438.5,-101 2438.5,-101 2438.5,-145 2438.5,-145 2438.5,-151 2432.5,-157 2426.5,-157"/>
<text text-anchor="start" x="2327" y="-139.7" font-family="Helvetica,sans-Serif" font-size="14.00">rm ≤ 6.979</text>
<text text-anchor="start" x="2288.75" y="-124.7" font-family="Helvetica,sans-Serif" font-size="14.00">squared_error = 18.923</text>
<text text-anchor="start" x="2322.5" y="-109.7" font-family="Helvetica,sans-Serif" font-size="14.00">samples = 2</text>
<text text-anchor="start" x="2318.75" y="-94.7" font-family="Helvetica,sans-Serif" font-size="14.00">value = 45.65</text>
</g>
<!-- 30&#45;&gt;31 -->
<g id="edge31" class="edge">
<title>30&#45;&gt;31</title>
<path fill="none" stroke="black" d="M2418.81,-192.6C2411.37,-183.97 2403.26,-174.58 2395.5,-165.58"/>
<polygon fill="black" stroke="black" points="2397.69,-163.76 2388.5,-158.47 2392.39,-168.33 2397.69,-163.76"/>
</g>
<!-- 34 -->
<g id="node35" class="node">
<title>34</title>
<path fill="#f0b78e" stroke="black" d="M2602.5,-157C2602.5,-157 2468.75,-157 2468.75,-157 2462.75,-157 2456.75,-151 2456.75,-145 2456.75,-145 2456.75,-101 2456.75,-101 2456.75,-95 2462.75,-89 2468.75,-89 2468.75,-89 2602.5,-89 2602.5,-89 2608.5,-89 2614.5,-95 2614.5,-101 2614.5,-101 2614.5,-145 2614.5,-145 2614.5,-151 2608.5,-157 2602.5,-157"/>
<text text-anchor="start" x="2502.25" y="-139.7" font-family="Helvetica,sans-Serif" font-size="14.00">tax ≤ 267.0</text>
<text text-anchor="start" x="2464.75" y="-124.7" font-family="Helvetica,sans-Serif" font-size="14.00">squared_error = 11.869</text>
<text text-anchor="start" x="2494.75" y="-109.7" font-family="Helvetica,sans-Serif" font-size="14.00">samples = 33</text>
<text text-anchor="start" x="2491" y="-94.7" font-family="Helvetica,sans-Serif" font-size="14.00">value = 32.624</text>
</g>
<!-- 30&#45;&gt;34 -->
<g id="edge34" class="edge">
<title>30&#45;&gt;34</title>
<path fill="none" stroke="black" d="M2476.44,-192.6C2483.88,-183.97 2491.99,-174.58 2499.75,-165.58"/>
<polygon fill="black" stroke="black" points="2502.86,-168.33 2506.75,-158.47 2497.56,-163.76 2502.86,-168.33"/>
</g>
<!-- 32 -->
<g id="node33" class="node">
<title>32</title>
<path fill="#eb9c63" stroke="black" d="M2270.25,-53C2270.25,-53 2159,-53 2159,-53 2153,-53 2147,-47 2147,-41 2147,-41 2147,-12 2147,-12 2147,-6 2153,0 2159,0 2159,0 2270.25,0 2270.25,0 2276.25,0 2282.25,-6 2282.25,-12 2282.25,-12 2282.25,-41 2282.25,-41 2282.25,-47 2276.25,-53 2270.25,-53"/>
<text text-anchor="start" x="2155" y="-35.7" font-family="Helvetica,sans-Serif" font-size="14.00">squared_error = 0.0</text>
<text text-anchor="start" x="2177.5" y="-20.7" font-family="Helvetica,sans-Serif" font-size="14.00">samples = 1</text>
<text text-anchor="start" x="2177.5" y="-5.7" font-family="Helvetica,sans-Serif" font-size="14.00">value = 41.3</text>
</g>
<!-- 31&#45;&gt;32 -->
<g id="edge32" class="edge">
<title>31&#45;&gt;32</title>
<path fill="none" stroke="black" d="M2308.5,-88.68C2293.78,-79.09 2277.77,-68.65 2263.21,-59.16"/>
<polygon fill="black" stroke="black" points="2265.65,-55.92 2255.36,-53.39 2261.82,-61.79 2265.65,-55.92"/>
</g>
<!-- 33 -->
<g id="node34" class="node">
<title>33</title>
<path fill="#e58139" stroke="black" d="M2423.25,-53C2423.25,-53 2312,-53 2312,-53 2306,-53 2300,-47 2300,-41 2300,-41 2300,-12 2300,-12 2300,-6 2306,0 2312,0 2312,0 2423.25,0 2423.25,0 2429.25,0 2435.25,-6 2435.25,-12 2435.25,-12 2435.25,-41 2435.25,-41 2435.25,-47 2429.25,-53 2423.25,-53"/>
<text text-anchor="start" x="2308" y="-35.7" font-family="Helvetica,sans-Serif" font-size="14.00">squared_error = 0.0</text>
<text text-anchor="start" x="2330.5" y="-20.7" font-family="Helvetica,sans-Serif" font-size="14.00">samples = 1</text>
<text text-anchor="start" x="2330.5" y="-5.7" font-family="Helvetica,sans-Serif" font-size="14.00">value = 50.0</text>
</g>
<!-- 31&#45;&gt;33 -->
<g id="edge33" class="edge">
<title>31&#45;&gt;33</title>
<path fill="none" stroke="black" d="M2362.45,-88.68C2363.11,-80.81 2363.83,-72.37 2364.51,-64.35"/>
<polygon fill="black" stroke="black" points="2368.08,-64.65 2365.43,-54.39 2361.1,-64.06 2368.08,-64.65"/>
</g>
<!-- 35 -->
<g id="node36" class="node">
<title>35</title>
<path fill="#efb083" stroke="black" d="M2591.75,-53C2591.75,-53 2465.5,-53 2465.5,-53 2459.5,-53 2453.5,-47 2453.5,-41 2453.5,-41 2453.5,-12 2453.5,-12 2453.5,-6 2459.5,0 2465.5,0 2465.5,0 2591.75,0 2591.75,0 2597.75,0 2603.75,-6 2603.75,-12 2603.75,-12 2603.75,-41 2603.75,-41 2603.75,-47 2597.75,-53 2591.75,-53"/>
<text text-anchor="start" x="2461.5" y="-35.7" font-family="Helvetica,sans-Serif" font-size="14.00">squared_error = 3.043</text>
<text text-anchor="start" x="2487.75" y="-20.7" font-family="Helvetica,sans-Serif" font-size="14.00">samples = 14</text>
<text text-anchor="start" x="2484" y="-5.7" font-family="Helvetica,sans-Serif" font-size="14.00">value = 34.829</text>
</g>
<!-- 34&#45;&gt;35 -->
<g id="edge35" class="edge">
<title>34&#45;&gt;35</title>
<path fill="none" stroke="black" d="M2533.16,-88.68C2532.57,-80.81 2531.95,-72.37 2531.35,-64.35"/>
<polygon fill="black" stroke="black" points="2534.77,-64.11 2530.54,-54.39 2527.79,-64.63 2534.77,-64.11"/>
</g>
<!-- 36 -->
<g id="node37" class="node">
<title>36</title>
<path fill="#f1bc95" stroke="black" d="M2767.5,-53C2767.5,-53 2633.75,-53 2633.75,-53 2627.75,-53 2621.75,-47 2621.75,-41 2621.75,-41 2621.75,-12 2621.75,-12 2621.75,-6 2627.75,0 2633.75,0 2633.75,0 2767.5,0 2767.5,0 2773.5,0 2779.5,-6 2779.5,-12 2779.5,-12 2779.5,-41 2779.5,-41 2779.5,-47 2773.5,-53 2767.5,-53"/>
<text text-anchor="start" x="2629.75" y="-35.7" font-family="Helvetica,sans-Serif" font-size="14.00">squared_error = 12.153</text>
<text text-anchor="start" x="2659.75" y="-20.7" font-family="Helvetica,sans-Serif" font-size="14.00">samples = 19</text>
<text text-anchor="start" x="2663.5" y="-5.7" font-family="Helvetica,sans-Serif" font-size="14.00">value = 31.0</text>
</g>
<!-- 34&#45;&gt;36 -->
<g id="edge36" class="edge">
<title>34&#45;&gt;36</title>
<path fill="none" stroke="black" d="M2593.8,-88.68C2610.86,-78.91 2629.46,-68.26 2646.27,-58.63"/>
<polygon fill="black" stroke="black" points="2647.48,-61.4 2654.41,-53.39 2644,-55.33 2647.48,-61.4"/>
</g>
<!-- 39 -->
<g id="node40" class="node">
<title>39</title>
<path fill="#e78c4a" stroke="black" d="M3023.5,-261C3023.5,-261 2889.75,-261 2889.75,-261 2883.75,-261 2877.75,-255 2877.75,-249 2877.75,-249 2877.75,-205 2877.75,-205 2877.75,-199 2883.75,-193 2889.75,-193 2889.75,-193 3023.5,-193 3023.5,-193 3029.5,-193 3035.5,-199 3035.5,-205 3035.5,-205 3035.5,-249 3035.5,-249 3035.5,-255 3029.5,-261 3023.5,-261"/>
<text text-anchor="start" x="2930" y="-243.7" font-family="Helvetica,sans-Serif" font-size="14.00">rad ≤ 3.5</text>
<text text-anchor="start" x="2885.75" y="-228.7" font-family="Helvetica,sans-Serif" font-size="14.00">squared_error = 13.433</text>
<text text-anchor="start" x="2915.75" y="-213.7" font-family="Helvetica,sans-Serif" font-size="14.00">samples = 22</text>
<text text-anchor="start" x="2912" y="-198.7" font-family="Helvetica,sans-Serif" font-size="14.00">value = 46.491</text>
</g>
<!-- 38&#45;&gt;39 -->
<g id="edge39" class="edge">
<title>38&#45;&gt;39</title>
<path fill="none" stroke="black" d="M2956.62,-296.6C2956.62,-288.85 2956.62,-280.49 2956.62,-272.35"/>
<polygon fill="black" stroke="black" points="2960.13,-272.47 2956.62,-262.47 2953.13,-272.47 2960.13,-272.47"/>
</g>
<!-- 46 -->
<g id="node47" class="node">
<title>46</title>
<path fill="#f7d8c2" stroke="black" d="M3177.25,-253.5C3177.25,-253.5 3066,-253.5 3066,-253.5 3060,-253.5 3054,-247.5 3054,-241.5 3054,-241.5 3054,-212.5 3054,-212.5 3054,-206.5 3060,-200.5 3066,-200.5 3066,-200.5 3177.25,-200.5 3177.25,-200.5 3183.25,-200.5 3189.25,-206.5 3189.25,-212.5 3189.25,-212.5 3189.25,-241.5 3189.25,-241.5 3189.25,-247.5 3183.25,-253.5 3177.25,-253.5"/>
<text text-anchor="start" x="3062" y="-236.2" font-family="Helvetica,sans-Serif" font-size="14.00">squared_error = 0.0</text>
<text text-anchor="start" x="3084.5" y="-221.2" font-family="Helvetica,sans-Serif" font-size="14.00">samples = 1</text>
<text text-anchor="start" x="3084.5" y="-206.2" font-family="Helvetica,sans-Serif" font-size="14.00">value = 21.9</text>
</g>
<!-- 38&#45;&gt;46 -->
<g id="edge46" class="edge">
<title>38&#45;&gt;46</title>
<path fill="none" stroke="black" d="M3010.65,-296.6C3029.96,-284.67 3051.63,-271.27 3070.67,-259.5"/>
<polygon fill="black" stroke="black" points="3072.11,-262.1 3078.78,-253.87 3068.43,-256.15 3072.11,-262.1"/>
</g>
<!-- 40 -->
<g id="node41" class="node">
<title>40</title>
<path fill="#e9965b" stroke="black" d="M3016,-157C3016,-157 2897.25,-157 2897.25,-157 2891.25,-157 2885.25,-151 2885.25,-145 2885.25,-145 2885.25,-101 2885.25,-101 2885.25,-95 2891.25,-89 2897.25,-89 2897.25,-89 3016,-89 3016,-89 3022,-89 3028,-95 3028,-101 3028,-101 3028,-145 3028,-145 3028,-151 3022,-157 3016,-157"/>
<text text-anchor="start" x="2924.75" y="-139.7" font-family="Helvetica,sans-Serif" font-size="14.00">age ≤ 64.8</text>
<text text-anchor="start" x="2893.25" y="-124.7" font-family="Helvetica,sans-Serif" font-size="14.00">squared_error = 13.3</text>
<text text-anchor="start" x="2919.5" y="-109.7" font-family="Helvetica,sans-Serif" font-size="14.00">samples = 6</text>
<text text-anchor="start" x="2919.5" y="-94.7" font-family="Helvetica,sans-Serif" font-size="14.00">value = 43.1</text>
</g>
<!-- 39&#45;&gt;40 -->
<g id="edge40" class="edge">
<title>39&#45;&gt;40</title>
<path fill="none" stroke="black" d="M2956.62,-192.6C2956.62,-184.85 2956.62,-176.49 2956.62,-168.35"/>
<polygon fill="black" stroke="black" points="2960.13,-168.47 2956.62,-158.47 2953.13,-168.47 2960.13,-168.47"/>
</g>
<!-- 43 -->
<g id="node44" class="node">
<title>43</title>
<path fill="#e68844" stroke="black" d="M3271.75,-157C3271.75,-157 3145.5,-157 3145.5,-157 3139.5,-157 3133.5,-151 3133.5,-145 3133.5,-145 3133.5,-101 3133.5,-101 3133.5,-95 3139.5,-89 3145.5,-89 3145.5,-89 3271.75,-89 3271.75,-89 3277.75,-89 3283.75,-95 3283.75,-101 3283.75,-101 3283.75,-145 3283.75,-145 3283.75,-151 3277.75,-157 3271.75,-157"/>
<text text-anchor="start" x="3169.25" y="-139.7" font-family="Helvetica,sans-Serif" font-size="14.00">ptratio ≤ 14.8</text>
<text text-anchor="start" x="3141.5" y="-124.7" font-family="Helvetica,sans-Serif" font-size="14.00">squared_error = 7.554</text>
<text text-anchor="start" x="3167.75" y="-109.7" font-family="Helvetica,sans-Serif" font-size="14.00">samples = 16</text>
<text text-anchor="start" x="3164" y="-94.7" font-family="Helvetica,sans-Serif" font-size="14.00">value = 47.762</text>
</g>
<!-- 39&#45;&gt;43 -->
<g id="edge43" class="edge">
<title>39&#45;&gt;43</title>
<path fill="none" stroke="black" d="M3035.67,-194.01C3063.56,-182.72 3095.03,-169.98 3123.41,-158.49"/>
<polygon fill="black" stroke="black" points="3124.35,-161.48 3132.3,-154.49 3121.72,-154.99 3124.35,-161.48"/>
</g>
<!-- 41 -->
<g id="node42" class="node">
<title>41</title>
<path fill="#e89051" stroke="black" d="M2935.75,-53C2935.75,-53 2809.5,-53 2809.5,-53 2803.5,-53 2797.5,-47 2797.5,-41 2797.5,-41 2797.5,-12 2797.5,-12 2797.5,-6 2803.5,0 2809.5,0 2809.5,0 2935.75,0 2935.75,0 2941.75,0 2947.75,-6 2947.75,-12 2947.75,-12 2947.75,-41 2947.75,-41 2947.75,-47 2941.75,-53 2935.75,-53"/>
<text text-anchor="start" x="2805.5" y="-35.7" font-family="Helvetica,sans-Serif" font-size="14.00">squared_error = 8.682</text>
<text text-anchor="start" x="2835.5" y="-20.7" font-family="Helvetica,sans-Serif" font-size="14.00">samples = 4</text>
<text text-anchor="start" x="2828" y="-5.7" font-family="Helvetica,sans-Serif" font-size="14.00">value = 45.025</text>
</g>
<!-- 40&#45;&gt;41 -->
<g id="edge41" class="edge">
<title>40&#45;&gt;41</title>
<path fill="none" stroke="black" d="M2927.01,-88.68C2919.21,-79.9 2910.78,-70.42 2902.94,-61.6"/>
<polygon fill="black" stroke="black" points="2905.9,-59.54 2896.64,-54.39 2900.67,-64.19 2905.9,-59.54"/>
</g>
<!-- 42 -->
<g id="node43" class="node">
<title>42</title>
<path fill="#eca26d" stroke="black" d="M3103.75,-53C3103.75,-53 2977.5,-53 2977.5,-53 2971.5,-53 2965.5,-47 2965.5,-41 2965.5,-41 2965.5,-12 2965.5,-12 2965.5,-6 2971.5,0 2977.5,0 2977.5,0 3103.75,0 3103.75,0 3109.75,0 3115.75,-6 3115.75,-12 3115.75,-12 3115.75,-41 3115.75,-41 3115.75,-47 3109.75,-53 3103.75,-53"/>
<text text-anchor="start" x="2973.5" y="-35.7" font-family="Helvetica,sans-Serif" font-size="14.00">squared_error = 0.302</text>
<text text-anchor="start" x="3003.5" y="-20.7" font-family="Helvetica,sans-Serif" font-size="14.00">samples = 2</text>
<text text-anchor="start" x="2999.75" y="-5.7" font-family="Helvetica,sans-Serif" font-size="14.00">value = 39.25</text>
</g>
<!-- 40&#45;&gt;42 -->
<g id="edge42" class="edge">
<title>40&#45;&gt;42</title>
<path fill="none" stroke="black" d="M2986.24,-88.68C2994.04,-79.9 3002.47,-70.42 3010.31,-61.6"/>
<polygon fill="black" stroke="black" points="3012.58,-64.19 3016.61,-54.39 3007.35,-59.54 3012.58,-64.19"/>
</g>
<!-- 44 -->
<g id="node45" class="node">
<title>44</title>
<path fill="#e5823a" stroke="black" d="M3271.75,-53C3271.75,-53 3145.5,-53 3145.5,-53 3139.5,-53 3133.5,-47 3133.5,-41 3133.5,-41 3133.5,-12 3133.5,-12 3133.5,-6 3139.5,0 3145.5,0 3145.5,0 3271.75,0 3271.75,0 3277.75,0 3283.75,-6 3283.75,-12 3283.75,-12 3283.75,-41 3283.75,-41 3283.75,-47 3277.75,-53 3271.75,-53"/>
<text text-anchor="start" x="3141.5" y="-35.7" font-family="Helvetica,sans-Serif" font-size="14.00">squared_error = 0.246</text>
<text text-anchor="start" x="3171.5" y="-20.7" font-family="Helvetica,sans-Serif" font-size="14.00">samples = 8</text>
<text text-anchor="start" x="3164" y="-5.7" font-family="Helvetica,sans-Serif" font-size="14.00">value = 49.812</text>
</g>
<!-- 43&#45;&gt;44 -->
<g id="edge44" class="edge">
<title>43&#45;&gt;44</title>
<path fill="none" stroke="black" d="M3208.62,-88.68C3208.62,-80.81 3208.62,-72.37 3208.62,-64.35"/>
<polygon fill="black" stroke="black" points="3212.13,-64.39 3208.62,-54.39 3205.13,-64.39 3212.13,-64.39"/>
</g>
<!-- 45 -->
<g id="node46" class="node">
<title>45</title>
<path fill="#e88e4e" stroke="black" d="M3439.75,-53C3439.75,-53 3313.5,-53 3313.5,-53 3307.5,-53 3301.5,-47 3301.5,-41 3301.5,-41 3301.5,-12 3301.5,-12 3301.5,-6 3307.5,0 3313.5,0 3313.5,0 3439.75,0 3439.75,0 3445.75,0 3451.75,-6 3451.75,-12 3451.75,-12 3451.75,-41 3451.75,-41 3451.75,-47 3445.75,-53 3439.75,-53"/>
<text text-anchor="start" x="3309.5" y="-35.7" font-family="Helvetica,sans-Serif" font-size="14.00">squared_error = 6.456</text>
<text text-anchor="start" x="3339.5" y="-20.7" font-family="Helvetica,sans-Serif" font-size="14.00">samples = 8</text>
<text text-anchor="start" x="3332" y="-5.7" font-family="Helvetica,sans-Serif" font-size="14.00">value = 45.712</text>
</g>
<!-- 43&#45;&gt;45 -->
<g id="edge45" class="edge">
<title>43&#45;&gt;45</title>
<path fill="none" stroke="black" d="M3267.86,-88.68C3285.23,-78.91 3304.16,-68.26 3321.29,-58.63"/>
<polygon fill="black" stroke="black" points="3322.59,-61.35 3329.59,-53.39 3319.16,-55.25 3322.59,-61.35"/>
</g>
</g>
</svg>