<?xml version="1.0" encoding="UTF-8" standalone="no"?>
<!DOCTYPE svg PUBLIC "-//W3C//DTD SVG 1.1//EN"
 "http://www.w3.org/Graphics/SVG/1.1/DTD/svg11.dtd">
<!-- Generated by graphviz version 8.1.0 (20230707.0739)
 -->
<!-- Title: Tree Pages: 1 -->
<svg width="4092pt" height="581pt"
 viewBox="0.00 0.00 4091.50 581.00" xmlns="http://www.w3.org/2000/svg" xmlns:xlink="http://www.w3.org/1999/xlink">
<g id="graph0" class="graph" transform="scale(1 1) rotate(0) translate(4 577)">
<title>Tree</title>
<polygon fill="white" stroke="none" points="-4,4 -4,-577 4087.5,-577 4087.5,4 -4,4"/>
<!-- 0 -->
<g id="node1" class="node">
<title>0</title>
<path fill="#f7d7c0" stroke="black" d="M2206.5,-573C2206.5,-573 2072.75,-573 2072.75,-573 2066.75,-573 2060.75,-567 2060.75,-561 2060.75,-561 2060.75,-517 2060.75,-517 2060.75,-511 2066.75,-505 2072.75,-505 2072.75,-505 2206.5,-505 2206.5,-505 2212.5,-505 2218.5,-511 2218.5,-517 2218.5,-517 2218.5,-561 2218.5,-561 2218.5,-567 2212.5,-573 2206.5,-573"/>
<text text-anchor="start" x="2107" y="-555.7" font-family="Helvetica,sans-Serif" font-size="14.00">rm ≤ 6.971</text>
<text text-anchor="start" x="2068.75" y="-540.7" font-family="Helvetica,sans-Serif" font-size="14.00">squared_error = 84.079</text>
<text text-anchor="start" x="2095" y="-525.7" font-family="Helvetica,sans-Serif" font-size="14.00">samples = 404</text>
<text text-anchor="start" x="2098.75" y="-510.7" font-family="Helvetica,sans-Serif" font-size="14.00">value = 22.29</text>
</g>
<!-- 1 -->
<g id="node2" class="node">
<title>1</title>
<path fill="#f8dfcd" stroke="black" d="M1542.5,-469C1542.5,-469 1408.75,-469 1408.75,-469 1402.75,-469 1396.75,-463 1396.75,-457 1396.75,-457 1396.75,-413 1396.75,-413 1396.75,-407 1402.75,-401 1408.75,-401 1408.75,-401 1542.5,-401 1542.5,-401 1548.5,-401 1554.5,-407 1554.5,-413 1554.5,-413 1554.5,-457 1554.5,-457 1554.5,-463 1548.5,-469 1542.5,-469"/>
<text text-anchor="start" x="1442.62" y="-451.7" font-family="Helvetica,sans-Serif" font-size="14.00">lstat ≤ 14.4</text>
<text text-anchor="start" x="1404.75" y="-436.7" font-family="Helvetica,sans-Serif" font-size="14.00">squared_error = 39.818</text>
<text text-anchor="start" x="1431" y="-421.7" font-family="Helvetica,sans-Serif" font-size="14.00">samples = 348</text>
<text text-anchor="start" x="1431" y="-406.7" font-family="Helvetica,sans-Serif" font-size="14.00">value = 19.783</text>
</g>
<!-- 0&#45;&gt;1 -->
<g id="edge1" class="edge">
<title>0&#45;&gt;1</title>
<path fill="none" stroke="black" d="M2060.52,-525.85C1936.34,-506.77 1696.39,-469.91 1565.74,-449.84"/>
<polygon fill="black" stroke="black" points="1566.4,-446.25 1555.98,-448.19 1565.34,-453.17 1566.4,-446.25"/>
<text text-anchor="middle" x="1569.77" y="-462.55" font-family="Helvetica,sans-Serif" font-size="14.00">True</text>
</g>
<!-- 28 -->
<g id="node29" class="node">
<title>28</title>
<path fill="#eda774" stroke="black" d="M2880.5,-469C2880.5,-469 2746.75,-469 2746.75,-469 2740.75,-469 2734.75,-463 2734.75,-457 2734.75,-457 2734.75,-413 2734.75,-413 2734.75,-407 2740.75,-401 2746.75,-401 2746.75,-401 2880.5,-401 2880.5,-401 2886.5,-401 2892.5,-407 2892.5,-413 2892.5,-413 2892.5,-457 2892.5,-457 2892.5,-463 2886.5,-469 2880.5,-469"/>
<text text-anchor="start" x="2781" y="-451.7" font-family="Helvetica,sans-Serif" font-size="14.00">rm ≤ 7.437</text>
<text text-anchor="start" x="2742.75" y="-436.7" font-family="Helvetica,sans-Serif" font-size="14.00">squared_error = 77.228</text>
<text text-anchor="start" x="2772.75" y="-421.7" font-family="Helvetica,sans-Serif" font-size="14.00">samples = 56</text>
<text text-anchor="start" x="2769" y="-406.7" font-family="Helvetica,sans-Serif" font-size="14.00">value = 37.873</text>
</g>
<!-- 0&#45;&gt;28 -->
<g id="edge28" class="edge">
<title>0&#45;&gt;28</title>
<path fill="none" stroke="black" d="M2218.92,-526C2345.21,-506.89 2591.27,-469.65 2723.85,-449.59"/>
<polygon fill="black" stroke="black" points="2724,-452.95 2733.37,-447.99 2722.96,-446.03 2724,-452.95"/>
<text text-anchor="middle" x="2719.53" y="-462.32" font-family="Helvetica,sans-Serif" font-size="14.00">False</text>
</g>
<!-- 2 -->
<g id="node3" class="node">
<title>2</title>
<path fill="#f6d4bb" stroke="black" d="M544.5,-365C544.5,-365 410.75,-365 410.75,-365 404.75,-365 398.75,-359 398.75,-353 398.75,-353 398.75,-309 398.75,-309 398.75,-303 404.75,-297 410.75,-297 410.75,-297 544.5,-297 544.5,-297 550.5,-297 556.5,-303 556.5,-309 556.5,-309 556.5,-353 556.5,-353 556.5,-359 550.5,-365 544.5,-365"/>
<text text-anchor="start" x="444.62" y="-347.7" font-family="Helvetica,sans-Serif" font-size="14.00">dis ≤ 1.373</text>
<text text-anchor="start" x="406.75" y="-332.7" font-family="Helvetica,sans-Serif" font-size="14.00">squared_error = 25.654</text>
<text text-anchor="start" x="433" y="-317.7" font-family="Helvetica,sans-Serif" font-size="14.00">samples = 201</text>
<text text-anchor="start" x="433" y="-302.7" font-family="Helvetica,sans-Serif" font-size="14.00">value = 23.294</text>
</g>
<!-- 1&#45;&gt;2 -->
<g id="edge2" class="edge">
<title>1&#45;&gt;2</title>
<path fill="none" stroke="black" d="M1396.48,-425.91C1213.23,-407.18 760.71,-360.93 567.46,-341.18"/>
<polygon fill="black" stroke="black" points="568.08,-337.62 557.78,-340.09 567.37,-344.59 568.08,-337.62"/>
</g>
<!-- 13 -->
<g id="node14" class="node">
<title>13</title>
<path fill="#fbeee4" stroke="black" d="M1542.5,-365C1542.5,-365 1408.75,-365 1408.75,-365 1402.75,-365 1396.75,-359 1396.75,-353 1396.75,-353 1396.75,-309 1396.75,-309 1396.75,-303 1402.75,-297 1408.75,-297 1408.75,-297 1542.5,-297 1542.5,-297 1548.5,-297 1554.5,-303 1554.5,-309 1554.5,-309 1554.5,-353 1554.5,-353 1554.5,-359 1548.5,-365 1542.5,-365"/>
<text text-anchor="start" x="1438.12" y="-347.7" font-family="Helvetica,sans-Serif" font-size="14.00">crim ≤ 7.006</text>
<text text-anchor="start" x="1404.75" y="-332.7" font-family="Helvetica,sans-Serif" font-size="14.00">squared_error = 19.289</text>
<text text-anchor="start" x="1431" y="-317.7" font-family="Helvetica,sans-Serif" font-size="14.00">samples = 147</text>
<text text-anchor="start" x="1431" y="-302.7" font-family="Helvetica,sans-Serif" font-size="14.00">value = 14.982</text>
</g>
<!-- 1&#45;&gt;13 -->
<g id="edge13" class="edge">
<title>1&#45;&gt;13</title>
<path fill="none" stroke="black" d="M1475.62,-400.6C1475.62,-392.85 1475.62,-384.49 1475.62,-376.35"/>
<polygon fill="black" stroke="black" points="1479.13,-376.47 1475.62,-366.47 1472.13,-376.47 1479.13,-376.47"/>
</g>
<!-- 3 -->
<g id="node4" class="node">
<title>3</title>
<path fill="#e99254" stroke="black" d="M290.5,-261C290.5,-261 156.75,-261 156.75,-261 150.75,-261 144.75,-255 144.75,-249 144.75,-249 144.75,-205 144.75,-205 144.75,-199 150.75,-193 156.75,-193 156.75,-193 290.5,-193 290.5,-193 296.5,-193 302.5,-199 302.5,-205 302.5,-205 302.5,-249 302.5,-249 302.5,-255 296.5,-261 290.5,-261"/>
<text text-anchor="start" x="186.88" y="-243.7" font-family="Helvetica,sans-Serif" font-size="14.00">lstat ≤ 10.83</text>
<text text-anchor="start" x="152.75" y="-228.7" font-family="Helvetica,sans-Serif" font-size="14.00">squared_error = 91.577</text>
<text text-anchor="start" x="186.5" y="-213.7" font-family="Helvetica,sans-Serif" font-size="14.00">samples = 4</text>
<text text-anchor="start" x="179" y="-198.7" font-family="Helvetica,sans-Serif" font-size="14.00">value = 44.475</text>
</g>
<!-- 2&#45;&gt;3 -->
<g id="edge3" class="edge">
<title>2&#45;&gt;3</title>
<path fill="none" stroke="black" d="M398.3,-298.15C371.21,-287.27 340.73,-275.03 312.9,-263.85"/>
<polygon fill="black" stroke="black" points="314.37,-260.27 303.78,-259.79 311.76,-266.76 314.37,-260.27"/>
</g>
<!-- 6 -->
<g id="node7" class="node">
<title>6</title>
<path fill="#f6d5be" stroke="black" d="M540.75,-261C540.75,-261 414.5,-261 414.5,-261 408.5,-261 402.5,-255 402.5,-249 402.5,-249 402.5,-205 402.5,-205 402.5,-199 408.5,-193 414.5,-193 414.5,-193 540.75,-193 540.75,-193 546.75,-193 552.75,-199 552.75,-205 552.75,-205 552.75,-249 552.75,-249 552.75,-255 546.75,-261 540.75,-261"/>
<text text-anchor="start" x="445" y="-243.7" font-family="Helvetica,sans-Serif" font-size="14.00">rm ≤ 6.543</text>
<text text-anchor="start" x="410.5" y="-228.7" font-family="Helvetica,sans-Serif" font-size="14.00">squared_error = 15.02</text>
<text text-anchor="start" x="433" y="-213.7" font-family="Helvetica,sans-Serif" font-size="14.00">samples = 197</text>
<text text-anchor="start" x="433" y="-198.7" font-family="Helvetica,sans-Serif" font-size="14.00">value = 22.863</text>
</g>
<!-- 2&#45;&gt;6 -->
<g id="edge6" class="edge">
<title>2&#45;&gt;6</title>
<path fill="none" stroke="black" d="M477.62,-296.6C477.62,-288.85 477.62,-280.49 477.62,-272.35"/>
<polygon fill="black" stroke="black" points="481.13,-272.47 477.62,-262.47 474.13,-272.47 481.13,-272.47"/>
</g>
<!-- 4 -->
<g id="node5" class="node">
<title>4</title>
<path fill="#e58139" stroke="black" d="M123.25,-149.5C123.25,-149.5 12,-149.5 12,-149.5 6,-149.5 0,-143.5 0,-137.5 0,-137.5 0,-108.5 0,-108.5 0,-102.5 6,-96.5 12,-96.5 12,-96.5 123.25,-96.5 123.25,-96.5 129.25,-96.5 135.25,-102.5 135.25,-108.5 135.25,-108.5 135.25,-137.5 135.25,-137.5 135.25,-143.5 129.25,-149.5 123.25,-149.5"/>
<text text-anchor="start" x="8" y="-132.2" font-family="Helvetica,sans-Serif" font-size="14.00">squared_error = 0.0</text>
<text text-anchor="start" x="30.5" y="-117.2" font-family="Helvetica,sans-Serif" font-size="14.00">samples = 3</text>
<text text-anchor="start" x="30.5" y="-102.2" font-family="Helvetica,sans-Serif" font-size="14.00">value = 50.0</text>
</g>
<!-- 3&#45;&gt;4 -->
<g id="edge4" class="edge">
<title>3&#45;&gt;4</title>
<path fill="none" stroke="black" d="M172.54,-192.6C154.46,-180.78 134.17,-167.51 116.29,-155.82"/>
<polygon fill="black" stroke="black" points="118.47,-152.41 108.19,-149.87 114.64,-158.27 118.47,-152.41"/>
</g>
<!-- 5 -->
<g id="node6" class="node">
<title>5</title>
<path fill="#f3c6a5" stroke="black" d="M281.5,-149.5C281.5,-149.5 165.75,-149.5 165.75,-149.5 159.75,-149.5 153.75,-143.5 153.75,-137.5 153.75,-137.5 153.75,-108.5 153.75,-108.5 153.75,-102.5 159.75,-96.5 165.75,-96.5 165.75,-96.5 281.5,-96.5 281.5,-96.5 287.5,-96.5 293.5,-102.5 293.5,-108.5 293.5,-108.5 293.5,-137.5 293.5,-137.5 293.5,-143.5 287.5,-149.5 281.5,-149.5"/>
<text text-anchor="start" x="161.75" y="-132.2" font-family="Helvetica,sans-Serif" font-size="14.00">squared_error = &#45;0.0</text>
<text text-anchor="start" x="186.5" y="-117.2" font-family="Helvetica,sans-Serif" font-size="14.00">samples = 1</text>
<text text-anchor="start" x="186.5" y="-102.2" font-family="Helvetica,sans-Serif" font-size="14.00">value = 27.9</text>
</g>
<!-- 3&#45;&gt;5 -->
<g id="edge5" class="edge">
<title>3&#45;&gt;5</title>
<path fill="none" stroke="black" d="M223.62,-192.6C223.62,-182.36 223.62,-171.04 223.62,-160.6"/>
<polygon fill="black" stroke="black" points="227.13,-160.71 223.62,-150.71 220.13,-160.71 227.13,-160.71"/>
</g>
<!-- 7 -->
<g id="node8" class="node">
<title>7</title>
<path fill="#f7d9c4" stroke="black" d="M449.75,-157C449.75,-157 323.5,-157 323.5,-157 317.5,-157 311.5,-151 311.5,-145 311.5,-145 311.5,-101 311.5,-101 311.5,-95 317.5,-89 323.5,-89 323.5,-89 449.75,-89 449.75,-89 455.75,-89 461.75,-95 461.75,-101 461.75,-101 461.75,-145 461.75,-145 461.75,-151 455.75,-157 449.75,-157"/>
<text text-anchor="start" x="354" y="-139.7" font-family="Helvetica,sans-Serif" font-size="14.00">rm ≤ 6.099</text>
<text text-anchor="start" x="319.5" y="-124.7" font-family="Helvetica,sans-Serif" font-size="14.00">squared_error = 8.526</text>
<text text-anchor="start" x="342" y="-109.7" font-family="Helvetica,sans-Serif" font-size="14.00">samples = 154</text>
<text text-anchor="start" x="342" y="-94.7" font-family="Helvetica,sans-Serif" font-size="14.00">value = 21.582</text>
</g>
<!-- 6&#45;&gt;7 -->
<g id="edge7" class="edge">
<title>6&#45;&gt;7</title>
<path fill="none" stroke="black" d="M447.83,-192.6C440.13,-183.97 431.75,-174.58 423.72,-165.58"/>
<polygon fill="black" stroke="black" points="426.76,-163.61 417.49,-158.47 421.53,-168.27 426.76,-163.61"/>
</g>
<!-- 10 -->
<g id="node11" class="node">
<title>10</title>
<path fill="#f3c7a7" stroke="black" d="M625.5,-157C625.5,-157 491.75,-157 491.75,-157 485.75,-157 479.75,-151 479.75,-145 479.75,-145 479.75,-101 479.75,-101 479.75,-95 485.75,-89 491.75,-89 491.75,-89 625.5,-89 625.5,-89 631.5,-89 637.5,-95 637.5,-101 637.5,-101 637.5,-145 637.5,-145 637.5,-151 631.5,-157 625.5,-157"/>
<text text-anchor="start" x="525.25" y="-139.7" font-family="Helvetica,sans-Serif" font-size="14.00">tax ≤ 269.0</text>
<text text-anchor="start" x="487.75" y="-124.7" font-family="Helvetica,sans-Serif" font-size="14.00">squared_error = 11.355</text>
<text text-anchor="start" x="517.75" y="-109.7" font-family="Helvetica,sans-Serif" font-size="14.00">samples = 43</text>
<text text-anchor="start" x="514" y="-94.7" font-family="Helvetica,sans-Serif" font-size="14.00">value = 27.451</text>
</g>
<!-- 6&#45;&gt;10 -->
<g id="edge10" class="edge">
<title>6&#45;&gt;10</title>
<path fill="none" stroke="black" d="M504.15,-192.6C510.93,-184.06 518.31,-174.77 525.38,-165.86"/>
<polygon fill="black" stroke="black" points="528.57,-168.48 532.04,-158.47 523.08,-164.13 528.57,-168.48"/>
</g>
<!-- 8 -->
<g id="node9" class="node">
<title>8</title>
<path fill="#f8decb" stroke="black" d="M281.75,-53C281.75,-53 155.5,-53 155.5,-53 149.5,-53 143.5,-47 143.5,-41 143.5,-41 143.5,-12 143.5,-12 143.5,-6 149.5,0 155.5,0 155.5,0 281.75,0 281.75,0 287.75,0 293.75,-6 293.75,-12 293.75,-12 293.75,-41 293.75,-41 293.75,-47 287.75,-53 281.75,-53"/>
<text text-anchor="start" x="151.5" y="-35.7" font-family="Helvetica,sans-Serif" font-size="14.00">squared_error = 6.639</text>
<text text-anchor="start" x="177.75" y="-20.7" font-family="Helvetica,sans-Serif" font-size="14.00">samples = 69</text>
<text text-anchor="start" x="174" y="-5.7" font-family="Helvetica,sans-Serif" font-size="14.00">value = 20.172</text>
</g>
<!-- 7&#45;&gt;8 -->
<g id="edge8" class="edge">
<title>7&#45;&gt;8</title>
<path fill="none" stroke="black" d="M327.39,-88.68C310.02,-78.91 291.09,-68.26 273.96,-58.63"/>
<polygon fill="black" stroke="black" points="276.09,-55.25 265.66,-53.39 272.66,-61.35 276.09,-55.25"/>
</g>
<!-- 9 -->
<g id="node10" class="node">
<title>9</title>
<path fill="#f6d6be" stroke="black" d="M449.75,-53C449.75,-53 323.5,-53 323.5,-53 317.5,-53 311.5,-47 311.5,-41 311.5,-41 311.5,-12 311.5,-12 311.5,-6 317.5,0 323.5,0 323.5,0 449.75,0 449.75,0 455.75,0 461.75,-6 461.75,-12 461.75,-12 461.75,-41 461.75,-41 461.75,-47 455.75,-53 449.75,-53"/>
<text text-anchor="start" x="319.5" y="-35.7" font-family="Helvetica,sans-Serif" font-size="14.00">squared_error = 7.134</text>
<text text-anchor="start" x="345.75" y="-20.7" font-family="Helvetica,sans-Serif" font-size="14.00">samples = 85</text>
<text text-anchor="start" x="342" y="-5.7" font-family="Helvetica,sans-Serif" font-size="14.00">value = 22.727</text>
</g>
<!-- 7&#45;&gt;9 -->
<g id="edge9" class="edge">
<title>7&#45;&gt;9</title>
<path fill="none" stroke="black" d="M386.62,-88.68C386.62,-80.81 386.62,-72.37 386.62,-64.35"/>
<polygon fill="black" stroke="black" points="390.13,-64.39 386.62,-54.39 383.13,-64.39 390.13,-64.39"/>
</g>
<!-- 11 -->
<g id="node12" class="node">
<title>11</title>
<path fill="#f2be9a" stroke="black" d="M617.75,-53C617.75,-53 491.5,-53 491.5,-53 485.5,-53 479.5,-47 479.5,-41 479.5,-41 479.5,-12 479.5,-12 479.5,-6 485.5,0 491.5,0 491.5,0 617.75,0 617.75,0 623.75,0 629.75,-6 629.75,-12 629.75,-12 629.75,-41 629.75,-41 629.75,-47 623.75,-53 617.75,-53"/>
<text text-anchor="start" x="487.5" y="-35.7" font-family="Helvetica,sans-Serif" font-size="14.00">squared_error = 5.329</text>
<text text-anchor="start" x="513.75" y="-20.7" font-family="Helvetica,sans-Serif" font-size="14.00">samples = 13</text>
<text text-anchor="start" x="510" y="-5.7" font-family="Helvetica,sans-Serif" font-size="14.00">value = 30.246</text>
</g>
<!-- 10&#45;&gt;11 -->
<g id="edge11" class="edge">
<title>10&#45;&gt;11</title>
<path fill="none" stroke="black" d="M557.21,-88.68C556.88,-80.81 556.52,-72.37 556.18,-64.35"/>
<polygon fill="black" stroke="black" points="559.64,-64.24 555.72,-54.39 552.65,-64.53 559.64,-64.24"/>
</g>
<!-- 12 -->
<g id="node13" class="node">
<title>12</title>
<path fill="#f4cbad" stroke="black" d="M785.75,-53C785.75,-53 659.5,-53 659.5,-53 653.5,-53 647.5,-47 647.5,-41 647.5,-41 647.5,-12 647.5,-12 647.5,-6 653.5,0 659.5,0 659.5,0 785.75,0 785.75,0 791.75,0 797.75,-6 797.75,-12 797.75,-12 797.75,-41 797.75,-41 797.75,-47 791.75,-53 785.75,-53"/>
<text text-anchor="start" x="655.5" y="-35.7" font-family="Helvetica,sans-Serif" font-size="14.00">squared_error = 9.114</text>
<text text-anchor="start" x="681.75" y="-20.7" font-family="Helvetica,sans-Serif" font-size="14.00">samples = 30</text>
<text text-anchor="start" x="681.75" y="-5.7" font-family="Helvetica,sans-Serif" font-size="14.00">value = 26.24</text>
</g>
<!-- 10&#45;&gt;12 -->
<g id="edge12" class="edge">
<title>10&#45;&gt;12</title>
<path fill="none" stroke="black" d="M616.45,-88.68C633.41,-78.91 651.89,-68.26 668.6,-58.63"/>
<polygon fill="black" stroke="black" points="669.77,-61.42 676.69,-53.39 666.28,-55.35 669.77,-61.42"/>
</g>
<!-- 14 -->
<g id="node15" class="node">
<title>14</title>
<path fill="#fae6d8" stroke="black" d="M1377.5,-261C1377.5,-261 1243.75,-261 1243.75,-261 1237.75,-261 1231.75,-255 1231.75,-249 1231.75,-249 1231.75,-205 1231.75,-205 1231.75,-199 1237.75,-193 1243.75,-193 1243.75,-193 1377.5,-193 1377.5,-193 1383.5,-193 1389.5,-199 1389.5,-205 1389.5,-205 1389.5,-249 1389.5,-249 1389.5,-255 1383.5,-261 1377.5,-261"/>
<text text-anchor="start" x="1275.38" y="-243.7" font-family="Helvetica,sans-Serif" font-size="14.00">nox ≤ 0.531</text>
<text text-anchor="start" x="1239.75" y="-228.7" font-family="Helvetica,sans-Serif" font-size="14.00">squared_error = 11.666</text>
<text text-anchor="start" x="1269.75" y="-213.7" font-family="Helvetica,sans-Serif" font-size="14.00">samples = 85</text>
<text text-anchor="start" x="1266" y="-198.7" font-family="Helvetica,sans-Serif" font-size="14.00">value = 17.356</text>
</g>
<!-- 13&#45;&gt;14 -->
<g id="edge14" class="edge">
<title>13&#45;&gt;14</title>
<path fill="none" stroke="black" d="M1421.6,-296.6C1406.36,-287.18 1389.64,-276.84 1373.9,-267.12"/>
<polygon fill="black" stroke="black" points="1376.12,-263.75 1365.77,-261.47 1372.44,-269.71 1376.12,-263.75"/>
</g>
<!-- 21 -->
<g id="node22" class="node">
<title>21</title>
<path fill="#fef8f4" stroke="black" d="M1714.5,-261C1714.5,-261 1580.75,-261 1580.75,-261 1574.75,-261 1568.75,-255 1568.75,-249 1568.75,-249 1568.75,-205 1568.75,-205 1568.75,-199 1574.75,-193 1580.75,-193 1580.75,-193 1714.5,-193 1714.5,-193 1720.5,-193 1726.5,-199 1726.5,-205 1726.5,-205 1726.5,-249 1726.5,-249 1726.5,-255 1720.5,-261 1714.5,-261"/>
<text text-anchor="start" x="1612.38" y="-243.7" font-family="Helvetica,sans-Serif" font-size="14.00">nox ≤ 0.669</text>
<text text-anchor="start" x="1576.75" y="-228.7" font-family="Helvetica,sans-Serif" font-size="14.00">squared_error = 11.417</text>
<text text-anchor="start" x="1606.75" y="-213.7" font-family="Helvetica,sans-Serif" font-size="14.00">samples = 62</text>
<text text-anchor="start" x="1603" y="-198.7" font-family="Helvetica,sans-Serif" font-size="14.00">value = 11.727</text>
</g>
<!-- 13&#45;&gt;21 -->
<g id="edge21" class="edge">
<title>13&#45;&gt;21</title>
<path fill="none" stroke="black" d="M1531.94,-296.6C1547.98,-287.09 1565.59,-276.65 1582.12,-266.85"/>
<polygon fill="black" stroke="black" points="1583.36,-269.58 1590.18,-261.47 1579.79,-263.56 1583.36,-269.58"/>
</g>
<!-- 15 -->
<g id="node16" class="node">
<title>15</title>
<path fill="#f8ddca" stroke="black" d="M1121.75,-157C1121.75,-157 995.5,-157 995.5,-157 989.5,-157 983.5,-151 983.5,-145 983.5,-145 983.5,-101 983.5,-101 983.5,-95 989.5,-89 995.5,-89 995.5,-89 1121.75,-89 1121.75,-89 1127.75,-89 1133.75,-95 1133.75,-101 1133.75,-101 1133.75,-145 1133.75,-145 1133.75,-151 1127.75,-157 1121.75,-157"/>
<text text-anchor="start" x="1025.62" y="-139.7" font-family="Helvetica,sans-Serif" font-size="14.00">dis ≤ 6.016</text>
<text text-anchor="start" x="991.5" y="-124.7" font-family="Helvetica,sans-Serif" font-size="14.00">squared_error = 8.971</text>
<text text-anchor="start" x="1017.75" y="-109.7" font-family="Helvetica,sans-Serif" font-size="14.00">samples = 20</text>
<text text-anchor="start" x="1014" y="-94.7" font-family="Helvetica,sans-Serif" font-size="14.00">value = 20.275</text>
</g>
<!-- 14&#45;&gt;15 -->
<g id="edge15" class="edge">
<title>14&#45;&gt;15</title>
<path fill="none" stroke="black" d="M1231.58,-194.01C1203.69,-182.72 1172.22,-169.98 1143.84,-158.49"/>
<polygon fill="black" stroke="black" points="1145.53,-154.99 1134.95,-154.49 1142.9,-161.48 1145.53,-154.99"/>
</g>
<!-- 18 -->
<g id="node19" class="node">
<title>18</title>
<path fill="#fbe9dd" stroke="black" d="M1373.75,-157C1373.75,-157 1247.5,-157 1247.5,-157 1241.5,-157 1235.5,-151 1235.5,-145 1235.5,-145 1235.5,-101 1235.5,-101 1235.5,-95 1241.5,-89 1247.5,-89 1247.5,-89 1373.75,-89 1373.75,-89 1379.75,-89 1385.75,-95 1385.75,-101 1385.75,-101 1385.75,-145 1385.75,-145 1385.75,-151 1379.75,-157 1373.75,-157"/>
<text text-anchor="start" x="1270.12" y="-139.7" font-family="Helvetica,sans-Serif" font-size="14.00">lstat ≤ 18.885</text>
<text text-anchor="start" x="1243.5" y="-124.7" font-family="Helvetica,sans-Serif" font-size="14.00">squared_error = 9.068</text>
<text text-anchor="start" x="1269.75" y="-109.7" font-family="Helvetica,sans-Serif" font-size="14.00">samples = 65</text>
<text text-anchor="start" x="1266" y="-94.7" font-family="Helvetica,sans-Serif" font-size="14.00">value = 16.458</text>
</g>
<!-- 14&#45;&gt;18 -->
<g id="edge18" class="edge">
<title>14&#45;&gt;18</title>
<path fill="none" stroke="black" d="M1310.62,-192.6C1310.62,-184.85 1310.62,-176.49 1310.62,-168.35"/>
<polygon fill="black" stroke="black" points="1314.13,-168.47 1310.62,-158.47 1307.13,-168.47 1314.13,-168.47"/>
</g>
<!-- 16 -->
<g id="node17" class="node">
<title>16</title>
<path fill="#f7d9c4" stroke="black" d="M953.75,-53C953.75,-53 827.5,-53 827.5,-53 821.5,-53 815.5,-47 815.5,-41 815.5,-41 815.5,-12 815.5,-12 815.5,-6 821.5,0 827.5,0 827.5,0 953.75,0 953.75,0 959.75,0 965.75,-6 965.75,-12 965.75,-12 965.75,-41 965.75,-41 965.75,-47 959.75,-53 953.75,-53"/>
<text text-anchor="start" x="823.5" y="-35.7" font-family="Helvetica,sans-Serif" font-size="14.00">squared_error = 6.936</text>
<text text-anchor="start" x="849.75" y="-20.7" font-family="Helvetica,sans-Serif" font-size="14.00">samples = 13</text>
<text text-anchor="start" x="846" y="-5.7" font-family="Helvetica,sans-Serif" font-size="14.00">value = 21.608</text>
</g>
<!-- 15&#45;&gt;16 -->
<g id="edge16" class="edge">
<title>15&#45;&gt;16</title>
<path fill="none" stroke="black" d="M999.39,-88.68C982.02,-78.91 963.09,-68.26 945.96,-58.63"/>
<polygon fill="black" stroke="black" points="948.09,-55.25 937.66,-53.39 944.66,-61.35 948.09,-55.25"/>
</g>
<!-- 17 -->
<g id="node18" class="node">
<title>17</title>
<path fill="#fae5d6" stroke="black" d="M1121.75,-53C1121.75,-53 995.5,-53 995.5,-53 989.5,-53 983.5,-47 983.5,-41 983.5,-41 983.5,-12 983.5,-12 983.5,-6 989.5,0 995.5,0 995.5,0 1121.75,0 1121.75,0 1127.75,0 1133.75,-6 1133.75,-12 1133.75,-12 1133.75,-41 1133.75,-41 1133.75,-47 1127.75,-53 1121.75,-53"/>
<text text-anchor="start" x="991.5" y="-35.7" font-family="Helvetica,sans-Serif" font-size="14.00">squared_error = 3.326</text>
<text text-anchor="start" x="1021.5" y="-20.7" font-family="Helvetica,sans-Serif" font-size="14.00">samples = 7</text>
<text text-anchor="start" x="1021.5" y="-5.7" font-family="Helvetica,sans-Serif" font-size="14.00">value = 17.8</text>
</g>
<!-- 15&#45;&gt;17 -->
<g id="edge17" class="edge">
<title>15&#45;&gt;17</title>
<path fill="none" stroke="black" d="M1058.62,-88.68C1058.62,-80.81 1058.62,-72.37 1058.62,-64.35"/>
<polygon fill="black" stroke="black" points="1062.13,-64.39 1058.62,-54.39 1055.13,-64.39 1062.13,-64.39"/>
</g>
<!-- 19 -->
<g id="node20" class="node">
<title>19</title>
<path fill="#fae6d8" stroke="black" d="M1289.75,-53C1289.75,-53 1163.5,-53 1163.5,-53 1157.5,-53 1151.5,-47 1151.5,-41 1151.5,-41 1151.5,-12 1151.5,-12 1151.5,-6 1157.5,0 1163.5,0 1163.5,0 1289.75,0 1289.75,0 1295.75,0 1301.75,-6 1301.75,-12 1301.75,-12 1301.75,-41 1301.75,-41 1301.75,-47 1295.75,-53 1289.75,-53"/>
<text text-anchor="start" x="1159.5" y="-35.7" font-family="Helvetica,sans-Serif" font-size="14.00">squared_error = 5.775</text>
<text text-anchor="start" x="1185.75" y="-20.7" font-family="Helvetica,sans-Serif" font-size="14.00">samples = 46</text>
<text text-anchor="start" x="1182" y="-5.7" font-family="Helvetica,sans-Serif" font-size="14.00">value = 17.398</text>
</g>
<!-- 18&#45;&gt;19 -->
<g id="edge19" class="edge">
<title>18&#45;&gt;19</title>
<path fill="none" stroke="black" d="M1281.01,-88.68C1273.21,-79.9 1264.78,-70.42 1256.94,-61.6"/>
<polygon fill="black" stroke="black" points="1259.9,-59.54 1250.64,-54.39 1254.67,-64.19 1259.9,-59.54"/>
</g>
<!-- 20 -->
<g id="node21" class="node">
<title>20</title>
<path fill="#fcf0e8" stroke="black" d="M1457.75,-53C1457.75,-53 1331.5,-53 1331.5,-53 1325.5,-53 1319.5,-47 1319.5,-41 1319.5,-41 1319.5,-12 1319.5,-12 1319.5,-6 1325.5,0 1331.5,0 1331.5,0 1457.75,0 1457.75,0 1463.75,0 1469.75,-6 1469.75,-12 1469.75,-12 1469.75,-41 1469.75,-41 1469.75,-47 1463.75,-53 1457.75,-53"/>
<text text-anchor="start" x="1327.5" y="-35.7" font-family="Helvetica,sans-Serif" font-size="14.00">squared_error = 9.731</text>
<text text-anchor="start" x="1353.75" y="-20.7" font-family="Helvetica,sans-Serif" font-size="14.00">samples = 19</text>
<text text-anchor="start" x="1350" y="-5.7" font-family="Helvetica,sans-Serif" font-size="14.00">value = 14.184</text>
</g>
<!-- 18&#45;&gt;20 -->
<g id="edge20" class="edge">
<title>18&#45;&gt;20</title>
<path fill="none" stroke="black" d="M1340.24,-88.68C1348.04,-79.9 1356.47,-70.42 1364.31,-61.6"/>
<polygon fill="black" stroke="black" points="1366.58,-64.19 1370.61,-54.39 1361.35,-59.54 1366.58,-64.19"/>
</g>
<!-- 22 -->
<g id="node23" class="node">
<title>22</title>
<path fill="#fbeee4" stroke="black" d="M1710.75,-157C1710.75,-157 1584.5,-157 1584.5,-157 1578.5,-157 1572.5,-151 1572.5,-145 1572.5,-145 1572.5,-101 1572.5,-101 1572.5,-95 1578.5,-89 1584.5,-89 1584.5,-89 1710.75,-89 1710.75,-89 1716.75,-89 1722.75,-95 1722.75,-101 1722.75,-101 1722.75,-145 1722.75,-145 1722.75,-151 1716.75,-157 1710.75,-157"/>
<text text-anchor="start" x="1614.62" y="-139.7" font-family="Helvetica,sans-Serif" font-size="14.00">dis ≤ 2.627</text>
<text text-anchor="start" x="1580.5" y="-124.7" font-family="Helvetica,sans-Serif" font-size="14.00">squared_error = 7.139</text>
<text text-anchor="start" x="1606.75" y="-109.7" font-family="Helvetica,sans-Serif" font-size="14.00">samples = 16</text>
<text text-anchor="start" x="1603" y="-94.7" font-family="Helvetica,sans-Serif" font-size="14.00">value = 14.975</text>
</g>
<!-- 21&#45;&gt;22 -->
<g id="edge22" class="edge">
<title>21&#45;&gt;22</title>
<path fill="none" stroke="black" d="M1647.62,-192.6C1647.62,-184.85 1647.62,-176.49 1647.62,-168.35"/>
<polygon fill="black" stroke="black" points="1651.13,-168.47 1647.62,-158.47 1644.13,-168.47 1651.13,-168.47"/>
</g>
<!-- 25 -->
<g id="node26" class="node">
<title>25</title>
<path fill="#fefcfa" stroke="black" d="M1955.75,-157C1955.75,-157 1829.5,-157 1829.5,-157 1823.5,-157 1817.5,-151 1817.5,-145 1817.5,-145 1817.5,-101 1817.5,-101 1817.5,-95 1823.5,-89 1829.5,-89 1829.5,-89 1955.75,-89 1955.75,-89 1961.75,-89 1967.75,-95 1967.75,-101 1967.75,-101 1967.75,-145 1967.75,-145 1967.75,-151 1961.75,-157 1955.75,-157"/>
<text text-anchor="start" x="1855.88" y="-139.7" font-family="Helvetica,sans-Serif" font-size="14.00">lstat ≤ 19.31</text>
<text text-anchor="start" x="1825.5" y="-124.7" font-family="Helvetica,sans-Serif" font-size="14.00">squared_error = 7.961</text>
<text text-anchor="start" x="1851.75" y="-109.7" font-family="Helvetica,sans-Serif" font-size="14.00">samples = 46</text>
<text text-anchor="start" x="1848" y="-94.7" font-family="Helvetica,sans-Serif" font-size="14.00">value = 10.598</text>
</g>
<!-- 21&#45;&gt;25 -->
<g id="edge25" class="edge">
<title>21&#45;&gt;25</title>
<path fill="none" stroke="black" d="M1726.83,-193.02C1752.49,-182.34 1781.06,-170.45 1807.16,-159.58"/>
<polygon fill="black" stroke="black" points="1808.14,-162.55 1816.03,-155.47 1805.45,-156.09 1808.14,-162.55"/>
</g>
<!-- 23 -->
<g id="node24" class="node">
<title>23</title>
<path fill="#fcf0e7" stroke="black" d="M1625.75,-53C1625.75,-53 1499.5,-53 1499.5,-53 1493.5,-53 1487.5,-47 1487.5,-41 1487.5,-41 1487.5,-12 1487.5,-12 1487.5,-6 1493.5,0 1499.5,0 1499.5,0 1625.75,0 1625.75,0 1631.75,0 1637.75,-6 1637.75,-12 1637.75,-12 1637.75,-41 1637.75,-41 1637.75,-47 1631.75,-53 1625.75,-53"/>
<text text-anchor="start" x="1495.5" y="-35.7" font-family="Helvetica,sans-Serif" font-size="14.00">squared_error = 4.631</text>
<text text-anchor="start" x="1521.75" y="-20.7" font-family="Helvetica,sans-Serif" font-size="14.00">samples = 14</text>
<text text-anchor="start" x="1518" y="-5.7" font-family="Helvetica,sans-Serif" font-size="14.00">value = 14.314</text>
</g>
<!-- 22&#45;&gt;23 -->
<g id="edge23" class="edge">
<title>22&#45;&gt;23</title>
<path fill="none" stroke="black" d="M1617.66,-88.68C1609.68,-79.81 1601.05,-70.23 1593.05,-61.33"/>
<polygon fill="black" stroke="black" points="1596.21,-59.49 1586.92,-54.39 1591,-64.17 1596.21,-59.49"/>
</g>
<!-- 24 -->
<g id="node25" class="node">
<title>24</title>
<path fill="#f9e0ce" stroke="black" d="M1787,-53C1787,-53 1668.25,-53 1668.25,-53 1662.25,-53 1656.25,-47 1656.25,-41 1656.25,-41 1656.25,-12 1656.25,-12 1656.25,-6 1662.25,0 1668.25,0 1668.25,0 1787,0 1787,0 1793,0 1799,-6 1799,-12 1799,-12 1799,-41 1799,-41 1799,-47 1793,-53 1787,-53"/>
<text text-anchor="start" x="1664.25" y="-35.7" font-family="Helvetica,sans-Serif" font-size="14.00">squared_error = 0.25</text>
<text text-anchor="start" x="1690.5" y="-20.7" font-family="Helvetica,sans-Serif" font-size="14.00">samples = 2</text>
<text text-anchor="start" x="1690.5" y="-5.7" font-family="Helvetica,sans-Serif" font-size="14.00">value = 19.6</text>
</g>
<!-- 22&#45;&gt;24 -->
<g id="edge24" class="edge">
<title>22&#45;&gt;24</title>
<path fill="none" stroke="black" d="M1675.83,-88.68C1683.26,-79.9 1691.29,-70.42 1698.76,-61.6"/>
<polygon fill="black" stroke="black" points="1701.91,-64.29 1705.7,-54.39 1696.57,-59.76 1701.91,-64.29"/>
</g>
<!-- 26 -->
<g id="node27" class="node">
<title>26</title>
<path fill="#fdf4ed" stroke="black" d="M1955.75,-53C1955.75,-53 1829.5,-53 1829.5,-53 1823.5,-53 1817.5,-47 1817.5,-41 1817.5,-41 1817.5,-12 1817.5,-12 1817.5,-6 1823.5,0 1829.5,0 1829.5,0 1955.75,0 1955.75,0 1961.75,0 1967.75,-6 1967.75,-12 1967.75,-12 1967.75,-41 1967.75,-41 1967.75,-47 1961.75,-53 1955.75,-53"/>
<text text-anchor="start" x="1825.5" y="-35.7" font-family="Helvetica,sans-Serif" font-size="14.00">squared_error = 3.791</text>
<text text-anchor="start" x="1851.75" y="-20.7" font-family="Helvetica,sans-Serif" font-size="14.00">samples = 14</text>
<text text-anchor="start" x="1848" y="-5.7" font-family="Helvetica,sans-Serif" font-size="14.00">value = 13.164</text>
</g>
<!-- 25&#45;&gt;26 -->
<g id="edge26" class="edge">
<title>25&#45;&gt;26</title>
<path fill="none" stroke="black" d="M1892.62,-88.68C1892.62,-80.81 1892.62,-72.37 1892.62,-64.35"/>
<polygon fill="black" stroke="black" points="1896.13,-64.39 1892.62,-54.39 1889.13,-64.39 1896.13,-64.39"/>
</g>
<!-- 27 -->
<g id="node28" class="node">
<title>27</title>
<path fill="#ffffff" stroke="black" d="M2123.75,-53C2123.75,-53 1997.5,-53 1997.5,-53 1991.5,-53 1985.5,-47 1985.5,-41 1985.5,-41 1985.5,-12 1985.5,-12 1985.5,-6 1991.5,0 1997.5,0 1997.5,0 2123.75,0 2123.75,0 2129.75,0 2135.75,-6 2135.75,-12 2135.75,-12 2135.75,-41 2135.75,-41 2135.75,-47 2129.75,-53 2123.75,-53"/>
<text text-anchor="start" x="1993.5" y="-35.7" font-family="Helvetica,sans-Serif" font-size="14.00">squared_error = 5.643</text>
<text text-anchor="start" x="2019.75" y="-20.7" font-family="Helvetica,sans-Serif" font-size="14.00">samples = 32</text>
<text text-anchor="start" x="2019.75" y="-5.7" font-family="Helvetica,sans-Serif" font-size="14.00">value = 9.475</text>
</g>
<!-- 25&#45;&gt;27 -->
<g id="edge27" class="edge">
<title>25&#45;&gt;27</title>
<path fill="none" stroke="black" d="M1951.86,-88.68C1969.23,-78.91 1988.16,-68.26 2005.29,-58.63"/>
<polygon fill="black" stroke="black" points="2006.59,-61.35 2013.59,-53.39 2003.16,-55.25 2006.59,-61.35"/>
</g>
<!-- 29 -->
<g id="node30" class="node">
<title>29</title>
<path fill="#f1ba92" stroke="black" d="M2880.5,-365C2880.5,-365 2746.75,-365 2746.75,-365 2740.75,-365 2734.75,-359 2734.75,-353 2734.75,-353 2734.75,-309 2734.75,-309 2734.75,-303 2740.75,-297 2746.75,-297 2746.75,-297 2880.5,-297 2880.5,-297 2886.5,-297 2892.5,-303 2892.5,-309 2892.5,-309 2892.5,-353 2892.5,-353 2892.5,-359 2886.5,-365 2880.5,-365"/>
<text text-anchor="start" x="2780.62" y="-347.7" font-family="Helvetica,sans-Serif" font-size="14.00">indus ≤ 9.5</text>
<text text-anchor="start" x="2742.75" y="-332.7" font-family="Helvetica,sans-Serif" font-size="14.00">squared_error = 30.138</text>
<text text-anchor="start" x="2772.75" y="-317.7" font-family="Helvetica,sans-Serif" font-size="14.00">samples = 30</text>
<text text-anchor="start" x="2769" y="-302.7" font-family="Helvetica,sans-Serif" font-size="14.00">value = 31.803</text>
</g>
<!-- 28&#45;&gt;29 -->
<g id="edge29" class="edge">
<title>28&#45;&gt;29</title>
<path fill="none" stroke="black" d="M2813.62,-400.6C2813.62,-392.85 2813.62,-384.49 2813.62,-376.35"/>
<polygon fill="black" stroke="black" points="2817.13,-376.47 2813.62,-366.47 2810.13,-376.47 2817.13,-376.47"/>
</g>
<!-- 44 -->
<g id="node45" class="node">
<title>44</title>
<path fill="#e89152" stroke="black" d="M3346,-365C3346,-365 3227.25,-365 3227.25,-365 3221.25,-365 3215.25,-359 3215.25,-353 3215.25,-353 3215.25,-309 3215.25,-309 3215.25,-303 3221.25,-297 3227.25,-297 3227.25,-297 3346,-297 3346,-297 3352,-297 3358,-303 3358,-309 3358,-309 3358,-353 3358,-353 3358,-359 3352,-365 3346,-365"/>
<text text-anchor="start" x="3253.62" y="-347.7" font-family="Helvetica,sans-Serif" font-size="14.00">dis ≤ 1.938</text>
<text text-anchor="start" x="3223.25" y="-332.7" font-family="Helvetica,sans-Serif" font-size="14.00">squared_error = 40.0</text>
<text text-anchor="start" x="3245.75" y="-317.7" font-family="Helvetica,sans-Serif" font-size="14.00">samples = 26</text>
<text text-anchor="start" x="3242" y="-302.7" font-family="Helvetica,sans-Serif" font-size="14.00">value = 44.877</text>
</g>
<!-- 28&#45;&gt;44 -->
<g id="edge44" class="edge">
<title>28&#45;&gt;44</title>
<path fill="none" stroke="black" d="M2892.79,-416.93C2979.14,-398.31 3116.68,-368.65 3204.26,-349.76"/>
<polygon fill="black" stroke="black" points="3204.91,-352.99 3213.95,-347.46 3203.44,-346.14 3204.91,-352.99"/>
</g>
<!-- 30 -->
<g id="node31" class="node">
<title>30</title>
<path fill="#f0b489" stroke="black" d="M2750.75,-261C2750.75,-261 2624.5,-261 2624.5,-261 2618.5,-261 2612.5,-255 2612.5,-249 2612.5,-249 2612.5,-205 2612.5,-205 2612.5,-199 2618.5,-193 2624.5,-193 2624.5,-193 2750.75,-193 2750.75,-193 2756.75,-193 2762.75,-199 2762.75,-205 2762.75,-205 2762.75,-249 2762.75,-249 2762.75,-255 2756.75,-261 2750.75,-261"/>
<text text-anchor="start" x="2654.25" y="-243.7" font-family="Helvetica,sans-Serif" font-size="14.00">tax ≤ 253.0</text>
<text text-anchor="start" x="2620.5" y="-228.7" font-family="Helvetica,sans-Serif" font-size="14.00">squared_error = 9.126</text>
<text text-anchor="start" x="2646.75" y="-213.7" font-family="Helvetica,sans-Serif" font-size="14.00">samples = 26</text>
<text text-anchor="start" x="2643" y="-198.7" font-family="Helvetica,sans-Serif" font-size="14.00">value = 33.554</text>
</g>
<!-- 29&#45;&gt;30 -->
<g id="edge30" class="edge">
<title>29&#45;&gt;30</title>
<path fill="none" stroke="black" d="M2772.37,-296.6C2761.16,-287.53 2748.91,-277.61 2737.3,-268.21"/>
<polygon fill="black" stroke="black" points="2739.95,-265.05 2729.97,-261.47 2735.55,-270.49 2739.95,-265.05"/>
</g>
<!-- 37 -->
<g id="node38" class="node">
<title>37</title>
<path fill="#f8ddc9" stroke="black" d="M3006.5,-261C3006.5,-261 2872.75,-261 2872.75,-261 2866.75,-261 2860.75,-255 2860.75,-249 2860.75,-249 2860.75,-205 2860.75,-205 2860.75,-199 2866.75,-193 2872.75,-193 2872.75,-193 3006.5,-193 3006.5,-193 3012.5,-193 3018.5,-199 3018.5,-205 3018.5,-205 3018.5,-249 3018.5,-249 3018.5,-255 3012.5,-261 3006.5,-261"/>
<text text-anchor="start" x="2904.38" y="-243.7" font-family="Helvetica,sans-Serif" font-size="14.00">nox ≤ 0.622</text>
<text text-anchor="start" x="2868.75" y="-228.7" font-family="Helvetica,sans-Serif" font-size="14.00">squared_error = 17.332</text>
<text text-anchor="start" x="2902.5" y="-213.7" font-family="Helvetica,sans-Serif" font-size="14.00">samples = 4</text>
<text text-anchor="start" x="2895" y="-198.7" font-family="Helvetica,sans-Serif" font-size="14.00">value = 20.425</text>
</g>
<!-- 29&#45;&gt;37 -->
<g id="edge37" class="edge">
<title>29&#45;&gt;37</title>
<path fill="none" stroke="black" d="M2854.88,-296.6C2866.09,-287.53 2878.34,-277.61 2889.95,-268.21"/>
<polygon fill="black" stroke="black" points="2891.7,-270.49 2897.28,-261.47 2887.3,-265.05 2891.7,-270.49"/>
</g>
<!-- 31 -->
<g id="node32" class="node">
<title>31</title>
<path fill="#eeaf81" stroke="black" d="M2456.75,-157C2456.75,-157 2330.5,-157 2330.5,-157 2324.5,-157 2318.5,-151 2318.5,-145 2318.5,-145 2318.5,-101 2318.5,-101 2318.5,-95 2324.5,-89 2330.5,-89 2330.5,-89 2456.75,-89 2456.75,-89 2462.75,-89 2468.75,-95 2468.75,-101 2468.75,-101 2468.75,-145 2468.75,-145 2468.75,-151 2462.75,-157 2456.75,-157"/>
<text text-anchor="start" x="2356.12" y="-139.7" font-family="Helvetica,sans-Serif" font-size="14.00">crim ≤ 0.077</text>
<text text-anchor="start" x="2326.5" y="-124.7" font-family="Helvetica,sans-Serif" font-size="14.00">squared_error = 2.804</text>
<text text-anchor="start" x="2352.75" y="-109.7" font-family="Helvetica,sans-Serif" font-size="14.00">samples = 10</text>
<text text-anchor="start" x="2352.75" y="-94.7" font-family="Helvetica,sans-Serif" font-size="14.00">value = 35.33</text>
</g>
<!-- 30&#45;&gt;31 -->
<g id="edge31" class="edge">
<title>30&#45;&gt;31</title>
<path fill="none" stroke="black" d="M2612.29,-199.86C2571.67,-185.77 2521.36,-168.32 2479.25,-153.71"/>
<polygon fill="black" stroke="black" points="2480.61,-150.13 2470.01,-150.16 2478.32,-156.74 2480.61,-150.13"/>
</g>
<!-- 34 -->
<g id="node35" class="node">
<title>34</title>
<path fill="#f0b88f" stroke="black" d="M2750.75,-157C2750.75,-157 2624.5,-157 2624.5,-157 2618.5,-157 2612.5,-151 2612.5,-145 2612.5,-145 2612.5,-101 2612.5,-101 2612.5,-95 2618.5,-89 2624.5,-89 2624.5,-89 2750.75,-89 2750.75,-89 2756.75,-89 2762.75,-95 2762.75,-101 2762.75,-101 2762.75,-145 2762.75,-145 2762.75,-151 2756.75,-157 2750.75,-157"/>
<text text-anchor="start" x="2655" y="-139.7" font-family="Helvetica,sans-Serif" font-size="14.00">rm ≤ 7.121</text>
<text text-anchor="start" x="2620.5" y="-124.7" font-family="Helvetica,sans-Serif" font-size="14.00">squared_error = 9.872</text>
<text text-anchor="start" x="2646.75" y="-109.7" font-family="Helvetica,sans-Serif" font-size="14.00">samples = 16</text>
<text text-anchor="start" x="2643" y="-94.7" font-family="Helvetica,sans-Serif" font-size="14.00">value = 32.444</text>
</g>
<!-- 30&#45;&gt;34 -->
<g id="edge34" class="edge">
<title>30&#45;&gt;34</title>
<path fill="none" stroke="black" d="M2687.62,-192.6C2687.62,-184.85 2687.62,-176.49 2687.62,-168.35"/>
<polygon fill="black" stroke="black" points="2691.13,-168.47 2687.62,-158.47 2684.13,-168.47 2691.13,-168.47"/>
</g>
<!-- 32 -->
<g id="node33" class="node">
<title>32</title>
<path fill="#efb083" stroke="black" d="M2291.75,-53C2291.75,-53 2165.5,-53 2165.5,-53 2159.5,-53 2153.5,-47 2153.5,-41 2153.5,-41 2153.5,-12 2153.5,-12 2153.5,-6 2159.5,0 2165.5,0 2165.5,0 2291.75,0 2291.75,0 2297.75,0 2303.75,-6 2303.75,-12 2303.75,-12 2303.75,-41 2303.75,-41 2303.75,-47 2297.75,-53 2291.75,-53"/>
<text text-anchor="start" x="2161.5" y="-35.7" font-family="Helvetica,sans-Serif" font-size="14.00">squared_error = 1.872</text>
<text text-anchor="start" x="2191.5" y="-20.7" font-family="Helvetica,sans-Serif" font-size="14.00">samples = 8</text>
<text text-anchor="start" x="2184" y="-5.7" font-family="Helvetica,sans-Serif" font-size="14.00">value = 34.762</text>
</g>
<!-- 31&#45;&gt;32 -->
<g id="edge32" class="edge">
<title>31&#45;&gt;32</title>
<path fill="none" stroke="black" d="M2335.45,-88.68C2318.39,-78.91 2299.79,-68.26 2282.98,-58.63"/>
<polygon fill="black" stroke="black" points="2285.25,-55.33 2274.84,-53.39 2281.77,-61.4 2285.25,-55.33"/>
</g>
<!-- 33 -->
<g id="node34" class="node">
<title>33</title>
<path fill="#eda876" stroke="black" d="M2453,-53C2453,-53 2334.25,-53 2334.25,-53 2328.25,-53 2322.25,-47 2322.25,-41 2322.25,-41 2322.25,-12 2322.25,-12 2322.25,-6 2328.25,0 2334.25,0 2334.25,0 2453,0 2453,0 2459,0 2465,-6 2465,-12 2465,-12 2465,-41 2465,-41 2465,-47 2459,-53 2453,-53"/>
<text text-anchor="start" x="2330.25" y="-35.7" font-family="Helvetica,sans-Serif" font-size="14.00">squared_error = 0.09</text>
<text text-anchor="start" x="2356.5" y="-20.7" font-family="Helvetica,sans-Serif" font-size="14.00">samples = 2</text>
<text text-anchor="start" x="2356.5" y="-5.7" font-family="Helvetica,sans-Serif" font-size="14.00">value = 37.6</text>
</g>
<!-- 31&#45;&gt;33 -->
<g id="edge33" class="edge">
<title>31&#45;&gt;33</title>
<path fill="none" stroke="black" d="M2393.62,-88.68C2393.62,-80.81 2393.62,-72.37 2393.62,-64.35"/>
<polygon fill="black" stroke="black" points="2397.13,-64.39 2393.62,-54.39 2390.13,-64.39 2397.13,-64.39"/>
</g>
<!-- 35 -->
<g id="node36" class="node">
<title>35</title>
<path fill="#f1bd98" stroke="black" d="M2628.5,-53C2628.5,-53 2494.75,-53 2494.75,-53 2488.75,-53 2482.75,-47 2482.75,-41 2482.75,-41 2482.75,-12 2482.75,-12 2482.75,-6 2488.75,0 2494.75,0 2494.75,0 2628.5,0 2628.5,0 2634.5,0 2640.5,-6 2640.5,-12 2640.5,-12 2640.5,-41 2640.5,-41 2640.5,-47 2634.5,-53 2628.5,-53"/>
<text text-anchor="start" x="2490.75" y="-35.7" font-family="Helvetica,sans-Serif" font-size="14.00">squared_error = 11.277</text>
<text text-anchor="start" x="2524.5" y="-20.7" font-family="Helvetica,sans-Serif" font-size="14.00">samples = 7</text>
<text text-anchor="start" x="2517" y="-5.7" font-family="Helvetica,sans-Serif" font-size="14.00">value = 30.543</text>
</g>
<!-- 34&#45;&gt;35 -->
<g id="edge35" class="edge">
<title>34&#45;&gt;35</title>
<path fill="none" stroke="black" d="M2643.2,-88.68C2630.77,-79.36 2617.28,-69.24 2604.92,-59.97"/>
<polygon fill="black" stroke="black" points="2607.25,-56.59 2597.15,-53.39 2603.05,-62.19 2607.25,-56.59"/>
</g>
<!-- 36 -->
<g id="node37" class="node">
<title>36</title>
<path fill="#efb388" stroke="black" d="M2796.75,-53C2796.75,-53 2670.5,-53 2670.5,-53 2664.5,-53 2658.5,-47 2658.5,-41 2658.5,-41 2658.5,-12 2658.5,-12 2658.5,-6 2664.5,0 2670.5,0 2670.5,0 2796.75,0 2796.75,0 2802.75,0 2808.75,-6 2808.75,-12 2808.75,-12 2808.75,-41 2808.75,-41 2808.75,-47 2802.75,-53 2796.75,-53"/>
<text text-anchor="start" x="2666.5" y="-35.7" font-family="Helvetica,sans-Serif" font-size="14.00">squared_error = 3.784</text>
<text text-anchor="start" x="2696.5" y="-20.7" font-family="Helvetica,sans-Serif" font-size="14.00">samples = 9</text>
<text text-anchor="start" x="2689" y="-5.7" font-family="Helvetica,sans-Serif" font-size="14.00">value = 33.922</text>
</g>
<!-- 34&#45;&gt;36 -->
<g id="edge36" class="edge">
<title>34&#45;&gt;36</title>
<path fill="none" stroke="black" d="M2703.84,-88.68C2707.85,-80.45 2712.16,-71.59 2716.23,-63.25"/>
<polygon fill="black" stroke="black" points="2719.79,-64.92 2721.02,-54.39 2713.5,-61.85 2719.79,-64.92"/>
</g>
<!-- 38 -->
<g id="node39" class="node">
<title>38</title>
<path fill="#f5d0b6" stroke="black" d="M3002.75,-157C3002.75,-157 2876.5,-157 2876.5,-157 2870.5,-157 2864.5,-151 2864.5,-145 2864.5,-145 2864.5,-101 2864.5,-101 2864.5,-95 2870.5,-89 2876.5,-89 2876.5,-89 3002.75,-89 3002.75,-89 3008.75,-89 3014.75,-95 3014.75,-101 3014.75,-101 3014.75,-145 3014.75,-145 3014.75,-151 3008.75,-157 3002.75,-157"/>
<text text-anchor="start" x="2907" y="-139.7" font-family="Helvetica,sans-Serif" font-size="14.00">rm ≤ 7.018</text>
<text text-anchor="start" x="2872.5" y="-124.7" font-family="Helvetica,sans-Serif" font-size="14.00">squared_error = 0.303</text>
<text text-anchor="start" x="2902.5" y="-109.7" font-family="Helvetica,sans-Serif" font-size="14.00">samples = 2</text>
<text text-anchor="start" x="2898.75" y="-94.7" font-family="Helvetica,sans-Serif" font-size="14.00">value = 24.45</text>
</g>
<!-- 37&#45;&gt;38 -->
<g id="edge38" class="edge">
<title>37&#45;&gt;38</title>
<path fill="none" stroke="black" d="M2939.62,-192.6C2939.62,-184.85 2939.62,-176.49 2939.62,-168.35"/>
<polygon fill="black" stroke="black" points="2943.13,-168.47 2939.62,-158.47 2936.13,-168.47 2943.13,-168.47"/>
</g>
<!-- 41 -->
<g id="node42" class="node">
<title>41</title>
<path fill="#fbe9dd" stroke="black" d="M3260,-157C3260,-157 3141.25,-157 3141.25,-157 3135.25,-157 3129.25,-151 3129.25,-145 3129.25,-145 3129.25,-101 3129.25,-101 3129.25,-95 3135.25,-89 3141.25,-89 3141.25,-89 3260,-89 3260,-89 3266,-89 3272,-95 3272,-101 3272,-101 3272,-145 3272,-145 3272,-151 3266,-157 3260,-157"/>
<text text-anchor="start" x="3165.38" y="-139.7" font-family="Helvetica,sans-Serif" font-size="14.00">nox ≤ 0.692</text>
<text text-anchor="start" x="3137.25" y="-124.7" font-family="Helvetica,sans-Serif" font-size="14.00">squared_error = 1.96</text>
<text text-anchor="start" x="3163.5" y="-109.7" font-family="Helvetica,sans-Serif" font-size="14.00">samples = 2</text>
<text text-anchor="start" x="3163.5" y="-94.7" font-family="Helvetica,sans-Serif" font-size="14.00">value = 16.4</text>
</g>
<!-- 37&#45;&gt;41 -->
<g id="edge41" class="edge">
<title>37&#45;&gt;41</title>
<path fill="none" stroke="black" d="M3019,-194.98C3050.66,-182.61 3087.1,-168.37 3118.99,-155.9"/>
<polygon fill="black" stroke="black" points="3120.13,-158.82 3128.17,-151.92 3117.58,-152.3 3120.13,-158.82"/>
</g>
<!-- 39 -->
<g id="node40" class="node">
<title>39</title>
<path fill="#f6d2b9" stroke="black" d="M2950.25,-53C2950.25,-53 2839,-53 2839,-53 2833,-53 2827,-47 2827,-41 2827,-41 2827,-12 2827,-12 2827,-6 2833,0 2839,0 2839,0 2950.25,0 2950.25,0 2956.25,0 2962.25,-6 2962.25,-12 2962.25,-12 2962.25,-41 2962.25,-41 2962.25,-47 2956.25,-53 2950.25,-53"/>
<text text-anchor="start" x="2835" y="-35.7" font-family="Helvetica,sans-Serif" font-size="14.00">squared_error = 0.0</text>
<text text-anchor="start" x="2857.5" y="-20.7" font-family="Helvetica,sans-Serif" font-size="14.00">samples = 1</text>
<text text-anchor="start" x="2857.5" y="-5.7" font-family="Helvetica,sans-Serif" font-size="14.00">value = 23.9</text>
</g>
<!-- 38&#45;&gt;39 -->
<g id="edge39" class="edge">
<title>38&#45;&gt;39</title>
<path fill="none" stroke="black" d="M2923.76,-88.68C2919.84,-80.45 2915.62,-71.59 2911.65,-63.25"/>
<polygon fill="black" stroke="black" points="2914.41,-61.92 2906.96,-54.39 2908.09,-64.93 2914.41,-61.92"/>
</g>
<!-- 40 -->
<g id="node41" class="node">
<title>40</title>
<path fill="#f5cfb3" stroke="black" d="M3103.25,-53C3103.25,-53 2992,-53 2992,-53 2986,-53 2980,-47 2980,-41 2980,-41 2980,-12 2980,-12 2980,-6 2986,0 2992,0 2992,0 3103.25,0 3103.25,0 3109.25,0 3115.25,-6 3115.25,-12 3115.25,-12 3115.25,-41 3115.25,-41 3115.25,-47 3109.25,-53 3103.25,-53"/>
<text text-anchor="start" x="2988" y="-35.7" font-family="Helvetica,sans-Serif" font-size="14.00">squared_error = 0.0</text>
<text text-anchor="start" x="3010.5" y="-20.7" font-family="Helvetica,sans-Serif" font-size="14.00">samples = 1</text>
<text text-anchor="start" x="3010.5" y="-5.7" font-family="Helvetica,sans-Serif" font-size="14.00">value = 25.0</text>
</g>
<!-- 38&#45;&gt;40 -->
<g id="edge40" class="edge">
<title>38&#45;&gt;40</title>
<path fill="none" stroke="black" d="M2977.7,-88.68C2988.15,-79.54 2999.47,-69.64 3009.89,-60.51"/>
<polygon fill="black" stroke="black" points="3011.81,-62.61 3017.03,-53.39 3007.2,-57.34 3011.81,-62.61"/>
</g>
<!-- 42 -->
<g id="node43" class="node">
<title>42</title>
<path fill="#fbeee4" stroke="black" d="M3256.25,-53C3256.25,-53 3145,-53 3145,-53 3139,-53 3133,-47 3133,-41 3133,-41 3133,-12 3133,-12 3133,-6 3139,0 3145,0 3145,0 3256.25,0 3256.25,0 3262.25,0 3268.25,-6 3268.25,-12 3268.25,-12 3268.25,-41 3268.25,-41 3268.25,-47 3262.25,-53 3256.25,-53"/>
<text text-anchor="start" x="3141" y="-35.7" font-family="Helvetica,sans-Serif" font-size="14.00">squared_error = 0.0</text>
<text text-anchor="start" x="3163.5" y="-20.7" font-family="Helvetica,sans-Serif" font-size="14.00">samples = 1</text>
<text text-anchor="start" x="3163.5" y="-5.7" font-family="Helvetica,sans-Serif" font-size="14.00">value = 15.0</text>
</g>
<!-- 41&#45;&gt;42 -->
<g id="edge42" class="edge">
<title>41&#45;&gt;42</title>
<path fill="none" stroke="black" d="M3200.62,-88.68C3200.62,-80.81 3200.62,-72.37 3200.62,-64.35"/>
<polygon fill="black" stroke="black" points="3204.13,-64.39 3200.62,-54.39 3197.13,-64.39 3204.13,-64.39"/>
</g>
<!-- 43 -->
<g id="node44" class="node">
<title>43</title>
<path fill="#fae5d6" stroke="black" d="M3409.25,-53C3409.25,-53 3298,-53 3298,-53 3292,-53 3286,-47 3286,-41 3286,-41 3286,-12 3286,-12 3286,-6 3292,0 3298,0 3298,0 3409.25,0 3409.25,0 3415.25,0 3421.25,-6 3421.25,-12 3421.25,-12 3421.25,-41 3421.25,-41 3421.25,-47 3415.25,-53 3409.25,-53"/>
<text text-anchor="start" x="3294" y="-35.7" font-family="Helvetica,sans-Serif" font-size="14.00">squared_error = 0.0</text>
<text text-anchor="start" x="3316.5" y="-20.7" font-family="Helvetica,sans-Serif" font-size="14.00">samples = 1</text>
<text text-anchor="start" x="3316.5" y="-5.7" font-family="Helvetica,sans-Serif" font-size="14.00">value = 17.8</text>
</g>
<!-- 41&#45;&gt;43 -->
<g id="edge43" class="edge">
<title>41&#45;&gt;43</title>
<path fill="none" stroke="black" d="M3254.57,-88.68C3270.1,-79.09 3286.99,-68.65 3302.36,-59.16"/>
<polygon fill="black" stroke="black" points="3304.03,-61.63 3310.7,-53.39 3300.35,-55.67 3304.03,-61.63"/>
</g>
<!-- 45 -->
<g id="node46" class="node">
<title>45</title>
<path fill="#f7d8c2" stroke="black" d="M3342.25,-253.5C3342.25,-253.5 3231,-253.5 3231,-253.5 3225,-253.5 3219,-247.5 3219,-241.5 3219,-241.5 3219,-212.5 3219,-212.5 3219,-206.5 3225,-200.5 3231,-200.5 3231,-200.5 3342.25,-200.5 3342.25,-200.5 3348.25,-200.5 3354.25,-206.5 3354.25,-212.5 3354.25,-212.5 3354.25,-241.5 3354.25,-241.5 3354.25,-247.5 3348.25,-253.5 3342.25,-253.5"/>
<text text-anchor="start" x="3227" y="-236.2" font-family="Helvetica,sans-Serif" font-size="14.00">squared_error = 0.0</text>
<text text-anchor="start" x="3249.5" y="-221.2" font-family="Helvetica,sans-Serif" font-size="14.00">samples = 1</text>
<text text-anchor="start" x="3249.5" y="-206.2" font-family="Helvetica,sans-Serif" font-size="14.00">value = 21.9</text>
</g>
<!-- 44&#45;&gt;45 -->
<g id="edge45" class="edge">
<title>44&#45;&gt;45</title>
<path fill="none" stroke="black" d="M3286.62,-296.6C3286.62,-286.36 3286.62,-275.04 3286.62,-264.6"/>
<polygon fill="black" stroke="black" points="3290.13,-264.71 3286.62,-254.71 3283.13,-264.71 3290.13,-264.71"/>
</g>
<!-- 46 -->
<g id="node47" class="node">
<title>46</title>
<path fill="#e88e4e" stroke="black" d="M3663.5,-261C3663.5,-261 3529.75,-261 3529.75,-261 3523.75,-261 3517.75,-255 3517.75,-249 3517.75,-249 3517.75,-205 3517.75,-205 3517.75,-199 3523.75,-193 3529.75,-193 3529.75,-193 3663.5,-193 3663.5,-193 3669.5,-193 3675.5,-199 3675.5,-205 3675.5,-205 3675.5,-249 3675.5,-249 3675.5,-255 3669.5,-261 3663.5,-261"/>
<text text-anchor="start" x="3557.25" y="-243.7" font-family="Helvetica,sans-Serif" font-size="14.00">ptratio ≤ 17.9</text>
<text text-anchor="start" x="3525.75" y="-228.7" font-family="Helvetica,sans-Serif" font-size="14.00">squared_error = 19.638</text>
<text text-anchor="start" x="3555.75" y="-213.7" font-family="Helvetica,sans-Serif" font-size="14.00">samples = 25</text>
<text text-anchor="start" x="3552" y="-198.7" font-family="Helvetica,sans-Serif" font-size="14.00">value = 45.796</text>
</g>
<!-- 44&#45;&gt;46 -->
<g id="edge46" class="edge">
<title>44&#45;&gt;46</title>
<path fill="none" stroke="black" d="M3358.13,-306.47C3402.45,-291.89 3459.73,-273.04 3507.06,-257.47"/>
<polygon fill="black" stroke="black" points="3507.9,-260.55 3516.3,-254.1 3505.71,-253.9 3507.9,-260.55"/>
</g>
<!-- 47 -->
<g id="node48" class="node">
<title>47</title>
<path fill="#e78b49" stroke="black" d="M3663.5,-157C3663.5,-157 3529.75,-157 3529.75,-157 3523.75,-157 3517.75,-151 3517.75,-145 3517.75,-145 3517.75,-101 3517.75,-101 3517.75,-95 3523.75,-89 3529.75,-89 3529.75,-89 3663.5,-89 3663.5,-89 3669.5,-89 3675.5,-95 3675.5,-101 3675.5,-101 3675.5,-145 3675.5,-145 3675.5,-151 3669.5,-157 3663.5,-157"/>
<text text-anchor="start" x="3557.25" y="-139.7" font-family="Helvetica,sans-Serif" font-size="14.00">ptratio ≤ 14.8</text>
<text text-anchor="start" x="3525.75" y="-124.7" font-family="Helvetica,sans-Serif" font-size="14.00">squared_error = 13.631</text>
<text text-anchor="start" x="3555.75" y="-109.7" font-family="Helvetica,sans-Serif" font-size="14.00">samples = 22</text>
<text text-anchor="start" x="3552" y="-94.7" font-family="Helvetica,sans-Serif" font-size="14.00">value = 46.736</text>
</g>
<!-- 46&#45;&gt;47 -->
<g id="edge47" class="edge">
<title>46&#45;&gt;47</title>
<path fill="none" stroke="black" d="M3596.62,-192.6C3596.62,-184.85 3596.62,-176.49 3596.62,-168.35"/>
<polygon fill="black" stroke="black" points="3600.13,-168.47 3596.62,-158.47 3593.13,-168.47 3600.13,-168.47"/>
</g>
<!-- 50 -->
<g id="node51" class="node">
<title>50</title>
<path fill="#eca46f" stroke="black" d="M3913.75,-157C3913.75,-157 3787.5,-157 3787.5,-157 3781.5,-157 3775.5,-151 3775.5,-145 3775.5,-145 3775.5,-101 3775.5,-101 3775.5,-95 3781.5,-89 3787.5,-89 3787.5,-89 3913.75,-89 3913.75,-89 3919.75,-89 3925.75,-95 3925.75,-101 3925.75,-101 3925.75,-145 3925.75,-145 3925.75,-151 3919.75,-157 3913.75,-157"/>
<text text-anchor="start" x="3824" y="-139.7" font-family="Helvetica,sans-Serif" font-size="14.00">rad ≤ 5.0</text>
<text text-anchor="start" x="3783.5" y="-124.7" font-family="Helvetica,sans-Serif" font-size="14.00">squared_error = 9.647</text>
<text text-anchor="start" x="3813.5" y="-109.7" font-family="Helvetica,sans-Serif" font-size="14.00">samples = 3</text>
<text text-anchor="start" x="3813.5" y="-94.7" font-family="Helvetica,sans-Serif" font-size="14.00">value = 38.9</text>
</g>
<!-- 46&#45;&gt;50 -->
<g id="edge50" class="edge">
<title>46&#45;&gt;50</title>
<path fill="none" stroke="black" d="M3675.95,-194.15C3704.33,-182.75 3736.44,-169.86 3765.31,-158.26"/>
<polygon fill="black" stroke="black" points="3766.4,-161.19 3774.37,-154.22 3763.79,-154.7 3766.4,-161.19"/>
</g>
<!-- 48 -->
<g id="node49" class="node">
<title>48</title>
<path fill="#e68640" stroke="black" d="M3577.75,-53C3577.75,-53 3451.5,-53 3451.5,-53 3445.5,-53 3439.5,-47 3439.5,-41 3439.5,-41 3439.5,-12 3439.5,-12 3439.5,-6 3445.5,0 3451.5,0 3451.5,0 3577.75,0 3577.75,0 3583.75,0 3589.75,-6 3589.75,-12 3589.75,-12 3589.75,-41 3589.75,-41 3589.75,-47 3583.75,-53 3577.75,-53"/>
<text text-anchor="start" x="3447.5" y="-35.7" font-family="Helvetica,sans-Serif" font-size="14.00">squared_error = 6.362</text>
<text text-anchor="start" x="3473.75" y="-20.7" font-family="Helvetica,sans-Serif" font-size="14.00">samples = 11</text>
<text text-anchor="start" x="3470" y="-5.7" font-family="Helvetica,sans-Serif" font-size="14.00">value = 48.536</text>
</g>
<!-- 47&#45;&gt;48 -->
<g id="edge48" class="edge">
<title>47&#45;&gt;48</title>
<path fill="none" stroke="black" d="M3567.71,-88.68C3560.1,-79.9 3551.87,-70.42 3544.22,-61.6"/>
<polygon fill="black" stroke="black" points="3546.29,-59.65 3537.09,-54.39 3541,-64.24 3546.29,-59.65"/>
</g>
<!-- 49 -->
<g id="node50" class="node">
<title>49</title>
<path fill="#e89152" stroke="black" d="M3745.75,-53C3745.75,-53 3619.5,-53 3619.5,-53 3613.5,-53 3607.5,-47 3607.5,-41 3607.5,-41 3607.5,-12 3607.5,-12 3607.5,-6 3613.5,0 3619.5,0 3619.5,0 3745.75,0 3745.75,0 3751.75,0 3757.75,-6 3757.75,-12 3757.75,-12 3757.75,-41 3757.75,-41 3757.75,-47 3751.75,-53 3745.75,-53"/>
<text text-anchor="start" x="3615.5" y="-35.7" font-family="Helvetica,sans-Serif" font-size="14.00">squared_error = 14.42</text>
<text text-anchor="start" x="3641.75" y="-20.7" font-family="Helvetica,sans-Serif" font-size="14.00">samples = 11</text>
<text text-anchor="start" x="3638" y="-5.7" font-family="Helvetica,sans-Serif" font-size="14.00">value = 44.936</text>
</g>
<!-- 47&#45;&gt;49 -->
<g id="edge49" class="edge">
<title>47&#45;&gt;49</title>
<path fill="none" stroke="black" d="M3626.95,-88.68C3635.02,-79.81 3643.74,-70.23 3651.84,-61.33"/>
<polygon fill="black" stroke="black" points="3653.92,-64.15 3658.06,-54.39 3648.74,-59.43 3653.92,-64.15"/>
</g>
<!-- 51 -->
<g id="node52" class="node">
<title>51</title>
<path fill="#edaa79" stroke="black" d="M3913.75,-53C3913.75,-53 3787.5,-53 3787.5,-53 3781.5,-53 3775.5,-47 3775.5,-41 3775.5,-41 3775.5,-12 3775.5,-12 3775.5,-6 3781.5,0 3787.5,0 3787.5,0 3913.75,0 3913.75,0 3919.75,0 3925.75,-6 3925.75,-12 3925.75,-12 3925.75,-41 3925.75,-41 3925.75,-47 3919.75,-53 3913.75,-53"/>
<text text-anchor="start" x="3783.5" y="-35.7" font-family="Helvetica,sans-Serif" font-size="14.00">squared_error = 3.062</text>
<text text-anchor="start" x="3813.5" y="-20.7" font-family="Helvetica,sans-Serif" font-size="14.00">samples = 2</text>
<text text-anchor="start" x="3809.75" y="-5.7" font-family="Helvetica,sans-Serif" font-size="14.00">value = 36.95</text>
</g>
<!-- 50&#45;&gt;51 -->
<g id="edge51" class="edge">
<title>50&#45;&gt;51</title>
<path fill="none" stroke="black" d="M3850.62,-88.68C3850.62,-80.81 3850.62,-72.37 3850.62,-64.35"/>
<polygon fill="black" stroke="black" points="3854.13,-64.39 3850.62,-54.39 3847.13,-64.39 3854.13,-64.39"/>
</g>
<!-- 52 -->
<g id="node53" class="node">
<title>52</title>
<path fill="#ea975c" stroke="black" d="M4071.5,-53C4071.5,-53 3955.75,-53 3955.75,-53 3949.75,-53 3943.75,-47 3943.75,-41 3943.75,-41 3943.75,-12 3943.75,-12 3943.75,-6 3949.75,0 3955.75,0 3955.75,0 4071.5,0 4071.5,0 4077.5,0 4083.5,-6 4083.5,-12 4083.5,-12 4083.5,-41 4083.5,-41 4083.5,-47 4077.5,-53 4071.5,-53"/>
<text text-anchor="start" x="3951.75" y="-35.7" font-family="Helvetica,sans-Serif" font-size="14.00">squared_error = &#45;0.0</text>
<text text-anchor="start" x="3976.5" y="-20.7" font-family="Helvetica,sans-Serif" font-size="14.00">samples = 1</text>
<text text-anchor="start" x="3976.5" y="-5.7" font-family="Helvetica,sans-Serif" font-size="14.00">value = 42.8</text>
</g>
<!-- 50&#45;&gt;52 -->
<g id="edge52" class="edge">
<title>50&#45;&gt;52</title>
<path fill="none" stroke="black" d="M3908.09,-88.68C3924.8,-79 3942.98,-68.46 3959.47,-58.9"/>
<polygon fill="black" stroke="black" points="3961.07,-61.44 3967.96,-53.39 3957.55,-55.38 3961.07,-61.44"/>
</g>
</g>
</svg>