<?xml version="1.0" encoding="UTF-8" standalone="no"?>
<!DOCTYPE svg PUBLIC "-//W3C//DTD SVG 1.1//EN"
 "http://www.w3.org/Graphics/SVG/1.1/DTD/svg11.dtd">
<!-- Generated by graphviz version 8.1.0 (20230707.0739)
 -->
<!-- Title: Tree Pages: 1 -->
<svg width="3600pt" height="581pt"
 viewBox="0.00 0.00 3599.50 581.00" xmlns="http://www.w3.org/2000/svg" xmlns:xlink="http://www.w3.org/1999/xlink">
<g id="graph0" class="graph" transform="scale(1 1) rotate(0) translate(4 577)">
<title>Tree</title>
<polygon fill="white" stroke="none" points="-4,4 -4,-577 3595.5,-577 3595.5,4 -4,4"/>
<!-- 0 -->
<g id="node1" class="node">
<title>0</title>
<path fill="#f7d6bf" stroke="black" d="M2075.5,-573C2075.5,-573 1941.75,-573 1941.75,-573 1935.75,-573 1929.75,-567 1929.75,-561 1929.75,-561 1929.75,-517 1929.75,-517 1929.75,-511 1935.75,-505 1941.75,-505 1941.75,-505 2075.5,-505 2075.5,-505 2081.5,-505 2087.5,-511 2087.5,-517 2087.5,-517 2087.5,-561 2087.5,-561 2087.5,-567 2081.5,-573 2075.5,-573"/>
<text text-anchor="start" x="1976" y="-555.7" font-family="Helvetica,sans-Serif" font-size="14.00">rm ≤ 6.941</text>
<text text-anchor="start" x="1937.75" y="-540.7" font-family="Helvetica,sans-Serif" font-size="14.00">squared_error = 87.645</text>
<text text-anchor="start" x="1964" y="-525.7" font-family="Helvetica,sans-Serif" font-size="14.00">samples = 404</text>
<text text-anchor="start" x="1964" y="-510.7" font-family="Helvetica,sans-Serif" font-size="14.00">value = 22.575</text>
</g>
<!-- 1 -->
<g id="node2" class="node">
<title>1</title>
<path fill="#f8dfcc" stroke="black" d="M1504.5,-469C1504.5,-469 1370.75,-469 1370.75,-469 1364.75,-469 1358.75,-463 1358.75,-457 1358.75,-457 1358.75,-413 1358.75,-413 1358.75,-407 1364.75,-401 1370.75,-401 1370.75,-401 1504.5,-401 1504.5,-401 1510.5,-401 1516.5,-407 1516.5,-413 1516.5,-413 1516.5,-457 1516.5,-457 1516.5,-463 1510.5,-469 1504.5,-469"/>
<text text-anchor="start" x="1400.88" y="-451.7" font-family="Helvetica,sans-Serif" font-size="14.00">lstat ≤ 14.35</text>
<text text-anchor="start" x="1366.75" y="-436.7" font-family="Helvetica,sans-Serif" font-size="14.00">squared_error = 42.012</text>
<text text-anchor="start" x="1393" y="-421.7" font-family="Helvetica,sans-Serif" font-size="14.00">samples = 342</text>
<text text-anchor="start" x="1393" y="-406.7" font-family="Helvetica,sans-Serif" font-size="14.00">value = 19.878</text>
</g>
<!-- 0&#45;&gt;1 -->
<g id="edge1" class="edge">
<title>0&#45;&gt;1</title>
<path fill="none" stroke="black" d="M1929.53,-523.87C1824.19,-505.05 1638.31,-471.85 1527.69,-452.09"/>
<polygon fill="black" stroke="black" points="1528.36,-448.47 1517.9,-450.16 1527.12,-455.36 1528.36,-448.47"/>
<text text-anchor="middle" x="1531.19" y="-464.87" font-family="Helvetica,sans-Serif" font-size="14.00">True</text>
</g>
<!-- 28 -->
<g id="node29" class="node">
<title>28</title>
<path fill="#eda876" stroke="black" d="M2688.5,-469C2688.5,-469 2554.75,-469 2554.75,-469 2548.75,-469 2542.75,-463 2542.75,-457 2542.75,-457 2542.75,-413 2542.75,-413 2542.75,-407 2548.75,-401 2554.75,-401 2554.75,-401 2688.5,-401 2688.5,-401 2694.5,-401 2700.5,-407 2700.5,-413 2700.5,-413 2700.5,-457 2700.5,-457 2700.5,-463 2694.5,-469 2688.5,-469"/>
<text text-anchor="start" x="2589" y="-451.7" font-family="Helvetica,sans-Serif" font-size="14.00">rm ≤ 7.437</text>
<text text-anchor="start" x="2550.75" y="-436.7" font-family="Helvetica,sans-Serif" font-size="14.00">squared_error = 77.828</text>
<text text-anchor="start" x="2580.75" y="-421.7" font-family="Helvetica,sans-Serif" font-size="14.00">samples = 62</text>
<text text-anchor="start" x="2577" y="-406.7" font-family="Helvetica,sans-Serif" font-size="14.00">value = 37.455</text>
</g>
<!-- 0&#45;&gt;28 -->
<g id="edge28" class="edge">
<title>0&#45;&gt;28</title>
<path fill="none" stroke="black" d="M2087.82,-524.82C2202.02,-505.82 2412.35,-470.82 2532.06,-450.9"/>
<polygon fill="black" stroke="black" points="2532.36,-454.24 2541.65,-449.14 2531.21,-447.33 2532.36,-454.24"/>
<text text-anchor="middle" x="2528.11" y="-463.68" font-family="Helvetica,sans-Serif" font-size="14.00">False</text>
</g>
<!-- 2 -->
<g id="node3" class="node">
<title>2</title>
<path fill="#f6d3bb" stroke="black" d="M539.75,-365C539.75,-365 413.5,-365 413.5,-365 407.5,-365 401.5,-359 401.5,-353 401.5,-353 401.5,-309 401.5,-309 401.5,-303 407.5,-297 413.5,-297 413.5,-297 539.75,-297 539.75,-297 545.75,-297 551.75,-303 551.75,-309 551.75,-309 551.75,-353 551.75,-353 551.75,-359 545.75,-365 539.75,-365"/>
<text text-anchor="start" x="443.62" y="-347.7" font-family="Helvetica,sans-Serif" font-size="14.00">dis ≤ 1.422</text>
<text text-anchor="start" x="409.5" y="-332.7" font-family="Helvetica,sans-Serif" font-size="14.00">squared_error = 25.91</text>
<text text-anchor="start" x="432" y="-317.7" font-family="Helvetica,sans-Serif" font-size="14.00">samples = 197</text>
<text text-anchor="start" x="432" y="-302.7" font-family="Helvetica,sans-Serif" font-size="14.00">value = 23.521</text>
</g>
<!-- 1&#45;&gt;2 -->
<g id="edge2" class="edge">
<title>1&#45;&gt;2</title>
<path fill="none" stroke="black" d="M1358.57,-425.61C1180.18,-406.67 747.52,-360.75 562.67,-341.13"/>
<polygon fill="black" stroke="black" points="563.24,-337.57 552.93,-339.99 562.5,-344.53 563.24,-337.57"/>
</g>
<!-- 13 -->
<g id="node14" class="node">
<title>13</title>
<path fill="#fceee5" stroke="black" d="M1504.5,-365C1504.5,-365 1370.75,-365 1370.75,-365 1364.75,-365 1358.75,-359 1358.75,-353 1358.75,-353 1358.75,-309 1358.75,-309 1358.75,-303 1364.75,-297 1370.75,-297 1370.75,-297 1504.5,-297 1504.5,-297 1510.5,-297 1516.5,-303 1516.5,-309 1516.5,-309 1516.5,-353 1516.5,-353 1516.5,-359 1510.5,-365 1504.5,-365"/>
<text text-anchor="start" x="1402.38" y="-347.7" font-family="Helvetica,sans-Serif" font-size="14.00">nox ≤ 0.607</text>
<text text-anchor="start" x="1366.75" y="-332.7" font-family="Helvetica,sans-Serif" font-size="14.00">squared_error = 21.367</text>
<text text-anchor="start" x="1393" y="-317.7" font-family="Helvetica,sans-Serif" font-size="14.00">samples = 145</text>
<text text-anchor="start" x="1393" y="-302.7" font-family="Helvetica,sans-Serif" font-size="14.00">value = 14.929</text>
</g>
<!-- 1&#45;&gt;13 -->
<g id="edge13" class="edge">
<title>1&#45;&gt;13</title>
<path fill="none" stroke="black" d="M1437.62,-400.6C1437.62,-392.85 1437.62,-384.49 1437.62,-376.35"/>
<polygon fill="black" stroke="black" points="1441.13,-376.47 1437.62,-366.47 1434.13,-376.47 1441.13,-376.47"/>
</g>
<!-- 3 -->
<g id="node4" class="node">
<title>3</title>
<path fill="#e99254" stroke="black" d="M290.5,-261C290.5,-261 156.75,-261 156.75,-261 150.75,-261 144.75,-255 144.75,-249 144.75,-249 144.75,-205 144.75,-205 144.75,-199 150.75,-193 156.75,-193 156.75,-193 290.5,-193 290.5,-193 296.5,-193 302.5,-199 302.5,-205 302.5,-205 302.5,-249 302.5,-249 302.5,-255 296.5,-261 290.5,-261"/>
<text text-anchor="start" x="186.88" y="-243.7" font-family="Helvetica,sans-Serif" font-size="14.00">lstat ≤ 10.83</text>
<text text-anchor="start" x="152.75" y="-228.7" font-family="Helvetica,sans-Serif" font-size="14.00">squared_error = 91.577</text>
<text text-anchor="start" x="186.5" y="-213.7" font-family="Helvetica,sans-Serif" font-size="14.00">samples = 4</text>
<text text-anchor="start" x="179" y="-198.7" font-family="Helvetica,sans-Serif" font-size="14.00">value = 44.475</text>
</g>
<!-- 2&#45;&gt;3 -->
<g id="edge3" class="edge">
<title>2&#45;&gt;3</title>
<path fill="none" stroke="black" d="M401.06,-299.53C373.32,-288.35 341.65,-275.58 312.82,-263.96"/>
<polygon fill="black" stroke="black" points="314.34,-260.39 303.75,-259.9 311.72,-266.89 314.34,-260.39"/>
</g>
<!-- 6 -->
<g id="node7" class="node">
<title>6</title>
<path fill="#f6d5bd" stroke="black" d="M539.75,-261C539.75,-261 413.5,-261 413.5,-261 407.5,-261 401.5,-255 401.5,-249 401.5,-249 401.5,-205 401.5,-205 401.5,-199 407.5,-193 413.5,-193 413.5,-193 539.75,-193 539.75,-193 545.75,-193 551.75,-199 551.75,-205 551.75,-205 551.75,-249 551.75,-249 551.75,-255 545.75,-261 539.75,-261"/>
<text text-anchor="start" x="447.75" y="-243.7" font-family="Helvetica,sans-Serif" font-size="14.00">rm ≤ 6.53</text>
<text text-anchor="start" x="409.5" y="-228.7" font-family="Helvetica,sans-Serif" font-size="14.00">squared_error = 15.26</text>
<text text-anchor="start" x="432" y="-213.7" font-family="Helvetica,sans-Serif" font-size="14.00">samples = 193</text>
<text text-anchor="start" x="432" y="-198.7" font-family="Helvetica,sans-Serif" font-size="14.00">value = 23.087</text>
</g>
<!-- 2&#45;&gt;6 -->
<g id="edge6" class="edge">
<title>2&#45;&gt;6</title>
<path fill="none" stroke="black" d="M476.62,-296.6C476.62,-288.85 476.62,-280.49 476.62,-272.35"/>
<polygon fill="black" stroke="black" points="480.13,-272.47 476.62,-262.47 473.13,-272.47 480.13,-272.47"/>
</g>
<!-- 4 -->
<g id="node5" class="node">
<title>4</title>
<path fill="#e58139" stroke="black" d="M123.25,-149.5C123.25,-149.5 12,-149.5 12,-149.5 6,-149.5 0,-143.5 0,-137.5 0,-137.5 0,-108.5 0,-108.5 0,-102.5 6,-96.5 12,-96.5 12,-96.5 123.25,-96.5 123.25,-96.5 129.25,-96.5 135.25,-102.5 135.25,-108.5 135.25,-108.5 135.25,-137.5 135.25,-137.5 135.25,-143.5 129.25,-149.5 123.25,-149.5"/>
<text text-anchor="start" x="8" y="-132.2" font-family="Helvetica,sans-Serif" font-size="14.00">squared_error = 0.0</text>
<text text-anchor="start" x="30.5" y="-117.2" font-family="Helvetica,sans-Serif" font-size="14.00">samples = 3</text>
<text text-anchor="start" x="30.5" y="-102.2" font-family="Helvetica,sans-Serif" font-size="14.00">value = 50.0</text>
</g>
<!-- 3&#45;&gt;4 -->
<g id="edge4" class="edge">
<title>3&#45;&gt;4</title>
<path fill="none" stroke="black" d="M172.54,-192.6C154.46,-180.78 134.17,-167.51 116.29,-155.82"/>
<polygon fill="black" stroke="black" points="118.47,-152.41 108.19,-149.87 114.64,-158.27 118.47,-152.41"/>
</g>
<!-- 5 -->
<g id="node6" class="node">
<title>5</title>
<path fill="#f3c6a5" stroke="black" d="M281.5,-149.5C281.5,-149.5 165.75,-149.5 165.75,-149.5 159.75,-149.5 153.75,-143.5 153.75,-137.5 153.75,-137.5 153.75,-108.5 153.75,-108.5 153.75,-102.5 159.75,-96.5 165.75,-96.5 165.75,-96.5 281.5,-96.5 281.5,-96.5 287.5,-96.5 293.5,-102.5 293.5,-108.5 293.5,-108.5 293.5,-137.5 293.5,-137.5 293.5,-143.5 287.5,-149.5 281.5,-149.5"/>
<text text-anchor="start" x="161.75" y="-132.2" font-family="Helvetica,sans-Serif" font-size="14.00">squared_error = &#45;0.0</text>
<text text-anchor="start" x="186.5" y="-117.2" font-family="Helvetica,sans-Serif" font-size="14.00">samples = 1</text>
<text text-anchor="start" x="186.5" y="-102.2" font-family="Helvetica,sans-Serif" font-size="14.00">value = 27.9</text>
</g>
<!-- 3&#45;&gt;5 -->
<g id="edge5" class="edge">
<title>3&#45;&gt;5</title>
<path fill="none" stroke="black" d="M223.62,-192.6C223.62,-182.36 223.62,-171.04 223.62,-160.6"/>
<polygon fill="black" stroke="black" points="227.13,-160.71 223.62,-150.71 220.13,-160.71 227.13,-160.71"/>
</g>
<!-- 7 -->
<g id="node8" class="node">
<title>7</title>
<path fill="#f7d9c3" stroke="black" d="M449.75,-157C449.75,-157 323.5,-157 323.5,-157 317.5,-157 311.5,-151 311.5,-145 311.5,-145 311.5,-101 311.5,-101 311.5,-95 317.5,-89 323.5,-89 323.5,-89 449.75,-89 449.75,-89 455.75,-89 461.75,-95 461.75,-101 461.75,-101 461.75,-145 461.75,-145 461.75,-151 455.75,-157 449.75,-157"/>
<text text-anchor="start" x="353.62" y="-139.7" font-family="Helvetica,sans-Serif" font-size="14.00">lstat ≤ 7.81</text>
<text text-anchor="start" x="319.5" y="-124.7" font-family="Helvetica,sans-Serif" font-size="14.00">squared_error = 8.262</text>
<text text-anchor="start" x="342" y="-109.7" font-family="Helvetica,sans-Serif" font-size="14.00">samples = 147</text>
<text text-anchor="start" x="342" y="-94.7" font-family="Helvetica,sans-Serif" font-size="14.00">value = 21.721</text>
</g>
<!-- 6&#45;&gt;7 -->
<g id="edge7" class="edge">
<title>6&#45;&gt;7</title>
<path fill="none" stroke="black" d="M447.16,-192.6C439.54,-183.97 431.25,-174.58 423.32,-165.58"/>
<polygon fill="black" stroke="black" points="426.4,-163.66 417.16,-158.47 421.15,-168.29 426.4,-163.66"/>
</g>
<!-- 10 -->
<g id="node11" class="node">
<title>10</title>
<path fill="#f3c7a7" stroke="black" d="M625.5,-157C625.5,-157 491.75,-157 491.75,-157 485.75,-157 479.75,-151 479.75,-145 479.75,-145 479.75,-101 479.75,-101 479.75,-95 485.75,-89 491.75,-89 491.75,-89 625.5,-89 625.5,-89 631.5,-89 637.5,-95 637.5,-101 637.5,-101 637.5,-145 637.5,-145 637.5,-151 631.5,-157 625.5,-157"/>
<text text-anchor="start" x="521.88" y="-139.7" font-family="Helvetica,sans-Serif" font-size="14.00">lstat ≤ 5.785</text>
<text text-anchor="start" x="487.75" y="-124.7" font-family="Helvetica,sans-Serif" font-size="14.00">squared_error = 12.626</text>
<text text-anchor="start" x="517.75" y="-109.7" font-family="Helvetica,sans-Serif" font-size="14.00">samples = 46</text>
<text text-anchor="start" x="517.75" y="-94.7" font-family="Helvetica,sans-Serif" font-size="14.00">value = 27.45</text>
</g>
<!-- 6&#45;&gt;10 -->
<g id="edge10" class="edge">
<title>6&#45;&gt;10</title>
<path fill="none" stroke="black" d="M503.47,-192.6C510.34,-184.06 517.81,-174.77 524.97,-165.86"/>
<polygon fill="black" stroke="black" points="528.18,-168.46 531.71,-158.47 522.72,-164.07 528.18,-168.46"/>
</g>
<!-- 8 -->
<g id="node9" class="node">
<title>8</title>
<path fill="#f6d2b9" stroke="black" d="M281.75,-53C281.75,-53 155.5,-53 155.5,-53 149.5,-53 143.5,-47 143.5,-41 143.5,-41 143.5,-12 143.5,-12 143.5,-6 149.5,0 155.5,0 155.5,0 281.75,0 281.75,0 287.75,0 293.75,-6 293.75,-12 293.75,-12 293.75,-41 293.75,-41 293.75,-47 287.75,-53 281.75,-53"/>
<text text-anchor="start" x="151.5" y="-35.7" font-family="Helvetica,sans-Serif" font-size="14.00">squared_error = 2.885</text>
<text text-anchor="start" x="177.75" y="-20.7" font-family="Helvetica,sans-Serif" font-size="14.00">samples = 34</text>
<text text-anchor="start" x="174" y="-5.7" font-family="Helvetica,sans-Serif" font-size="14.00">value = 23.882</text>
</g>
<!-- 7&#45;&gt;8 -->
<g id="edge8" class="edge">
<title>7&#45;&gt;8</title>
<path fill="none" stroke="black" d="M327.39,-88.68C310.02,-78.91 291.09,-68.26 273.96,-58.63"/>
<polygon fill="black" stroke="black" points="276.09,-55.25 265.66,-53.39 272.66,-61.35 276.09,-55.25"/>
</g>
<!-- 9 -->
<g id="node10" class="node">
<title>9</title>
<path fill="#f8dbc7" stroke="black" d="M449.75,-53C449.75,-53 323.5,-53 323.5,-53 317.5,-53 311.5,-47 311.5,-41 311.5,-41 311.5,-12 311.5,-12 311.5,-6 317.5,0 323.5,0 323.5,0 449.75,0 449.75,0 455.75,0 461.75,-6 461.75,-12 461.75,-12 461.75,-41 461.75,-41 461.75,-47 455.75,-53 449.75,-53"/>
<text text-anchor="start" x="319.5" y="-35.7" font-family="Helvetica,sans-Serif" font-size="14.00">squared_error = 8.051</text>
<text text-anchor="start" x="342" y="-20.7" font-family="Helvetica,sans-Serif" font-size="14.00">samples = 113</text>
<text text-anchor="start" x="342" y="-5.7" font-family="Helvetica,sans-Serif" font-size="14.00">value = 21.071</text>
</g>
<!-- 7&#45;&gt;9 -->
<g id="edge9" class="edge">
<title>7&#45;&gt;9</title>
<path fill="none" stroke="black" d="M386.62,-88.68C386.62,-80.81 386.62,-72.37 386.62,-64.35"/>
<polygon fill="black" stroke="black" points="390.13,-64.39 386.62,-54.39 383.13,-64.39 390.13,-64.39"/>
</g>
<!-- 11 -->
<g id="node12" class="node">
<title>11</title>
<path fill="#f2c09b" stroke="black" d="M617.75,-53C617.75,-53 491.5,-53 491.5,-53 485.5,-53 479.5,-47 479.5,-41 479.5,-41 479.5,-12 479.5,-12 479.5,-6 485.5,0 491.5,0 491.5,0 617.75,0 617.75,0 623.75,0 629.75,-6 629.75,-12 629.75,-12 629.75,-41 629.75,-41 629.75,-47 623.75,-53 617.75,-53"/>
<text text-anchor="start" x="487.5" y="-35.7" font-family="Helvetica,sans-Serif" font-size="14.00">squared_error = 8.898</text>
<text text-anchor="start" x="513.75" y="-20.7" font-family="Helvetica,sans-Serif" font-size="14.00">samples = 18</text>
<text text-anchor="start" x="510" y="-5.7" font-family="Helvetica,sans-Serif" font-size="14.00">value = 29.922</text>
</g>
<!-- 10&#45;&gt;11 -->
<g id="edge11" class="edge">
<title>10&#45;&gt;11</title>
<path fill="none" stroke="black" d="M557.21,-88.68C556.88,-80.81 556.52,-72.37 556.18,-64.35"/>
<polygon fill="black" stroke="black" points="559.64,-64.24 555.72,-54.39 552.65,-64.53 559.64,-64.24"/>
</g>
<!-- 12 -->
<g id="node13" class="node">
<title>12</title>
<path fill="#f5ccaf" stroke="black" d="M785.75,-53C785.75,-53 659.5,-53 659.5,-53 653.5,-53 647.5,-47 647.5,-41 647.5,-41 647.5,-12 647.5,-12 647.5,-6 653.5,0 659.5,0 659.5,0 785.75,0 785.75,0 791.75,0 797.75,-6 797.75,-12 797.75,-12 797.75,-41 797.75,-41 797.75,-47 791.75,-53 785.75,-53"/>
<text text-anchor="start" x="655.5" y="-35.7" font-family="Helvetica,sans-Serif" font-size="14.00">squared_error = 8.567</text>
<text text-anchor="start" x="681.75" y="-20.7" font-family="Helvetica,sans-Serif" font-size="14.00">samples = 28</text>
<text text-anchor="start" x="678" y="-5.7" font-family="Helvetica,sans-Serif" font-size="14.00">value = 25.861</text>
</g>
<!-- 10&#45;&gt;12 -->
<g id="edge12" class="edge">
<title>10&#45;&gt;12</title>
<path fill="none" stroke="black" d="M616.45,-88.68C633.41,-78.91 651.89,-68.26 668.6,-58.63"/>
<polygon fill="black" stroke="black" points="669.77,-61.42 676.69,-53.39 666.28,-55.35 669.77,-61.42"/>
</g>
<!-- 14 -->
<g id="node15" class="node">
<title>14</title>
<path fill="#f9e4d4" stroke="black" d="M1377.5,-261C1377.5,-261 1243.75,-261 1243.75,-261 1237.75,-261 1231.75,-255 1231.75,-249 1231.75,-249 1231.75,-205 1231.75,-205 1231.75,-199 1237.75,-193 1243.75,-193 1243.75,-193 1377.5,-193 1377.5,-193 1383.5,-193 1389.5,-199 1389.5,-205 1389.5,-205 1389.5,-249 1389.5,-249 1389.5,-255 1383.5,-261 1377.5,-261"/>
<text text-anchor="start" x="1273.12" y="-243.7" font-family="Helvetica,sans-Serif" font-size="14.00">crim ≤ 0.593</text>
<text text-anchor="start" x="1239.75" y="-228.7" font-family="Helvetica,sans-Serif" font-size="14.00">squared_error = 13.371</text>
<text text-anchor="start" x="1269.75" y="-213.7" font-family="Helvetica,sans-Serif" font-size="14.00">samples = 58</text>
<text text-anchor="start" x="1266" y="-198.7" font-family="Helvetica,sans-Serif" font-size="14.00">value = 18.272</text>
</g>
<!-- 13&#45;&gt;14 -->
<g id="edge14" class="edge">
<title>13&#45;&gt;14</title>
<path fill="none" stroke="black" d="M1396.04,-296.6C1384.75,-287.53 1372.4,-277.61 1360.69,-268.21"/>
<polygon fill="black" stroke="black" points="1363.29,-265.01 1353.3,-261.47 1358.91,-270.46 1363.29,-265.01"/>
</g>
<!-- 21 -->
<g id="node22" class="node">
<title>21</title>
<path fill="#fdf5f0" stroke="black" d="M1710.5,-261C1710.5,-261 1576.75,-261 1576.75,-261 1570.75,-261 1564.75,-255 1564.75,-249 1564.75,-249 1564.75,-205 1564.75,-205 1564.75,-199 1570.75,-193 1576.75,-193 1576.75,-193 1710.5,-193 1710.5,-193 1716.5,-193 1722.5,-199 1722.5,-205 1722.5,-205 1722.5,-249 1722.5,-249 1722.5,-255 1716.5,-261 1710.5,-261"/>
<text text-anchor="start" x="1606.88" y="-243.7" font-family="Helvetica,sans-Serif" font-size="14.00">lstat ≤ 18.93</text>
<text text-anchor="start" x="1572.75" y="-228.7" font-family="Helvetica,sans-Serif" font-size="14.00">squared_error = 14.278</text>
<text text-anchor="start" x="1602.75" y="-213.7" font-family="Helvetica,sans-Serif" font-size="14.00">samples = 87</text>
<text text-anchor="start" x="1606.5" y="-198.7" font-family="Helvetica,sans-Serif" font-size="14.00">value = 12.7</text>
</g>
<!-- 13&#45;&gt;21 -->
<g id="edge21" class="edge">
<title>13&#45;&gt;21</title>
<path fill="none" stroke="black" d="M1505.08,-296.6C1524.64,-286.91 1546.15,-276.26 1566.27,-266.3"/>
<polygon fill="black" stroke="black" points="1567.61,-269.05 1575.02,-261.47 1564.51,-262.77 1567.61,-269.05"/>
</g>
<!-- 15 -->
<g id="node16" class="node">
<title>15</title>
<path fill="#f8dfcd" stroke="black" d="M1121.75,-157C1121.75,-157 995.5,-157 995.5,-157 989.5,-157 983.5,-151 983.5,-145 983.5,-145 983.5,-101 983.5,-101 983.5,-95 989.5,-89 995.5,-89 995.5,-89 1121.75,-89 1121.75,-89 1127.75,-89 1133.75,-95 1133.75,-101 1133.75,-101 1133.75,-145 1133.75,-145 1133.75,-151 1127.75,-157 1121.75,-157"/>
<text text-anchor="start" x="1023" y="-139.7" font-family="Helvetica,sans-Serif" font-size="14.00">age ≤ 64.65</text>
<text text-anchor="start" x="991.5" y="-124.7" font-family="Helvetica,sans-Serif" font-size="14.00">squared_error = 7.747</text>
<text text-anchor="start" x="1017.75" y="-109.7" font-family="Helvetica,sans-Serif" font-size="14.00">samples = 35</text>
<text text-anchor="start" x="1014" y="-94.7" font-family="Helvetica,sans-Serif" font-size="14.00">value = 19.791</text>
</g>
<!-- 14&#45;&gt;15 -->
<g id="edge15" class="edge">
<title>14&#45;&gt;15</title>
<path fill="none" stroke="black" d="M1231.58,-194.01C1203.69,-182.72 1172.22,-169.98 1143.84,-158.49"/>
<polygon fill="black" stroke="black" points="1145.53,-154.99 1134.95,-154.49 1142.9,-161.48 1145.53,-154.99"/>
</g>
<!-- 18 -->
<g id="node19" class="node">
<title>18</title>
<path fill="#fbebe0" stroke="black" d="M1377.5,-157C1377.5,-157 1243.75,-157 1243.75,-157 1237.75,-157 1231.75,-151 1231.75,-145 1231.75,-145 1231.75,-101 1231.75,-101 1231.75,-95 1237.75,-89 1243.75,-89 1243.75,-89 1377.5,-89 1377.5,-89 1383.5,-89 1389.5,-95 1389.5,-101 1389.5,-101 1389.5,-145 1389.5,-145 1389.5,-151 1383.5,-157 1377.5,-157"/>
<text text-anchor="start" x="1278" y="-139.7" font-family="Helvetica,sans-Serif" font-size="14.00">rm ≤ 6.843</text>
<text text-anchor="start" x="1239.75" y="-124.7" font-family="Helvetica,sans-Serif" font-size="14.00">squared_error = 13.075</text>
<text text-anchor="start" x="1269.75" y="-109.7" font-family="Helvetica,sans-Serif" font-size="14.00">samples = 23</text>
<text text-anchor="start" x="1266" y="-94.7" font-family="Helvetica,sans-Serif" font-size="14.00">value = 15.961</text>
</g>
<!-- 14&#45;&gt;18 -->
<g id="edge18" class="edge">
<title>14&#45;&gt;18</title>
<path fill="none" stroke="black" d="M1310.62,-192.6C1310.62,-184.85 1310.62,-176.49 1310.62,-168.35"/>
<polygon fill="black" stroke="black" points="1314.13,-168.47 1310.62,-158.47 1307.13,-168.47 1314.13,-168.47"/>
</g>
<!-- 16 -->
<g id="node17" class="node">
<title>16</title>
<path fill="#f7d8c2" stroke="black" d="M953.75,-53C953.75,-53 827.5,-53 827.5,-53 821.5,-53 815.5,-47 815.5,-41 815.5,-41 815.5,-12 815.5,-12 815.5,-6 821.5,0 827.5,0 827.5,0 953.75,0 953.75,0 959.75,0 965.75,-6 965.75,-12 965.75,-12 965.75,-41 965.75,-41 965.75,-47 959.75,-53 953.75,-53"/>
<text text-anchor="start" x="823.5" y="-35.7" font-family="Helvetica,sans-Serif" font-size="14.00">squared_error = 3.225</text>
<text text-anchor="start" x="853.5" y="-20.7" font-family="Helvetica,sans-Serif" font-size="14.00">samples = 7</text>
<text text-anchor="start" x="846" y="-5.7" font-family="Helvetica,sans-Serif" font-size="14.00">value = 22.071</text>
</g>
<!-- 15&#45;&gt;16 -->
<g id="edge16" class="edge">
<title>15&#45;&gt;16</title>
<path fill="none" stroke="black" d="M999.39,-88.68C982.02,-78.91 963.09,-68.26 945.96,-58.63"/>
<polygon fill="black" stroke="black" points="948.09,-55.25 937.66,-53.39 944.66,-61.35 948.09,-55.25"/>
</g>
<!-- 17 -->
<g id="node18" class="node">
<title>17</title>
<path fill="#f9e1d0" stroke="black" d="M1121.75,-53C1121.75,-53 995.5,-53 995.5,-53 989.5,-53 983.5,-47 983.5,-41 983.5,-41 983.5,-12 983.5,-12 983.5,-6 989.5,0 995.5,0 995.5,0 1121.75,0 1121.75,0 1127.75,0 1133.75,-6 1133.75,-12 1133.75,-12 1133.75,-41 1133.75,-41 1133.75,-47 1127.75,-53 1121.75,-53"/>
<text text-anchor="start" x="991.5" y="-35.7" font-family="Helvetica,sans-Serif" font-size="14.00">squared_error = 7.253</text>
<text text-anchor="start" x="1017.75" y="-20.7" font-family="Helvetica,sans-Serif" font-size="14.00">samples = 28</text>
<text text-anchor="start" x="1014" y="-5.7" font-family="Helvetica,sans-Serif" font-size="14.00">value = 19.221</text>
</g>
<!-- 15&#45;&gt;17 -->
<g id="edge17" class="edge">
<title>15&#45;&gt;17</title>
<path fill="none" stroke="black" d="M1058.62,-88.68C1058.62,-80.81 1058.62,-72.37 1058.62,-64.35"/>
<polygon fill="black" stroke="black" points="1062.13,-64.39 1058.62,-54.39 1055.13,-64.39 1062.13,-64.39"/>
</g>
<!-- 19 -->
<g id="node20" class="node">
<title>19</title>
<path fill="#fbede2" stroke="black" d="M1289.75,-53C1289.75,-53 1163.5,-53 1163.5,-53 1157.5,-53 1151.5,-47 1151.5,-41 1151.5,-41 1151.5,-12 1151.5,-12 1151.5,-6 1157.5,0 1163.5,0 1163.5,0 1289.75,0 1289.75,0 1295.75,0 1301.75,-6 1301.75,-12 1301.75,-12 1301.75,-41 1301.75,-41 1301.75,-47 1295.75,-53 1289.75,-53"/>
<text text-anchor="start" x="1159.5" y="-35.7" font-family="Helvetica,sans-Serif" font-size="14.00">squared_error = 7.341</text>
<text text-anchor="start" x="1185.75" y="-20.7" font-family="Helvetica,sans-Serif" font-size="14.00">samples = 22</text>
<text text-anchor="start" x="1182" y="-5.7" font-family="Helvetica,sans-Serif" font-size="14.00">value = 15.436</text>
</g>
<!-- 18&#45;&gt;19 -->
<g id="edge19" class="edge">
<title>18&#45;&gt;19</title>
<path fill="none" stroke="black" d="M1281.01,-88.68C1273.21,-79.9 1264.78,-70.42 1256.94,-61.6"/>
<polygon fill="black" stroke="black" points="1259.9,-59.54 1250.64,-54.39 1254.67,-64.19 1259.9,-59.54"/>
</g>
<!-- 20 -->
<g id="node21" class="node">
<title>20</title>
<path fill="#f3c7a7" stroke="black" d="M1447.5,-53C1447.5,-53 1331.75,-53 1331.75,-53 1325.75,-53 1319.75,-47 1319.75,-41 1319.75,-41 1319.75,-12 1319.75,-12 1319.75,-6 1325.75,0 1331.75,0 1331.75,0 1447.5,0 1447.5,0 1453.5,0 1459.5,-6 1459.5,-12 1459.5,-12 1459.5,-41 1459.5,-41 1459.5,-47 1453.5,-53 1447.5,-53"/>
<text text-anchor="start" x="1327.75" y="-35.7" font-family="Helvetica,sans-Serif" font-size="14.00">squared_error = &#45;0.0</text>
<text text-anchor="start" x="1352.5" y="-20.7" font-family="Helvetica,sans-Serif" font-size="14.00">samples = 1</text>
<text text-anchor="start" x="1352.5" y="-5.7" font-family="Helvetica,sans-Serif" font-size="14.00">value = 27.5</text>
</g>
<!-- 18&#45;&gt;20 -->
<g id="edge20" class="edge">
<title>18&#45;&gt;20</title>
<path fill="none" stroke="black" d="M1338.48,-88.68C1345.82,-79.9 1353.74,-70.42 1361.12,-61.6"/>
<polygon fill="black" stroke="black" points="1364.25,-64.31 1367.98,-54.39 1358.88,-59.82 1364.25,-64.31"/>
</g>
<!-- 22 -->
<g id="node23" class="node">
<title>22</title>
<path fill="#fbece1" stroke="black" d="M1706.75,-157C1706.75,-157 1580.5,-157 1580.5,-157 1574.5,-157 1568.5,-151 1568.5,-145 1568.5,-145 1568.5,-101 1568.5,-101 1568.5,-95 1574.5,-89 1580.5,-89 1580.5,-89 1706.75,-89 1706.75,-89 1712.75,-89 1718.75,-95 1718.75,-101 1718.75,-101 1718.75,-145 1718.75,-145 1718.75,-151 1712.75,-157 1706.75,-157"/>
<text text-anchor="start" x="1602.38" y="-139.7" font-family="Helvetica,sans-Serif" font-size="14.00">crim ≤ 12.224</text>
<text text-anchor="start" x="1576.5" y="-124.7" font-family="Helvetica,sans-Serif" font-size="14.00">squared_error = 6.632</text>
<text text-anchor="start" x="1602.75" y="-109.7" font-family="Helvetica,sans-Serif" font-size="14.00">samples = 39</text>
<text text-anchor="start" x="1599" y="-94.7" font-family="Helvetica,sans-Serif" font-size="14.00">value = 15.613</text>
</g>
<!-- 21&#45;&gt;22 -->
<g id="edge22" class="edge">
<title>21&#45;&gt;22</title>
<path fill="none" stroke="black" d="M1643.62,-192.6C1643.62,-184.85 1643.62,-176.49 1643.62,-168.35"/>
<polygon fill="black" stroke="black" points="1647.13,-168.47 1643.62,-158.47 1640.13,-168.47 1647.13,-168.47"/>
</g>
<!-- 25 -->
<g id="node26" class="node">
<title>25</title>
<path fill="#fefdfb" stroke="black" d="M1951.75,-157C1951.75,-157 1825.5,-157 1825.5,-157 1819.5,-157 1813.5,-151 1813.5,-145 1813.5,-145 1813.5,-101 1813.5,-101 1813.5,-95 1819.5,-89 1825.5,-89 1825.5,-89 1951.75,-89 1951.75,-89 1957.75,-89 1963.75,-95 1963.75,-101 1963.75,-101 1963.75,-145 1963.75,-145 1963.75,-151 1957.75,-157 1951.75,-157"/>
<text text-anchor="start" x="1855.25" y="-139.7" font-family="Helvetica,sans-Serif" font-size="14.00">tax ≤ 551.5</text>
<text text-anchor="start" x="1821.5" y="-124.7" font-family="Helvetica,sans-Serif" font-size="14.00">squared_error = 7.995</text>
<text text-anchor="start" x="1847.75" y="-109.7" font-family="Helvetica,sans-Serif" font-size="14.00">samples = 48</text>
<text text-anchor="start" x="1844" y="-94.7" font-family="Helvetica,sans-Serif" font-size="14.00">value = 10.333</text>
</g>
<!-- 21&#45;&gt;25 -->
<g id="edge25" class="edge">
<title>21&#45;&gt;25</title>
<path fill="none" stroke="black" d="M1722.83,-193.02C1748.49,-182.34 1777.06,-170.45 1803.16,-159.58"/>
<polygon fill="black" stroke="black" points="1804.14,-162.55 1812.03,-155.47 1801.45,-156.09 1804.14,-162.55"/>
</g>
<!-- 23 -->
<g id="node24" class="node">
<title>23</title>
<path fill="#fbebdf" stroke="black" d="M1615.75,-53C1615.75,-53 1489.5,-53 1489.5,-53 1483.5,-53 1477.5,-47 1477.5,-41 1477.5,-41 1477.5,-12 1477.5,-12 1477.5,-6 1483.5,0 1489.5,0 1489.5,0 1615.75,0 1615.75,0 1621.75,0 1627.75,-6 1627.75,-12 1627.75,-12 1627.75,-41 1627.75,-41 1627.75,-47 1621.75,-53 1615.75,-53"/>
<text text-anchor="start" x="1485.5" y="-35.7" font-family="Helvetica,sans-Serif" font-size="14.00">squared_error = 4.791</text>
<text text-anchor="start" x="1511.75" y="-20.7" font-family="Helvetica,sans-Serif" font-size="14.00">samples = 35</text>
<text text-anchor="start" x="1508" y="-5.7" font-family="Helvetica,sans-Serif" font-size="14.00">value = 16.114</text>
</g>
<!-- 22&#45;&gt;23 -->
<g id="edge23" class="edge">
<title>22&#45;&gt;23</title>
<path fill="none" stroke="black" d="M1611.54,-88.68C1602.91,-79.72 1593.58,-70.03 1584.94,-61.06"/>
<polygon fill="black" stroke="black" points="1588.02,-59.17 1578.56,-54.39 1582.98,-64.02 1588.02,-59.17"/>
</g>
<!-- 24 -->
<g id="node25" class="node">
<title>24</title>
<path fill="#fefaf7" stroke="black" d="M1783.75,-53C1783.75,-53 1657.5,-53 1657.5,-53 1651.5,-53 1645.5,-47 1645.5,-41 1645.5,-41 1645.5,-12 1645.5,-12 1645.5,-6 1651.5,0 1657.5,0 1657.5,0 1783.75,0 1783.75,0 1789.75,0 1795.75,-6 1795.75,-12 1795.75,-12 1795.75,-41 1795.75,-41 1795.75,-47 1789.75,-53 1783.75,-53"/>
<text text-anchor="start" x="1653.5" y="-35.7" font-family="Helvetica,sans-Serif" font-size="14.00">squared_error = 1.287</text>
<text text-anchor="start" x="1683.5" y="-20.7" font-family="Helvetica,sans-Serif" font-size="14.00">samples = 4</text>
<text text-anchor="start" x="1676" y="-5.7" font-family="Helvetica,sans-Serif" font-size="14.00">value = 11.225</text>
</g>
<!-- 22&#45;&gt;24 -->
<g id="edge24" class="edge">
<title>22&#45;&gt;24</title>
<path fill="none" stroke="black" d="M1670.77,-88.68C1677.85,-79.99 1685.49,-70.62 1692.62,-61.87"/>
<polygon fill="black" stroke="black" points="1695.92,-64.36 1699.53,-54.39 1690.5,-59.94 1695.92,-64.36"/>
</g>
<!-- 26 -->
<g id="node27" class="node">
<title>26</title>
<path fill="#fcf0e8" stroke="black" d="M1951.75,-53C1951.75,-53 1825.5,-53 1825.5,-53 1819.5,-53 1813.5,-47 1813.5,-41 1813.5,-41 1813.5,-12 1813.5,-12 1813.5,-6 1819.5,0 1825.5,0 1825.5,0 1951.75,0 1951.75,0 1957.75,0 1963.75,-6 1963.75,-12 1963.75,-12 1963.75,-41 1963.75,-41 1963.75,-47 1957.75,-53 1951.75,-53"/>
<text text-anchor="start" x="1821.5" y="-35.7" font-family="Helvetica,sans-Serif" font-size="14.00">squared_error = 0.644</text>
<text text-anchor="start" x="1851.5" y="-20.7" font-family="Helvetica,sans-Serif" font-size="14.00">samples = 8</text>
<text text-anchor="start" x="1844" y="-5.7" font-family="Helvetica,sans-Serif" font-size="14.00">value = 14.312</text>
</g>
<!-- 25&#45;&gt;26 -->
<g id="edge26" class="edge">
<title>25&#45;&gt;26</title>
<path fill="none" stroke="black" d="M1888.62,-88.68C1888.62,-80.81 1888.62,-72.37 1888.62,-64.35"/>
<polygon fill="black" stroke="black" points="1892.13,-64.39 1888.62,-54.39 1885.13,-64.39 1892.13,-64.39"/>
</g>
<!-- 27 -->
<g id="node28" class="node">
<title>27</title>
<path fill="#ffffff" stroke="black" d="M2119.75,-53C2119.75,-53 1993.5,-53 1993.5,-53 1987.5,-53 1981.5,-47 1981.5,-41 1981.5,-41 1981.5,-12 1981.5,-12 1981.5,-6 1987.5,0 1993.5,0 1993.5,0 2119.75,0 2119.75,0 2125.75,0 2131.75,-6 2131.75,-12 2131.75,-12 2131.75,-41 2131.75,-41 2131.75,-47 2125.75,-53 2119.75,-53"/>
<text text-anchor="start" x="1989.5" y="-35.7" font-family="Helvetica,sans-Serif" font-size="14.00">squared_error = 5.665</text>
<text text-anchor="start" x="2015.75" y="-20.7" font-family="Helvetica,sans-Serif" font-size="14.00">samples = 40</text>
<text text-anchor="start" x="2015.75" y="-5.7" font-family="Helvetica,sans-Serif" font-size="14.00">value = 9.537</text>
</g>
<!-- 25&#45;&gt;27 -->
<g id="edge27" class="edge">
<title>25&#45;&gt;27</title>
<path fill="none" stroke="black" d="M1947.86,-88.68C1965.23,-78.91 1984.16,-68.26 2001.29,-58.63"/>
<polygon fill="black" stroke="black" points="2002.59,-61.35 2009.59,-53.39 1999.16,-55.25 2002.59,-61.35"/>
</g>
<!-- 29 -->
<g id="node30" class="node">
<title>29</title>
<path fill="#f0b88f" stroke="black" d="M2688.5,-365C2688.5,-365 2554.75,-365 2554.75,-365 2548.75,-365 2542.75,-359 2542.75,-353 2542.75,-353 2542.75,-309 2542.75,-309 2542.75,-303 2548.75,-297 2554.75,-297 2554.75,-297 2688.5,-297 2688.5,-297 2694.5,-297 2700.5,-303 2700.5,-309 2700.5,-309 2700.5,-353 2700.5,-353 2700.5,-359 2694.5,-365 2688.5,-365"/>
<text text-anchor="start" x="2581.12" y="-347.7" font-family="Helvetica,sans-Serif" font-size="14.00">lstat ≤ 15.765</text>
<text text-anchor="start" x="2550.75" y="-332.7" font-family="Helvetica,sans-Serif" font-size="14.00">squared_error = 41.594</text>
<text text-anchor="start" x="2580.75" y="-317.7" font-family="Helvetica,sans-Serif" font-size="14.00">samples = 37</text>
<text text-anchor="start" x="2577" y="-302.7" font-family="Helvetica,sans-Serif" font-size="14.00">value = 32.424</text>
</g>
<!-- 28&#45;&gt;29 -->
<g id="edge29" class="edge">
<title>28&#45;&gt;29</title>
<path fill="none" stroke="black" d="M2621.62,-400.6C2621.62,-392.85 2621.62,-384.49 2621.62,-376.35"/>
<polygon fill="black" stroke="black" points="2625.13,-376.47 2621.62,-366.47 2618.13,-376.47 2625.13,-376.47"/>
</g>
<!-- 40 -->
<g id="node41" class="node">
<title>40</title>
<path fill="#e89152" stroke="black" d="M3185.5,-365C3185.5,-365 3051.75,-365 3051.75,-365 3045.75,-365 3039.75,-359 3039.75,-353 3039.75,-353 3039.75,-309 3039.75,-309 3039.75,-303 3045.75,-297 3051.75,-297 3051.75,-297 3185.5,-297 3185.5,-297 3191.5,-297 3197.5,-303 3197.5,-309 3197.5,-309 3197.5,-353 3197.5,-353 3197.5,-359 3191.5,-365 3185.5,-365"/>
<text text-anchor="start" x="3079.25" y="-347.7" font-family="Helvetica,sans-Serif" font-size="14.00">ptratio ≤ 18.3</text>
<text text-anchor="start" x="3047.75" y="-332.7" font-family="Helvetica,sans-Serif" font-size="14.00">squared_error = 38.571</text>
<text text-anchor="start" x="3077.75" y="-317.7" font-family="Helvetica,sans-Serif" font-size="14.00">samples = 25</text>
<text text-anchor="start" x="3081.5" y="-302.7" font-family="Helvetica,sans-Serif" font-size="14.00">value = 44.9</text>
</g>
<!-- 28&#45;&gt;40 -->
<g id="edge40" class="edge">
<title>28&#45;&gt;40</title>
<path fill="none" stroke="black" d="M2700.93,-417.73C2790.38,-399.37 2935.55,-369.57 3029.03,-350.39"/>
<polygon fill="black" stroke="black" points="3029.51,-353.66 3038.61,-348.22 3028.11,-346.8 3029.51,-353.66"/>
</g>
<!-- 30 -->
<g id="node31" class="node">
<title>30</title>
<path fill="#f0b48a" stroke="black" d="M2602.5,-261C2602.5,-261 2468.75,-261 2468.75,-261 2462.75,-261 2456.75,-255 2456.75,-249 2456.75,-249 2456.75,-205 2456.75,-205 2456.75,-199 2462.75,-193 2468.75,-193 2468.75,-193 2602.5,-193 2602.5,-193 2608.5,-193 2614.5,-199 2614.5,-205 2614.5,-205 2614.5,-249 2614.5,-249 2614.5,-255 2608.5,-261 2602.5,-261"/>
<text text-anchor="start" x="2502.62" y="-243.7" font-family="Helvetica,sans-Serif" font-size="14.00">dis ≤ 1.886</text>
<text text-anchor="start" x="2464.75" y="-228.7" font-family="Helvetica,sans-Serif" font-size="14.00">squared_error = 22.904</text>
<text text-anchor="start" x="2494.75" y="-213.7" font-family="Helvetica,sans-Serif" font-size="14.00">samples = 35</text>
<text text-anchor="start" x="2491" y="-198.7" font-family="Helvetica,sans-Serif" font-size="14.00">value = 33.471</text>
</g>
<!-- 29&#45;&gt;30 -->
<g id="edge30" class="edge">
<title>29&#45;&gt;30</title>
<path fill="none" stroke="black" d="M2593.47,-296.6C2586.26,-288.06 2578.43,-278.77 2570.92,-269.86"/>
<polygon fill="black" stroke="black" points="2572.97,-267.86 2563.85,-262.47 2567.62,-272.37 2572.97,-267.86"/>
</g>
<!-- 37 -->
<g id="node38" class="node">
<title>37</title>
<path fill="#fcf1e9" stroke="black" d="M2770.75,-261C2770.75,-261 2644.5,-261 2644.5,-261 2638.5,-261 2632.5,-255 2632.5,-249 2632.5,-249 2632.5,-205 2632.5,-205 2632.5,-199 2638.5,-193 2644.5,-193 2644.5,-193 2770.75,-193 2770.75,-193 2776.75,-193 2782.75,-199 2782.75,-205 2782.75,-205 2782.75,-249 2782.75,-249 2782.75,-255 2776.75,-261 2770.75,-261"/>
<text text-anchor="start" x="2675" y="-243.7" font-family="Helvetica,sans-Serif" font-size="14.00">rm ≤ 7.181</text>
<text text-anchor="start" x="2640.5" y="-228.7" font-family="Helvetica,sans-Serif" font-size="14.00">squared_error = 13.69</text>
<text text-anchor="start" x="2670.5" y="-213.7" font-family="Helvetica,sans-Serif" font-size="14.00">samples = 2</text>
<text text-anchor="start" x="2670.5" y="-198.7" font-family="Helvetica,sans-Serif" font-size="14.00">value = 14.1</text>
</g>
<!-- 29&#45;&gt;37 -->
<g id="edge37" class="edge">
<title>29&#45;&gt;37</title>
<path fill="none" stroke="black" d="M2649.78,-296.6C2656.99,-288.06 2664.82,-278.77 2672.33,-269.86"/>
<polygon fill="black" stroke="black" points="2675.63,-272.37 2679.4,-262.47 2670.28,-267.86 2675.63,-272.37"/>
</g>
<!-- 31 -->
<g id="node32" class="node">
<title>31</title>
<path fill="#e88f4e" stroke="black" d="M2429.5,-157C2429.5,-157 2295.75,-157 2295.75,-157 2289.75,-157 2283.75,-151 2283.75,-145 2283.75,-145 2283.75,-101 2283.75,-101 2283.75,-95 2289.75,-89 2295.75,-89 2295.75,-89 2429.5,-89 2429.5,-89 2435.5,-89 2441.5,-95 2441.5,-101 2441.5,-101 2441.5,-145 2441.5,-145 2441.5,-151 2435.5,-157 2429.5,-157"/>
<text text-anchor="start" x="2327.38" y="-139.7" font-family="Helvetica,sans-Serif" font-size="14.00">nox ≤ 0.618</text>
<text text-anchor="start" x="2291.75" y="-124.7" font-family="Helvetica,sans-Serif" font-size="14.00">squared_error = 18.923</text>
<text text-anchor="start" x="2325.5" y="-109.7" font-family="Helvetica,sans-Serif" font-size="14.00">samples = 2</text>
<text text-anchor="start" x="2321.75" y="-94.7" font-family="Helvetica,sans-Serif" font-size="14.00">value = 45.65</text>
</g>
<!-- 30&#45;&gt;31 -->
<g id="edge31" class="edge">
<title>30&#45;&gt;31</title>
<path fill="none" stroke="black" d="M2478.98,-192.6C2462.85,-183.09 2445.14,-172.65 2428.51,-162.85"/>
<polygon fill="black" stroke="black" points="2430.79,-159.54 2420.4,-157.47 2427.24,-165.57 2430.79,-159.54"/>
</g>
<!-- 34 -->
<g id="node35" class="node">
<title>34</title>
<path fill="#f0b78d" stroke="black" d="M2605.5,-157C2605.5,-157 2471.75,-157 2471.75,-157 2465.75,-157 2459.75,-151 2459.75,-145 2459.75,-145 2459.75,-101 2459.75,-101 2459.75,-95 2465.75,-89 2471.75,-89 2471.75,-89 2605.5,-89 2605.5,-89 2611.5,-89 2617.5,-95 2617.5,-101 2617.5,-101 2617.5,-145 2617.5,-145 2617.5,-151 2611.5,-157 2605.5,-157"/>
<text text-anchor="start" x="2503.38" y="-139.7" font-family="Helvetica,sans-Serif" font-size="14.00">nox ≤ 0.488</text>
<text text-anchor="start" x="2467.75" y="-124.7" font-family="Helvetica,sans-Serif" font-size="14.00">squared_error = 13.612</text>
<text text-anchor="start" x="2497.75" y="-109.7" font-family="Helvetica,sans-Serif" font-size="14.00">samples = 33</text>
<text text-anchor="start" x="2494" y="-94.7" font-family="Helvetica,sans-Serif" font-size="14.00">value = 32.733</text>
</g>
<!-- 30&#45;&gt;34 -->
<g id="edge34" class="edge">
<title>30&#45;&gt;34</title>
<path fill="none" stroke="black" d="M2536.61,-192.6C2536.84,-184.85 2537.08,-176.49 2537.32,-168.35"/>
<polygon fill="black" stroke="black" points="2540.84,-168.57 2537.64,-158.47 2533.85,-168.37 2540.84,-168.57"/>
</g>
<!-- 32 -->
<g id="node33" class="node">
<title>32</title>
<path fill="#eb9c64" stroke="black" d="M2273.25,-53C2273.25,-53 2162,-53 2162,-53 2156,-53 2150,-47 2150,-41 2150,-41 2150,-12 2150,-12 2150,-6 2156,0 2162,0 2162,0 2273.25,0 2273.25,0 2279.25,0 2285.25,-6 2285.25,-12 2285.25,-12 2285.25,-41 2285.25,-41 2285.25,-47 2279.25,-53 2273.25,-53"/>
<text text-anchor="start" x="2158" y="-35.7" font-family="Helvetica,sans-Serif" font-size="14.00">squared_error = 0.0</text>
<text text-anchor="start" x="2180.5" y="-20.7" font-family="Helvetica,sans-Serif" font-size="14.00">samples = 1</text>
<text text-anchor="start" x="2180.5" y="-5.7" font-family="Helvetica,sans-Serif" font-size="14.00">value = 41.3</text>
</g>
<!-- 31&#45;&gt;32 -->
<g id="edge32" class="edge">
<title>31&#45;&gt;32</title>
<path fill="none" stroke="black" d="M2311.5,-88.68C2296.78,-79.09 2280.77,-68.65 2266.21,-59.16"/>
<polygon fill="black" stroke="black" points="2268.65,-55.92 2258.36,-53.39 2264.82,-61.79 2268.65,-55.92"/>
</g>
<!-- 33 -->
<g id="node34" class="node">
<title>33</title>
<path fill="#e58139" stroke="black" d="M2426.25,-53C2426.25,-53 2315,-53 2315,-53 2309,-53 2303,-47 2303,-41 2303,-41 2303,-12 2303,-12 2303,-6 2309,0 2315,0 2315,0 2426.25,0 2426.25,0 2432.25,0 2438.25,-6 2438.25,-12 2438.25,-12 2438.25,-41 2438.25,-41 2438.25,-47 2432.25,-53 2426.25,-53"/>
<text text-anchor="start" x="2311" y="-35.7" font-family="Helvetica,sans-Serif" font-size="14.00">squared_error = 0.0</text>
<text text-anchor="start" x="2333.5" y="-20.7" font-family="Helvetica,sans-Serif" font-size="14.00">samples = 1</text>
<text text-anchor="start" x="2333.5" y="-5.7" font-family="Helvetica,sans-Serif" font-size="14.00">value = 50.0</text>
</g>
<!-- 31&#45;&gt;33 -->
<g id="edge33" class="edge">
<title>31&#45;&gt;33</title>
<path fill="none" stroke="black" d="M2365.45,-88.68C2366.11,-80.81 2366.83,-72.37 2367.51,-64.35"/>
<polygon fill="black" stroke="black" points="2371.08,-64.65 2368.43,-54.39 2364.1,-64.06 2371.08,-64.65"/>
</g>
<!-- 35 -->
<g id="node36" class="node">
<title>35</title>
<path fill="#efb185" stroke="black" d="M2594.75,-53C2594.75,-53 2468.5,-53 2468.5,-53 2462.5,-53 2456.5,-47 2456.5,-41 2456.5,-41 2456.5,-12 2456.5,-12 2456.5,-6 2462.5,0 2468.5,0 2468.5,0 2594.75,0 2594.75,0 2600.75,0 2606.75,-6 2606.75,-12 2606.75,-12 2606.75,-41 2606.75,-41 2606.75,-47 2600.75,-53 2594.75,-53"/>
<text text-anchor="start" x="2464.5" y="-35.7" font-family="Helvetica,sans-Serif" font-size="14.00">squared_error = 3.067</text>
<text text-anchor="start" x="2490.75" y="-20.7" font-family="Helvetica,sans-Serif" font-size="14.00">samples = 21</text>
<text text-anchor="start" x="2487" y="-5.7" font-family="Helvetica,sans-Serif" font-size="14.00">value = 34.529</text>
</g>
<!-- 34&#45;&gt;35 -->
<g id="edge35" class="edge">
<title>34&#45;&gt;35</title>
<path fill="none" stroke="black" d="M2536.16,-88.68C2535.57,-80.81 2534.95,-72.37 2534.35,-64.35"/>
<polygon fill="black" stroke="black" points="2537.77,-64.11 2533.54,-54.39 2530.79,-64.63 2537.77,-64.11"/>
</g>
<!-- 36 -->
<g id="node37" class="node">
<title>36</title>
<path fill="#f2c19d" stroke="black" d="M2770.5,-53C2770.5,-53 2636.75,-53 2636.75,-53 2630.75,-53 2624.75,-47 2624.75,-41 2624.75,-41 2624.75,-12 2624.75,-12 2624.75,-6 2630.75,0 2636.75,0 2636.75,0 2770.5,0 2770.5,0 2776.5,0 2782.5,-6 2782.5,-12 2782.5,-12 2782.5,-41 2782.5,-41 2782.5,-47 2776.5,-53 2770.5,-53"/>
<text text-anchor="start" x="2632.75" y="-35.7" font-family="Helvetica,sans-Serif" font-size="14.00">squared_error = 16.556</text>
<text text-anchor="start" x="2662.75" y="-20.7" font-family="Helvetica,sans-Serif" font-size="14.00">samples = 12</text>
<text text-anchor="start" x="2659" y="-5.7" font-family="Helvetica,sans-Serif" font-size="14.00">value = 29.592</text>
</g>
<!-- 34&#45;&gt;36 -->
<g id="edge36" class="edge">
<title>34&#45;&gt;36</title>
<path fill="none" stroke="black" d="M2596.8,-88.68C2613.86,-78.91 2632.46,-68.26 2649.27,-58.63"/>
<polygon fill="black" stroke="black" points="2650.48,-61.4 2657.41,-53.39 2647,-55.33 2650.48,-61.4"/>
</g>
<!-- 38 -->
<g id="node39" class="node">
<title>38</title>
<path fill="#fefcfb" stroke="black" d="M2761.25,-149.5C2761.25,-149.5 2650,-149.5 2650,-149.5 2644,-149.5 2638,-143.5 2638,-137.5 2638,-137.5 2638,-108.5 2638,-108.5 2638,-102.5 2644,-96.5 2650,-96.5 2650,-96.5 2761.25,-96.5 2761.25,-96.5 2767.25,-96.5 2773.25,-102.5 2773.25,-108.5 2773.25,-108.5 2773.25,-137.5 2773.25,-137.5 2773.25,-143.5 2767.25,-149.5 2761.25,-149.5"/>
<text text-anchor="start" x="2646" y="-132.2" font-family="Helvetica,sans-Serif" font-size="14.00">squared_error = 0.0</text>
<text text-anchor="start" x="2668.5" y="-117.2" font-family="Helvetica,sans-Serif" font-size="14.00">samples = 1</text>
<text text-anchor="start" x="2668.5" y="-102.2" font-family="Helvetica,sans-Serif" font-size="14.00">value = 10.4</text>
</g>
<!-- 37&#45;&gt;38 -->
<g id="edge38" class="edge">
<title>37&#45;&gt;38</title>
<path fill="none" stroke="black" d="M2706.97,-192.6C2706.77,-182.36 2706.55,-171.04 2706.34,-160.6"/>
<polygon fill="black" stroke="black" points="2709.82,-160.64 2706.13,-150.71 2702.83,-160.77 2709.82,-160.64"/>
</g>
<!-- 39 -->
<g id="node40" class="node">
<title>39</title>
<path fill="#fae5d7" stroke="black" d="M2919.5,-149.5C2919.5,-149.5 2803.75,-149.5 2803.75,-149.5 2797.75,-149.5 2791.75,-143.5 2791.75,-137.5 2791.75,-137.5 2791.75,-108.5 2791.75,-108.5 2791.75,-102.5 2797.75,-96.5 2803.75,-96.5 2803.75,-96.5 2919.5,-96.5 2919.5,-96.5 2925.5,-96.5 2931.5,-102.5 2931.5,-108.5 2931.5,-108.5 2931.5,-137.5 2931.5,-137.5 2931.5,-143.5 2925.5,-149.5 2919.5,-149.5"/>
<text text-anchor="start" x="2799.75" y="-132.2" font-family="Helvetica,sans-Serif" font-size="14.00">squared_error = &#45;0.0</text>
<text text-anchor="start" x="2824.5" y="-117.2" font-family="Helvetica,sans-Serif" font-size="14.00">samples = 1</text>
<text text-anchor="start" x="2824.5" y="-102.2" font-family="Helvetica,sans-Serif" font-size="14.00">value = 17.8</text>
</g>
<!-- 37&#45;&gt;39 -->
<g id="edge39" class="edge">
<title>37&#45;&gt;39</title>
<path fill="none" stroke="black" d="M2758.05,-192.6C2775.98,-180.73 2796.1,-167.4 2813.8,-155.68"/>
<polygon fill="black" stroke="black" points="2815.41,-158.15 2821.81,-149.71 2811.54,-152.31 2815.41,-158.15"/>
</g>
<!-- 41 -->
<g id="node42" class="node">
<title>41</title>
<path fill="#e78c4b" stroke="black" d="M3185.5,-261C3185.5,-261 3051.75,-261 3051.75,-261 3045.75,-261 3039.75,-255 3039.75,-249 3039.75,-249 3039.75,-205 3039.75,-205 3039.75,-199 3045.75,-193 3051.75,-193 3051.75,-193 3185.5,-193 3185.5,-193 3191.5,-193 3197.5,-199 3197.5,-205 3197.5,-205 3197.5,-249 3197.5,-249 3197.5,-255 3191.5,-261 3185.5,-261"/>
<text text-anchor="start" x="3081.12" y="-243.7" font-family="Helvetica,sans-Serif" font-size="14.00">crim ≤ 0.577</text>
<text text-anchor="start" x="3047.75" y="-228.7" font-family="Helvetica,sans-Serif" font-size="14.00">squared_error = 12.813</text>
<text text-anchor="start" x="3077.75" y="-213.7" font-family="Helvetica,sans-Serif" font-size="14.00">samples = 23</text>
<text text-anchor="start" x="3074" y="-198.7" font-family="Helvetica,sans-Serif" font-size="14.00">value = 46.322</text>
</g>
<!-- 40&#45;&gt;41 -->
<g id="edge41" class="edge">
<title>40&#45;&gt;41</title>
<path fill="none" stroke="black" d="M3118.62,-296.6C3118.62,-288.85 3118.62,-280.49 3118.62,-272.35"/>
<polygon fill="black" stroke="black" points="3122.13,-272.47 3118.62,-262.47 3115.13,-272.47 3122.13,-272.47"/>
</g>
<!-- 48 -->
<g id="node49" class="node">
<title>48</title>
<path fill="#f3c4a2" stroke="black" d="M3432.5,-261C3432.5,-261 3298.75,-261 3298.75,-261 3292.75,-261 3286.75,-255 3286.75,-249 3286.75,-249 3286.75,-205 3286.75,-205 3286.75,-199 3292.75,-193 3298.75,-193 3298.75,-193 3432.5,-193 3432.5,-193 3438.5,-193 3444.5,-199 3444.5,-205 3444.5,-205 3444.5,-249 3444.5,-249 3444.5,-255 3438.5,-261 3432.5,-261"/>
<text text-anchor="start" x="3325.12" y="-243.7" font-family="Helvetica,sans-Serif" font-size="14.00">indus ≤ 12.53</text>
<text text-anchor="start" x="3294.75" y="-228.7" font-family="Helvetica,sans-Serif" font-size="14.00">squared_error = 44.222</text>
<text text-anchor="start" x="3328.5" y="-213.7" font-family="Helvetica,sans-Serif" font-size="14.00">samples = 2</text>
<text text-anchor="start" x="3324.75" y="-198.7" font-family="Helvetica,sans-Serif" font-size="14.00">value = 28.55</text>
</g>
<!-- 40&#45;&gt;48 -->
<g id="edge48" class="edge">
<title>40&#45;&gt;48</title>
<path fill="none" stroke="black" d="M3197.8,-297.31C3222.84,-286.97 3250.68,-275.47 3276.37,-264.86"/>
<polygon fill="black" stroke="black" points="3277.57,-267.74 3285.48,-260.68 3274.9,-261.27 3277.57,-267.74"/>
</g>
<!-- 42 -->
<g id="node43" class="node">
<title>42</title>
<path fill="#e88f4f" stroke="black" d="M3114.5,-157C3114.5,-157 2980.75,-157 2980.75,-157 2974.75,-157 2968.75,-151 2968.75,-145 2968.75,-145 2968.75,-101 2968.75,-101 2968.75,-95 2974.75,-89 2980.75,-89 2980.75,-89 3114.5,-89 3114.5,-89 3120.5,-89 3126.5,-95 3126.5,-101 3126.5,-101 3126.5,-145 3126.5,-145 3126.5,-151 3120.5,-157 3114.5,-157"/>
<text text-anchor="start" x="3015" y="-139.7" font-family="Helvetica,sans-Serif" font-size="14.00">rm ≤ 7.826</text>
<text text-anchor="start" x="2976.75" y="-124.7" font-family="Helvetica,sans-Serif" font-size="14.00">squared_error = 12.062</text>
<text text-anchor="start" x="3006.75" y="-109.7" font-family="Helvetica,sans-Serif" font-size="14.00">samples = 19</text>
<text text-anchor="start" x="3003" y="-94.7" font-family="Helvetica,sans-Serif" font-size="14.00">value = 45.547</text>
</g>
<!-- 41&#45;&gt;42 -->
<g id="edge42" class="edge">
<title>41&#45;&gt;42</title>
<path fill="none" stroke="black" d="M3095.38,-192.6C3089.55,-184.24 3083.23,-175.15 3077.15,-166.41"/>
<polygon fill="black" stroke="black" points="3079.51,-164.68 3070.93,-158.47 3073.77,-168.68 3079.51,-164.68"/>
</g>
<!-- 45 -->
<g id="node46" class="node">
<title>45</title>
<path fill="#e58139" stroke="black" d="M3268.25,-157C3268.25,-157 3157,-157 3157,-157 3151,-157 3145,-151 3145,-145 3145,-145 3145,-101 3145,-101 3145,-95 3151,-89 3157,-89 3157,-89 3268.25,-89 3268.25,-89 3274.25,-89 3280.25,-95 3280.25,-101 3280.25,-101 3280.25,-145 3280.25,-145 3280.25,-151 3274.25,-157 3268.25,-157"/>
<text text-anchor="start" x="3175.12" y="-139.7" font-family="Helvetica,sans-Serif" font-size="14.00">crim ≤ 0.595</text>
<text text-anchor="start" x="3153" y="-124.7" font-family="Helvetica,sans-Serif" font-size="14.00">squared_error = 0.0</text>
<text text-anchor="start" x="3175.5" y="-109.7" font-family="Helvetica,sans-Serif" font-size="14.00">samples = 4</text>
<text text-anchor="start" x="3175.5" y="-94.7" font-family="Helvetica,sans-Serif" font-size="14.00">value = 50.0</text>
</g>
<!-- 41&#45;&gt;45 -->
<g id="edge45" class="edge">
<title>41&#45;&gt;45</title>
<path fill="none" stroke="black" d="M3149.4,-192.6C3157.44,-183.88 3166.19,-174.38 3174.56,-165.31"/>
<polygon fill="black" stroke="black" points="3176.57,-168.2 3180.78,-158.47 3171.43,-163.46 3176.57,-168.2"/>
</g>
<!-- 43 -->
<g id="node44" class="node">
<title>43</title>
<path fill="#e99457" stroke="black" d="M2938.75,-53C2938.75,-53 2812.5,-53 2812.5,-53 2806.5,-53 2800.5,-47 2800.5,-41 2800.5,-41 2800.5,-12 2800.5,-12 2800.5,-6 2806.5,0 2812.5,0 2812.5,0 2938.75,0 2938.75,0 2944.75,0 2950.75,-6 2950.75,-12 2950.75,-12 2950.75,-41 2950.75,-41 2950.75,-47 2944.75,-53 2938.75,-53"/>
<text text-anchor="start" x="2808.5" y="-35.7" font-family="Helvetica,sans-Serif" font-size="14.00">squared_error = 3.851</text>
<text text-anchor="start" x="2838.5" y="-20.7" font-family="Helvetica,sans-Serif" font-size="14.00">samples = 9</text>
<text text-anchor="start" x="2831" y="-5.7" font-family="Helvetica,sans-Serif" font-size="14.00">value = 43.844</text>
</g>
<!-- 42&#45;&gt;43 -->
<g id="edge43" class="edge">
<title>42&#45;&gt;43</title>
<path fill="none" stroke="black" d="M2986.98,-88.68C2969.19,-78.91 2949.81,-68.26 2932.28,-58.63"/>
<polygon fill="black" stroke="black" points="2934.2,-55.14 2923.75,-53.39 2930.83,-61.28 2934.2,-55.14"/>
</g>
<!-- 44 -->
<g id="node45" class="node">
<title>44</title>
<path fill="#e78a47" stroke="black" d="M3114.5,-53C3114.5,-53 2980.75,-53 2980.75,-53 2974.75,-53 2968.75,-47 2968.75,-41 2968.75,-41 2968.75,-12 2968.75,-12 2968.75,-6 2974.75,0 2980.75,0 2980.75,0 3114.5,0 3114.5,0 3120.5,0 3126.5,-6 3126.5,-12 3126.5,-12 3126.5,-41 3126.5,-41 3126.5,-47 3120.5,-53 3114.5,-53"/>
<text text-anchor="start" x="2976.75" y="-35.7" font-family="Helvetica,sans-Serif" font-size="14.00">squared_error = 14.494</text>
<text text-anchor="start" x="3006.75" y="-20.7" font-family="Helvetica,sans-Serif" font-size="14.00">samples = 10</text>
<text text-anchor="start" x="3006.75" y="-5.7" font-family="Helvetica,sans-Serif" font-size="14.00">value = 47.08</text>
</g>
<!-- 42&#45;&gt;44 -->
<g id="edge44" class="edge">
<title>42&#45;&gt;44</title>
<path fill="none" stroke="black" d="M3047.62,-88.68C3047.62,-80.81 3047.62,-72.37 3047.62,-64.35"/>
<polygon fill="black" stroke="black" points="3051.13,-64.39 3047.62,-54.39 3044.13,-64.39 3051.13,-64.39"/>
</g>
<!-- 46 -->
<g id="node47" class="node">
<title>46</title>
<path fill="#e58139" stroke="black" d="M3268.25,-53C3268.25,-53 3157,-53 3157,-53 3151,-53 3145,-47 3145,-41 3145,-41 3145,-12 3145,-12 3145,-6 3151,0 3157,0 3157,0 3268.25,0 3268.25,0 3274.25,0 3280.25,-6 3280.25,-12 3280.25,-12 3280.25,-41 3280.25,-41 3280.25,-47 3274.25,-53 3268.25,-53"/>
<text text-anchor="start" x="3153" y="-35.7" font-family="Helvetica,sans-Serif" font-size="14.00">squared_error = 0.0</text>
<text text-anchor="start" x="3175.5" y="-20.7" font-family="Helvetica,sans-Serif" font-size="14.00">samples = 1</text>
<text text-anchor="start" x="3175.5" y="-5.7" font-family="Helvetica,sans-Serif" font-size="14.00">value = 50.0</text>
</g>
<!-- 45&#45;&gt;46 -->
<g id="edge46" class="edge">
<title>45&#45;&gt;46</title>
<path fill="none" stroke="black" d="M3212.62,-88.68C3212.62,-80.81 3212.62,-72.37 3212.62,-64.35"/>
<polygon fill="black" stroke="black" points="3216.13,-64.39 3212.62,-54.39 3209.13,-64.39 3216.13,-64.39"/>
</g>
<!-- 47 -->
<g id="node48" class="node">
<title>47</title>
<path fill="#e58139" stroke="black" d="M3421.25,-53C3421.25,-53 3310,-53 3310,-53 3304,-53 3298,-47 3298,-41 3298,-41 3298,-12 3298,-12 3298,-6 3304,0 3310,0 3310,0 3421.25,0 3421.25,0 3427.25,0 3433.25,-6 3433.25,-12 3433.25,-12 3433.25,-41 3433.25,-41 3433.25,-47 3427.25,-53 3421.25,-53"/>
<text text-anchor="start" x="3306" y="-35.7" font-family="Helvetica,sans-Serif" font-size="14.00">squared_error = 0.0</text>
<text text-anchor="start" x="3328.5" y="-20.7" font-family="Helvetica,sans-Serif" font-size="14.00">samples = 3</text>
<text text-anchor="start" x="3328.5" y="-5.7" font-family="Helvetica,sans-Serif" font-size="14.00">value = 50.0</text>
</g>
<!-- 45&#45;&gt;47 -->
<g id="edge47" class="edge">
<title>45&#45;&gt;47</title>
<path fill="none" stroke="black" d="M3266.57,-88.68C3282.1,-79.09 3298.99,-68.65 3314.36,-59.16"/>
<polygon fill="black" stroke="black" points="3316.03,-61.63 3322.7,-53.39 3312.35,-55.67 3316.03,-61.63"/>
</g>
<!-- 49 -->
<g id="node50" class="node">
<title>49</title>
<path fill="#efaf81" stroke="black" d="M3421.25,-149.5C3421.25,-149.5 3310,-149.5 3310,-149.5 3304,-149.5 3298,-143.5 3298,-137.5 3298,-137.5 3298,-108.5 3298,-108.5 3298,-102.5 3304,-96.5 3310,-96.5 3310,-96.5 3421.25,-96.5 3421.25,-96.5 3427.25,-96.5 3433.25,-102.5 3433.25,-108.5 3433.25,-108.5 3433.25,-137.5 3433.25,-137.5 3433.25,-143.5 3427.25,-149.5 3421.25,-149.5"/>
<text text-anchor="start" x="3306" y="-132.2" font-family="Helvetica,sans-Serif" font-size="14.00">squared_error = 0.0</text>
<text text-anchor="start" x="3328.5" y="-117.2" font-family="Helvetica,sans-Serif" font-size="14.00">samples = 1</text>
<text text-anchor="start" x="3328.5" y="-102.2" font-family="Helvetica,sans-Serif" font-size="14.00">value = 35.2</text>
</g>
<!-- 48&#45;&gt;49 -->
<g id="edge49" class="edge">
<title>48&#45;&gt;49</title>
<path fill="none" stroke="black" d="M3365.62,-192.6C3365.62,-182.36 3365.62,-171.04 3365.62,-160.6"/>
<polygon fill="black" stroke="black" points="3369.13,-160.71 3365.62,-150.71 3362.13,-160.71 3369.13,-160.71"/>
</g>
<!-- 50 -->
<g id="node51" class="node">
<title>50</title>
<path fill="#f7d9c3" stroke="black" d="M3579.5,-149.5C3579.5,-149.5 3463.75,-149.5 3463.75,-149.5 3457.75,-149.5 3451.75,-143.5 3451.75,-137.5 3451.75,-137.5 3451.75,-108.5 3451.75,-108.5 3451.75,-102.5 3457.75,-96.5 3463.75,-96.5 3463.75,-96.5 3579.5,-96.5 3579.5,-96.5 3585.5,-96.5 3591.5,-102.5 3591.5,-108.5 3591.5,-108.5 3591.5,-137.5 3591.5,-137.5 3591.5,-143.5 3585.5,-149.5 3579.5,-149.5"/>
<text text-anchor="start" x="3459.75" y="-132.2" font-family="Helvetica,sans-Serif" font-size="14.00">squared_error = &#45;0.0</text>
<text text-anchor="start" x="3484.5" y="-117.2" font-family="Helvetica,sans-Serif" font-size="14.00">samples = 1</text>
<text text-anchor="start" x="3484.5" y="-102.2" font-family="Helvetica,sans-Serif" font-size="14.00">value = 21.9</text>
</g>
<!-- 48&#45;&gt;50 -->
<g id="edge50" class="edge">
<title>48&#45;&gt;50</title>
<path fill="none" stroke="black" d="M3416.71,-192.6C3434.79,-180.78 3455.08,-167.51 3472.96,-155.82"/>
<polygon fill="black" stroke="black" points="3474.61,-158.27 3481.06,-149.87 3470.78,-152.41 3474.61,-158.27"/>
</g>
</g>
</svg>