<?xml version="1.0" encoding="UTF-8" standalone="no"?>
<!DOCTYPE svg PUBLIC "-//W3C//DTD SVG 1.1//EN"
 "http://www.w3.org/Graphics/SVG/1.1/DTD/svg11.dtd">
<!-- Generated by graphviz version 8.1.0 (20230707.0739)
 -->
<!-- Title: Tree Pages: 1 -->
<svg width="3353pt" height="581pt"
 viewBox="0.00 0.00 3353.25 581.00" xmlns="http://www.w3.org/2000/svg" xmlns:xlink="http://www.w3.org/1999/xlink">
<g id="graph0" class="graph" transform="scale(1 1) rotate(0) translate(4 577)">
<title>Tree</title>
<polygon fill="white" stroke="none" points="-4,4 -4,-577 3349.25,-577 3349.25,4 -4,4"/>
<!-- 0 -->
<g id="node1" class="node">
<title>0</title>
<path fill="#f6d5bd" stroke="black" d="M1317,-573C1317,-573 1183.25,-573 1183.25,-573 1177.25,-573 1171.25,-567 1171.25,-561 1171.25,-561 1171.25,-517 1171.25,-517 1171.25,-511 1177.25,-505 1183.25,-505 1183.25,-505 1317,-505 1317,-505 1323,-505 1329,-511 1329,-517 1329,-517 1329,-561 1329,-561 1329,-567 1323,-573 1317,-573"/>
<text text-anchor="start" x="1217.12" y="-555.7" font-family="Helvetica,sans-Serif" font-size="14.00">lstat ≤ 8.13</text>
<text text-anchor="start" x="1179.25" y="-540.7" font-family="Helvetica,sans-Serif" font-size="14.00">squared_error = 89.471</text>
<text text-anchor="start" x="1205.5" y="-525.7" font-family="Helvetica,sans-Serif" font-size="14.00">samples = 404</text>
<text text-anchor="start" x="1205.5" y="-510.7" font-family="Helvetica,sans-Serif" font-size="14.00">value = 22.952</text>
</g>
<!-- 1 -->
<g id="node2" class="node">
<title>1</title>
<path fill="#f1ba93" stroke="black" d="M1144.25,-469C1144.25,-469 1018,-469 1018,-469 1012,-469 1006,-463 1006,-457 1006,-457 1006,-413 1006,-413 1006,-407 1012,-401 1018,-401 1018,-401 1144.25,-401 1144.25,-401 1150.25,-401 1156.25,-407 1156.25,-413 1156.25,-413 1156.25,-457 1156.25,-457 1156.25,-463 1150.25,-469 1144.25,-469"/>
<text text-anchor="start" x="1048.5" y="-451.7" font-family="Helvetica,sans-Serif" font-size="14.00">rm ≤ 7.437</text>
<text text-anchor="start" x="1014" y="-436.7" font-family="Helvetica,sans-Serif" font-size="14.00">squared_error = 79.75</text>
<text text-anchor="start" x="1036.5" y="-421.7" font-family="Helvetica,sans-Serif" font-size="14.00">samples = 145</text>
<text text-anchor="start" x="1036.5" y="-406.7" font-family="Helvetica,sans-Serif" font-size="14.00">value = 31.571</text>
</g>
<!-- 0&#45;&gt;1 -->
<g id="edge1" class="edge">
<title>0&#45;&gt;1</title>
<path fill="none" stroke="black" d="M1194.79,-504.6C1179.18,-495.18 1162.05,-484.84 1145.94,-475.12"/>
<polygon fill="black" stroke="black" points="1147.96,-471.64 1137.59,-469.47 1144.34,-477.64 1147.96,-471.64"/>
<text text-anchor="middle" x="1142.59" y="-487.94" font-family="Helvetica,sans-Serif" font-size="14.00">True</text>
</g>
<!-- 20 -->
<g id="node21" class="node">
<title>20</title>
<path fill="#f9e4d5" stroke="black" d="M1656,-469C1656,-469 1522.25,-469 1522.25,-469 1516.25,-469 1510.25,-463 1510.25,-457 1510.25,-457 1510.25,-413 1510.25,-413 1510.25,-407 1516.25,-401 1522.25,-401 1522.25,-401 1656,-401 1656,-401 1662,-401 1668,-407 1668,-413 1668,-413 1668,-457 1668,-457 1668,-463 1662,-469 1656,-469"/>
<text text-anchor="start" x="1556.12" y="-451.7" font-family="Helvetica,sans-Serif" font-size="14.00">lstat ≤ 15.0</text>
<text text-anchor="start" x="1518.25" y="-436.7" font-family="Helvetica,sans-Serif" font-size="14.00">squared_error = 30.036</text>
<text text-anchor="start" x="1544.5" y="-421.7" font-family="Helvetica,sans-Serif" font-size="14.00">samples = 259</text>
<text text-anchor="start" x="1544.5" y="-406.7" font-family="Helvetica,sans-Serif" font-size="14.00">value = 18.126</text>
</g>
<!-- 0&#45;&gt;20 -->
<g id="edge20" class="edge">
<title>0&#45;&gt;20</title>
<path fill="none" stroke="black" d="M1329.18,-514.21C1380.17,-498.87 1446.6,-478.88 1499.55,-462.95"/>
<polygon fill="black" stroke="black" points="1500.38,-466.06 1508.95,-459.82 1498.36,-459.35 1500.38,-466.06"/>
<text text-anchor="middle" x="1498.11" y="-476.04" font-family="Helvetica,sans-Serif" font-size="14.00">False</text>
</g>
<!-- 2 -->
<g id="node3" class="node">
<title>2</title>
<path fill="#f3c4a3" stroke="black" d="M559.25,-365C559.25,-365 433,-365 433,-365 427,-365 421,-359 421,-353 421,-353 421,-309 421,-309 421,-303 427,-297 433,-297 433,-297 559.25,-297 559.25,-297 565.25,-297 571.25,-303 571.25,-309 571.25,-309 571.25,-353 571.25,-353 571.25,-359 565.25,-365 559.25,-365"/>
<text text-anchor="start" x="463.12" y="-347.7" font-family="Helvetica,sans-Serif" font-size="14.00">dis ≤ 1.485</text>
<text text-anchor="start" x="429" y="-332.7" font-family="Helvetica,sans-Serif" font-size="14.00">squared_error = 36.01</text>
<text text-anchor="start" x="451.5" y="-317.7" font-family="Helvetica,sans-Serif" font-size="14.00">samples = 118</text>
<text text-anchor="start" x="451.5" y="-302.7" font-family="Helvetica,sans-Serif" font-size="14.00">value = 28.405</text>
</g>
<!-- 1&#45;&gt;2 -->
<g id="edge2" class="edge">
<title>1&#45;&gt;2</title>
<path fill="none" stroke="black" d="M1005.55,-420.82C896.78,-401.86 696.65,-366.96 582.29,-347.02"/>
<polygon fill="black" stroke="black" points="582.95,-343.41 572.49,-345.14 581.74,-350.31 582.95,-343.41"/>
</g>
<!-- 11 -->
<g id="node12" class="node">
<title>11</title>
<path fill="#e88f4f" stroke="black" d="M1148,-365C1148,-365 1014.25,-365 1014.25,-365 1008.25,-365 1002.25,-359 1002.25,-353 1002.25,-353 1002.25,-309 1002.25,-309 1002.25,-303 1008.25,-297 1014.25,-297 1014.25,-297 1148,-297 1148,-297 1154,-297 1160,-303 1160,-309 1160,-309 1160,-353 1160,-353 1160,-359 1154,-365 1148,-365"/>
<text text-anchor="start" x="1043.62" y="-347.7" font-family="Helvetica,sans-Serif" font-size="14.00">crim ≤ 2.742</text>
<text text-anchor="start" x="1010.25" y="-332.7" font-family="Helvetica,sans-Serif" font-size="14.00">squared_error = 35.656</text>
<text text-anchor="start" x="1040.25" y="-317.7" font-family="Helvetica,sans-Serif" font-size="14.00">samples = 27</text>
<text text-anchor="start" x="1036.5" y="-302.7" font-family="Helvetica,sans-Serif" font-size="14.00">value = 45.407</text>
</g>
<!-- 1&#45;&gt;11 -->
<g id="edge11" class="edge">
<title>1&#45;&gt;11</title>
<path fill="none" stroke="black" d="M1081.12,-400.6C1081.12,-392.85 1081.12,-384.49 1081.12,-376.35"/>
<polygon fill="black" stroke="black" points="1084.63,-376.47 1081.12,-366.47 1077.63,-376.47 1084.63,-376.47"/>
</g>
<!-- 3 -->
<g id="node4" class="node">
<title>3</title>
<path fill="#e58139" stroke="black" d="M386.75,-253.5C386.75,-253.5 275.5,-253.5 275.5,-253.5 269.5,-253.5 263.5,-247.5 263.5,-241.5 263.5,-241.5 263.5,-212.5 263.5,-212.5 263.5,-206.5 269.5,-200.5 275.5,-200.5 275.5,-200.5 386.75,-200.5 386.75,-200.5 392.75,-200.5 398.75,-206.5 398.75,-212.5 398.75,-212.5 398.75,-241.5 398.75,-241.5 398.75,-247.5 392.75,-253.5 386.75,-253.5"/>
<text text-anchor="start" x="271.5" y="-236.2" font-family="Helvetica,sans-Serif" font-size="14.00">squared_error = 0.0</text>
<text text-anchor="start" x="294" y="-221.2" font-family="Helvetica,sans-Serif" font-size="14.00">samples = 3</text>
<text text-anchor="start" x="294" y="-206.2" font-family="Helvetica,sans-Serif" font-size="14.00">value = 50.0</text>
</g>
<!-- 2&#45;&gt;3 -->
<g id="edge3" class="edge">
<title>2&#45;&gt;3</title>
<path fill="none" stroke="black" d="M442.1,-296.6C422.79,-284.67 401.12,-271.27 382.08,-259.5"/>
<polygon fill="black" stroke="black" points="384.32,-256.15 373.97,-253.87 380.64,-262.1 384.32,-256.15"/>
</g>
<!-- 4 -->
<g id="node5" class="node">
<title>4</title>
<path fill="#f3c6a5" stroke="black" d="M563,-261C563,-261 429.25,-261 429.25,-261 423.25,-261 417.25,-255 417.25,-249 417.25,-249 417.25,-205 417.25,-205 417.25,-199 423.25,-193 429.25,-193 429.25,-193 563,-193 563,-193 569,-193 575,-199 575,-205 575,-205 575,-249 575,-249 575,-255 569,-261 563,-261"/>
<text text-anchor="start" x="463.5" y="-243.7" font-family="Helvetica,sans-Serif" font-size="14.00">rm ≤ 6.797</text>
<text text-anchor="start" x="425.25" y="-228.7" font-family="Helvetica,sans-Serif" font-size="14.00">squared_error = 24.467</text>
<text text-anchor="start" x="451.5" y="-213.7" font-family="Helvetica,sans-Serif" font-size="14.00">samples = 115</text>
<text text-anchor="start" x="451.5" y="-198.7" font-family="Helvetica,sans-Serif" font-size="14.00">value = 27.842</text>
</g>
<!-- 2&#45;&gt;4 -->
<g id="edge4" class="edge">
<title>2&#45;&gt;4</title>
<path fill="none" stroke="black" d="M496.12,-296.6C496.12,-288.85 496.12,-280.49 496.12,-272.35"/>
<polygon fill="black" stroke="black" points="499.63,-272.47 496.12,-262.47 492.63,-272.47 499.63,-272.47"/>
</g>
<!-- 5 -->
<g id="node6" class="node">
<title>5</title>
<path fill="#f5cfb3" stroke="black" d="M303.25,-157C303.25,-157 177,-157 177,-157 171,-157 165,-151 165,-145 165,-145 165,-101 165,-101 165,-95 171,-89 177,-89 177,-89 303.25,-89 303.25,-89 309.25,-89 315.25,-95 315.25,-101 315.25,-101 315.25,-145 315.25,-145 315.25,-151 309.25,-157 303.25,-157"/>
<text text-anchor="start" x="207.5" y="-139.7" font-family="Helvetica,sans-Serif" font-size="14.00">rm ≤ 6.481</text>
<text text-anchor="start" x="173" y="-124.7" font-family="Helvetica,sans-Serif" font-size="14.00">squared_error = 9.858</text>
<text text-anchor="start" x="199.25" y="-109.7" font-family="Helvetica,sans-Serif" font-size="14.00">samples = 71</text>
<text text-anchor="start" x="195.5" y="-94.7" font-family="Helvetica,sans-Serif" font-size="14.00">value = 25.008</text>
</g>
<!-- 4&#45;&gt;5 -->
<g id="edge5" class="edge">
<title>4&#45;&gt;5</title>
<path fill="none" stroke="black" d="M416.88,-194.43C387.85,-182.86 354.9,-169.73 325.37,-157.96"/>
<polygon fill="black" stroke="black" points="327.08,-154.48 316.5,-154.03 324.49,-160.98 327.08,-154.48"/>
</g>
<!-- 8 -->
<g id="node9" class="node">
<title>8</title>
<path fill="#f0b88f" stroke="black" d="M563,-157C563,-157 429.25,-157 429.25,-157 423.25,-157 417.25,-151 417.25,-145 417.25,-145 417.25,-101 417.25,-101 417.25,-95 423.25,-89 429.25,-89 429.25,-89 563,-89 563,-89 569,-89 575,-95 575,-101 575,-101 575,-145 575,-145 575,-151 569,-157 563,-157"/>
<text text-anchor="start" x="456.75" y="-139.7" font-family="Helvetica,sans-Serif" font-size="14.00">ptratio ≤ 19.4</text>
<text text-anchor="start" x="425.25" y="-124.7" font-family="Helvetica,sans-Serif" font-size="14.00">squared_error = 14.184</text>
<text text-anchor="start" x="455.25" y="-109.7" font-family="Helvetica,sans-Serif" font-size="14.00">samples = 44</text>
<text text-anchor="start" x="451.5" y="-94.7" font-family="Helvetica,sans-Serif" font-size="14.00">value = 32.414</text>
</g>
<!-- 4&#45;&gt;8 -->
<g id="edge8" class="edge">
<title>4&#45;&gt;8</title>
<path fill="none" stroke="black" d="M496.12,-192.6C496.12,-184.85 496.12,-176.49 496.12,-168.35"/>
<polygon fill="black" stroke="black" points="499.63,-168.47 496.12,-158.47 492.63,-168.47 499.63,-168.47"/>
</g>
<!-- 6 -->
<g id="node7" class="node">
<title>6</title>
<path fill="#f6d4bb" stroke="black" d="M138.25,-53C138.25,-53 12,-53 12,-53 6,-53 0,-47 0,-41 0,-41 0,-12 0,-12 0,-6 6,0 12,0 12,0 138.25,0 138.25,0 144.25,0 150.25,-6 150.25,-12 150.25,-12 150.25,-41 150.25,-41 150.25,-47 144.25,-53 138.25,-53"/>
<text text-anchor="start" x="8" y="-35.7" font-family="Helvetica,sans-Serif" font-size="14.00">squared_error = 4.486</text>
<text text-anchor="start" x="34.25" y="-20.7" font-family="Helvetica,sans-Serif" font-size="14.00">samples = 41</text>
<text text-anchor="start" x="30.5" y="-5.7" font-family="Helvetica,sans-Serif" font-size="14.00">value = 23.432</text>
</g>
<!-- 5&#45;&gt;6 -->
<g id="edge6" class="edge">
<title>5&#45;&gt;6</title>
<path fill="none" stroke="black" d="M181.95,-88.68C164.89,-78.91 146.29,-68.26 129.48,-58.63"/>
<polygon fill="black" stroke="black" points="131.75,-55.33 121.34,-53.39 128.27,-61.4 131.75,-55.33"/>
</g>
<!-- 7 -->
<g id="node8" class="node">
<title>7</title>
<path fill="#f4c8a9" stroke="black" d="M299.5,-53C299.5,-53 180.75,-53 180.75,-53 174.75,-53 168.75,-47 168.75,-41 168.75,-41 168.75,-12 168.75,-12 168.75,-6 174.75,0 180.75,0 180.75,0 299.5,0 299.5,0 305.5,0 311.5,-6 311.5,-12 311.5,-12 311.5,-41 311.5,-41 311.5,-47 305.5,-53 299.5,-53"/>
<text text-anchor="start" x="176.75" y="-35.7" font-family="Helvetica,sans-Serif" font-size="14.00">squared_error = 9.16</text>
<text text-anchor="start" x="199.25" y="-20.7" font-family="Helvetica,sans-Serif" font-size="14.00">samples = 30</text>
<text text-anchor="start" x="195.5" y="-5.7" font-family="Helvetica,sans-Serif" font-size="14.00">value = 27.163</text>
</g>
<!-- 5&#45;&gt;7 -->
<g id="edge7" class="edge">
<title>5&#45;&gt;7</title>
<path fill="none" stroke="black" d="M240.12,-88.68C240.12,-80.81 240.12,-72.37 240.12,-64.35"/>
<polygon fill="black" stroke="black" points="243.63,-64.39 240.12,-54.39 236.63,-64.39 243.63,-64.39"/>
</g>
<!-- 9 -->
<g id="node10" class="node">
<title>9</title>
<path fill="#f0b68d" stroke="black" d="M475,-53C475,-53 341.25,-53 341.25,-53 335.25,-53 329.25,-47 329.25,-41 329.25,-41 329.25,-12 329.25,-12 329.25,-6 335.25,0 341.25,0 341.25,0 475,0 475,0 481,0 487,-6 487,-12 487,-12 487,-41 487,-41 487,-47 481,-53 475,-53"/>
<text text-anchor="start" x="337.25" y="-35.7" font-family="Helvetica,sans-Serif" font-size="14.00">squared_error = 11.008</text>
<text text-anchor="start" x="367.25" y="-20.7" font-family="Helvetica,sans-Serif" font-size="14.00">samples = 41</text>
<text text-anchor="start" x="363.5" y="-5.7" font-family="Helvetica,sans-Serif" font-size="14.00">value = 32.944</text>
</g>
<!-- 8&#45;&gt;9 -->
<g id="edge9" class="edge">
<title>8&#45;&gt;9</title>
<path fill="none" stroke="black" d="M465.1,-88.68C456.84,-79.81 447.91,-70.23 439.63,-61.33"/>
<polygon fill="black" stroke="black" points="442.61,-59.33 433.24,-54.39 437.49,-64.1 442.61,-59.33"/>
</g>
<!-- 10 -->
<g id="node11" class="node">
<title>10</title>
<path fill="#f5ceb3" stroke="black" d="M643.25,-53C643.25,-53 517,-53 517,-53 511,-53 505,-47 505,-41 505,-41 505,-12 505,-12 505,-6 511,0 517,0 517,0 643.25,0 643.25,0 649.25,0 655.25,-6 655.25,-12 655.25,-12 655.25,-41 655.25,-41 655.25,-47 649.25,-53 643.25,-53"/>
<text text-anchor="start" x="513" y="-35.7" font-family="Helvetica,sans-Serif" font-size="14.00">squared_error = 1.229</text>
<text text-anchor="start" x="543" y="-20.7" font-family="Helvetica,sans-Serif" font-size="14.00">samples = 3</text>
<text text-anchor="start" x="535.5" y="-5.7" font-family="Helvetica,sans-Serif" font-size="14.00">value = 25.167</text>
</g>
<!-- 8&#45;&gt;10 -->
<g id="edge10" class="edge">
<title>8&#45;&gt;10</title>
<path fill="none" stroke="black" d="M525.74,-88.68C533.54,-79.9 541.97,-70.42 549.81,-61.6"/>
<polygon fill="black" stroke="black" points="552.08,-64.19 556.11,-54.39 546.85,-59.54 552.08,-64.19"/>
</g>
<!-- 12 -->
<g id="node13" class="node">
<title>12</title>
<path fill="#e78c4b" stroke="black" d="M1067,-261C1067,-261 933.25,-261 933.25,-261 927.25,-261 921.25,-255 921.25,-249 921.25,-249 921.25,-205 921.25,-205 921.25,-199 927.25,-193 933.25,-193 933.25,-193 1067,-193 1067,-193 1073,-193 1079,-199 1079,-205 1079,-205 1079,-249 1079,-249 1079,-255 1073,-261 1067,-261"/>
<text text-anchor="start" x="960.75" y="-243.7" font-family="Helvetica,sans-Serif" font-size="14.00">ptratio ≤ 14.8</text>
<text text-anchor="start" x="929.25" y="-228.7" font-family="Helvetica,sans-Serif" font-size="14.00">squared_error = 14.956</text>
<text text-anchor="start" x="959.25" y="-213.7" font-family="Helvetica,sans-Serif" font-size="14.00">samples = 26</text>
<text text-anchor="start" x="955.5" y="-198.7" font-family="Helvetica,sans-Serif" font-size="14.00">value = 46.312</text>
</g>
<!-- 11&#45;&gt;12 -->
<g id="edge12" class="edge">
<title>11&#45;&gt;12</title>
<path fill="none" stroke="black" d="M1054.6,-296.6C1047.82,-288.06 1040.44,-278.77 1033.37,-269.86"/>
<polygon fill="black" stroke="black" points="1035.67,-268.13 1026.71,-262.47 1030.18,-272.48 1035.67,-268.13"/>
</g>
<!-- 19 -->
<g id="node20" class="node">
<title>19</title>
<path fill="#f7d9c3" stroke="black" d="M1225,-253.5C1225,-253.5 1109.25,-253.5 1109.25,-253.5 1103.25,-253.5 1097.25,-247.5 1097.25,-241.5 1097.25,-241.5 1097.25,-212.5 1097.25,-212.5 1097.25,-206.5 1103.25,-200.5 1109.25,-200.5 1109.25,-200.5 1225,-200.5 1225,-200.5 1231,-200.5 1237,-206.5 1237,-212.5 1237,-212.5 1237,-241.5 1237,-241.5 1237,-247.5 1231,-253.5 1225,-253.5"/>
<text text-anchor="start" x="1105.25" y="-236.2" font-family="Helvetica,sans-Serif" font-size="14.00">squared_error = &#45;0.0</text>
<text text-anchor="start" x="1130" y="-221.2" font-family="Helvetica,sans-Serif" font-size="14.00">samples = 1</text>
<text text-anchor="start" x="1130" y="-206.2" font-family="Helvetica,sans-Serif" font-size="14.00">value = 21.9</text>
</g>
<!-- 11&#45;&gt;19 -->
<g id="edge19" class="edge">
<title>11&#45;&gt;19</title>
<path fill="none" stroke="black" d="M1109.28,-296.6C1118.65,-285.49 1129.09,-273.11 1138.5,-261.95"/>
<polygon fill="black" stroke="black" points="1141.68,-264.61 1145.45,-254.71 1136.33,-260.1 1141.68,-264.61"/>
</g>
<!-- 13 -->
<g id="node14" class="node">
<title>13</title>
<path fill="#e68641" stroke="black" d="M977.25,-157C977.25,-157 851,-157 851,-157 845,-157 839,-151 839,-145 839,-145 839,-101 839,-101 839,-95 845,-89 851,-89 851,-89 977.25,-89 977.25,-89 983.25,-89 989.25,-95 989.25,-101 989.25,-101 989.25,-145 989.25,-145 989.25,-151 983.25,-157 977.25,-157"/>
<text text-anchor="start" x="881.5" y="-139.7" font-family="Helvetica,sans-Serif" font-size="14.00">rm ≤ 7.706</text>
<text text-anchor="start" x="847" y="-124.7" font-family="Helvetica,sans-Serif" font-size="14.00">squared_error = 8.027</text>
<text text-anchor="start" x="873.25" y="-109.7" font-family="Helvetica,sans-Serif" font-size="14.00">samples = 14</text>
<text text-anchor="start" x="877" y="-94.7" font-family="Helvetica,sans-Serif" font-size="14.00">value = 48.3</text>
</g>
<!-- 12&#45;&gt;13 -->
<g id="edge13" class="edge">
<title>12&#45;&gt;13</title>
<path fill="none" stroke="black" d="M971.97,-192.6C964.76,-184.06 956.93,-174.77 949.42,-165.86"/>
<polygon fill="black" stroke="black" points="951.47,-163.86 942.35,-158.47 946.12,-168.37 951.47,-163.86"/>
</g>
<!-- 16 -->
<g id="node17" class="node">
<title>16</title>
<path fill="#e99456" stroke="black" d="M1153,-157C1153,-157 1019.25,-157 1019.25,-157 1013.25,-157 1007.25,-151 1007.25,-145 1007.25,-145 1007.25,-101 1007.25,-101 1007.25,-95 1013.25,-89 1019.25,-89 1019.25,-89 1153,-89 1153,-89 1159,-89 1165,-95 1165,-101 1165,-101 1165,-145 1165,-145 1165,-151 1159,-157 1153,-157"/>
<text text-anchor="start" x="1054.25" y="-139.7" font-family="Helvetica,sans-Serif" font-size="14.00">age ≤ 73.2</text>
<text text-anchor="start" x="1015.25" y="-124.7" font-family="Helvetica,sans-Serif" font-size="14.00">squared_error = 13.046</text>
<text text-anchor="start" x="1045.25" y="-109.7" font-family="Helvetica,sans-Serif" font-size="14.00">samples = 12</text>
<text text-anchor="start" x="1041.5" y="-94.7" font-family="Helvetica,sans-Serif" font-size="14.00">value = 43.992</text>
</g>
<!-- 12&#45;&gt;16 -->
<g id="edge16" class="edge">
<title>12&#45;&gt;16</title>
<path fill="none" stroke="black" d="M1028.28,-192.6C1035.49,-184.06 1043.32,-174.77 1050.83,-165.86"/>
<polygon fill="black" stroke="black" points="1054.13,-168.37 1057.9,-158.47 1048.78,-163.86 1054.13,-168.37"/>
</g>
<!-- 14 -->
<g id="node15" class="node">
<title>14</title>
<path fill="#e89153" stroke="black" d="M811.25,-53C811.25,-53 685,-53 685,-53 679,-53 673,-47 673,-41 673,-41 673,-12 673,-12 673,-6 679,0 685,0 685,0 811.25,0 811.25,0 817.25,0 823.25,-6 823.25,-12 823.25,-12 823.25,-41 823.25,-41 823.25,-47 817.25,-53 811.25,-53"/>
<text text-anchor="start" x="681" y="-35.7" font-family="Helvetica,sans-Serif" font-size="14.00">squared_error = 9.462</text>
<text text-anchor="start" x="711" y="-20.7" font-family="Helvetica,sans-Serif" font-size="14.00">samples = 4</text>
<text text-anchor="start" x="703.5" y="-5.7" font-family="Helvetica,sans-Serif" font-size="14.00">value = 44.725</text>
</g>
<!-- 13&#45;&gt;14 -->
<g id="edge14" class="edge">
<title>13&#45;&gt;14</title>
<path fill="none" stroke="black" d="M855.6,-88.68C838.43,-78.91 819.73,-68.26 802.81,-58.63"/>
<polygon fill="black" stroke="black" points="805.03,-55.3 794.61,-53.39 801.57,-61.38 805.03,-55.3"/>
</g>
<!-- 15 -->
<g id="node16" class="node">
<title>15</title>
<path fill="#e5823a" stroke="black" d="M979.25,-53C979.25,-53 853,-53 853,-53 847,-53 841,-47 841,-41 841,-41 841,-12 841,-12 841,-6 847,0 853,0 853,0 979.25,0 979.25,0 985.25,0 991.25,-6 991.25,-12 991.25,-12 991.25,-41 991.25,-41 991.25,-47 985.25,-53 979.25,-53"/>
<text text-anchor="start" x="849" y="-35.7" font-family="Helvetica,sans-Serif" font-size="14.00">squared_error = 0.296</text>
<text text-anchor="start" x="875.25" y="-20.7" font-family="Helvetica,sans-Serif" font-size="14.00">samples = 10</text>
<text text-anchor="start" x="875.25" y="-5.7" font-family="Helvetica,sans-Serif" font-size="14.00">value = 49.73</text>
</g>
<!-- 13&#45;&gt;15 -->
<g id="edge15" class="edge">
<title>13&#45;&gt;15</title>
<path fill="none" stroke="black" d="M914.83,-88.68C915,-80.81 915.18,-72.37 915.35,-64.35"/>
<polygon fill="black" stroke="black" points="918.86,-64.47 915.58,-54.39 911.87,-64.32 918.86,-64.47"/>
</g>
<!-- 17 -->
<g id="node18" class="node">
<title>17</title>
<path fill="#e88e4d" stroke="black" d="M1147.25,-53C1147.25,-53 1021,-53 1021,-53 1015,-53 1009,-47 1009,-41 1009,-41 1009,-12 1009,-12 1009,-6 1015,0 1021,0 1021,0 1147.25,0 1147.25,0 1153.25,0 1159.25,-6 1159.25,-12 1159.25,-12 1159.25,-41 1159.25,-41 1159.25,-47 1153.25,-53 1147.25,-53"/>
<text text-anchor="start" x="1017" y="-35.7" font-family="Helvetica,sans-Serif" font-size="14.00">squared_error = 5.137</text>
<text text-anchor="start" x="1047" y="-20.7" font-family="Helvetica,sans-Serif" font-size="14.00">samples = 8</text>
<text text-anchor="start" x="1039.5" y="-5.7" font-family="Helvetica,sans-Serif" font-size="14.00">value = 45.875</text>
</g>
<!-- 16&#45;&gt;17 -->
<g id="edge17" class="edge">
<title>16&#45;&gt;17</title>
<path fill="none" stroke="black" d="M1085.42,-88.68C1085.25,-80.81 1085.07,-72.37 1084.9,-64.35"/>
<polygon fill="black" stroke="black" points="1088.38,-64.32 1084.67,-54.39 1081.39,-64.47 1088.38,-64.32"/>
</g>
<!-- 18 -->
<g id="node19" class="node">
<title>18</title>
<path fill="#eb9f69" stroke="black" d="M1315.25,-53C1315.25,-53 1189,-53 1189,-53 1183,-53 1177,-47 1177,-41 1177,-41 1177,-12 1177,-12 1177,-6 1183,0 1189,0 1189,0 1315.25,0 1315.25,0 1321.25,0 1327.25,-6 1327.25,-12 1327.25,-12 1327.25,-41 1327.25,-41 1327.25,-47 1321.25,-53 1315.25,-53"/>
<text text-anchor="start" x="1185" y="-35.7" font-family="Helvetica,sans-Serif" font-size="14.00">squared_error = 7.582</text>
<text text-anchor="start" x="1215" y="-20.7" font-family="Helvetica,sans-Serif" font-size="14.00">samples = 4</text>
<text text-anchor="start" x="1207.5" y="-5.7" font-family="Helvetica,sans-Serif" font-size="14.00">value = 40.225</text>
</g>
<!-- 16&#45;&gt;18 -->
<g id="edge18" class="edge">
<title>16&#45;&gt;18</title>
<path fill="none" stroke="black" d="M1144.65,-88.68C1161.82,-78.91 1180.52,-68.26 1197.44,-58.63"/>
<polygon fill="black" stroke="black" points="1198.68,-61.38 1205.64,-53.39 1195.22,-55.3 1198.68,-61.38"/>
</g>
<!-- 21 -->
<g id="node22" class="node">
<title>21</title>
<path fill="#f7dac5" stroke="black" d="M1656,-365C1656,-365 1522.25,-365 1522.25,-365 1516.25,-365 1510.25,-359 1510.25,-353 1510.25,-353 1510.25,-309 1510.25,-309 1510.25,-303 1516.25,-297 1522.25,-297 1522.25,-297 1656,-297 1656,-297 1662,-297 1668,-303 1668,-309 1668,-309 1668,-353 1668,-353 1668,-359 1662,-365 1656,-365"/>
<text text-anchor="start" x="1556.12" y="-347.7" font-family="Helvetica,sans-Serif" font-size="14.00">dis ≤ 1.227</text>
<text text-anchor="start" x="1518.25" y="-332.7" font-family="Helvetica,sans-Serif" font-size="14.00">squared_error = 17.454</text>
<text text-anchor="start" x="1544.5" y="-317.7" font-family="Helvetica,sans-Serif" font-size="14.00">samples = 136</text>
<text text-anchor="start" x="1544.5" y="-302.7" font-family="Helvetica,sans-Serif" font-size="14.00">value = 21.349</text>
</g>
<!-- 20&#45;&gt;21 -->
<g id="edge21" class="edge">
<title>20&#45;&gt;21</title>
<path fill="none" stroke="black" d="M1589.12,-400.6C1589.12,-392.85 1589.12,-384.49 1589.12,-376.35"/>
<polygon fill="black" stroke="black" points="1592.63,-376.47 1589.12,-366.47 1585.63,-376.47 1592.63,-376.47"/>
</g>
<!-- 30 -->
<g id="node31" class="node">
<title>30</title>
<path fill="#fcefe6" stroke="black" d="M2419,-365C2419,-365 2285.25,-365 2285.25,-365 2279.25,-365 2273.25,-359 2273.25,-353 2273.25,-353 2273.25,-309 2273.25,-309 2273.25,-303 2279.25,-297 2285.25,-297 2285.25,-297 2419,-297 2419,-297 2425,-297 2431,-303 2431,-309 2431,-309 2431,-353 2431,-353 2431,-359 2425,-365 2419,-365"/>
<text text-anchor="start" x="2314.62" y="-347.7" font-family="Helvetica,sans-Serif" font-size="14.00">crim ≤ 5.769</text>
<text text-anchor="start" x="2281.25" y="-332.7" font-family="Helvetica,sans-Serif" font-size="14.00">squared_error = 19.773</text>
<text text-anchor="start" x="2307.5" y="-317.7" font-family="Helvetica,sans-Serif" font-size="14.00">samples = 123</text>
<text text-anchor="start" x="2307.5" y="-302.7" font-family="Helvetica,sans-Serif" font-size="14.00">value = 14.563</text>
</g>
<!-- 20&#45;&gt;30 -->
<g id="edge30" class="edge">
<title>20&#45;&gt;30</title>
<path fill="none" stroke="black" d="M1668.26,-423.42C1811.31,-404.3 2112.01,-364.1 2262.44,-343.99"/>
<polygon fill="black" stroke="black" points="2262.56,-347.37 2272.01,-342.58 2261.63,-340.43 2262.56,-347.37"/>
</g>
<!-- 22 -->
<g id="node23" class="node">
<title>22</title>
<path fill="#e58139" stroke="black" d="M1562.75,-253.5C1562.75,-253.5 1451.5,-253.5 1451.5,-253.5 1445.5,-253.5 1439.5,-247.5 1439.5,-241.5 1439.5,-241.5 1439.5,-212.5 1439.5,-212.5 1439.5,-206.5 1445.5,-200.5 1451.5,-200.5 1451.5,-200.5 1562.75,-200.5 1562.75,-200.5 1568.75,-200.5 1574.75,-206.5 1574.75,-212.5 1574.75,-212.5 1574.75,-241.5 1574.75,-241.5 1574.75,-247.5 1568.75,-253.5 1562.75,-253.5"/>
<text text-anchor="start" x="1447.5" y="-236.2" font-family="Helvetica,sans-Serif" font-size="14.00">squared_error = 0.0</text>
<text text-anchor="start" x="1470" y="-221.2" font-family="Helvetica,sans-Serif" font-size="14.00">samples = 1</text>
<text text-anchor="start" x="1470" y="-206.2" font-family="Helvetica,sans-Serif" font-size="14.00">value = 50.0</text>
</g>
<!-- 21&#45;&gt;22 -->
<g id="edge22" class="edge">
<title>21&#45;&gt;22</title>
<path fill="none" stroke="black" d="M1562.28,-296.6C1553.34,-285.49 1543.39,-273.11 1534.42,-261.95"/>
<polygon fill="black" stroke="black" points="1536.78,-260.31 1527.79,-254.71 1531.33,-264.69 1536.78,-260.31"/>
</g>
<!-- 23 -->
<g id="node24" class="node">
<title>23</title>
<path fill="#f8dbc6" stroke="black" d="M1739,-261C1739,-261 1605.25,-261 1605.25,-261 1599.25,-261 1593.25,-255 1593.25,-249 1593.25,-249 1593.25,-205 1593.25,-205 1593.25,-199 1599.25,-193 1605.25,-193 1605.25,-193 1739,-193 1739,-193 1745,-193 1751,-199 1751,-205 1751,-205 1751,-249 1751,-249 1751,-255 1745,-261 1739,-261"/>
<text text-anchor="start" x="1639.5" y="-243.7" font-family="Helvetica,sans-Serif" font-size="14.00">rm ≤ 6.553</text>
<text text-anchor="start" x="1601.25" y="-228.7" font-family="Helvetica,sans-Serif" font-size="14.00">squared_error = 11.457</text>
<text text-anchor="start" x="1627.5" y="-213.7" font-family="Helvetica,sans-Serif" font-size="14.00">samples = 135</text>
<text text-anchor="start" x="1627.5" y="-198.7" font-family="Helvetica,sans-Serif" font-size="14.00">value = 21.136</text>
</g>
<!-- 21&#45;&gt;23 -->
<g id="edge23" class="edge">
<title>21&#45;&gt;23</title>
<path fill="none" stroke="black" d="M1616.3,-296.6C1623.25,-288.06 1630.81,-278.77 1638.06,-269.86"/>
<polygon fill="black" stroke="black" points="1641.29,-272.44 1644.89,-262.47 1635.86,-268.02 1641.29,-272.44"/>
</g>
<!-- 24 -->
<g id="node25" class="node">
<title>24</title>
<path fill="#f8dcc8" stroke="black" d="M1649.25,-157C1649.25,-157 1523,-157 1523,-157 1517,-157 1511,-151 1511,-145 1511,-145 1511,-101 1511,-101 1511,-95 1517,-89 1523,-89 1523,-89 1649.25,-89 1649.25,-89 1655.25,-89 1661.25,-95 1661.25,-101 1661.25,-101 1661.25,-145 1661.25,-145 1661.25,-151 1655.25,-157 1649.25,-157"/>
<text text-anchor="start" x="1544.88" y="-139.7" font-family="Helvetica,sans-Serif" font-size="14.00">crim ≤ 25.998</text>
<text text-anchor="start" x="1519" y="-124.7" font-family="Helvetica,sans-Serif" font-size="14.00">squared_error = 8.473</text>
<text text-anchor="start" x="1541.5" y="-109.7" font-family="Helvetica,sans-Serif" font-size="14.00">samples = 123</text>
<text text-anchor="start" x="1549" y="-94.7" font-family="Helvetica,sans-Serif" font-size="14.00">value = 20.7</text>
</g>
<!-- 23&#45;&gt;24 -->
<g id="edge24" class="edge">
<title>23&#45;&gt;24</title>
<path fill="none" stroke="black" d="M1643.97,-192.6C1636.76,-184.06 1628.93,-174.77 1621.42,-165.86"/>
<polygon fill="black" stroke="black" points="1623.47,-163.86 1614.35,-158.47 1618.12,-168.37 1623.47,-163.86"/>
</g>
<!-- 27 -->
<g id="node28" class="node">
<title>27</title>
<path fill="#f5cdb0" stroke="black" d="M1825,-157C1825,-157 1691.25,-157 1691.25,-157 1685.25,-157 1679.25,-151 1679.25,-145 1679.25,-145 1679.25,-101 1679.25,-101 1679.25,-95 1685.25,-89 1691.25,-89 1691.25,-89 1825,-89 1825,-89 1831,-89 1837,-95 1837,-101 1837,-101 1837,-145 1837,-145 1837,-151 1831,-157 1825,-157"/>
<text text-anchor="start" x="1731.5" y="-139.7" font-family="Helvetica,sans-Serif" font-size="14.00">rad ≤ 5.5</text>
<text text-anchor="start" x="1687.25" y="-124.7" font-family="Helvetica,sans-Serif" font-size="14.00">squared_error = 20.101</text>
<text text-anchor="start" x="1717.25" y="-109.7" font-family="Helvetica,sans-Serif" font-size="14.00">samples = 12</text>
<text text-anchor="start" x="1713.5" y="-94.7" font-family="Helvetica,sans-Serif" font-size="14.00">value = 25.608</text>
</g>
<!-- 23&#45;&gt;27 -->
<g id="edge27" class="edge">
<title>23&#45;&gt;27</title>
<path fill="none" stroke="black" d="M1700.28,-192.6C1707.49,-184.06 1715.32,-174.77 1722.83,-165.86"/>
<polygon fill="black" stroke="black" points="1726.13,-168.37 1729.9,-158.47 1720.78,-163.86 1726.13,-168.37"/>
</g>
<!-- 25 -->
<g id="node26" class="node">
<title>25</title>
<path fill="#f8dcc8" stroke="black" d="M1483.25,-53C1483.25,-53 1357,-53 1357,-53 1351,-53 1345,-47 1345,-41 1345,-41 1345,-12 1345,-12 1345,-6 1351,0 1357,0 1357,0 1483.25,0 1483.25,0 1489.25,0 1495.25,-6 1495.25,-12 1495.25,-12 1495.25,-41 1495.25,-41 1495.25,-47 1489.25,-53 1483.25,-53"/>
<text text-anchor="start" x="1353" y="-35.7" font-family="Helvetica,sans-Serif" font-size="14.00">squared_error = 7.534</text>
<text text-anchor="start" x="1375.5" y="-20.7" font-family="Helvetica,sans-Serif" font-size="14.00">samples = 121</text>
<text text-anchor="start" x="1375.5" y="-5.7" font-family="Helvetica,sans-Serif" font-size="14.00">value = 20.828</text>
</g>
<!-- 24&#45;&gt;25 -->
<g id="edge25" class="edge">
<title>24&#45;&gt;25</title>
<path fill="none" stroke="black" d="M1527.6,-88.68C1510.43,-78.91 1491.73,-68.26 1474.81,-58.63"/>
<polygon fill="black" stroke="black" points="1477.03,-55.3 1466.61,-53.39 1473.57,-61.38 1477.03,-55.3"/>
</g>
<!-- 26 -->
<g id="node27" class="node">
<title>26</title>
<path fill="#fdf4ee" stroke="black" d="M1651.25,-53C1651.25,-53 1525,-53 1525,-53 1519,-53 1513,-47 1513,-41 1513,-41 1513,-12 1513,-12 1513,-6 1519,0 1525,0 1525,0 1651.25,0 1651.25,0 1657.25,0 1663.25,-6 1663.25,-12 1663.25,-12 1663.25,-41 1663.25,-41 1663.25,-47 1657.25,-53 1651.25,-53"/>
<text text-anchor="start" x="1521" y="-35.7" font-family="Helvetica,sans-Serif" font-size="14.00">squared_error = 4.203</text>
<text text-anchor="start" x="1551" y="-20.7" font-family="Helvetica,sans-Serif" font-size="14.00">samples = 2</text>
<text text-anchor="start" x="1547.25" y="-5.7" font-family="Helvetica,sans-Serif" font-size="14.00">value = 12.95</text>
</g>
<!-- 24&#45;&gt;26 -->
<g id="edge26" class="edge">
<title>24&#45;&gt;26</title>
<path fill="none" stroke="black" d="M1586.83,-88.68C1587,-80.81 1587.18,-72.37 1587.35,-64.35"/>
<polygon fill="black" stroke="black" points="1590.86,-64.47 1587.58,-54.39 1583.87,-64.32 1590.86,-64.47"/>
</g>
<!-- 28 -->
<g id="node29" class="node">
<title>28</title>
<path fill="#f2c09d" stroke="black" d="M1819.25,-53C1819.25,-53 1693,-53 1693,-53 1687,-53 1681,-47 1681,-41 1681,-41 1681,-12 1681,-12 1681,-6 1687,0 1693,0 1693,0 1819.25,0 1819.25,0 1825.25,0 1831.25,-6 1831.25,-12 1831.25,-12 1831.25,-41 1831.25,-41 1831.25,-47 1825.25,-53 1819.25,-53"/>
<text text-anchor="start" x="1689" y="-35.7" font-family="Helvetica,sans-Serif" font-size="14.00">squared_error = 1.774</text>
<text text-anchor="start" x="1719" y="-20.7" font-family="Helvetica,sans-Serif" font-size="14.00">samples = 5</text>
<text text-anchor="start" x="1715.25" y="-5.7" font-family="Helvetica,sans-Serif" font-size="14.00">value = 29.64</text>
</g>
<!-- 27&#45;&gt;28 -->
<g id="edge28" class="edge">
<title>27&#45;&gt;28</title>
<path fill="none" stroke="black" d="M1757.42,-88.68C1757.25,-80.81 1757.07,-72.37 1756.9,-64.35"/>
<polygon fill="black" stroke="black" points="1760.38,-64.32 1756.67,-54.39 1753.39,-64.47 1760.38,-64.32"/>
</g>
<!-- 29 -->
<g id="node30" class="node">
<title>29</title>
<path fill="#f7d6bf" stroke="black" d="M1995,-53C1995,-53 1861.25,-53 1861.25,-53 1855.25,-53 1849.25,-47 1849.25,-41 1849.25,-41 1849.25,-12 1849.25,-12 1849.25,-6 1855.25,0 1861.25,0 1861.25,0 1995,0 1995,0 2001,0 2007,-6 2007,-12 2007,-12 2007,-41 2007,-41 2007,-47 2001,-53 1995,-53"/>
<text text-anchor="start" x="1857.25" y="-35.7" font-family="Helvetica,sans-Serif" font-size="14.00">squared_error = 13.288</text>
<text text-anchor="start" x="1891" y="-20.7" font-family="Helvetica,sans-Serif" font-size="14.00">samples = 7</text>
<text text-anchor="start" x="1883.5" y="-5.7" font-family="Helvetica,sans-Serif" font-size="14.00">value = 22.729</text>
</g>
<!-- 27&#45;&gt;29 -->
<g id="edge29" class="edge">
<title>27&#45;&gt;29</title>
<path fill="none" stroke="black" d="M1818.06,-88.68C1835.64,-78.91 1854.8,-68.26 1872.13,-58.63"/>
<polygon fill="black" stroke="black" points="1873.5,-61.31 1880.54,-53.39 1870.1,-55.19 1873.5,-61.31"/>
</g>
<!-- 31 -->
<g id="node32" class="node">
<title>31</title>
<path fill="#fae7d9" stroke="black" d="M2419,-261C2419,-261 2285.25,-261 2285.25,-261 2279.25,-261 2273.25,-255 2273.25,-249 2273.25,-249 2273.25,-205 2273.25,-205 2273.25,-199 2279.25,-193 2285.25,-193 2285.25,-193 2419,-193 2419,-193 2425,-193 2431,-199 2431,-205 2431,-205 2431,-249 2431,-249 2431,-255 2425,-261 2419,-261"/>
<text text-anchor="start" x="2316.88" y="-243.7" font-family="Helvetica,sans-Serif" font-size="14.00">nox ≤ 0.531</text>
<text text-anchor="start" x="2281.25" y="-228.7" font-family="Helvetica,sans-Serif" font-size="14.00">squared_error = 10.955</text>
<text text-anchor="start" x="2311.25" y="-213.7" font-family="Helvetica,sans-Serif" font-size="14.00">samples = 57</text>
<text text-anchor="start" x="2307.5" y="-198.7" font-family="Helvetica,sans-Serif" font-size="14.00">value = 17.316</text>
</g>
<!-- 30&#45;&gt;31 -->
<g id="edge31" class="edge">
<title>30&#45;&gt;31</title>
<path fill="none" stroke="black" d="M2352.12,-296.6C2352.12,-288.85 2352.12,-280.49 2352.12,-272.35"/>
<polygon fill="black" stroke="black" points="2355.63,-272.47 2352.12,-262.47 2348.63,-272.47 2355.63,-272.47"/>
</g>
<!-- 38 -->
<g id="node39" class="node">
<title>38</title>
<path fill="#fdf7f2" stroke="black" d="M2914,-261C2914,-261 2780.25,-261 2780.25,-261 2774.25,-261 2768.25,-255 2768.25,-249 2768.25,-249 2768.25,-205 2768.25,-205 2768.25,-199 2774.25,-193 2780.25,-193 2780.25,-193 2914,-193 2914,-193 2920,-193 2926,-199 2926,-205 2926,-205 2926,-249 2926,-249 2926,-255 2920,-261 2914,-261"/>
<text text-anchor="start" x="2806.62" y="-243.7" font-family="Helvetica,sans-Serif" font-size="14.00">lstat ≤ 20.195</text>
<text text-anchor="start" x="2776.25" y="-228.7" font-family="Helvetica,sans-Serif" font-size="14.00">squared_error = 15.196</text>
<text text-anchor="start" x="2806.25" y="-213.7" font-family="Helvetica,sans-Serif" font-size="14.00">samples = 66</text>
<text text-anchor="start" x="2802.5" y="-198.7" font-family="Helvetica,sans-Serif" font-size="14.00">value = 12.186</text>
</g>
<!-- 30&#45;&gt;38 -->
<g id="edge38" class="edge">
<title>30&#45;&gt;38</title>
<path fill="none" stroke="black" d="M2431.38,-313.67C2520.4,-295.32 2664.57,-265.62 2757.59,-246.45"/>
<polygon fill="black" stroke="black" points="2758.02,-249.73 2767.11,-244.28 2756.61,-242.87 2758.02,-249.73"/>
</g>
<!-- 32 -->
<g id="node33" class="node">
<title>32</title>
<path fill="#f8decb" stroke="black" d="M2331.25,-157C2331.25,-157 2205,-157 2205,-157 2199,-157 2193,-151 2193,-145 2193,-145 2193,-101 2193,-101 2193,-95 2199,-89 2205,-89 2205,-89 2331.25,-89 2331.25,-89 2337.25,-89 2343.25,-95 2343.25,-101 2343.25,-101 2343.25,-145 2343.25,-145 2343.25,-151 2337.25,-157 2331.25,-157"/>
<text text-anchor="start" x="2231.38" y="-139.7" font-family="Helvetica,sans-Serif" font-size="14.00">lstat ≤ 29.74</text>
<text text-anchor="start" x="2201" y="-124.7" font-family="Helvetica,sans-Serif" font-size="14.00">squared_error = 8.972</text>
<text text-anchor="start" x="2227.25" y="-109.7" font-family="Helvetica,sans-Serif" font-size="14.00">samples = 16</text>
<text text-anchor="start" x="2223.5" y="-94.7" font-family="Helvetica,sans-Serif" font-size="14.00">value = 20.244</text>
</g>
<!-- 31&#45;&gt;32 -->
<g id="edge32" class="edge">
<title>31&#45;&gt;32</title>
<path fill="none" stroke="black" d="M2324.62,-192.6C2317.59,-184.06 2309.93,-174.77 2302.6,-165.86"/>
<polygon fill="black" stroke="black" points="2304.75,-163.97 2295.69,-158.47 2299.35,-168.42 2304.75,-163.97"/>
</g>
<!-- 35 -->
<g id="node36" class="node">
<title>35</title>
<path fill="#fbeadf" stroke="black" d="M2499.25,-157C2499.25,-157 2373,-157 2373,-157 2367,-157 2361,-151 2361,-145 2361,-145 2361,-101 2361,-101 2361,-95 2367,-89 2373,-89 2373,-89 2499.25,-89 2499.25,-89 2505.25,-89 2511.25,-95 2511.25,-101 2511.25,-101 2511.25,-145 2511.25,-145 2511.25,-151 2505.25,-157 2499.25,-157"/>
<text text-anchor="start" x="2400.5" y="-139.7" font-family="Helvetica,sans-Serif" font-size="14.00">age ≤ 82.55</text>
<text text-anchor="start" x="2369" y="-124.7" font-family="Helvetica,sans-Serif" font-size="14.00">squared_error = 7.078</text>
<text text-anchor="start" x="2395.25" y="-109.7" font-family="Helvetica,sans-Serif" font-size="14.00">samples = 41</text>
<text text-anchor="start" x="2391.5" y="-94.7" font-family="Helvetica,sans-Serif" font-size="14.00">value = 16.173</text>
</g>
<!-- 31&#45;&gt;35 -->
<g id="edge35" class="edge">
<title>31&#45;&gt;35</title>
<path fill="none" stroke="black" d="M2379.63,-192.6C2386.66,-184.06 2394.32,-174.77 2401.65,-165.86"/>
<polygon fill="black" stroke="black" points="2404.9,-168.42 2408.56,-158.47 2399.5,-163.97 2404.9,-168.42"/>
</g>
<!-- 33 -->
<g id="node34" class="node">
<title>33</title>
<path fill="#f8dcc7" stroke="black" d="M2163.25,-53C2163.25,-53 2037,-53 2037,-53 2031,-53 2025,-47 2025,-41 2025,-41 2025,-12 2025,-12 2025,-6 2031,0 2037,0 2037,0 2163.25,0 2163.25,0 2169.25,0 2175.25,-6 2175.25,-12 2175.25,-12 2175.25,-41 2175.25,-41 2175.25,-47 2169.25,-53 2163.25,-53"/>
<text text-anchor="start" x="2033" y="-35.7" font-family="Helvetica,sans-Serif" font-size="14.00">squared_error = 6.345</text>
<text text-anchor="start" x="2059.25" y="-20.7" font-family="Helvetica,sans-Serif" font-size="14.00">samples = 14</text>
<text text-anchor="start" x="2055.5" y="-5.7" font-family="Helvetica,sans-Serif" font-size="14.00">value = 20.929</text>
</g>
<!-- 32&#45;&gt;33 -->
<g id="edge33" class="edge">
<title>32&#45;&gt;33</title>
<path fill="none" stroke="black" d="M2208.89,-88.68C2191.52,-78.91 2172.59,-68.26 2155.46,-58.63"/>
<polygon fill="black" stroke="black" points="2157.59,-55.25 2147.16,-53.39 2154.16,-61.35 2157.59,-55.25"/>
</g>
<!-- 34 -->
<g id="node35" class="node">
<title>34</title>
<path fill="#fbede2" stroke="black" d="M2331.25,-53C2331.25,-53 2205,-53 2205,-53 2199,-53 2193,-47 2193,-41 2193,-41 2193,-12 2193,-12 2193,-6 2199,0 2205,0 2205,0 2331.25,0 2331.25,0 2337.25,0 2343.25,-6 2343.25,-12 2343.25,-12 2343.25,-41 2343.25,-41 2343.25,-47 2337.25,-53 2331.25,-53"/>
<text text-anchor="start" x="2201" y="-35.7" font-family="Helvetica,sans-Serif" font-size="14.00">squared_error = 1.102</text>
<text text-anchor="start" x="2231" y="-20.7" font-family="Helvetica,sans-Serif" font-size="14.00">samples = 2</text>
<text text-anchor="start" x="2227.25" y="-5.7" font-family="Helvetica,sans-Serif" font-size="14.00">value = 15.45</text>
</g>
<!-- 32&#45;&gt;34 -->
<g id="edge34" class="edge">
<title>32&#45;&gt;34</title>
<path fill="none" stroke="black" d="M2268.12,-88.68C2268.12,-80.81 2268.12,-72.37 2268.12,-64.35"/>
<polygon fill="black" stroke="black" points="2271.63,-64.39 2268.12,-54.39 2264.63,-64.39 2271.63,-64.39"/>
</g>
<!-- 36 -->
<g id="node37" class="node">
<title>36</title>
<path fill="#f8decb" stroke="black" d="M2499.25,-53C2499.25,-53 2373,-53 2373,-53 2367,-53 2361,-47 2361,-41 2361,-41 2361,-12 2361,-12 2361,-6 2367,0 2373,0 2373,0 2499.25,0 2499.25,0 2505.25,0 2511.25,-6 2511.25,-12 2511.25,-12 2511.25,-41 2511.25,-41 2511.25,-47 2505.25,-53 2499.25,-53"/>
<text text-anchor="start" x="2369" y="-35.7" font-family="Helvetica,sans-Serif" font-size="14.00">squared_error = 3.342</text>
<text text-anchor="start" x="2399" y="-20.7" font-family="Helvetica,sans-Serif" font-size="14.00">samples = 5</text>
<text text-anchor="start" x="2395.25" y="-5.7" font-family="Helvetica,sans-Serif" font-size="14.00">value = 20.12</text>
</g>
<!-- 35&#45;&gt;36 -->
<g id="edge36" class="edge">
<title>35&#45;&gt;36</title>
<path fill="none" stroke="black" d="M2436.12,-88.68C2436.12,-80.81 2436.12,-72.37 2436.12,-64.35"/>
<polygon fill="black" stroke="black" points="2439.63,-64.39 2436.12,-54.39 2432.63,-64.39 2439.63,-64.39"/>
</g>
<!-- 37 -->
<g id="node38" class="node">
<title>37</title>
<path fill="#fbece1" stroke="black" d="M2667.25,-53C2667.25,-53 2541,-53 2541,-53 2535,-53 2529,-47 2529,-41 2529,-41 2529,-12 2529,-12 2529,-6 2535,0 2541,0 2541,0 2667.25,0 2667.25,0 2673.25,0 2679.25,-6 2679.25,-12 2679.25,-12 2679.25,-41 2679.25,-41 2679.25,-47 2673.25,-53 2667.25,-53"/>
<text text-anchor="start" x="2537" y="-35.7" font-family="Helvetica,sans-Serif" font-size="14.00">squared_error = 5.132</text>
<text text-anchor="start" x="2563.25" y="-20.7" font-family="Helvetica,sans-Serif" font-size="14.00">samples = 36</text>
<text text-anchor="start" x="2559.5" y="-5.7" font-family="Helvetica,sans-Serif" font-size="14.00">value = 15.625</text>
</g>
<!-- 35&#45;&gt;37 -->
<g id="edge37" class="edge">
<title>35&#45;&gt;37</title>
<path fill="none" stroke="black" d="M2495.36,-88.68C2512.73,-78.91 2531.66,-68.26 2548.79,-58.63"/>
<polygon fill="black" stroke="black" points="2550.09,-61.35 2557.09,-53.39 2546.66,-55.25 2550.09,-61.35"/>
</g>
<!-- 39 -->
<g id="node40" class="node">
<title>39</title>
<path fill="#fcf0e7" stroke="black" d="M2914,-157C2914,-157 2780.25,-157 2780.25,-157 2774.25,-157 2768.25,-151 2768.25,-145 2768.25,-145 2768.25,-101 2768.25,-101 2768.25,-95 2774.25,-89 2780.25,-89 2780.25,-89 2914,-89 2914,-89 2920,-89 2926,-95 2926,-101 2926,-101 2926,-145 2926,-145 2926,-151 2920,-157 2914,-157"/>
<text text-anchor="start" x="2806.62" y="-139.7" font-family="Helvetica,sans-Serif" font-size="14.00">lstat ≤ 19.775</text>
<text text-anchor="start" x="2776.25" y="-124.7" font-family="Helvetica,sans-Serif" font-size="14.00">squared_error = 12.268</text>
<text text-anchor="start" x="2806.25" y="-109.7" font-family="Helvetica,sans-Serif" font-size="14.00">samples = 29</text>
<text text-anchor="start" x="2802.5" y="-94.7" font-family="Helvetica,sans-Serif" font-size="14.00">value = 14.434</text>
</g>
<!-- 38&#45;&gt;39 -->
<g id="edge39" class="edge">
<title>38&#45;&gt;39</title>
<path fill="none" stroke="black" d="M2847.12,-192.6C2847.12,-184.85 2847.12,-176.49 2847.12,-168.35"/>
<polygon fill="black" stroke="black" points="2850.63,-168.47 2847.12,-158.47 2843.63,-168.47 2850.63,-168.47"/>
</g>
<!-- 42 -->
<g id="node43" class="node">
<title>42</title>
<path fill="#fefcfb" stroke="black" d="M3169,-157C3169,-157 3035.25,-157 3035.25,-157 3029.25,-157 3023.25,-151 3023.25,-145 3023.25,-145 3023.25,-101 3023.25,-101 3023.25,-95 3029.25,-89 3035.25,-89 3035.25,-89 3169,-89 3169,-89 3175,-89 3181,-95 3181,-101 3181,-101 3181,-145 3181,-145 3181,-151 3175,-157 3169,-157"/>
<text text-anchor="start" x="3066.88" y="-139.7" font-family="Helvetica,sans-Serif" font-size="14.00">nox ≤ 0.669</text>
<text text-anchor="start" x="3031.25" y="-124.7" font-family="Helvetica,sans-Serif" font-size="14.00">squared_error = 10.425</text>
<text text-anchor="start" x="3061.25" y="-109.7" font-family="Helvetica,sans-Serif" font-size="14.00">samples = 37</text>
<text text-anchor="start" x="3057.5" y="-94.7" font-family="Helvetica,sans-Serif" font-size="14.00">value = 10.424</text>
</g>
<!-- 38&#45;&gt;42 -->
<g id="edge42" class="edge">
<title>38&#45;&gt;42</title>
<path fill="none" stroke="black" d="M2926.41,-194.29C2953.88,-183.3 2984.84,-170.91 3013.04,-159.63"/>
<polygon fill="black" stroke="black" points="3013.9,-162.66 3021.89,-155.69 3011.3,-156.16 3013.9,-162.66"/>
</g>
<!-- 40 -->
<g id="node41" class="node">
<title>40</title>
<path fill="#fcf2ea" stroke="black" d="M2828.5,-53C2828.5,-53 2709.75,-53 2709.75,-53 2703.75,-53 2697.75,-47 2697.75,-41 2697.75,-41 2697.75,-12 2697.75,-12 2697.75,-6 2703.75,0 2709.75,0 2709.75,0 2828.5,0 2828.5,0 2834.5,0 2840.5,-6 2840.5,-12 2840.5,-12 2840.5,-41 2840.5,-41 2840.5,-47 2834.5,-53 2828.5,-53"/>
<text text-anchor="start" x="2705.75" y="-35.7" font-family="Helvetica,sans-Serif" font-size="14.00">squared_error = 6.42</text>
<text text-anchor="start" x="2728.25" y="-20.7" font-family="Helvetica,sans-Serif" font-size="14.00">samples = 27</text>
<text text-anchor="start" x="2724.5" y="-5.7" font-family="Helvetica,sans-Serif" font-size="14.00">value = 13.881</text>
</g>
<!-- 39&#45;&gt;40 -->
<g id="edge40" class="edge">
<title>39&#45;&gt;40</title>
<path fill="none" stroke="black" d="M2819.63,-88.68C2812.45,-79.99 2804.71,-70.62 2797.5,-61.87"/>
<polygon fill="black" stroke="black" points="2799.56,-59.88 2790.5,-54.39 2794.16,-64.33 2799.56,-59.88"/>
</g>
<!-- 41 -->
<g id="node42" class="node">
<title>41</title>
<path fill="#f7d9c3" stroke="black" d="M2997.25,-53C2997.25,-53 2871,-53 2871,-53 2865,-53 2859,-47 2859,-41 2859,-41 2859,-12 2859,-12 2859,-6 2865,0 2871,0 2871,0 2997.25,0 2997.25,0 3003.25,0 3009.25,-6 3009.25,-12 3009.25,-12 3009.25,-41 3009.25,-41 3009.25,-47 3003.25,-53 2997.25,-53"/>
<text text-anchor="start" x="2867" y="-35.7" font-family="Helvetica,sans-Serif" font-size="14.00">squared_error = 31.36</text>
<text text-anchor="start" x="2897" y="-20.7" font-family="Helvetica,sans-Serif" font-size="14.00">samples = 2</text>
<text text-anchor="start" x="2897" y="-5.7" font-family="Helvetica,sans-Serif" font-size="14.00">value = 21.9</text>
</g>
<!-- 39&#45;&gt;41 -->
<g id="edge41" class="edge">
<title>39&#45;&gt;41</title>
<path fill="none" stroke="black" d="M2877.8,-88.68C2885.96,-79.81 2894.79,-70.23 2902.98,-61.33"/>
<polygon fill="black" stroke="black" points="2905.09,-64.12 2909.29,-54.39 2899.94,-59.38 2905.09,-64.12"/>
</g>
<!-- 43 -->
<g id="node44" class="node">
<title>43</title>
<path fill="#fbebe0" stroke="black" d="M3165.25,-53C3165.25,-53 3039,-53 3039,-53 3033,-53 3027,-47 3027,-41 3027,-41 3027,-12 3027,-12 3027,-6 3033,0 3039,0 3039,0 3165.25,0 3165.25,0 3171.25,0 3177.25,-6 3177.25,-12 3177.25,-12 3177.25,-41 3177.25,-41 3177.25,-47 3171.25,-53 3165.25,-53"/>
<text text-anchor="start" x="3035" y="-35.7" font-family="Helvetica,sans-Serif" font-size="14.00">squared_error = 3.234</text>
<text text-anchor="start" x="3065" y="-20.7" font-family="Helvetica,sans-Serif" font-size="14.00">samples = 5</text>
<text text-anchor="start" x="3061.25" y="-5.7" font-family="Helvetica,sans-Serif" font-size="14.00">value = 15.98</text>
</g>
<!-- 42&#45;&gt;43 -->
<g id="edge43" class="edge">
<title>42&#45;&gt;43</title>
<path fill="none" stroke="black" d="M3102.12,-88.68C3102.12,-80.81 3102.12,-72.37 3102.12,-64.35"/>
<polygon fill="black" stroke="black" points="3105.63,-64.39 3102.12,-54.39 3098.63,-64.39 3105.63,-64.39"/>
</g>
<!-- 44 -->
<g id="node45" class="node">
<title>44</title>
<path fill="#ffffff" stroke="black" d="M3333.25,-53C3333.25,-53 3207,-53 3207,-53 3201,-53 3195,-47 3195,-41 3195,-41 3195,-12 3195,-12 3195,-6 3201,0 3207,0 3207,0 3333.25,0 3333.25,0 3339.25,0 3345.25,-6 3345.25,-12 3345.25,-12 3345.25,-41 3345.25,-41 3345.25,-47 3339.25,-53 3333.25,-53"/>
<text text-anchor="start" x="3203" y="-35.7" font-family="Helvetica,sans-Serif" font-size="14.00">squared_error = 5.972</text>
<text text-anchor="start" x="3229.25" y="-20.7" font-family="Helvetica,sans-Serif" font-size="14.00">samples = 32</text>
<text text-anchor="start" x="3229.25" y="-5.7" font-family="Helvetica,sans-Serif" font-size="14.00">value = 9.556</text>
</g>
<!-- 42&#45;&gt;44 -->
<g id="edge44" class="edge">
<title>42&#45;&gt;44</title>
<path fill="none" stroke="black" d="M3161.36,-88.68C3178.73,-78.91 3197.66,-68.26 3214.79,-58.63"/>
<polygon fill="black" stroke="black" points="3216.09,-61.35 3223.09,-53.39 3212.66,-55.25 3216.09,-61.35"/>
</g>
</g>
</svg>