<?xml version="1.0" encoding="utf-8" standalone="no"?>
<!DOCTYPE svg PUBLIC "-//W3C//DTD SVG 1.1//EN"
  "http://www.w3.org/Graphics/SVG/1.1/DTD/svg11.dtd">
<svg xmlns:xlink="http://www.w3.org/1999/xlink" width="394.423125pt" height="297.190125pt" viewBox="0 0 394.423125 297.190125" xmlns="http://www.w3.org/2000/svg" version="1.1">
 <metadata>
  <rdf:RDF xmlns:dc="http://purl.org/dc/elements/1.1/" xmlns:cc="http://creativecommons.org/ns#" xmlns:rdf="http://www.w3.org/1999/02/22-rdf-syntax-ns#">
   <cc:Work>
    <dc:type rdf:resource="http://purl.org/dc/dcmitype/StillImage"/>
    <dc:date>2024-03-09T11:41:15.570040</dc:date>
    <dc:format>image/svg+xml</dc:format>
    <dc:creator>
     <cc:Agent>
      <dc:title>Matplotlib v3.7.1, https://matplotlib.org/</dc:title>
     </cc:Agent>
    </dc:creator>
   </cc:Work>
  </rdf:RDF>
 </metadata>
 <defs>
  <style type="text/css">*{stroke-linejoin: round; stroke-linecap: butt}</style>
 </defs>
 <g id="figure_1">
  <g id="patch_1">
   <path d="M 0 297.190125 
L 394.423125 297.190125 
L 394.423125 0 
L 0 0 
z
" style="fill: #ffffff"/>
  </g>
  <g id="axes_1">
   <g id="patch_2">
    <path d="M 30.103125 273.312 
L 387.223125 273.312 
L 387.223125 7.2 
L 30.103125 7.2 
z
" style="fill: #ffffff"/>
   </g>
   <g id="PathCollection_1">
    <defs>
     <path id="m0e63d49c43" d="M 0 1.581139 
C 0.419323 1.581139 0.821528 1.41454 1.118034 1.118034 
C 1.41454 0.821528 1.581139 0.419323 1.581139 0 
C 1.581139 -0.419323 1.41454 -0.821528 1.118034 -1.118034 
C 0.821528 -1.41454 0.419323 -1.581139 0 -1.581139 
C -0.419323 -1.581139 -0.821528 -1.41454 -1.118034 -1.118034 
C -1.41454 -0.821528 -1.581139 -0.419323 -1.581139 0 
C -1.581139 0.419323 -1.41454 0.821528 -1.118034 1.118034 
C -0.821528 1.41454 -0.419323 1.581139 0 1.581139 
z
" style="stroke: #0000ff"/>
    </defs>
    <g clip-path="url(#p021d7d4c4e)">
     <use xlink:href="#m0e63d49c43" x="46.335852" y="149.042362" style="fill: #0000ff; stroke: #0000ff"/>
     <use xlink:href="#m0e63d49c43" x="49.615191" y="107.517577" style="fill: #0000ff; stroke: #0000ff"/>
     <use xlink:href="#m0e63d49c43" x="52.89453" y="57.038985" style="fill: #0000ff; stroke: #0000ff"/>
     <use xlink:href="#m0e63d49c43" x="56.173869" y="119.958646" style="fill: #0000ff; stroke: #0000ff"/>
     <use xlink:href="#m0e63d49c43" x="59.453208" y="211.503714" style="fill: #0000ff; stroke: #0000ff"/>
     <use xlink:href="#m0e63d49c43" x="62.732546" y="45.888467" style="fill: #0000ff; stroke: #0000ff"/>
     <use xlink:href="#m0e63d49c43" x="66.011885" y="94.001181" style="fill: #0000ff; stroke: #0000ff"/>
     <use xlink:href="#m0e63d49c43" x="69.291224" y="51.881098" style="fill: #0000ff; stroke: #0000ff"/>
     <use xlink:href="#m0e63d49c43" x="72.570563" y="82.770666" style="fill: #0000ff; stroke: #0000ff"/>
     <use xlink:href="#m0e63d49c43" x="75.849902" y="106.01217" style="fill: #0000ff; stroke: #0000ff"/>
     <use xlink:href="#m0e63d49c43" x="79.129241" y="129.558419" style="fill: #0000ff; stroke: #0000ff"/>
     <use xlink:href="#m0e63d49c43" x="82.40858" y="92.560173" style="fill: #0000ff; stroke: #0000ff"/>
     <use xlink:href="#m0e63d49c43" x="85.687918" y="124.947351" style="fill: #0000ff; stroke: #0000ff"/>
     <use xlink:href="#m0e63d49c43" x="88.967257" y="58.635645" style="fill: #0000ff; stroke: #0000ff"/>
     <use xlink:href="#m0e63d49c43" x="92.246596" y="134.737978" style="fill: #0000ff; stroke: #0000ff"/>
     <use xlink:href="#m0e63d49c43" x="95.525935" y="91.064415" style="fill: #0000ff; stroke: #0000ff"/>
     <use xlink:href="#m0e63d49c43" x="98.805274" y="140.774162" style="fill: #0000ff; stroke: #0000ff"/>
     <use xlink:href="#m0e63d49c43" x="102.084613" y="168.623106" style="fill: #0000ff; stroke: #0000ff"/>
     <use xlink:href="#m0e63d49c43" x="105.363951" y="87.918571" style="fill: #0000ff; stroke: #0000ff"/>
     <use xlink:href="#m0e63d49c43" x="108.64329" y="246.014839" style="fill: #0000ff; stroke: #0000ff"/>
     <use xlink:href="#m0e63d49c43" x="111.922629" y="65.312544" style="fill: #0000ff; stroke: #0000ff"/>
     <use xlink:href="#m0e63d49c43" x="115.201968" y="110.885899" style="fill: #0000ff; stroke: #0000ff"/>
     <use xlink:href="#m0e63d49c43" x="118.481307" y="88.312958" style="fill: #0000ff; stroke: #0000ff"/>
     <use xlink:href="#m0e63d49c43" x="121.760646" y="19.296" style="fill: #0000ff; stroke: #0000ff"/>
     <use xlink:href="#m0e63d49c43" x="125.039985" y="132.113697" style="fill: #0000ff; stroke: #0000ff"/>
     <use xlink:href="#m0e63d49c43" x="128.319323" y="134.516287" style="fill: #0000ff; stroke: #0000ff"/>
     <use xlink:href="#m0e63d49c43" x="131.598662" y="120.704811" style="fill: #0000ff; stroke: #0000ff"/>
     <use xlink:href="#m0e63d49c43" x="134.878001" y="92.629538" style="fill: #0000ff; stroke: #0000ff"/>
     <use xlink:href="#m0e63d49c43" x="138.15734" y="131.587851" style="fill: #0000ff; stroke: #0000ff"/>
     <use xlink:href="#m0e63d49c43" x="141.436679" y="125.536856" style="fill: #0000ff; stroke: #0000ff"/>
     <use xlink:href="#m0e63d49c43" x="144.716018" y="193.493452" style="fill: #0000ff; stroke: #0000ff"/>
     <use xlink:href="#m0e63d49c43" x="147.995356" y="113.410392" style="fill: #0000ff; stroke: #0000ff"/>
     <use xlink:href="#m0e63d49c43" x="151.274695" y="139.05569" style="fill: #0000ff; stroke: #0000ff"/>
     <use xlink:href="#m0e63d49c43" x="154.554034" y="187.446769" style="fill: #0000ff; stroke: #0000ff"/>
     <use xlink:href="#m0e63d49c43" x="157.833373" y="233.204033" style="fill: #0000ff; stroke: #0000ff"/>
     <use xlink:href="#m0e63d49c43" x="161.112712" y="179.887701" style="fill: #0000ff; stroke: #0000ff"/>
     <use xlink:href="#m0e63d49c43" x="164.392051" y="151.550778" style="fill: #0000ff; stroke: #0000ff"/>
     <use xlink:href="#m0e63d49c43" x="167.671389" y="78.748307" style="fill: #0000ff; stroke: #0000ff"/>
     <use xlink:href="#m0e63d49c43" x="170.950728" y="261.216" style="fill: #0000ff; stroke: #0000ff"/>
     <use xlink:href="#m0e63d49c43" x="174.230067" y="182.564356" style="fill: #0000ff; stroke: #0000ff"/>
     <use xlink:href="#m0e63d49c43" x="177.509406" y="182.103658" style="fill: #0000ff; stroke: #0000ff"/>
     <use xlink:href="#m0e63d49c43" x="180.788745" y="143.360389" style="fill: #0000ff; stroke: #0000ff"/>
     <use xlink:href="#m0e63d49c43" x="184.068084" y="208.957376" style="fill: #0000ff; stroke: #0000ff"/>
     <use xlink:href="#m0e63d49c43" x="187.347423" y="114.182137" style="fill: #0000ff; stroke: #0000ff"/>
     <use xlink:href="#m0e63d49c43" x="190.626761" y="137.259477" style="fill: #0000ff; stroke: #0000ff"/>
     <use xlink:href="#m0e63d49c43" x="193.9061" y="126.341598" style="fill: #0000ff; stroke: #0000ff"/>
     <use xlink:href="#m0e63d49c43" x="197.185439" y="153.720587" style="fill: #0000ff; stroke: #0000ff"/>
     <use xlink:href="#m0e63d49c43" x="200.464778" y="142.322304" style="fill: #0000ff; stroke: #0000ff"/>
     <use xlink:href="#m0e63d49c43" x="203.744117" y="135.449409" style="fill: #0000ff; stroke: #0000ff"/>
     <use xlink:href="#m0e63d49c43" x="207.023456" y="152.417397" style="fill: #0000ff; stroke: #0000ff"/>
     <use xlink:href="#m0e63d49c43" x="210.302794" y="231.972945" style="fill: #0000ff; stroke: #0000ff"/>
     <use xlink:href="#m0e63d49c43" x="213.582133" y="216.462619" style="fill: #0000ff; stroke: #0000ff"/>
     <use xlink:href="#m0e63d49c43" x="216.861472" y="110.874954" style="fill: #0000ff; stroke: #0000ff"/>
     <use xlink:href="#m0e63d49c43" x="220.140811" y="174.09286" style="fill: #0000ff; stroke: #0000ff"/>
     <use xlink:href="#m0e63d49c43" x="223.42015" y="136.110796" style="fill: #0000ff; stroke: #0000ff"/>
     <use xlink:href="#m0e63d49c43" x="226.699489" y="224.386046" style="fill: #0000ff; stroke: #0000ff"/>
     <use xlink:href="#m0e63d49c43" x="229.978827" y="91.292178" style="fill: #0000ff; stroke: #0000ff"/>
     <use xlink:href="#m0e63d49c43" x="233.258166" y="61.262933" style="fill: #0000ff; stroke: #0000ff"/>
     <use xlink:href="#m0e63d49c43" x="236.537505" y="121.448978" style="fill: #0000ff; stroke: #0000ff"/>
     <use xlink:href="#m0e63d49c43" x="239.816844" y="120.326057" style="fill: #0000ff; stroke: #0000ff"/>
     <use xlink:href="#m0e63d49c43" x="243.096183" y="121.494295" style="fill: #0000ff; stroke: #0000ff"/>
     <use xlink:href="#m0e63d49c43" x="246.375522" y="180.172083" style="fill: #0000ff; stroke: #0000ff"/>
     <use xlink:href="#m0e63d49c43" x="249.654861" y="178.007074" style="fill: #0000ff; stroke: #0000ff"/>
     <use xlink:href="#m0e63d49c43" x="252.934199" y="131.823017" style="fill: #0000ff; stroke: #0000ff"/>
     <use xlink:href="#m0e63d49c43" x="256.213538" y="178.929" style="fill: #0000ff; stroke: #0000ff"/>
     <use xlink:href="#m0e63d49c43" x="259.492877" y="213.499481" style="fill: #0000ff; stroke: #0000ff"/>
     <use xlink:href="#m0e63d49c43" x="262.772216" y="149.73572" style="fill: #0000ff; stroke: #0000ff"/>
     <use xlink:href="#m0e63d49c43" x="266.051555" y="181.401348" style="fill: #0000ff; stroke: #0000ff"/>
     <use xlink:href="#m0e63d49c43" x="269.330894" y="75.92237" style="fill: #0000ff; stroke: #0000ff"/>
     <use xlink:href="#m0e63d49c43" x="272.610232" y="141.333579" style="fill: #0000ff; stroke: #0000ff"/>
     <use xlink:href="#m0e63d49c43" x="275.889571" y="212.980935" style="fill: #0000ff; stroke: #0000ff"/>
     <use xlink:href="#m0e63d49c43" x="279.16891" y="225.529765" style="fill: #0000ff; stroke: #0000ff"/>
     <use xlink:href="#m0e63d49c43" x="282.448249" y="92.87171" style="fill: #0000ff; stroke: #0000ff"/>
     <use xlink:href="#m0e63d49c43" x="285.727588" y="96.990377" style="fill: #0000ff; stroke: #0000ff"/>
     <use xlink:href="#m0e63d49c43" x="289.006927" y="207.767058" style="fill: #0000ff; stroke: #0000ff"/>
     <use xlink:href="#m0e63d49c43" x="292.286265" y="198.455172" style="fill: #0000ff; stroke: #0000ff"/>
     <use xlink:href="#m0e63d49c43" x="295.565604" y="206.579458" style="fill: #0000ff; stroke: #0000ff"/>
     <use xlink:href="#m0e63d49c43" x="298.844943" y="213.846202" style="fill: #0000ff; stroke: #0000ff"/>
     <use xlink:href="#m0e63d49c43" x="302.124282" y="183.139782" style="fill: #0000ff; stroke: #0000ff"/>
     <use xlink:href="#m0e63d49c43" x="305.403621" y="194.002418" style="fill: #0000ff; stroke: #0000ff"/>
     <use xlink:href="#m0e63d49c43" x="308.68296" y="148.780282" style="fill: #0000ff; stroke: #0000ff"/>
     <use xlink:href="#m0e63d49c43" x="311.962299" y="216.422331" style="fill: #0000ff; stroke: #0000ff"/>
     <use xlink:href="#m0e63d49c43" x="315.241637" y="151.367238" style="fill: #0000ff; stroke: #0000ff"/>
     <use xlink:href="#m0e63d49c43" x="318.520976" y="140.462624" style="fill: #0000ff; stroke: #0000ff"/>
     <use xlink:href="#m0e63d49c43" x="321.800315" y="123.423021" style="fill: #0000ff; stroke: #0000ff"/>
     <use xlink:href="#m0e63d49c43" x="325.079654" y="164.868575" style="fill: #0000ff; stroke: #0000ff"/>
     <use xlink:href="#m0e63d49c43" x="328.358993" y="191.79996" style="fill: #0000ff; stroke: #0000ff"/>
     <use xlink:href="#m0e63d49c43" x="331.638332" y="201.610474" style="fill: #0000ff; stroke: #0000ff"/>
     <use xlink:href="#m0e63d49c43" x="334.91767" y="214.471493" style="fill: #0000ff; stroke: #0000ff"/>
     <use xlink:href="#m0e63d49c43" x="338.197009" y="180.561967" style="fill: #0000ff; stroke: #0000ff"/>
     <use xlink:href="#m0e63d49c43" x="341.476348" y="193.124111" style="fill: #0000ff; stroke: #0000ff"/>
     <use xlink:href="#m0e63d49c43" x="344.755687" y="95.396792" style="fill: #0000ff; stroke: #0000ff"/>
     <use xlink:href="#m0e63d49c43" x="348.035026" y="188.405239" style="fill: #0000ff; stroke: #0000ff"/>
     <use xlink:href="#m0e63d49c43" x="351.314365" y="139.077426" style="fill: #0000ff; stroke: #0000ff"/>
     <use xlink:href="#m0e63d49c43" x="354.593704" y="131.348091" style="fill: #0000ff; stroke: #0000ff"/>
     <use xlink:href="#m0e63d49c43" x="357.873042" y="111.000881" style="fill: #0000ff; stroke: #0000ff"/>
     <use xlink:href="#m0e63d49c43" x="361.152381" y="136.762858" style="fill: #0000ff; stroke: #0000ff"/>
     <use xlink:href="#m0e63d49c43" x="364.43172" y="121.656924" style="fill: #0000ff; stroke: #0000ff"/>
     <use xlink:href="#m0e63d49c43" x="367.711059" y="164.572145" style="fill: #0000ff; stroke: #0000ff"/>
     <use xlink:href="#m0e63d49c43" x="370.990398" y="124.427349" style="fill: #0000ff; stroke: #0000ff"/>
    </g>
   </g>
   <g id="matplotlib.axis_1">
    <g id="xtick_1">
     <g id="line2d_1">
      <path d="M 46.335852 273.312 
L 46.335852 7.2 
" clip-path="url(#p021d7d4c4e)" style="fill: none; stroke-dasharray: 0.8,1.32; stroke-dashoffset: 0; stroke: #b0b0b0; stroke-width: 0.8"/>
     </g>
     <g id="line2d_2">
      <defs>
       <path id="m7cbf7330b0" d="M 0 0 
L 0 3.5 
" style="stroke: #000000; stroke-width: 0.8"/>
      </defs>
      <g>
       <use xlink:href="#m7cbf7330b0" x="46.335852" y="273.312" style="stroke: #000000; stroke-width: 0.8"/>
      </g>
     </g>
     <g id="text_1">
      <!-- 0.0 -->
      <g transform="translate(38.38429 287.910437) scale(0.1 -0.1)">
       <defs>
        <path id="DejaVuSans-30" d="M 2034 4250 
Q 1547 4250 1301 3770 
Q 1056 3291 1056 2328 
Q 1056 1369 1301 889 
Q 1547 409 2034 409 
Q 2525 409 2770 889 
Q 3016 1369 3016 2328 
Q 3016 3291 2770 3770 
Q 2525 4250 2034 4250 
z
M 2034 4750 
Q 2819 4750 3233 4129 
Q 3647 3509 3647 2328 
Q 3647 1150 3233 529 
Q 2819 -91 2034 -91 
Q 1250 -91 836 529 
Q 422 1150 422 2328 
Q 422 3509 836 4129 
Q 1250 4750 2034 4750 
z
" transform="scale(0.015625)"/>
        <path id="DejaVuSans-2e" d="M 684 794 
L 1344 794 
L 1344 0 
L 684 0 
L 684 794 
z
" transform="scale(0.015625)"/>
       </defs>
       <use xlink:href="#DejaVuSans-30"/>
       <use xlink:href="#DejaVuSans-2e" x="63.623047"/>
       <use xlink:href="#DejaVuSans-30" x="95.410156"/>
      </g>
     </g>
    </g>
    <g id="xtick_2">
     <g id="line2d_3">
      <path d="M 111.922629 273.312 
L 111.922629 7.2 
" clip-path="url(#p021d7d4c4e)" style="fill: none; stroke-dasharray: 0.8,1.32; stroke-dashoffset: 0; stroke: #b0b0b0; stroke-width: 0.8"/>
     </g>
     <g id="line2d_4">
      <g>
       <use xlink:href="#m7cbf7330b0" x="111.922629" y="273.312" style="stroke: #000000; stroke-width: 0.8"/>
      </g>
     </g>
     <g id="text_2">
      <!-- 0.2 -->
      <g transform="translate(103.971067 287.910437) scale(0.1 -0.1)">
       <defs>
        <path id="DejaVuSans-32" d="M 1228 531 
L 3431 531 
L 3431 0 
L 469 0 
L 469 531 
Q 828 903 1448 1529 
Q 2069 2156 2228 2338 
Q 2531 2678 2651 2914 
Q 2772 3150 2772 3378 
Q 2772 3750 2511 3984 
Q 2250 4219 1831 4219 
Q 1534 4219 1204 4116 
Q 875 4013 500 3803 
L 500 4441 
Q 881 4594 1212 4672 
Q 1544 4750 1819 4750 
Q 2544 4750 2975 4387 
Q 3406 4025 3406 3419 
Q 3406 3131 3298 2873 
Q 3191 2616 2906 2266 
Q 2828 2175 2409 1742 
Q 1991 1309 1228 531 
z
" transform="scale(0.015625)"/>
       </defs>
       <use xlink:href="#DejaVuSans-30"/>
       <use xlink:href="#DejaVuSans-2e" x="63.623047"/>
       <use xlink:href="#DejaVuSans-32" x="95.410156"/>
      </g>
     </g>
    </g>
    <g id="xtick_3">
     <g id="line2d_5">
      <path d="M 177.509406 273.312 
L 177.509406 7.2 
" clip-path="url(#p021d7d4c4e)" style="fill: none; stroke-dasharray: 0.8,1.32; stroke-dashoffset: 0; stroke: #b0b0b0; stroke-width: 0.8"/>
     </g>
     <g id="line2d_6">
      <g>
       <use xlink:href="#m7cbf7330b0" x="177.509406" y="273.312" style="stroke: #000000; stroke-width: 0.8"/>
      </g>
     </g>
     <g id="text_3">
      <!-- 0.4 -->
      <g transform="translate(169.557843 287.910437) scale(0.1 -0.1)">
       <defs>
        <path id="DejaVuSans-34" d="M 2419 4116 
L 825 1625 
L 2419 1625 
L 2419 4116 
z
M 2253 4666 
L 3047 4666 
L 3047 1625 
L 3713 1625 
L 3713 1100 
L 3047 1100 
L 3047 0 
L 2419 0 
L 2419 1100 
L 313 1100 
L 313 1709 
L 2253 4666 
z
" transform="scale(0.015625)"/>
       </defs>
       <use xlink:href="#DejaVuSans-30"/>
       <use xlink:href="#DejaVuSans-2e" x="63.623047"/>
       <use xlink:href="#DejaVuSans-34" x="95.410156"/>
      </g>
     </g>
    </g>
    <g id="xtick_4">
     <g id="line2d_7">
      <path d="M 243.096183 273.312 
L 243.096183 7.2 
" clip-path="url(#p021d7d4c4e)" style="fill: none; stroke-dasharray: 0.8,1.32; stroke-dashoffset: 0; stroke: #b0b0b0; stroke-width: 0.8"/>
     </g>
     <g id="line2d_8">
      <g>
       <use xlink:href="#m7cbf7330b0" x="243.096183" y="273.312" style="stroke: #000000; stroke-width: 0.8"/>
      </g>
     </g>
     <g id="text_4">
      <!-- 0.6 -->
      <g transform="translate(235.14462 287.910437) scale(0.1 -0.1)">
       <defs>
        <path id="DejaVuSans-36" d="M 2113 2584 
Q 1688 2584 1439 2293 
Q 1191 2003 1191 1497 
Q 1191 994 1439 701 
Q 1688 409 2113 409 
Q 2538 409 2786 701 
Q 3034 994 3034 1497 
Q 3034 2003 2786 2293 
Q 2538 2584 2113 2584 
z
M 3366 4563 
L 3366 3988 
Q 3128 4100 2886 4159 
Q 2644 4219 2406 4219 
Q 1781 4219 1451 3797 
Q 1122 3375 1075 2522 
Q 1259 2794 1537 2939 
Q 1816 3084 2150 3084 
Q 2853 3084 3261 2657 
Q 3669 2231 3669 1497 
Q 3669 778 3244 343 
Q 2819 -91 2113 -91 
Q 1303 -91 875 529 
Q 447 1150 447 2328 
Q 447 3434 972 4092 
Q 1497 4750 2381 4750 
Q 2619 4750 2861 4703 
Q 3103 4656 3366 4563 
z
" transform="scale(0.015625)"/>
       </defs>
       <use xlink:href="#DejaVuSans-30"/>
       <use xlink:href="#DejaVuSans-2e" x="63.623047"/>
       <use xlink:href="#DejaVuSans-36" x="95.410156"/>
      </g>
     </g>
    </g>
    <g id="xtick_5">
     <g id="line2d_9">
      <path d="M 308.68296 273.312 
L 308.68296 7.2 
" clip-path="url(#p021d7d4c4e)" style="fill: none; stroke-dasharray: 0.8,1.32; stroke-dashoffset: 0; stroke: #b0b0b0; stroke-width: 0.8"/>
     </g>
     <g id="line2d_10">
      <g>
       <use xlink:href="#m7cbf7330b0" x="308.68296" y="273.312" style="stroke: #000000; stroke-width: 0.8"/>
      </g>
     </g>
     <g id="text_5">
      <!-- 0.8 -->
      <g transform="translate(300.731397 287.910437) scale(0.1 -0.1)">
       <defs>
        <path id="DejaVuSans-38" d="M 2034 2216 
Q 1584 2216 1326 1975 
Q 1069 1734 1069 1313 
Q 1069 891 1326 650 
Q 1584 409 2034 409 
Q 2484 409 2743 651 
Q 3003 894 3003 1313 
Q 3003 1734 2745 1975 
Q 2488 2216 2034 2216 
z
M 1403 2484 
Q 997 2584 770 2862 
Q 544 3141 544 3541 
Q 544 4100 942 4425 
Q 1341 4750 2034 4750 
Q 2731 4750 3128 4425 
Q 3525 4100 3525 3541 
Q 3525 3141 3298 2862 
Q 3072 2584 2669 2484 
Q 3125 2378 3379 2068 
Q 3634 1759 3634 1313 
Q 3634 634 3220 271 
Q 2806 -91 2034 -91 
Q 1263 -91 848 271 
Q 434 634 434 1313 
Q 434 1759 690 2068 
Q 947 2378 1403 2484 
z
M 1172 3481 
Q 1172 3119 1398 2916 
Q 1625 2713 2034 2713 
Q 2441 2713 2670 2916 
Q 2900 3119 2900 3481 
Q 2900 3844 2670 4047 
Q 2441 4250 2034 4250 
Q 1625 4250 1398 4047 
Q 1172 3844 1172 3481 
z
" transform="scale(0.015625)"/>
       </defs>
       <use xlink:href="#DejaVuSans-30"/>
       <use xlink:href="#DejaVuSans-2e" x="63.623047"/>
       <use xlink:href="#DejaVuSans-38" x="95.410156"/>
      </g>
     </g>
    </g>
    <g id="xtick_6">
     <g id="line2d_11">
      <path d="M 374.269737 273.312 
L 374.269737 7.2 
" clip-path="url(#p021d7d4c4e)" style="fill: none; stroke-dasharray: 0.8,1.32; stroke-dashoffset: 0; stroke: #b0b0b0; stroke-width: 0.8"/>
     </g>
     <g id="line2d_12">
      <g>
       <use xlink:href="#m7cbf7330b0" x="374.269737" y="273.312" style="stroke: #000000; stroke-width: 0.8"/>
      </g>
     </g>
     <g id="text_6">
      <!-- 1.0 -->
      <g transform="translate(366.318174 287.910437) scale(0.1 -0.1)">
       <defs>
        <path id="DejaVuSans-31" d="M 794 531 
L 1825 531 
L 1825 4091 
L 703 3866 
L 703 4441 
L 1819 4666 
L 2450 4666 
L 2450 531 
L 3481 531 
L 3481 0 
L 794 0 
L 794 531 
z
" transform="scale(0.015625)"/>
       </defs>
       <use xlink:href="#DejaVuSans-31"/>
       <use xlink:href="#DejaVuSans-2e" x="63.623047"/>
       <use xlink:href="#DejaVuSans-30" x="95.410156"/>
      </g>
     </g>
    </g>
   </g>
   <g id="matplotlib.axis_2">
    <g id="ytick_1">
     <g id="line2d_13">
      <path d="M 30.103125 235.876242 
L 387.223125 235.876242 
" clip-path="url(#p021d7d4c4e)" style="fill: none; stroke-dasharray: 0.8,1.32; stroke-dashoffset: 0; stroke: #b0b0b0; stroke-width: 0.8"/>
     </g>
     <g id="line2d_14">
      <defs>
       <path id="m3fbe90a742" d="M 0 0 
L -3.5 0 
" style="stroke: #000000; stroke-width: 0.8"/>
      </defs>
      <g>
       <use xlink:href="#m3fbe90a742" x="30.103125" y="235.876242" style="stroke: #000000; stroke-width: 0.8"/>
      </g>
     </g>
     <g id="text_7">
      <!-- 0.5 -->
      <g transform="translate(7.2 239.675461) scale(0.1 -0.1)">
       <defs>
        <path id="DejaVuSans-35" d="M 691 4666 
L 3169 4666 
L 3169 4134 
L 1269 4134 
L 1269 2991 
Q 1406 3038 1543 3061 
Q 1681 3084 1819 3084 
Q 2600 3084 3056 2656 
Q 3513 2228 3513 1497 
Q 3513 744 3044 326 
Q 2575 -91 1722 -91 
Q 1428 -91 1123 -41 
Q 819 9 494 109 
L 494 744 
Q 775 591 1075 516 
Q 1375 441 1709 441 
Q 2250 441 2565 725 
Q 2881 1009 2881 1497 
Q 2881 1984 2565 2268 
Q 2250 2553 1709 2553 
Q 1456 2553 1204 2497 
Q 953 2441 691 2322 
L 691 4666 
z
" transform="scale(0.015625)"/>
       </defs>
       <use xlink:href="#DejaVuSans-30"/>
       <use xlink:href="#DejaVuSans-2e" x="63.623047"/>
       <use xlink:href="#DejaVuSans-35" x="95.410156"/>
      </g>
     </g>
    </g>
    <g id="ytick_2">
     <g id="line2d_15">
      <path d="M 30.103125 191.330058 
L 387.223125 191.330058 
" clip-path="url(#p021d7d4c4e)" style="fill: none; stroke-dasharray: 0.8,1.32; stroke-dashoffset: 0; stroke: #b0b0b0; stroke-width: 0.8"/>
     </g>
     <g id="line2d_16">
      <g>
       <use xlink:href="#m3fbe90a742" x="30.103125" y="191.330058" style="stroke: #000000; stroke-width: 0.8"/>
      </g>
     </g>
     <g id="text_8">
      <!-- 1.0 -->
      <g transform="translate(7.2 195.129277) scale(0.1 -0.1)">
       <use xlink:href="#DejaVuSans-31"/>
       <use xlink:href="#DejaVuSans-2e" x="63.623047"/>
       <use xlink:href="#DejaVuSans-30" x="95.410156"/>
      </g>
     </g>
    </g>
    <g id="ytick_3">
     <g id="line2d_17">
      <path d="M 30.103125 146.783874 
L 387.223125 146.783874 
" clip-path="url(#p021d7d4c4e)" style="fill: none; stroke-dasharray: 0.8,1.32; stroke-dashoffset: 0; stroke: #b0b0b0; stroke-width: 0.8"/>
     </g>
     <g id="line2d_18">
      <g>
       <use xlink:href="#m3fbe90a742" x="30.103125" y="146.783874" style="stroke: #000000; stroke-width: 0.8"/>
      </g>
     </g>
     <g id="text_9">
      <!-- 1.5 -->
      <g transform="translate(7.2 150.583093) scale(0.1 -0.1)">
       <use xlink:href="#DejaVuSans-31"/>
       <use xlink:href="#DejaVuSans-2e" x="63.623047"/>
       <use xlink:href="#DejaVuSans-35" x="95.410156"/>
      </g>
     </g>
    </g>
    <g id="ytick_4">
     <g id="line2d_19">
      <path d="M 30.103125 102.23769 
L 387.223125 102.23769 
" clip-path="url(#p021d7d4c4e)" style="fill: none; stroke-dasharray: 0.8,1.32; stroke-dashoffset: 0; stroke: #b0b0b0; stroke-width: 0.8"/>
     </g>
     <g id="line2d_20">
      <g>
       <use xlink:href="#m3fbe90a742" x="30.103125" y="102.23769" style="stroke: #000000; stroke-width: 0.8"/>
      </g>
     </g>
     <g id="text_10">
      <!-- 2.0 -->
      <g transform="translate(7.2 106.036909) scale(0.1 -0.1)">
       <use xlink:href="#DejaVuSans-32"/>
       <use xlink:href="#DejaVuSans-2e" x="63.623047"/>
       <use xlink:href="#DejaVuSans-30" x="95.410156"/>
      </g>
     </g>
    </g>
    <g id="ytick_5">
     <g id="line2d_21">
      <path d="M 30.103125 57.691506 
L 387.223125 57.691506 
" clip-path="url(#p021d7d4c4e)" style="fill: none; stroke-dasharray: 0.8,1.32; stroke-dashoffset: 0; stroke: #b0b0b0; stroke-width: 0.8"/>
     </g>
     <g id="line2d_22">
      <g>
       <use xlink:href="#m3fbe90a742" x="30.103125" y="57.691506" style="stroke: #000000; stroke-width: 0.8"/>
      </g>
     </g>
     <g id="text_11">
      <!-- 2.5 -->
      <g transform="translate(7.2 61.490725) scale(0.1 -0.1)">
       <use xlink:href="#DejaVuSans-32"/>
       <use xlink:href="#DejaVuSans-2e" x="63.623047"/>
       <use xlink:href="#DejaVuSans-35" x="95.410156"/>
      </g>
     </g>
    </g>
    <g id="ytick_6">
     <g id="line2d_23">
      <path d="M 30.103125 13.145322 
L 387.223125 13.145322 
" clip-path="url(#p021d7d4c4e)" style="fill: none; stroke-dasharray: 0.8,1.32; stroke-dashoffset: 0; stroke: #b0b0b0; stroke-width: 0.8"/>
     </g>
     <g id="line2d_24">
      <g>
       <use xlink:href="#m3fbe90a742" x="30.103125" y="13.145322" style="stroke: #000000; stroke-width: 0.8"/>
      </g>
     </g>
     <g id="text_12">
      <!-- 3.0 -->
      <g transform="translate(7.2 16.944541) scale(0.1 -0.1)">
       <defs>
        <path id="DejaVuSans-33" d="M 2597 2516 
Q 3050 2419 3304 2112 
Q 3559 1806 3559 1356 
Q 3559 666 3084 287 
Q 2609 -91 1734 -91 
Q 1441 -91 1130 -33 
Q 819 25 488 141 
L 488 750 
Q 750 597 1062 519 
Q 1375 441 1716 441 
Q 2309 441 2620 675 
Q 2931 909 2931 1356 
Q 2931 1769 2642 2001 
Q 2353 2234 1838 2234 
L 1294 2234 
L 1294 2753 
L 1863 2753 
Q 2328 2753 2575 2939 
Q 2822 3125 2822 3475 
Q 2822 3834 2567 4026 
Q 2313 4219 1838 4219 
Q 1578 4219 1281 4162 
Q 984 4106 628 3988 
L 628 4550 
Q 988 4650 1302 4700 
Q 1616 4750 1894 4750 
Q 2613 4750 3031 4423 
Q 3450 4097 3450 3541 
Q 3450 3153 3228 2886 
Q 3006 2619 2597 2516 
z
" transform="scale(0.015625)"/>
       </defs>
       <use xlink:href="#DejaVuSans-33"/>
       <use xlink:href="#DejaVuSans-2e" x="63.623047"/>
       <use xlink:href="#DejaVuSans-30" x="95.410156"/>
      </g>
     </g>
    </g>
   </g>
   <g id="line2d_25">
    <path d="M 46.335852 128.9654 
L 49.615191 129.410862 
L 52.89453 129.856324 
L 56.173869 130.301786 
L 59.453208 130.747248 
L 62.732546 131.19271 
L 66.011885 131.638172 
L 69.291224 132.083633 
L 72.570563 132.529095 
L 75.849902 132.974557 
L 79.129241 133.420019 
L 82.40858 133.865481 
L 85.687918 134.310943 
L 88.967257 134.756404 
L 92.246596 135.201866 
L 95.525935 135.647328 
L 98.805274 136.09279 
L 102.084613 136.538252 
L 105.363951 136.983714 
L 108.64329 137.429175 
L 111.922629 137.874637 
L 115.201968 138.320099 
L 118.481307 138.765561 
L 121.760646 139.211023 
L 125.039985 139.656485 
L 128.319323 140.101946 
L 131.598662 140.547408 
L 134.878001 140.99287 
L 138.15734 141.438332 
L 141.436679 141.883794 
L 144.716018 142.329256 
L 147.995356 142.774718 
L 151.274695 143.220179 
L 154.554034 143.665641 
L 157.833373 144.111103 
L 161.112712 144.556565 
L 164.392051 145.002027 
L 167.671389 145.447489 
L 170.950728 145.89295 
L 174.230067 146.338412 
L 177.509406 146.783874 
L 180.788745 147.229336 
L 184.068084 147.674798 
L 187.347423 148.12026 
L 190.626761 148.565721 
L 193.9061 149.011183 
L 197.185439 149.456645 
L 200.464778 149.902107 
L 203.744117 150.347569 
L 207.023456 150.793031 
L 210.302794 151.238492 
L 213.582133 151.683954 
L 216.861472 152.129416 
L 220.140811 152.574878 
L 223.42015 153.02034 
L 226.699489 153.465802 
L 229.978827 153.911264 
L 233.258166 154.356725 
L 236.537505 154.802187 
L 239.816844 155.247649 
L 243.096183 155.693111 
L 246.375522 156.138573 
L 249.654861 156.584035 
L 252.934199 157.029496 
L 256.213538 157.474958 
L 259.492877 157.92042 
L 262.772216 158.365882 
L 266.051555 158.811344 
L 269.330894 159.256806 
L 272.610232 159.702267 
L 275.889571 160.147729 
L 279.16891 160.593191 
L 282.448249 161.038653 
L 285.727588 161.484115 
L 289.006927 161.929577 
L 292.286265 162.375038 
L 295.565604 162.8205 
L 298.844943 163.265962 
L 302.124282 163.711424 
L 305.403621 164.156886 
L 308.68296 164.602348 
L 311.962299 165.04781 
L 315.241637 165.493271 
L 318.520976 165.938733 
L 321.800315 166.384195 
L 325.079654 166.829657 
L 328.358993 167.275119 
L 331.638332 167.720581 
L 334.91767 168.166042 
L 338.197009 168.611504 
L 341.476348 169.056966 
L 344.755687 169.502428 
L 348.035026 169.94789 
L 351.314365 170.393352 
L 354.593704 170.838813 
L 357.873042 171.284275 
L 361.152381 171.729737 
L 364.43172 172.175199 
L 367.711059 172.620661 
L 370.990398 173.066123 
" clip-path="url(#p021d7d4c4e)" style="fill: none; stroke: #ff0000; stroke-width: 2; stroke-linecap: square"/>
   </g>
   <g id="patch_3">
    <path d="M 30.103125 273.312 
L 30.103125 7.2 
" style="fill: none; stroke: #000000; stroke-width: 0.8; stroke-linejoin: miter; stroke-linecap: square"/>
   </g>
   <g id="patch_4">
    <path d="M 387.223125 273.312 
L 387.223125 7.2 
" style="fill: none; stroke: #000000; stroke-width: 0.8; stroke-linejoin: miter; stroke-linecap: square"/>
   </g>
   <g id="patch_5">
    <path d="M 30.103125 273.312 
L 387.223125 273.312 
" style="fill: none; stroke: #000000; stroke-width: 0.8; stroke-linejoin: miter; stroke-linecap: square"/>
   </g>
   <g id="patch_6">
    <path d="M 30.103125 7.2 
L 387.223125 7.2 
" style="fill: none; stroke: #000000; stroke-width: 0.8; stroke-linejoin: miter; stroke-linecap: square"/>
   </g>
   <g id="legend_1">
    <g id="patch_7">
     <path d="M 283.641875 44.55625 
L 380.223125 44.55625 
Q 382.223125 44.55625 382.223125 42.55625 
L 382.223125 14.2 
Q 382.223125 12.2 380.223125 12.2 
L 283.641875 12.2 
Q 281.641875 12.2 281.641875 14.2 
L 281.641875 42.55625 
Q 281.641875 44.55625 283.641875 44.55625 
z
" style="fill: #ffffff; opacity: 0.8; stroke: #cccccc; stroke-linejoin: miter"/>
    </g>
    <g id="line2d_26">
     <path d="M 285.641875 20.298437 
L 295.641875 20.298437 
L 305.641875 20.298437 
" style="fill: none; stroke: #ff0000; stroke-width: 2; stroke-linecap: square"/>
    </g>
    <g id="text_13">
     <!-- Ground truth -->
     <g transform="translate(313.641875 23.798437) scale(0.1 -0.1)">
      <defs>
       <path id="DejaVuSans-47" d="M 3809 666 
L 3809 1919 
L 2778 1919 
L 2778 2438 
L 4434 2438 
L 4434 434 
Q 4069 175 3628 42 
Q 3188 -91 2688 -91 
Q 1594 -91 976 548 
Q 359 1188 359 2328 
Q 359 3472 976 4111 
Q 1594 4750 2688 4750 
Q 3144 4750 3555 4637 
Q 3966 4525 4313 4306 
L 4313 3634 
Q 3963 3931 3569 4081 
Q 3175 4231 2741 4231 
Q 1884 4231 1454 3753 
Q 1025 3275 1025 2328 
Q 1025 1384 1454 906 
Q 1884 428 2741 428 
Q 3075 428 3337 486 
Q 3600 544 3809 666 
z
" transform="scale(0.015625)"/>
       <path id="DejaVuSans-72" d="M 2631 2963 
Q 2534 3019 2420 3045 
Q 2306 3072 2169 3072 
Q 1681 3072 1420 2755 
Q 1159 2438 1159 1844 
L 1159 0 
L 581 0 
L 581 3500 
L 1159 3500 
L 1159 2956 
Q 1341 3275 1631 3429 
Q 1922 3584 2338 3584 
Q 2397 3584 2469 3576 
Q 2541 3569 2628 3553 
L 2631 2963 
z
" transform="scale(0.015625)"/>
       <path id="DejaVuSans-6f" d="M 1959 3097 
Q 1497 3097 1228 2736 
Q 959 2375 959 1747 
Q 959 1119 1226 758 
Q 1494 397 1959 397 
Q 2419 397 2687 759 
Q 2956 1122 2956 1747 
Q 2956 2369 2687 2733 
Q 2419 3097 1959 3097 
z
M 1959 3584 
Q 2709 3584 3137 3096 
Q 3566 2609 3566 1747 
Q 3566 888 3137 398 
Q 2709 -91 1959 -91 
Q 1206 -91 779 398 
Q 353 888 353 1747 
Q 353 2609 779 3096 
Q 1206 3584 1959 3584 
z
" transform="scale(0.015625)"/>
       <path id="DejaVuSans-75" d="M 544 1381 
L 544 3500 
L 1119 3500 
L 1119 1403 
Q 1119 906 1312 657 
Q 1506 409 1894 409 
Q 2359 409 2629 706 
Q 2900 1003 2900 1516 
L 2900 3500 
L 3475 3500 
L 3475 0 
L 2900 0 
L 2900 538 
Q 2691 219 2414 64 
Q 2138 -91 1772 -91 
Q 1169 -91 856 284 
Q 544 659 544 1381 
z
M 1991 3584 
L 1991 3584 
z
" transform="scale(0.015625)"/>
       <path id="DejaVuSans-6e" d="M 3513 2113 
L 3513 0 
L 2938 0 
L 2938 2094 
Q 2938 2591 2744 2837 
Q 2550 3084 2163 3084 
Q 1697 3084 1428 2787 
Q 1159 2491 1159 1978 
L 1159 0 
L 581 0 
L 581 3500 
L 1159 3500 
L 1159 2956 
Q 1366 3272 1645 3428 
Q 1925 3584 2291 3584 
Q 2894 3584 3203 3211 
Q 3513 2838 3513 2113 
z
" transform="scale(0.015625)"/>
       <path id="DejaVuSans-64" d="M 2906 2969 
L 2906 4863 
L 3481 4863 
L 3481 0 
L 2906 0 
L 2906 525 
Q 2725 213 2448 61 
Q 2172 -91 1784 -91 
Q 1150 -91 751 415 
Q 353 922 353 1747 
Q 353 2572 751 3078 
Q 1150 3584 1784 3584 
Q 2172 3584 2448 3432 
Q 2725 3281 2906 2969 
z
M 947 1747 
Q 947 1113 1208 752 
Q 1469 391 1925 391 
Q 2381 391 2643 752 
Q 2906 1113 2906 1747 
Q 2906 2381 2643 2742 
Q 2381 3103 1925 3103 
Q 1469 3103 1208 2742 
Q 947 2381 947 1747 
z
" transform="scale(0.015625)"/>
       <path id="DejaVuSans-20" transform="scale(0.015625)"/>
       <path id="DejaVuSans-74" d="M 1172 4494 
L 1172 3500 
L 2356 3500 
L 2356 3053 
L 1172 3053 
L 1172 1153 
Q 1172 725 1289 603 
Q 1406 481 1766 481 
L 2356 481 
L 2356 0 
L 1766 0 
Q 1100 0 847 248 
Q 594 497 594 1153 
L 594 3053 
L 172 3053 
L 172 3500 
L 594 3500 
L 594 4494 
L 1172 4494 
z
" transform="scale(0.015625)"/>
       <path id="DejaVuSans-68" d="M 3513 2113 
L 3513 0 
L 2938 0 
L 2938 2094 
Q 2938 2591 2744 2837 
Q 2550 3084 2163 3084 
Q 1697 3084 1428 2787 
Q 1159 2491 1159 1978 
L 1159 0 
L 581 0 
L 581 4863 
L 1159 4863 
L 1159 2956 
Q 1366 3272 1645 3428 
Q 1925 3584 2291 3584 
Q 2894 3584 3203 3211 
Q 3513 2838 3513 2113 
z
" transform="scale(0.015625)"/>
      </defs>
      <use xlink:href="#DejaVuSans-47"/>
      <use xlink:href="#DejaVuSans-72" x="77.490234"/>
      <use xlink:href="#DejaVuSans-6f" x="116.353516"/>
      <use xlink:href="#DejaVuSans-75" x="177.535156"/>
      <use xlink:href="#DejaVuSans-6e" x="240.914062"/>
      <use xlink:href="#DejaVuSans-64" x="304.292969"/>
      <use xlink:href="#DejaVuSans-20" x="367.769531"/>
      <use xlink:href="#DejaVuSans-74" x="399.556641"/>
      <use xlink:href="#DejaVuSans-72" x="438.765625"/>
      <use xlink:href="#DejaVuSans-75" x="479.878906"/>
      <use xlink:href="#DejaVuSans-74" x="543.257812"/>
      <use xlink:href="#DejaVuSans-68" x="582.466797"/>
     </g>
    </g>
    <g id="PathCollection_2">
     <g>
      <use xlink:href="#m0e63d49c43" x="295.641875" y="35.851562" style="fill: #0000ff; stroke: #0000ff"/>
     </g>
    </g>
    <g id="text_14">
     <!-- Data -->
     <g transform="translate(313.641875 38.476562) scale(0.1 -0.1)">
      <defs>
       <path id="DejaVuSans-44" d="M 1259 4147 
L 1259 519 
L 2022 519 
Q 2988 519 3436 956 
Q 3884 1394 3884 2338 
Q 3884 3275 3436 3711 
Q 2988 4147 2022 4147 
L 1259 4147 
z
M 628 4666 
L 1925 4666 
Q 3281 4666 3915 4102 
Q 4550 3538 4550 2338 
Q 4550 1131 3912 565 
Q 3275 0 1925 0 
L 628 0 
L 628 4666 
z
" transform="scale(0.015625)"/>
       <path id="DejaVuSans-61" d="M 2194 1759 
Q 1497 1759 1228 1600 
Q 959 1441 959 1056 
Q 959 750 1161 570 
Q 1363 391 1709 391 
Q 2188 391 2477 730 
Q 2766 1069 2766 1631 
L 2766 1759 
L 2194 1759 
z
M 3341 1997 
L 3341 0 
L 2766 0 
L 2766 531 
Q 2569 213 2275 61 
Q 1981 -91 1556 -91 
Q 1019 -91 701 211 
Q 384 513 384 1019 
Q 384 1609 779 1909 
Q 1175 2209 1959 2209 
L 2766 2209 
L 2766 2266 
Q 2766 2663 2505 2880 
Q 2244 3097 1772 3097 
Q 1472 3097 1187 3025 
Q 903 2953 641 2809 
L 641 3341 
Q 956 3463 1253 3523 
Q 1550 3584 1831 3584 
Q 2591 3584 2966 3190 
Q 3341 2797 3341 1997 
z
" transform="scale(0.015625)"/>
      </defs>
      <use xlink:href="#DejaVuSans-44"/>
      <use xlink:href="#DejaVuSans-61" x="77.001953"/>
      <use xlink:href="#DejaVuSans-74" x="138.28125"/>
      <use xlink:href="#DejaVuSans-61" x="177.490234"/>
     </g>
    </g>
   </g>
  </g>
 </g>
 <defs>
  <clipPath id="p021d7d4c4e">
   <rect x="30.103125" y="7.2" width="357.12" height="266.112"/>
  </clipPath>
 </defs>
</svg>