<?xml version="1.0" encoding="utf-8" standalone="no"?>
<!DOCTYPE svg PUBLIC "-//W3C//DTD SVG 1.1//EN"
  "http://www.w3.org/Graphics/SVG/1.1/DTD/svg11.dtd">
<svg xmlns:xlink="http://www.w3.org/1999/xlink" width="400.785625pt" height="297.190125pt" viewBox="0 0 400.785625 297.190125" xmlns="http://www.w3.org/2000/svg" version="1.1">
 <metadata>
  <rdf:RDF xmlns:dc="http://purl.org/dc/elements/1.1/" xmlns:cc="http://creativecommons.org/ns#" xmlns:rdf="http://www.w3.org/1999/02/22-rdf-syntax-ns#">
   <cc:Work>
    <dc:type rdf:resource="http://purl.org/dc/dcmitype/StillImage"/>
    <dc:date>2024-01-20T08:37:35.148358</dc:date>
    <dc:format>image/svg+xml</dc:format>
    <dc:creator>
     <cc:Agent>
      <dc:title>Matplotlib v3.7.1, https://matplotlib.org/</dc:title>
     </cc:Agent>
    </dc:creator>
   </cc:Work>
  </rdf:RDF>
 </metadata>
 <defs>
  <style type="text/css">*{stroke-linejoin: round; stroke-linecap: butt}</style>
 </defs>
 <g id="figure_1">
  <g id="patch_1">
   <path d="M 0 297.190125 
L 400.785625 297.190125 
L 400.785625 0 
L 0 0 
z
" style="fill: #ffffff"/>
  </g>
  <g id="axes_1">
   <g id="patch_2">
    <path d="M 36.465625 273.312 
L 393.585625 273.312 
L 393.585625 7.2 
L 36.465625 7.2 
z
" style="fill: #ffffff"/>
   </g>
   <g id="PathCollection_1">
    <defs>
     <path id="m0459914137" d="M 0 1.581139 
C 0.419323 1.581139 0.821528 1.41454 1.118034 1.118034 
C 1.41454 0.821528 1.581139 0.419323 1.581139 0 
C 1.581139 -0.419323 1.41454 -0.821528 1.118034 -1.118034 
C 0.821528 -1.41454 0.419323 -1.581139 0 -1.581139 
C -0.419323 -1.581139 -0.821528 -1.41454 -1.118034 -1.118034 
C -1.41454 -0.821528 -1.581139 -0.419323 -1.581139 0 
C -1.581139 0.419323 -1.41454 0.821528 -1.118034 1.118034 
C -0.821528 1.41454 -0.419323 1.581139 0 1.581139 
z
" style="stroke: #0000ff"/>
    </defs>
    <g clip-path="url(#p8a8e70f096)">
     <use xlink:href="#m0459914137" x="52.698352" y="239.655851" style="fill: #0000ff; stroke: #0000ff"/>
     <use xlink:href="#m0459914137" x="55.977691" y="242.839308" style="fill: #0000ff; stroke: #0000ff"/>
     <use xlink:href="#m0459914137" x="59.25703" y="242.867089" style="fill: #0000ff; stroke: #0000ff"/>
     <use xlink:href="#m0459914137" x="62.536369" y="241.507251" style="fill: #0000ff; stroke: #0000ff"/>
     <use xlink:href="#m0459914137" x="65.815708" y="255.165818" style="fill: #0000ff; stroke: #0000ff"/>
     <use xlink:href="#m0459914137" x="69.095046" y="244.368037" style="fill: #0000ff; stroke: #0000ff"/>
     <use xlink:href="#m0459914137" x="72.374385" y="249.067702" style="fill: #0000ff; stroke: #0000ff"/>
     <use xlink:href="#m0459914137" x="75.653724" y="246.809071" style="fill: #0000ff; stroke: #0000ff"/>
     <use xlink:href="#m0459914137" x="78.933063" y="247.246258" style="fill: #0000ff; stroke: #0000ff"/>
     <use xlink:href="#m0459914137" x="82.212402" y="241.992321" style="fill: #0000ff; stroke: #0000ff"/>
     <use xlink:href="#m0459914137" x="85.491741" y="234.317702" style="fill: #0000ff; stroke: #0000ff"/>
     <use xlink:href="#m0459914137" x="88.77108" y="261.216" style="fill: #0000ff; stroke: #0000ff"/>
     <use xlink:href="#m0459914137" x="92.050418" y="248.269016" style="fill: #0000ff; stroke: #0000ff"/>
     <use xlink:href="#m0459914137" x="95.329757" y="239.745922" style="fill: #0000ff; stroke: #0000ff"/>
     <use xlink:href="#m0459914137" x="98.609096" y="250.45355" style="fill: #0000ff; stroke: #0000ff"/>
     <use xlink:href="#m0459914137" x="101.888435" y="249.993482" style="fill: #0000ff; stroke: #0000ff"/>
     <use xlink:href="#m0459914137" x="105.167774" y="258.213749" style="fill: #0000ff; stroke: #0000ff"/>
     <use xlink:href="#m0459914137" x="108.447113" y="250.947787" style="fill: #0000ff; stroke: #0000ff"/>
     <use xlink:href="#m0459914137" x="111.726451" y="243.322683" style="fill: #0000ff; stroke: #0000ff"/>
     <use xlink:href="#m0459914137" x="115.00579" y="250.545617" style="fill: #0000ff; stroke: #0000ff"/>
     <use xlink:href="#m0459914137" x="118.285129" y="253.194926" style="fill: #0000ff; stroke: #0000ff"/>
     <use xlink:href="#m0459914137" x="121.564468" y="253.653431" style="fill: #0000ff; stroke: #0000ff"/>
     <use xlink:href="#m0459914137" x="124.843807" y="243.646138" style="fill: #0000ff; stroke: #0000ff"/>
     <use xlink:href="#m0459914137" x="128.123146" y="248.846692" style="fill: #0000ff; stroke: #0000ff"/>
     <use xlink:href="#m0459914137" x="131.402485" y="244.951539" style="fill: #0000ff; stroke: #0000ff"/>
     <use xlink:href="#m0459914137" x="134.681823" y="241.423656" style="fill: #0000ff; stroke: #0000ff"/>
     <use xlink:href="#m0459914137" x="137.961162" y="253.054319" style="fill: #0000ff; stroke: #0000ff"/>
     <use xlink:href="#m0459914137" x="141.240501" y="253.660533" style="fill: #0000ff; stroke: #0000ff"/>
     <use xlink:href="#m0459914137" x="144.51984" y="247.209253" style="fill: #0000ff; stroke: #0000ff"/>
     <use xlink:href="#m0459914137" x="147.799179" y="243.095257" style="fill: #0000ff; stroke: #0000ff"/>
     <use xlink:href="#m0459914137" x="151.078518" y="234.52486" style="fill: #0000ff; stroke: #0000ff"/>
     <use xlink:href="#m0459914137" x="154.357856" y="240.959522" style="fill: #0000ff; stroke: #0000ff"/>
     <use xlink:href="#m0459914137" x="157.637195" y="249.111946" style="fill: #0000ff; stroke: #0000ff"/>
     <use xlink:href="#m0459914137" x="160.916534" y="252.469011" style="fill: #0000ff; stroke: #0000ff"/>
     <use xlink:href="#m0459914137" x="164.195873" y="244.789448" style="fill: #0000ff; stroke: #0000ff"/>
     <use xlink:href="#m0459914137" x="167.475212" y="252.41303" style="fill: #0000ff; stroke: #0000ff"/>
     <use xlink:href="#m0459914137" x="170.754551" y="244.105258" style="fill: #0000ff; stroke: #0000ff"/>
     <use xlink:href="#m0459914137" x="174.033889" y="241.110291" style="fill: #0000ff; stroke: #0000ff"/>
     <use xlink:href="#m0459914137" x="177.313228" y="249.570169" style="fill: #0000ff; stroke: #0000ff"/>
     <use xlink:href="#m0459914137" x="180.592567" y="241.729692" style="fill: #0000ff; stroke: #0000ff"/>
     <use xlink:href="#m0459914137" x="183.871906" y="253.794225" style="fill: #0000ff; stroke: #0000ff"/>
     <use xlink:href="#m0459914137" x="187.151245" y="245.286546" style="fill: #0000ff; stroke: #0000ff"/>
     <use xlink:href="#m0459914137" x="190.430584" y="252.423561" style="fill: #0000ff; stroke: #0000ff"/>
     <use xlink:href="#m0459914137" x="193.709923" y="240.409665" style="fill: #0000ff; stroke: #0000ff"/>
     <use xlink:href="#m0459914137" x="196.989261" y="251.217341" style="fill: #0000ff; stroke: #0000ff"/>
     <use xlink:href="#m0459914137" x="200.2686" y="255.966102" style="fill: #0000ff; stroke: #0000ff"/>
     <use xlink:href="#m0459914137" x="203.547939" y="252.182716" style="fill: #0000ff; stroke: #0000ff"/>
     <use xlink:href="#m0459914137" x="206.827278" y="256.470969" style="fill: #0000ff; stroke: #0000ff"/>
     <use xlink:href="#m0459914137" x="210.106617" y="246.912102" style="fill: #0000ff; stroke: #0000ff"/>
     <use xlink:href="#m0459914137" x="213.385956" y="240.996002" style="fill: #0000ff; stroke: #0000ff"/>
     <use xlink:href="#m0459914137" x="216.665294" y="236.365332" style="fill: #0000ff; stroke: #0000ff"/>
     <use xlink:href="#m0459914137" x="219.944633" y="250.763128" style="fill: #0000ff; stroke: #0000ff"/>
     <use xlink:href="#m0459914137" x="223.223972" y="250.861773" style="fill: #0000ff; stroke: #0000ff"/>
     <use xlink:href="#m0459914137" x="226.503311" y="252.974006" style="fill: #0000ff; stroke: #0000ff"/>
     <use xlink:href="#m0459914137" x="229.78265" y="255.12729" style="fill: #0000ff; stroke: #0000ff"/>
     <use xlink:href="#m0459914137" x="233.061989" y="254.351116" style="fill: #0000ff; stroke: #0000ff"/>
     <use xlink:href="#m0459914137" x="236.341327" y="235.530115" style="fill: #0000ff; stroke: #0000ff"/>
     <use xlink:href="#m0459914137" x="239.620666" y="227.656494" style="fill: #0000ff; stroke: #0000ff"/>
     <use xlink:href="#m0459914137" x="242.900005" y="260.121848" style="fill: #0000ff; stroke: #0000ff"/>
     <use xlink:href="#m0459914137" x="246.179344" y="255.62187" style="fill: #0000ff; stroke: #0000ff"/>
     <use xlink:href="#m0459914137" x="249.458683" y="252.413667" style="fill: #0000ff; stroke: #0000ff"/>
     <use xlink:href="#m0459914137" x="252.738022" y="244.647166" style="fill: #0000ff; stroke: #0000ff"/>
     <use xlink:href="#m0459914137" x="256.017361" y="252.713125" style="fill: #0000ff; stroke: #0000ff"/>
     <use xlink:href="#m0459914137" x="259.296699" y="253.360677" style="fill: #0000ff; stroke: #0000ff"/>
     <use xlink:href="#m0459914137" x="262.576038" y="251.328989" style="fill: #0000ff; stroke: #0000ff"/>
     <use xlink:href="#m0459914137" x="265.855377" y="252.876301" style="fill: #0000ff; stroke: #0000ff"/>
     <use xlink:href="#m0459914137" x="269.134716" y="244.623188" style="fill: #0000ff; stroke: #0000ff"/>
     <use xlink:href="#m0459914137" x="272.414055" y="245.28794" style="fill: #0000ff; stroke: #0000ff"/>
     <use xlink:href="#m0459914137" x="275.693394" y="241.603091" style="fill: #0000ff; stroke: #0000ff"/>
     <use xlink:href="#m0459914137" x="278.972732" y="237.926619" style="fill: #0000ff; stroke: #0000ff"/>
     <use xlink:href="#m0459914137" x="282.252071" y="251.09369" style="fill: #0000ff; stroke: #0000ff"/>
     <use xlink:href="#m0459914137" x="285.53141" y="255.265796" style="fill: #0000ff; stroke: #0000ff"/>
     <use xlink:href="#m0459914137" x="288.810749" y="250.804178" style="fill: #0000ff; stroke: #0000ff"/>
     <use xlink:href="#m0459914137" x="292.090088" y="248.194544" style="fill: #0000ff; stroke: #0000ff"/>
     <use xlink:href="#m0459914137" x="295.369427" y="251.591886" style="fill: #0000ff; stroke: #0000ff"/>
     <use xlink:href="#m0459914137" x="298.648765" y="250.131114" style="fill: #0000ff; stroke: #0000ff"/>
     <use xlink:href="#m0459914137" x="301.928104" y="248.757282" style="fill: #0000ff; stroke: #0000ff"/>
     <use xlink:href="#m0459914137" x="305.207443" y="241.02851" style="fill: #0000ff; stroke: #0000ff"/>
     <use xlink:href="#m0459914137" x="308.486782" y="249.19997" style="fill: #0000ff; stroke: #0000ff"/>
     <use xlink:href="#m0459914137" x="311.766121" y="19.296" style="fill: #0000ff; stroke: #0000ff"/>
     <use xlink:href="#m0459914137" x="315.04546" y="240.166113" style="fill: #0000ff; stroke: #0000ff"/>
     <use xlink:href="#m0459914137" x="318.324799" y="250.782582" style="fill: #0000ff; stroke: #0000ff"/>
     <use xlink:href="#m0459914137" x="321.604137" y="247.637547" style="fill: #0000ff; stroke: #0000ff"/>
     <use xlink:href="#m0459914137" x="324.883476" y="247.982145" style="fill: #0000ff; stroke: #0000ff"/>
     <use xlink:href="#m0459914137" x="328.162815" y="250.873686" style="fill: #0000ff; stroke: #0000ff"/>
     <use xlink:href="#m0459914137" x="331.442154" y="259.406812" style="fill: #0000ff; stroke: #0000ff"/>
     <use xlink:href="#m0459914137" x="334.721493" y="257.952808" style="fill: #0000ff; stroke: #0000ff"/>
     <use xlink:href="#m0459914137" x="338.000832" y="257.115176" style="fill: #0000ff; stroke: #0000ff"/>
     <use xlink:href="#m0459914137" x="341.28017" y="254.054976" style="fill: #0000ff; stroke: #0000ff"/>
     <use xlink:href="#m0459914137" x="344.559509" y="259.631061" style="fill: #0000ff; stroke: #0000ff"/>
     <use xlink:href="#m0459914137" x="347.838848" y="258.486633" style="fill: #0000ff; stroke: #0000ff"/>
     <use xlink:href="#m0459914137" x="351.118187" y="249.9892" style="fill: #0000ff; stroke: #0000ff"/>
     <use xlink:href="#m0459914137" x="354.397526" y="242.590259" style="fill: #0000ff; stroke: #0000ff"/>
     <use xlink:href="#m0459914137" x="357.676865" y="256.897793" style="fill: #0000ff; stroke: #0000ff"/>
     <use xlink:href="#m0459914137" x="360.956204" y="241.714819" style="fill: #0000ff; stroke: #0000ff"/>
     <use xlink:href="#m0459914137" x="364.235542" y="249.414681" style="fill: #0000ff; stroke: #0000ff"/>
     <use xlink:href="#m0459914137" x="367.514881" y="255.828263" style="fill: #0000ff; stroke: #0000ff"/>
     <use xlink:href="#m0459914137" x="370.79422" y="250.70021" style="fill: #0000ff; stroke: #0000ff"/>
     <use xlink:href="#m0459914137" x="374.073559" y="257.058931" style="fill: #0000ff; stroke: #0000ff"/>
     <use xlink:href="#m0459914137" x="377.352898" y="244.013011" style="fill: #0000ff; stroke: #0000ff"/>
    </g>
   </g>
   <g id="matplotlib.axis_1">
    <g id="xtick_1">
     <g id="line2d_1">
      <path d="M 52.698352 273.312 
L 52.698352 7.2 
" clip-path="url(#p8a8e70f096)" style="fill: none; stroke-dasharray: 0.8,1.32; stroke-dashoffset: 0; stroke: #b0b0b0; stroke-width: 0.8"/>
     </g>
     <g id="line2d_2">
      <defs>
       <path id="m920d5245d8" d="M 0 0 
L 0 3.5 
" style="stroke: #000000; stroke-width: 0.8"/>
      </defs>
      <g>
       <use xlink:href="#m920d5245d8" x="52.698352" y="273.312" style="stroke: #000000; stroke-width: 0.8"/>
      </g>
     </g>
     <g id="text_1">
      <!-- 0.0 -->
      <g transform="translate(44.74679 287.910437) scale(0.1 -0.1)">
       <defs>
        <path id="DejaVuSans-30" d="M 2034 4250 
Q 1547 4250 1301 3770 
Q 1056 3291 1056 2328 
Q 1056 1369 1301 889 
Q 1547 409 2034 409 
Q 2525 409 2770 889 
Q 3016 1369 3016 2328 
Q 3016 3291 2770 3770 
Q 2525 4250 2034 4250 
z
M 2034 4750 
Q 2819 4750 3233 4129 
Q 3647 3509 3647 2328 
Q 3647 1150 3233 529 
Q 2819 -91 2034 -91 
Q 1250 -91 836 529 
Q 422 1150 422 2328 
Q 422 3509 836 4129 
Q 1250 4750 2034 4750 
z
" transform="scale(0.015625)"/>
        <path id="DejaVuSans-2e" d="M 684 794 
L 1344 794 
L 1344 0 
L 684 0 
L 684 794 
z
" transform="scale(0.015625)"/>
       </defs>
       <use xlink:href="#DejaVuSans-30"/>
       <use xlink:href="#DejaVuSans-2e" x="63.623047"/>
       <use xlink:href="#DejaVuSans-30" x="95.410156"/>
      </g>
     </g>
    </g>
    <g id="xtick_2">
     <g id="line2d_3">
      <path d="M 118.285129 273.312 
L 118.285129 7.2 
" clip-path="url(#p8a8e70f096)" style="fill: none; stroke-dasharray: 0.8,1.32; stroke-dashoffset: 0; stroke: #b0b0b0; stroke-width: 0.8"/>
     </g>
     <g id="line2d_4">
      <g>
       <use xlink:href="#m920d5245d8" x="118.285129" y="273.312" style="stroke: #000000; stroke-width: 0.8"/>
      </g>
     </g>
     <g id="text_2">
      <!-- 0.2 -->
      <g transform="translate(110.333567 287.910437) scale(0.1 -0.1)">
       <defs>
        <path id="DejaVuSans-32" d="M 1228 531 
L 3431 531 
L 3431 0 
L 469 0 
L 469 531 
Q 828 903 1448 1529 
Q 2069 2156 2228 2338 
Q 2531 2678 2651 2914 
Q 2772 3150 2772 3378 
Q 2772 3750 2511 3984 
Q 2250 4219 1831 4219 
Q 1534 4219 1204 4116 
Q 875 4013 500 3803 
L 500 4441 
Q 881 4594 1212 4672 
Q 1544 4750 1819 4750 
Q 2544 4750 2975 4387 
Q 3406 4025 3406 3419 
Q 3406 3131 3298 2873 
Q 3191 2616 2906 2266 
Q 2828 2175 2409 1742 
Q 1991 1309 1228 531 
z
" transform="scale(0.015625)"/>
       </defs>
       <use xlink:href="#DejaVuSans-30"/>
       <use xlink:href="#DejaVuSans-2e" x="63.623047"/>
       <use xlink:href="#DejaVuSans-32" x="95.410156"/>
      </g>
     </g>
    </g>
    <g id="xtick_3">
     <g id="line2d_5">
      <path d="M 183.871906 273.312 
L 183.871906 7.2 
" clip-path="url(#p8a8e70f096)" style="fill: none; stroke-dasharray: 0.8,1.32; stroke-dashoffset: 0; stroke: #b0b0b0; stroke-width: 0.8"/>
     </g>
     <g id="line2d_6">
      <g>
       <use xlink:href="#m920d5245d8" x="183.871906" y="273.312" style="stroke: #000000; stroke-width: 0.8"/>
      </g>
     </g>
     <g id="text_3">
      <!-- 0.4 -->
      <g transform="translate(175.920343 287.910437) scale(0.1 -0.1)">
       <defs>
        <path id="DejaVuSans-34" d="M 2419 4116 
L 825 1625 
L 2419 1625 
L 2419 4116 
z
M 2253 4666 
L 3047 4666 
L 3047 1625 
L 3713 1625 
L 3713 1100 
L 3047 1100 
L 3047 0 
L 2419 0 
L 2419 1100 
L 313 1100 
L 313 1709 
L 2253 4666 
z
" transform="scale(0.015625)"/>
       </defs>
       <use xlink:href="#DejaVuSans-30"/>
       <use xlink:href="#DejaVuSans-2e" x="63.623047"/>
       <use xlink:href="#DejaVuSans-34" x="95.410156"/>
      </g>
     </g>
    </g>
    <g id="xtick_4">
     <g id="line2d_7">
      <path d="M 249.458683 273.312 
L 249.458683 7.2 
" clip-path="url(#p8a8e70f096)" style="fill: none; stroke-dasharray: 0.8,1.32; stroke-dashoffset: 0; stroke: #b0b0b0; stroke-width: 0.8"/>
     </g>
     <g id="line2d_8">
      <g>
       <use xlink:href="#m920d5245d8" x="249.458683" y="273.312" style="stroke: #000000; stroke-width: 0.8"/>
      </g>
     </g>
     <g id="text_4">
      <!-- 0.6 -->
      <g transform="translate(241.50712 287.910437) scale(0.1 -0.1)">
       <defs>
        <path id="DejaVuSans-36" d="M 2113 2584 
Q 1688 2584 1439 2293 
Q 1191 2003 1191 1497 
Q 1191 994 1439 701 
Q 1688 409 2113 409 
Q 2538 409 2786 701 
Q 3034 994 3034 1497 
Q 3034 2003 2786 2293 
Q 2538 2584 2113 2584 
z
M 3366 4563 
L 3366 3988 
Q 3128 4100 2886 4159 
Q 2644 4219 2406 4219 
Q 1781 4219 1451 3797 
Q 1122 3375 1075 2522 
Q 1259 2794 1537 2939 
Q 1816 3084 2150 3084 
Q 2853 3084 3261 2657 
Q 3669 2231 3669 1497 
Q 3669 778 3244 343 
Q 2819 -91 2113 -91 
Q 1303 -91 875 529 
Q 447 1150 447 2328 
Q 447 3434 972 4092 
Q 1497 4750 2381 4750 
Q 2619 4750 2861 4703 
Q 3103 4656 3366 4563 
z
" transform="scale(0.015625)"/>
       </defs>
       <use xlink:href="#DejaVuSans-30"/>
       <use xlink:href="#DejaVuSans-2e" x="63.623047"/>
       <use xlink:href="#DejaVuSans-36" x="95.410156"/>
      </g>
     </g>
    </g>
    <g id="xtick_5">
     <g id="line2d_9">
      <path d="M 315.04546 273.312 
L 315.04546 7.2 
" clip-path="url(#p8a8e70f096)" style="fill: none; stroke-dasharray: 0.8,1.32; stroke-dashoffset: 0; stroke: #b0b0b0; stroke-width: 0.8"/>
     </g>
     <g id="line2d_10">
      <g>
       <use xlink:href="#m920d5245d8" x="315.04546" y="273.312" style="stroke: #000000; stroke-width: 0.8"/>
      </g>
     </g>
     <g id="text_5">
      <!-- 0.8 -->
      <g transform="translate(307.093897 287.910437) scale(0.1 -0.1)">
       <defs>
        <path id="DejaVuSans-38" d="M 2034 2216 
Q 1584 2216 1326 1975 
Q 1069 1734 1069 1313 
Q 1069 891 1326 650 
Q 1584 409 2034 409 
Q 2484 409 2743 651 
Q 3003 894 3003 1313 
Q 3003 1734 2745 1975 
Q 2488 2216 2034 2216 
z
M 1403 2484 
Q 997 2584 770 2862 
Q 544 3141 544 3541 
Q 544 4100 942 4425 
Q 1341 4750 2034 4750 
Q 2731 4750 3128 4425 
Q 3525 4100 3525 3541 
Q 3525 3141 3298 2862 
Q 3072 2584 2669 2484 
Q 3125 2378 3379 2068 
Q 3634 1759 3634 1313 
Q 3634 634 3220 271 
Q 2806 -91 2034 -91 
Q 1263 -91 848 271 
Q 434 634 434 1313 
Q 434 1759 690 2068 
Q 947 2378 1403 2484 
z
M 1172 3481 
Q 1172 3119 1398 2916 
Q 1625 2713 2034 2713 
Q 2441 2713 2670 2916 
Q 2900 3119 2900 3481 
Q 2900 3844 2670 4047 
Q 2441 4250 2034 4250 
Q 1625 4250 1398 4047 
Q 1172 3844 1172 3481 
z
" transform="scale(0.015625)"/>
       </defs>
       <use xlink:href="#DejaVuSans-30"/>
       <use xlink:href="#DejaVuSans-2e" x="63.623047"/>
       <use xlink:href="#DejaVuSans-38" x="95.410156"/>
      </g>
     </g>
    </g>
    <g id="xtick_6">
     <g id="line2d_11">
      <path d="M 380.632237 273.312 
L 380.632237 7.2 
" clip-path="url(#p8a8e70f096)" style="fill: none; stroke-dasharray: 0.8,1.32; stroke-dashoffset: 0; stroke: #b0b0b0; stroke-width: 0.8"/>
     </g>
     <g id="line2d_12">
      <g>
       <use xlink:href="#m920d5245d8" x="380.632237" y="273.312" style="stroke: #000000; stroke-width: 0.8"/>
      </g>
     </g>
     <g id="text_6">
      <!-- 1.0 -->
      <g transform="translate(372.680674 287.910437) scale(0.1 -0.1)">
       <defs>
        <path id="DejaVuSans-31" d="M 794 531 
L 1825 531 
L 1825 4091 
L 703 3866 
L 703 4441 
L 1819 4666 
L 2450 4666 
L 2450 531 
L 3481 531 
L 3481 0 
L 794 0 
L 794 531 
z
" transform="scale(0.015625)"/>
       </defs>
       <use xlink:href="#DejaVuSans-31"/>
       <use xlink:href="#DejaVuSans-2e" x="63.623047"/>
       <use xlink:href="#DejaVuSans-30" x="95.410156"/>
      </g>
     </g>
    </g>
   </g>
   <g id="matplotlib.axis_2">
    <g id="ytick_1">
     <g id="line2d_13">
      <path d="M 36.465625 265.91979 
L 393.585625 265.91979 
" clip-path="url(#p8a8e70f096)" style="fill: none; stroke-dasharray: 0.8,1.32; stroke-dashoffset: 0; stroke: #b0b0b0; stroke-width: 0.8"/>
     </g>
     <g id="line2d_14">
      <defs>
       <path id="m50d25b1eb4" d="M 0 0 
L -3.5 0 
" style="stroke: #000000; stroke-width: 0.8"/>
      </defs>
      <g>
       <use xlink:href="#m50d25b1eb4" x="36.465625" y="265.91979" style="stroke: #000000; stroke-width: 0.8"/>
      </g>
     </g>
     <g id="text_7">
      <!-- 0.0 -->
      <g transform="translate(13.5625 269.719008) scale(0.1 -0.1)">
       <use xlink:href="#DejaVuSans-30"/>
       <use xlink:href="#DejaVuSans-2e" x="63.623047"/>
       <use xlink:href="#DejaVuSans-30" x="95.410156"/>
      </g>
     </g>
    </g>
    <g id="ytick_2">
     <g id="line2d_15">
      <path d="M 36.465625 235.778727 
L 393.585625 235.778727 
" clip-path="url(#p8a8e70f096)" style="fill: none; stroke-dasharray: 0.8,1.32; stroke-dashoffset: 0; stroke: #b0b0b0; stroke-width: 0.8"/>
     </g>
     <g id="line2d_16">
      <g>
       <use xlink:href="#m50d25b1eb4" x="36.465625" y="235.778727" style="stroke: #000000; stroke-width: 0.8"/>
      </g>
     </g>
     <g id="text_8">
      <!-- 2.5 -->
      <g transform="translate(13.5625 239.577946) scale(0.1 -0.1)">
       <defs>
        <path id="DejaVuSans-35" d="M 691 4666 
L 3169 4666 
L 3169 4134 
L 1269 4134 
L 1269 2991 
Q 1406 3038 1543 3061 
Q 1681 3084 1819 3084 
Q 2600 3084 3056 2656 
Q 3513 2228 3513 1497 
Q 3513 744 3044 326 
Q 2575 -91 1722 -91 
Q 1428 -91 1123 -41 
Q 819 9 494 109 
L 494 744 
Q 775 591 1075 516 
Q 1375 441 1709 441 
Q 2250 441 2565 725 
Q 2881 1009 2881 1497 
Q 2881 1984 2565 2268 
Q 2250 2553 1709 2553 
Q 1456 2553 1204 2497 
Q 953 2441 691 2322 
L 691 4666 
z
" transform="scale(0.015625)"/>
       </defs>
       <use xlink:href="#DejaVuSans-32"/>
       <use xlink:href="#DejaVuSans-2e" x="63.623047"/>
       <use xlink:href="#DejaVuSans-35" x="95.410156"/>
      </g>
     </g>
    </g>
    <g id="ytick_3">
     <g id="line2d_17">
      <path d="M 36.465625 205.637665 
L 393.585625 205.637665 
" clip-path="url(#p8a8e70f096)" style="fill: none; stroke-dasharray: 0.8,1.32; stroke-dashoffset: 0; stroke: #b0b0b0; stroke-width: 0.8"/>
     </g>
     <g id="line2d_18">
      <g>
       <use xlink:href="#m50d25b1eb4" x="36.465625" y="205.637665" style="stroke: #000000; stroke-width: 0.8"/>
      </g>
     </g>
     <g id="text_9">
      <!-- 5.0 -->
      <g transform="translate(13.5625 209.436883) scale(0.1 -0.1)">
       <use xlink:href="#DejaVuSans-35"/>
       <use xlink:href="#DejaVuSans-2e" x="63.623047"/>
       <use xlink:href="#DejaVuSans-30" x="95.410156"/>
      </g>
     </g>
    </g>
    <g id="ytick_4">
     <g id="line2d_19">
      <path d="M 36.465625 175.496602 
L 393.585625 175.496602 
" clip-path="url(#p8a8e70f096)" style="fill: none; stroke-dasharray: 0.8,1.32; stroke-dashoffset: 0; stroke: #b0b0b0; stroke-width: 0.8"/>
     </g>
     <g id="line2d_20">
      <g>
       <use xlink:href="#m50d25b1eb4" x="36.465625" y="175.496602" style="stroke: #000000; stroke-width: 0.8"/>
      </g>
     </g>
     <g id="text_10">
      <!-- 7.5 -->
      <g transform="translate(13.5625 179.295821) scale(0.1 -0.1)">
       <defs>
        <path id="DejaVuSans-37" d="M 525 4666 
L 3525 4666 
L 3525 4397 
L 1831 0 
L 1172 0 
L 2766 4134 
L 525 4134 
L 525 4666 
z
" transform="scale(0.015625)"/>
       </defs>
       <use xlink:href="#DejaVuSans-37"/>
       <use xlink:href="#DejaVuSans-2e" x="63.623047"/>
       <use xlink:href="#DejaVuSans-35" x="95.410156"/>
      </g>
     </g>
    </g>
    <g id="ytick_5">
     <g id="line2d_21">
      <path d="M 36.465625 145.35554 
L 393.585625 145.35554 
" clip-path="url(#p8a8e70f096)" style="fill: none; stroke-dasharray: 0.8,1.32; stroke-dashoffset: 0; stroke: #b0b0b0; stroke-width: 0.8"/>
     </g>
     <g id="line2d_22">
      <g>
       <use xlink:href="#m50d25b1eb4" x="36.465625" y="145.35554" style="stroke: #000000; stroke-width: 0.8"/>
      </g>
     </g>
     <g id="text_11">
      <!-- 10.0 -->
      <g transform="translate(7.2 149.154759) scale(0.1 -0.1)">
       <use xlink:href="#DejaVuSans-31"/>
       <use xlink:href="#DejaVuSans-30" x="63.623047"/>
       <use xlink:href="#DejaVuSans-2e" x="127.246094"/>
       <use xlink:href="#DejaVuSans-30" x="159.033203"/>
      </g>
     </g>
    </g>
    <g id="ytick_6">
     <g id="line2d_23">
      <path d="M 36.465625 115.214478 
L 393.585625 115.214478 
" clip-path="url(#p8a8e70f096)" style="fill: none; stroke-dasharray: 0.8,1.32; stroke-dashoffset: 0; stroke: #b0b0b0; stroke-width: 0.8"/>
     </g>
     <g id="line2d_24">
      <g>
       <use xlink:href="#m50d25b1eb4" x="36.465625" y="115.214478" style="stroke: #000000; stroke-width: 0.8"/>
      </g>
     </g>
     <g id="text_12">
      <!-- 12.5 -->
      <g transform="translate(7.2 119.013696) scale(0.1 -0.1)">
       <use xlink:href="#DejaVuSans-31"/>
       <use xlink:href="#DejaVuSans-32" x="63.623047"/>
       <use xlink:href="#DejaVuSans-2e" x="127.246094"/>
       <use xlink:href="#DejaVuSans-35" x="159.033203"/>
      </g>
     </g>
    </g>
    <g id="ytick_7">
     <g id="line2d_25">
      <path d="M 36.465625 85.073415 
L 393.585625 85.073415 
" clip-path="url(#p8a8e70f096)" style="fill: none; stroke-dasharray: 0.8,1.32; stroke-dashoffset: 0; stroke: #b0b0b0; stroke-width: 0.8"/>
     </g>
     <g id="line2d_26">
      <g>
       <use xlink:href="#m50d25b1eb4" x="36.465625" y="85.073415" style="stroke: #000000; stroke-width: 0.8"/>
      </g>
     </g>
     <g id="text_13">
      <!-- 15.0 -->
      <g transform="translate(7.2 88.872634) scale(0.1 -0.1)">
       <use xlink:href="#DejaVuSans-31"/>
       <use xlink:href="#DejaVuSans-35" x="63.623047"/>
       <use xlink:href="#DejaVuSans-2e" x="127.246094"/>
       <use xlink:href="#DejaVuSans-30" x="159.033203"/>
      </g>
     </g>
    </g>
    <g id="ytick_8">
     <g id="line2d_27">
      <path d="M 36.465625 54.932353 
L 393.585625 54.932353 
" clip-path="url(#p8a8e70f096)" style="fill: none; stroke-dasharray: 0.8,1.32; stroke-dashoffset: 0; stroke: #b0b0b0; stroke-width: 0.8"/>
     </g>
     <g id="line2d_28">
      <g>
       <use xlink:href="#m50d25b1eb4" x="36.465625" y="54.932353" style="stroke: #000000; stroke-width: 0.8"/>
      </g>
     </g>
     <g id="text_14">
      <!-- 17.5 -->
      <g transform="translate(7.2 58.731571) scale(0.1 -0.1)">
       <use xlink:href="#DejaVuSans-31"/>
       <use xlink:href="#DejaVuSans-37" x="63.623047"/>
       <use xlink:href="#DejaVuSans-2e" x="127.246094"/>
       <use xlink:href="#DejaVuSans-35" x="159.033203"/>
      </g>
     </g>
    </g>
    <g id="ytick_9">
     <g id="line2d_29">
      <path d="M 36.465625 24.79129 
L 393.585625 24.79129 
" clip-path="url(#p8a8e70f096)" style="fill: none; stroke-dasharray: 0.8,1.32; stroke-dashoffset: 0; stroke: #b0b0b0; stroke-width: 0.8"/>
     </g>
     <g id="line2d_30">
      <g>
       <use xlink:href="#m50d25b1eb4" x="36.465625" y="24.79129" style="stroke: #000000; stroke-width: 0.8"/>
      </g>
     </g>
     <g id="text_15">
      <!-- 20.0 -->
      <g transform="translate(7.2 28.590509) scale(0.1 -0.1)">
       <use xlink:href="#DejaVuSans-32"/>
       <use xlink:href="#DejaVuSans-30" x="63.623047"/>
       <use xlink:href="#DejaVuSans-2e" x="127.246094"/>
       <use xlink:href="#DejaVuSans-30" x="159.033203"/>
      </g>
     </g>
    </g>
   </g>
   <g id="line2d_31">
    <path d="M 52.698352 245.423867 
L 55.977691 245.484149 
L 59.25703 245.544431 
L 62.536369 245.604713 
L 65.815708 245.664996 
L 69.095046 245.725278 
L 72.374385 245.78556 
L 75.653724 245.845842 
L 78.933063 245.906124 
L 82.212402 245.966406 
L 85.491741 246.026688 
L 88.77108 246.08697 
L 92.050418 246.147253 
L 95.329757 246.207535 
L 98.609096 246.267817 
L 101.888435 246.328099 
L 105.167774 246.388381 
L 108.447113 246.448663 
L 111.726451 246.508945 
L 115.00579 246.569227 
L 118.285129 246.62951 
L 121.564468 246.689792 
L 124.843807 246.750074 
L 128.123146 246.810356 
L 131.402485 246.870638 
L 134.681823 246.93092 
L 137.961162 246.991202 
L 141.240501 247.051484 
L 144.51984 247.111767 
L 147.799179 247.172049 
L 151.078518 247.232331 
L 154.357856 247.292613 
L 157.637195 247.352895 
L 160.916534 247.413177 
L 164.195873 247.473459 
L 167.475212 247.533741 
L 170.754551 247.594024 
L 174.033889 247.654306 
L 177.313228 247.714588 
L 180.592567 247.77487 
L 183.871906 247.835152 
L 187.151245 247.895434 
L 190.430584 247.955716 
L 193.709923 248.015998 
L 196.989261 248.076281 
L 200.2686 248.136563 
L 203.547939 248.196845 
L 206.827278 248.257127 
L 210.106617 248.317409 
L 213.385956 248.377691 
L 216.665294 248.437973 
L 219.944633 248.498255 
L 223.223972 248.558538 
L 226.503311 248.61882 
L 229.78265 248.679102 
L 233.061989 248.739384 
L 236.341327 248.799666 
L 239.620666 248.859948 
L 242.900005 248.92023 
L 246.179344 248.980512 
L 249.458683 249.040795 
L 252.738022 249.101077 
L 256.017361 249.161359 
L 259.296699 249.221641 
L 262.576038 249.281923 
L 265.855377 249.342205 
L 269.134716 249.402487 
L 272.414055 249.462769 
L 275.693394 249.523052 
L 278.972732 249.583334 
L 282.252071 249.643616 
L 285.53141 249.703898 
L 288.810749 249.76418 
L 292.090088 249.824462 
L 295.369427 249.884744 
L 298.648765 249.945026 
L 301.928104 250.005309 
L 305.207443 250.065591 
L 308.486782 250.125873 
L 311.766121 250.186155 
L 315.04546 250.246437 
L 318.324799 250.306719 
L 321.604137 250.367001 
L 324.883476 250.427283 
L 328.162815 250.487566 
L 331.442154 250.547848 
L 334.721493 250.60813 
L 338.000832 250.668412 
L 341.28017 250.728694 
L 344.559509 250.788976 
L 347.838848 250.849258 
L 351.118187 250.90954 
L 354.397526 250.969823 
L 357.676865 251.030105 
L 360.956204 251.090387 
L 364.235542 251.150669 
L 367.514881 251.210951 
L 370.79422 251.271233 
L 374.073559 251.331515 
L 377.352898 251.391797 
" clip-path="url(#p8a8e70f096)" style="fill: none; stroke: #ff0000; stroke-width: 2; stroke-linecap: square"/>
   </g>
   <g id="patch_3">
    <path d="M 36.465625 273.312 
L 36.465625 7.2 
" style="fill: none; stroke: #000000; stroke-width: 0.8; stroke-linejoin: miter; stroke-linecap: square"/>
   </g>
   <g id="patch_4">
    <path d="M 393.585625 273.312 
L 393.585625 7.2 
" style="fill: none; stroke: #000000; stroke-width: 0.8; stroke-linejoin: miter; stroke-linecap: square"/>
   </g>
   <g id="patch_5">
    <path d="M 36.465625 273.312 
L 393.585625 273.312 
" style="fill: none; stroke: #000000; stroke-width: 0.8; stroke-linejoin: miter; stroke-linecap: square"/>
   </g>
   <g id="patch_6">
    <path d="M 36.465625 7.2 
L 393.585625 7.2 
" style="fill: none; stroke: #000000; stroke-width: 0.8; stroke-linejoin: miter; stroke-linecap: square"/>
   </g>
   <g id="legend_1">
    <g id="patch_7">
     <path d="M 43.465625 44.55625 
L 140.046875 44.55625 
Q 142.046875 44.55625 142.046875 42.55625 
L 142.046875 14.2 
Q 142.046875 12.2 140.046875 12.2 
L 43.465625 12.2 
Q 41.465625 12.2 41.465625 14.2 
L 41.465625 42.55625 
Q 41.465625 44.55625 43.465625 44.55625 
z
" style="fill: #ffffff; opacity: 0.8; stroke: #cccccc; stroke-linejoin: miter"/>
    </g>
    <g id="line2d_32">
     <path d="M 45.465625 20.298437 
L 55.465625 20.298437 
L 65.465625 20.298437 
" style="fill: none; stroke: #ff0000; stroke-width: 2; stroke-linecap: square"/>
    </g>
    <g id="text_16">
     <!-- Ground truth -->
     <g transform="translate(73.465625 23.798437) scale(0.1 -0.1)">
      <defs>
       <path id="DejaVuSans-47" d="M 3809 666 
L 3809 1919 
L 2778 1919 
L 2778 2438 
L 4434 2438 
L 4434 434 
Q 4069 175 3628 42 
Q 3188 -91 2688 -91 
Q 1594 -91 976 548 
Q 359 1188 359 2328 
Q 359 3472 976 4111 
Q 1594 4750 2688 4750 
Q 3144 4750 3555 4637 
Q 3966 4525 4313 4306 
L 4313 3634 
Q 3963 3931 3569 4081 
Q 3175 4231 2741 4231 
Q 1884 4231 1454 3753 
Q 1025 3275 1025 2328 
Q 1025 1384 1454 906 
Q 1884 428 2741 428 
Q 3075 428 3337 486 
Q 3600 544 3809 666 
z
" transform="scale(0.015625)"/>
       <path id="DejaVuSans-72" d="M 2631 2963 
Q 2534 3019 2420 3045 
Q 2306 3072 2169 3072 
Q 1681 3072 1420 2755 
Q 1159 2438 1159 1844 
L 1159 0 
L 581 0 
L 581 3500 
L 1159 3500 
L 1159 2956 
Q 1341 3275 1631 3429 
Q 1922 3584 2338 3584 
Q 2397 3584 2469 3576 
Q 2541 3569 2628 3553 
L 2631 2963 
z
" transform="scale(0.015625)"/>
       <path id="DejaVuSans-6f" d="M 1959 3097 
Q 1497 3097 1228 2736 
Q 959 2375 959 1747 
Q 959 1119 1226 758 
Q 1494 397 1959 397 
Q 2419 397 2687 759 
Q 2956 1122 2956 1747 
Q 2956 2369 2687 2733 
Q 2419 3097 1959 3097 
z
M 1959 3584 
Q 2709 3584 3137 3096 
Q 3566 2609 3566 1747 
Q 3566 888 3137 398 
Q 2709 -91 1959 -91 
Q 1206 -91 779 398 
Q 353 888 353 1747 
Q 353 2609 779 3096 
Q 1206 3584 1959 3584 
z
" transform="scale(0.015625)"/>
       <path id="DejaVuSans-75" d="M 544 1381 
L 544 3500 
L 1119 3500 
L 1119 1403 
Q 1119 906 1312 657 
Q 1506 409 1894 409 
Q 2359 409 2629 706 
Q 2900 1003 2900 1516 
L 2900 3500 
L 3475 3500 
L 3475 0 
L 2900 0 
L 2900 538 
Q 2691 219 2414 64 
Q 2138 -91 1772 -91 
Q 1169 -91 856 284 
Q 544 659 544 1381 
z
M 1991 3584 
L 1991 3584 
z
" transform="scale(0.015625)"/>
       <path id="DejaVuSans-6e" d="M 3513 2113 
L 3513 0 
L 2938 0 
L 2938 2094 
Q 2938 2591 2744 2837 
Q 2550 3084 2163 3084 
Q 1697 3084 1428 2787 
Q 1159 2491 1159 1978 
L 1159 0 
L 581 0 
L 581 3500 
L 1159 3500 
L 1159 2956 
Q 1366 3272 1645 3428 
Q 1925 3584 2291 3584 
Q 2894 3584 3203 3211 
Q 3513 2838 3513 2113 
z
" transform="scale(0.015625)"/>
       <path id="DejaVuSans-64" d="M 2906 2969 
L 2906 4863 
L 3481 4863 
L 3481 0 
L 2906 0 
L 2906 525 
Q 2725 213 2448 61 
Q 2172 -91 1784 -91 
Q 1150 -91 751 415 
Q 353 922 353 1747 
Q 353 2572 751 3078 
Q 1150 3584 1784 3584 
Q 2172 3584 2448 3432 
Q 2725 3281 2906 2969 
z
M 947 1747 
Q 947 1113 1208 752 
Q 1469 391 1925 391 
Q 2381 391 2643 752 
Q 2906 1113 2906 1747 
Q 2906 2381 2643 2742 
Q 2381 3103 1925 3103 
Q 1469 3103 1208 2742 
Q 947 2381 947 1747 
z
" transform="scale(0.015625)"/>
       <path id="DejaVuSans-20" transform="scale(0.015625)"/>
       <path id="DejaVuSans-74" d="M 1172 4494 
L 1172 3500 
L 2356 3500 
L 2356 3053 
L 1172 3053 
L 1172 1153 
Q 1172 725 1289 603 
Q 1406 481 1766 481 
L 2356 481 
L 2356 0 
L 1766 0 
Q 1100 0 847 248 
Q 594 497 594 1153 
L 594 3053 
L 172 3053 
L 172 3500 
L 594 3500 
L 594 4494 
L 1172 4494 
z
" transform="scale(0.015625)"/>
       <path id="DejaVuSans-68" d="M 3513 2113 
L 3513 0 
L 2938 0 
L 2938 2094 
Q 2938 2591 2744 2837 
Q 2550 3084 2163 3084 
Q 1697 3084 1428 2787 
Q 1159 2491 1159 1978 
L 1159 0 
L 581 0 
L 581 4863 
L 1159 4863 
L 1159 2956 
Q 1366 3272 1645 3428 
Q 1925 3584 2291 3584 
Q 2894 3584 3203 3211 
Q 3513 2838 3513 2113 
z
" transform="scale(0.015625)"/>
      </defs>
      <use xlink:href="#DejaVuSans-47"/>
      <use xlink:href="#DejaVuSans-72" x="77.490234"/>
      <use xlink:href="#DejaVuSans-6f" x="116.353516"/>
      <use xlink:href="#DejaVuSans-75" x="177.535156"/>
      <use xlink:href="#DejaVuSans-6e" x="240.914062"/>
      <use xlink:href="#DejaVuSans-64" x="304.292969"/>
      <use xlink:href="#DejaVuSans-20" x="367.769531"/>
      <use xlink:href="#DejaVuSans-74" x="399.556641"/>
      <use xlink:href="#DejaVuSans-72" x="438.765625"/>
      <use xlink:href="#DejaVuSans-75" x="479.878906"/>
      <use xlink:href="#DejaVuSans-74" x="543.257812"/>
      <use xlink:href="#DejaVuSans-68" x="582.466797"/>
     </g>
    </g>
    <g id="PathCollection_2">
     <g>
      <use xlink:href="#m0459914137" x="55.465625" y="35.851562" style="fill: #0000ff; stroke: #0000ff"/>
     </g>
    </g>
    <g id="text_17">
     <!-- Data -->
     <g transform="translate(73.465625 38.476562) scale(0.1 -0.1)">
      <defs>
       <path id="DejaVuSans-44" d="M 1259 4147 
L 1259 519 
L 2022 519 
Q 2988 519 3436 956 
Q 3884 1394 3884 2338 
Q 3884 3275 3436 3711 
Q 2988 4147 2022 4147 
L 1259 4147 
z
M 628 4666 
L 1925 4666 
Q 3281 4666 3915 4102 
Q 4550 3538 4550 2338 
Q 4550 1131 3912 565 
Q 3275 0 1925 0 
L 628 0 
L 628 4666 
z
" transform="scale(0.015625)"/>
       <path id="DejaVuSans-61" d="M 2194 1759 
Q 1497 1759 1228 1600 
Q 959 1441 959 1056 
Q 959 750 1161 570 
Q 1363 391 1709 391 
Q 2188 391 2477 730 
Q 2766 1069 2766 1631 
L 2766 1759 
L 2194 1759 
z
M 3341 1997 
L 3341 0 
L 2766 0 
L 2766 531 
Q 2569 213 2275 61 
Q 1981 -91 1556 -91 
Q 1019 -91 701 211 
Q 384 513 384 1019 
Q 384 1609 779 1909 
Q 1175 2209 1959 2209 
L 2766 2209 
L 2766 2266 
Q 2766 2663 2505 2880 
Q 2244 3097 1772 3097 
Q 1472 3097 1187 3025 
Q 903 2953 641 2809 
L 641 3341 
Q 956 3463 1253 3523 
Q 1550 3584 1831 3584 
Q 2591 3584 2966 3190 
Q 3341 2797 3341 1997 
z
" transform="scale(0.015625)"/>
      </defs>
      <use xlink:href="#DejaVuSans-44"/>
      <use xlink:href="#DejaVuSans-61" x="77.001953"/>
      <use xlink:href="#DejaVuSans-74" x="138.28125"/>
      <use xlink:href="#DejaVuSans-61" x="177.490234"/>
     </g>
    </g>
   </g>
  </g>
 </g>
 <defs>
  <clipPath id="p8a8e70f096">
   <rect x="36.465625" y="7.2" width="357.12" height="266.112"/>
  </clipPath>
 </defs>
</svg>